<svg width="254" height="110" viewBox="0 0 254 110" fill="none" xmlns="http://www.w3.org/2000/svg">
<g clip-path="url(#clip0_2464_42631)">
<path d="M52.1891 0C52.1891 27.6479 52.2304 55.3039 52.1643 82.9518C52.156 87.4858 51.4945 91.987 49.7086 96.2254C46.7651 103.207 41.5313 107.511 34.1312 109.236C32.8827 109.524 25.3504 110.575 18.7275 109.425C9.01237 107.372 2.79466 101.129 0.735872 90.5824C0.438216 89.0464 0.239779 87.494 0 85.9416C0 57.2999 0 28.6499 0 0H17.6609C17.6444 0.328554 17.6196 0.657109 17.6196 0.985663C17.6196 28.7731 17.6196 56.5524 17.6279 84.3399C17.6279 85.3174 17.7188 86.3112 17.9007 87.2723C18.6118 91.0588 20.7863 93.3176 24.5153 93.8926C25.9209 94.1144 27.4174 93.9912 28.8396 93.8105C31.7335 93.4409 33.693 91.757 34.6108 89.0547C35.1069 87.5844 35.3715 85.9909 35.4542 84.4385C35.603 81.6868 35.5616 78.927 35.5616 76.1671C35.5616 51.2052 35.5616 26.2433 35.5616 1.28958C35.5616 0.862455 35.5368 0.435335 35.5203 0.00821386H52.1891V0Z" fill="black"/>
<path d="M79.5734 110H63.748V0H86.1219L103.51 64.9716V0H119.261V110H101.137L79.4908 28.4692L79.5734 110Z" fill="#231F20"/>
<path d="M131.556 110V0H155.376V45.9812L149.266 41.2829V110H131.556Z" fill="#231F20"/>
<path d="M166.663 0H177.404V64.0681L166.663 55.2957V0Z" fill="#231F20"/>
<path d="M188.516 0H199.43V45.4801L188.64 54.5811L188.516 0Z" fill="#231F20"/>
<path d="M210.542 0H221.258L221.34 26.8347L210.525 36.1246L210.542 0Z" fill="#231F20"/>
<path d="M177.403 64.069L188.64 54.582V110.001H177.883L177.403 64.069Z" fill="#808084"/>
<path d="M199.43 45.4806L210.526 36.125V110H199.43V45.4806Z" fill="#808084"/>
<path d="M221.341 26.834V109.999L231.899 109.917V36.1239L221.341 26.834Z" fill="#808084"/>
<path d="M243.797 45.957V110H254V54.4091L243.797 45.957Z" fill="#808084"/>
</g>
<defs>
<clipPath id="clip0_2464_42631">
<rect width="254" height="110" fill="white"/>
</clipPath>
</defs>
</svg>
