<svg width="85" height="103" viewBox="0 0 85 103" fill="none" xmlns="http://www.w3.org/2000/svg">
<path d="M48.5294 79.8718V82.7394H50.3755C50.8872 82.7394 51.2785 82.6169 51.5594 82.372C51.8404 82.1271 51.9908 81.7903 51.9908 81.3515C51.9908 80.3719 51.4892 79.8821 50.506 79.8718H48.5294ZM48.5294 78.3208H50.1247C51.2083 78.3003 51.7501 77.8615 51.7501 77.0044C51.7501 76.5247 51.6096 76.1778 51.3387 75.9635C51.0678 75.7492 50.6264 75.6471 50.0344 75.6471H48.5294V78.331V78.3208ZM46.3723 84.5047V73.8613H50.0344C51.2986 73.8613 52.2617 74.1062 52.9239 74.6063C53.5761 75.1063 53.9072 75.8308 53.9072 76.7799C53.9072 77.3003 53.7767 77.7595 53.5159 78.1575C53.255 78.5555 52.8838 78.8412 52.4122 79.0351C52.944 79.1677 53.3754 79.4433 53.6764 79.8616C53.9874 80.28 54.1379 80.7801 54.1379 81.3821C54.1379 82.4026 53.8169 83.1781 53.1747 83.7088C52.5326 84.2292 51.6196 84.5047 50.4257 84.515H46.3623L46.3723 84.5047Z" fill="#00B2E3"/>
<path d="M8.09649 73.8715V80.8821C8.09649 82.0454 7.7353 82.9639 7.02295 83.6476C6.30057 84.3211 5.32736 84.6578 4.08327 84.6578C2.83917 84.6578 1.89606 84.3313 1.17368 83.668C0.461334 83.0047 0.0901112 82.1067 0.0800781 80.9535V73.8613H2.23718V80.8821C2.23718 81.576 2.39771 82.0863 2.7288 82.4026C3.05989 82.7189 3.51138 82.8822 4.0933 82.8822C5.3073 82.8822 5.91931 82.2291 5.93938 80.9433V73.8613H8.09649V73.8715Z" fill="#00B2E3"/>
<path d="M18.3603 84.5043H16.2132L12.0094 77.5039V84.5043H9.8623V73.8711H12.0094L16.2132 80.8817V73.8711H18.3603V84.5043Z" fill="#00B2E3"/>
<path d="M24.1488 79.0957H20.1055V80.7999H24.1488V79.0957Z" fill="#00B2E3"/>
<path d="M34.4634 84.5043H32.3063V79.9428H28.1024V84.5043H25.9453V73.8711H28.1024V78.1774H32.3063V73.8711H34.4634V84.5043Z" fill="#00B2E3"/>
<path d="M39.1787 80.5352H41.7974L40.483 76.5553L39.1787 80.5352ZM42.3793 82.3108H38.5968L37.8744 84.5047H35.5869L39.4797 73.8613H41.4763L45.3892 84.5047H43.1017L42.3793 82.3108Z" fill="#00B2E3"/>
<path d="M58.0614 73.8711H55.9043V84.5145H58.0614V73.8711Z" fill="#00B2E3"/>
<path d="M67.7134 75.6467H64.5128V84.5043H62.3557V75.6467H59.1953V73.8711H67.7134V75.6467Z" fill="#00B2E3"/>
<path d="M70.794 80.5352H73.4126L72.0983 76.5553L70.794 80.5352ZM73.9945 82.3108H70.2121L69.4897 84.5047H67.2021L71.095 73.8613H73.0915L77.0044 84.5047H74.7169L73.9945 82.3108Z" fill="#00B2E3"/>
<path d="M84.9907 75.6467H81.7902V84.5043H79.6331V75.6467H76.4727V73.8711H84.9907V75.6467Z" fill="#00B2E3"/>
<path d="M31.5635 67.2407C34.2925 63.4446 42.2487 59.1484 49.9541 59.1484C57.6594 59.1484 66.3581 63.6997 69.5887 61.169C69.5887 61.169 66.1073 64.1997 59.1544 64.1997C52.2015 64.1997 49.4624 60.6587 44.7369 60.6587C40.0113 60.6587 34.7941 64.4446 32.8076 67.7305L31.5635 67.2305V67.2407Z" fill="#00B2E3"/>
<path d="M56.1641 58.6455C56.1641 58.6455 58.4014 57.3801 59.6455 54.8494C60.8896 52.3186 64.1203 48.2776 67.1001 46.002C67.1001 46.002 63.6186 57.125 59.8964 57.625C59.8964 57.625 59.3947 57.8801 60.388 57.8801C61.3812 57.625 66.1068 56.1147 67.8425 55.8596C69.5783 55.6045 73.5614 54.5942 74.5546 53.584C75.5479 52.5737 76.0496 52.8288 76.0496 52.8288C76.0496 52.8288 71.5748 60.4109 63.3778 60.4109C63.6287 59.9108 59.6455 59.6557 56.1741 58.6455" fill="#00B2E3"/>
<path d="M65.8574 54.8494C65.8574 54.8494 66.5999 53.584 66.8507 51.3084C67.1015 49.0327 68.3456 43.9814 72.3187 38.4199C72.3187 38.4199 72.8204 47.2673 68.5964 52.5737C68.5964 52.5737 68.3456 53.3289 68.8473 52.8288C69.3489 52.3186 72.3287 49.0327 78.2884 44.9917C78.2884 44.9917 81.519 42.4609 81.519 41.7058C81.519 41.4507 79.0308 53.8391 65.8574 54.8494Z" fill="#00B2E3"/>
<path d="M73.5623 46.5131C73.5623 46.5131 73.8132 44.9927 73.8132 43.9824C73.8132 42.717 73.3115 38.676 73.3115 36.9004C73.3115 35.1248 73.5623 31.594 74.8064 29.3184C74.8064 29.3184 74.8065 31.3389 75.2981 32.3491C75.7997 33.3594 76.2913 36.9004 76.2913 37.4106C76.2913 37.9209 76.2913 40.9516 75.2981 42.4619C75.2981 42.4619 75.7997 42.2068 76.5422 40.9414C77.2846 39.676 78.7795 37.6555 81.0169 35.1248C83.2543 32.8492 83.9967 30.5735 83.9967 30.5735C83.9967 30.5735 84.4883 34.6146 81.5085 38.9107C78.5287 43.2068 77.2846 42.4517 75.5389 44.2171C75.5389 44.2171 73.8031 46.4927 73.5523 46.4927" fill="#00B2E3"/>
<path d="M78.2877 36.6531C78.2877 36.6531 78.2877 34.1223 77.796 33.3672C77.2944 32.612 74.5654 27.5506 75.057 21.489C75.057 21.489 75.5486 20.9788 76.3011 23.5095C77.0436 26.0403 78.2877 26.7954 78.7893 29.071C79.291 31.6018 79.291 32.612 79.291 32.612C79.291 32.612 79.5418 32.8672 79.5418 32.612C79.5418 32.3569 79.7926 29.071 81.2775 26.0403C82.7724 23.0095 84.5082 20.2236 84.2573 18.2031C84.2573 18.2031 84.9998 18.2031 84.9998 21.489C84.749 24.7749 84.0065 30.3364 78.2877 36.6531Z" fill="#00B2E3"/>
<path d="M79.7728 26.7984C79.7728 26.7984 78.7795 24.5228 78.037 23.7676C77.2946 23.0125 72.569 16.1856 72.0674 13.1548C72.0674 13.1548 72.559 12.8997 72.8098 13.6651C73.3115 14.4202 75.5489 16.6958 76.0405 16.9509C76.5421 17.2061 78.7795 19.7266 79.0203 22.5125C79.0203 22.5125 79.2711 22.7676 78.7695 18.2163C78.2778 13.6651 80.2644 10.6343 78.7695 7.60352C78.7695 7.60352 81.0068 7.85863 82.2509 17.2061C82.2509 17.2061 82.2509 20.492 80.5152 24.533C80.5152 24.7881 80.0236 26.8086 79.7728 26.8086" fill="#00B2E3"/>
<path d="M78.0365 16.6856C78.0365 16.6856 76.3008 14.9202 74.8059 13.8997C73.3109 13.1445 68.8462 8.59329 68.0938 5.3074C68.0938 5.3074 68.3446 5.05228 69.8295 6.82789C70.8227 8.34838 72.0668 7.58303 75.2975 11.6343C75.2975 11.6343 75.7991 12.6445 76.0399 12.3894C76.2907 12.3894 76.0399 11.3791 76.0399 11.3791C76.0399 11.3791 75.2975 8.8484 75.2975 7.83814C75.2975 6.82789 73.8026 2.02151 73.5618 1.52148C73.5618 1.52148 78.0365 4.05223 78.5281 11.124C78.5281 11.124 78.2773 16.4304 78.0365 16.6856Z" fill="#00B2E3"/>
<path d="M74.3039 9.10252C74.3039 9.10252 74.5547 3.03077 66.3477 0C66.3477 0 69.0867 5.81663 71.324 7.08201C73.5614 8.34738 74.3039 9.10252 74.3039 9.10252Z" fill="#00B2E3"/>
<path d="M53.4354 67.2407C50.6964 63.4446 42.7502 59.1484 35.0448 59.1484C27.3395 59.1484 18.6408 63.6997 15.4102 61.169C15.4102 61.169 18.8916 64.1997 25.8445 64.1997C32.7974 64.1997 35.5365 60.6587 40.262 60.6587C44.9876 60.6587 50.2048 64.4446 52.1913 67.7305L53.4354 67.2305V67.2407Z" fill="#00B2E3"/>
<path d="M28.5847 58.6455C28.5847 58.6455 26.3474 57.3801 25.1033 54.8494C23.8592 52.3186 20.8793 48.2776 17.6487 46.002C17.6487 46.002 21.1302 57.125 24.8524 57.625C24.8524 57.625 25.3541 57.8801 24.3608 57.8801C23.3675 57.625 18.642 56.1147 16.9063 55.8596C15.1705 55.6045 11.1874 54.5942 10.1941 53.584C9.20087 52.5737 8.69922 52.8288 8.69922 52.8288C8.69922 52.8288 13.174 60.4109 21.371 60.4109C21.371 59.9108 25.344 59.6557 28.5747 58.6455" fill="#00B2E3"/>
<path d="M19.132 54.8494C19.132 54.8494 18.3896 53.584 18.1388 51.3084C17.8879 49.0327 16.6438 43.9814 12.6707 38.4199C12.6707 38.4199 12.1691 47.2673 16.403 52.5737C16.403 52.5737 16.6539 53.3289 16.1522 52.8288C15.6506 52.3186 12.6707 49.0327 6.71111 44.9917C6.71111 44.9917 3.48047 42.4609 3.48047 41.7058C3.48047 41.4507 5.71784 53.8391 19.1421 54.8494" fill="#00B2E3"/>
<path d="M11.4282 46.5131C11.4282 46.5131 11.1774 44.9927 11.1774 43.9824C11.1774 42.717 11.679 38.676 11.679 36.9004C11.679 35.1248 11.4282 31.594 10.1841 29.3184C10.1841 29.3184 10.1841 31.3389 9.68247 32.3491C9.18082 33.3594 8.6892 36.9004 8.6892 37.4106C8.6892 37.9209 8.6892 40.9516 9.68247 42.4619C9.68247 42.4619 9.18082 42.2068 8.43837 40.9414C7.69593 39.676 6.201 37.6555 3.96363 35.1248C1.72626 32.8492 0.983818 30.5735 0.983818 30.5735C0.983818 30.5735 0.482165 34.6146 3.47201 38.9107C6.45183 43.2068 7.69593 42.4517 9.43165 44.2171C9.18082 44.2171 11.1674 46.4927 11.4182 46.4927" fill="#00B2E3"/>
<path d="M6.71211 36.6531C6.71211 36.6531 6.71211 34.1223 7.21376 33.3672C7.71541 32.612 10.4444 27.5506 9.94275 21.489C9.94275 21.489 9.4411 20.9788 8.69865 23.5095C7.95621 26.0403 6.71211 26.7954 6.21046 29.071C5.7088 31.6018 5.7088 32.612 5.7088 32.612C5.7088 32.612 5.45798 32.8672 5.45798 32.612C5.45798 32.3569 5.20715 29.071 3.72226 26.0403C2.22734 23.0095 0.491619 20.2236 0.742446 18.2031C0.742446 18.2031 0 18.2031 0 21.489C0 24.7749 0.993272 30.3364 6.71211 36.6531Z" fill="#00B2E3"/>
<path d="M5.21656 26.7972C5.21656 26.7972 6.20983 24.5216 6.95228 23.7664C7.69473 23.0113 12.4203 16.1844 12.9119 13.1536C12.9119 13.1536 12.4103 12.8985 12.1695 13.6639C11.6678 14.419 9.44047 16.6946 8.93882 16.9497C8.19638 17.46 5.70818 19.9805 5.70818 22.7664C5.70818 22.7664 5.45735 23.0215 5.95901 18.4702C6.46066 13.919 4.46408 10.8882 5.95901 7.85742C5.95901 7.85742 3.72164 8.11254 2.47754 17.46C2.47754 17.46 2.47754 20.7459 4.21326 24.7869C4.21326 24.7869 4.9557 26.8074 5.20653 26.8074" fill="#00B2E3"/>
<path d="M6.96285 16.6856C6.96285 16.6856 8.69857 14.9202 10.1935 13.8997C11.6884 13.1445 16.1531 8.59329 16.9056 5.3074C16.9056 5.3074 16.6548 5.05228 15.1699 6.82789C14.1766 8.34838 12.9325 7.58303 9.70188 11.6343C9.70188 11.6343 9.20022 12.6445 8.95943 12.3894C8.7086 12.3894 9.21026 11.3791 9.21026 11.3791C9.21026 11.3791 9.9527 8.8484 9.9527 7.83814C9.9527 6.82789 11.4476 2.02151 11.6884 1.52148C11.6884 1.52148 7.21368 4.05223 6.72206 11.124C6.47123 11.124 6.72206 16.4304 6.97289 16.6856" fill="#00B2E3"/>
<path d="M10.6854 9.10252C10.6854 9.10252 10.4346 3.03077 18.6416 0C18.6416 0 15.9126 5.81663 13.6652 7.08201C11.4278 8.34738 10.6854 9.10252 10.6854 9.10252Z" fill="#00B2E3"/>
<path d="M56.868 22.4707L59.6772 20.5625C59.6772 20.5625 61.3327 19.3889 60.4999 18.0317C59.6772 16.6847 58.3428 16.7664 56.5269 17.9501C56.1657 18.1848 55.4935 18.644 54.6607 19.2155L46.243 6.79645C57.5703 8.38837 66.2188 16.8888 66.2188 27.1547C66.2188 29.6242 65.7171 31.9917 64.7941 34.1856L56.8579 22.4707H56.868ZM46.6242 47.4517L46.4436 38.2063C53.1558 38.145 60.0886 38.0838 62.6269 38.0532C59.1254 42.9106 53.3664 46.4006 46.6242 47.4415M18.612 27.1445C18.612 15.9092 28.9861 6.78624 41.8786 6.53113C40.3536 9.37822 36.9724 15.6643 33.8421 21.4911C32.6382 20.7972 31.7854 20.2972 31.7854 20.2972C31.7854 20.2972 29.9493 19.5318 29.1667 20.7155C29.1667 20.7155 28.2236 22.0626 29.548 22.9095C29.9393 23.1545 30.9827 23.7463 32.2469 24.4504C29.5179 29.5323 27.3006 33.6652 27.2203 33.8285C25.8157 36.7368 27.8424 38.2879 31.1533 38.3287C31.4944 38.3287 35.1765 38.2981 39.9422 38.2573L39.7215 47.6353C27.8424 46.472 18.612 37.7471 18.612 27.1445ZM46.9252 24.6341C47.6376 23.9096 48.0891 22.9197 48.0891 21.8074C48.0891 21.1646 47.9386 20.5625 47.6677 20.0216C48.2697 20.8176 48.9519 21.736 49.6743 22.6952C48.6609 23.4096 47.6978 24.0831 46.9252 24.6239M46.3232 31.8284C46.3232 31.8284 46.1928 29.5527 48.1794 28.369L51.9819 25.777C54.7309 29.4609 57.0486 32.5835 57.2894 32.9101C57.5302 33.2366 57.48 33.6652 56.6272 33.6652C55.9951 33.6652 51.711 33.7366 46.3634 33.7979L46.3232 31.8182V31.8284ZM35.5879 26.2873C37.7149 27.4506 39.561 28.4609 39.561 28.4609C39.561 28.4609 40.1429 28.6343 40.1429 29.6446L40.0426 33.8999C36.3002 33.9509 33.3405 33.9918 33.0796 33.9918C31.5245 33.9918 32.0462 32.8999 32.4475 32.1753C33.2301 30.7059 34.3939 28.5323 35.5879 26.2975M45.4303 17.1235C45.5708 17.2766 46.0523 17.9195 46.7647 18.8481C46.0724 18.2256 45.1694 17.8378 44.1661 17.8378C42.009 17.8378 40.2532 19.6237 40.2532 21.8176C40.2532 24.0116 42.009 25.7975 44.1661 25.7975C44.7581 25.7975 45.3199 25.6648 45.8216 25.4199C45.4303 25.6954 45.1995 25.8587 45.1995 25.8587C45.1995 25.8587 43.7949 26.9506 41.4773 25.777C40.5643 25.3178 38.8687 24.3688 37.143 23.3892C38.8286 20.2155 40.2633 17.4909 40.3837 17.2052C41.9187 14.0621 43.1528 14.1438 45.4303 17.1235ZM42.5007 0.541016C26.5381 0.541016 13.6055 12.1947 13.6055 26.573C13.6055 40.9513 26.5381 52.5948 42.5007 52.5948C58.4632 52.5948 71.3958 40.9411 71.3958 26.573C71.3958 12.2049 58.4532 0.541016 42.5007 0.541016Z" fill="#00B2E3"/>
<path d="M14.1247 95.4948C14.1247 96.1898 14.1247 96.8078 14.1247 97.424C14.1247 98.1138 14.1143 98.8018 14.1281 99.4916C14.1333 99.7682 14.0627 99.8767 13.7685 99.882C12.7553 99.8942 12.7553 99.9065 12.7553 98.8771C12.7553 97.6236 12.7639 96.3683 12.7501 95.1149C12.7467 94.8558 12.8361 94.721 13.058 94.6072C15.5766 93.3274 18.0901 92.0372 20.6104 90.7644C20.7566 90.6909 20.9854 90.6821 21.1368 90.7434C23.6503 91.7623 26.1603 92.7935 28.6634 93.8369C28.8045 93.8946 28.9421 94.0662 28.992 94.2168C29.078 94.4741 28.887 94.5967 28.6737 94.7017C26.408 95.8151 24.1475 96.9391 21.8766 98.0437C21.7063 98.126 21.4517 98.1418 21.2745 98.077C19.0432 97.2717 16.8187 96.4471 14.5926 95.6278C14.4687 95.5823 14.3397 95.5543 14.1229 95.493L14.1247 95.4948Z" fill="#58595B"/>
<path d="M50.5931 96.2703C50.6946 95.0798 51.2864 94.3271 52.2291 93.8579C53.4919 93.2294 54.8114 93.1523 56.1343 93.6285C57.4126 94.0872 58.0835 95.0746 58.1145 96.4541C58.1317 97.1982 58.1059 97.9422 58.1231 98.6863C58.154 100.04 57.9614 101.412 58.493 102.797C57.6758 102.797 56.924 102.804 56.1722 102.785C56.0982 102.783 56.0053 102.631 55.9606 102.531C55.8952 102.384 55.8677 102.219 55.8075 102.007C55.6888 102.098 55.5924 102.163 55.5047 102.238C54.2316 103.34 52.1225 103.189 51.018 101.916C49.9307 100.663 50.2886 98.59 51.7268 97.7811C52.5818 97.2997 53.5108 97.1649 54.469 97.1527C54.6583 97.1509 54.8475 97.1527 55.0385 97.1527C55.8023 97.1527 55.8006 97.1527 55.7163 96.3701C55.6613 95.8554 55.4669 95.4195 54.9611 95.2427C54.3985 95.0466 53.8342 95.0606 53.3457 95.4632C53.2252 95.563 53.0876 95.7171 53.0738 95.8589C53.0274 96.3001 52.7435 96.2773 52.4356 96.2738C51.8335 96.2668 51.2296 96.2721 50.5914 96.2721L50.5931 96.2703ZM55.7404 99.4128C55.7404 99.2062 55.7559 98.9979 55.7335 98.7948C55.7232 98.7073 55.6337 98.5602 55.577 98.5585C54.8097 98.5409 54.0218 98.4534 53.3336 98.9033C52.845 99.2237 52.7418 99.7349 52.8261 100.286C52.888 100.689 53.239 100.999 53.7 101.092C54.8716 101.33 55.7507 100.608 55.7421 99.411L55.7404 99.4128Z" fill="#58595B"/>
<path d="M49.5661 98.9401H43.7754C43.8425 99.7857 44.2124 100.374 44.8833 100.749C45.8742 101.304 47.0114 101.058 48.2518 100.036C48.5821 100.411 48.9279 100.777 49.2358 101.172C49.2943 101.248 49.2496 101.486 49.1705 101.575C48.4255 102.44 47.4467 102.821 46.3473 102.947C43.9285 103.224 41.9123 101.837 41.4392 99.5038C41.2086 98.3694 41.2671 97.2227 41.6559 96.1198C41.9862 95.1849 42.5471 94.4251 43.4055 93.9174C45.0846 92.923 47.6153 93.1909 48.761 94.854C49.2427 95.5508 49.4801 96.3368 49.5541 97.1684C49.604 97.7286 49.5627 98.2959 49.5627 98.9401H49.5661ZM43.8373 97.305C44.7147 97.305 45.5629 97.305 46.4127 97.305C47.3159 97.305 47.4484 97.0949 47.0854 96.2266C47.0441 96.1268 46.9908 96.0287 46.9288 95.9377C46.5452 95.3792 45.7091 95.1429 44.9951 95.388C44.3208 95.6191 43.7875 96.4681 43.8373 97.305Z" fill="#58595B"/>
<path d="M65.8378 93.5096C66.5053 93.5096 67.1418 93.5166 67.7766 93.5061C68.0088 93.5026 68.088 93.6111 68.0983 93.8247C68.1086 94.0383 68.131 94.2501 68.1551 94.5425C68.3202 94.4042 68.4217 94.3236 68.5164 94.2378C69.5417 93.2977 70.7236 93.1279 72.0001 93.5481C72.9428 93.8579 73.3591 94.6352 73.5518 95.5561C73.6241 95.9045 73.6585 96.2669 73.6602 96.6223C73.6705 98.5515 73.6654 100.483 73.6654 102.412C73.6654 102.52 73.6499 102.629 73.6379 102.771H71.2982C71.2982 102.52 71.2982 102.303 71.2982 102.084C71.2982 100.43 71.2982 98.7756 71.2982 97.123C71.2982 97.0547 71.2999 96.9847 71.2982 96.9164C71.2758 96.2914 71.207 95.6839 70.5223 95.4213C69.8032 95.1447 68.8776 95.3565 68.4441 95.9273C68.3082 96.1058 68.217 96.3702 68.2153 96.596C68.1981 98.5113 68.1964 100.428 68.2119 102.343C68.2153 102.695 68.1362 102.837 67.7628 102.814C67.2226 102.781 66.679 102.799 66.1388 102.807C65.9083 102.811 65.7965 102.755 65.7965 102.485C65.8034 99.5634 65.8016 96.6415 65.8034 93.7196C65.8034 93.6671 65.8206 93.6146 65.8412 93.5096H65.8378Z" fill="#58595B"/>
<path d="M15.5251 97.3403C16.0171 97.5223 16.4575 97.6834 16.8962 97.8515C18.3396 98.4029 19.7795 98.9667 21.2298 99.5024C21.4053 99.5671 21.6616 99.5514 21.8319 99.4691C23.5918 98.62 25.3414 97.7482 27.0945 96.8833C27.2115 96.8256 27.3336 96.7748 27.4936 96.703C27.5108 96.8518 27.5314 96.9551 27.5349 97.0584C27.5555 98.1053 27.5555 99.1522 27.5985 100.197C27.6175 100.646 27.4592 100.962 27.1358 101.234C26.138 102.071 24.9716 102.535 23.7209 102.771C21.4328 103.203 19.1929 103.047 17.0407 102.085C16.7827 101.969 16.5401 101.81 16.3078 101.645C15.7642 101.26 15.4649 100.77 15.5113 100.043C15.5681 99.1697 15.5251 98.2874 15.5251 97.3403Z" fill="#58595B"/>
<path d="M32.8024 90.3008H35.2625C35.2625 90.4776 35.2625 90.6509 35.2625 90.8225C35.2625 93.979 35.2694 97.1354 35.2539 100.292C35.2522 100.698 35.3726 100.803 35.7579 100.798C37.2478 100.777 38.7376 100.798 40.2274 100.78C40.5646 100.777 40.6833 100.877 40.661 101.225C40.6334 101.636 40.6472 102.051 40.6592 102.465C40.6661 102.706 40.5887 102.811 40.3358 102.809C37.9256 102.802 35.5136 102.801 33.1034 102.809C32.725 102.809 32.7852 102.563 32.7852 102.335C32.7852 98.4625 32.7852 94.5882 32.7852 90.7157C32.7852 90.5931 32.7955 90.4723 32.8041 90.3008H32.8024Z" fill="#58595B"/>
<path d="M62.1831 102.801C61.4279 102.801 60.714 102.806 60 102.792C59.9364 102.792 59.8486 102.663 59.8194 102.579C59.7867 102.479 59.8056 102.36 59.8056 102.251C59.8056 99.48 59.8039 96.7104 59.8056 93.9391C59.8056 93.8183 59.8194 93.6957 59.8314 93.5136C60.5213 93.5136 61.1939 93.5049 61.8632 93.5259C61.9389 93.5276 62.0524 93.6922 62.073 93.7972C62.1195 94.0161 62.1161 94.2454 62.1436 94.6043C62.3277 94.382 62.4223 94.2577 62.5255 94.1404C63.1053 93.4769 63.8226 93.216 64.6777 93.4051C64.7757 93.4261 64.9202 93.5627 64.9237 93.6502C64.9443 94.3487 64.9357 95.049 64.9357 95.7808C64.4093 95.7808 63.9448 95.7265 63.4992 95.7983C63.1689 95.8525 62.8438 96.0364 62.5565 96.2254C62.2881 96.4023 62.1797 96.6946 62.1814 97.0465C62.1935 98.7972 62.1866 100.548 62.1849 102.299C62.1849 102.447 62.1849 102.594 62.1849 102.801H62.1831Z" fill="#58595B"/>
<path d="M12.7787 100.539C13.1812 100.539 13.5408 100.528 13.9003 100.548C13.9743 100.551 14.0879 100.653 14.1085 100.73C14.2943 101.428 14.4629 102.13 14.6504 102.89C14.0947 102.89 13.5115 102.895 12.9301 102.881C12.8785 102.881 12.7873 102.752 12.7873 102.682C12.7769 101.985 12.7804 101.29 12.7804 100.541L12.7787 100.539Z" fill="#58595B"/>
</svg>
