<svg width="92" height="92" viewBox="0 0 92 92" fill="none" xmlns="http://www.w3.org/2000/svg">
<path d="M50.2563 72.608V74.6403H51.5594C51.9206 74.6403 52.1968 74.5535 52.3951 74.38C52.5934 74.2064 52.6997 73.9677 52.6997 73.6567C52.6997 72.9624 52.3455 72.6153 51.6515 72.608H50.2563ZM50.2563 71.5087H51.3824C52.1472 71.4942 52.5297 71.1832 52.5297 70.5757C52.5297 70.2358 52.4305 69.9899 52.2393 69.838C52.0481 69.6861 51.7365 69.6138 51.3186 69.6138H50.2563V71.5159V71.5087ZM48.7336 75.8915V68.3481H51.3186C52.211 68.3481 52.8909 68.5217 53.3583 68.8761C53.8186 69.2305 54.0523 69.744 54.0523 70.4166C54.0523 70.7855 53.9603 71.1109 53.7761 71.393C53.592 71.675 53.33 71.8776 52.9971 72.015C53.3725 72.109 53.677 72.3043 53.8895 72.6008C54.109 72.8973 54.2152 73.2517 54.2152 73.6784C54.2152 74.4017 53.9886 74.9513 53.5353 75.3274C53.0821 75.6963 52.4376 75.8915 51.5948 75.8988H48.7266L48.7336 75.8915Z" fill="#00B2E3"/>
<path d="M21.7153 68.3554V73.324C21.7153 74.1485 21.4603 74.7994 20.9575 75.284C20.4476 75.7614 19.7606 76 18.8824 76C18.0042 76 17.3385 75.7686 16.8286 75.2985C16.3258 74.8284 16.0637 74.1919 16.0566 73.3747V68.3481H17.5793V73.324C17.5793 73.8158 17.6926 74.1775 17.9263 74.4017C18.16 74.6259 18.4787 74.7416 18.8895 74.7416C19.7464 74.7416 20.1785 74.2787 20.1926 73.3674V68.3481H21.7153V68.3554Z" fill="#00B2E3"/>
<path d="M28.9604 75.8915H27.4448L24.4774 70.9301V75.8915H22.9618V68.3553H24.4774L27.4448 73.324V68.3553H28.9604V75.8915Z" fill="#00B2E3"/>
<path d="M33.0467 72.0583H30.1926V73.2661H33.0467V72.0583Z" fill="#00B2E3"/>
<path d="M40.3272 75.8915H38.8045V72.6586H35.8371V75.8915H34.3145V68.3553H35.8371V71.4074H38.8045V68.3553H40.3272V75.8915Z" fill="#00B2E3"/>
<path d="M43.6558 73.0781H45.5042L44.5764 70.2575L43.6558 73.0781ZM45.915 74.3366H43.245L42.7351 75.8915H41.1204L43.8682 68.3481H45.2776L48.0396 75.8915H46.4249L45.915 74.3366Z" fill="#00B2E3"/>
<path d="M56.9845 68.3553H55.4618V75.8987H56.9845V68.3553Z" fill="#00B2E3"/>
<path d="M63.7974 69.6138H61.5382V75.8915H60.0155V69.6138H57.7847V68.3553H63.7974V69.6138Z" fill="#00B2E3"/>
<path d="M65.9717 73.0781H67.8201L66.8924 70.2575L65.9717 73.0781ZM68.2309 74.3366H65.5609L65.051 75.8915H63.4363L66.1842 68.3481H67.5935L70.3555 75.8915H68.7408L68.2309 74.3366Z" fill="#00B2E3"/>
<path d="M75.993 69.6138H73.7338V75.8915H72.2111V69.6138H69.9802V68.3553H75.993V69.6138Z" fill="#00B2E3"/>
<path d="M38.2805 63.6543C40.2069 60.9638 45.823 57.919 51.2621 57.919C56.7012 57.919 62.8414 61.1446 65.1219 59.351C65.1219 59.351 62.6644 61.499 57.7564 61.499C52.8485 61.499 50.9151 58.9894 47.5794 58.9894C44.2437 58.9894 40.561 61.6726 39.1587 64.0014L38.2805 63.647V63.6543Z" fill="#00B2E3"/>
<path d="M55.6459 57.5646C55.6459 57.5646 57.2252 56.6678 58.1034 54.8742C58.9816 53.0805 61.262 50.2165 63.3654 48.6037C63.3654 48.6037 60.9079 56.487 58.2804 56.8414C58.2804 56.8414 57.9263 57.0222 58.6275 57.0222C59.3286 56.8414 62.6643 55.771 63.8895 55.5902C65.1147 55.4094 67.9263 54.6933 68.6275 53.9773C69.3286 53.2613 69.6827 53.4421 69.6827 53.4421C69.6827 53.4421 66.5241 58.8158 60.7379 58.8158C60.915 58.4614 58.1034 58.2806 55.653 57.5646" fill="#00B2E3"/>
<path d="M62.4873 54.8741C62.4873 54.8741 63.0114 53.9773 63.1884 52.3645C63.3655 50.7517 64.2437 47.1716 67.0482 43.23C67.0482 43.23 67.4023 49.5005 64.4207 53.2613C64.4207 53.2613 64.2437 53.7965 64.5978 53.4421C64.9519 53.0805 67.0553 50.7517 71.2621 47.8876C71.2621 47.8876 73.5425 46.094 73.5425 45.5588C73.5425 45.378 71.7862 54.1581 62.4873 54.8741Z" fill="#00B2E3"/>
<path d="M67.9263 48.9653C67.9263 48.9653 68.1034 47.8877 68.1034 47.1716C68.1034 46.2748 67.7493 43.4108 67.7493 42.1524C67.7493 40.8939 67.9263 38.3915 68.8045 36.7787C68.8045 36.7787 68.8045 38.2107 69.1515 38.9267C69.5056 39.6427 69.8527 42.1524 69.8527 42.514C69.8527 42.8756 69.8527 45.0236 69.1515 46.094C69.1515 46.094 69.5056 45.9132 70.0297 45.0164C70.5538 44.1196 71.609 42.6876 73.1884 40.8939C74.7677 39.2811 75.2918 37.6683 75.2918 37.6683C75.2918 37.6683 75.6388 40.5323 73.5354 43.5771C71.432 46.622 70.5538 46.0868 69.3215 47.338C69.3215 47.338 68.0963 48.9508 67.9192 48.9508" fill="#00B2E3"/>
<path d="M71.262 41.9788C71.262 41.9788 71.262 40.1851 70.915 39.6499C70.5609 39.1147 68.6345 35.5275 68.9816 31.2314C68.9816 31.2314 69.3286 30.8698 69.8598 32.6634C70.3838 34.4571 71.262 34.9923 71.6161 36.6051C71.9702 38.3987 71.9702 39.1147 71.9702 39.1147C71.9702 39.1147 72.1473 39.2955 72.1473 39.1147C72.1473 38.9339 72.3244 36.6051 73.3725 34.4571C74.4278 32.309 75.653 30.3346 75.4759 28.9026C75.4759 28.9026 76 28.9026 76 31.2314C75.8229 33.5603 75.2989 37.5019 71.262 41.9788Z" fill="#00B2E3"/>
<path d="M72.3102 34.9923C72.3102 34.9923 71.6091 33.3795 71.085 32.8443C70.5609 32.3091 67.2252 27.4706 66.8711 25.3226C66.8711 25.3226 67.2181 25.1418 67.3952 25.6842C67.7493 26.2194 69.3286 27.8322 69.6756 28.013C70.0297 28.1938 71.6091 29.9802 71.779 31.9547C71.779 31.9547 71.9561 32.1355 71.602 28.9099C71.2549 25.6842 72.6572 23.5362 71.602 21.3882C71.602 21.3882 73.1813 21.569 74.0595 28.1938C74.0595 28.1938 74.0595 30.5227 72.8343 33.3867C72.8343 33.5675 72.4872 34.9995 72.3102 34.9995" fill="#00B2E3"/>
<path d="M71.0849 27.825C71.0849 27.825 69.8597 26.5738 68.8045 25.8505C67.7492 25.3153 64.5977 22.0897 64.0665 19.7609C64.0665 19.7609 64.2436 19.58 65.2917 20.8385C65.9929 21.9161 66.8711 21.3737 69.1515 24.2449C69.1515 24.2449 69.5056 24.961 69.6756 24.7801C69.8526 24.7801 69.6756 24.0641 69.6756 24.0641C69.6756 24.0641 69.1515 22.2705 69.1515 21.5545C69.1515 20.8385 68.0963 17.432 67.9263 17.0776C67.9263 17.0776 71.0849 18.8713 71.432 23.8833C71.432 23.8833 71.2549 27.6442 71.0849 27.825Z" fill="#00B2E3"/>
<path d="M68.4504 22.4513C68.4504 22.4513 68.6274 18.148 62.8342 16C62.8342 16 64.7677 20.1225 66.347 21.0193C67.9263 21.9161 68.4504 22.4513 68.4504 22.4513Z" fill="#00B2E3"/>
<path d="M53.7195 63.6543C51.7861 60.9638 46.177 57.919 40.7379 57.919C35.2989 57.919 29.1586 61.1446 26.8782 59.351C26.8782 59.351 29.3357 61.499 34.2436 61.499C39.1515 61.499 41.085 58.9894 44.4207 58.9894C47.7564 58.9894 51.4391 61.6726 52.8413 64.0014L53.7195 63.647V63.6543Z" fill="#00B2E3"/>
<path d="M36.177 57.5646C36.177 57.5646 34.5976 56.6678 33.7195 54.8742C32.8413 53.0805 30.7379 50.2165 28.4574 48.6037C28.4574 48.6037 30.9149 56.487 33.5424 56.8414C33.5424 56.8414 33.8965 57.0222 33.1954 57.0222C32.4942 56.8414 29.1585 55.771 27.9333 55.5902C26.7081 55.4094 23.8965 54.6933 23.1954 53.9773C22.4942 53.2613 22.1401 53.4421 22.1401 53.4421C22.1401 53.4421 25.2988 58.8158 31.0849 58.8158C31.0849 58.4614 33.8894 58.2806 36.1699 57.5646" fill="#00B2E3"/>
<path d="M29.5057 54.8741C29.5057 54.8741 28.9816 53.9773 28.8045 52.3645C28.6275 50.7517 27.7493 47.1716 24.9448 43.23C24.9448 43.23 24.5907 49.5005 27.5793 53.2613C27.5793 53.2613 27.7564 53.7965 27.4023 53.4421C27.0482 53.0805 24.9448 50.7517 20.738 47.8876C20.738 47.8876 18.4575 46.094 18.4575 45.5588C18.4575 45.378 20.0368 54.1581 29.5128 54.8741" fill="#00B2E3"/>
<path d="M24.0666 48.9653C24.0666 48.9653 23.8896 47.8877 23.8896 47.1716C23.8896 46.2748 24.2437 43.4108 24.2437 42.1524C24.2437 40.8939 24.0666 38.3915 23.1884 36.7787C23.1884 36.7787 23.1884 38.2107 22.8343 38.9267C22.4802 39.6427 22.1332 42.1524 22.1332 42.514C22.1332 42.8756 22.1332 45.0236 22.8343 46.094C22.8343 46.094 22.4802 45.9132 21.9561 45.0164C21.4321 44.1196 20.3768 42.6876 18.7975 40.8939C17.2182 39.2811 16.6941 37.6683 16.6941 37.6683C16.6941 37.6683 16.34 40.5323 18.4505 43.5771C20.5539 46.622 21.4321 46.0868 22.6573 47.338C22.4802 47.338 23.8825 48.9508 24.0595 48.9508" fill="#00B2E3"/>
<path d="M20.738 41.9788C20.738 41.9788 20.738 40.1851 21.0921 39.6499C21.4462 39.1147 23.3725 35.5275 23.0184 31.2314C23.0184 31.2314 22.6643 30.8698 22.1402 32.6634C21.6161 34.4571 20.738 34.9923 20.3839 36.6051C20.0297 38.3987 20.0297 39.1147 20.0297 39.1147C20.0297 39.1147 19.8527 39.2955 19.8527 39.1147C19.8527 38.9339 19.6756 36.6051 18.6275 34.4571C17.5722 32.309 16.347 30.3346 16.5241 28.9026C16.5241 28.9026 16 28.9026 16 31.2314C16 33.5603 16.7011 37.5019 20.738 41.9788Z" fill="#00B2E3"/>
<path d="M19.6827 34.9923C19.6827 34.9923 20.3838 33.3795 20.9079 32.8443C21.432 32.3091 24.7677 27.4706 25.1147 25.3226C25.1147 25.3226 24.7606 25.1417 24.5906 25.6842C24.2365 26.2194 22.6643 27.8322 22.3102 28.013C21.7861 28.3746 20.0297 30.161 20.0297 32.1355C20.0297 32.1355 19.8527 32.3163 20.2068 29.0906C20.5609 25.865 19.1515 23.717 20.2068 21.5689C20.2068 21.5689 18.6275 21.7497 17.7493 28.3746C17.7493 28.3746 17.7493 30.7035 18.9745 33.5675C18.9745 33.5675 19.4986 34.9995 19.6756 34.9995" fill="#00B2E3"/>
<path d="M20.9149 27.825C20.9149 27.825 22.1402 26.5738 23.1954 25.8505C24.2506 25.3153 27.4022 22.0897 27.9334 19.7609C27.9334 19.7609 27.7563 19.58 26.7081 20.8385C26.007 21.9161 25.1288 21.3737 22.8484 24.2449C22.8484 24.2449 22.4943 24.961 22.3243 24.7801C22.1472 24.7801 22.5013 24.0641 22.5013 24.0641C22.5013 24.0641 23.0254 22.2705 23.0254 21.5545C23.0254 20.8385 24.0807 17.432 24.2506 17.0776C24.2506 17.0776 21.092 18.8713 20.745 23.8833C20.5679 23.8833 20.745 27.6442 20.922 27.825" fill="#00B2E3"/>
<path d="M23.5425 22.4513C23.5425 22.4513 23.3654 18.148 29.1586 16C29.1586 16 27.2323 20.1225 25.6459 21.0193C24.0665 21.9161 23.5425 22.4513 23.5425 22.4513Z" fill="#00B2E3"/>
<path d="M56.1416 31.9257L58.1246 30.5733C58.1246 30.5733 59.2932 29.7415 58.7054 28.7796C58.1246 27.825 57.1827 27.8828 55.9008 28.7218C55.6459 28.8881 55.1714 29.2136 54.5836 29.6186L48.6416 20.8168C56.6374 21.945 62.7422 27.9696 62.7422 35.2454C62.7422 36.9956 62.3881 38.6736 61.7365 40.2285L56.1346 31.9257H56.1416ZM48.9108 49.6306L48.7833 43.0781C53.5212 43.0347 58.415 42.9913 60.2068 42.9696C57.7351 46.4122 53.67 48.8857 48.9108 49.6234M29.1374 35.2382C29.1374 27.2753 36.4603 20.8095 45.5609 20.6287C44.4844 22.6466 42.0977 27.1017 39.8881 31.2314C39.0382 30.7396 38.4363 30.3852 38.4363 30.3852C38.4363 30.3852 37.1402 29.8428 36.5878 30.6818C36.5878 30.6818 35.9221 31.6364 36.8569 32.2367C37.1331 32.4103 37.8697 32.8298 38.762 33.3288C36.8357 36.9305 35.2705 39.8597 35.2139 39.9754C34.2224 42.0366 35.653 43.136 37.9901 43.1649C38.2309 43.1649 40.83 43.1432 44.194 43.1143L44.0382 49.7608C35.653 48.9363 29.1374 42.7526 29.1374 35.2382ZM49.1232 33.459C49.6261 32.9455 49.9448 32.244 49.9448 31.4556C49.9448 31 49.8385 30.5733 49.6473 30.19C50.0722 30.7541 50.5538 31.405 51.0637 32.0848C50.3484 32.5911 49.6685 33.0684 49.1232 33.4518M48.6983 38.5578C48.6983 38.5578 48.6062 36.945 50.0085 36.1061L52.6926 34.269C54.6331 36.8799 56.2691 39.093 56.4391 39.3245C56.6091 39.5559 56.5736 39.8597 55.9717 39.8597C55.5255 39.8597 52.5014 39.9103 48.7266 39.9537L48.6983 38.5506V38.5578ZM41.1204 34.6306C42.6218 35.4551 43.9249 36.1711 43.9249 36.1711C43.9249 36.1711 44.3357 36.2941 44.3357 37.0101L44.2649 40.026C41.6232 40.0622 39.534 40.0911 39.3499 40.0911C38.2521 40.0911 38.6204 39.3172 38.9037 38.8037C39.4561 37.7623 40.2776 36.2218 41.1204 34.6379M48.068 28.136C48.1671 28.2444 48.5071 28.7001 49.0099 29.3582C48.5212 28.9171 47.8838 28.6422 47.1756 28.6422C45.653 28.6422 44.4136 29.9079 44.4136 31.4629C44.4136 33.0178 45.653 34.2835 47.1756 34.2835C47.5935 34.2835 47.9901 34.1895 48.3442 34.0159C48.068 34.2112 47.9051 34.3269 47.9051 34.3269C47.9051 34.3269 46.9136 35.1008 45.2776 34.269C44.6331 33.9436 43.4363 33.271 42.2181 32.5766C43.4079 30.3274 44.4207 28.3963 44.5057 28.1938C45.5892 25.9662 46.4603 26.0241 48.068 28.136ZM46 16.3833C34.7323 16.3833 25.6034 24.6427 25.6034 34.8332C25.6034 45.0236 34.7323 53.2758 46 53.2758C57.2677 53.2758 66.3966 45.0164 66.3966 34.8332C66.3966 24.6499 57.2606 16.3833 46 16.3833Z" fill="#00B2E3"/>
</svg>
