<svg width="48" height="48" viewBox="0 0 48 48" fill="none" xmlns="http://www.w3.org/2000/svg">
<path d="M10 10C10 8.11438 10 7.17157 10.5858 6.58579C11.1716 6 12.1144 6 14 6L27.728 6C28.5741 6 28.9972 6 29.3749 6.16207C29.7526 6.32415 30.0441 6.63079 30.6271 7.24406L36.8991 13.8419C37.4428 14.4138 37.7146 14.6998 37.8573 15.057C38 15.4142 38 15.8088 38 16.5979V38C38 39.8856 38 40.8284 37.4142 41.4142C36.8284 42 35.8856 42 34 42H14C12.1144 42 11.1716 42 10.5858 41.4142C10 40.8284 10 39.8856 10 38V10Z" fill="#00B2E3"/>
<path d="M27.8867 14.0205V9.71111C27.8867 8.82236 28.9594 8.37522 29.5906 9.00084L33.9388 13.3102C34.5731 13.9388 34.128 15.0205 33.2349 15.0205H28.8867C28.3344 15.0205 27.8867 14.5727 27.8867 14.0205Z" fill="white"/>
<path d="M16.5938 36.7441C16.5938 36.5098 16.6738 36.3125 16.834 36.1523C16.9941 35.9922 17.2109 35.9121 17.4844 35.9121C17.7578 35.9121 17.9746 35.9922 18.1348 36.1523C18.2949 36.3125 18.375 36.5098 18.375 36.7441C18.375 36.9746 18.2949 37.1699 18.1348 37.3301C17.9746 37.4863 17.7578 37.5645 17.4844 37.5645C17.2109 37.5645 16.9941 37.4863 16.834 37.3301C16.6738 37.1699 16.5938 36.9746 16.5938 36.7441ZM25.5879 28.9688V29.8125L22.2363 37.5H20.6016L23.9531 30.1875H19.6172V28.9688H25.5879ZM31.7637 36.2812V37.5H26.9941V36.2812H31.7637ZM31.6523 32.0859L27.5742 37.5H26.5547V36.5449L30.6094 31.1602H31.6523V32.0859ZM31.084 31.1602V32.3848H26.6367V31.1602H31.084Z" fill="white"/>
</svg>
