<svg width="48" height="48" viewBox="0 0 48 48" fill="none" xmlns="http://www.w3.org/2000/svg">
<path d="M10 10C10 8.11438 10 7.17157 10.5858 6.58579C11.1716 6 12.1144 6 14 6L27.728 6C28.5741 6 28.9972 6 29.3749 6.16207C29.7526 6.32415 30.0441 6.63079 30.6271 7.24406L36.8991 13.8419C37.4428 14.4138 37.7146 14.6998 37.8573 15.057C38 15.4142 38 15.8088 38 16.5979V38C38 39.8856 38 40.8284 37.4142 41.4142C36.8284 42 35.8856 42 34 42H14C12.1144 42 11.1716 42 10.5858 41.4142C10 40.8284 10 39.8856 10 38V10Z" fill="#00B2E3"/>
<path d="M27.8867 14.0205V9.71111C27.8867 8.82236 28.9594 8.37522 29.5906 9.00084L33.9388 13.3102C34.5731 13.9388 34.128 15.0205 33.2349 15.0205H28.8867C28.3344 15.0205 27.8867 14.5727 27.8867 14.0205Z" fill="white"/>
<path d="M13.4824 36.7441C13.4824 36.5098 13.5625 36.3125 13.7227 36.1523C13.8828 35.9922 14.0996 35.9121 14.373 35.9121C14.6465 35.9121 14.8633 35.9922 15.0234 36.1523C15.1836 36.3125 15.2637 36.5098 15.2637 36.7441C15.2637 36.9746 15.1836 37.1699 15.0234 37.3301C14.8633 37.4863 14.6465 37.5645 14.373 37.5645C14.0996 37.5645 13.8828 37.4863 13.7227 37.3301C13.5625 37.1699 13.4824 36.9746 13.4824 36.7441ZM20.3203 36.1523V33.2285C20.3203 33.0137 20.2832 32.8281 20.209 32.6719C20.1348 32.5156 20.0215 32.3945 19.8691 32.3086C19.7168 32.2227 19.5234 32.1797 19.2891 32.1797C19.082 32.1797 18.9004 32.2148 18.7441 32.2852C18.5918 32.3555 18.4746 32.4551 18.3926 32.584C18.3105 32.709 18.2695 32.8535 18.2695 33.0176H16.7168C16.7168 32.7559 16.7793 32.5078 16.9043 32.2734C17.0293 32.0352 17.207 31.8242 17.4375 31.6406C17.6719 31.4531 17.9512 31.3066 18.2754 31.2012C18.6035 31.0957 18.9707 31.043 19.377 31.043C19.8574 31.043 20.2852 31.125 20.6602 31.2891C21.0391 31.4492 21.3359 31.6914 21.5508 32.0156C21.7695 32.3398 21.8789 32.748 21.8789 33.2402V36.0059C21.8789 36.3223 21.8984 36.5938 21.9375 36.8203C21.9805 37.043 22.043 37.2363 22.125 37.4004V37.5H20.5488C20.4746 37.3398 20.418 37.1367 20.3789 36.8906C20.3398 36.6406 20.3203 36.3945 20.3203 36.1523ZM20.5371 33.6387L20.5488 34.5586H19.5703C19.3281 34.5586 19.1152 34.584 18.9316 34.6348C18.748 34.6816 18.5977 34.752 18.4805 34.8457C18.3633 34.9355 18.2754 35.0449 18.2168 35.1738C18.1582 35.2988 18.1289 35.4414 18.1289 35.6016C18.1289 35.7578 18.1641 35.8984 18.2344 36.0234C18.3086 36.1484 18.4141 36.248 18.5508 36.3223C18.6914 36.3926 18.8555 36.4277 19.043 36.4277C19.3164 36.4277 19.5547 36.373 19.7578 36.2637C19.9609 36.1504 20.1191 36.0137 20.2324 35.8535C20.3457 35.6934 20.4062 35.541 20.4141 35.3965L20.8594 36.0645C20.8047 36.2246 20.7227 36.3945 20.6133 36.5742C20.5039 36.7539 20.3633 36.9219 20.1914 37.0781C20.0195 37.2344 19.8125 37.3633 19.5703 37.4648C19.3281 37.5664 19.0469 37.6172 18.7266 37.6172C18.3164 37.6172 17.9492 37.5352 17.625 37.3711C17.3008 37.207 17.0449 36.9824 16.8574 36.6973C16.6699 36.4121 16.5762 36.0879 16.5762 35.7246C16.5762 35.3887 16.6387 35.0918 16.7637 34.834C16.8887 34.5762 17.0742 34.3594 17.3203 34.1836C17.5664 34.0039 17.8711 33.8691 18.2344 33.7793C18.6016 33.6855 19.0215 33.6387 19.4941 33.6387H20.5371ZM26.7656 36.1523V33.2285C26.7656 33.0137 26.7285 32.8281 26.6543 32.6719C26.5801 32.5156 26.4668 32.3945 26.3145 32.3086C26.1621 32.2227 25.9688 32.1797 25.7344 32.1797C25.5273 32.1797 25.3457 32.2148 25.1895 32.2852C25.0371 32.3555 24.9199 32.4551 24.8379 32.584C24.7559 32.709 24.7148 32.8535 24.7148 33.0176H23.1621C23.1621 32.7559 23.2246 32.5078 23.3496 32.2734C23.4746 32.0352 23.6523 31.8242 23.8828 31.6406C24.1172 31.4531 24.3965 31.3066 24.7207 31.2012C25.0488 31.0957 25.416 31.043 25.8223 31.043C26.3027 31.043 26.7305 31.125 27.1055 31.2891C27.4844 31.4492 27.7812 31.6914 27.9961 32.0156C28.2148 32.3398 28.3242 32.748 28.3242 33.2402V36.0059C28.3242 36.3223 28.3438 36.5938 28.3828 36.8203C28.4258 37.043 28.4883 37.2363 28.5703 37.4004V37.5H26.9941C26.9199 37.3398 26.8633 37.1367 26.8242 36.8906C26.7852 36.6406 26.7656 36.3945 26.7656 36.1523ZM26.9824 33.6387L26.9941 34.5586H26.0156C25.7734 34.5586 25.5605 34.584 25.377 34.6348C25.1934 34.6816 25.043 34.752 24.9258 34.8457C24.8086 34.9355 24.7207 35.0449 24.6621 35.1738C24.6035 35.2988 24.5742 35.4414 24.5742 35.6016C24.5742 35.7578 24.6094 35.8984 24.6797 36.0234C24.7539 36.1484 24.8594 36.248 24.9961 36.3223C25.1367 36.3926 25.3008 36.4277 25.4883 36.4277C25.7617 36.4277 26 36.373 26.2031 36.2637C26.4062 36.1504 26.5645 36.0137 26.6777 35.8535C26.791 35.6934 26.8516 35.541 26.8594 35.3965L27.3047 36.0645C27.25 36.2246 27.168 36.3945 27.0586 36.5742C26.9492 36.7539 26.8086 36.9219 26.6367 37.0781C26.4648 37.2344 26.2578 37.3633 26.0156 37.4648C25.7734 37.5664 25.4922 37.6172 25.1719 37.6172C24.7617 37.6172 24.3945 37.5352 24.0703 37.3711C23.7461 37.207 23.4902 36.9824 23.3027 36.6973C23.1152 36.4121 23.0215 36.0879 23.0215 35.7246C23.0215 35.3887 23.084 35.0918 23.209 34.834C23.334 34.5762 23.5195 34.3594 23.7656 34.1836C24.0117 34.0039 24.3164 33.8691 24.6797 33.7793C25.0469 33.6855 25.4668 33.6387 25.9395 33.6387H26.9824ZM32.3203 36.3984C32.5391 36.3984 32.7344 36.3555 32.9062 36.2695C33.0781 36.1836 33.2148 36.0625 33.3164 35.9062C33.4219 35.75 33.4785 35.5684 33.4863 35.3613H34.9453C34.9375 35.791 34.8164 36.1758 34.582 36.5156C34.3477 36.8555 34.0352 37.125 33.6445 37.3242C33.2578 37.5195 32.8242 37.6172 32.3438 37.6172C31.8555 37.6172 31.4297 37.5352 31.0664 37.3711C30.7031 37.207 30.4004 36.9785 30.1582 36.6855C29.9199 36.3926 29.7402 36.0527 29.6191 35.666C29.502 35.2793 29.4434 34.8652 29.4434 34.4238V34.2363C29.4434 33.7949 29.502 33.3809 29.6191 32.9941C29.7402 32.6074 29.9199 32.2676 30.1582 31.9746C30.4004 31.6816 30.7031 31.4531 31.0664 31.2891C31.4297 31.125 31.8535 31.043 32.3379 31.043C32.8496 31.043 33.2988 31.1426 33.6855 31.3418C34.0762 31.541 34.3809 31.8223 34.5996 32.1855C34.8223 32.5488 34.9375 32.9766 34.9453 33.4688H33.4863C33.4785 33.2422 33.4277 33.0391 33.334 32.8594C33.2402 32.6797 33.1074 32.5352 32.9355 32.4258C32.7637 32.3164 32.5547 32.2617 32.3086 32.2617C32.0469 32.2617 31.8281 32.3164 31.6523 32.4258C31.4805 32.5352 31.3457 32.6855 31.248 32.877C31.1543 33.0645 31.0879 33.2754 31.0488 33.5098C31.0137 33.7402 30.9961 33.9824 30.9961 34.2363V34.4238C30.9961 34.6816 31.0137 34.9277 31.0488 35.1621C31.0879 35.3965 31.1543 35.6074 31.248 35.7949C31.3457 35.9785 31.4805 36.125 31.6523 36.2344C31.8281 36.3438 32.0508 36.3984 32.3203 36.3984Z" fill="white"/>
</svg>
