<svg width="48" height="48" viewBox="0 0 48 48" fill="none" xmlns="http://www.w3.org/2000/svg">
<path d="M10 10C10 8.11438 10 7.17157 10.5858 6.58579C11.1716 6 12.1144 6 14 6L27.728 6C28.5741 6 28.9972 6 29.3749 6.16207C29.7526 6.32415 30.0441 6.63079 30.6271 7.24406L36.8991 13.8419C37.4428 14.4138 37.7146 14.6998 37.8573 15.057C38 15.4142 38 15.8088 38 16.5979V38C38 39.8856 38 40.8284 37.4142 41.4142C36.8284 42 35.8856 42 34 42H14C12.1144 42 11.1716 42 10.5858 41.4142C10 40.8284 10 39.8856 10 38V10Z" fill="#00B2E3"/>
<path d="M27.8867 14.0205V9.71111C27.8867 8.82236 28.9594 8.37522 29.5906 9.00084L33.9388 13.3102C34.5731 13.9388 34.128 15.0205 33.2349 15.0205H28.8867C28.3344 15.0205 27.8867 14.5727 27.8867 14.0205Z" fill="white"/>
<path d="M15.3164 36.7441C15.3164 36.5098 15.3965 36.3125 15.5566 36.1523C15.7168 35.9922 15.9336 35.9121 16.207 35.9121C16.4805 35.9121 16.6973 35.9922 16.8574 36.1523C17.0176 36.3125 17.0977 36.5098 17.0977 36.7441C17.0977 36.9746 17.0176 37.1699 16.8574 37.3301C16.6973 37.4863 16.4805 37.5645 16.207 37.5645C15.9336 37.5645 15.7168 37.4863 15.5566 37.3301C15.3965 37.1699 15.3164 36.9746 15.3164 36.7441ZM22.1543 36.1523V33.2285C22.1543 33.0137 22.1172 32.8281 22.043 32.6719C21.9688 32.5156 21.8555 32.3945 21.7031 32.3086C21.5508 32.2227 21.3574 32.1797 21.123 32.1797C20.916 32.1797 20.7344 32.2148 20.5781 32.2852C20.4258 32.3555 20.3086 32.4551 20.2266 32.584C20.1445 32.709 20.1035 32.8535 20.1035 33.0176H18.5508C18.5508 32.7559 18.6133 32.5078 18.7383 32.2734C18.8633 32.0352 19.041 31.8242 19.2715 31.6406C19.5059 31.4531 19.7852 31.3066 20.1094 31.2012C20.4375 31.0957 20.8047 31.043 21.2109 31.043C21.6914 31.043 22.1191 31.125 22.4941 31.2891C22.873 31.4492 23.1699 31.6914 23.3848 32.0156C23.6035 32.3398 23.7129 32.748 23.7129 33.2402V36.0059C23.7129 36.3223 23.7324 36.5938 23.7715 36.8203C23.8145 37.043 23.877 37.2363 23.959 37.4004V37.5H22.3828C22.3086 37.3398 22.252 37.1367 22.2129 36.8906C22.1738 36.6406 22.1543 36.3945 22.1543 36.1523ZM22.3711 33.6387L22.3828 34.5586H21.4043C21.1621 34.5586 20.9492 34.584 20.7656 34.6348C20.582 34.6816 20.4316 34.752 20.3145 34.8457C20.1973 34.9355 20.1094 35.0449 20.0508 35.1738C19.9922 35.2988 19.9629 35.4414 19.9629 35.6016C19.9629 35.7578 19.998 35.8984 20.0684 36.0234C20.1426 36.1484 20.248 36.248 20.3848 36.3223C20.5254 36.3926 20.6895 36.4277 20.877 36.4277C21.1504 36.4277 21.3887 36.373 21.5918 36.2637C21.7949 36.1504 21.9531 36.0137 22.0664 35.8535C22.1797 35.6934 22.2402 35.541 22.248 35.3965L22.6934 36.0645C22.6387 36.2246 22.5566 36.3945 22.4473 36.5742C22.3379 36.7539 22.1973 36.9219 22.0254 37.0781C21.8535 37.2344 21.6465 37.3633 21.4043 37.4648C21.1621 37.5664 20.8809 37.6172 20.5605 37.6172C20.1504 37.6172 19.7832 37.5352 19.459 37.3711C19.1348 37.207 18.8789 36.9824 18.6914 36.6973C18.5039 36.4121 18.4102 36.0879 18.4102 35.7246C18.4102 35.3887 18.4727 35.0918 18.5977 34.834C18.7227 34.5762 18.9082 34.3594 19.1543 34.1836C19.4004 34.0039 19.7051 33.8691 20.0684 33.7793C20.4355 33.6855 20.8555 33.6387 21.3281 33.6387H22.3711ZM27.1172 36.3281L28.5938 31.1602H30.2109L28.0371 37.5H27.0527L27.1172 36.3281ZM26.0391 31.1602L27.5332 36.3398L27.5859 37.5H26.5957L24.416 31.1602H26.0391ZM32.666 31.1602V37.5H31.1133V31.1602H32.666ZM31.0078 29.502C31.0078 29.2715 31.0859 29.0801 31.2422 28.9277C31.4023 28.7754 31.6172 28.6992 31.8867 28.6992C32.1562 28.6992 32.3691 28.7754 32.5254 28.9277C32.6855 29.0801 32.7656 29.2715 32.7656 29.502C32.7656 29.7285 32.6855 29.918 32.5254 30.0703C32.3691 30.2227 32.1562 30.2988 31.8867 30.2988C31.6172 30.2988 31.4023 30.2227 31.2422 30.0703C31.0859 29.918 31.0078 29.7285 31.0078 29.502Z" fill="white"/>
</svg>
