<svg width="200" height="200" viewBox="0 0 200 200" fill="none" xmlns="http://www.w3.org/2000/svg">
<rect width="200" height="200" fill="#DEA63B"/>
<path d="M17.5511 42V39.7159L23.6108 33.7756C24.1903 33.1903 24.6733 32.6705 25.0597 32.2159C25.446 31.7614 25.7358 31.321 25.929 30.8949C26.1222 30.4687 26.2188 30.0142 26.2188 29.5312C26.2188 28.9801 26.0938 28.5085 25.8438 28.1165C25.5938 27.7188 25.25 27.4119 24.8125 27.196C24.375 26.9801 23.8778 26.8722 23.321 26.8722C22.7472 26.8722 22.2443 26.9915 21.8125 27.2301C21.3807 27.4631 21.0455 27.7955 20.8068 28.2273C20.5739 28.6591 20.4574 29.1733 20.4574 29.7699H17.4489C17.4489 28.6619 17.7017 27.6989 18.2074 26.8807C18.7131 26.0625 19.4091 25.429 20.2955 24.9801C21.1875 24.5312 22.2102 24.3068 23.3636 24.3068C24.5341 24.3068 25.5625 24.5256 26.4489 24.9631C27.3352 25.4006 28.0227 26 28.5114 26.7614C29.0057 27.5227 29.2528 28.392 29.2528 29.3693C29.2528 30.0227 29.1278 30.6648 28.8778 31.2955C28.6278 31.9261 28.1875 32.625 27.5568 33.392C26.9318 34.1591 26.054 35.0881 24.9233 36.179L21.9148 39.2386V39.358H29.517V42H17.5511Z" fill="white"/>
<path d="M155.185 53.6436V54.5593C155.185 54.5593 155.185 54.5593 155.185 54.5769C155.185 54.5769 155.185 54.5769 155.185 54.5945C155.185 54.8235 155.351 54.9996 155.546 54.9996H164.74C164.935 54.9996 165.1 54.8059 165.1 54.5769V53.5379C170.283 51.548 174.159 46.6347 175 40.6473C175 40.6473 175 40.6297 175 40.612C175 40.5944 175 40.5768 175 40.5592C175 40.3127 174.835 40.119 174.624 40.119H145.376C145.165 40.119 145 40.3127 145 40.5592V40.7529C145.916 46.7932 149.897 51.7417 155.185 53.6612" fill="white"/>
<path d="M165.115 25.4677C164.995 25.6614 162.171 30.4513 165.175 34.308C166.557 36.0866 166.437 37.6363 166.047 38.6929H167.985C168.375 37.1256 168.21 35.1709 166.648 33.1633C164.424 30.3105 166.678 26.4714 166.708 26.401C166.978 25.9607 166.828 25.3972 166.392 25.1331C165.957 24.8689 165.386 25.0098 165.115 25.45" fill="white"/>
<path d="M160.218 38.6929H162.156C162.546 37.1256 162.381 35.1709 160.819 33.1633C158.595 30.3105 160.849 26.4714 160.879 26.401C161.134 25.9607 160.999 25.3972 160.563 25.1331C160.128 24.8689 159.557 25.0098 159.287 25.45C159.166 25.6438 156.327 30.4337 159.347 34.2904C160.729 36.069 160.608 37.6363 160.218 38.6753" fill="white"/>
<path d="M153.458 25.4677C153.337 25.6614 150.498 30.4513 153.518 34.308C154.9 36.0866 154.78 37.6363 154.389 38.6929H156.327C156.718 37.1256 156.552 35.1709 154.99 33.1633C152.767 30.3105 155.02 26.4714 155.05 26.401C155.305 25.9607 155.17 25.3972 154.735 25.1331C154.299 24.8689 153.728 25.0098 153.458 25.45" fill="white"/>
<path d="M16.8153 95V93.8516L22.0355 86.3643H16.7855V84.8182H24.3224V85.9666L19.1072 93.4538H24.3523V95H16.8153ZM26.1371 95V84.8182H32.7592V86.3643H27.9815V89.1286H32.4162V90.6747H27.9815V93.4538H32.799V95H26.1371ZM34.641 95V84.8182H38.4592C39.2414 84.8182 39.8976 84.9541 40.4279 85.2259C40.9615 85.4976 41.3642 85.8788 41.636 86.3693C41.9111 86.8565 42.0487 87.425 42.0487 88.0746C42.0487 88.7275 41.9094 89.2943 41.631 89.7749C41.3559 90.2521 40.9499 90.6217 40.413 90.8835C39.8761 91.142 39.2165 91.2713 38.4343 91.2713H35.7148V89.7401H38.1857C38.6431 89.7401 39.0176 89.6771 39.3093 89.5511C39.601 89.4219 39.8164 89.2346 39.9556 88.9893C40.0981 88.7408 40.1694 88.4358 40.1694 88.0746C40.1694 87.7133 40.0981 87.4051 39.9556 87.1499C39.8131 86.8913 39.596 86.6958 39.3043 86.5632C39.0127 86.4273 38.6365 86.3594 38.1758 86.3594H36.4854V95H34.641ZM39.9009 90.3864L42.4215 95H40.3633L37.8874 90.3864H39.9009ZM52.8445 89.9091C52.8445 91.0062 52.639 91.9458 52.228 92.728C51.8203 93.5069 51.2635 94.1035 50.5575 94.5178C49.8549 94.9321 49.0578 95.1392 48.1662 95.1392C47.2746 95.1392 46.4759 94.9321 45.7699 94.5178C45.0672 94.1001 44.5104 93.5019 44.0994 92.723C43.6918 91.9408 43.4879 91.0028 43.4879 89.9091C43.4879 88.812 43.6918 87.8741 44.0994 87.0952C44.5104 86.313 45.0672 85.7147 45.7699 85.3004C46.4759 84.8861 47.2746 84.679 48.1662 84.679C49.0578 84.679 49.8549 84.8861 50.5575 85.3004C51.2635 85.7147 51.8203 86.313 52.228 87.0952C52.639 87.8741 52.8445 88.812 52.8445 89.9091ZM50.9901 89.9091C50.9901 89.1368 50.8691 88.4856 50.6271 87.9553C50.3885 87.4216 50.0571 87.0189 49.6328 86.7472C49.2086 86.4721 48.7197 86.3345 48.1662 86.3345C47.6127 86.3345 47.1238 86.4721 46.6996 86.7472C46.2753 87.0189 45.9422 87.4216 45.7003 87.9553C45.4616 88.4856 45.3423 89.1368 45.3423 89.9091C45.3423 90.6813 45.4616 91.3343 45.7003 91.8679C45.9422 92.3982 46.2753 92.8009 46.6996 93.076C47.1238 93.3478 47.6127 93.4837 48.1662 93.4837C48.7197 93.4837 49.2086 93.3478 49.6328 93.076C50.0571 92.8009 50.3885 92.3982 50.6271 91.8679C50.8691 91.3343 50.9901 90.6813 50.9901 89.9091ZM58.0609 95V84.8182H59.9054V89.1286H64.6234V84.8182H66.4728V95H64.6234V90.6747H59.9054V95H58.0609ZM74.8972 84.8182H76.7417V91.4702C76.7417 92.1993 76.5693 92.8407 76.2246 93.3942C75.8832 93.9477 75.4026 94.3802 74.7828 94.6918C74.1631 95 73.4389 95.1541 72.6103 95.1541C71.7784 95.1541 71.0525 95 70.4327 94.6918C69.8129 94.3802 69.3323 93.9477 68.9909 93.3942C68.6496 92.8407 68.4789 92.1993 68.4789 91.4702V84.8182H70.3233V91.3161C70.3233 91.7403 70.4161 92.1181 70.6017 92.4496C70.7907 92.781 71.0558 93.0412 71.3972 93.2301C71.7386 93.4157 72.1429 93.5085 72.6103 93.5085C73.0776 93.5085 73.4819 93.4157 73.8233 93.2301C74.168 93.0412 74.4332 92.781 74.6188 92.4496C74.8044 92.1181 74.8972 91.7403 74.8972 91.3161V84.8182ZM87.1136 84.8182V95H85.473L80.6754 88.0646H80.5909V95H78.7464V84.8182H80.397L85.1896 91.7585H85.2791V84.8182H87.1136ZM95.9444 88.0696C95.8616 87.8011 95.7472 87.5608 95.6014 87.3487C95.4589 87.1333 95.2865 86.9493 95.0843 86.7969C94.8855 86.6444 94.6568 86.5301 94.3983 86.4538C94.1397 86.3743 93.858 86.3345 93.5531 86.3345C93.0062 86.3345 92.519 86.4721 92.0914 86.7472C91.6639 87.0223 91.3275 87.4266 91.0822 87.9602C90.8403 88.4905 90.7193 89.1368 90.7193 89.8991C90.7193 90.6681 90.8403 91.3194 91.0822 91.853C91.3242 92.3866 91.6606 92.7926 92.0914 93.071C92.5223 93.3461 93.0228 93.4837 93.5929 93.4837C94.1099 93.4837 94.5574 93.3842 94.9352 93.1854C95.3163 92.9865 95.6097 92.7048 95.8152 92.3402C96.0207 91.9723 96.1234 91.5414 96.1234 91.0476L96.541 91.1122H93.7768V89.6705H97.9082V90.8935C97.9082 91.7652 97.7226 92.5192 97.3514 93.1555C96.9802 93.7919 96.4698 94.2824 95.8201 94.6271C95.1705 94.9685 94.4248 95.1392 93.5829 95.1392C92.6449 95.1392 91.8213 94.9287 91.112 94.5078C90.4061 94.0836 89.8542 93.482 89.4565 92.7031C89.0621 91.9209 88.8649 90.9929 88.8649 89.919C88.8649 89.0971 88.9809 88.3629 89.2129 87.7166C89.4482 87.0703 89.7763 86.5218 90.1973 86.071C90.6182 85.617 91.112 85.2723 91.6788 85.0369C92.2456 84.7983 92.862 84.679 93.5282 84.679C94.0917 84.679 94.617 84.7618 95.1042 84.9276C95.5914 85.09 96.024 85.322 96.4018 85.6236C96.783 85.9252 97.0962 86.2831 97.3414 86.6974C97.5867 87.1117 97.7475 87.5691 97.8237 88.0696H95.9444ZM99.6918 95V84.8182H106.314V86.3643H101.536V89.1286H105.971V90.6747H101.536V93.4538H106.354V95H99.6918ZM108.196 95V84.8182H112.014C112.796 84.8182 113.452 84.9541 113.983 85.2259C114.516 85.4976 114.919 85.8788 115.191 86.3693C115.466 86.8565 115.603 87.425 115.603 88.0746C115.603 88.7275 115.464 89.2943 115.186 89.7749C114.911 90.2521 114.505 90.6217 113.968 90.8835C113.431 91.142 112.771 91.2713 111.989 91.2713H109.27V89.7401H111.74C112.198 89.7401 112.572 89.6771 112.864 89.5511C113.156 89.4219 113.371 89.2346 113.51 88.9893C113.653 88.7408 113.724 88.4358 113.724 88.0746C113.724 87.7133 113.653 87.4051 113.51 87.1499C113.368 86.8913 113.151 86.6958 112.859 86.5632C112.567 86.4273 112.191 86.3594 111.73 86.3594H110.04V95H108.196ZM113.456 90.3864L115.976 95H113.918L111.442 90.3864H113.456Z" fill="white"/>
<path d="M20.3253 171.273V180H18.7443V172.811H18.6932L16.652 174.115V172.666L18.821 171.273H20.3253ZM23.0281 180.094C22.7695 180.094 22.5479 180.003 22.3633 179.821C22.1786 179.639 22.0877 179.418 22.0906 179.156C22.0877 178.901 22.1786 178.682 22.3633 178.5C22.5479 178.318 22.7695 178.227 23.0281 178.227C23.2781 178.227 23.4954 178.318 23.68 178.5C23.8675 178.682 23.9627 178.901 23.9656 179.156C23.9627 179.33 23.9173 179.487 23.8292 179.629C23.744 179.771 23.6303 179.885 23.4883 179.97C23.3491 180.053 23.1957 180.094 23.0281 180.094ZM25.3835 178.381V177.124L29.0866 171.273H30.1349V173.062H29.4957L27.0028 177.013V177.081H32.1719V178.381H25.3835ZM29.5469 180V177.997L29.5639 177.435V171.273H31.0554V180H29.5469ZM35.1154 178.807L35.06 179.276C35.0202 179.634 34.9492 179.997 34.8469 180.366C34.7475 180.739 34.6424 181.081 34.5316 181.393C34.4208 181.706 34.3313 181.952 34.2631 182.131H33.2234C33.2631 181.957 33.3171 181.722 33.3853 181.423C33.4563 181.125 33.5245 180.79 33.5898 180.418C33.6552 180.045 33.6992 179.668 33.7219 179.284L33.7518 178.807H35.1154ZM43.0831 171.273V180H41.5021V172.811H41.451L39.4098 174.115V172.666L41.5788 171.273H43.0831ZM45.7859 180.094C45.5273 180.094 45.3058 180.003 45.1211 179.821C44.9364 179.639 44.8455 179.418 44.8484 179.156C44.8455 178.901 44.9364 178.682 45.1211 178.5C45.3058 178.318 45.5273 178.227 45.7859 178.227C46.0359 178.227 46.2532 178.318 46.4379 178.5C46.6254 178.682 46.7205 178.901 46.7234 179.156C46.7205 179.33 46.6751 179.487 46.587 179.629C46.5018 179.771 46.3881 179.885 46.2461 179.97C46.1069 180.053 45.9535 180.094 45.7859 180.094ZM51.2276 180.119C50.6594 180.119 50.1509 180.013 49.7021 179.8C49.2532 179.584 48.8967 179.288 48.6325 178.913C48.3711 178.538 48.2319 178.109 48.2148 177.626H49.7489C49.7773 177.984 49.9322 178.277 50.2134 178.504C50.4947 178.729 50.8327 178.841 51.2276 178.841C51.5373 178.841 51.8129 178.77 52.0543 178.628C52.2958 178.486 52.4862 178.288 52.6254 178.036C52.7646 177.783 52.8327 177.494 52.8299 177.17C52.8327 176.841 52.7631 176.548 52.6211 176.293C52.479 176.037 52.2844 175.837 52.0373 175.692C51.7901 175.544 51.506 175.47 51.185 175.47C50.9237 175.467 50.6665 175.516 50.4137 175.615C50.1609 175.714 49.9606 175.845 49.8129 176.007L48.3853 175.773L48.8413 171.273H53.9038V172.594H50.1495L49.8981 174.908H49.9492C50.1112 174.717 50.3398 174.56 50.6353 174.435C50.9308 174.307 51.2546 174.243 51.6069 174.243C52.1353 174.243 52.6069 174.368 53.0217 174.618C53.4364 174.865 53.7631 175.206 54.0018 175.641C54.2404 176.075 54.3597 176.572 54.3597 177.132C54.3597 177.709 54.2262 178.223 53.9592 178.675C53.695 179.124 53.3271 179.477 52.8555 179.736C52.3867 179.991 51.8441 180.119 51.2276 180.119Z" fill="white"/>
</svg>
