<svg width="200" height="200" viewBox="0 0 200 200" fill="none" xmlns="http://www.w3.org/2000/svg">
<rect width="200" height="200" fill="#EA2E46"/>
<path d="M24.6506 24.5455V42H21.4886V27.6222H21.3864L17.304 30.2301V27.3324L21.642 24.5455H24.6506Z" fill="white"/>
<path d="M175.234 32.5271C175.234 31.6846 175.901 31 176.722 31C177.543 31 178.21 31.6846 178.21 32.5271C178.21 33.3697 177.543 34.0543 176.722 34.0543C175.901 34.0543 175.234 33.3697 175.234 32.5271Z" fill="white"/>
<path d="M178.454 34.6475C179.468 34.7396 180.25 35.6085 180.25 36.6749V40.9008C180.25 41.2299 179.994 41.4932 179.673 41.4932C179.352 41.4932 179.096 41.2299 179.096 40.9008V37.2673C179.096 37.1356 179.057 36.9513 178.813 36.9513C178.647 36.9513 178.608 37.1356 178.608 37.2541V48.1415C178.608 48.6022 178.236 48.9972 177.774 48.9972C177.312 48.9972 176.94 48.6154 176.94 48.1415V41.8618C176.94 41.796 176.915 41.6117 176.709 41.6117C176.491 41.6117 176.478 41.796 176.466 41.8618V48.1415C176.466 48.6022 176.094 48.9972 175.645 48.9972C175.196 48.9972 174.811 48.6154 174.811 48.1415V37.2541C174.811 37.1356 174.772 36.9513 174.606 36.9513C174.362 36.9513 174.323 37.1356 174.323 37.2673V40.9008C174.323 41.2299 174.067 41.4932 173.746 41.4932C173.425 41.4932 173.169 41.2299 173.169 40.9008V36.6749C173.169 35.6085 173.964 34.7396 174.965 34.6475C175.003 34.6475 175.029 34.6475 175.067 34.6475H178.313C178.313 34.6475 178.39 34.6475 178.428 34.6475" fill="white"/>
<path d="M166.395 33.3329C166.395 32.5298 165.766 31.8848 164.984 31.8848C164.201 31.8848 163.573 32.5298 163.573 33.3329C163.573 34.136 164.201 34.781 164.984 34.781C165.766 34.781 166.395 34.136 166.395 33.3329Z" fill="white"/>
<path d="M162.149 36.597L160.981 40.507C160.981 40.507 160.776 41.2179 161.366 41.4022C161.956 41.5865 162.136 40.8756 162.136 40.8756L163.085 37.6107C163.085 37.6107 163.137 37.3606 163.316 37.4133C163.496 37.4659 163.432 37.7292 163.432 37.7292L161.79 43.8509H163.316V48.2348C163.316 48.6561 163.65 48.9852 164.047 48.9852C164.445 48.9852 164.779 48.6429 164.779 48.2348V43.8509H165.189V48.2348C165.189 48.6561 165.523 48.9852 165.92 48.9852C166.318 48.9852 166.652 48.6429 166.652 48.2348V43.8509H168.178L166.536 37.7292C166.536 37.7292 166.472 37.4659 166.652 37.4133C166.831 37.3606 166.882 37.6107 166.882 37.6107L167.832 40.8756C167.832 40.8756 168.011 41.5734 168.602 41.4022C169.192 41.2179 168.986 40.507 168.986 40.507L167.819 36.597C167.819 36.597 167.396 35.4648 166.472 35.4648H163.483C162.559 35.4648 162.136 36.597 162.136 36.597" fill="white"/>
<path d="M157.954 33.3329C157.954 32.5298 157.325 31.8848 156.543 31.8848C155.76 31.8848 155.132 32.5298 155.132 33.3329C155.132 34.136 155.76 34.781 156.543 34.781C157.325 34.781 157.954 34.136 157.954 33.3329Z" fill="white"/>
<path d="M153.708 36.597L152.54 40.507C152.54 40.507 152.335 41.2179 152.925 41.4022C153.515 41.5865 153.695 40.8756 153.695 40.8756L154.644 37.6107C154.644 37.6107 154.695 37.3606 154.875 37.4133C155.055 37.4659 154.99 37.7292 154.99 37.7292L153.348 43.8509H154.875V48.2348C154.875 48.6561 155.209 48.9852 155.606 48.9852C156.004 48.9852 156.337 48.6429 156.337 48.2348V43.8509H156.748V48.2348C156.748 48.6561 157.081 48.9852 157.479 48.9852C157.877 48.9852 158.21 48.6429 158.21 48.2348V43.8509H159.737L158.095 37.7292C158.095 37.7292 158.031 37.4659 158.21 37.4133C158.39 37.3606 158.441 37.6107 158.441 37.6107L159.391 40.8756C159.391 40.8756 159.57 41.5734 160.16 41.4022C160.75 41.2179 160.545 40.507 160.545 40.507L159.378 36.597C159.378 36.597 158.954 35.4648 158.031 35.4648H155.042C154.118 35.4648 153.695 36.597 153.695 36.597" fill="white"/>
<path d="M171.116 41.4116C171.77 41.4116 172.283 40.8719 172.283 40.2136C172.283 39.5554 171.757 39.0156 171.116 39.0156C170.474 39.0156 169.948 39.5554 169.948 40.2136C169.948 40.8719 170.474 41.4116 171.116 41.4116Z" fill="white"/>
<path d="M168.307 45.156C168.255 45.3008 168.204 45.5904 168.473 45.7221C168.794 45.8801 168.974 45.5509 168.974 45.5509L169.615 43.4709C169.615 43.4709 169.731 43.3261 169.731 43.4709V48.3814C169.731 48.7237 170 49.0001 170.334 49.0001C170.667 49.0001 170.937 48.7237 170.937 48.3814V46.4461C170.937 46.4461 170.898 46.1697 171.116 46.1697C171.334 46.1697 171.296 46.4461 171.296 46.4461V48.3814C171.296 48.7237 171.565 49.0001 171.899 49.0001C172.232 49.0001 172.502 48.7237 172.502 48.3814V43.4709C172.502 43.3261 172.579 43.4314 172.579 43.4314L173.079 44.8532C173.079 44.8532 173.297 45.4983 173.361 45.5246C173.592 45.6168 173.849 45.5246 173.938 45.2745C174.003 45.1297 173.977 44.9585 173.887 44.84C173.887 44.84 173.143 42.9443 173.053 42.681C172.784 41.8911 172.309 41.8911 171.847 41.8779C171.386 41.8779 171.103 41.8779 171.103 41.8779C171.103 41.8779 170.808 41.8779 170.192 41.8779C169.577 41.9043 169.384 42.2202 168.717 43.9975C168.615 44.2476 168.294 45.077 168.294 45.1297L168.307 45.156Z" fill="white"/>
<path d="M145.382 32.5271C145.382 31.6846 144.715 31 143.894 31C143.073 31 142.406 31.6846 142.406 32.5271C142.406 33.3697 143.073 34.0543 143.894 34.0543C144.715 34.0543 145.382 33.3697 145.382 32.5271Z" fill="white"/>
<path d="M142.149 34.6475C141.136 34.7396 140.353 35.6085 140.353 36.6749V40.9008C140.353 41.2299 140.61 41.4932 140.93 41.4932C141.251 41.4932 141.508 41.2299 141.508 40.9008V37.2673C141.508 37.1356 141.546 36.9513 141.79 36.9513C141.957 36.9513 141.995 37.1356 141.995 37.2541V48.1415C141.995 48.6022 142.367 48.9972 142.816 48.9972C143.265 48.9972 143.65 48.6154 143.65 48.1415V41.8618C143.65 41.796 143.676 41.6117 143.881 41.6117C144.086 41.6117 144.112 41.796 144.125 41.8618V48.1415C144.125 48.6022 144.497 48.9972 144.946 48.9972C145.395 48.9972 145.78 48.6154 145.78 48.1415V37.2541C145.78 37.1356 145.818 36.9513 145.985 36.9513C146.229 36.9513 146.267 37.1356 146.267 37.2673V40.9008C146.267 41.2299 146.524 41.4932 146.844 41.4932C147.165 41.4932 147.422 41.2299 147.422 40.9008V36.6749C147.422 35.6085 146.626 34.7396 145.626 34.6475C145.587 34.6475 145.561 34.6475 145.523 34.6475H142.277C142.277 34.6475 142.2 34.6475 142.162 34.6475" fill="white"/>
<path d="M140.636 41.7285L139.75 48.4689" stroke="white" stroke-width="0.68" stroke-miterlimit="10" stroke-linecap="round"/>
<path d="M148.127 40.779C148.05 40.6605 147.922 40.5684 147.768 40.5684C147.537 40.5684 147.345 40.7658 147.345 41.0028C147.345 41.0686 147.383 41.2003 147.383 41.2003L148.563 43.3988C148.563 43.3988 148.64 43.5436 148.64 43.6884V48.4015C148.64 48.7306 148.897 48.9939 149.218 48.9939C149.538 48.9939 149.795 48.7306 149.795 48.4015V46.5452C149.795 46.5452 149.757 46.2819 149.975 46.2819C150.193 46.2819 150.141 46.5452 150.141 46.5452V48.4015C150.141 48.7306 150.398 48.9939 150.719 48.9939C151.039 48.9939 151.296 48.7306 151.296 48.4015V43.6884C151.296 43.5568 151.36 43.3988 151.36 43.3988L152.451 41.3714C152.451 41.3714 152.579 41.0818 152.579 41.016C152.579 40.779 152.386 40.5815 152.155 40.5815C152.002 40.5815 151.873 40.6605 151.796 40.7922C151.796 40.7922 151.219 41.819 151.039 42.0033C150.847 42.2008 150.68 42.1745 150.68 42.1745H149.256C149.256 42.1745 149.089 42.2008 148.897 42.0033C148.717 41.819 148.166 40.8185 148.14 40.7922L148.127 40.779Z" fill="white"/>
<path d="M149.975 41.4116C150.629 41.4116 151.142 40.8719 151.142 40.2136C151.142 39.5554 150.616 39.0156 149.975 39.0156C149.333 39.0156 148.807 39.5554 148.807 40.2136C148.807 40.8719 149.333 41.4116 149.975 41.4116Z" fill="white"/>
<path d="M149.974 43.0996L151.296 44.1001L151.924 46.4698H149.974H148.011L148.653 44.1001L149.974 43.0996Z" fill="white"/>
<path d="M25.3714 84.8182V95H23.7308L18.9332 88.0646H18.8487V95H17.0043V84.8182H18.6548L23.4474 91.7585H23.5369V84.8182H25.3714ZM36.4792 89.9091C36.4792 91.0062 36.2737 91.9458 35.8627 92.728C35.4551 93.5069 34.8983 94.1035 34.1923 94.5178C33.4896 94.9321 32.6925 95.1392 31.801 95.1392C30.9094 95.1392 30.1106 94.9321 29.4047 94.5178C28.702 94.1001 28.1452 93.5019 27.7342 92.723C27.3265 91.9408 27.1227 91.0028 27.1227 89.9091C27.1227 88.812 27.3265 87.8741 27.7342 87.0952C28.1452 86.313 28.702 85.7147 29.4047 85.3004C30.1106 84.8861 30.9094 84.679 31.801 84.679C32.6925 84.679 33.4896 84.8861 34.1923 85.3004C34.8983 85.7147 35.4551 86.313 35.8627 87.0952C36.2737 87.8741 36.4792 88.812 36.4792 89.9091ZM34.6248 89.9091C34.6248 89.1368 34.5038 88.4856 34.2619 87.9553C34.0233 87.4216 33.6918 87.0189 33.2676 86.7472C32.8433 86.4721 32.3545 86.3345 31.801 86.3345C31.2475 86.3345 30.7586 86.4721 30.3343 86.7472C29.9101 87.0189 29.577 87.4216 29.335 87.9553C29.0964 88.4856 28.9771 89.1368 28.9771 89.9091C28.9771 90.6813 29.0964 91.3343 29.335 91.8679C29.577 92.3982 29.9101 92.8009 30.3343 93.076C30.7586 93.3478 31.2475 93.4837 31.801 93.4837C32.3545 93.4837 32.8433 93.3478 33.2676 93.076C33.6918 92.8009 34.0233 92.3982 34.2619 91.8679C34.5038 91.3343 34.6248 90.6813 34.6248 89.9091ZM41.6957 95V84.8182H45.5138C46.296 84.8182 46.9523 84.964 47.4826 85.2557C48.0162 85.5473 48.4189 85.9484 48.6907 86.4588C48.9658 86.9659 49.1033 87.5426 49.1033 88.1889C49.1033 88.8419 48.9658 89.4219 48.6907 89.929C48.4156 90.4361 48.0096 90.8355 47.4727 91.1271C46.9357 91.4155 46.2745 91.5597 45.489 91.5597H42.9585V90.0433H45.2404C45.6978 90.0433 46.0723 89.9638 46.364 89.8047C46.6557 89.6456 46.8711 89.4268 47.0103 89.1484C47.1528 88.87 47.2241 88.5502 47.2241 88.1889C47.2241 87.8277 47.1528 87.5095 47.0103 87.2344C46.8711 86.9593 46.654 86.7455 46.359 86.593C46.0674 86.4373 45.6912 86.3594 45.2305 86.3594H43.5401V95H41.6957ZM59.8034 89.9091C59.8034 91.0062 59.598 91.9458 59.187 92.728C58.7793 93.5069 58.2225 94.1035 57.5165 94.5178C56.8139 94.9321 56.0167 95.1392 55.1252 95.1392C54.2336 95.1392 53.4348 94.9321 52.7289 94.5178C52.0262 94.1001 51.4694 93.5019 51.0584 92.723C50.6507 91.9408 50.4469 91.0028 50.4469 89.9091C50.4469 88.812 50.6507 87.8741 51.0584 87.0952C51.4694 86.313 52.0262 85.7147 52.7289 85.3004C53.4348 84.8861 54.2336 84.679 55.1252 84.679C56.0167 84.679 56.8139 84.8861 57.5165 85.3004C58.2225 85.7147 58.7793 86.313 59.187 87.0952C59.598 87.8741 59.8034 88.812 59.8034 89.9091ZM57.949 89.9091C57.949 89.1368 57.8281 88.4856 57.5861 87.9553C57.3475 87.4216 57.016 87.0189 56.5918 86.7472C56.1676 86.4721 55.6787 86.3345 55.1252 86.3345C54.5717 86.3345 54.0828 86.4721 53.6586 86.7472C53.2343 87.0189 52.9012 87.4216 52.6593 87.9553C52.4206 88.4856 52.3013 89.1368 52.3013 89.9091C52.3013 90.6813 52.4206 91.3343 52.6593 91.8679C52.9012 92.3982 53.2343 92.8009 53.6586 93.076C54.0828 93.3478 54.5717 93.4837 55.1252 93.4837C55.6787 93.4837 56.1676 93.3478 56.5918 93.076C57.016 92.8009 57.3475 92.3982 57.5861 91.8679C57.8281 91.3343 57.949 90.6813 57.949 89.9091ZM62.3626 84.8182L65.0124 92.8324H65.1168L67.7617 84.8182H69.7901L66.2006 95H63.9237L60.3391 84.8182H62.3626ZM71.1312 95V84.8182H77.7534V86.3643H72.9757V89.1286H77.4103V90.6747H72.9757V93.4538H77.7931V95H71.1312ZM79.6351 95V84.8182H83.4533C84.2355 84.8182 84.8917 84.9541 85.4221 85.2259C85.9557 85.4976 86.3584 85.8788 86.6301 86.3693C86.9052 86.8565 87.0428 87.425 87.0428 88.0746C87.0428 88.7275 86.9036 89.2943 86.6252 89.7749C86.3501 90.2521 85.9441 90.6217 85.4071 90.8835C84.8702 91.142 84.2106 91.2713 83.4284 91.2713H80.709V89.7401H83.1799C83.6373 89.7401 84.0118 89.6771 84.3034 89.5511C84.5951 89.4219 84.8105 89.2346 84.9498 88.9893C85.0923 88.7408 85.1635 88.4358 85.1635 88.0746C85.1635 87.7133 85.0923 87.4051 84.9498 87.1499C84.8072 86.8913 84.5901 86.6958 84.2985 86.5632C84.0068 86.4273 83.6306 86.3594 83.1699 86.3594H81.4796V95H79.6351ZM84.8951 90.3864L87.4157 95H85.3574L82.8816 90.3864H84.8951ZM88.2931 86.3643V84.8182H96.4167V86.3643H93.2697V95H91.4402V86.3643H88.2931ZM97.2868 84.8182H99.3699L101.861 89.3224H101.96L104.451 84.8182H106.534L102.83 91.2017V95H100.991V91.2017L97.2868 84.8182Z" fill="white"/>
<path d="M20.3253 171.273V180H18.7443V172.811H18.6932L16.652 174.115V172.666L18.821 171.273H20.3253ZM23.0281 180.094C22.7695 180.094 22.5479 180.003 22.3633 179.821C22.1786 179.639 22.0877 179.418 22.0906 179.156C22.0877 178.901 22.1786 178.682 22.3633 178.5C22.5479 178.318 22.7695 178.227 23.0281 178.227C23.2781 178.227 23.4954 178.318 23.68 178.5C23.8675 178.682 23.9627 178.901 23.9656 179.156C23.9627 179.33 23.9173 179.487 23.8292 179.629C23.744 179.771 23.6303 179.885 23.4883 179.97C23.3491 180.053 23.1957 180.094 23.0281 180.094ZM25.3835 178.381V177.124L29.0866 171.273H30.1349V173.062H29.4957L27.0028 177.013V177.081H32.1719V178.381H25.3835ZM29.5469 180V177.997L29.5639 177.435V171.273H31.0554V180H29.5469ZM35.1154 178.807L35.06 179.276C35.0202 179.634 34.9492 179.997 34.8469 180.366C34.7475 180.739 34.6424 181.081 34.5316 181.393C34.4208 181.706 34.3313 181.952 34.2631 182.131H33.2234C33.2631 181.957 33.3171 181.722 33.3853 181.423C33.4563 181.125 33.5245 180.79 33.5898 180.418C33.6552 180.045 33.6992 179.668 33.7219 179.284L33.7518 178.807H35.1154ZM43.0831 171.273V180H41.5021V172.811H41.451L39.4098 174.115V172.666L41.5788 171.273H43.0831ZM45.7859 180.094C45.5273 180.094 45.3058 180.003 45.1211 179.821C44.9364 179.639 44.8455 179.418 44.8484 179.156C44.8455 178.901 44.9364 178.682 45.1211 178.5C45.3058 178.318 45.5273 178.227 45.7859 178.227C46.0359 178.227 46.2532 178.318 46.4379 178.5C46.6254 178.682 46.7205 178.901 46.7234 179.156C46.7205 179.33 46.6751 179.487 46.587 179.629C46.5018 179.771 46.3881 179.885 46.2461 179.97C46.1069 180.053 45.9535 180.094 45.7859 180.094ZM51.2276 180.119C50.6594 180.119 50.1509 180.013 49.7021 179.8C49.2532 179.584 48.8967 179.288 48.6325 178.913C48.3711 178.538 48.2319 178.109 48.2148 177.626H49.7489C49.7773 177.984 49.9322 178.277 50.2134 178.504C50.4947 178.729 50.8327 178.841 51.2276 178.841C51.5373 178.841 51.8129 178.77 52.0543 178.628C52.2958 178.486 52.4862 178.288 52.6254 178.036C52.7646 177.783 52.8327 177.494 52.8299 177.17C52.8327 176.841 52.7631 176.548 52.6211 176.293C52.479 176.037 52.2844 175.837 52.0373 175.692C51.7901 175.544 51.506 175.47 51.185 175.47C50.9237 175.467 50.6665 175.516 50.4137 175.615C50.1609 175.714 49.9606 175.845 49.8129 176.007L48.3853 175.773L48.8413 171.273H53.9038V172.594H50.1495L49.8981 174.908H49.9492C50.1112 174.717 50.3398 174.56 50.6353 174.435C50.9308 174.307 51.2546 174.243 51.6069 174.243C52.1353 174.243 52.6069 174.368 53.0217 174.618C53.4364 174.865 53.7631 175.206 54.0018 175.641C54.2404 176.075 54.3597 176.572 54.3597 177.132C54.3597 177.709 54.2262 178.223 53.9592 178.675C53.695 179.124 53.3271 179.477 52.8555 179.736C52.3867 179.991 51.8441 180.119 51.2276 180.119Z" fill="white"/>
</svg>
