<svg width="200" height="200" viewBox="0 0 200 200" fill="none" xmlns="http://www.w3.org/2000/svg">
<rect width="200" height="200" fill="#FBC311"/>
<path d="M18.1903 42L25.6136 27.3068V27.1875H16.9972V24.5455H28.8864V27.2472L21.4716 42H18.1903Z" fill="white"/>
<path d="M160 31.4455C155.244 31.4455 151.38 35.3091 151.38 40.0656C151.38 44.8221 155.244 48.6857 160 48.6857C164.757 48.6857 168.62 44.8221 168.62 40.0656C168.62 35.3091 164.757 31.4455 160 31.4455ZM159.367 34.8546C159.367 34.5623 159.659 34.2539 160.016 34.2539C160.373 34.2539 160.649 34.5623 160.649 34.8546V37.8091C160.649 38.1013 160.357 38.4098 160.016 38.4098C159.675 38.4098 159.367 38.1013 159.367 37.8091V34.8546ZM160 44.4812C157.532 44.4812 155.519 42.4682 155.519 40.0007C155.519 37.9877 156.851 36.2831 158.669 35.7149V37.387C157.727 37.874 157.062 38.8643 157.062 40.0007C157.062 41.624 158.377 42.939 160 42.939C161.623 42.939 162.938 41.624 162.938 40.0007C162.938 38.8481 162.289 37.874 161.331 37.387V35.7149C163.166 36.2831 164.481 37.9877 164.481 40.0007C164.481 42.4844 162.468 44.4812 160 44.4812Z" fill="white"/>
<path d="M150.114 39.9833C150.114 39.5937 149.773 39.269 149.448 39.269H145.666C145.341 39.269 145 39.5937 145 39.9833C145 40.3729 145.357 40.6976 145.666 40.6976H149.448C149.756 40.6976 150.114 40.3729 150.114 39.9833Z" fill="white"/>
<path d="M175 39.9833C175 39.5937 174.659 39.269 174.335 39.269H170.552C170.227 39.269 169.886 39.5937 169.886 39.9833C169.886 40.3729 170.244 40.6976 170.552 40.6976H174.335C174.643 40.6976 175 40.3729 175 39.9833Z" fill="white"/>
<path d="M160.016 30.0974C160.406 30.0974 160.714 29.7565 160.714 29.4318V25.6656C160.714 25.3409 160.39 25 160.016 25C159.643 25 159.302 25.3409 159.302 25.6656V29.4318C159.302 29.7565 159.627 30.0974 160.016 30.0974Z" fill="white"/>
<path d="M151.428 35.0662C151.623 34.7253 151.477 34.287 151.201 34.1247L147.922 32.2578C147.646 32.0954 147.191 32.1928 146.997 32.5337C146.802 32.8746 146.948 33.3292 147.224 33.4753L150.503 35.3422C150.779 35.5045 151.234 35.3909 151.428 35.05" fill="white"/>
<path d="M164.919 31.3944C165.26 31.5892 165.698 31.4431 165.86 31.1671L167.727 27.8879C167.89 27.6119 167.792 27.1574 167.451 26.9626C167.11 26.7678 166.656 26.9139 166.494 27.1898L164.627 30.4691C164.464 30.745 164.578 31.1996 164.919 31.3944Z" fill="white"/>
<path d="M155.081 31.414C155.422 31.2192 155.52 30.7647 155.357 30.4887L153.474 27.2257C153.312 26.9497 152.857 26.8036 152.533 26.9985C152.192 27.1933 152.094 27.6478 152.257 27.9238L154.14 31.1868C154.302 31.4627 154.74 31.6088 155.081 31.414Z" fill="white"/>
<path d="M168.588 35.0483C168.783 35.3892 169.237 35.4866 169.513 35.3405L172.776 33.4574C173.052 33.295 173.198 32.8405 173.003 32.5158C172.809 32.1749 172.354 32.0775 172.062 32.2398L168.783 34.1229C168.507 34.2853 168.36 34.7236 168.555 35.0645" fill="white"/>
<path d="M160 49.9026C159.61 49.9026 159.302 50.2435 159.302 50.5682V54.3344C159.302 54.6591 159.627 55 160 55C160.373 55 160.714 54.6591 160.714 54.3344V50.5682C160.714 50.2435 160.39 49.9026 160 49.9026Z" fill="white"/>
<path d="M168.588 44.9185C168.393 45.2594 168.539 45.6978 168.815 45.8601L172.094 47.727C172.37 47.8893 172.825 47.7919 173.02 47.451C173.214 47.1101 173.068 46.6556 172.792 46.5094L169.513 44.6426C169.237 44.4802 168.783 44.5939 168.588 44.9348" fill="white"/>
<path d="M155.081 48.5886C154.74 48.3938 154.302 48.5399 154.14 48.8159L152.273 52.0951C152.11 52.3711 152.208 52.8256 152.549 53.0204C152.89 53.2152 153.344 53.0691 153.506 52.7931L155.373 49.5139C155.536 49.2379 155.422 48.7834 155.081 48.5886Z" fill="white"/>
<path d="M164.919 48.5886C164.578 48.7834 164.48 49.2379 164.643 49.5139L166.526 52.7769C166.688 53.0529 167.143 53.199 167.467 53.0042C167.808 52.8094 167.906 52.3548 167.743 52.0789L165.86 48.8159C165.698 48.5399 165.26 48.3938 164.919 48.5886Z" fill="white"/>
<path d="M151.412 44.9366C151.217 44.5957 150.763 44.4983 150.487 44.6606L147.224 46.5437C146.948 46.7061 146.802 47.1606 146.997 47.4853C147.191 47.8262 147.646 47.9236 147.938 47.7613L151.217 45.8781C151.493 45.7158 151.64 45.2775 151.445 44.9366" fill="white"/>
<path d="M18.3118 95H16.343L19.9276 84.8182H22.2045L25.794 95H23.8253L21.1058 86.9062H21.0263L18.3118 95ZM18.3764 91.0078H23.7457V92.4893H18.3764V91.0078ZM27.1351 95V84.8182H33.6578V86.3643H28.9796V89.1286H33.2104V90.6747H28.9796V95H27.1351ZM35.3382 95V84.8182H41.861V86.3643H37.1827V89.1286H41.4135V90.6747H37.1827V95H35.3382ZM52.6394 89.9091C52.6394 91.0062 52.4339 91.9458 52.0229 92.728C51.6152 93.5069 51.0584 94.1035 50.3525 94.5178C49.6498 94.9321 48.8527 95.1392 47.9611 95.1392C47.0695 95.1392 46.2708 94.9321 45.5648 94.5178C44.8622 94.1001 44.3053 93.5019 43.8944 92.723C43.4867 91.9408 43.2828 91.0028 43.2828 89.9091C43.2828 88.812 43.4867 87.8741 43.8944 87.0952C44.3053 86.313 44.8622 85.7147 45.5648 85.3004C46.2708 84.8861 47.0695 84.679 47.9611 84.679C48.8527 84.679 49.6498 84.8861 50.3525 85.3004C51.0584 85.7147 51.6152 86.313 52.0229 87.0952C52.4339 87.8741 52.6394 88.812 52.6394 89.9091ZM50.785 89.9091C50.785 89.1368 50.664 88.4856 50.4221 87.9553C50.1834 87.4216 49.852 87.0189 49.4277 86.7472C49.0035 86.4721 48.5146 86.3345 47.9611 86.3345C47.4076 86.3345 46.9187 86.4721 46.4945 86.7472C46.0703 87.0189 45.7372 87.4216 45.4952 87.9553C45.2566 88.4856 45.1373 89.1368 45.1373 89.9091C45.1373 90.6813 45.2566 91.3343 45.4952 91.8679C45.7372 92.3982 46.0703 92.8009 46.4945 93.076C46.9187 93.3478 47.4076 93.4837 47.9611 93.4837C48.5146 93.4837 49.0035 93.3478 49.4277 93.076C49.852 92.8009 50.1834 92.3982 50.4221 91.8679C50.664 91.3343 50.785 90.6813 50.785 89.9091ZM54.3832 95V84.8182H58.2013C58.9835 84.8182 59.6398 84.9541 60.1701 85.2259C60.7037 85.4976 61.1064 85.8788 61.3782 86.3693C61.6533 86.8565 61.7908 87.425 61.7908 88.0746C61.7908 88.7275 61.6516 89.2943 61.3732 89.7749C61.0981 90.2521 60.6921 90.6217 60.1552 90.8835C59.6183 91.142 58.9587 91.2713 58.1765 91.2713H55.457V89.7401H57.9279C58.3853 89.7401 58.7598 89.6771 59.0515 89.5511C59.3432 89.4219 59.5586 89.2346 59.6978 88.9893C59.8403 88.7408 59.9116 88.4358 59.9116 88.0746C59.9116 87.7133 59.8403 87.4051 59.6978 87.1499C59.5553 86.8913 59.3382 86.6958 59.0465 86.5632C58.7549 86.4273 58.3787 86.3594 57.918 86.3594H56.2276V95H54.3832ZM59.6431 90.3864L62.1637 95H60.1055L57.6296 90.3864H59.6431ZM66.9389 95H63.4886V84.8182H67.0085C68.0194 84.8182 68.8878 85.022 69.6136 85.4297C70.3428 85.834 70.9029 86.4157 71.294 87.1747C71.6851 87.9337 71.8807 88.8419 71.8807 89.8991C71.8807 90.9598 71.6835 91.8712 71.2891 92.6335C70.898 93.3958 70.3329 93.9808 69.5938 94.3885C68.858 94.7962 67.973 95 66.9389 95ZM65.3331 93.4041H66.8494C67.5587 93.4041 68.1503 93.2749 68.6243 93.0163C69.0982 92.7545 69.4545 92.3651 69.6932 91.848C69.9318 91.3277 70.0511 90.678 70.0511 89.8991C70.0511 89.1203 69.9318 88.474 69.6932 87.9602C69.4545 87.4432 69.1016 87.0571 68.6342 86.8018C68.1702 86.5433 67.5935 86.4141 66.9041 86.4141H65.3331V93.4041ZM74.3938 95H72.4251L76.0096 84.8182H78.2866L81.8761 95H79.9073L77.1879 86.9062H77.1083L74.3938 95ZM74.4585 91.0078H79.8278V92.4893H74.4585V91.0078ZM83.2172 95V84.8182H87.1149C87.8507 84.8182 88.4622 84.9342 88.9494 85.1662C89.4399 85.3949 89.8062 85.7081 90.0481 86.1058C90.2934 86.5036 90.416 86.9543 90.416 87.4581C90.416 87.8724 90.3365 88.227 90.1774 88.522C90.0183 88.8137 89.8045 89.0507 89.536 89.233C89.2676 89.4152 88.9676 89.5462 88.6362 89.6257V89.7251C88.9975 89.745 89.3438 89.8561 89.6752 90.0582C90.01 90.2571 90.2834 90.5388 90.4956 90.9034C90.7077 91.268 90.8137 91.7088 90.8137 92.2259C90.8137 92.7528 90.6861 93.2268 90.4309 93.6477C90.1757 94.0653 89.7913 94.3951 89.2775 94.6371C88.7638 94.879 88.1175 95 87.3386 95H83.2172ZM85.0616 93.4588H87.0453C87.7148 93.4588 88.197 93.3312 88.492 93.076C88.7903 92.8175 88.9395 92.486 88.9395 92.0817C88.9395 91.7801 88.8649 91.5083 88.7157 91.2663C88.5666 91.0211 88.3545 90.8288 88.0794 90.6896C87.8043 90.5471 87.4761 90.4759 87.095 90.4759H85.0616V93.4588ZM85.0616 89.1484H86.8862C87.2044 89.1484 87.4911 89.0904 87.7463 88.9744C88.0015 88.8551 88.202 88.6877 88.3478 88.4723C88.497 88.2536 88.5716 87.995 88.5716 87.6967C88.5716 87.3023 88.4324 86.9775 88.1539 86.7223C87.8788 86.4671 87.4695 86.3395 86.926 86.3395H85.0616V89.1484ZM92.4183 95V84.8182H94.2628V93.4538H98.7472V95H92.4183ZM100.348 95V84.8182H106.97V86.3643H102.192V89.1286H106.627V90.6747H102.192V93.4538H107.01V95H100.348ZM113.632 95H111.663L115.248 84.8182H117.525L121.114 95H119.146L116.426 86.9062H116.347L113.632 95ZM113.697 91.0078H119.066V92.4893H113.697V91.0078ZM130.823 84.8182V95H129.182L124.384 88.0646H124.3V95H122.455V84.8182H124.106L128.899 91.7585H128.988V84.8182H130.823ZM136.283 95H132.832V84.8182H136.352C137.363 84.8182 138.232 85.022 138.957 85.4297C139.687 85.834 140.247 86.4157 140.638 87.1747C141.029 87.9337 141.224 88.8419 141.224 89.8991C141.224 90.9598 141.027 91.8712 140.633 92.6335C140.242 93.3958 139.677 93.9808 138.938 94.3885C138.202 94.7962 137.317 95 136.283 95ZM134.677 93.4041H136.193C136.902 93.4041 137.494 93.2749 137.968 93.0163C138.442 92.7545 138.798 92.3651 139.037 91.848C139.276 91.3277 139.395 90.678 139.395 89.8991C139.395 89.1203 139.276 88.474 139.037 87.9602C138.798 87.4432 138.445 87.0571 137.978 86.8018C137.514 86.5433 136.937 86.4141 136.248 86.4141H134.677V93.4041ZM25.7195 108.254H23.8601C23.8071 107.949 23.7093 107.679 23.5668 107.443C23.4242 107.205 23.2469 107.002 23.0348 106.837C22.8227 106.671 22.5807 106.547 22.3089 106.464C22.0405 106.378 21.7505 106.335 21.4389 106.335C20.8854 106.335 20.3949 106.474 19.9673 106.752C19.5398 107.027 19.205 107.432 18.9631 107.965C18.7211 108.496 18.6001 109.143 18.6001 109.909C18.6001 110.688 18.7211 111.344 18.9631 111.878C19.2083 112.408 19.5431 112.809 19.9673 113.081C20.3949 113.349 20.8838 113.484 21.4339 113.484C21.7389 113.484 22.0239 113.444 22.2891 113.364C22.5575 113.281 22.7978 113.161 23.0099 113.001C23.2254 112.842 23.406 112.647 23.5518 112.415C23.701 112.183 23.8037 111.918 23.8601 111.619L25.7195 111.629C25.6499 112.113 25.4991 112.567 25.267 112.991C25.0384 113.416 24.7384 113.79 24.3672 114.115C23.996 114.437 23.5618 114.688 23.0646 114.871C22.5675 115.05 22.0156 115.139 21.4091 115.139C20.5142 115.139 19.7154 114.932 19.0128 114.518C18.3101 114.103 17.7566 113.505 17.3523 112.723C16.9479 111.941 16.7457 111.003 16.7457 109.909C16.7457 108.812 16.9496 107.874 17.3572 107.095C17.7649 106.313 18.3201 105.715 19.0227 105.3C19.7254 104.886 20.5208 104.679 21.4091 104.679C21.9759 104.679 22.5028 104.759 22.9901 104.918C23.4773 105.077 23.9115 105.31 24.2926 105.619C24.6738 105.924 24.987 106.298 25.2322 106.742C25.4808 107.183 25.6432 107.687 25.7195 108.254ZM27.4086 115V104.818H29.253V113.454H33.7374V115H27.4086ZM35.3382 115V104.818H41.9604V106.364H37.1827V109.129H41.6174V110.675H37.1827V113.454H42.0002V115H35.3382ZM45.1497 115H43.1809L46.7654 104.818H49.0424L52.6319 115H50.6632L47.9437 106.906H47.8642L45.1497 115ZM45.2143 111.008H50.5836V112.489H45.2143V111.008ZM62.3402 104.818V115H60.6996L55.902 108.065H55.8175V115H53.973V104.818H55.6236L60.4162 111.759H60.5057V104.818H62.3402ZM67.8226 115V104.818H74.4448V106.364H69.6671V109.129H74.1017V110.675H69.6671V113.454H74.4846V115H67.8226ZM84.6937 104.818V115H83.0531L78.2555 108.065H78.171V115H76.3265V104.818H77.9771L82.7697 111.759H82.8592V104.818H84.6937ZM86.7035 115V104.818H93.3256V106.364H88.5479V109.129H92.9826V110.675H88.5479V113.454H93.3654V115H86.7035ZM95.2074 115V104.818H99.0256C99.8078 104.818 100.464 104.954 100.994 105.226C101.528 105.498 101.931 105.879 102.202 106.369C102.478 106.857 102.615 107.425 102.615 108.075C102.615 108.728 102.476 109.294 102.197 109.775C101.922 110.252 101.516 110.622 100.979 110.884C100.442 111.142 99.7829 111.271 99.0007 111.271H96.2812V109.74H98.7521C99.2095 109.74 99.584 109.677 99.8757 109.551C100.167 109.422 100.383 109.235 100.522 108.989C100.665 108.741 100.736 108.436 100.736 108.075C100.736 107.713 100.665 107.405 100.522 107.15C100.379 106.891 100.162 106.696 99.8707 106.563C99.5791 106.427 99.2029 106.359 98.7422 106.359H97.0518V115H95.2074ZM100.467 110.386L102.988 115H100.93L98.4538 110.386H100.467ZM111.134 108.07C111.051 107.801 110.937 107.561 110.791 107.349C110.648 107.133 110.476 106.949 110.274 106.797C110.075 106.644 109.846 106.53 109.588 106.454C109.329 106.374 109.047 106.335 108.743 106.335C108.196 106.335 107.708 106.472 107.281 106.747C106.853 107.022 106.517 107.427 106.272 107.96C106.03 108.491 105.909 109.137 105.909 109.899C105.909 110.668 106.03 111.319 106.272 111.853C106.514 112.387 106.85 112.793 107.281 113.071C107.712 113.346 108.212 113.484 108.782 113.484C109.299 113.484 109.747 113.384 110.125 113.185C110.506 112.987 110.799 112.705 111.005 112.34C111.21 111.972 111.313 111.541 111.313 111.048L111.73 111.112H108.966V109.67H113.098V110.893C113.098 111.765 112.912 112.519 112.541 113.156C112.17 113.792 111.659 114.282 111.01 114.627C110.36 114.969 109.614 115.139 108.772 115.139C107.834 115.139 107.011 114.929 106.301 114.508C105.596 114.084 105.044 113.482 104.646 112.703C104.252 111.921 104.054 110.993 104.054 109.919C104.054 109.097 104.17 108.363 104.402 107.717C104.638 107.07 104.966 106.522 105.387 106.071C105.808 105.617 106.301 105.272 106.868 105.037C107.435 104.798 108.051 104.679 108.718 104.679C109.281 104.679 109.806 104.762 110.294 104.928C110.781 105.09 111.213 105.322 111.591 105.624C111.972 105.925 112.286 106.283 112.531 106.697C112.776 107.112 112.937 107.569 113.013 108.07H111.134ZM113.802 104.818H115.885L118.376 109.322H118.476L120.966 104.818H123.05L119.346 111.202V115H117.506V111.202L113.802 104.818Z" fill="white"/>
<path d="M20.3253 171.273V180H18.7443V172.811H18.6932L16.652 174.115V172.666L18.821 171.273H20.3253ZM23.0281 180.094C22.7695 180.094 22.5479 180.003 22.3633 179.821C22.1786 179.639 22.0877 179.418 22.0906 179.156C22.0877 178.901 22.1786 178.682 22.3633 178.5C22.5479 178.318 22.7695 178.227 23.0281 178.227C23.2781 178.227 23.4954 178.318 23.68 178.5C23.8675 178.682 23.9627 178.901 23.9656 179.156C23.9627 179.33 23.9173 179.487 23.8292 179.629C23.744 179.771 23.6303 179.885 23.4883 179.97C23.3491 180.053 23.1957 180.094 23.0281 180.094ZM25.3835 178.381V177.124L29.0866 171.273H30.1349V173.062H29.4957L27.0028 177.013V177.081H32.1719V178.381H25.3835ZM29.5469 180V177.997L29.5639 177.435V171.273H31.0554V180H29.5469ZM35.1154 178.807L35.06 179.276C35.0202 179.634 34.9492 179.997 34.8469 180.366C34.7475 180.739 34.6424 181.081 34.5316 181.393C34.4208 181.706 34.3313 181.952 34.2631 182.131H33.2234C33.2631 181.957 33.3171 181.722 33.3853 181.423C33.4563 181.125 33.5245 180.79 33.5898 180.418C33.6552 180.045 33.6992 179.668 33.7219 179.284L33.7518 178.807H35.1154ZM43.0831 171.273V180H41.5021V172.811H41.451L39.4098 174.115V172.666L41.5788 171.273H43.0831ZM45.7859 180.094C45.5273 180.094 45.3058 180.003 45.1211 179.821C44.9364 179.639 44.8455 179.418 44.8484 179.156C44.8455 178.901 44.9364 178.682 45.1211 178.5C45.3058 178.318 45.5273 178.227 45.7859 178.227C46.0359 178.227 46.2532 178.318 46.4379 178.5C46.6254 178.682 46.7205 178.901 46.7234 179.156C46.7205 179.33 46.6751 179.487 46.587 179.629C46.5018 179.771 46.3881 179.885 46.2461 179.97C46.1069 180.053 45.9535 180.094 45.7859 180.094ZM51.2276 180.119C50.6594 180.119 50.1509 180.013 49.7021 179.8C49.2532 179.584 48.8967 179.288 48.6325 178.913C48.3711 178.538 48.2319 178.109 48.2148 177.626H49.7489C49.7773 177.984 49.9322 178.277 50.2134 178.504C50.4947 178.729 50.8327 178.841 51.2276 178.841C51.5373 178.841 51.8129 178.77 52.0543 178.628C52.2958 178.486 52.4862 178.288 52.6254 178.036C52.7646 177.783 52.8327 177.494 52.8299 177.17C52.8327 176.841 52.7631 176.548 52.6211 176.293C52.479 176.037 52.2844 175.837 52.0373 175.692C51.7901 175.544 51.506 175.47 51.185 175.47C50.9237 175.467 50.6665 175.516 50.4137 175.615C50.1609 175.714 49.9606 175.845 49.8129 176.007L48.3853 175.773L48.8413 171.273H53.9038V172.594H50.1495L49.8981 174.908H49.9492C50.1112 174.717 50.3398 174.56 50.6353 174.435C50.9308 174.307 51.2546 174.243 51.6069 174.243C52.1353 174.243 52.6069 174.368 53.0217 174.618C53.4364 174.865 53.7631 175.206 54.0018 175.641C54.2404 176.075 54.3597 176.572 54.3597 177.132C54.3597 177.709 54.2262 178.223 53.9592 178.675C53.695 179.124 53.3271 179.477 52.8555 179.736C52.3867 179.991 51.8441 180.119 51.2276 180.119Z" fill="white"/>
</svg>
