<svg width="200" height="200" viewBox="0 0 200 200" fill="none" xmlns="http://www.w3.org/2000/svg">
<rect width="200" height="200" fill="#F79E29"/>
<path d="M24.6506 24.5455V42H21.4886V27.6222H21.3864L17.304 30.2301V27.3324L21.642 24.5455H24.6506ZM36.1818 24.5455V42H33.0199V27.6222H32.9176L28.8352 30.2301V27.3324L33.1733 24.5455H36.1818Z" fill="white"/>
<path d="M140.261 46.6997H149.127C149.127 46.6997 149.335 46.595 149.335 46.4903C149.335 46.4379 149.335 46.3856 149.283 46.3594L144.876 40.6264L144.824 40.574C144.824 40.574 144.72 40.4955 144.668 40.4955C144.616 40.4955 144.563 40.4955 144.537 40.5478H144.511L144.459 40.6264L140.157 46.3071L140.104 46.3856C140.104 46.3856 140.078 46.4641 140.078 46.5165C140.078 46.6474 140.183 46.7259 140.287 46.7259" fill="white"/>
<path d="M149.1 47.5123H140.209C140.209 47.5123 140 47.617 140 47.7218V54.7114C140 54.7114 140.104 54.9208 140.209 54.9208H143.077V50.5228C143.077 50.5228 143.181 50.3134 143.286 50.3134H145.945C145.945 50.3134 146.154 50.4181 146.154 50.5228V54.9208H149.1C149.1 54.9208 149.309 54.8161 149.309 54.7114V47.7218C149.309 47.7218 149.205 47.5123 149.1 47.5123Z" fill="white"/>
<path d="M179.791 45.6805H171.004C171.004 45.6805 170.795 45.759 170.795 45.8899V54.7906C170.795 54.7906 170.9 55 171.004 55H179.791C179.791 55 180 54.8953 180 54.7906V45.8899C180 45.8899 179.896 45.6805 179.791 45.6805ZM174.968 51.4921C174.968 51.4921 174.863 51.7015 174.759 51.7015H172.125C172.125 51.7015 171.917 51.5968 171.917 51.4921V49.8952C171.917 49.8952 172.021 49.6858 172.125 49.6858H174.759C174.759 49.6858 174.968 49.7905 174.968 49.8952V51.4921ZM174.968 48.5339C174.968 48.5339 174.863 48.7434 174.759 48.7434H172.125C172.125 48.7434 171.917 48.6387 171.917 48.5339V46.9371C171.917 46.9371 172.021 46.7276 172.125 46.7276H174.759C174.759 46.7276 174.968 46.8324 174.968 46.9371V48.5339ZM178.983 51.4921C178.983 51.4921 178.879 51.7015 178.775 51.7015H176.141C176.141 51.7015 175.932 51.5968 175.932 51.4921V49.8952C175.932 49.8952 176.037 49.6858 176.141 49.6858H178.775C178.775 49.6858 178.983 49.7905 178.983 49.8952V51.4921ZM178.983 48.5339C178.983 48.5339 178.879 48.7434 178.775 48.7434H176.141C176.141 48.7434 175.932 48.6387 175.932 48.5339V46.9371C175.932 46.9371 176.037 46.7276 176.141 46.7276H178.775C178.775 46.7276 178.983 46.8324 178.983 46.9371V48.5339Z" fill="white"/>
<path d="M159.348 25H150.743C150.743 25 150.534 25.1047 150.534 25.2094V54.7385C150.534 54.7385 150.639 54.948 150.743 54.948H159.348C159.348 54.948 159.557 54.8432 159.557 54.7385V25.2094C159.557 25.2094 159.452 25 159.348 25ZM154.237 51.571C154.237 51.571 154.185 51.6757 154.133 51.6757H152.151C152.151 51.6757 152.047 51.6233 152.047 51.571V49.372C152.047 49.372 152.099 49.2673 152.151 49.2673H154.133C154.133 49.2673 154.237 49.3196 154.237 49.372V51.571ZM154.237 46.5185C154.237 46.5185 154.185 46.6233 154.133 46.6233H152.151C152.151 46.6233 152.047 46.5709 152.047 46.5185V44.3196C152.047 44.3196 152.099 44.2149 152.151 44.2149H154.133C154.133 44.2149 154.237 44.2672 154.237 44.3196V46.5185ZM154.237 41.4661C154.237 41.4661 154.185 41.5709 154.133 41.5709H152.151C152.151 41.5709 152.047 41.5185 152.047 41.4661V39.2672C152.047 39.2672 152.099 39.1625 152.151 39.1625H154.133C154.133 39.1625 154.237 39.2148 154.237 39.2672V41.4661ZM154.237 36.4137C154.237 36.4137 154.185 36.5184 154.133 36.5184H152.151C152.151 36.5184 152.047 36.4661 152.047 36.4137V34.2148C152.047 34.2148 152.099 34.11 152.151 34.11H154.133C154.133 34.11 154.237 34.1624 154.237 34.2148V36.4137ZM154.237 31.3613C154.237 31.3613 154.185 31.466 154.133 31.466H152.151C152.151 31.466 152.047 31.4137 152.047 31.3613V29.1623C152.047 29.1623 152.099 29.0576 152.151 29.0576H154.133C154.133 29.0576 154.237 29.11 154.237 29.1623V31.3613ZM158.096 51.5971C158.096 51.5971 158.044 51.7019 157.992 51.7019H156.01C156.01 51.7019 155.906 51.6495 155.906 51.5971V49.3982C155.906 49.3982 155.958 49.2935 156.01 49.2935H157.992C157.992 49.2935 158.096 49.3458 158.096 49.3982V51.5971ZM158.096 46.5447C158.096 46.5447 158.044 46.6494 157.992 46.6494H156.01C156.01 46.6494 155.906 46.5971 155.906 46.5447V44.3458C155.906 44.3458 155.958 44.241 156.01 44.241H157.992C157.992 44.241 158.096 44.2934 158.096 44.3458V46.5447ZM158.096 41.4923C158.096 41.4923 158.044 41.597 157.992 41.597H156.01C156.01 41.597 155.906 41.5447 155.906 41.4923V39.2933C155.906 39.2933 155.958 39.1886 156.01 39.1886H157.992C157.992 39.1886 158.096 39.241 158.096 39.2933V41.4923ZM158.096 36.4399C158.096 36.4399 158.044 36.5446 157.992 36.5446H156.01C156.01 36.5446 155.906 36.4923 155.906 36.4399V34.2409C155.906 34.2409 155.958 34.1362 156.01 34.1362H157.992C157.992 34.1362 158.096 34.1886 158.096 34.2409V36.4399ZM158.096 31.3875C158.096 31.3875 158.044 31.4922 157.992 31.4922H156.01C156.01 31.4922 155.906 31.4399 155.906 31.3875V29.1885C155.906 29.1885 155.958 29.0838 156.01 29.0838H157.992C157.992 29.0838 158.096 29.1362 158.096 29.1885V31.3875Z" fill="white"/>
<path d="M170.978 42.8269H179.818C179.818 42.8269 180 42.9054 180 43.0101V44.7903C180 44.7903 179.922 44.9735 179.818 44.9735H170.952C170.952 44.9735 170.769 44.895 170.769 44.7903V43.0101C170.769 43.0101 170.848 42.8269 170.952 42.8269H170.978Z" fill="white"/>
<path d="M169.752 30.5765C169.752 30.5765 169.648 30.4194 169.544 30.4194C169.491 30.4194 169.465 30.4194 169.413 30.4718L169.335 30.5765L160.887 41.3358V41.3881C160.887 41.3881 160.782 41.4928 160.782 41.5714V54.7914C160.782 54.7914 160.887 55.0008 160.991 55.0008H169.596C169.596 55.0008 169.804 54.8961 169.804 54.7914V30.6812C169.804 30.6812 169.804 30.6288 169.804 30.6027M166.232 36.4404L166.284 36.3619C166.858 35.6027 167.849 34.3985 168.318 33.8226L168.37 33.7441C168.37 33.7441 168.475 33.6655 168.553 33.6655C168.683 33.6655 168.761 33.7441 168.787 33.8488V36.5713C168.787 36.5713 168.683 36.8069 168.553 36.8069H166.441C166.31 36.8069 166.206 36.7022 166.206 36.5713C166.206 36.5189 166.206 36.4666 166.258 36.4404M164.928 51.5191C164.928 51.5191 164.824 51.7285 164.72 51.7285H162.164C162.164 51.7285 161.956 51.6238 161.956 51.5191V49.8961C161.956 49.8961 162.06 49.6866 162.164 49.6866H164.72C164.72 49.6866 164.928 49.7913 164.928 49.8961V51.5191ZM164.928 48.5348C164.928 48.5348 164.824 48.7442 164.72 48.7442H162.164C162.164 48.7442 161.956 48.6395 161.956 48.5348V46.9117C161.956 46.9117 162.06 46.7023 162.164 46.7023H164.72C164.72 46.7023 164.928 46.807 164.928 46.9117V48.5348ZM164.928 45.5505C164.928 45.5505 164.824 45.7599 164.72 45.7599H162.164C162.164 45.7599 161.956 45.6552 161.956 45.5505V43.9274C161.956 43.9274 162.06 43.718 162.164 43.718H164.72C164.72 43.718 164.928 43.8227 164.928 43.9274V45.5505ZM164.928 39.0321V42.5923C164.928 42.5923 164.824 42.8017 164.72 42.8017H162.164C162.164 42.8017 161.956 42.697 161.956 42.5923V42.1735C161.956 42.1735 161.956 42.0949 161.956 42.0687C161.956 42.0687 161.956 42.0687 161.956 42.0426C161.956 42.0426 161.956 42.0426 161.956 42.0164C162.295 41.5452 163.755 39.7127 164.381 38.9535L164.433 38.875C164.433 38.875 164.537 38.7965 164.615 38.7965C164.746 38.7965 164.824 38.875 164.85 38.9797V39.0844L164.928 39.0321ZM168.84 51.5191C168.84 51.5191 168.735 51.7285 168.631 51.7285H166.076C166.076 51.7285 165.867 51.6238 165.867 51.5191V49.8961C165.867 49.8961 165.971 49.6866 166.076 49.6866H168.631C168.631 49.6866 168.84 49.7913 168.84 49.8961V51.5191ZM168.84 48.5348C168.84 48.5348 168.735 48.7442 168.631 48.7442H166.076C166.076 48.7442 165.867 48.6395 165.867 48.5348V46.9117C165.867 46.9117 165.971 46.7023 166.076 46.7023H168.631C168.631 46.7023 168.84 46.807 168.84 46.9117V48.5348ZM168.84 45.5505C168.84 45.5505 168.735 45.7599 168.631 45.7599H166.076C166.076 45.7599 165.867 45.6552 165.867 45.5505V43.9274C165.867 43.9274 165.971 43.718 166.076 43.718H168.631C168.631 43.718 168.84 43.8227 168.84 43.9274V45.5505ZM168.84 42.5661C168.84 42.5661 168.735 42.7756 168.631 42.7756H166.076C166.076 42.7756 165.867 42.6708 165.867 42.5661V40.9431C165.867 40.9431 165.971 40.7337 166.076 40.7337H168.631C168.631 40.7337 168.84 40.8384 168.84 40.9431V42.5661ZM168.84 39.5818C168.84 39.5818 168.735 39.7912 168.631 39.7912H166.076C166.076 39.7912 165.867 39.6865 165.867 39.5818V37.9849C165.867 37.9849 165.971 37.7755 166.076 37.7755H168.631C168.631 37.7755 168.84 37.8802 168.84 37.9849V39.5818Z" fill="white"/>
<path d="M22.5376 87.6172C22.4912 87.183 22.2957 86.8449 21.951 86.603C21.6096 86.361 21.1655 86.2401 20.6186 86.2401C20.2341 86.2401 19.9044 86.2981 19.6293 86.4141C19.3542 86.5301 19.1437 86.6875 18.9979 86.8864C18.852 87.0852 18.7775 87.3123 18.7741 87.5675C18.7741 87.7796 18.8222 87.9635 18.9183 88.1193C19.0178 88.2751 19.152 88.4077 19.321 88.517C19.4901 88.6231 19.6773 88.7126 19.8828 88.7855C20.0883 88.8584 20.2955 88.9197 20.5043 88.9695L21.4588 89.2081C21.8433 89.2976 22.2128 89.4186 22.5675 89.571C22.9254 89.7235 23.2453 89.9157 23.527 90.1477C23.812 90.3797 24.0374 90.6598 24.2031 90.9879C24.3688 91.3161 24.4517 91.7005 24.4517 92.1413C24.4517 92.7379 24.2992 93.2633 23.9943 93.7173C23.6894 94.1681 23.2486 94.5211 22.6719 94.7763C22.0985 95.0282 21.4041 95.1541 20.5888 95.1541C19.7966 95.1541 19.1089 95.0315 18.5256 94.7862C17.9455 94.541 17.4915 94.183 17.1634 93.7124C16.8385 93.2417 16.6629 92.6683 16.6364 91.9922H18.451C18.4775 92.3468 18.5869 92.6418 18.7791 92.8771C18.9714 93.1125 19.2216 93.2881 19.5298 93.4041C19.8414 93.5201 20.1894 93.5781 20.5739 93.5781C20.9749 93.5781 21.3262 93.5185 21.6278 93.3991C21.9328 93.2765 22.1714 93.1075 22.3438 92.892C22.5161 92.6733 22.6039 92.4181 22.6072 92.1264C22.6039 91.8613 22.526 91.6425 22.3736 91.4702C22.2211 91.2945 22.0073 91.1487 21.7322 91.0327C21.4605 90.9134 21.1423 90.8073 20.7777 90.7145L19.6193 90.4162C18.7808 90.2008 18.1179 89.8743 17.6307 89.4368C17.1468 88.996 16.9048 88.411 16.9048 87.6818C16.9048 87.0819 17.0672 86.5566 17.392 86.1058C17.7202 85.6551 18.166 85.3054 18.7294 85.0568C19.2929 84.8049 19.9309 84.679 20.6435 84.679C21.366 84.679 21.9991 84.8049 22.5426 85.0568C23.0895 85.3054 23.5187 85.6518 23.8303 86.0959C24.1418 86.5367 24.3026 87.0438 24.3125 87.6172H22.5376ZM32.5144 84.8182H34.3588V91.4702C34.3588 92.1993 34.1865 92.8407 33.8418 93.3942C33.5004 93.9477 33.0198 94.3802 32.4 94.6918C31.7802 95 31.056 95.1541 30.2275 95.1541C29.3955 95.1541 28.6697 95 28.0499 94.6918C27.4301 94.3802 26.9495 93.9477 26.6081 93.3942C26.2667 92.8407 26.0961 92.1993 26.0961 91.4702V84.8182H27.9405V91.3161C27.9405 91.7403 28.0333 92.1181 28.2189 92.4496C28.4078 92.781 28.673 93.0412 29.0144 93.2301C29.3558 93.4157 29.7601 93.5085 30.2275 93.5085C30.6948 93.5085 31.0991 93.4157 31.4405 93.2301C31.7852 93.0412 32.0504 92.781 32.236 92.4496C32.4216 92.1181 32.5144 91.7403 32.5144 91.3161V84.8182ZM41.897 87.6172C41.8506 87.183 41.6551 86.8449 41.3104 86.603C40.969 86.361 40.5249 86.2401 39.978 86.2401C39.5935 86.2401 39.2637 86.2981 38.9886 86.4141C38.7135 86.5301 38.5031 86.6875 38.3572 86.8864C38.2114 87.0852 38.1368 87.3123 38.1335 87.5675C38.1335 87.7796 38.1816 87.9635 38.2777 88.1193C38.3771 88.2751 38.5114 88.4077 38.6804 88.517C38.8494 88.6231 39.0367 88.7126 39.2422 88.7855C39.4477 88.8584 39.6548 88.9197 39.8636 88.9695L40.8182 89.2081C41.2027 89.2976 41.5722 89.4186 41.9268 89.571C42.2848 89.7235 42.6046 89.9157 42.8864 90.1477C43.1714 90.3797 43.3968 90.6598 43.5625 90.9879C43.7282 91.3161 43.8111 91.7005 43.8111 92.1413C43.8111 92.7379 43.6586 93.2633 43.3537 93.7173C43.0488 94.1681 42.608 94.5211 42.0312 94.7763C41.4579 95.0282 40.7635 95.1541 39.9482 95.1541C39.156 95.1541 38.4683 95.0315 37.8849 94.7862C37.3049 94.541 36.8509 94.183 36.5227 93.7124C36.1979 93.2417 36.0223 92.6683 35.9957 91.9922H37.8104C37.8369 92.3468 37.9463 92.6418 38.1385 92.8771C38.3307 93.1125 38.581 93.2881 38.8892 93.4041C39.2008 93.5201 39.5488 93.5781 39.9332 93.5781C40.3343 93.5781 40.6856 93.5185 40.9872 93.3991C41.2921 93.2765 41.5308 93.1075 41.7031 92.892C41.8755 92.6733 41.9633 92.4181 41.9666 92.1264C41.9633 91.8613 41.8854 91.6425 41.733 91.4702C41.5805 91.2945 41.3667 91.1487 41.0916 91.0327C40.8198 90.9134 40.5017 90.8073 40.1371 90.7145L38.9787 90.4162C38.1402 90.2008 37.4773 89.8743 36.9901 89.4368C36.5062 88.996 36.2642 88.411 36.2642 87.6818C36.2642 87.0819 36.4266 86.5566 36.7514 86.1058C37.0795 85.6551 37.5253 85.3054 38.0888 85.0568C38.6522 84.8049 39.2902 84.679 40.0028 84.679C40.7254 84.679 41.3584 84.8049 41.902 85.0568C42.4489 85.3054 42.8781 85.6518 43.1896 86.0959C43.5012 86.5367 43.6619 87.0438 43.6719 87.6172H41.897ZM45.008 86.3643V84.8182H53.1316V86.3643H49.9846V95H48.155V86.3643H45.008ZM54.7747 95H52.8059L56.3904 84.8182H58.6674L62.2569 95H60.2882L57.5687 86.9062H57.4892L54.7747 95ZM54.8393 91.0078H60.2086V92.4893H54.8393V91.0078ZM65.4425 84.8182V95H63.598V84.8182H65.4425ZM75.807 84.8182V95H74.1664L69.3688 88.0646H69.2843V95H67.4398V84.8182H69.0904L73.883 91.7585H73.9725V84.8182H75.807ZM79.1243 95H77.1555L80.7401 84.8182H83.017L86.6065 95H84.6378L81.9183 86.9062H81.8388L79.1243 95ZM79.1889 91.0078H84.5582V92.4893H79.1889V91.0078ZM87.9476 95V84.8182H91.8453C92.5811 84.8182 93.1926 84.9342 93.6799 85.1662C94.1704 85.3949 94.5366 85.7081 94.7786 86.1058C95.0239 86.5036 95.1465 86.9543 95.1465 87.4581C95.1465 87.8724 95.0669 88.227 94.9078 88.522C94.7488 88.8137 94.535 89.0507 94.2665 89.233C93.998 89.4152 93.6981 89.5462 93.3667 89.6257V89.7251C93.7279 89.745 94.0743 89.8561 94.4057 90.0582C94.7405 90.2571 95.0139 90.5388 95.226 90.9034C95.4382 91.268 95.5442 91.7088 95.5442 92.2259C95.5442 92.7528 95.4166 93.2268 95.1614 93.6477C94.9062 94.0653 94.5217 94.3951 94.008 94.6371C93.4943 94.879 92.848 95 92.0691 95H87.9476ZM89.7921 93.4588H91.7757C92.4453 93.4588 92.9275 93.3312 93.2225 93.076C93.5208 92.8175 93.6699 92.486 93.6699 92.0817C93.6699 91.7801 93.5953 91.5083 93.4462 91.2663C93.2971 91.0211 93.0849 90.8288 92.8098 90.6896C92.5347 90.5471 92.2066 90.4759 91.8255 90.4759H89.7921V93.4588ZM89.7921 89.1484H91.6167C91.9348 89.1484 92.2215 89.0904 92.4767 88.9744C92.7319 88.8551 92.9325 88.6877 93.0783 88.4723C93.2275 88.2536 93.302 87.995 93.302 87.6967C93.302 87.3023 93.1628 86.9775 92.8844 86.7223C92.6093 86.4671 92.2 86.3395 91.6564 86.3395H89.7921V89.1484ZM97.1488 95V84.8182H98.9933V93.4538H103.478V95H97.1488ZM105.078 95V84.8182H111.701V86.3643H106.923V89.1286H111.358V90.6747H106.923V93.4538H111.74V95H105.078ZM125.77 88.2536H123.911C123.858 87.9486 123.76 87.6785 123.618 87.4432C123.475 87.2045 123.298 87.0024 123.086 86.8366C122.873 86.6709 122.632 86.5466 122.36 86.4638C122.091 86.3776 121.801 86.3345 121.49 86.3345C120.936 86.3345 120.446 86.4737 120.018 86.7521C119.591 87.0272 119.256 87.4316 119.014 87.9652C118.772 88.4955 118.651 89.1435 118.651 89.9091C118.651 90.688 118.772 91.3442 119.014 91.8778C119.259 92.4081 119.594 92.8092 120.018 93.081C120.446 93.3494 120.935 93.4837 121.485 93.4837C121.79 93.4837 122.075 93.4439 122.34 93.3643C122.608 93.2815 122.849 93.1605 123.061 93.0014C123.276 92.8423 123.457 92.6468 123.603 92.4148C123.752 92.1828 123.855 91.9176 123.911 91.6193L125.77 91.6293C125.701 92.1132 125.55 92.5672 125.318 92.9915C125.089 93.4157 124.789 93.7902 124.418 94.1151C124.047 94.4366 123.613 94.6884 123.115 94.8707C122.618 95.0497 122.066 95.1392 121.46 95.1392C120.565 95.1392 119.766 94.9321 119.064 94.5178C118.361 94.1035 117.807 93.5052 117.403 92.723C116.999 91.9408 116.797 91.0028 116.797 89.9091C116.797 88.812 117 87.8741 117.408 87.0952C117.816 86.313 118.371 85.7147 119.074 85.3004C119.776 84.8861 120.572 84.679 121.46 84.679C122.027 84.679 122.554 84.7585 123.041 84.9176C123.528 85.0767 123.962 85.3104 124.343 85.6186C124.725 85.9235 125.038 86.2981 125.283 86.7422C125.532 87.183 125.694 87.6868 125.77 88.2536ZM129.304 84.8182V95H127.459V84.8182H129.304ZM130.854 86.3643V84.8182H138.977V86.3643H135.83V95H134.001V86.3643H130.854ZM142.388 84.8182V95H140.543V84.8182H142.388ZM144.385 95V84.8182H151.007V86.3643H146.23V89.1286H150.664V90.6747H146.23V93.4538H151.047V95H144.385ZM158.422 87.6172C158.376 87.183 158.18 86.8449 157.836 86.603C157.494 86.361 157.05 86.2401 156.503 86.2401C156.119 86.2401 155.789 86.2981 155.514 86.4141C155.239 86.5301 155.028 86.6875 154.883 86.8864C154.737 87.0852 154.662 87.3123 154.659 87.5675C154.659 87.7796 154.707 87.9635 154.803 88.1193C154.903 88.2751 155.037 88.4077 155.206 88.517C155.375 88.6231 155.562 88.7126 155.768 88.7855C155.973 88.8584 156.18 88.9197 156.389 88.9695L157.344 89.2081C157.728 89.2976 158.098 89.4186 158.452 89.571C158.81 89.7235 159.13 89.9157 159.412 90.1477C159.697 90.3797 159.922 90.6598 160.088 90.9879C160.254 91.3161 160.336 91.7005 160.336 92.1413C160.336 92.7379 160.184 93.2633 159.879 93.7173C159.574 94.1681 159.133 94.5211 158.557 94.7763C157.983 95.0282 157.289 95.1541 156.474 95.1541C155.681 95.1541 154.994 95.0315 154.41 94.7862C153.83 94.541 153.376 94.183 153.048 93.7124C152.723 93.2417 152.548 92.6683 152.521 91.9922H154.336C154.362 92.3468 154.472 92.6418 154.664 92.8771C154.856 93.1125 155.106 93.2881 155.415 93.4041C155.726 93.5201 156.074 93.5781 156.459 93.5781C156.86 93.5781 157.211 93.5185 157.513 93.3991C157.818 93.2765 158.056 93.1075 158.229 92.892C158.401 92.6733 158.489 92.4181 158.492 92.1264C158.489 91.8613 158.411 91.6425 158.258 91.4702C158.106 91.2945 157.892 91.1487 157.617 91.0327C157.345 90.9134 157.027 90.8073 156.662 90.7145L155.504 90.4162C154.666 90.2008 154.003 89.8743 153.515 89.4368C153.032 88.996 152.79 88.411 152.79 87.6818C152.79 87.0819 152.952 86.5566 153.277 86.1058C153.605 85.6551 154.051 85.3054 154.614 85.0568C155.178 84.8049 155.816 84.679 156.528 84.679C157.251 84.679 157.884 84.8049 158.427 85.0568C158.974 85.3054 159.403 85.6518 159.715 86.0959C160.027 86.5367 160.187 87.0438 160.197 87.6172H158.422ZM18.3118 115H16.343L19.9276 104.818H22.2045L25.794 115H23.8253L21.1058 106.906H21.0263L18.3118 115ZM18.3764 111.008H23.7457V112.489H18.3764V111.008ZM35.5023 104.818V115H33.8617L29.0641 108.065H28.9796V115H27.1351V104.818H28.7857L33.5783 111.759H33.6678V104.818H35.5023ZM40.9624 115H37.5121V104.818H41.032C42.0429 104.818 42.9112 105.022 43.6371 105.43C44.3662 105.834 44.9264 106.416 45.3175 107.175C45.7086 107.934 45.9041 108.842 45.9041 109.899C45.9041 110.96 45.7069 111.871 45.3125 112.634C44.9214 113.396 44.3563 113.981 43.6172 114.388C42.8814 114.796 41.9964 115 40.9624 115ZM39.3565 113.404H40.8729C41.5821 113.404 42.1738 113.275 42.6477 113.016C43.1217 112.754 43.478 112.365 43.7166 111.848C43.9553 111.328 44.0746 110.678 44.0746 109.899C44.0746 109.12 43.9553 108.474 43.7166 107.96C43.478 107.443 43.125 107.057 42.6577 106.802C42.1937 106.543 41.617 106.414 40.9276 106.414H39.3565V113.404ZM59.8445 108.254H57.9851C57.9321 107.949 57.8343 107.679 57.6918 107.443C57.5492 107.205 57.3719 107.002 57.1598 106.837C56.9477 106.671 56.7057 106.547 56.4339 106.464C56.1655 106.378 55.8755 106.335 55.5639 106.335C55.0104 106.335 54.5199 106.474 54.0923 106.752C53.6648 107.027 53.33 107.432 53.0881 107.965C52.8461 108.496 52.7251 109.143 52.7251 109.909C52.7251 110.688 52.8461 111.344 53.0881 111.878C53.3333 112.408 53.6681 112.809 54.0923 113.081C54.5199 113.349 55.0088 113.484 55.5589 113.484C55.8639 113.484 56.1489 113.444 56.4141 113.364C56.6825 113.281 56.9228 113.161 57.1349 113.001C57.3504 112.842 57.531 112.647 57.6768 112.415C57.826 112.183 57.9287 111.918 57.9851 111.619L59.8445 111.629C59.7749 112.113 59.6241 112.567 59.392 112.991C59.1634 113.416 58.8634 113.79 58.4922 114.115C58.121 114.437 57.6868 114.688 57.1896 114.871C56.6925 115.05 56.1406 115.139 55.5341 115.139C54.6392 115.139 53.8404 114.932 53.1378 114.518C52.4351 114.103 51.8816 113.505 51.4773 112.723C51.0729 111.941 50.8707 111.003 50.8707 109.909C50.8707 108.812 51.0746 107.874 51.4822 107.095C51.8899 106.313 52.4451 105.715 53.1477 105.3C53.8504 104.886 54.6458 104.679 55.5341 104.679C56.1009 104.679 56.6278 104.759 57.1151 104.918C57.6023 105.077 58.0365 105.31 58.4176 105.619C58.7988 105.924 59.112 106.298 59.3572 106.742C59.6058 107.183 59.7682 107.687 59.8445 108.254ZM70.6316 109.909C70.6316 111.006 70.4261 111.946 70.0151 112.728C69.6074 113.507 69.0506 114.103 68.3446 114.518C67.642 114.932 66.8449 115.139 65.9533 115.139C65.0617 115.139 64.263 114.932 63.557 114.518C62.8543 114.1 62.2975 113.502 61.8865 112.723C61.4789 111.941 61.275 111.003 61.275 109.909C61.275 108.812 61.4789 107.874 61.8865 107.095C62.2975 106.313 62.8543 105.715 63.557 105.3C64.263 104.886 65.0617 104.679 65.9533 104.679C66.8449 104.679 67.642 104.886 68.3446 105.3C69.0506 105.715 69.6074 106.313 70.0151 107.095C70.4261 107.874 70.6316 108.812 70.6316 109.909ZM68.7772 109.909C68.7772 109.137 68.6562 108.486 68.4142 107.955C68.1756 107.422 67.8442 107.019 67.4199 106.747C66.9957 106.472 66.5068 106.335 65.9533 106.335C65.3998 106.335 64.9109 106.472 64.4867 106.747C64.0624 107.019 63.7293 107.422 63.4874 107.955C63.2488 108.486 63.1294 109.137 63.1294 109.909C63.1294 110.681 63.2488 111.334 63.4874 111.868C63.7293 112.398 64.0624 112.801 64.4867 113.076C64.9109 113.348 65.3998 113.484 65.9533 113.484C66.5068 113.484 66.9957 113.348 67.4199 113.076C67.8442 112.801 68.1756 112.398 68.4142 111.868C68.6562 111.334 68.7772 110.681 68.7772 109.909ZM72.3754 104.818H74.6325L77.6552 112.196H77.7745L80.7972 104.818H83.0543V115H81.2844V108.005H81.19L78.3761 114.97H77.0536L74.2397 107.99H74.1452V115H72.3754V104.818ZM85.0629 104.818H87.32L90.3427 112.196H90.462L93.4847 104.818H95.7418V115H93.9719V108.005H93.8775L91.0636 114.97H89.7411L86.9272 107.99H86.8327V115H85.0629V104.818ZM104.169 104.818H106.013V111.47C106.013 112.199 105.841 112.841 105.496 113.394C105.155 113.948 104.674 114.38 104.054 114.692C103.435 115 102.71 115.154 101.882 115.154C101.05 115.154 100.324 115 99.7042 114.692C99.0844 114.38 98.6038 113.948 98.2624 113.394C97.921 112.841 97.7504 112.199 97.7504 111.47V104.818H99.5948V111.316C99.5948 111.74 99.6876 112.118 99.8732 112.45C100.062 112.781 100.327 113.041 100.669 113.23C101.01 113.416 101.414 113.509 101.882 113.509C102.349 113.509 102.753 113.416 103.095 113.23C103.44 113.041 103.705 112.781 103.89 112.45C104.076 112.118 104.169 111.74 104.169 111.316V104.818ZM116.385 104.818V115H114.744L109.947 108.065H109.862V115H108.018V104.818H109.669L114.461 111.759H114.551V104.818H116.385ZM120.239 104.818V115H118.395V104.818H120.239ZM121.789 106.364V104.818H129.913V106.364H126.766V115H124.936V106.364H121.789ZM133.323 104.818V115H131.479V104.818H133.323ZM135.321 115V104.818H141.943V106.364H137.165V109.129H141.6V110.675H137.165V113.454H141.983V115H135.321ZM149.358 107.617C149.312 107.183 149.116 106.845 148.771 106.603C148.43 106.361 147.986 106.24 147.439 106.24C147.054 106.24 146.725 106.298 146.45 106.414C146.174 106.53 145.964 106.687 145.818 106.886C145.672 107.085 145.598 107.312 145.594 107.567C145.594 107.78 145.643 107.964 145.739 108.119C145.838 108.275 145.972 108.408 146.141 108.517C146.31 108.623 146.498 108.713 146.703 108.786C146.909 108.858 147.116 108.92 147.325 108.969L148.279 109.208C148.664 109.298 149.033 109.419 149.388 109.571C149.746 109.723 150.066 109.916 150.347 110.148C150.632 110.38 150.858 110.66 151.023 110.988C151.189 111.316 151.272 111.701 151.272 112.141C151.272 112.738 151.12 113.263 150.815 113.717C150.51 114.168 150.069 114.521 149.492 114.776C148.919 115.028 148.224 115.154 147.409 115.154C146.617 115.154 145.929 115.031 145.346 114.786C144.766 114.541 144.312 114.183 143.984 113.712C143.659 113.242 143.483 112.668 143.457 111.992H145.271C145.298 112.347 145.407 112.642 145.599 112.877C145.792 113.112 146.042 113.288 146.35 113.404C146.662 113.52 147.01 113.578 147.394 113.578C147.795 113.578 148.147 113.518 148.448 113.399C148.753 113.277 148.992 113.107 149.164 112.892C149.336 112.673 149.424 112.418 149.428 112.126C149.424 111.861 149.346 111.643 149.194 111.47C149.041 111.295 148.828 111.149 148.553 111.033C148.281 110.913 147.963 110.807 147.598 110.714L146.44 110.416C145.601 110.201 144.938 109.874 144.451 109.437C143.967 108.996 143.725 108.411 143.725 107.682C143.725 107.082 143.888 106.557 144.212 106.106C144.54 105.655 144.986 105.305 145.55 105.057C146.113 104.805 146.751 104.679 147.464 104.679C148.186 104.679 148.819 104.805 149.363 105.057C149.91 105.305 150.339 105.652 150.651 106.096C150.962 106.537 151.123 107.044 151.133 107.617H149.358Z" fill="white"/>
<path d="M20.3253 171.273V180H18.7443V172.811H18.6932L16.652 174.115V172.666L18.821 171.273H20.3253ZM23.0281 180.094C22.7695 180.094 22.5479 180.003 22.3633 179.821C22.1786 179.639 22.0877 179.418 22.0906 179.156C22.0877 178.901 22.1786 178.682 22.3633 178.5C22.5479 178.318 22.7695 178.227 23.0281 178.227C23.2781 178.227 23.4954 178.318 23.68 178.5C23.8675 178.682 23.9627 178.901 23.9656 179.156C23.9627 179.33 23.9173 179.487 23.8292 179.629C23.744 179.771 23.6303 179.885 23.4883 179.97C23.3491 180.053 23.1957 180.094 23.0281 180.094ZM25.3835 178.381V177.124L29.0866 171.273H30.1349V173.062H29.4957L27.0028 177.013V177.081H32.1719V178.381H25.3835ZM29.5469 180V177.997L29.5639 177.435V171.273H31.0554V180H29.5469ZM35.1154 178.807L35.06 179.276C35.0202 179.634 34.9492 179.997 34.8469 180.366C34.7475 180.739 34.6424 181.081 34.5316 181.393C34.4208 181.706 34.3313 181.952 34.2631 182.131H33.2234C33.2631 181.957 33.3171 181.722 33.3853 181.423C33.4563 181.125 33.5245 180.79 33.5898 180.418C33.6552 180.045 33.6992 179.668 33.7219 179.284L33.7518 178.807H35.1154ZM43.0831 171.273V180H41.5021V172.811H41.451L39.4098 174.115V172.666L41.5788 171.273H43.0831ZM45.7859 180.094C45.5273 180.094 45.3058 180.003 45.1211 179.821C44.9364 179.639 44.8455 179.418 44.8484 179.156C44.8455 178.901 44.9364 178.682 45.1211 178.5C45.3058 178.318 45.5273 178.227 45.7859 178.227C46.0359 178.227 46.2532 178.318 46.4379 178.5C46.6254 178.682 46.7205 178.901 46.7234 179.156C46.7205 179.33 46.6751 179.487 46.587 179.629C46.5018 179.771 46.3881 179.885 46.2461 179.97C46.1069 180.053 45.9535 180.094 45.7859 180.094ZM51.2276 180.119C50.6594 180.119 50.1509 180.013 49.7021 179.8C49.2532 179.584 48.8967 179.288 48.6325 178.913C48.3711 178.538 48.2319 178.109 48.2148 177.626H49.7489C49.7773 177.984 49.9322 178.277 50.2134 178.504C50.4947 178.729 50.8327 178.841 51.2276 178.841C51.5373 178.841 51.8129 178.77 52.0543 178.628C52.2958 178.486 52.4862 178.288 52.6254 178.036C52.7646 177.783 52.8327 177.494 52.8299 177.17C52.8327 176.841 52.7631 176.548 52.6211 176.293C52.479 176.037 52.2844 175.837 52.0373 175.692C51.7901 175.544 51.506 175.47 51.185 175.47C50.9237 175.467 50.6665 175.516 50.4137 175.615C50.1609 175.714 49.9606 175.845 49.8129 176.007L48.3853 175.773L48.8413 171.273H53.9038V172.594H50.1495L49.8981 174.908H49.9492C50.1112 174.717 50.3398 174.56 50.6353 174.435C50.9308 174.307 51.2546 174.243 51.6069 174.243C52.1353 174.243 52.6069 174.368 53.0217 174.618C53.4364 174.865 53.7631 175.206 54.0018 175.641C54.2404 176.075 54.3597 176.572 54.3597 177.132C54.3597 177.709 54.2262 178.223 53.9592 178.675C53.695 179.124 53.3271 179.477 52.8555 179.736C52.3867 179.991 51.8441 180.119 51.2276 180.119Z" fill="white"/>
</svg>
