<svg width="200" height="200" viewBox="0 0 200 200" fill="none" xmlns="http://www.w3.org/2000/svg">
<rect width="200" height="200" fill="#18476B"/>
<path d="M24.6506 24.5455V42H21.4886V27.6222H21.3864L17.304 30.2301V27.3324L21.642 24.5455H24.6506ZM29.7216 42L37.1449 27.3068V27.1875H28.5284V24.5455H40.4176V27.2472L33.0028 42H29.7216Z" fill="white"/>
<path d="M175 39.15C175 34.8167 171.625 31.2667 167.418 31.1167C166.342 28 163.424 25.75 160 25.75C156.576 25.75 153.674 28 152.582 31.1167C148.375 31.2833 145 34.8167 145 39.15C145 41.7167 146.19 44.0167 148.033 45.4833C147.837 46.2 147.723 46.95 147.723 47.7167C147.723 52.15 151.245 55.75 155.582 55.75C157.228 55.75 158.761 55.2333 160.016 54.3333C161.272 55.1833 162.772 55.6833 164.386 55.6833C168.723 55.6833 172.245 52.0833 172.245 47.65C172.245 46.8833 172.147 46.15 171.951 45.4667C173.793 44 174.967 41.7 174.967 39.1333M166.261 33.7667C166.261 36.9833 163.929 39.65 160.897 40.1167C160.848 39.8 160.815 39.4667 160.815 39.1333C160.815 35.9167 163.147 33.25 166.163 32.7833C166.212 33.1 166.245 33.4333 166.245 33.7667M160 52.2333C158.826 51.0667 158.092 49.4333 158.092 47.6333C158.092 45.8333 158.81 44.25 159.951 43.0833C161.125 44.25 161.859 45.8833 161.859 47.6833C161.859 49.4833 161.158 51.0667 160.016 52.2333M153.788 32.7667C156.804 33.2333 159.136 35.9 159.136 39.1167C159.136 39.45 159.103 39.7833 159.054 40.1C156.022 39.65 153.69 36.9833 153.69 33.75C153.69 33.4167 153.723 33.0833 153.772 32.7667M158.451 41.9833C157.424 44.0833 155.288 45.5333 152.842 45.5333C151.799 45.5333 150.821 45.2667 149.957 44.8167C150.984 42.7167 153.12 41.2667 155.565 41.2667C156.609 41.2667 157.587 41.5333 158.451 41.9833ZM161.467 41.9333C162.332 41.4667 163.326 41.2 164.37 41.2C166.832 41.2 168.967 42.6667 169.995 44.8C169.13 45.2667 168.136 45.5333 167.092 45.5333C164.63 45.5333 162.495 44.0667 161.467 41.9333ZM159.967 27.3333C162.543 27.3333 164.761 28.9333 165.723 31.2C163.163 31.6667 161.027 33.3833 159.967 35.7167C158.908 33.3833 156.772 31.6667 154.212 31.2C155.19 28.9333 157.391 27.3333 159.967 27.3333ZM146.565 39.1167C146.565 35.8 149.027 33.0833 152.174 32.7333C152.141 33.0667 152.109 33.4167 152.109 33.7667C152.109 36.1167 153.103 38.2333 154.685 39.7C152.076 40 149.842 41.6167 148.652 43.8833C147.38 42.7 146.565 41.0167 146.565 39.1167ZM149.288 47.6833C149.288 47.2333 149.337 46.7833 149.418 46.35C150.446 46.8667 151.62 47.15 152.842 47.15C154.212 47.15 155.516 46.7833 156.641 46.15C156.56 46.6333 156.511 47.1167 156.511 47.6333C156.511 49.8 157.359 51.7833 158.728 53.2333C157.799 53.7833 156.723 54.1167 155.565 54.1167C152.109 54.1167 149.288 51.2333 149.288 47.7M170.663 47.65C170.663 51.1833 167.842 54.0667 164.386 54.0667C163.261 54.0667 162.201 53.7667 161.288 53.2167C162.625 51.7667 163.44 49.8333 163.44 47.6833C163.44 47.15 163.391 46.65 163.293 46.15C164.418 46.7833 165.723 47.15 167.109 47.15C168.348 47.15 169.505 46.8667 170.533 46.35C170.614 46.7667 170.663 47.2 170.663 47.6333M165.332 39.65C166.88 38.1833 167.859 36.0833 167.859 33.75C167.859 33.4 167.842 33.0667 167.793 32.7167C170.94 33.0667 173.402 35.8 173.402 39.1C173.402 40.9833 172.603 42.6667 171.332 43.85C170.141 41.5833 167.924 39.9667 165.332 39.6333" fill="white"/>
<path d="M17.0043 95V84.8182H20.8224C21.6046 84.8182 22.2609 84.964 22.7912 85.2557C23.3248 85.5473 23.7275 85.9484 23.9993 86.4588C24.2744 86.9659 24.4119 87.5426 24.4119 88.1889C24.4119 88.8419 24.2744 89.4219 23.9993 89.929C23.7242 90.4361 23.3182 90.8355 22.7812 91.1271C22.2443 91.4155 21.5831 91.5597 20.7976 91.5597H18.267V90.0433H20.549C21.0064 90.0433 21.3809 89.9638 21.6726 89.8047C21.9643 89.6456 22.1797 89.4268 22.3189 89.1484C22.4614 88.87 22.5327 88.5502 22.5327 88.1889C22.5327 87.8277 22.4614 87.5095 22.3189 87.2344C22.1797 86.9593 21.9626 86.7455 21.6676 86.593C21.3759 86.4373 20.9998 86.3594 20.5391 86.3594H18.8487V95H17.0043ZM26.1868 95H24.218L27.8026 84.8182H30.0795L33.669 95H31.7003L28.9808 86.9062H28.9013L26.1868 95ZM26.2514 91.0078H31.6207V92.4893H26.2514V91.0078ZM35.0101 95V84.8182H38.8283C39.6105 84.8182 40.2667 84.9541 40.7971 85.2259C41.3307 85.4976 41.7334 85.8788 42.0051 86.3693C42.2802 86.8565 42.4178 87.425 42.4178 88.0746C42.4178 88.7275 42.2786 89.2943 42.0002 89.7749C41.7251 90.2521 41.3191 90.6217 40.7821 90.8835C40.2452 91.142 39.5856 91.2713 38.8034 91.2713H36.084V89.7401H38.5549C39.0123 89.7401 39.3868 89.6771 39.6784 89.5511C39.9701 89.4219 40.1855 89.2346 40.3248 88.9893C40.4673 88.7408 40.5385 88.4358 40.5385 88.0746C40.5385 87.7133 40.4673 87.4051 40.3248 87.1499C40.1822 86.8913 39.9651 86.6958 39.6735 86.5632C39.3818 86.4273 39.0056 86.3594 38.5449 86.3594H36.8546V95H35.0101ZM40.2701 90.3864L42.7907 95H40.7324L38.2566 90.3864H40.2701ZM43.6681 86.3643V84.8182H51.7917V86.3643H48.6447V95H46.8152V86.3643H43.6681ZM61.725 84.8182V95H60.0843L55.2868 88.0646H55.2022V95H53.3578V84.8182H55.0083L59.801 91.7585H59.8904V84.8182H61.725ZM63.7347 95V84.8182H70.3569V86.3643H65.5792V89.1286H70.0138V90.6747H65.5792V93.4538H70.3967V95H63.7347ZM72.2386 95V84.8182H76.0568C76.839 84.8182 77.4953 84.9541 78.0256 85.2259C78.5592 85.4976 78.9619 85.8788 79.2337 86.3693C79.5088 86.8565 79.6463 87.425 79.6463 88.0746C79.6463 88.7275 79.5071 89.2943 79.2287 89.7749C78.9536 90.2521 78.5476 90.6217 78.0107 90.8835C77.4737 91.142 76.8142 91.2713 76.032 91.2713H73.3125V89.7401H75.7834C76.2408 89.7401 76.6153 89.6771 76.907 89.5511C77.1986 89.4219 77.4141 89.2346 77.5533 88.9893C77.6958 88.7408 77.767 88.4358 77.767 88.0746C77.767 87.7133 77.6958 87.4051 77.5533 87.1499C77.4107 86.8913 77.1937 86.6958 76.902 86.5632C76.6103 86.4273 76.2341 86.3594 75.7734 86.3594H74.0831V95H72.2386ZM77.4986 90.3864L80.0192 95H77.9609L75.4851 90.3864H77.4986ZM86.8775 87.6172C86.8311 87.183 86.6355 86.8449 86.2908 86.603C85.9495 86.361 85.5053 86.2401 84.9585 86.2401C84.574 86.2401 84.2442 86.2981 83.9691 86.4141C83.694 86.5301 83.4835 86.6875 83.3377 86.8864C83.1919 87.0852 83.1173 87.3123 83.114 87.5675C83.114 87.7796 83.1621 87.9635 83.2582 88.1193C83.3576 88.2751 83.4918 88.4077 83.6609 88.517C83.8299 88.6231 84.0172 88.7126 84.2227 88.7855C84.4281 88.8584 84.6353 88.9197 84.8441 88.9695L85.7987 89.2081C86.1831 89.2976 86.5527 89.4186 86.9073 89.571C87.2653 89.7235 87.5851 89.9157 87.8668 90.1477C88.1519 90.3797 88.3772 90.6598 88.543 90.9879C88.7087 91.3161 88.7915 91.7005 88.7915 92.1413C88.7915 92.7379 88.6391 93.2633 88.3342 93.7173C88.0292 94.1681 87.5884 94.5211 87.0117 94.7763C86.4383 95.0282 85.744 95.1541 84.9286 95.1541C84.1365 95.1541 83.4487 95.0315 82.8654 94.7862C82.2854 94.541 81.8313 94.183 81.5032 93.7124C81.1784 93.2417 81.0027 92.6683 80.9762 91.9922H82.7908C82.8174 92.3468 82.9267 92.6418 83.119 92.8771C83.3112 93.1125 83.5614 93.2881 83.8697 93.4041C84.1812 93.5201 84.5292 93.5781 84.9137 93.5781C85.3147 93.5781 85.6661 93.5185 85.9677 93.3991C86.2726 93.2765 86.5112 93.1075 86.6836 92.892C86.8559 92.6733 86.9438 92.4181 86.9471 92.1264C86.9438 91.8613 86.8659 91.6425 86.7134 91.4702C86.561 91.2945 86.3472 91.1487 86.0721 91.0327C85.8003 90.9134 85.4821 90.8073 85.1175 90.7145L83.9592 90.4162C83.1206 90.2008 82.4577 89.8743 81.9705 89.4368C81.4866 88.996 81.2447 88.411 81.2447 87.6818C81.2447 87.0819 81.4071 86.5566 81.7319 86.1058C82.06 85.6551 82.5058 85.3054 83.0692 85.0568C83.6327 84.8049 84.2707 84.679 84.9833 84.679C85.7058 84.679 86.3389 84.8049 86.8825 85.0568C87.4293 85.3054 87.8585 85.6518 88.1701 86.0959C88.4817 86.5367 88.6424 87.0438 88.6523 87.6172H86.8775ZM90.4359 95V84.8182H92.2804V89.1286H96.9984V84.8182H98.8478V95H96.9984V90.6747H92.2804V95H90.4359ZM102.698 84.8182V95H100.854V84.8182H102.698ZM104.696 95V84.8182H108.514C109.296 84.8182 109.952 84.964 110.483 85.2557C111.016 85.5473 111.419 85.9484 111.691 86.4588C111.966 86.9659 112.103 87.5426 112.103 88.1889C112.103 88.8419 111.966 89.4219 111.691 89.929C111.416 90.4361 111.01 90.8355 110.473 91.1271C109.936 91.4155 109.275 91.5597 108.489 91.5597H105.958V90.0433H108.24C108.698 90.0433 109.072 89.9638 109.364 89.8047C109.656 89.6456 109.871 89.4268 110.01 89.1484C110.153 88.87 110.224 88.5502 110.224 88.1889C110.224 87.8277 110.153 87.5095 110.01 87.2344C109.871 86.9593 109.654 86.7455 109.359 86.593C109.067 86.4373 108.691 86.3594 108.23 86.3594H106.54V95H104.696ZM117.178 95V84.8182H123.701V86.3643H119.023V89.1286H123.253V90.6747H119.023V95H117.178ZM134.479 89.9091C134.479 91.0062 134.274 91.9458 133.863 92.728C133.455 93.5069 132.898 94.1035 132.192 94.5178C131.49 94.9321 130.693 95.1392 129.801 95.1392C128.909 95.1392 128.111 94.9321 127.405 94.5178C126.702 94.1001 126.145 93.5019 125.734 92.723C125.327 91.9408 125.123 91.0028 125.123 89.9091C125.123 88.812 125.327 87.8741 125.734 87.0952C126.145 86.313 126.702 85.7147 127.405 85.3004C128.111 84.8861 128.909 84.679 129.801 84.679C130.693 84.679 131.49 84.8861 132.192 85.3004C132.898 85.7147 133.455 86.313 133.863 87.0952C134.274 87.8741 134.479 88.812 134.479 89.9091ZM132.625 89.9091C132.625 89.1368 132.504 88.4856 132.262 87.9553C132.023 87.4216 131.692 87.0189 131.268 86.7472C130.843 86.4721 130.354 86.3345 129.801 86.3345C129.247 86.3345 128.759 86.4721 128.334 86.7472C127.91 87.0189 127.577 87.4216 127.335 87.9553C127.096 88.4856 126.977 89.1368 126.977 89.9091C126.977 90.6813 127.096 91.3343 127.335 91.8679C127.577 92.3982 127.91 92.8009 128.334 93.076C128.759 93.3478 129.247 93.4837 129.801 93.4837C130.354 93.4837 130.843 93.3478 131.268 93.076C131.692 92.8009 132.023 92.3982 132.262 91.8679C132.504 91.3343 132.625 90.6813 132.625 89.9091ZM136.223 95V84.8182H140.041C140.823 84.8182 141.48 84.9541 142.01 85.2259C142.544 85.4976 142.946 85.8788 143.218 86.3693C143.493 86.8565 143.631 87.425 143.631 88.0746C143.631 88.7275 143.491 89.2943 143.213 89.7749C142.938 90.2521 142.532 90.6217 141.995 90.8835C141.458 91.142 140.799 91.2713 140.016 91.2713H137.297V89.7401H139.768C140.225 89.7401 140.6 89.6771 140.891 89.5511C141.183 89.4219 141.398 89.2346 141.538 88.9893C141.68 88.7408 141.751 88.4358 141.751 88.0746C141.751 87.7133 141.68 87.4051 141.538 87.1499C141.395 86.8913 141.178 86.6958 140.886 86.5632C140.595 86.4273 140.219 86.3594 139.758 86.3594H138.067V95H136.223ZM141.483 90.3864L144.004 95H141.945L139.469 90.3864H141.483ZM148.354 86.3643V84.8182H156.477V86.3643H153.33V95H151.501V86.3643H148.354ZM158.043 95V84.8182H159.888V89.1286H164.606V84.8182H166.455V95H164.606V90.6747H159.888V95H158.043ZM168.461 95V84.8182H175.083V86.3643H170.306V89.1286H174.74V90.6747H170.306V93.4538H175.123V95H168.461ZM23.8253 108.07C23.7424 107.801 23.6281 107.561 23.4822 107.349C23.3397 107.133 23.1674 106.949 22.9652 106.797C22.7663 106.644 22.5376 106.53 22.2791 106.454C22.0206 106.374 21.7389 106.335 21.4339 106.335C20.8871 106.335 20.3999 106.472 19.9723 106.747C19.5447 107.022 19.2083 107.427 18.9631 107.96C18.7211 108.491 18.6001 109.137 18.6001 109.899C18.6001 110.668 18.7211 111.319 18.9631 111.853C19.205 112.387 19.5414 112.793 19.9723 113.071C20.4032 113.346 20.9036 113.484 21.4737 113.484C21.9908 113.484 22.4382 113.384 22.8161 113.185C23.1972 112.987 23.4905 112.705 23.696 112.34C23.9015 111.972 24.0043 111.541 24.0043 111.048L24.4219 111.112H21.6577V109.67H25.7891V110.893C25.7891 111.765 25.6035 112.519 25.2322 113.156C24.861 113.792 24.3506 114.282 23.701 114.627C23.0514 114.969 22.3056 115.139 21.4638 115.139C20.5258 115.139 19.7022 114.929 18.9929 114.508C18.2869 114.084 17.7351 113.482 17.3374 112.703C16.9429 111.921 16.7457 110.993 16.7457 109.919C16.7457 109.097 16.8617 108.363 17.0938 107.717C17.3291 107.07 17.6572 106.522 18.0781 106.071C18.4991 105.617 18.9929 105.272 19.5597 105.037C20.1264 104.798 20.7429 104.679 21.4091 104.679C21.9725 104.679 22.4979 104.762 22.9851 104.928C23.4723 105.09 23.9048 105.322 24.2827 105.624C24.6638 105.925 24.977 106.283 25.2223 106.697C25.4676 107.112 25.6283 107.569 25.7045 108.07H23.8253ZM36.6706 109.909C36.6706 111.006 36.4651 111.946 36.0542 112.728C35.6465 113.507 35.0897 114.103 34.3837 114.518C33.681 114.932 32.8839 115.139 31.9924 115.139C31.1008 115.139 30.302 114.932 29.5961 114.518C28.8934 114.1 28.3366 113.502 27.9256 112.723C27.5179 111.941 27.3141 111.003 27.3141 109.909C27.3141 108.812 27.5179 107.874 27.9256 107.095C28.3366 106.313 28.8934 105.715 29.5961 105.3C30.302 104.886 31.1008 104.679 31.9924 104.679C32.8839 104.679 33.681 104.886 34.3837 105.3C35.0897 105.715 35.6465 106.313 36.0542 107.095C36.4651 107.874 36.6706 108.812 36.6706 109.909ZM34.8162 109.909C34.8162 109.137 34.6953 108.486 34.4533 107.955C34.2147 107.422 33.8832 107.019 33.459 106.747C33.0347 106.472 32.5459 106.335 31.9924 106.335C31.4389 106.335 30.95 106.472 30.5257 106.747C30.1015 107.019 29.7684 107.422 29.5265 107.955C29.2878 108.486 29.1685 109.137 29.1685 109.909C29.1685 110.681 29.2878 111.334 29.5265 111.868C29.7684 112.398 30.1015 112.801 30.5257 113.076C30.95 113.348 31.4389 113.484 31.9924 113.484C32.5459 113.484 33.0347 113.348 33.459 113.076C33.8832 112.801 34.2147 112.398 34.4533 111.868C34.6953 111.334 34.8162 110.681 34.8162 109.909ZM39.1751 115H37.2063L40.7908 104.818H43.0678L46.6573 115H44.6886L41.9691 106.906H41.8896L39.1751 115ZM39.2397 111.008H44.609V112.489H39.2397V111.008ZM47.9984 115V104.818H49.8429V113.454H54.3272V115H47.9984ZM61.4615 107.617C61.4151 107.183 61.2195 106.845 60.8748 106.603C60.5334 106.361 60.0893 106.24 59.5424 106.24C59.158 106.24 58.8282 106.298 58.5531 106.414C58.278 106.53 58.0675 106.687 57.9217 106.886C57.7759 107.085 57.7013 107.312 57.698 107.567C57.698 107.78 57.746 107.964 57.8422 108.119C57.9416 108.275 58.0758 108.408 58.2449 108.517C58.4139 108.623 58.6011 108.713 58.8066 108.786C59.0121 108.858 59.2193 108.92 59.4281 108.969L60.3826 109.208C60.7671 109.298 61.1367 109.419 61.4913 109.571C61.8493 109.723 62.1691 109.916 62.4508 110.148C62.7359 110.38 62.9612 110.66 63.127 110.988C63.2927 111.316 63.3755 111.701 63.3755 112.141C63.3755 112.738 63.2231 113.263 62.9181 113.717C62.6132 114.168 62.1724 114.521 61.5957 114.776C61.0223 115.028 60.3279 115.154 59.5126 115.154C58.7205 115.154 58.0327 115.031 57.4494 114.786C56.8694 114.541 56.4153 114.183 56.0872 113.712C55.7624 113.242 55.5867 112.668 55.5602 111.992H57.3748C57.4013 112.347 57.5107 112.642 57.7029 112.877C57.8952 113.112 58.1454 113.288 58.4537 113.404C58.7652 113.52 59.1132 113.578 59.4977 113.578C59.8987 113.578 60.2501 113.518 60.5517 113.399C60.8566 113.277 61.0952 113.107 61.2676 112.892C61.4399 112.673 61.5278 112.418 61.5311 112.126C61.5278 111.861 61.4499 111.643 61.2974 111.47C61.1449 111.295 60.9312 111.149 60.6561 111.033C60.3843 110.913 60.0661 110.807 59.7015 110.714L58.5431 110.416C57.7046 110.201 57.0417 109.874 56.5545 109.437C56.0706 108.996 55.8287 108.411 55.8287 107.682C55.8287 107.082 55.9911 106.557 56.3159 106.106C56.644 105.655 57.0898 105.305 57.6532 105.057C58.2167 104.805 58.8547 104.679 59.5673 104.679C60.2898 104.679 60.9229 104.805 61.4664 105.057C62.0133 105.305 62.4425 105.652 62.7541 106.096C63.0656 106.537 63.2264 107.044 63.2363 107.617H61.4615Z" fill="white"/>
<path d="M20.3253 171.273V180H18.7443V172.811H18.6932L16.652 174.115V172.666L18.821 171.273H20.3253ZM23.0281 180.094C22.7695 180.094 22.5479 180.003 22.3633 179.821C22.1786 179.639 22.0877 179.418 22.0906 179.156C22.0877 178.901 22.1786 178.682 22.3633 178.5C22.5479 178.318 22.7695 178.227 23.0281 178.227C23.2781 178.227 23.4954 178.318 23.68 178.5C23.8675 178.682 23.9627 178.901 23.9656 179.156C23.9627 179.33 23.9173 179.487 23.8292 179.629C23.744 179.771 23.6303 179.885 23.4883 179.97C23.3491 180.053 23.1957 180.094 23.0281 180.094ZM25.3835 178.381V177.124L29.0866 171.273H30.1349V173.062H29.4957L27.0028 177.013V177.081H32.1719V178.381H25.3835ZM29.5469 180V177.997L29.5639 177.435V171.273H31.0554V180H29.5469ZM35.1154 178.807L35.06 179.276C35.0202 179.634 34.9492 179.997 34.8469 180.366C34.7475 180.739 34.6424 181.081 34.5316 181.393C34.4208 181.706 34.3313 181.952 34.2631 182.131H33.2234C33.2631 181.957 33.3171 181.722 33.3853 181.423C33.4563 181.125 33.5245 180.79 33.5898 180.418C33.6552 180.045 33.6992 179.668 33.7219 179.284L33.7518 178.807H35.1154ZM43.0831 171.273V180H41.5021V172.811H41.451L39.4098 174.115V172.666L41.5788 171.273H43.0831ZM45.7859 180.094C45.5273 180.094 45.3058 180.003 45.1211 179.821C44.9364 179.639 44.8455 179.418 44.8484 179.156C44.8455 178.901 44.9364 178.682 45.1211 178.5C45.3058 178.318 45.5273 178.227 45.7859 178.227C46.0359 178.227 46.2532 178.318 46.4379 178.5C46.6254 178.682 46.7205 178.901 46.7234 179.156C46.7205 179.33 46.6751 179.487 46.587 179.629C46.5018 179.771 46.3881 179.885 46.2461 179.97C46.1069 180.053 45.9535 180.094 45.7859 180.094ZM51.2276 180.119C50.6594 180.119 50.1509 180.013 49.7021 179.8C49.2532 179.584 48.8967 179.288 48.6325 178.913C48.3711 178.538 48.2319 178.109 48.2148 177.626H49.7489C49.7773 177.984 49.9322 178.277 50.2134 178.504C50.4947 178.729 50.8327 178.841 51.2276 178.841C51.5373 178.841 51.8129 178.77 52.0543 178.628C52.2958 178.486 52.4862 178.288 52.6254 178.036C52.7646 177.783 52.8327 177.494 52.8299 177.17C52.8327 176.841 52.7631 176.548 52.6211 176.293C52.479 176.037 52.2844 175.837 52.0373 175.692C51.7901 175.544 51.506 175.47 51.185 175.47C50.9237 175.467 50.6665 175.516 50.4137 175.615C50.1609 175.714 49.9606 175.845 49.8129 176.007L48.3853 175.773L48.8413 171.273H53.9038V172.594H50.1495L49.8981 174.908H49.9492C50.1112 174.717 50.3398 174.56 50.6353 174.435C50.9308 174.307 51.2546 174.243 51.6069 174.243C52.1353 174.243 52.6069 174.368 53.0217 174.618C53.4364 174.865 53.7631 175.206 54.0018 175.641C54.2404 176.075 54.3597 176.572 54.3597 177.132C54.3597 177.709 54.2262 178.223 53.9592 178.675C53.695 179.124 53.3271 179.477 52.8555 179.736C52.3867 179.991 51.8441 180.119 51.2276 180.119Z" fill="white"/>
</svg>
