<svg width="200" height="200" viewBox="0 0 200 200" fill="none" xmlns="http://www.w3.org/2000/svg">
<rect width="200" height="200" fill="#BF8D2C"/>
<path d="M24.6506 24.5455V42H21.4886V27.6222H21.3864L17.304 30.2301V27.3324L21.642 24.5455H24.6506ZM29.0824 42V39.7159L35.142 33.7756C35.7216 33.1903 36.2045 32.6705 36.5909 32.2159C36.9773 31.7614 37.267 31.321 37.4602 30.8949C37.6534 30.4687 37.75 30.0142 37.75 29.5312C37.75 28.9801 37.625 28.5085 37.375 28.1165C37.125 27.7188 36.7812 27.4119 36.3438 27.196C35.9062 26.9801 35.4091 26.8722 34.8523 26.8722C34.2784 26.8722 33.7756 26.9915 33.3438 27.2301C32.9119 27.4631 32.5767 27.7955 32.3381 28.2273C32.1051 28.6591 31.9886 29.1733 31.9886 29.7699H28.9801C28.9801 28.6619 29.233 27.6989 29.7386 26.8807C30.2443 26.0625 30.9403 25.429 31.8267 24.9801C32.7188 24.5312 33.7415 24.3068 34.8949 24.3068C36.0653 24.3068 37.0938 24.5256 37.9801 24.9631C38.8665 25.4006 39.554 26 40.0426 26.7614C40.5369 27.5227 40.7841 28.392 40.7841 29.3693C40.7841 30.0227 40.6591 30.6648 40.4091 31.2955C40.1591 31.9261 39.7188 32.625 39.0881 33.392C38.4631 34.1591 37.5852 35.0881 36.4545 36.179L33.446 39.2386V39.358H41.0483V42H29.0824Z" fill="white"/>
<path d="M172.41 34.0586C170.544 32.6523 168.31 32.5 167.438 32.5C166.972 32.5 166.554 32.5352 166.235 32.6055L166.113 32.6289C164.934 32.8984 162.958 33.3437 160.662 36.0625L160.589 36.1445C160.589 36.1445 160.527 36.25 160.527 36.3086C160.527 36.3555 160.54 36.4023 160.564 36.4492L160.613 36.5313C160.994 37.1406 161.313 37.668 161.558 38.1133C161.644 38.2773 161.89 38.3359 162.049 38.1836C162.062 38.1602 162.086 38.1484 162.099 38.125C164.087 35.5 165.634 35.1602 166.665 34.9258L166.788 34.9023C166.935 34.8672 167.156 34.8555 167.414 34.8555C167.893 34.8555 169.562 34.9258 170.851 35.9102C172.005 36.7773 172.594 38.1719 172.594 40.0352C172.594 43.1641 171.01 44.3945 169.672 44.8633C169.169 45.0391 168.617 45.1328 168.04 45.1328C166.665 45.1328 165.609 44.6055 165.597 44.6055L165.499 44.5586C164.357 44.0781 162.639 43.0938 161.018 39.9883C157.704 33.625 154.917 33.0273 153.064 32.6289L152.966 32.6055C152.818 32.5703 152.425 32.5 151.775 32.5C150.707 32.5 148.657 32.6992 146.889 34.0469C145.686 34.9609 144.25 36.7422 144.25 40.0117C144.25 42.0039 144.68 43.3281 145.784 44.7109C145.993 44.9805 147.92 47.3477 151.603 47.3477C152.143 47.3477 152.72 47.3008 153.285 47.1953C153.96 47.0664 155.003 46.75 156.157 45.9414L157.127 46.7734C157.237 46.8672 157.422 46.8555 157.52 46.7617C157.569 46.7148 157.593 46.6445 157.593 46.5859L158.342 42.168V42.1211C158.342 42.0508 158.305 41.9805 158.256 41.9336C158.207 41.8867 158.146 41.8633 158.06 41.8633L153.555 43.0469H153.469C153.469 43.0469 153.358 43.1055 153.322 43.1406C153.272 43.1992 153.248 43.2578 153.248 43.3398C153.248 43.4102 153.285 43.4805 153.334 43.5273L154.267 44.3359C153.776 44.6289 153.285 44.8164 152.806 44.8984C152.401 44.9688 151.996 45.0156 151.615 45.0156C149.062 45.0156 147.81 43.4219 147.761 43.3516L147.736 43.3164C146.963 42.3438 146.693 41.5117 146.693 40.0352C146.693 38.1602 147.27 36.7656 148.399 35.8984C149.663 34.9375 151.284 34.8672 151.75 34.8672C152.008 34.8672 152.241 34.8906 152.389 34.9141L152.487 34.9375C153.96 35.2539 155.973 35.6875 158.772 41.0547C160.245 43.8906 162.099 45.7422 164.431 46.7148C164.701 46.8438 166.149 47.5 167.991 47.5C168.862 47.5 169.697 47.3594 170.483 47.0781C171.845 46.5977 175 44.9336 175 40.0469C175 36.7773 173.551 34.9844 172.324 34.0703" fill="white"/>
<path d="M17.0043 95V84.8182H20.8224C21.6046 84.8182 22.2609 84.9541 22.7912 85.2259C23.3248 85.4976 23.7275 85.8788 23.9993 86.3693C24.2744 86.8565 24.4119 87.425 24.4119 88.0746C24.4119 88.7275 24.2727 89.2943 23.9943 89.7749C23.7192 90.2521 23.3132 90.6217 22.7763 90.8835C22.2393 91.142 21.5798 91.2713 20.7976 91.2713H18.0781V89.7401H20.549C21.0064 89.7401 21.3809 89.6771 21.6726 89.5511C21.9643 89.4219 22.1797 89.2346 22.3189 88.9893C22.4614 88.7408 22.5327 88.4358 22.5327 88.0746C22.5327 87.7133 22.4614 87.4051 22.3189 87.1499C22.1764 86.8913 21.9593 86.6958 21.6676 86.5632C21.3759 86.4273 20.9998 86.3594 20.5391 86.3594H18.8487V95H17.0043ZM22.2642 90.3864L24.7848 95H22.7266L20.2507 90.3864H22.2642ZM26.1097 95V84.8182H32.7319V86.3643H27.9542V89.1286H32.3888V90.6747H27.9542V93.4538H32.7717V95H26.1097ZM40.147 87.6172C40.1006 87.183 39.9051 86.8449 39.5604 86.603C39.219 86.361 38.7749 86.2401 38.228 86.2401C37.8435 86.2401 37.5137 86.2981 37.2386 86.4141C36.9635 86.5301 36.7531 86.6875 36.6072 86.8864C36.4614 87.0852 36.3868 87.3123 36.3835 87.5675C36.3835 87.7796 36.4316 87.9635 36.5277 88.1193C36.6271 88.2751 36.7614 88.4077 36.9304 88.517C37.0994 88.6231 37.2867 88.7126 37.4922 88.7855C37.6977 88.8584 37.9048 88.9197 38.1136 88.9695L39.0682 89.2081C39.4527 89.2976 39.8222 89.4186 40.1768 89.571C40.5348 89.7235 40.8546 89.9157 41.1364 90.1477C41.4214 90.3797 41.6468 90.6598 41.8125 90.9879C41.9782 91.3161 42.0611 91.7005 42.0611 92.1413C42.0611 92.7379 41.9086 93.2633 41.6037 93.7173C41.2988 94.1681 40.858 94.5211 40.2812 94.7763C39.7079 95.0282 39.0135 95.1541 38.1982 95.1541C37.406 95.1541 36.7183 95.0315 36.1349 94.7862C35.5549 94.541 35.1009 94.183 34.7727 93.7124C34.4479 93.2417 34.2723 92.6683 34.2457 91.9922H36.0604C36.0869 92.3468 36.1963 92.6418 36.3885 92.8771C36.5807 93.1125 36.831 93.2881 37.1392 93.4041C37.4508 93.5201 37.7988 93.5781 38.1832 93.5781C38.5843 93.5781 38.9356 93.5185 39.2372 93.3991C39.5421 93.2765 39.7808 93.1075 39.9531 92.892C40.1255 92.6733 40.2133 92.4181 40.2166 92.1264C40.2133 91.8613 40.1354 91.6425 39.983 91.4702C39.8305 91.2945 39.6167 91.1487 39.3416 91.0327C39.0698 90.9134 38.7517 90.8073 38.3871 90.7145L37.2287 90.4162C36.3902 90.2008 35.7273 89.8743 35.2401 89.4368C34.7562 88.996 34.5142 88.411 34.5142 87.6818C34.5142 87.0819 34.6766 86.5566 35.0014 86.1058C35.3295 85.6551 35.7753 85.3054 36.3388 85.0568C36.9022 84.8049 37.5402 84.679 38.2528 84.679C38.9754 84.679 39.6084 84.8049 40.152 85.0568C40.6989 85.3054 41.1281 85.6518 41.4396 86.0959C41.7512 86.5367 41.9119 87.0438 41.9219 87.6172H40.147ZM43.7054 95V84.8182H47.5236C48.3058 84.8182 48.9621 84.964 49.4924 85.2557C50.026 85.5473 50.4287 85.9484 50.7005 86.4588C50.9756 86.9659 51.1131 87.5426 51.1131 88.1889C51.1131 88.8419 50.9756 89.4219 50.7005 89.929C50.4254 90.4361 50.0194 90.8355 49.4824 91.1271C48.9455 91.4155 48.2843 91.5597 47.4988 91.5597H44.9682V90.0433H47.2502C47.7076 90.0433 48.0821 89.9638 48.3738 89.8047C48.6654 89.6456 48.8809 89.4268 49.0201 89.1484C49.1626 88.87 49.2338 88.5502 49.2338 88.1889C49.2338 87.8277 49.1626 87.5095 49.0201 87.2344C48.8809 86.9593 48.6638 86.7455 48.3688 86.593C48.0771 86.4373 47.7009 86.3594 47.2402 86.3594H45.5499V95H43.7054ZM61.8132 89.9091C61.8132 91.0062 61.6077 91.9458 61.1967 92.728C60.7891 93.5069 60.2322 94.1035 59.5263 94.5178C58.8236 94.9321 58.0265 95.1392 57.1349 95.1392C56.2434 95.1392 55.4446 94.9321 54.7386 94.5178C54.036 94.1001 53.4792 93.5019 53.0682 92.723C52.6605 91.9408 52.4567 91.0028 52.4567 89.9091C52.4567 88.812 52.6605 87.8741 53.0682 87.0952C53.4792 86.313 54.036 85.7147 54.7386 85.3004C55.4446 84.8861 56.2434 84.679 57.1349 84.679C58.0265 84.679 58.8236 84.8861 59.5263 85.3004C60.2322 85.7147 60.7891 86.313 61.1967 87.0952C61.6077 87.8741 61.8132 88.812 61.8132 89.9091ZM59.9588 89.9091C59.9588 89.1368 59.8378 88.4856 59.5959 87.9553C59.3572 87.4216 59.0258 87.0189 58.6016 86.7472C58.1773 86.4721 57.6884 86.3345 57.1349 86.3345C56.5814 86.3345 56.0926 86.4721 55.6683 86.7472C55.2441 87.0189 54.911 87.4216 54.669 87.9553C54.4304 88.4856 54.3111 89.1368 54.3111 89.9091C54.3111 90.6813 54.4304 91.3343 54.669 91.8679C54.911 92.3982 55.2441 92.8009 55.6683 93.076C56.0926 93.3478 56.5814 93.4837 57.1349 93.4837C57.6884 93.4837 58.1773 93.3478 58.6016 93.076C59.0258 92.8009 59.3572 92.3982 59.5959 91.8679C59.8378 91.3343 59.9588 90.6813 59.9588 89.9091ZM71.9242 84.8182V95H70.2836L65.486 88.0646H65.4015V95H63.557V84.8182H65.2076L70.0002 91.7585H70.0897V84.8182H71.9242ZM79.4673 87.6172C79.4209 87.183 79.2254 86.8449 78.8807 86.603C78.5393 86.361 78.0952 86.2401 77.5483 86.2401C77.1638 86.2401 76.834 86.2981 76.5589 86.4141C76.2839 86.5301 76.0734 86.6875 75.9276 86.8864C75.7817 87.0852 75.7071 87.3123 75.7038 87.5675C75.7038 87.7796 75.7519 87.9635 75.848 88.1193C75.9474 88.2751 76.0817 88.4077 76.2507 88.517C76.4197 88.6231 76.607 88.7126 76.8125 88.7855C77.018 88.8584 77.2251 88.9197 77.4339 88.9695L78.3885 89.2081C78.773 89.2976 79.1425 89.4186 79.4972 89.571C79.8551 89.7235 80.175 89.9157 80.4567 90.1477C80.7417 90.3797 80.9671 90.6598 81.1328 90.9879C81.2985 91.3161 81.3814 91.7005 81.3814 92.1413C81.3814 92.7379 81.2289 93.2633 80.924 93.7173C80.6191 94.1681 80.1783 94.5211 79.6016 94.7763C79.0282 95.0282 78.3338 95.1541 77.5185 95.1541C76.7263 95.1541 76.0386 95.0315 75.4553 94.7862C74.8752 94.541 74.4212 94.183 74.093 93.7124C73.7682 93.2417 73.5926 92.6683 73.5661 91.9922H75.3807C75.4072 92.3468 75.5166 92.6418 75.7088 92.8771C75.901 93.1125 76.1513 93.2881 76.4595 93.4041C76.7711 93.5201 77.1191 93.5781 77.5036 93.5781C77.9046 93.5781 78.2559 93.5185 78.5575 93.3991C78.8625 93.2765 79.1011 93.1075 79.2734 92.892C79.4458 92.6733 79.5336 92.4181 79.5369 92.1264C79.5336 91.8613 79.4557 91.6425 79.3033 91.4702C79.1508 91.2945 78.937 91.1487 78.6619 91.0327C78.3902 90.9134 78.072 90.8073 77.7074 90.7145L76.549 90.4162C75.7105 90.2008 75.0476 89.8743 74.5604 89.4368C74.0765 88.996 73.8345 88.411 73.8345 87.6818C73.8345 87.0819 73.9969 86.5566 74.3217 86.1058C74.6499 85.6551 75.0956 85.3054 75.6591 85.0568C76.2225 84.8049 76.8606 84.679 77.5732 84.679C78.2957 84.679 78.9287 84.8049 79.4723 85.0568C80.0192 85.3054 80.4484 85.6518 80.7599 86.0959C81.0715 86.5367 81.2322 87.0438 81.2422 87.6172H79.4673ZM84.8702 84.8182V95H83.0257V84.8182H84.8702ZM86.8675 95V84.8182H90.7653C91.5011 84.8182 92.1126 84.9342 92.5998 85.1662C93.0903 85.3949 93.4566 85.7081 93.6985 86.1058C93.9438 86.5036 94.0664 86.9543 94.0664 87.4581C94.0664 87.8724 93.9869 88.227 93.8278 88.522C93.6687 88.8137 93.4549 89.0507 93.1864 89.233C92.918 89.4152 92.618 89.5462 92.2866 89.6257V89.7251C92.6478 89.745 92.9942 89.8561 93.3256 90.0582C93.6604 90.2571 93.9338 90.5388 94.146 90.9034C94.3581 91.268 94.4641 91.7088 94.4641 92.2259C94.4641 92.7528 94.3365 93.2268 94.0813 93.6477C93.8261 94.0653 93.4416 94.3951 92.9279 94.6371C92.4142 94.879 91.7679 95 90.989 95H86.8675ZM88.712 93.4588H90.6957C91.3652 93.4588 91.8474 93.3312 92.1424 93.076C92.4407 92.8175 92.5898 92.486 92.5898 92.0817C92.5898 91.7801 92.5153 91.5083 92.3661 91.2663C92.217 91.0211 92.0049 90.8288 91.7298 90.6896C91.4547 90.5471 91.1265 90.4759 90.7454 90.4759H88.712V93.4588ZM88.712 89.1484H90.5366C90.8548 89.1484 91.1415 89.0904 91.3967 88.9744C91.6519 88.8551 91.8524 88.6877 91.9982 88.4723C92.1474 88.2536 92.2219 87.995 92.2219 87.6967C92.2219 87.3023 92.0827 86.9775 91.8043 86.7223C91.5292 86.4671 91.1199 86.3395 90.5763 86.3395H88.712V89.1484ZM96.0687 95V84.8182H97.9132V93.4538H102.398V95H96.0687ZM103.998 95V84.8182H110.621V86.3643H105.843V89.1286H110.278V90.6747H105.843V93.4538H110.66V95H103.998ZM25.7195 108.254H23.8601C23.8071 107.949 23.7093 107.679 23.5668 107.443C23.4242 107.205 23.2469 107.002 23.0348 106.837C22.8227 106.671 22.5807 106.547 22.3089 106.464C22.0405 106.378 21.7505 106.335 21.4389 106.335C20.8854 106.335 20.3949 106.474 19.9673 106.752C19.5398 107.027 19.205 107.432 18.9631 107.965C18.7211 108.496 18.6001 109.143 18.6001 109.909C18.6001 110.688 18.7211 111.344 18.9631 111.878C19.2083 112.408 19.5431 112.809 19.9673 113.081C20.3949 113.349 20.8838 113.484 21.4339 113.484C21.7389 113.484 22.0239 113.444 22.2891 113.364C22.5575 113.281 22.7978 113.161 23.0099 113.001C23.2254 112.842 23.406 112.647 23.5518 112.415C23.701 112.183 23.8037 111.918 23.8601 111.619L25.7195 111.629C25.6499 112.113 25.4991 112.567 25.267 112.991C25.0384 113.416 24.7384 113.79 24.3672 114.115C23.996 114.437 23.5618 114.688 23.0646 114.871C22.5675 115.05 22.0156 115.139 21.4091 115.139C20.5142 115.139 19.7154 114.932 19.0128 114.518C18.3101 114.103 17.7566 113.505 17.3523 112.723C16.9479 111.941 16.7457 111.003 16.7457 109.909C16.7457 108.812 16.9496 107.874 17.3572 107.095C17.7649 106.313 18.3201 105.715 19.0227 105.3C19.7254 104.886 20.5208 104.679 21.4091 104.679C21.9759 104.679 22.5028 104.759 22.9901 104.918C23.4773 105.077 23.9115 105.31 24.2926 105.619C24.6738 105.924 24.987 106.298 25.2322 106.742C25.4808 107.183 25.6432 107.687 25.7195 108.254ZM36.5066 109.909C36.5066 111.006 36.3011 111.946 35.8901 112.728C35.4824 113.507 34.9256 114.103 34.2196 114.518C33.517 114.932 32.7199 115.139 31.8283 115.139C30.9367 115.139 30.138 114.932 29.432 114.518C28.7293 114.1 28.1725 113.502 27.7615 112.723C27.3539 111.941 27.15 111.003 27.15 109.909C27.15 108.812 27.3539 107.874 27.7615 107.095C28.1725 106.313 28.7293 105.715 29.432 105.3C30.138 104.886 30.9367 104.679 31.8283 104.679C32.7199 104.679 33.517 104.886 34.2196 105.3C34.9256 105.715 35.4824 106.313 35.8901 107.095C36.3011 107.874 36.5066 108.812 36.5066 109.909ZM34.6522 109.909C34.6522 109.137 34.5312 108.486 34.2892 107.955C34.0506 107.422 33.7192 107.019 33.2949 106.747C32.8707 106.472 32.3818 106.335 31.8283 106.335C31.2748 106.335 30.7859 106.472 30.3617 106.747C29.9374 107.019 29.6043 107.422 29.3624 107.955C29.1238 108.486 29.0044 109.137 29.0044 109.909C29.0044 110.681 29.1238 111.334 29.3624 111.868C29.6043 112.398 29.9374 112.801 30.3617 113.076C30.7859 113.348 31.2748 113.484 31.8283 113.484C32.3818 113.484 32.8707 113.348 33.2949 113.076C33.7192 112.801 34.0506 112.398 34.2892 111.868C34.5312 111.334 34.6522 110.681 34.6522 109.909ZM46.6175 104.818V115H44.9769L40.1793 108.065H40.0948V115H38.2504V104.818H39.9009L44.6935 111.759H44.783V104.818H46.6175ZM54.1607 107.617C54.1143 107.183 53.9187 106.845 53.574 106.603C53.2327 106.361 52.7885 106.24 52.2417 106.24C51.8572 106.24 51.5274 106.298 51.2523 106.414C50.9772 106.53 50.7667 106.687 50.6209 106.886C50.4751 107.085 50.4005 107.312 50.3972 107.567C50.3972 107.78 50.4453 107.964 50.5414 108.119C50.6408 108.275 50.775 108.408 50.9441 108.517C51.1131 108.623 51.3004 108.713 51.5059 108.786C51.7114 108.858 51.9185 108.92 52.1273 108.969L53.0819 109.208C53.4663 109.298 53.8359 109.419 54.1905 109.571C54.5485 109.723 54.8683 109.916 55.15 110.148C55.4351 110.38 55.6605 110.66 55.8262 110.988C55.9919 111.316 56.0748 111.701 56.0748 112.141C56.0748 112.738 55.9223 113.263 55.6174 113.717C55.3124 114.168 54.8716 114.521 54.2949 114.776C53.7215 115.028 53.0272 115.154 52.2118 115.154C51.4197 115.154 50.7319 115.031 50.1486 114.786C49.5686 114.541 49.1145 114.183 48.7864 113.712C48.4616 113.242 48.2859 112.668 48.2594 111.992H50.074C50.1006 112.347 50.2099 112.642 50.4022 112.877C50.5944 113.112 50.8446 113.288 51.1529 113.404C51.4644 113.52 51.8124 113.578 52.1969 113.578C52.598 113.578 52.9493 113.518 53.2509 113.399C53.5558 113.277 53.7944 113.107 53.9668 112.892C54.1391 112.673 54.227 112.418 54.2303 112.126C54.227 111.861 54.1491 111.643 53.9966 111.47C53.8442 111.295 53.6304 111.149 53.3553 111.033C53.0835 110.913 52.7653 110.807 52.4007 110.714L51.2424 110.416C50.4038 110.201 49.7409 109.874 49.2537 109.437C48.7698 108.996 48.5279 108.411 48.5279 107.682C48.5279 107.082 48.6903 106.557 49.0151 106.106C49.3432 105.655 49.789 105.305 50.3525 105.057C50.9159 104.805 51.5539 104.679 52.2665 104.679C52.9891 104.679 53.6221 104.805 54.1657 105.057C54.7125 105.305 55.1417 105.652 55.4533 106.096C55.7649 106.537 55.9256 107.044 55.9355 107.617H54.1607ZM64.1374 104.818H65.9819V111.47C65.9819 112.199 65.8095 112.841 65.4648 113.394C65.1235 113.948 64.6429 114.38 64.0231 114.692C63.4033 115 62.6791 115.154 61.8505 115.154C61.0186 115.154 60.2927 115 59.6729 114.692C59.0531 114.38 58.5726 113.948 58.2312 113.394C57.8898 112.841 57.7191 112.199 57.7191 111.47V104.818H59.5636V111.316C59.5636 111.74 59.6564 112.118 59.842 112.45C60.0309 112.781 60.296 113.041 60.6374 113.23C60.9788 113.416 61.3832 113.509 61.8505 113.509C62.3178 113.509 62.7222 113.416 63.0636 113.23C63.4083 113.041 63.6734 112.781 63.859 112.45C64.0446 112.118 64.1374 111.74 64.1374 111.316V104.818ZM67.9867 104.818H70.2438L73.2665 112.196H73.3858L76.4086 104.818H78.6657V115H76.8958V108.005H76.8013L73.9874 114.97H72.665L69.851 107.99H69.7566V115H67.9867V104.818ZM80.6742 115V104.818H84.4924C85.2746 104.818 85.9308 104.964 86.4611 105.256C86.9947 105.547 87.3974 105.948 87.6692 106.459C87.9443 106.966 88.0819 107.543 88.0819 108.189C88.0819 108.842 87.9443 109.422 87.6692 109.929C87.3941 110.436 86.9881 110.835 86.4512 111.127C85.9142 111.415 85.253 111.56 84.4675 111.56H81.937V110.043H84.2189C84.6763 110.043 85.0508 109.964 85.3425 109.805C85.6342 109.646 85.8496 109.427 85.9888 109.148C86.1313 108.87 86.2026 108.55 86.2026 108.189C86.2026 107.828 86.1313 107.509 85.9888 107.234C85.8496 106.959 85.6325 106.746 85.3375 106.593C85.0459 106.437 84.6697 106.359 84.209 106.359H82.5186V115H80.6742ZM89.2365 106.364V104.818H97.3601V106.364H94.2131V115H92.3835V106.364H89.2365ZM100.771 104.818V115H98.9261V104.818H100.771ZM111.866 109.909C111.866 111.006 111.66 111.946 111.249 112.728C110.842 113.507 110.285 114.103 109.579 114.518C108.876 114.932 108.079 115.139 107.188 115.139C106.296 115.139 105.497 114.932 104.791 114.518C104.089 114.1 103.532 113.502 103.121 112.723C102.713 111.941 102.509 111.003 102.509 109.909C102.509 108.812 102.713 107.874 103.121 107.095C103.532 106.313 104.089 105.715 104.791 105.3C105.497 104.886 106.296 104.679 107.188 104.679C108.079 104.679 108.876 104.886 109.579 105.3C110.285 105.715 110.842 106.313 111.249 107.095C111.66 107.874 111.866 108.812 111.866 109.909ZM110.012 109.909C110.012 109.137 109.891 108.486 109.649 107.955C109.41 107.422 109.079 107.019 108.654 106.747C108.23 106.472 107.741 106.335 107.188 106.335C106.634 106.335 106.145 106.472 105.721 106.747C105.297 107.019 104.964 107.422 104.722 107.955C104.483 108.486 104.364 109.137 104.364 109.909C104.364 110.681 104.483 111.334 104.722 111.868C104.964 112.398 105.297 112.801 105.721 113.076C106.145 113.348 106.634 113.484 107.188 113.484C107.741 113.484 108.23 113.348 108.654 113.076C109.079 112.801 109.41 112.398 109.649 111.868C109.891 111.334 110.012 110.681 110.012 109.909ZM121.977 104.818V115H120.336L115.539 108.065H115.454V115H113.61V104.818H115.26L120.053 111.759H120.142V104.818H121.977ZM128.767 115H126.798L130.383 104.818H132.66L136.249 115H134.28L131.561 106.906H131.481L128.767 115ZM128.831 111.008H134.201V112.489H128.831V111.008ZM145.957 104.818V115H144.317L139.519 108.065H139.435V115H137.59V104.818H139.241L144.033 111.759H144.123V104.818H145.957ZM151.417 115H147.967V104.818H151.487C152.498 104.818 153.366 105.022 154.092 105.43C154.821 105.834 155.381 106.416 155.773 107.175C156.164 107.934 156.359 108.842 156.359 109.899C156.359 110.96 156.162 111.871 155.768 112.634C155.376 113.396 154.811 113.981 154.072 114.388C153.336 114.796 152.452 115 151.417 115ZM149.812 113.404H151.328C152.037 113.404 152.629 113.275 153.103 113.016C153.577 112.754 153.933 112.365 154.172 111.848C154.41 111.328 154.53 110.678 154.53 109.899C154.53 109.12 154.41 108.474 154.172 107.96C153.933 107.443 153.58 107.057 153.113 106.802C152.649 106.543 152.072 106.414 151.383 106.414H149.812V113.404ZM17.0043 135V124.818H20.8224C21.6046 124.818 22.2609 124.964 22.7912 125.256C23.3248 125.547 23.7275 125.948 23.9993 126.459C24.2744 126.966 24.4119 127.543 24.4119 128.189C24.4119 128.842 24.2744 129.422 23.9993 129.929C23.7242 130.436 23.3182 130.835 22.7812 131.127C22.2443 131.415 21.5831 131.56 20.7976 131.56H18.267V130.043H20.549C21.0064 130.043 21.3809 129.964 21.6726 129.805C21.9643 129.646 22.1797 129.427 22.3189 129.148C22.4614 128.87 22.5327 128.55 22.5327 128.189C22.5327 127.828 22.4614 127.509 22.3189 127.234C22.1797 126.959 21.9626 126.746 21.6676 126.593C21.3759 126.437 20.9998 126.359 20.5391 126.359H18.8487V135H17.0043ZM26.014 135V124.818H29.8322C30.6144 124.818 31.2707 124.954 31.801 125.226C32.3346 125.498 32.7373 125.879 33.0091 126.369C33.2842 126.857 33.4217 127.425 33.4217 128.075C33.4217 128.728 33.2825 129.294 33.0041 129.775C32.729 130.252 32.323 130.622 31.786 130.884C31.2491 131.142 30.5895 131.271 29.8074 131.271H27.0879V129.74H29.5588C30.0162 129.74 30.3907 129.677 30.6824 129.551C30.974 129.422 31.1895 129.235 31.3287 128.989C31.4712 128.741 31.5424 128.436 31.5424 128.075C31.5424 127.713 31.4712 127.405 31.3287 127.15C31.1861 126.891 30.969 126.696 30.6774 126.563C30.3857 126.427 30.0095 126.359 29.5488 126.359H27.8585V135H26.014ZM31.274 130.386L33.7946 135H31.7363L29.2605 130.386H31.274ZM44.2175 129.909C44.2175 131.006 44.012 131.946 43.601 132.728C43.1934 133.507 42.6365 134.103 41.9306 134.518C41.2279 134.932 40.4308 135.139 39.5392 135.139C38.6477 135.139 37.8489 134.932 37.1429 134.518C36.4403 134.1 35.8835 133.502 35.4725 132.723C35.0648 131.941 34.861 131.003 34.861 129.909C34.861 128.812 35.0648 127.874 35.4725 127.095C35.8835 126.313 36.4403 125.715 37.1429 125.3C37.8489 124.886 38.6477 124.679 39.5392 124.679C40.4308 124.679 41.2279 124.886 41.9306 125.3C42.6365 125.715 43.1934 126.313 43.601 127.095C44.012 127.874 44.2175 128.812 44.2175 129.909ZM42.3631 129.909C42.3631 129.137 42.2421 128.486 42.0002 127.955C41.7615 127.422 41.4301 127.019 41.0059 126.747C40.5816 126.472 40.0927 126.335 39.5392 126.335C38.9857 126.335 38.4969 126.472 38.0726 126.747C37.6484 127.019 37.3153 127.422 37.0733 127.955C36.8347 128.486 36.7154 129.137 36.7154 129.909C36.7154 130.681 36.8347 131.334 37.0733 131.868C37.3153 132.398 37.6484 132.801 38.0726 133.076C38.4969 133.348 38.9857 133.484 39.5392 133.484C40.0927 133.484 40.5816 133.348 41.0059 133.076C41.4301 132.801 41.7615 132.398 42.0002 131.868C42.2421 131.334 42.3631 130.681 42.3631 129.909ZM49.4116 135H45.9613V124.818H49.4812C50.4921 124.818 51.3604 125.022 52.0863 125.43C52.8155 125.834 53.3756 126.416 53.7667 127.175C54.1578 127.934 54.3533 128.842 54.3533 129.899C54.3533 130.96 54.1561 131.871 53.7617 132.634C53.3706 133.396 52.8055 133.981 52.0664 134.388C51.3306 134.796 50.4457 135 49.4116 135ZM47.8058 133.404H49.3221C50.0314 133.404 50.623 133.275 51.0969 133.016C51.5709 132.754 51.9272 132.365 52.1658 131.848C52.4045 131.328 52.5238 130.678 52.5238 129.899C52.5238 129.12 52.4045 128.474 52.1658 127.96C51.9272 127.443 51.5742 127.057 51.1069 126.802C50.6429 126.543 50.0662 126.414 49.3768 126.414H47.8058V133.404ZM62.5241 124.818H64.3686V131.47C64.3686 132.199 64.1963 132.841 63.8516 133.394C63.5102 133.948 63.0296 134.38 62.4098 134.692C61.79 135 61.0658 135.154 60.2372 135.154C59.4053 135.154 58.6795 135 58.0597 134.692C57.4399 134.38 56.9593 133.948 56.6179 133.394C56.2765 132.841 56.1058 132.199 56.1058 131.47V124.818H57.9503V131.316C57.9503 131.74 58.0431 132.118 58.2287 132.45C58.4176 132.781 58.6828 133.041 59.0241 133.23C59.3655 133.416 59.7699 133.509 60.2372 133.509C60.7045 133.509 61.1089 133.416 61.4503 133.23C61.795 133.041 62.0601 132.781 62.2457 132.45C62.4313 132.118 62.5241 131.74 62.5241 131.316V124.818ZM75.0886 128.254H73.2292C73.1762 127.949 73.0784 127.679 72.9359 127.443C72.7934 127.205 72.6161 127.002 72.4039 126.837C72.1918 126.671 71.9499 126.547 71.6781 126.464C71.4096 126.378 71.1196 126.335 70.8081 126.335C70.2546 126.335 69.764 126.474 69.3365 126.752C68.9089 127.027 68.5742 127.432 68.3322 127.965C68.0903 128.496 67.9693 129.143 67.9693 129.909C67.9693 130.688 68.0903 131.344 68.3322 131.878C68.5775 132.408 68.9122 132.809 69.3365 133.081C69.764 133.349 70.2529 133.484 70.8031 133.484C71.108 133.484 71.3931 133.444 71.6582 133.364C71.9267 133.281 72.167 133.161 72.3791 133.001C72.5945 132.842 72.7752 132.647 72.921 132.415C73.0701 132.183 73.1729 131.918 73.2292 131.619L75.0886 131.629C75.019 132.113 74.8682 132.567 74.6362 132.991C74.4075 133.416 74.1075 133.79 73.7363 134.115C73.3651 134.437 72.9309 134.688 72.4338 134.871C71.9366 135.05 71.3848 135.139 70.7782 135.139C69.8833 135.139 69.0846 134.932 68.3819 134.518C67.6793 134.103 67.1258 133.505 66.7214 132.723C66.3171 131.941 66.1149 131.003 66.1149 129.909C66.1149 128.812 66.3187 127.874 66.7264 127.095C67.1341 126.313 67.6892 125.715 68.3919 125.3C69.0945 124.886 69.89 124.679 70.7782 124.679C71.345 124.679 71.872 124.759 72.3592 124.918C72.8464 125.077 73.2806 125.31 73.6618 125.619C74.0429 125.924 74.3561 126.298 74.6014 126.742C74.85 127.183 75.0124 127.687 75.0886 128.254ZM76.3303 126.364V124.818H84.4538V126.364H81.3068V135H79.4773V126.364H76.3303ZM87.8643 124.818V135H86.0199V124.818H87.8643ZM98.9597 129.909C98.9597 131.006 98.7542 131.946 98.3432 132.728C97.9355 133.507 97.3787 134.103 96.6728 134.518C95.9701 134.932 95.173 135.139 94.2814 135.139C93.3899 135.139 92.5911 134.932 91.8851 134.518C91.1825 134.1 90.6257 133.502 90.2147 132.723C89.807 131.941 89.6032 131.003 89.6032 129.909C89.6032 128.812 89.807 127.874 90.2147 127.095C90.6257 126.313 91.1825 125.715 91.8851 125.3C92.5911 124.886 93.3899 124.679 94.2814 124.679C95.173 124.679 95.9701 124.886 96.6728 125.3C97.3787 125.715 97.9355 126.313 98.3432 127.095C98.7542 127.874 98.9597 128.812 98.9597 129.909ZM97.1053 129.909C97.1053 129.137 96.9843 128.486 96.7424 127.955C96.5037 127.422 96.1723 127.019 95.748 126.747C95.3238 126.472 94.8349 126.335 94.2814 126.335C93.7279 126.335 93.2391 126.472 92.8148 126.747C92.3906 127.019 92.0575 127.422 91.8155 127.955C91.5769 128.486 91.4576 129.137 91.4576 129.909C91.4576 130.681 91.5769 131.334 91.8155 131.868C92.0575 132.398 92.3906 132.801 92.8148 133.076C93.2391 133.348 93.7279 133.484 94.2814 133.484C94.8349 133.484 95.3238 133.348 95.748 133.076C96.1723 132.801 96.5037 132.398 96.7424 131.868C96.9843 131.334 97.1053 130.681 97.1053 129.909ZM109.071 124.818V135H107.43L102.632 128.065H102.548V135H100.703V124.818H102.354L107.147 131.759H107.236V124.818H109.071Z" fill="white"/>
<path d="M20.3253 171.273V180H18.7443V172.811H18.6932L16.652 174.115V172.666L18.821 171.273H20.3253ZM23.0281 180.094C22.7695 180.094 22.5479 180.003 22.3633 179.821C22.1786 179.639 22.0877 179.418 22.0906 179.156C22.0877 178.901 22.1786 178.682 22.3633 178.5C22.5479 178.318 22.7695 178.227 23.0281 178.227C23.2781 178.227 23.4954 178.318 23.68 178.5C23.8675 178.682 23.9627 178.901 23.9656 179.156C23.9627 179.33 23.9173 179.487 23.8292 179.629C23.744 179.771 23.6303 179.885 23.4883 179.97C23.3491 180.053 23.1957 180.094 23.0281 180.094ZM25.3835 178.381V177.124L29.0866 171.273H30.1349V173.062H29.4957L27.0028 177.013V177.081H32.1719V178.381H25.3835ZM29.5469 180V177.997L29.5639 177.435V171.273H31.0554V180H29.5469ZM35.1154 178.807L35.06 179.276C35.0202 179.634 34.9492 179.997 34.8469 180.366C34.7475 180.739 34.6424 181.081 34.5316 181.393C34.4208 181.706 34.3313 181.952 34.2631 182.131H33.2234C33.2631 181.957 33.3171 181.722 33.3853 181.423C33.4563 181.125 33.5245 180.79 33.5898 180.418C33.6552 180.045 33.6992 179.668 33.7219 179.284L33.7518 178.807H35.1154ZM43.0831 171.273V180H41.5021V172.811H41.451L39.4098 174.115V172.666L41.5788 171.273H43.0831ZM45.7859 180.094C45.5273 180.094 45.3058 180.003 45.1211 179.821C44.9364 179.639 44.8455 179.418 44.8484 179.156C44.8455 178.901 44.9364 178.682 45.1211 178.5C45.3058 178.318 45.5273 178.227 45.7859 178.227C46.0359 178.227 46.2532 178.318 46.4379 178.5C46.6254 178.682 46.7205 178.901 46.7234 179.156C46.7205 179.33 46.6751 179.487 46.587 179.629C46.5018 179.771 46.3881 179.885 46.2461 179.97C46.1069 180.053 45.9535 180.094 45.7859 180.094ZM51.2276 180.119C50.6594 180.119 50.1509 180.013 49.7021 179.8C49.2532 179.584 48.8967 179.288 48.6325 178.913C48.3711 178.538 48.2319 178.109 48.2148 177.626H49.7489C49.7773 177.984 49.9322 178.277 50.2134 178.504C50.4947 178.729 50.8327 178.841 51.2276 178.841C51.5373 178.841 51.8129 178.77 52.0543 178.628C52.2958 178.486 52.4862 178.288 52.6254 178.036C52.7646 177.783 52.8327 177.494 52.8299 177.17C52.8327 176.841 52.7631 176.548 52.6211 176.293C52.479 176.037 52.2844 175.837 52.0373 175.692C51.7901 175.544 51.506 175.47 51.185 175.47C50.9237 175.467 50.6665 175.516 50.4137 175.615C50.1609 175.714 49.9606 175.845 49.8129 176.007L48.3853 175.773L48.8413 171.273H53.9038V172.594H50.1495L49.8981 174.908H49.9492C50.1112 174.717 50.3398 174.56 50.6353 174.435C50.9308 174.307 51.2546 174.243 51.6069 174.243C52.1353 174.243 52.6069 174.368 53.0217 174.618C53.4364 174.865 53.7631 175.206 54.0018 175.641C54.2404 176.075 54.3597 176.572 54.3597 177.132C54.3597 177.709 54.2262 178.223 53.9592 178.675C53.695 179.124 53.3271 179.477 52.8555 179.736C52.3867 179.991 51.8441 180.119 51.2276 180.119Z" fill="white"/>
</svg>
