<svg width="200" height="200" viewBox="0 0 200 200" fill="none" xmlns="http://www.w3.org/2000/svg">
<rect width="200" height="200" fill="#1E95D3"/>
<path d="M24.6506 24.5455V42H21.4886V27.6222H21.3864L17.304 30.2301V27.3324L21.642 24.5455H24.6506ZM28.767 38.7614V36.2472L36.1733 24.5455H38.2699V28.125H36.9915L32.0057 36.0256V36.1619H42.3438V38.7614H28.767ZM37.0938 42V37.9943L37.1278 36.8693V24.5455H40.1108V42H37.0938Z" fill="white"/>
<path d="M174.985 45.4232C174.283 44.536 169.776 39.0999 163.448 39.0999C157.955 39.0999 152.075 43.8037 152.075 43.8037C152.075 43.8037 149.866 39.5365 145.343 39.1281C145.313 39.1281 145.283 39.1281 145.254 39.1281H145.224C145.134 39.1281 145.045 39.2267 145.06 39.2971C145.06 39.3675 145.134 39.452 145.134 39.452C145.716 40.3674 147.194 42.9587 147.194 45.55C147.194 48.1412 145.701 50.7466 145.119 51.662L145.075 51.7183C145.075 51.7183 145.045 51.7747 145.045 51.8028C145.045 51.8873 145.119 51.9577 145.209 51.9718H145.254C145.254 51.9718 145.283 51.9718 145.298 51.9718C149.836 51.5775 152.045 47.2963 152.045 47.2963C152.045 47.2963 157.925 52 163.418 52C169.746 52 174.254 46.5639 174.955 45.6767C174.97 45.6486 174.985 45.6345 175 45.6204C175 45.6063 175 45.5781 175 45.55C175 45.5218 175 45.5077 175 45.4796C175 45.4655 174.97 45.4373 174.955 45.4232M166.94 46.24C165.925 46.24 165.089 45.4655 165.089 44.4937C165.089 43.522 165.925 42.7474 166.94 42.7474C167.955 42.7474 168.791 43.522 168.791 44.4937C168.791 45.4655 167.97 46.24 166.94 46.24Z" fill="white"/>
<path d="M145.209 28.9013H145.179C145.075 28.9013 145 28.9858 145 29.0703V30.2533C145 30.2533 145.015 30.3519 145.06 30.38C148.119 32.8868 151 30.5349 151.672 29.9153C151.672 29.9012 151.701 29.873 151.716 29.873C151.746 29.859 151.776 29.8449 151.821 29.8449C151.866 29.8449 151.91 29.859 151.94 29.8871C155.388 32.9995 159.015 30.4786 159.761 29.8871L159.836 29.8308C159.836 29.8308 159.881 29.8308 159.91 29.8308C159.94 29.8308 159.97 29.8308 159.985 29.8308L160.06 29.8871C160.806 30.4786 164.433 32.9995 167.881 29.8871C167.91 29.859 167.955 29.8449 168 29.8449C168.045 29.8449 168.075 29.8449 168.104 29.873C168.119 29.873 168.134 29.9012 168.149 29.9153C168.821 30.5349 171.701 32.8868 174.761 30.38C174.791 30.3519 174.821 30.3096 174.821 30.2533V29.0703C174.821 28.9717 174.746 28.9013 174.642 28.9013C174.642 28.9013 174.612 28.9013 174.597 28.9013C174.567 28.9154 174.537 28.9295 174.507 28.9436C173.567 29.3942 170.657 30.4504 168.015 28.0845C167.985 28.0563 167.97 28.0422 167.94 28.0141C167.91 28.0141 167.896 28 167.866 28C167.851 28 167.821 28 167.806 28C167.761 28.0141 167.731 28.0422 167.716 28.0704C166.925 28.6337 163.313 30.9434 160.09 28.1127L160.045 28.0704C160.045 28.0704 159.97 28.0141 159.91 28.0141C159.866 28.0141 159.821 28.0422 159.791 28.0704L159.746 28.1127C156.522 30.9434 152.896 28.6337 152.119 28.0704C152.104 28.0422 152.075 28.0141 152.03 28C152.015 28 151.985 28 151.97 28C151.94 28 151.925 28 151.896 28.0141C151.881 28.0422 151.851 28.0563 151.821 28.0845C149.179 30.4504 146.269 29.3942 145.328 28.9436C145.299 28.9295 145.269 28.9154 145.239 28.9013" fill="white"/>
<path d="M151.657 34.2399C151.657 34.2399 151.687 34.2118 151.701 34.1977C151.731 34.1836 151.761 34.1695 151.806 34.1695C151.851 34.1695 151.895 34.1836 151.925 34.2258C155.373 37.3241 159 34.8173 159.746 34.2258L159.821 34.1554C159.821 34.1554 159.866 34.1554 159.895 34.1554C159.925 34.1554 159.94 34.1554 159.97 34.1554L160.045 34.2258C160.791 34.8173 164.418 37.3241 167.866 34.2258C167.895 34.1977 167.94 34.1695 167.985 34.1695C168.03 34.1695 168.06 34.1836 168.089 34.1977C168.119 34.1977 168.119 34.2258 168.149 34.2399C168.821 34.8596 171.701 37.2114 174.761 34.7047C174.791 34.6765 174.821 34.6342 174.821 34.5779V33.3809C174.821 33.2823 174.746 33.2119 174.642 33.2119C174.642 33.2119 174.612 33.2119 174.597 33.2119C174.567 33.2119 174.537 33.24 174.507 33.2541C173.567 33.7048 170.657 34.7469 168.015 32.395C167.985 32.3669 167.97 32.3528 167.94 32.3246C167.91 32.3246 167.895 32.3105 167.866 32.3105C167.851 32.3105 167.836 32.3105 167.806 32.3105C167.761 32.3105 167.731 32.3387 167.716 32.381C166.925 32.9443 163.313 35.2539 160.089 32.4232L160.045 32.381C160.045 32.381 159.97 32.3387 159.91 32.3387C159.866 32.3387 159.821 32.3528 159.791 32.381L159.746 32.4232C156.522 35.2539 152.91 32.9443 152.119 32.381C152.104 32.3528 152.06 32.3246 152.03 32.3105C152.015 32.3105 151.985 32.3105 151.97 32.3105C151.94 32.3105 151.925 32.3105 151.895 32.3246C151.866 32.3528 151.851 32.3669 151.821 32.395C149.179 34.761 146.269 33.7048 145.328 33.2541C145.298 33.24 145.269 33.2259 145.239 33.2119H145.209C145.104 33.2119 145.03 33.2823 145.03 33.3809V34.5779C145.03 34.5779 145.045 34.6624 145.089 34.7047C148.149 37.2114 151.03 34.8596 151.701 34.2399" fill="white"/>
<path d="M17.0043 95V84.8182H18.8487V93.4538H23.3331V95H17.0043ZM26.7784 84.8182V95H24.9339V84.8182H26.7784ZM28.7757 95V84.8182H35.2985V86.3643H30.6202V89.1286H34.851V90.6747H30.6202V95H28.7757ZM36.9789 95V84.8182H43.601V86.3643H38.8233V89.1286H43.258V90.6747H38.8233V93.4538H43.6408V95H36.9789ZM48.9554 95V84.8182H52.8532C53.589 84.8182 54.2005 84.9342 54.6877 85.1662C55.1782 85.3949 55.5444 85.7081 55.7864 86.1058C56.0317 86.5036 56.1543 86.9543 56.1543 87.4581C56.1543 87.8724 56.0748 88.227 55.9157 88.522C55.7566 88.8137 55.5428 89.0507 55.2743 89.233C55.0059 89.4152 54.7059 89.5462 54.3745 89.6257V89.7251C54.7357 89.745 55.0821 89.8561 55.4135 90.0582C55.7483 90.2571 56.0217 90.5388 56.2338 90.9034C56.446 91.268 56.552 91.7088 56.552 92.2259C56.552 92.7528 56.4244 93.2268 56.1692 93.6477C55.914 94.0653 55.5295 94.3951 55.0158 94.6371C54.5021 94.879 53.8558 95 53.0769 95H48.9554ZM50.7999 93.4588H52.7836C53.4531 93.4588 53.9353 93.3312 54.2303 93.076C54.5286 92.8175 54.6777 92.486 54.6777 92.0817C54.6777 91.7801 54.6032 91.5083 54.454 91.2663C54.3049 91.0211 54.0927 90.8288 53.8176 90.6896C53.5426 90.5471 53.2144 90.4759 52.8333 90.4759H50.7999V93.4588ZM50.7999 89.1484H52.6245C52.9426 89.1484 53.2293 89.0904 53.4846 88.9744C53.7398 88.8551 53.9403 88.6877 54.0861 88.4723C54.2353 88.2536 54.3098 87.995 54.3098 87.6967C54.3098 87.3023 54.1706 86.9775 53.8922 86.7223C53.6171 86.4671 53.2078 86.3395 52.6642 86.3395H50.7999V89.1484ZM58.1566 95V84.8182H64.7788V86.3643H60.0011V89.1286H64.4357V90.6747H60.0011V93.4538H64.8185V95H58.1566ZM66.6605 95V84.8182H68.505V93.4538H72.9893V95H66.6605ZM83.2917 89.9091C83.2917 91.0062 83.0862 91.9458 82.6752 92.728C82.2676 93.5069 81.7108 94.1035 81.0048 94.5178C80.3021 94.9321 79.505 95.1392 78.6135 95.1392C77.7219 95.1392 76.9231 94.9321 76.2172 94.5178C75.5145 94.1001 74.9577 93.5019 74.5467 92.723C74.139 91.9408 73.9352 91.0028 73.9352 89.9091C73.9352 88.812 74.139 87.8741 74.5467 87.0952C74.9577 86.313 75.5145 85.7147 76.2172 85.3004C76.9231 84.8861 77.7219 84.679 78.6135 84.679C79.505 84.679 80.3021 84.8861 81.0048 85.3004C81.7108 85.7147 82.2676 86.313 82.6752 87.0952C83.0862 87.8741 83.2917 88.812 83.2917 89.9091ZM81.4373 89.9091C81.4373 89.1368 81.3163 88.4856 81.0744 87.9553C80.8358 87.4216 80.5043 87.0189 80.0801 86.7472C79.6558 86.4721 79.167 86.3345 78.6135 86.3345C78.06 86.3345 77.5711 86.4721 77.1468 86.7472C76.7226 87.0189 76.3895 87.4216 76.1475 87.9553C75.9089 88.4856 75.7896 89.1368 75.7896 89.9091C75.7896 90.6813 75.9089 91.3343 76.1475 91.8679C76.3895 92.3982 76.7226 92.8009 77.1468 93.076C77.5711 93.3478 78.06 93.4837 78.6135 93.4837C79.167 93.4837 79.6558 93.3478 80.0801 93.076C80.5043 92.8009 80.8358 92.3982 81.0744 91.8679C81.3163 91.3343 81.4373 90.6813 81.4373 89.9091ZM86.9185 95L84.0449 84.8182H86.0286L87.8631 92.3004H87.9576L89.9164 84.8182H91.7211L93.6848 92.3054H93.7743L95.6088 84.8182H97.5925L94.7189 95H92.8993L90.861 87.8558H90.7814L88.7381 95H86.9185ZM104.487 95L101.613 84.8182H103.597L105.431 92.3004H105.526L107.485 84.8182H109.289L111.253 92.3054H111.343L113.177 84.8182H115.161L112.287 95H110.468L108.429 87.8558H108.35L106.306 95H104.487ZM116.79 95H114.822L118.406 84.8182H120.683L124.273 95H122.304L119.584 86.9062H119.505L116.79 95ZM116.855 91.0078H122.224V92.4893H116.855V91.0078ZM123.936 86.3643V84.8182H132.059V86.3643H128.912V95H127.083V86.3643H123.936ZM133.625 95V84.8182H140.248V86.3643H135.47V89.1286H139.904V90.6747H135.47V93.4538H140.287V95H133.625ZM142.129 95V84.8182H145.947C146.73 84.8182 147.386 84.9541 147.916 85.2259C148.45 85.4976 148.853 85.8788 149.124 86.3693C149.399 86.8565 149.537 87.425 149.537 88.0746C149.537 88.7275 149.398 89.2943 149.119 89.7749C148.844 90.2521 148.438 90.6217 147.901 90.8835C147.364 91.142 146.705 91.2713 145.923 91.2713H143.203V89.7401H145.674C146.131 89.7401 146.506 89.6771 146.798 89.5511C147.089 89.4219 147.305 89.2346 147.444 88.9893C147.586 88.7408 147.658 88.4358 147.658 88.0746C147.658 87.7133 147.586 87.4051 147.444 87.1499C147.301 86.8913 147.084 86.6958 146.793 86.5632C146.501 86.4273 146.125 86.3594 145.664 86.3594H143.974V95H142.129ZM147.389 90.3864L149.91 95H147.852L145.376 90.3864H147.389Z" fill="white"/>
<path d="M20.3253 171.273V180H18.7443V172.811H18.6932L16.652 174.115V172.666L18.821 171.273H20.3253ZM23.0281 180.094C22.7695 180.094 22.5479 180.003 22.3633 179.821C22.1786 179.639 22.0877 179.418 22.0906 179.156C22.0877 178.901 22.1786 178.682 22.3633 178.5C22.5479 178.318 22.7695 178.227 23.0281 178.227C23.2781 178.227 23.4954 178.318 23.68 178.5C23.8675 178.682 23.9627 178.901 23.9656 179.156C23.9627 179.33 23.9173 179.487 23.8292 179.629C23.744 179.771 23.6303 179.885 23.4883 179.97C23.3491 180.053 23.1957 180.094 23.0281 180.094ZM25.3835 178.381V177.124L29.0866 171.273H30.1349V173.062H29.4957L27.0028 177.013V177.081H32.1719V178.381H25.3835ZM29.5469 180V177.997L29.5639 177.435V171.273H31.0554V180H29.5469ZM35.1154 178.807L35.06 179.276C35.0202 179.634 34.9492 179.997 34.8469 180.366C34.7475 180.739 34.6424 181.081 34.5316 181.393C34.4208 181.706 34.3313 181.952 34.2631 182.131H33.2234C33.2631 181.957 33.3171 181.722 33.3853 181.423C33.4563 181.125 33.5245 180.79 33.5898 180.418C33.6552 180.045 33.6992 179.668 33.7219 179.284L33.7518 178.807H35.1154ZM43.0831 171.273V180H41.5021V172.811H41.451L39.4098 174.115V172.666L41.5788 171.273H43.0831ZM45.7859 180.094C45.5273 180.094 45.3058 180.003 45.1211 179.821C44.9364 179.639 44.8455 179.418 44.8484 179.156C44.8455 178.901 44.9364 178.682 45.1211 178.5C45.3058 178.318 45.5273 178.227 45.7859 178.227C46.0359 178.227 46.2532 178.318 46.4379 178.5C46.6254 178.682 46.7205 178.901 46.7234 179.156C46.7205 179.33 46.6751 179.487 46.587 179.629C46.5018 179.771 46.3881 179.885 46.2461 179.97C46.1069 180.053 45.9535 180.094 45.7859 180.094ZM51.2276 180.119C50.6594 180.119 50.1509 180.013 49.7021 179.8C49.2532 179.584 48.8967 179.288 48.6325 178.913C48.3711 178.538 48.2319 178.109 48.2148 177.626H49.7489C49.7773 177.984 49.9322 178.277 50.2134 178.504C50.4947 178.729 50.8327 178.841 51.2276 178.841C51.5373 178.841 51.8129 178.77 52.0543 178.628C52.2958 178.486 52.4862 178.288 52.6254 178.036C52.7646 177.783 52.8327 177.494 52.8299 177.17C52.8327 176.841 52.7631 176.548 52.6211 176.293C52.479 176.037 52.2844 175.837 52.0373 175.692C51.7901 175.544 51.506 175.47 51.185 175.47C50.9237 175.467 50.6665 175.516 50.4137 175.615C50.1609 175.714 49.9606 175.845 49.8129 176.007L48.3853 175.773L48.8413 171.273H53.9038V172.594H50.1495L49.8981 174.908H49.9492C50.1112 174.717 50.3398 174.56 50.6353 174.435C50.9308 174.307 51.2546 174.243 51.6069 174.243C52.1353 174.243 52.6069 174.368 53.0217 174.618C53.4364 174.865 53.7631 175.206 54.0018 175.641C54.2404 176.075 54.3597 176.572 54.3597 177.132C54.3597 177.709 54.2262 178.223 53.9592 178.675C53.695 179.124 53.3271 179.477 52.8555 179.736C52.3867 179.991 51.8441 180.119 51.2276 180.119Z" fill="white"/>
</svg>
