<svg width="200" height="200" viewBox="0 0 200 200" fill="none" xmlns="http://www.w3.org/2000/svg">
<rect width="200" height="200" fill="#F04E3A"/>
<path d="M23.6193 42.2386C22.483 42.2386 21.4659 42.0256 20.5682 41.5994C19.6705 41.1676 18.9574 40.5767 18.429 39.8267C17.9063 39.0767 17.6278 38.2187 17.5938 37.2528H20.6619C20.7188 37.9687 21.0284 38.554 21.5909 39.0085C22.1534 39.4574 22.8295 39.6818 23.6193 39.6818C24.2386 39.6818 24.7898 39.5398 25.2727 39.2557C25.7557 38.9716 26.1364 38.5767 26.4148 38.071C26.6932 37.5653 26.8295 36.9886 26.8239 36.3409C26.8295 35.6818 26.6903 35.0966 26.4062 34.5852C26.1222 34.0739 25.733 33.6733 25.2386 33.3835C24.7443 33.0881 24.1761 32.9403 23.5341 32.9403C23.0114 32.9347 22.4972 33.0312 21.9915 33.2301C21.4858 33.429 21.0852 33.6903 20.7898 34.0142L17.9347 33.5455L18.8466 24.5455H28.9716V27.1875H21.4631L20.9602 31.8153H21.0625C21.3864 31.4347 21.8438 31.1193 22.4347 30.8693C23.0256 30.6136 23.6733 30.4858 24.3778 30.4858C25.4347 30.4858 26.3778 30.7358 27.2074 31.2358C28.0369 31.7301 28.6903 32.4119 29.1676 33.2812C29.6449 34.1506 29.8835 35.1449 29.8835 36.2642C29.8835 37.4176 29.6165 38.446 29.0824 39.3494C28.554 40.2472 27.8182 40.9545 26.875 41.4716C25.9375 41.983 24.8523 42.2386 23.6193 42.2386Z" fill="white"/>
<path d="M171.866 24.25H164.33C164.33 24.25 164.223 24.3021 164.223 24.3542V26.8033C164.223 26.8033 164.276 26.9076 164.33 26.9076H167.323L163.982 30.1644C162.298 28.8877 160.187 28.1061 157.889 28.1061C152.437 28.1061 148 32.4311 148 37.7463C148 42.6445 151.742 46.683 156.606 47.2823V50.0962H153.639C153.639 50.0962 153.532 50.1483 153.532 50.2004V52.8319C153.532 52.8319 153.586 52.91 153.639 52.91H156.606V55.6718C156.606 55.6718 156.659 55.75 156.713 55.75H159.412C159.412 55.75 159.519 55.6979 159.519 55.6718V52.91H162.486C162.486 52.91 162.592 52.8579 162.592 52.8319V50.2004C162.592 50.2004 162.539 50.0962 162.486 50.0962H159.519V47.2301C164.196 46.4746 167.804 42.5143 167.804 37.7202C167.804 35.6619 167.136 33.7599 165.987 32.1967L169.274 28.9919V31.7277C169.274 31.7277 169.327 31.8319 169.381 31.8319H171.893C171.893 31.8319 172 31.7798 172 31.7277V24.3803C172 24.3803 171.947 24.2761 171.893 24.2761M157.942 44.8071C153.933 44.8071 150.673 41.6284 150.673 37.7202C150.673 33.812 153.933 30.6334 157.942 30.6334C161.951 30.6334 165.212 33.812 165.212 37.7202C165.212 41.6284 161.951 44.8071 157.942 44.8071Z" fill="white"/>
<path d="M162.325 34.8015H153.506C153.506 34.8015 153.399 34.8536 153.399 34.8796V36.964C153.399 36.964 153.452 37.0421 153.506 37.0421H162.325C162.325 37.0421 162.432 37.0161 162.432 36.964V34.8796C162.432 34.8796 162.379 34.8015 162.325 34.8015Z" fill="white"/>
<path d="M162.325 38.5016H153.506C153.506 38.5016 153.399 38.5537 153.399 38.5797V40.6641C153.399 40.6641 153.452 40.7423 153.506 40.7423H162.325C162.325 40.7423 162.432 40.7162 162.432 40.6641V38.5797C162.432 38.5797 162.379 38.5016 162.325 38.5016Z" fill="white"/>
<path d="M23.8253 88.0696C23.7424 87.8011 23.6281 87.5608 23.4822 87.3487C23.3397 87.1333 23.1674 86.9493 22.9652 86.7969C22.7663 86.6444 22.5376 86.5301 22.2791 86.4538C22.0206 86.3743 21.7389 86.3345 21.4339 86.3345C20.8871 86.3345 20.3999 86.4721 19.9723 86.7472C19.5447 87.0223 19.2083 87.4266 18.9631 87.9602C18.7211 88.4905 18.6001 89.1368 18.6001 89.8991C18.6001 90.6681 18.7211 91.3194 18.9631 91.853C19.205 92.3866 19.5414 92.7926 19.9723 93.071C20.4032 93.3461 20.9036 93.4837 21.4737 93.4837C21.9908 93.4837 22.4382 93.3842 22.8161 93.1854C23.1972 92.9865 23.4905 92.7048 23.696 92.3402C23.9015 91.9723 24.0043 91.5414 24.0043 91.0476L24.4219 91.1122H21.6577V89.6705H25.7891V90.8935C25.7891 91.7652 25.6035 92.5192 25.2322 93.1555C24.861 93.7919 24.3506 94.2824 23.701 94.6271C23.0514 94.9685 22.3056 95.1392 21.4638 95.1392C20.5258 95.1392 19.7022 94.9287 18.9929 94.5078C18.2869 94.0836 17.7351 93.482 17.3374 92.7031C16.9429 91.9209 16.7457 90.9929 16.7457 89.919C16.7457 89.0971 16.8617 88.3629 17.0938 87.7166C17.3291 87.0703 17.6572 86.5218 18.0781 86.071C18.4991 85.617 18.9929 85.2723 19.5597 85.0369C20.1264 84.7983 20.7429 84.679 21.4091 84.679C21.9725 84.679 22.4979 84.7618 22.9851 84.9276C23.4723 85.09 23.9048 85.322 24.2827 85.6236C24.6638 85.9252 24.977 86.2831 25.2223 86.6974C25.4676 87.1117 25.6283 87.5691 25.7045 88.0696H23.8253ZM27.5726 95V84.8182H34.1948V86.3643H29.4171V89.1286H33.8517V90.6747H29.4171V93.4538H34.2346V95H27.5726ZM44.4437 84.8182V95H42.8031L38.0055 88.0646H37.921V95H36.0765V84.8182H37.7271L42.5197 91.7585H42.6092V84.8182H44.4437ZM49.9038 95H46.4535V84.8182H49.9734C50.9843 84.8182 51.8526 85.022 52.5785 85.4297C53.3076 85.834 53.8678 86.4157 54.2589 87.1747C54.65 87.9337 54.8455 88.8419 54.8455 89.8991C54.8455 90.9598 54.6483 91.8712 54.2539 92.6335C53.8628 93.3958 53.2977 93.9808 52.5586 94.3885C51.8228 94.7962 50.9379 95 49.9038 95ZM48.2979 93.4041H49.8143C50.5236 93.4041 51.1152 93.2749 51.5891 93.0163C52.0631 92.7545 52.4194 92.3651 52.658 91.848C52.8967 91.3277 53.016 90.678 53.016 89.8991C53.016 89.1203 52.8967 88.474 52.658 87.9602C52.4194 87.4432 52.0664 87.0571 51.5991 86.8018C51.1351 86.5433 50.5584 86.4141 49.869 86.4141H48.2979V93.4041ZM56.598 95V84.8182H63.2202V86.3643H58.4425V89.1286H62.8771V90.6747H58.4425V93.4538H63.2599V95H56.598ZM65.1019 95V84.8182H68.9201C69.7023 84.8182 70.3585 84.9541 70.8888 85.2259C71.4225 85.4976 71.8252 85.8788 72.0969 86.3693C72.372 86.8565 72.5096 87.425 72.5096 88.0746C72.5096 88.7275 72.3704 89.2943 72.092 89.7749C71.8169 90.2521 71.4109 90.6217 70.8739 90.8835C70.337 91.142 69.6774 91.2713 68.8952 91.2713H66.1758V89.7401H68.6467C69.104 89.7401 69.4786 89.6771 69.7702 89.5511C70.0619 89.4219 70.2773 89.2346 70.4165 88.9893C70.5591 88.7408 70.6303 88.4358 70.6303 88.0746C70.6303 87.7133 70.5591 87.4051 70.4165 87.1499C70.274 86.8913 70.0569 86.6958 69.7653 86.5632C69.4736 86.4273 69.0974 86.3594 68.6367 86.3594H66.9464V95H65.1019ZM70.3619 90.3864L72.8825 95H70.8242L68.3484 90.3864H70.3619ZM77.68 95V84.8182H84.3022V86.3643H79.5245V89.1286H83.9592V90.6747H79.5245V93.4538H84.342V95H77.68ZM89.9773 91.5795H91.6477L92.6371 92.8622L93.343 93.6974L95.0384 95.875H93.2486L92.0952 94.4134L91.603 93.7173L89.9773 91.5795ZM95.282 89.9091C95.282 91.0062 95.0765 91.9458 94.6655 92.728C94.2578 93.5069 93.701 94.1035 92.995 94.5178C92.2924 94.9321 91.4953 95.1392 90.6037 95.1392C89.7121 95.1392 88.9134 94.9321 88.2074 94.5178C87.5047 94.1001 86.9479 93.5019 86.5369 92.723C86.1293 91.9408 85.9254 91.0028 85.9254 89.9091C85.9254 88.812 86.1293 87.8741 86.5369 87.0952C86.9479 86.313 87.5047 85.7147 88.2074 85.3004C88.9134 84.8861 89.7121 84.679 90.6037 84.679C91.4953 84.679 92.2924 84.8861 92.995 85.3004C93.701 85.7147 94.2578 86.313 94.6655 87.0952C95.0765 87.8741 95.282 88.812 95.282 89.9091ZM93.4276 89.9091C93.4276 89.1368 93.3066 88.4856 93.0646 87.9553C92.826 87.4216 92.4946 87.0189 92.0703 86.7472C91.6461 86.4721 91.1572 86.3345 90.6037 86.3345C90.0502 86.3345 89.5613 86.4721 89.1371 86.7472C88.7128 87.0189 88.3797 87.4216 88.1378 87.9553C87.8991 88.4856 87.7798 89.1368 87.7798 89.9091C87.7798 90.6813 87.8991 91.3343 88.1378 91.8679C88.3797 92.3982 88.7128 92.8009 89.1371 93.076C89.5613 93.3478 90.0502 93.4837 90.6037 93.4837C91.1572 93.4837 91.6461 93.3478 92.0703 93.076C92.4946 92.8009 92.826 92.3982 93.0646 91.8679C93.3066 91.3343 93.4276 90.6813 93.4276 89.9091ZM103.458 84.8182H105.302V91.4702C105.302 92.1993 105.13 92.8407 104.785 93.3942C104.444 93.9477 103.963 94.3802 103.343 94.6918C102.724 95 101.999 95.1541 101.171 95.1541C100.339 95.1541 99.613 95 98.9933 94.6918C98.3735 94.3802 97.8929 93.9477 97.5515 93.3942C97.2101 92.8407 97.0394 92.1993 97.0394 91.4702V84.8182H98.8839V91.3161C98.8839 91.7403 98.9767 92.1181 99.1623 92.4496C99.3512 92.781 99.6164 93.0412 99.9577 93.2301C100.299 93.4157 100.703 93.5085 101.171 93.5085C101.638 93.5085 102.042 93.4157 102.384 93.2301C102.729 93.0412 102.994 92.781 103.179 92.4496C103.365 92.1181 103.458 91.7403 103.458 91.3161V84.8182ZM108.615 95H106.646L110.23 84.8182H112.507L116.097 95H114.128L111.409 86.9062H111.329L108.615 95ZM108.679 91.0078H114.048V92.4893H108.679V91.0078ZM117.438 95V84.8182H119.282V93.4538H123.767V95H117.438ZM127.212 84.8182V95H125.368V84.8182H127.212ZM128.762 86.3643V84.8182H136.885V86.3643H133.738V95H131.909V86.3643H128.762ZM137.756 84.8182H139.839L142.329 89.3224H142.429L144.92 84.8182H147.003L143.299 91.2017V95H141.459V91.2017L137.756 84.8182Z" fill="white"/>
<path d="M20.3253 171.273V180H18.7443V172.811H18.6932L16.652 174.115V172.666L18.821 171.273H20.3253ZM23.0281 180.094C22.7695 180.094 22.5479 180.003 22.3633 179.821C22.1786 179.639 22.0877 179.418 22.0906 179.156C22.0877 178.901 22.1786 178.682 22.3633 178.5C22.5479 178.318 22.7695 178.227 23.0281 178.227C23.2781 178.227 23.4954 178.318 23.68 178.5C23.8675 178.682 23.9627 178.901 23.9656 179.156C23.9627 179.33 23.9173 179.487 23.8292 179.629C23.744 179.771 23.6303 179.885 23.4883 179.97C23.3491 180.053 23.1957 180.094 23.0281 180.094ZM25.3835 178.381V177.124L29.0866 171.273H30.1349V173.062H29.4957L27.0028 177.013V177.081H32.1719V178.381H25.3835ZM29.5469 180V177.997L29.5639 177.435V171.273H31.0554V180H29.5469ZM35.1154 178.807L35.06 179.276C35.0202 179.634 34.9492 179.997 34.8469 180.366C34.7475 180.739 34.6424 181.081 34.5316 181.393C34.4208 181.706 34.3313 181.952 34.2631 182.131H33.2234C33.2631 181.957 33.3171 181.722 33.3853 181.423C33.4563 181.125 33.5245 180.79 33.5898 180.418C33.6552 180.045 33.6992 179.668 33.7219 179.284L33.7518 178.807H35.1154ZM43.0831 171.273V180H41.5021V172.811H41.451L39.4098 174.115V172.666L41.5788 171.273H43.0831ZM45.7859 180.094C45.5273 180.094 45.3058 180.003 45.1211 179.821C44.9364 179.639 44.8455 179.418 44.8484 179.156C44.8455 178.901 44.9364 178.682 45.1211 178.5C45.3058 178.318 45.5273 178.227 45.7859 178.227C46.0359 178.227 46.2532 178.318 46.4379 178.5C46.6254 178.682 46.7205 178.901 46.7234 179.156C46.7205 179.33 46.6751 179.487 46.587 179.629C46.5018 179.771 46.3881 179.885 46.2461 179.97C46.1069 180.053 45.9535 180.094 45.7859 180.094ZM51.2276 180.119C50.6594 180.119 50.1509 180.013 49.7021 179.8C49.2532 179.584 48.8967 179.288 48.6325 178.913C48.3711 178.538 48.2319 178.109 48.2148 177.626H49.7489C49.7773 177.984 49.9322 178.277 50.2134 178.504C50.4947 178.729 50.8327 178.841 51.2276 178.841C51.5373 178.841 51.8129 178.77 52.0543 178.628C52.2958 178.486 52.4862 178.288 52.6254 178.036C52.7646 177.783 52.8327 177.494 52.8299 177.17C52.8327 176.841 52.7631 176.548 52.6211 176.293C52.479 176.037 52.2844 175.837 52.0373 175.692C51.7901 175.544 51.506 175.47 51.185 175.47C50.9237 175.467 50.6665 175.516 50.4137 175.615C50.1609 175.714 49.9606 175.845 49.8129 176.007L48.3853 175.773L48.8413 171.273H53.9038V172.594H50.1495L49.8981 174.908H49.9492C50.1112 174.717 50.3398 174.56 50.6353 174.435C50.9308 174.307 51.2546 174.243 51.6069 174.243C52.1353 174.243 52.6069 174.368 53.0217 174.618C53.4364 174.865 53.7631 175.206 54.0018 175.641C54.2404 176.075 54.3597 176.572 54.3597 177.132C54.3597 177.709 54.2262 178.223 53.9592 178.675C53.695 179.124 53.3271 179.477 52.8555 179.736C52.3867 179.991 51.8441 180.119 51.2276 180.119Z" fill="white"/>
</svg>
