<svg width="200" height="200" viewBox="0 0 200 200" fill="none" xmlns="http://www.w3.org/2000/svg">
<rect width="200" height="200" fill="#44824B"/>
<path d="M24.6506 24.5455V42H21.4886V27.6222H21.3864L17.304 30.2301V27.3324L21.642 24.5455H24.6506ZM35.3466 42.2386C34.1193 42.2386 33.0284 42.0284 32.0739 41.608C31.125 41.1875 30.375 40.6023 29.8239 39.8523C29.2727 39.1023 28.9801 38.2358 28.946 37.2528H32.1506C32.179 37.7244 32.3352 38.1364 32.6193 38.4886C32.9034 38.8352 33.2813 39.1051 33.7528 39.2983C34.2244 39.4915 34.7528 39.5881 35.3381 39.5881C35.9631 39.5881 36.517 39.4801 37 39.2642C37.483 39.0426 37.8608 38.7358 38.1335 38.3438C38.4063 37.9517 38.5398 37.5 38.5341 36.9886C38.5398 36.4602 38.4034 35.9943 38.125 35.5909C37.8466 35.1875 37.4432 34.8722 36.9148 34.6449C36.392 34.4176 35.7614 34.304 35.0227 34.304H33.4801V31.8665H35.0227C35.6307 31.8665 36.1619 31.7614 36.6165 31.5511C37.0767 31.3409 37.4375 31.0455 37.6989 30.6648C37.9602 30.2784 38.0881 29.8324 38.0824 29.3267C38.0881 28.8324 37.9773 28.4034 37.75 28.0398C37.5284 27.6705 37.2131 27.3835 36.804 27.179C36.4006 26.9744 35.9261 26.8722 35.3807 26.8722C34.8466 26.8722 34.3523 26.9687 33.8977 27.1619C33.4432 27.3551 33.0767 27.6307 32.7983 27.9886C32.5199 28.3409 32.3722 28.7614 32.3551 29.25H29.3125C29.3352 28.2727 29.6165 27.4148 30.1562 26.6761C30.7017 25.9318 31.429 25.3523 32.3381 24.9375C33.2472 24.517 34.267 24.3068 35.3977 24.3068C36.5625 24.3068 37.5739 24.5256 38.4318 24.9631C39.2955 25.3949 39.9631 25.9773 40.4347 26.7102C40.9063 27.4432 41.142 28.2528 41.142 29.1392C41.1477 30.1222 40.858 30.946 40.2727 31.6108C39.6932 32.2756 38.9318 32.7102 37.9886 32.9148V33.0511C39.2159 33.2216 40.1563 33.6761 40.8097 34.4148C41.4688 35.1477 41.7955 36.0597 41.7898 37.1506C41.7898 38.1278 41.5114 39.0028 40.9545 39.7756C40.4034 40.5426 39.642 41.1449 38.6705 41.5824C37.7045 42.0199 36.5966 42.2386 35.3466 42.2386Z" fill="white"/>
<path d="M180.084 40.1621C178.665 38.1749 172.276 30.25 160.375 30.25C148.474 30.25 142.085 38.1749 140.666 40.1621C140.595 40.2567 140.547 40.3277 140.5 40.375C140.547 40.446 140.595 40.5169 140.666 40.5879C142.085 42.5751 148.474 50.5 160.375 50.5C172.276 50.5 178.665 42.5751 180.084 40.5879C180.155 40.4933 180.203 40.4223 180.25 40.375C180.203 40.304 180.155 40.2331 180.084 40.1621ZM153.726 35.2652C153.845 35.0996 154.2 34.6501 154.223 34.6028C154.318 34.4845 154.507 34.4609 154.625 34.4372C154.744 34.4136 154.909 34.4845 154.933 34.5791C154.933 34.6738 154.886 35.0523 154.815 35.0996C154.649 35.2888 154.176 35.5254 153.939 35.5018C153.75 35.4781 153.679 35.3125 153.703 35.2652M153.277 36.1168C153.277 36.1168 153.3 36.0695 153.324 36.0695C153.466 35.9039 153.774 35.8566 153.987 35.8329C154.2 35.8093 154.46 35.9039 154.507 36.0459C154.554 36.1878 153.987 36.4244 153.892 36.519C153.608 36.7792 153.158 37.3233 152.898 37.3706C152.804 37.3706 152.733 37.3706 152.685 37.347C152.851 36.9211 153.064 36.4953 153.3 36.1168M157.749 45.2483C157.583 45.887 157.394 46.0999 157.228 46.3128C157.062 46.5257 156.471 46.7623 156.092 46.7386C155.714 46.715 155.667 45.6977 155.667 45.1773C155.667 44.988 155.406 45.5321 155.288 44.4439C155.193 43.7579 154.767 44.5149 154.72 44.0654C154.696 43.6159 154.46 43.6869 154.223 43.403C153.987 43.1192 153.703 43.4267 153.371 43.5686C153.04 43.7106 153.182 43.7815 152.733 43.6396C152.733 43.6396 152.733 43.6396 152.709 43.6396C152.283 42.646 152.07 41.5578 152.07 40.4223C152.07 40.1384 152.07 39.8782 152.117 39.5943C152.117 39.5707 152.141 39.547 152.165 39.5234C152.591 39.0029 152.591 38.8846 152.591 38.8846L153.064 38.719C153.064 38.719 153.845 38.8373 154.413 39.0502C154.886 39.2395 155.643 39.6416 156.092 39.4524C156.4 39.3341 156.66 39.1449 156.637 38.8846C156.589 38.5534 156.353 38.4825 156.021 38.6954C155.903 38.7664 155.667 38.1986 155.454 38.2223C155.264 38.2459 155.69 38.9083 155.525 38.9319C155.359 38.9556 155.028 38.2459 154.957 38.1276C154.909 38.0093 154.649 37.7255 154.413 37.9384C153.916 38.4115 153.135 38.3642 152.969 38.4825C152.496 38.8373 152.354 38.3642 152.378 38.0803C152.378 38.0093 152.425 37.9384 152.425 37.8674C152.591 37.7018 153.158 37.6308 153.348 37.7728C153.561 37.9147 153.726 37.7255 153.797 37.6545C153.892 37.5599 153.845 37.4179 153.797 37.3233C153.75 37.205 153.916 37.1341 154.01 37.0867C154.129 37.0631 154.483 36.8029 154.649 36.7082C154.791 36.6136 155.572 36.519 155.903 36.7082C156.234 36.8975 156.566 36.7319 156.731 36.5426C156.944 36.2824 157.204 36.0932 157.323 36.0459C157.441 35.9985 157.039 35.5964 156.684 36.0459C156.353 36.4717 156.163 36.4953 155.998 36.4953C155.832 36.4953 154.886 36.2588 154.767 35.9512C154.649 35.6437 155.075 35.4308 155.43 35.2652C155.785 35.0996 156.755 35.0996 156.992 35.0523C157.488 34.934 158.127 34.6974 158.458 34.9103C158.79 35.1232 157.11 35.5018 157.654 35.8093C157.843 35.9039 158.742 35.3125 159.026 35.1469C159.736 34.7684 158.34 34.6501 158.506 33.9168C158.719 33.0651 156.779 33.3963 155.832 33.4673C157.11 32.6393 158.648 32.1662 160.304 32.1662C164.208 32.1662 167.497 34.8867 168.372 38.5061C168.372 38.6954 168.372 38.8137 168.325 38.8846C168.254 39.1922 167.686 39.4287 167.355 38.9556C167.26 38.8373 166.929 38.5061 166.929 39.0739C166.929 39.6416 167.497 39.7126 166.953 40.0438C166.432 40.3987 166.314 40.304 166.077 40.3987C165.841 40.4933 165.604 41.0847 165.651 41.3922C165.699 41.6998 166.456 42.5751 165.912 42.5277C165.793 42.5277 164.8 41.8417 164.634 41.4159C164.468 40.9664 164.279 40.5169 164.137 40.1621C163.995 39.8072 163.664 39.7363 163.356 39.9255C163.072 40.1384 163.451 40.3277 163.238 40.7535C163.025 41.1793 162.883 41.5578 162.552 41.203C161.747 40.2804 160.564 40.7298 160.375 39.7126C160.28 39.1449 159.783 39.2158 159.381 38.8846C158.979 38.5771 158.742 38.3879 158.671 38.6244C158.6 38.8137 159.949 39.8782 160.044 40.1384C160.186 40.5406 159.642 40.8954 159.263 40.9901C158.861 41.0847 158.695 40.7772 158.317 40.375C157.938 39.9728 157.772 39.689 157.749 39.9965C157.701 40.446 158.104 41.132 158.506 41.3686C158.837 41.5815 159.216 41.6761 159.097 42.031C158.979 42.3858 159.097 42.1729 158.719 42.5514C158.34 42.9299 158.269 43.0482 158.293 43.5686C158.317 44.0891 158.198 44.1127 158.104 44.5386C158.033 44.9644 157.843 44.5859 157.678 45.2246M166.574 41.9127C166.858 41.9127 167.284 42.2675 167.118 42.4331C166.953 42.5751 166.55 42.5277 166.337 42.3622C166.125 42.1966 166.479 41.9363 166.598 41.9127M166.243 41.6525C166.243 41.6525 166.077 41.5342 166.006 41.3213C165.935 41.1084 166.101 40.9901 166.267 41.0847C166.432 41.1793 166.669 41.4159 166.669 41.5578C166.669 41.6998 166.338 41.6761 166.243 41.6288M162.575 41.6288C162.41 41.7707 161.984 41.7234 161.795 41.5578C161.582 41.3922 161.937 41.132 162.055 41.1084C162.339 41.0847 162.765 41.4632 162.599 41.6288M159.216 43.2848C159.097 43.474 158.79 44.8697 158.577 44.7041C158.364 44.5386 158.648 43.0955 158.719 42.9772C159.05 42.3858 159.76 42.4095 159.216 43.2848ZM160.351 48.6784C159.547 48.6784 158.766 48.5602 158.033 48.3473C157.938 48.2526 157.867 48.1107 157.938 47.9451C158.198 47.2827 158.955 47.0225 159.571 46.9515C160.919 46.8332 162.694 47.8268 162.954 47.6612C163.238 47.4956 163.806 46.7623 164.634 46.7859C165.202 46.7859 165.202 46.9042 165.391 46.9752C163.995 48.0397 162.268 48.6784 160.375 48.6784M166.219 46.2655C166.219 46.2655 166.054 46.2182 165.959 46.1709C165.509 45.9343 165.557 46.3128 165.344 46.2182C165.107 46.1235 165.604 45.6268 164.918 46.0526C164.255 46.4784 164.421 45.9816 164.137 45.2483C163.853 44.5149 164.468 43.6633 164.989 43.474C165.699 43.2138 166.148 43.1665 166.503 43.0718C167.497 42.8353 167.71 42.2439 167.899 42.5987C167.946 42.6697 167.97 42.7407 167.994 42.788C168.041 42.8826 168.112 43.1192 168.112 43.3321C167.686 44.4439 167.047 45.4375 166.219 46.2655ZM168.491 42.0783C168.278 42.0073 167.331 40.7298 168.065 39.8782C168.183 39.7363 167.804 39.3341 167.923 39.3105C168.325 39.2868 168.538 39.5234 168.633 39.8782C168.633 40.0438 168.633 40.2094 168.633 40.3513C168.633 40.9428 168.585 41.4869 168.467 42.0546" fill="white"/>
<path d="M25.7195 88.2536H23.8601C23.8071 87.9486 23.7093 87.6785 23.5668 87.4432C23.4242 87.2045 23.2469 87.0024 23.0348 86.8366C22.8227 86.6709 22.5807 86.5466 22.3089 86.4638C22.0405 86.3776 21.7505 86.3345 21.4389 86.3345C20.8854 86.3345 20.3949 86.4737 19.9673 86.7521C19.5398 87.0272 19.205 87.4316 18.9631 87.9652C18.7211 88.4955 18.6001 89.1435 18.6001 89.9091C18.6001 90.688 18.7211 91.3442 18.9631 91.8778C19.2083 92.4081 19.5431 92.8092 19.9673 93.081C20.3949 93.3494 20.8838 93.4837 21.4339 93.4837C21.7389 93.4837 22.0239 93.4439 22.2891 93.3643C22.5575 93.2815 22.7978 93.1605 23.0099 93.0014C23.2254 92.8423 23.406 92.6468 23.5518 92.4148C23.701 92.1828 23.8037 91.9176 23.8601 91.6193L25.7195 91.6293C25.6499 92.1132 25.4991 92.5672 25.267 92.9915C25.0384 93.4157 24.7384 93.7902 24.3672 94.1151C23.996 94.4366 23.5618 94.6884 23.0646 94.8707C22.5675 95.0497 22.0156 95.1392 21.4091 95.1392C20.5142 95.1392 19.7154 94.9321 19.0128 94.5178C18.3101 94.1035 17.7566 93.5052 17.3523 92.723C16.9479 91.9408 16.7457 91.0028 16.7457 89.9091C16.7457 88.812 16.9496 87.8741 17.3572 87.0952C17.7649 86.313 18.3201 85.7147 19.0227 85.3004C19.7254 84.8861 20.5208 84.679 21.4091 84.679C21.9759 84.679 22.5028 84.7585 22.9901 84.9176C23.4773 85.0767 23.9115 85.3104 24.2926 85.6186C24.6738 85.9235 24.987 86.2981 25.2322 86.7422C25.4808 87.183 25.6432 87.6868 25.7195 88.2536ZM27.4086 95V84.8182H29.253V93.4538H33.7374V95H27.4086ZM37.1827 84.8182V95H35.3382V84.8182H37.1827ZM39.18 84.8182H41.4371L44.4599 92.196H44.5792L47.6019 84.8182H49.859V95H48.0891V88.005H47.9947L45.1808 94.9702H43.8583L41.0444 87.9901H40.9499V95H39.18V84.8182ZM53.1751 95H51.2063L54.7908 84.8182H57.0678L60.6573 95H58.6886L55.9691 86.9062H55.8896L53.1751 95ZM53.2397 91.0078H58.609V92.4893H53.2397V91.0078ZM60.3205 86.3643V84.8182H68.4441V86.3643H65.2971V95H63.4675V86.3643H60.3205ZM70.0101 95V84.8182H76.6323V86.3643H71.8546V89.1286H76.2892V90.6747H71.8546V93.4538H76.6721V95H70.0101ZM83.2942 95H81.3255L84.91 84.8182H87.187L90.7765 95H88.8077L86.0882 86.9062H86.0087L83.2942 95ZM83.3588 91.0078H88.7282V92.4893H83.3588V91.0078ZM100.354 88.2536H98.4949C98.4418 87.9486 98.344 87.6785 98.2015 87.4432C98.059 87.2045 97.8817 87.0024 97.6696 86.8366C97.4574 86.6709 97.2155 86.5466 96.9437 86.4638C96.6752 86.3776 96.3852 86.3345 96.0737 86.3345C95.5202 86.3345 95.0297 86.4737 94.6021 86.7521C94.1745 87.0272 93.8398 87.4316 93.5978 87.9652C93.3559 88.4955 93.2349 89.1435 93.2349 89.9091C93.2349 90.688 93.3559 91.3442 93.5978 91.8778C93.8431 92.4081 94.1779 92.8092 94.6021 93.081C95.0297 93.3494 95.5185 93.4837 96.0687 93.4837C96.3736 93.4837 96.6587 93.4439 96.9238 93.3643C97.1923 93.2815 97.4326 93.1605 97.6447 93.0014C97.8601 92.8423 98.0408 92.6468 98.1866 92.4148C98.3358 92.1828 98.4385 91.9176 98.4949 91.6193L100.354 91.6293C100.285 92.1132 100.134 92.5672 99.9018 92.9915C99.6731 93.4157 99.3732 93.7902 99.002 94.1151C98.6307 94.4366 98.1966 94.6884 97.6994 94.8707C97.2022 95.0497 96.6504 95.1392 96.0439 95.1392C95.149 95.1392 94.3502 94.9321 93.6475 94.5178C92.9449 94.1035 92.3914 93.5052 91.987 92.723C91.5827 91.9408 91.3805 91.0028 91.3805 89.9091C91.3805 88.812 91.5843 87.8741 91.992 87.0952C92.3997 86.313 92.9548 85.7147 93.6575 85.3004C94.3601 84.8861 95.1556 84.679 96.0439 84.679C96.6106 84.679 97.1376 84.7585 97.6248 84.9176C98.112 85.0767 98.5462 85.3104 98.9274 85.6186C99.3085 85.9235 99.6217 86.2981 99.867 86.7422C100.116 87.183 100.278 87.6868 100.354 88.2536ZM101.596 86.3643V84.8182H109.719V86.3643H106.572V95H104.743V86.3643H101.596ZM113.13 84.8182V95H111.286V84.8182H113.13ZM124.225 89.9091C124.225 91.0062 124.02 91.9458 123.609 92.728C123.201 93.5069 122.644 94.1035 121.938 94.5178C121.236 94.9321 120.439 95.1392 119.547 95.1392C118.655 95.1392 117.857 94.9321 117.151 94.5178C116.448 94.1001 115.891 93.5019 115.48 92.723C115.073 91.9408 114.869 91.0028 114.869 89.9091C114.869 88.812 115.073 87.8741 115.48 87.0952C115.891 86.313 116.448 85.7147 117.151 85.3004C117.857 84.8861 118.655 84.679 119.547 84.679C120.439 84.679 121.236 84.8861 121.938 85.3004C122.644 85.7147 123.201 86.313 123.609 87.0952C124.02 87.8741 124.225 88.812 124.225 89.9091ZM122.371 89.9091C122.371 89.1368 122.25 88.4856 122.008 87.9553C121.769 87.4216 121.438 87.0189 121.014 86.7472C120.589 86.4721 120.101 86.3345 119.547 86.3345C118.994 86.3345 118.505 86.4721 118.08 86.7472C117.656 87.0189 117.323 87.4216 117.081 87.9553C116.843 88.4856 116.723 89.1368 116.723 89.9091C116.723 90.6813 116.843 91.3343 117.081 91.8679C117.323 92.3982 117.656 92.8009 118.08 93.076C118.505 93.3478 118.994 93.4837 119.547 93.4837C120.101 93.4837 120.589 93.3478 121.014 93.076C121.438 92.8009 121.769 92.3982 122.008 91.8679C122.25 91.3343 122.371 90.6813 122.371 89.9091ZM134.336 84.8182V95H132.696L127.898 88.0646H127.814V95H125.969V84.8182H127.62L132.412 91.7585H132.502V84.8182H134.336Z" fill="white"/>
<path d="M20.3253 171.273V180H18.7443V172.811H18.6932L16.652 174.115V172.666L18.821 171.273H20.3253ZM23.0281 180.094C22.7695 180.094 22.5479 180.003 22.3633 179.821C22.1786 179.639 22.0877 179.418 22.0906 179.156C22.0877 178.901 22.1786 178.682 22.3633 178.5C22.5479 178.318 22.7695 178.227 23.0281 178.227C23.2781 178.227 23.4954 178.318 23.68 178.5C23.8675 178.682 23.9627 178.901 23.9656 179.156C23.9627 179.33 23.9173 179.487 23.8292 179.629C23.744 179.771 23.6303 179.885 23.4883 179.97C23.3491 180.053 23.1957 180.094 23.0281 180.094ZM25.3835 178.381V177.124L29.0866 171.273H30.1349V173.062H29.4957L27.0028 177.013V177.081H32.1719V178.381H25.3835ZM29.5469 180V177.997L29.5639 177.435V171.273H31.0554V180H29.5469ZM35.1154 178.807L35.06 179.276C35.0202 179.634 34.9492 179.997 34.8469 180.366C34.7475 180.739 34.6424 181.081 34.5316 181.393C34.4208 181.706 34.3313 181.952 34.2631 182.131H33.2234C33.2631 181.957 33.3171 181.722 33.3853 181.423C33.4563 181.125 33.5245 180.79 33.5898 180.418C33.6552 180.045 33.6992 179.668 33.7219 179.284L33.7518 178.807H35.1154ZM43.0831 171.273V180H41.5021V172.811H41.451L39.4098 174.115V172.666L41.5788 171.273H43.0831ZM45.7859 180.094C45.5273 180.094 45.3058 180.003 45.1211 179.821C44.9364 179.639 44.8455 179.418 44.8484 179.156C44.8455 178.901 44.9364 178.682 45.1211 178.5C45.3058 178.318 45.5273 178.227 45.7859 178.227C46.0359 178.227 46.2532 178.318 46.4379 178.5C46.6254 178.682 46.7205 178.901 46.7234 179.156C46.7205 179.33 46.6751 179.487 46.587 179.629C46.5018 179.771 46.3881 179.885 46.2461 179.97C46.1069 180.053 45.9535 180.094 45.7859 180.094ZM51.2276 180.119C50.6594 180.119 50.1509 180.013 49.7021 179.8C49.2532 179.584 48.8967 179.288 48.6325 178.913C48.3711 178.538 48.2319 178.109 48.2148 177.626H49.7489C49.7773 177.984 49.9322 178.277 50.2134 178.504C50.4947 178.729 50.8327 178.841 51.2276 178.841C51.5373 178.841 51.8129 178.77 52.0543 178.628C52.2958 178.486 52.4862 178.288 52.6254 178.036C52.7646 177.783 52.8327 177.494 52.8299 177.17C52.8327 176.841 52.7631 176.548 52.6211 176.293C52.479 176.037 52.2844 175.837 52.0373 175.692C51.7901 175.544 51.506 175.47 51.185 175.47C50.9237 175.467 50.6665 175.516 50.4137 175.615C50.1609 175.714 49.9606 175.845 49.8129 176.007L48.3853 175.773L48.8413 171.273H53.9038V172.594H50.1495L49.8981 174.908H49.9492C50.1112 174.717 50.3398 174.56 50.6353 174.435C50.9308 174.307 51.2546 174.243 51.6069 174.243C52.1353 174.243 52.6069 174.368 53.0217 174.618C53.4364 174.865 53.7631 175.206 54.0018 175.641C54.2404 176.075 54.3597 176.572 54.3597 177.132C54.3597 177.709 54.2262 178.223 53.9592 178.675C53.695 179.124 53.3271 179.477 52.8555 179.736C52.3867 179.991 51.8441 180.119 51.2276 180.119Z" fill="white"/>
</svg>
