<svg width="200" height="200" viewBox="0 0 200 200" fill="none" xmlns="http://www.w3.org/2000/svg">
<rect width="200" height="200" fill="#016FA3"/>
<path d="M24.6506 24.5455V42H21.4886V27.6222H21.3864L17.304 30.2301V27.3324L21.642 24.5455H24.6506ZM35.4744 42.2386C34.6392 42.233 33.8239 42.0881 33.0284 41.804C32.233 41.5142 31.517 41.0455 30.8807 40.3977C30.2443 39.7443 29.7386 38.8778 29.3636 37.7983C28.9886 36.7131 28.804 35.3693 28.8097 33.767C28.8097 32.2727 28.9688 30.9403 29.2869 29.7699C29.6051 28.5994 30.0625 27.6108 30.6591 26.804C31.2557 25.9915 31.9744 25.3722 32.8153 24.946C33.6619 24.5199 34.608 24.3068 35.6534 24.3068C36.75 24.3068 37.7216 24.5227 38.5682 24.9545C39.4205 25.3864 40.108 25.9773 40.6307 26.7273C41.1534 27.4716 41.4773 28.3125 41.6023 29.25H38.4915C38.3324 28.5795 38.0057 28.0455 37.5114 27.6477C37.0227 27.2443 36.4034 27.0426 35.6534 27.0426C34.4432 27.0426 33.5114 27.5682 32.858 28.6193C32.2102 29.6705 31.8835 31.1136 31.8778 32.9489H31.9972C32.2756 32.4489 32.6364 32.0199 33.0795 31.6619C33.5227 31.304 34.0227 31.0284 34.5795 30.8352C35.142 30.6364 35.7358 30.5369 36.3608 30.5369C37.3835 30.5369 38.3011 30.7812 39.1136 31.2699C39.9318 31.7585 40.5795 32.4318 41.0568 33.2898C41.5341 34.142 41.7699 35.1193 41.7642 36.2216C41.7699 37.3693 41.5085 38.4006 40.9801 39.3153C40.4517 40.2244 39.7159 40.9403 38.7727 41.4631C37.8295 41.9858 36.7301 42.2443 35.4744 42.2386ZM35.4574 39.6818C36.0767 39.6818 36.6307 39.5312 37.1193 39.2301C37.608 38.929 37.9943 38.5227 38.2784 38.0114C38.5625 37.5 38.7017 36.9261 38.696 36.2898C38.7017 35.6648 38.5653 35.0994 38.2869 34.5938C38.0142 34.0881 37.6364 33.6875 37.1534 33.392C36.6705 33.0966 36.1193 32.9489 35.5 32.9489C35.0398 32.9489 34.6108 33.0369 34.2131 33.2131C33.8153 33.3892 33.4688 33.6335 33.1733 33.946C32.8778 34.2528 32.6449 34.6108 32.4744 35.0199C32.3097 35.4233 32.2244 35.8551 32.2188 36.3153C32.2244 36.9233 32.3665 37.483 32.6449 37.9943C32.9233 38.5057 33.3068 38.9148 33.7955 39.2216C34.2841 39.5284 34.8381 39.6818 35.4574 39.6818Z" fill="white"/>
<path d="M170.726 25.2454C170.726 25.2454 170.113 26.0846 170.278 26.8998C170.467 27.7151 171.363 28.1946 171.363 28.1946C171.363 28.1946 171.976 27.3554 171.811 26.5402C171.623 25.7249 170.726 25.2454 170.726 25.2454Z" fill="white"/>
<path d="M169.712 29.9927C169.712 29.9927 170.326 29.1535 170.137 28.3383C169.948 27.523 169.052 27.0435 169.052 27.0435C169.052 27.0435 168.439 27.8827 168.604 28.6979C168.793 29.5132 169.689 29.9927 169.689 29.9927" fill="white"/>
<path d="M172.259 29.1076C172.259 29.1076 172.92 29.7789 173.651 29.707C174.405 29.6351 174.947 28.8678 174.947 28.8678C174.947 28.8678 174.287 28.1964 173.556 28.2683C172.825 28.3403 172.259 29.1076 172.259 29.1076Z" fill="white"/>
<path d="M173.321 25.5328C172.708 26.1562 172.802 27.2592 172.802 27.2592C172.802 27.2592 173.863 27.3551 174.476 26.7317C175.089 26.1083 174.995 25.0053 174.995 25.0053C174.995 25.0053 173.934 24.9094 173.321 25.5328Z" fill="white"/>
<path d="M172 31.5973C172.731 31.6932 173.438 31.0458 173.438 31.0458C173.438 31.0458 172.943 30.2545 172.188 30.1586C171.457 30.0627 170.75 30.7101 170.75 30.7101C170.75 30.7101 171.245 31.5014 172 31.5973Z" fill="white"/>
<path d="M172.66 44.6399H167.142C166.718 44.6399 166.364 44.9996 166.364 45.4312C166.364 45.8628 166.718 46.2224 167.142 46.2224H172.66C173.085 46.2224 173.438 45.8628 173.438 45.4312C173.438 44.9996 173.085 44.6399 172.66 44.6399Z" fill="white"/>
<path d="M172.66 53.418H167.142C166.718 53.418 166.364 53.7776 166.364 54.2092C166.364 54.6408 166.718 55.0005 167.142 55.0005H172.66C173.085 55.0005 173.438 54.6408 173.438 54.2092C173.438 53.7776 173.085 53.418 172.66 53.418Z" fill="white"/>
<path d="M147.806 42.7253C147.688 42.6774 147.547 42.6534 147.429 42.6294C147.429 42.6294 147.57 42.6774 147.806 42.7253Z" fill="white"/>
<path d="M172.448 46.8029H167.331C167.095 46.8029 166.883 46.9947 166.883 47.2585V48.841L163.535 49.2246L158.653 49.1047V46.0836C159.29 45.9876 159.95 45.8678 160.587 45.6759C165.28 44.3332 166.317 40.3769 166.223 37.6434C166.128 34.862 167.001 33.783 168.251 33.3035C168.604 33.1596 168.958 33.0877 169.288 33.0157C169.288 33.7111 169.43 34.5023 169.736 35.4375C169.854 35.4375 169.949 35.4375 170.066 35.4135C169.736 34.4304 169.618 33.6392 169.595 32.9678C170.255 32.8958 170.703 32.9438 170.703 32.9438C170.703 32.9438 170.255 32.704 169.642 32.1765C169.854 30.8577 170.632 30.0425 171.411 29.2273C171.859 28.7717 172.307 28.2921 172.66 27.7406L172.377 27.5488C172.047 28.0763 171.599 28.5319 171.175 28.9875C170.397 29.8027 169.618 30.618 169.359 31.9367C169.1 31.697 168.84 31.4332 168.557 31.1215C167.402 29.8027 165.916 30.7618 163.77 32.776C161.648 34.7901 158.96 34.862 156.342 32.1286C152.9 28.5319 149.881 28.5559 147.83 28.7477C149.245 29.3711 149.74 30.7139 150.447 34.1187C151.202 37.6914 153.088 39.3219 155.659 39.5377C154.22 40.0652 154.149 40.8804 152.216 42.2232C150.707 43.2782 148.584 42.9425 147.736 42.7507C149.315 43.2542 151.178 44.9326 152.853 45.5081C153.819 45.8438 154.857 46.0596 155.894 46.1315V49.0328L147.146 48.841V50.8551L163.487 50.4715L166.836 50.8551V52.4376C166.836 52.6774 167.025 52.8932 167.284 52.8932H172.401C172.66 52.8932 172.849 52.6774 172.849 52.4376V47.2585C172.849 47.0187 172.66 46.8029 172.401 46.8029M156.72 46.1555C157.073 46.1555 157.451 46.1555 157.804 46.1315V49.0568H156.72V46.1555Z" fill="white"/>
<path d="M146.721 50.5149C146.721 50.9465 146.438 51.2822 146.061 51.2822H145.66C145.307 51.2822 145 50.9465 145 50.5149V49.1242C145 48.6926 145.283 48.3569 145.66 48.3569H146.061C146.415 48.3569 146.721 48.6926 146.721 49.1242V50.5149Z" fill="white"/>
<path d="M17.0043 95V84.8182H20.8224C21.6046 84.8182 22.2609 84.964 22.7912 85.2557C23.3248 85.5473 23.7275 85.9484 23.9993 86.4588C24.2744 86.9659 24.4119 87.5426 24.4119 88.1889C24.4119 88.8419 24.2744 89.4219 23.9993 89.929C23.7242 90.4361 23.3182 90.8355 22.7812 91.1271C22.2443 91.4155 21.5831 91.5597 20.7976 91.5597H18.267V90.0433H20.549C21.0064 90.0433 21.3809 89.9638 21.6726 89.8047C21.9643 89.6456 22.1797 89.4268 22.3189 89.1484C22.4614 88.87 22.5327 88.5502 22.5327 88.1889C22.5327 87.8277 22.4614 87.5095 22.3189 87.2344C22.1797 86.9593 21.9626 86.7455 21.6676 86.593C21.3759 86.4373 20.9998 86.3594 20.5391 86.3594H18.8487V95H17.0043ZM26.014 95V84.8182H32.6362V86.3643H27.8585V89.1286H32.2931V90.6747H27.8585V93.4538H32.676V95H26.014ZM35.8255 95H33.8567L37.4412 84.8182H39.7182L43.3077 95H41.339L38.6195 86.9062H38.54L35.8255 95ZM35.8901 91.0078H41.2594V92.4893H35.8901V91.0078ZM52.8855 88.2536H51.0261C50.9731 87.9486 50.8753 87.6785 50.7328 87.4432C50.5903 87.2045 50.4129 87.0024 50.2008 86.8366C49.9887 86.6709 49.7467 86.5466 49.475 86.4638C49.2065 86.3776 48.9165 86.3345 48.6049 86.3345C48.0514 86.3345 47.5609 86.4737 47.1333 86.7521C46.7058 87.0272 46.371 87.4316 46.1291 87.9652C45.8871 88.4955 45.7662 89.1435 45.7662 89.9091C45.7662 90.688 45.8871 91.3442 46.1291 91.8778C46.3743 92.4081 46.7091 92.8092 47.1333 93.081C47.5609 93.3494 48.0498 93.4837 48.6 93.4837C48.9049 93.4837 49.1899 93.4439 49.4551 93.3643C49.7235 93.2815 49.9638 93.1605 50.176 93.0014C50.3914 92.8423 50.572 92.6468 50.7179 92.4148C50.867 92.1828 50.9698 91.9176 51.0261 91.6193L52.8855 91.6293C52.8159 92.1132 52.6651 92.5672 52.4331 92.9915C52.2044 93.4157 51.9044 93.7902 51.5332 94.1151C51.162 94.4366 50.7278 94.6884 50.2306 94.8707C49.7335 95.0497 49.1816 95.1392 48.5751 95.1392C47.6802 95.1392 46.8815 94.9321 46.1788 94.5178C45.4761 94.1035 44.9226 93.5052 44.5183 92.723C44.1139 91.9408 43.9118 91.0028 43.9118 89.9091C43.9118 88.812 44.1156 87.8741 44.5233 87.0952C44.9309 86.313 45.4861 85.7147 46.1887 85.3004C46.8914 84.8861 47.6868 84.679 48.5751 84.679C49.1419 84.679 49.6689 84.7585 50.1561 84.9176C50.6433 85.0767 51.0775 85.3104 51.4586 85.6186C51.8398 85.9235 52.153 86.2981 52.3983 86.7422C52.6468 87.183 52.8092 87.6868 52.8855 88.2536ZM54.5746 95V84.8182H61.1967V86.3643H56.419V89.1286H60.8537V90.6747H56.419V93.4538H61.2365V95H54.5746ZM65.1119 93.608L65.0472 94.1548C65.0008 94.5724 64.918 94.9967 64.7987 95.4276C64.6826 95.8617 64.56 96.2611 64.4308 96.6257C64.3015 96.9903 64.1971 97.277 64.1175 97.4858H62.9045C62.9509 97.2836 63.0138 97.0085 63.0934 96.6605C63.1763 96.3125 63.2558 95.9214 63.332 95.4872C63.4083 95.053 63.4596 94.6122 63.4862 94.1648L63.521 93.608H65.1119ZM74.3826 84.8182H76.2122V91.9773C76.2089 92.6335 76.0697 93.1986 75.7946 93.6726C75.5195 94.1432 75.135 94.5062 74.6412 94.7614C74.1506 95.0133 73.5789 95.1392 72.926 95.1392C72.3294 95.1392 71.7924 95.0331 71.3152 94.821C70.8412 94.6056 70.465 94.2874 70.1866 93.8665C69.9082 93.4455 69.769 92.9219 69.769 92.2955H71.6035C71.6068 92.5705 71.6665 92.8075 71.7825 93.0064C71.9018 93.2053 72.0659 93.3577 72.2747 93.4638C72.4835 93.5698 72.7238 93.6229 72.9956 93.6229C73.2905 93.6229 73.5408 93.5616 73.7463 93.4389C73.9518 93.313 74.1075 93.1274 74.2136 92.8821C74.323 92.6368 74.3793 92.3352 74.3826 91.9773V84.8182ZM84.6316 84.8182H86.476V91.4702C86.476 92.1993 86.3037 92.8407 85.959 93.3942C85.6176 93.9477 85.137 94.3802 84.5172 94.6918C83.8974 95 83.1732 95.1541 82.3446 95.1541C81.5127 95.1541 80.7869 95 80.1671 94.6918C79.5473 94.3802 79.0667 93.9477 78.7253 93.3942C78.3839 92.8407 78.2132 92.1993 78.2132 91.4702V84.8182H80.0577V91.3161C80.0577 91.7403 80.1505 92.1181 80.3361 92.4496C80.525 92.781 80.7902 93.0412 81.1316 93.2301C81.473 93.4157 81.8773 93.5085 82.3446 93.5085C82.812 93.5085 83.2163 93.4157 83.5577 93.2301C83.9024 93.0412 84.1676 92.781 84.3532 92.4496C84.5388 92.1181 84.6316 91.7403 84.6316 91.3161V84.8182ZM94.0142 87.6172C93.9678 87.183 93.7723 86.8449 93.4276 86.603C93.0862 86.361 92.642 86.2401 92.0952 86.2401C91.7107 86.2401 91.3809 86.2981 91.1058 86.4141C90.8307 86.5301 90.6203 86.6875 90.4744 86.8864C90.3286 87.0852 90.254 87.3123 90.2507 87.5675C90.2507 87.7796 90.2988 87.9635 90.3949 88.1193C90.4943 88.2751 90.6286 88.4077 90.7976 88.517C90.9666 88.6231 91.1539 88.7126 91.3594 88.7855C91.5649 88.8584 91.772 88.9197 91.9808 88.9695L92.9354 89.2081C93.3198 89.2976 93.6894 89.4186 94.044 89.571C94.402 89.7235 94.7218 89.9157 95.0036 90.1477C95.2886 90.3797 95.514 90.6598 95.6797 90.9879C95.8454 91.3161 95.9283 91.7005 95.9283 92.1413C95.9283 92.7379 95.7758 93.2633 95.4709 93.7173C95.166 94.1681 94.7251 94.5211 94.1484 94.7763C93.575 95.0282 92.8807 95.1541 92.0653 95.1541C91.2732 95.1541 90.5855 95.0315 90.0021 94.7862C89.4221 94.541 88.968 94.183 88.6399 93.7124C88.3151 93.2417 88.1394 92.6683 88.1129 91.9922H89.9276C89.9541 92.3468 90.0634 92.6418 90.2557 92.8771C90.4479 93.1125 90.6982 93.2881 91.0064 93.4041C91.3179 93.5201 91.666 93.5781 92.0504 93.5781C92.4515 93.5781 92.8028 93.5185 93.1044 93.3991C93.4093 93.2765 93.648 93.1075 93.8203 92.892C93.9927 92.6733 94.0805 92.4181 94.0838 92.1264C94.0805 91.8613 94.0026 91.6425 93.8501 91.4702C93.6977 91.2945 93.4839 91.1487 93.2088 91.0327C92.937 90.9134 92.6188 90.8073 92.2543 90.7145L91.0959 90.4162C90.2573 90.2008 89.5945 89.8743 89.1072 89.4368C88.6233 88.996 88.3814 88.411 88.3814 87.6818C88.3814 87.0819 88.5438 86.5566 88.8686 86.1058C89.1967 85.6551 89.6425 85.3054 90.206 85.0568C90.7694 84.8049 91.4074 84.679 92.12 84.679C92.8426 84.679 93.4756 84.8049 94.0192 85.0568C94.5661 85.3054 94.9953 85.6518 95.3068 86.0959C95.6184 86.5367 95.7791 87.0438 95.7891 87.6172H94.0142ZM97.1252 86.3643V84.8182H105.249V86.3643H102.102V95H100.272V86.3643H97.1252ZM108.659 84.8182V95H106.815V84.8182H108.659ZM119.372 88.2536H117.512C117.459 87.9486 117.362 87.6785 117.219 87.4432C117.077 87.2045 116.899 87.0024 116.687 86.8366C116.475 86.6709 116.233 86.5466 115.961 86.4638C115.693 86.3776 115.403 86.3345 115.091 86.3345C114.538 86.3345 114.047 86.4737 113.62 86.7521C113.192 87.0272 112.857 87.4316 112.615 87.9652C112.373 88.4955 112.252 89.1435 112.252 89.9091C112.252 90.688 112.373 91.3442 112.615 91.8778C112.861 92.4081 113.195 92.8092 113.62 93.081C114.047 93.3494 114.536 93.4837 115.086 93.4837C115.391 93.4837 115.676 93.4439 115.941 93.3643C116.21 93.2815 116.45 93.1605 116.662 93.0014C116.878 92.8423 117.058 92.6468 117.204 92.4148C117.353 92.1828 117.456 91.9176 117.512 91.6193L119.372 91.6293C119.302 92.1132 119.151 92.5672 118.919 92.9915C118.691 93.4157 118.391 93.7902 118.02 94.1151C117.648 94.4366 117.214 94.6884 116.717 94.8707C116.22 95.0497 115.668 95.1392 115.061 95.1392C114.167 95.1392 113.368 94.9321 112.665 94.5178C111.962 94.1035 111.409 93.5052 111.005 92.723C110.6 91.9408 110.398 91.0028 110.398 89.9091C110.398 88.812 110.602 87.8741 111.01 87.0952C111.417 86.313 111.972 85.7147 112.675 85.3004C113.378 84.8861 114.173 84.679 115.061 84.679C115.628 84.679 116.155 84.7585 116.642 84.9176C117.13 85.0767 117.564 85.3104 117.945 85.6186C118.326 85.9235 118.639 86.2981 118.885 86.7422C119.133 87.183 119.296 87.6868 119.372 88.2536ZM121.061 95V84.8182H127.683V86.3643H122.905V89.1286H127.34V90.6747H122.905V93.4538H127.723V95H121.061ZM134.345 95H132.376L135.961 84.8182H138.238L141.827 95H139.858L137.139 86.9062H137.059L134.345 95ZM134.41 91.0078H139.779V92.4893H134.41V91.0078ZM151.536 84.8182V95H149.895L145.097 88.0646H145.013V95H143.168V84.8182H144.819L149.612 91.7585H149.701V84.8182H151.536ZM156.996 95H153.545V84.8182H157.065C158.076 84.8182 158.944 85.022 159.67 85.4297C160.399 85.834 160.96 86.4157 161.351 87.1747C161.742 87.9337 161.937 88.8419 161.937 89.8991C161.937 90.9598 161.74 91.8712 161.346 92.6335C160.955 93.3958 160.39 93.9808 159.65 94.3885C158.915 94.7962 158.03 95 156.996 95ZM155.39 93.4041H156.906C157.615 93.4041 158.207 93.2749 158.681 93.0163C159.155 92.7545 159.511 92.3651 159.75 91.848C159.988 91.3277 160.108 90.678 160.108 89.8991C160.108 89.1203 159.988 88.474 159.75 87.9602C159.511 87.4432 159.158 87.0571 158.691 86.8018C158.227 86.5433 157.65 86.4141 156.961 86.4141H155.39V93.4041ZM22.5376 107.617C22.4912 107.183 22.2957 106.845 21.951 106.603C21.6096 106.361 21.1655 106.24 20.6186 106.24C20.2341 106.24 19.9044 106.298 19.6293 106.414C19.3542 106.53 19.1437 106.687 18.9979 106.886C18.852 107.085 18.7775 107.312 18.7741 107.567C18.7741 107.78 18.8222 107.964 18.9183 108.119C19.0178 108.275 19.152 108.408 19.321 108.517C19.4901 108.623 19.6773 108.713 19.8828 108.786C20.0883 108.858 20.2955 108.92 20.5043 108.969L21.4588 109.208C21.8433 109.298 22.2128 109.419 22.5675 109.571C22.9254 109.723 23.2453 109.916 23.527 110.148C23.812 110.38 24.0374 110.66 24.2031 110.988C24.3688 111.316 24.4517 111.701 24.4517 112.141C24.4517 112.738 24.2992 113.263 23.9943 113.717C23.6894 114.168 23.2486 114.521 22.6719 114.776C22.0985 115.028 21.4041 115.154 20.5888 115.154C19.7966 115.154 19.1089 115.031 18.5256 114.786C17.9455 114.541 17.4915 114.183 17.1634 113.712C16.8385 113.242 16.6629 112.668 16.6364 111.992H18.451C18.4775 112.347 18.5869 112.642 18.7791 112.877C18.9714 113.112 19.2216 113.288 19.5298 113.404C19.8414 113.52 20.1894 113.578 20.5739 113.578C20.9749 113.578 21.3262 113.518 21.6278 113.399C21.9328 113.277 22.1714 113.107 22.3438 112.892C22.5161 112.673 22.6039 112.418 22.6072 112.126C22.6039 111.861 22.526 111.643 22.3736 111.47C22.2211 111.295 22.0073 111.149 21.7322 111.033C21.4605 110.913 21.1423 110.807 20.7777 110.714L19.6193 110.416C18.7808 110.201 18.1179 109.874 17.6307 109.437C17.1468 108.996 16.9048 108.411 16.9048 107.682C16.9048 107.082 17.0672 106.557 17.392 106.106C17.7202 105.655 18.166 105.305 18.7294 105.057C19.2929 104.805 19.9309 104.679 20.6435 104.679C21.366 104.679 21.9991 104.805 22.5426 105.057C23.0895 105.305 23.5187 105.652 23.8303 106.096C24.1418 106.537 24.3026 107.044 24.3125 107.617H22.5376ZM25.6486 106.364V104.818H33.7722V106.364H30.6252V115H28.7956V106.364H25.6486ZM35.3382 115V104.818H39.1564C39.9386 104.818 40.5949 104.954 41.1252 105.226C41.6588 105.498 42.0615 105.879 42.3333 106.369C42.6084 106.857 42.7459 107.425 42.7459 108.075C42.7459 108.728 42.6067 109.294 42.3283 109.775C42.0532 110.252 41.6472 110.622 41.1103 110.884C40.5733 111.142 39.9138 111.271 39.1316 111.271H36.4121V109.74H38.883C39.3404 109.74 39.7149 109.677 40.0066 109.551C40.2982 109.422 40.5137 109.235 40.6529 108.989C40.7954 108.741 40.8667 108.436 40.8667 108.075C40.8667 107.713 40.7954 107.405 40.6529 107.15C40.5104 106.891 40.2933 106.696 40.0016 106.563C39.7099 106.427 39.3337 106.359 38.873 106.359H37.1827V115H35.3382ZM40.5982 110.386L43.1188 115H41.0605L38.5847 110.386H40.5982ZM53.5417 109.909C53.5417 111.006 53.3362 111.946 52.9252 112.728C52.5176 113.507 51.9608 114.103 51.2548 114.518C50.5521 114.932 49.755 115.139 48.8635 115.139C47.9719 115.139 47.1731 114.932 46.4672 114.518C45.7645 114.1 45.2077 113.502 44.7967 112.723C44.389 111.941 44.1852 111.003 44.1852 109.909C44.1852 108.812 44.389 107.874 44.7967 107.095C45.2077 106.313 45.7645 105.715 46.4672 105.3C47.1731 104.886 47.9719 104.679 48.8635 104.679C49.755 104.679 50.5521 104.886 51.2548 105.3C51.9608 105.715 52.5176 106.313 52.9252 107.095C53.3362 107.874 53.5417 108.812 53.5417 109.909ZM51.6873 109.909C51.6873 109.137 51.5663 108.486 51.3244 107.955C51.0858 107.422 50.7543 107.019 50.3301 106.747C49.9058 106.472 49.417 106.335 48.8635 106.335C48.31 106.335 47.8211 106.472 47.3968 106.747C46.9726 107.019 46.6395 107.422 46.3975 107.955C46.1589 108.486 46.0396 109.137 46.0396 109.909C46.0396 110.681 46.1589 111.334 46.3975 111.868C46.6395 112.398 46.9726 112.801 47.3968 113.076C47.8211 113.348 48.31 113.484 48.8635 113.484C49.417 113.484 49.9058 113.348 50.3301 113.076C50.7543 112.801 51.0858 112.398 51.3244 111.868C51.5663 111.334 51.6873 110.681 51.6873 109.909ZM63.6527 104.818V115H62.0121L57.2145 108.065H57.13V115H55.2855V104.818H56.9361L61.7287 111.759H61.8182V104.818H63.6527ZM72.4835 108.07C72.4006 107.801 72.2863 107.561 72.1404 107.349C71.9979 107.133 71.8256 106.949 71.6234 106.797C71.4245 106.644 71.1958 106.53 70.9373 106.454C70.6788 106.374 70.3971 106.335 70.0922 106.335C69.5453 106.335 69.0581 106.472 68.6305 106.747C68.2029 107.022 67.8665 107.427 67.6213 107.96C67.3793 108.491 67.2583 109.137 67.2583 109.899C67.2583 110.668 67.3793 111.319 67.6213 111.853C67.8632 112.387 68.1996 112.793 68.6305 113.071C69.0614 113.346 69.5618 113.484 70.1319 113.484C70.649 113.484 71.0964 113.384 71.4743 113.185C71.8554 112.987 72.1487 112.705 72.3542 112.34C72.5597 111.972 72.6625 111.541 72.6625 111.048L73.0801 111.112H70.3159V109.67H74.4473V110.893C74.4473 111.765 74.2617 112.519 73.8904 113.156C73.5192 113.792 73.0088 114.282 72.3592 114.627C71.7096 114.969 70.9638 115.139 70.122 115.139C69.184 115.139 68.3604 114.929 67.6511 114.508C66.9451 114.084 66.3933 113.482 65.9956 112.703C65.6011 111.921 65.4039 110.993 65.4039 109.919C65.4039 109.097 65.5199 108.363 65.752 107.717C65.9873 107.07 66.3154 106.522 66.7363 106.071C67.1573 105.617 67.6511 105.272 68.2179 105.037C68.7846 104.798 69.4011 104.679 70.0673 104.679C70.6307 104.679 71.1561 104.762 71.6433 104.928C72.1305 105.09 72.563 105.322 72.9409 105.624C73.322 105.925 73.6352 106.283 73.8805 106.697C74.1258 107.112 74.2865 107.569 74.3627 108.07H72.4835ZM81.5479 104.818V115H79.7035V104.818H81.5479ZM91.9125 104.818V115H90.2718L85.4743 108.065H85.3897V115H83.5453V104.818H85.1958L89.9885 111.759H90.0779V104.818H91.9125ZM99.4556 107.617C99.4092 107.183 99.2137 106.845 98.869 106.603C98.5276 106.361 98.0835 106.24 97.5366 106.24C97.1521 106.24 96.8223 106.298 96.5472 106.414C96.2721 106.53 96.0617 106.687 95.9158 106.886C95.77 107.085 95.6954 107.312 95.6921 107.567C95.6921 107.78 95.7402 107.964 95.8363 108.119C95.9357 108.275 96.07 108.408 96.239 108.517C96.408 108.623 96.5953 108.713 96.8008 108.786C97.0063 108.858 97.2134 108.92 97.4222 108.969L98.3768 109.208C98.7612 109.298 99.1308 109.419 99.4854 109.571C99.8434 109.723 100.163 109.916 100.445 110.148C100.73 110.38 100.955 110.66 101.121 110.988C101.287 111.316 101.37 111.701 101.37 112.141C101.37 112.738 101.217 113.263 100.912 113.717C100.607 114.168 100.167 114.521 99.5898 114.776C99.0165 115.028 98.3221 115.154 97.5067 115.154C96.7146 115.154 96.0269 115.031 95.4435 114.786C94.8635 114.541 94.4094 114.183 94.0813 113.712C93.7565 113.242 93.5808 112.668 93.5543 111.992H95.369C95.3955 112.347 95.5049 112.642 95.6971 112.877C95.8893 113.112 96.1396 113.288 96.4478 113.404C96.7594 113.52 97.1074 113.578 97.4918 113.578C97.8929 113.578 98.2442 113.518 98.5458 113.399C98.8507 113.277 99.0894 113.107 99.2617 112.892C99.4341 112.673 99.5219 112.418 99.5252 112.126C99.5219 111.861 99.444 111.643 99.2915 111.47C99.1391 111.295 98.9253 111.149 98.6502 111.033C98.3784 110.913 98.0603 110.807 97.6957 110.714L96.5373 110.416C95.6987 110.201 95.0359 109.874 94.5487 109.437C94.0647 108.996 93.8228 108.411 93.8228 107.682C93.8228 107.082 93.9852 106.557 94.31 106.106C94.6381 105.655 95.0839 105.305 95.6474 105.057C96.2108 104.805 96.8488 104.679 97.5614 104.679C98.284 104.679 98.917 104.805 99.4606 105.057C100.007 105.305 100.437 105.652 100.748 106.096C101.06 106.537 101.221 107.044 101.23 107.617H99.4556ZM102.567 106.364V104.818H110.69V106.364H107.543V115H105.714V106.364H102.567ZM114.101 104.818V115H112.256V104.818H114.101ZM115.651 106.364V104.818H123.774V106.364H120.627V115H118.798V106.364H115.651ZM131.759 104.818H133.603V111.47C133.603 112.199 133.431 112.841 133.086 113.394C132.745 113.948 132.264 114.38 131.644 114.692C131.024 115 130.3 115.154 129.472 115.154C128.64 115.154 127.914 115 127.294 114.692C126.674 114.38 126.194 113.948 125.852 113.394C125.511 112.841 125.34 112.199 125.34 111.47V104.818H127.185V111.316C127.185 111.74 127.277 112.118 127.463 112.45C127.652 112.781 127.917 113.041 128.259 113.23C128.6 113.416 129.004 113.509 129.472 113.509C129.939 113.509 130.343 113.416 130.685 113.23C131.029 113.041 131.295 112.781 131.48 112.45C131.666 112.118 131.759 111.74 131.759 111.316V104.818ZM135.16 106.364V104.818H143.284V106.364H140.137V115H138.307V106.364H135.16ZM146.694 104.818V115H144.85V104.818H146.694ZM157.79 109.909C157.79 111.006 157.584 111.946 157.173 112.728C156.766 113.507 156.209 114.103 155.503 114.518C154.8 114.932 154.003 115.139 153.112 115.139C152.22 115.139 151.421 114.932 150.715 114.518C150.013 114.1 149.456 113.502 149.045 112.723C148.637 111.941 148.433 111.003 148.433 109.909C148.433 108.812 148.637 107.874 149.045 107.095C149.456 106.313 150.013 105.715 150.715 105.3C151.421 104.886 152.22 104.679 153.112 104.679C154.003 104.679 154.8 104.886 155.503 105.3C156.209 105.715 156.766 106.313 157.173 107.095C157.584 107.874 157.79 108.812 157.79 109.909ZM155.935 109.909C155.935 109.137 155.814 108.486 155.572 107.955C155.334 107.422 155.002 107.019 154.578 106.747C154.154 106.472 153.665 106.335 153.112 106.335C152.558 106.335 152.069 106.472 151.645 106.747C151.221 107.019 150.888 107.422 150.646 107.955C150.407 108.486 150.288 109.137 150.288 109.909C150.288 110.681 150.407 111.334 150.646 111.868C150.888 112.398 151.221 112.801 151.645 113.076C152.069 113.348 152.558 113.484 153.112 113.484C153.665 113.484 154.154 113.348 154.578 113.076C155.002 112.801 155.334 112.398 155.572 111.868C155.814 111.334 155.935 110.681 155.935 109.909ZM167.901 104.818V115H166.26L161.463 108.065H161.378V115H159.534V104.818H161.184L165.977 111.759H166.066V104.818H167.901ZM175.444 107.617C175.397 107.183 175.202 106.845 174.857 106.603C174.516 106.361 174.072 106.24 173.525 106.24C173.14 106.24 172.811 106.298 172.536 106.414C172.26 106.53 172.05 106.687 171.904 106.886C171.758 107.085 171.684 107.312 171.68 107.567C171.68 107.78 171.728 107.964 171.825 108.119C171.924 108.275 172.058 108.408 172.227 108.517C172.396 108.623 172.584 108.713 172.789 108.786C172.995 108.858 173.202 108.92 173.411 108.969L174.365 109.208C174.75 109.298 175.119 109.419 175.474 109.571C175.832 109.723 176.152 109.916 176.433 110.148C176.718 110.38 176.944 110.66 177.109 110.988C177.275 111.316 177.358 111.701 177.358 112.141C177.358 112.738 177.205 113.263 176.901 113.717C176.596 114.168 176.155 114.521 175.578 114.776C175.005 115.028 174.31 115.154 173.495 115.154C172.703 115.154 172.015 115.031 171.432 114.786C170.852 114.541 170.398 114.183 170.07 113.712C169.745 113.242 169.569 112.668 169.543 111.992H171.357C171.384 112.347 171.493 112.642 171.685 112.877C171.878 113.112 172.128 113.288 172.436 113.404C172.748 113.52 173.096 113.578 173.48 113.578C173.881 113.578 174.232 113.518 174.534 113.399C174.839 113.277 175.078 113.107 175.25 112.892C175.422 112.673 175.51 112.418 175.513 112.126C175.51 111.861 175.432 111.643 175.28 111.47C175.127 111.295 174.914 111.149 174.638 111.033C174.367 110.913 174.049 110.807 173.684 110.714L172.526 110.416C171.687 110.201 171.024 109.874 170.537 109.437C170.053 108.996 169.811 108.411 169.811 107.682C169.811 107.082 169.973 106.557 170.298 106.106C170.626 105.655 171.072 105.305 171.636 105.057C172.199 104.805 172.837 104.679 173.55 104.679C174.272 104.679 174.905 104.805 175.449 105.057C175.996 105.305 176.425 105.652 176.737 106.096C177.048 106.537 177.209 107.044 177.219 107.617H175.444Z" fill="white"/>
<path d="M20.3253 171.273V180H18.7443V172.811H18.6932L16.652 174.115V172.666L18.821 171.273H20.3253ZM23.0281 180.094C22.7695 180.094 22.5479 180.003 22.3633 179.821C22.1786 179.639 22.0877 179.418 22.0906 179.156C22.0877 178.901 22.1786 178.682 22.3633 178.5C22.5479 178.318 22.7695 178.227 23.0281 178.227C23.2781 178.227 23.4954 178.318 23.68 178.5C23.8675 178.682 23.9627 178.901 23.9656 179.156C23.9627 179.33 23.9173 179.487 23.8292 179.629C23.744 179.771 23.6303 179.885 23.4883 179.97C23.3491 180.053 23.1957 180.094 23.0281 180.094ZM25.3835 178.381V177.124L29.0866 171.273H30.1349V173.062H29.4957L27.0028 177.013V177.081H32.1719V178.381H25.3835ZM29.5469 180V177.997L29.5639 177.435V171.273H31.0554V180H29.5469ZM35.1154 178.807L35.06 179.276C35.0202 179.634 34.9492 179.997 34.8469 180.366C34.7475 180.739 34.6424 181.081 34.5316 181.393C34.4208 181.706 34.3313 181.952 34.2631 182.131H33.2234C33.2631 181.957 33.3171 181.722 33.3853 181.423C33.4563 181.125 33.5245 180.79 33.5898 180.418C33.6552 180.045 33.6992 179.668 33.7219 179.284L33.7518 178.807H35.1154ZM43.0831 171.273V180H41.5021V172.811H41.451L39.4098 174.115V172.666L41.5788 171.273H43.0831ZM45.7859 180.094C45.5273 180.094 45.3058 180.003 45.1211 179.821C44.9364 179.639 44.8455 179.418 44.8484 179.156C44.8455 178.901 44.9364 178.682 45.1211 178.5C45.3058 178.318 45.5273 178.227 45.7859 178.227C46.0359 178.227 46.2532 178.318 46.4379 178.5C46.6254 178.682 46.7205 178.901 46.7234 179.156C46.7205 179.33 46.6751 179.487 46.587 179.629C46.5018 179.771 46.3881 179.885 46.2461 179.97C46.1069 180.053 45.9535 180.094 45.7859 180.094ZM51.2276 180.119C50.6594 180.119 50.1509 180.013 49.7021 179.8C49.2532 179.584 48.8967 179.288 48.6325 178.913C48.3711 178.538 48.2319 178.109 48.2148 177.626H49.7489C49.7773 177.984 49.9322 178.277 50.2134 178.504C50.4947 178.729 50.8327 178.841 51.2276 178.841C51.5373 178.841 51.8129 178.77 52.0543 178.628C52.2958 178.486 52.4862 178.288 52.6254 178.036C52.7646 177.783 52.8327 177.494 52.8299 177.17C52.8327 176.841 52.7631 176.548 52.6211 176.293C52.479 176.037 52.2844 175.837 52.0373 175.692C51.7901 175.544 51.506 175.47 51.185 175.47C50.9237 175.467 50.6665 175.516 50.4137 175.615C50.1609 175.714 49.9606 175.845 49.8129 176.007L48.3853 175.773L48.8413 171.273H53.9038V172.594H50.1495L49.8981 174.908H49.9492C50.1112 174.717 50.3398 174.56 50.6353 174.435C50.9308 174.307 51.2546 174.243 51.6069 174.243C52.1353 174.243 52.6069 174.368 53.0217 174.618C53.4364 174.865 53.7631 175.206 54.0018 175.641C54.2404 176.075 54.3597 176.572 54.3597 177.132C54.3597 177.709 54.2262 178.223 53.9592 178.675C53.695 179.124 53.3271 179.477 52.8555 179.736C52.3867 179.991 51.8441 180.119 51.2276 180.119Z" fill="white"/>
</svg>
