<svg width="200" height="200" viewBox="0 0 200 200" fill="none" xmlns="http://www.w3.org/2000/svg">
<rect width="200" height="200" fill="#27BDE3"/>
<path d="M23.9432 42.2386C23.108 42.233 22.2926 42.0881 21.4972 41.804C20.7017 41.5142 19.9858 41.0455 19.3494 40.3977C18.7131 39.7443 18.2074 38.8778 17.8324 37.7983C17.4574 36.7131 17.2727 35.3693 17.2784 33.767C17.2784 32.2727 17.4375 30.9403 17.7557 29.7699C18.0739 28.5994 18.5312 27.6108 19.1278 26.804C19.7244 25.9915 20.4432 25.3722 21.2841 24.946C22.1307 24.5199 23.0767 24.3068 24.1222 24.3068C25.2188 24.3068 26.1903 24.5227 27.0369 24.9545C27.8892 25.3864 28.5767 25.9773 29.0994 26.7273C29.6222 27.4716 29.946 28.3125 30.071 29.25H26.9602C26.8011 28.5795 26.4744 28.0455 25.9801 27.6477C25.4915 27.2443 24.8722 27.0426 24.1222 27.0426C22.9119 27.0426 21.9801 27.5682 21.3267 28.6193C20.679 29.6705 20.3523 31.1136 20.3466 32.9489H20.4659C20.7443 32.4489 21.1051 32.0199 21.5483 31.6619C21.9915 31.304 22.4915 31.0284 23.0483 30.8352C23.6108 30.6364 24.2045 30.5369 24.8295 30.5369C25.8523 30.5369 26.7699 30.7812 27.5824 31.2699C28.4006 31.7585 29.0483 32.4318 29.5256 33.2898C30.0028 34.142 30.2386 35.1193 30.233 36.2216C30.2386 37.3693 29.9773 38.4006 29.4489 39.3153C28.9205 40.2244 28.1847 40.9403 27.2415 41.4631C26.2983 41.9858 25.1989 42.2443 23.9432 42.2386ZM23.9261 39.6818C24.5455 39.6818 25.0994 39.5312 25.5881 39.2301C26.0767 38.929 26.4631 38.5227 26.7472 38.0114C27.0313 37.5 27.1705 36.9261 27.1648 36.2898C27.1705 35.6648 27.0341 35.0994 26.7557 34.5938C26.483 34.0881 26.1051 33.6875 25.6222 33.392C25.1392 33.0966 24.5881 32.9489 23.9688 32.9489C23.5085 32.9489 23.0795 33.0369 22.6818 33.2131C22.2841 33.3892 21.9375 33.6335 21.642 33.946C21.3466 34.2528 21.1136 34.6108 20.9432 35.0199C20.7784 35.4233 20.6932 35.8551 20.6875 36.3153C20.6932 36.9233 20.8352 37.483 21.1136 37.9943C21.392 38.5057 21.7756 38.9148 22.2642 39.2216C22.7528 39.5284 23.3068 39.6818 23.9261 39.6818Z" fill="white"/>
<path d="M168.947 28.0641C168.947 28.0641 168.855 28 168.789 28H151.203C151.203 28 151.084 28.0256 151.045 28.0641C151.005 28.1153 150.992 28.1666 151.005 28.2306L153.962 45.5675C153.976 45.6572 154.068 45.7341 154.16 45.7341H157.778L158.029 48.5531H156.51L160.062 52L163.627 48.5403H162.095L162.346 45.7213H166.043C166.148 45.7213 166.227 45.6572 166.241 45.5547L169 28.2178C169 28.2178 169 28.1025 168.947 28.0513M162.148 41.9285C162.148 41.9285 161.356 42.7229 160.049 42.6332C158.742 42.7229 157.949 41.9285 157.949 41.9285C156.629 40.6471 157.105 39.0582 157.567 38.2381C157.844 37.7256 159.877 34.7784 160.049 34.5222C160.22 34.7784 162.24 37.7256 162.531 38.2381C162.993 39.0582 163.455 40.6471 162.135 41.9285M167.719 31.6903C167.244 31.4853 166.637 31.5622 166.056 31.7928C163.877 32.6514 162.386 32.9589 160.088 32.267C158.649 31.8313 157.289 30.9087 155.692 31.4725C154.636 31.8441 153.645 32.1901 152.444 32.1901L151.757 28.7432H168.208L167.706 31.7032L167.719 31.6903Z" fill="white"/>
<path d="M25.7195 88.2536H23.8601C23.8071 87.9486 23.7093 87.6785 23.5668 87.4432C23.4242 87.2045 23.2469 87.0024 23.0348 86.8366C22.8227 86.6709 22.5807 86.5466 22.3089 86.4638C22.0405 86.3776 21.7505 86.3345 21.4389 86.3345C20.8854 86.3345 20.3949 86.4737 19.9673 86.7521C19.5398 87.0272 19.205 87.4316 18.9631 87.9652C18.7211 88.4955 18.6001 89.1435 18.6001 89.9091C18.6001 90.688 18.7211 91.3442 18.9631 91.8778C19.2083 92.4081 19.5431 92.8092 19.9673 93.081C20.3949 93.3494 20.8838 93.4837 21.4339 93.4837C21.7389 93.4837 22.0239 93.4439 22.2891 93.3643C22.5575 93.2815 22.7978 93.1605 23.0099 93.0014C23.2254 92.8423 23.406 92.6468 23.5518 92.4148C23.701 92.1828 23.8037 91.9176 23.8601 91.6193L25.7195 91.6293C25.6499 92.1132 25.4991 92.5672 25.267 92.9915C25.0384 93.4157 24.7384 93.7902 24.3672 94.1151C23.996 94.4366 23.5618 94.6884 23.0646 94.8707C22.5675 95.0497 22.0156 95.1392 21.4091 95.1392C20.5142 95.1392 19.7154 94.9321 19.0128 94.5178C18.3101 94.1035 17.7566 93.5052 17.3523 92.723C16.9479 91.9408 16.7457 91.0028 16.7457 89.9091C16.7457 88.812 16.9496 87.8741 17.3572 87.0952C17.7649 86.313 18.3201 85.7147 19.0227 85.3004C19.7254 84.8861 20.5208 84.679 21.4091 84.679C21.9759 84.679 22.5028 84.7585 22.9901 84.9176C23.4773 85.0767 23.9115 85.3104 24.2926 85.6186C24.6738 85.9235 24.987 86.2981 25.2322 86.7422C25.4808 87.183 25.6432 87.6868 25.7195 88.2536ZM27.4086 95V84.8182H29.253V93.4538H33.7374V95H27.4086ZM35.3382 95V84.8182H41.9604V86.3643H37.1827V89.1286H41.6174V90.6747H37.1827V93.4538H42.0002V95H35.3382ZM45.1497 95H43.1809L46.7654 84.8182H49.0424L52.6319 95H50.6632L47.9437 86.9062H47.8642L45.1497 95ZM45.2143 91.0078H50.5836V92.4893H45.2143V91.0078ZM62.3402 84.8182V95H60.6996L55.902 88.0646H55.8175V95H53.973V84.8182H55.6236L60.4162 91.7585H60.5057V84.8182H62.3402ZM69.9654 95L67.0918 84.8182H69.0755L70.91 92.3004H71.0044L72.9632 84.8182H74.7679L76.7317 92.3054H76.8212L78.6557 84.8182H80.6394L77.7658 95H75.9462L73.9078 87.8558H73.8283L71.785 95H69.9654ZM82.2688 95H80.3001L83.8846 84.8182H86.1616L89.7511 95H87.7823L85.0629 86.9062H84.9833L82.2688 95ZM82.3335 91.0078H87.7028V92.4893H82.3335V91.0078ZM89.4142 86.3643V84.8182H97.5378V86.3643H94.3908V95H92.5613V86.3643H89.4142ZM99.1039 95V84.8182H105.726V86.3643H100.948V89.1286H105.383V90.6747H100.948V93.4538H105.766V95H99.1039ZM107.608 95V84.8182H111.426C112.208 84.8182 112.864 84.9541 113.395 85.2259C113.928 85.4976 114.331 85.8788 114.603 86.3693C114.878 86.8565 115.015 87.425 115.015 88.0746C115.015 88.7275 114.876 89.2943 114.598 89.7749C114.323 90.2521 113.917 90.6217 113.38 90.8835C112.843 91.142 112.183 91.2713 111.401 91.2713H108.682V89.7401H111.153C111.61 89.7401 111.984 89.6771 112.276 89.5511C112.568 89.4219 112.783 89.2346 112.922 88.9893C113.065 88.7408 113.136 88.4358 113.136 88.0746C113.136 87.7133 113.065 87.4051 112.922 87.1499C112.78 86.8913 112.563 86.6958 112.271 86.5632C111.979 86.4273 111.603 86.3594 111.143 86.3594H109.452V95H107.608ZM112.868 90.3864L115.388 95H113.33L110.854 90.3864H112.868ZM121.493 95H119.525L123.109 84.8182H125.386L128.976 95H127.007L124.287 86.9062H124.208L121.493 95ZM121.558 91.0078H126.927V92.4893H121.558V91.0078ZM138.684 84.8182V95H137.043L132.246 88.0646H132.161V95H130.317V84.8182H131.967L136.76 91.7585H136.849V84.8182H138.684ZM144.144 95H140.694V84.8182H144.214C145.224 84.8182 146.093 85.022 146.819 85.4297C147.548 85.834 148.108 86.4157 148.499 87.1747C148.89 87.9337 149.086 88.8419 149.086 89.8991C149.086 90.9598 148.889 91.8712 148.494 92.6335C148.103 93.3958 147.538 93.9808 146.799 94.3885C146.063 94.7962 145.178 95 144.144 95ZM142.538 93.4041H144.055C144.764 93.4041 145.355 93.2749 145.829 93.0163C146.303 92.7545 146.66 92.3651 146.898 91.848C147.137 91.3277 147.256 90.678 147.256 89.8991C147.256 89.1203 147.137 88.474 146.898 87.9602C146.66 87.4432 146.307 87.0571 145.839 86.8018C145.375 86.5433 144.799 86.4141 144.109 86.4141H142.538V93.4041ZM22.5376 107.617C22.4912 107.183 22.2957 106.845 21.951 106.603C21.6096 106.361 21.1655 106.24 20.6186 106.24C20.2341 106.24 19.9044 106.298 19.6293 106.414C19.3542 106.53 19.1437 106.687 18.9979 106.886C18.852 107.085 18.7775 107.312 18.7741 107.567C18.7741 107.78 18.8222 107.964 18.9183 108.119C19.0178 108.275 19.152 108.408 19.321 108.517C19.4901 108.623 19.6773 108.713 19.8828 108.786C20.0883 108.858 20.2955 108.92 20.5043 108.969L21.4588 109.208C21.8433 109.298 22.2128 109.419 22.5675 109.571C22.9254 109.723 23.2453 109.916 23.527 110.148C23.812 110.38 24.0374 110.66 24.2031 110.988C24.3688 111.316 24.4517 111.701 24.4517 112.141C24.4517 112.738 24.2992 113.263 23.9943 113.717C23.6894 114.168 23.2486 114.521 22.6719 114.776C22.0985 115.028 21.4041 115.154 20.5888 115.154C19.7966 115.154 19.1089 115.031 18.5256 114.786C17.9455 114.541 17.4915 114.183 17.1634 113.712C16.8385 113.242 16.6629 112.668 16.6364 111.992H18.451C18.4775 112.347 18.5869 112.642 18.7791 112.877C18.9714 113.112 19.2216 113.288 19.5298 113.404C19.8414 113.52 20.1894 113.578 20.5739 113.578C20.9749 113.578 21.3262 113.518 21.6278 113.399C21.9328 113.277 22.1714 113.107 22.3438 112.892C22.5161 112.673 22.6039 112.418 22.6072 112.126C22.6039 111.861 22.526 111.643 22.3736 111.47C22.2211 111.295 22.0073 111.149 21.7322 111.033C21.4605 110.913 21.1423 110.807 20.7777 110.714L19.6193 110.416C18.7808 110.201 18.1179 109.874 17.6307 109.437C17.1468 108.996 16.9048 108.411 16.9048 107.682C16.9048 107.082 17.0672 106.557 17.392 106.106C17.7202 105.655 18.166 105.305 18.7294 105.057C19.2929 104.805 19.9309 104.679 20.6435 104.679C21.366 104.679 21.9991 104.805 22.5426 105.057C23.0895 105.305 23.5187 105.652 23.8303 106.096C24.1418 106.537 24.3026 107.044 24.3125 107.617H22.5376ZM27.2395 115H25.2708L28.8553 104.818H31.1323L34.7218 115H32.753L30.0336 106.906H29.954L27.2395 115ZM27.3042 111.008H32.6735V112.489H27.3042V111.008ZM44.43 104.818V115H42.7894L37.9918 108.065H37.9073V115H36.0629V104.818H37.7134L42.506 111.759H42.5955V104.818H44.43ZM48.2843 104.818V115H46.4398V104.818H48.2843ZM49.8342 106.364V104.818H57.9577V106.364H54.8107V115H52.9812V106.364H49.8342ZM59.6009 115H57.6321L61.2166 104.818H63.4936L67.0831 115H65.1143L62.3949 106.906H62.3153L59.6009 115ZM59.6655 111.008H65.0348V112.489H59.6655V111.008ZM66.7463 106.364V104.818H74.8699V106.364H71.7228V115H69.8933V106.364H66.7463ZM78.2804 104.818V115H76.4359V104.818H78.2804ZM89.3757 109.909C89.3757 111.006 89.1702 111.946 88.7592 112.728C88.3516 113.507 87.7947 114.103 87.0888 114.518C86.3861 114.932 85.589 115.139 84.6974 115.139C83.8059 115.139 83.0071 114.932 82.3011 114.518C81.5985 114.1 81.0417 113.502 80.6307 112.723C80.223 111.941 80.0192 111.003 80.0192 109.909C80.0192 108.812 80.223 107.874 80.6307 107.095C81.0417 106.313 81.5985 105.715 82.3011 105.3C83.0071 104.886 83.8059 104.679 84.6974 104.679C85.589 104.679 86.3861 104.886 87.0888 105.3C87.7947 105.715 88.3516 106.313 88.7592 107.095C89.1702 107.874 89.3757 108.812 89.3757 109.909ZM87.5213 109.909C87.5213 109.137 87.4003 108.486 87.1584 107.955C86.9197 107.422 86.5883 107.019 86.1641 106.747C85.7398 106.472 85.2509 106.335 84.6974 106.335C84.1439 106.335 83.6551 106.472 83.2308 106.747C82.8066 107.019 82.4735 107.422 82.2315 107.955C81.9929 108.486 81.8736 109.137 81.8736 109.909C81.8736 110.681 81.9929 111.334 82.2315 111.868C82.4735 112.398 82.8066 112.801 83.2308 113.076C83.6551 113.348 84.1439 113.484 84.6974 113.484C85.2509 113.484 85.7398 113.348 86.1641 113.076C86.5883 112.801 86.9197 112.398 87.1584 111.868C87.4003 111.334 87.5213 110.681 87.5213 109.909ZM99.4867 104.818V115H97.8461L93.0485 108.065H92.964V115H91.1195V104.818H92.7701L97.5627 111.759H97.6522V104.818H99.4867Z" fill="white"/>
<path d="M20.3253 171.273V180H18.7443V172.811H18.6932L16.652 174.115V172.666L18.821 171.273H20.3253ZM23.0281 180.094C22.7695 180.094 22.5479 180.003 22.3633 179.821C22.1786 179.639 22.0877 179.418 22.0906 179.156C22.0877 178.901 22.1786 178.682 22.3633 178.5C22.5479 178.318 22.7695 178.227 23.0281 178.227C23.2781 178.227 23.4954 178.318 23.68 178.5C23.8675 178.682 23.9627 178.901 23.9656 179.156C23.9627 179.33 23.9173 179.487 23.8292 179.629C23.744 179.771 23.6303 179.885 23.4883 179.97C23.3491 180.053 23.1957 180.094 23.0281 180.094ZM25.3835 178.381V177.124L29.0866 171.273H30.1349V173.062H29.4957L27.0028 177.013V177.081H32.1719V178.381H25.3835ZM29.5469 180V177.997L29.5639 177.435V171.273H31.0554V180H29.5469ZM35.1154 178.807L35.06 179.276C35.0202 179.634 34.9492 179.997 34.8469 180.366C34.7475 180.739 34.6424 181.081 34.5316 181.393C34.4208 181.706 34.3313 181.952 34.2631 182.131H33.2234C33.2631 181.957 33.3171 181.722 33.3853 181.423C33.4563 181.125 33.5245 180.79 33.5898 180.418C33.6552 180.045 33.6992 179.668 33.7219 179.284L33.7518 178.807H35.1154ZM43.0831 171.273V180H41.5021V172.811H41.451L39.4098 174.115V172.666L41.5788 171.273H43.0831ZM45.7859 180.094C45.5273 180.094 45.3058 180.003 45.1211 179.821C44.9364 179.639 44.8455 179.418 44.8484 179.156C44.8455 178.901 44.9364 178.682 45.1211 178.5C45.3058 178.318 45.5273 178.227 45.7859 178.227C46.0359 178.227 46.2532 178.318 46.4379 178.5C46.6254 178.682 46.7205 178.901 46.7234 179.156C46.7205 179.33 46.6751 179.487 46.587 179.629C46.5018 179.771 46.3881 179.885 46.2461 179.97C46.1069 180.053 45.9535 180.094 45.7859 180.094ZM51.2276 180.119C50.6594 180.119 50.1509 180.013 49.7021 179.8C49.2532 179.584 48.8967 179.288 48.6325 178.913C48.3711 178.538 48.2319 178.109 48.2148 177.626H49.7489C49.7773 177.984 49.9322 178.277 50.2134 178.504C50.4947 178.729 50.8327 178.841 51.2276 178.841C51.5373 178.841 51.8129 178.77 52.0543 178.628C52.2958 178.486 52.4862 178.288 52.6254 178.036C52.7646 177.783 52.8327 177.494 52.8299 177.17C52.8327 176.841 52.7631 176.548 52.6211 176.293C52.479 176.037 52.2844 175.837 52.0373 175.692C51.7901 175.544 51.506 175.47 51.185 175.47C50.9237 175.467 50.6665 175.516 50.4137 175.615C50.1609 175.714 49.9606 175.845 49.8129 176.007L48.3853 175.773L48.8413 171.273H53.9038V172.594H50.1495L49.8981 174.908H49.9492C50.1112 174.717 50.3398 174.56 50.6353 174.435C50.9308 174.307 51.2546 174.243 51.6069 174.243C52.1353 174.243 52.6069 174.368 53.0217 174.618C53.4364 174.865 53.7631 175.206 54.0018 175.641C54.2404 176.075 54.3597 176.572 54.3597 177.132C54.3597 177.709 54.2262 178.223 53.9592 178.675C53.695 179.124 53.3271 179.477 52.8555 179.736C52.3867 179.991 51.8441 180.119 51.2276 180.119Z" fill="white"/>
</svg>
