<svg width="200" height="200" viewBox="0 0 200 200" fill="none" xmlns="http://www.w3.org/2000/svg">
<rect width="200" height="200" fill="#A21C43"/>
<path d="M23.7557 42.2386C22.4886 42.2386 21.3636 42.0256 20.3807 41.5994C19.4034 41.1733 18.6364 40.5909 18.0795 39.8523C17.5284 39.108 17.2557 38.2642 17.2614 37.321C17.2557 36.5881 17.4148 35.9148 17.7386 35.3011C18.0625 34.6875 18.5 34.1761 19.0511 33.767C19.608 33.3523 20.2273 33.0881 20.9091 32.9744V32.8551C20.0114 32.6562 19.2841 32.1989 18.7273 31.483C18.1761 30.7614 17.9034 29.929 17.9091 28.9858C17.9034 28.0881 18.1534 27.2869 18.6591 26.5824C19.1648 25.8778 19.858 25.3239 20.7386 24.9205C21.6193 24.5114 22.625 24.3068 23.7557 24.3068C24.875 24.3068 25.8722 24.5114 26.7472 24.9205C27.6278 25.3239 28.321 25.8778 28.8267 26.5824C29.3381 27.2869 29.5938 28.0881 29.5938 28.9858C29.5938 29.929 29.3125 30.7614 28.75 31.483C28.1932 32.1989 27.4744 32.6562 26.5938 32.8551V32.9744C27.2756 33.0881 27.8892 33.3523 28.4347 33.767C28.9858 34.1761 29.4233 34.6875 29.7472 35.3011C30.0767 35.9148 30.2415 36.5881 30.2415 37.321C30.2415 38.2642 29.9631 39.108 29.4062 39.8523C28.8494 40.5909 28.0824 41.1733 27.1051 41.5994C26.1335 42.0256 25.017 42.2386 23.7557 42.2386ZM23.7557 39.8011C24.4091 39.8011 24.9773 39.6903 25.4602 39.4688C25.9432 39.2415 26.3182 38.9233 26.5852 38.5142C26.8523 38.1051 26.9886 37.6335 26.9943 37.0994C26.9886 36.5426 26.8438 36.0511 26.5597 35.625C26.2813 35.1932 25.8977 34.8551 25.4091 34.6108C24.9261 34.3665 24.375 34.2443 23.7557 34.2443C23.1307 34.2443 22.5739 34.3665 22.0852 34.6108C21.5966 34.8551 21.2102 35.1932 20.9261 35.625C20.6477 36.0511 20.5114 36.5426 20.517 37.0994C20.5114 37.6335 20.642 38.1051 20.9091 38.5142C21.1761 38.9176 21.5511 39.233 22.0341 39.4602C22.5227 39.6875 23.0966 39.8011 23.7557 39.8011ZM23.7557 31.8494C24.2898 31.8494 24.7614 31.7415 25.1705 31.5256C25.5852 31.3097 25.9119 31.0085 26.1506 30.6222C26.3892 30.2358 26.5114 29.7898 26.517 29.2841C26.5114 28.7841 26.392 28.3466 26.1591 27.9716C25.9261 27.5909 25.6023 27.2983 25.1875 27.0938C24.7727 26.8835 24.2955 26.7784 23.7557 26.7784C23.2045 26.7784 22.7188 26.8835 22.2983 27.0938C21.8835 27.2983 21.5597 27.5909 21.3267 27.9716C21.0994 28.3466 20.9886 28.7841 20.9943 29.2841C20.9886 29.7898 21.1023 30.2358 21.3352 30.6222C21.5739 31.0028 21.9006 31.304 22.3153 31.5256C22.7358 31.7415 23.2159 31.8494 23.7557 31.8494Z" fill="white"/>
<path d="M172.118 32.4628L165.775 38.4514C165.536 38.6882 165.417 38.8574 165.417 39.348V56.1297C165.417 56.3327 165.587 56.4849 165.775 56.4849H172.323C172.527 56.4849 172.681 56.3158 172.681 56.1297V32.5981C172.681 32.3951 172.527 32.0399 172.118 32.4459" fill="white"/>
<path d="M153.839 40.2595L147.495 46.2481C147.257 46.4849 147.137 46.6541 147.137 47.1447V56.1276C147.137 56.3306 147.308 56.4829 147.495 56.4829H154.06C154.265 56.4829 154.418 56.3137 154.418 56.1276V40.3948C154.418 40.1918 154.265 39.8366 153.856 40.2426" fill="white"/>
<path d="M175 25.1861C175 25.1861 175 25.0846 174.949 25.0508C174.915 25.0169 174.881 25 174.829 25H174.795H174.744L169.884 26.0827H169.799C169.799 26.0827 169.731 26.1165 169.697 26.1334C169.629 26.2011 169.629 26.3195 169.697 26.3872L169.748 26.4379L170.856 27.5376L159.841 38.4659L154.759 33.4247C154.759 33.4247 154.606 33.3739 154.555 33.4247L153.174 34.7949L145.023 42.8813C145.023 42.8813 144.972 43.0335 145.023 43.0843L146.404 44.4546C146.404 44.4546 146.557 44.5053 146.609 44.4546L154.657 36.4697L158.34 40.1407C158.34 40.1407 158.34 40.1407 158.34 40.1576L159.721 41.5279C159.721 41.5279 159.875 41.5787 159.926 41.5279L172.425 29.1277L173.585 30.2781C173.585 30.2781 173.772 30.3458 173.84 30.2781C173.875 30.2443 173.892 30.2104 173.892 30.1597L174.966 25.2199V25.1692L175 25.1861Z" fill="white"/>
<path d="M163.013 41.3085L159.943 44.3874C159.943 44.3874 159.807 44.4382 159.739 44.3874L156.959 41.5792C156.448 41.0717 156.345 41.4777 156.345 41.6807V56.1447C156.345 56.3477 156.499 56.5 156.703 56.5H163.268C163.473 56.5 163.626 56.3308 163.626 56.1447V41.4439C163.626 41.2409 163.473 40.8856 163.013 41.3254" fill="white"/>
<path d="M20.4545 95H17.0043V84.8182H20.5241C21.535 84.8182 22.4034 85.022 23.1293 85.4297C23.8584 85.834 24.4186 86.4157 24.8097 87.1747C25.2008 87.9337 25.3963 88.8419 25.3963 89.8991C25.3963 90.9598 25.1991 91.8712 24.8047 92.6335C24.4136 93.3958 23.8485 93.9808 23.1094 94.3885C22.3736 94.7962 21.4886 95 20.4545 95ZM18.8487 93.4041H20.3651C21.0743 93.4041 21.666 93.2749 22.1399 93.0163C22.6139 92.7545 22.9702 92.3651 23.2088 91.848C23.4474 91.3277 23.5668 90.678 23.5668 89.8991C23.5668 89.1203 23.4474 88.474 23.2088 87.9602C22.9702 87.4432 22.6172 87.0571 22.1499 86.8018C21.6858 86.5433 21.1091 86.4141 20.4197 86.4141H18.8487V93.4041ZM27.1488 95V84.8182H33.771V86.3643H28.9933V89.1286H33.4279V90.6747H28.9933V93.4538H33.8107V95H27.1488ZM44.3679 88.2536H42.5085C42.4555 87.9486 42.3577 87.6785 42.2152 87.4432C42.0727 87.2045 41.8954 87.0024 41.6832 86.8366C41.4711 86.6709 41.2292 86.5466 40.9574 86.4638C40.6889 86.3776 40.3989 86.3345 40.0874 86.3345C39.5339 86.3345 39.0433 86.4737 38.6158 86.7521C38.1882 87.0272 37.8535 87.4316 37.6115 87.9652C37.3696 88.4955 37.2486 89.1435 37.2486 89.9091C37.2486 90.688 37.3696 91.3442 37.6115 91.8778C37.8568 92.4081 38.1915 92.8092 38.6158 93.081C39.0433 93.3494 39.5322 93.4837 40.0824 93.4837C40.3873 93.4837 40.6723 93.4439 40.9375 93.3643C41.206 93.2815 41.4463 93.1605 41.6584 93.0014C41.8738 92.8423 42.0545 92.6468 42.2003 92.4148C42.3494 92.1828 42.4522 91.9176 42.5085 91.6193L44.3679 91.6293C44.2983 92.1132 44.1475 92.5672 43.9155 92.9915C43.6868 93.4157 43.3868 93.7902 43.0156 94.1151C42.6444 94.4366 42.2102 94.6884 41.7131 94.8707C41.2159 95.0497 40.6641 95.1392 40.0575 95.1392C39.1626 95.1392 38.3639 94.9321 37.6612 94.5178C36.9586 94.1035 36.4051 93.5052 36.0007 92.723C35.5964 91.9408 35.3942 91.0028 35.3942 89.9091C35.3942 88.812 35.598 87.8741 36.0057 87.0952C36.4134 86.313 36.9685 85.7147 37.6712 85.3004C38.3738 84.8861 39.1693 84.679 40.0575 84.679C40.6243 84.679 41.1513 84.7585 41.6385 84.9176C42.1257 85.0767 42.5599 85.3104 42.9411 85.6186C43.3222 85.9235 43.6354 86.2981 43.8807 86.7422C44.1293 87.183 44.2917 87.6868 44.3679 88.2536ZM46.057 95V84.8182H52.6792V86.3643H47.9015V89.1286H52.3361V90.6747H47.9015V93.4538H52.7189V95H46.057ZM62.9281 84.8182V95H61.2875L56.4899 88.0646H56.4054V95H54.5609V84.8182H56.2115L61.0041 91.7585H61.0936V84.8182H62.9281ZM64.4904 86.3643V84.8182H72.614V86.3643H69.467V95H67.6374V86.3643H64.4904ZM79.7955 95L76.9219 84.8182H78.9055L80.7401 92.3004H80.8345L82.7933 84.8182H84.598L86.5618 92.3054H86.6513L88.4858 84.8182H90.4695L87.5959 95H85.7763L83.7379 87.8558H83.6584L81.6151 95H79.7955ZM100.3 89.9091C100.3 91.0062 100.094 91.9458 99.6831 92.728C99.2754 93.5069 98.7186 94.1035 98.0126 94.5178C97.31 94.9321 96.5128 95.1392 95.6213 95.1392C94.7297 95.1392 93.9309 94.9321 93.225 94.5178C92.5223 94.1001 91.9655 93.5019 91.5545 92.723C91.1468 91.9408 90.943 91.0028 90.943 89.9091C90.943 88.812 91.1468 87.8741 91.5545 87.0952C91.9655 86.313 92.5223 85.7147 93.225 85.3004C93.9309 84.8861 94.7297 84.679 95.6213 84.679C96.5128 84.679 97.31 84.8861 98.0126 85.3004C98.7186 85.7147 99.2754 86.313 99.6831 87.0952C100.094 87.8741 100.3 88.812 100.3 89.9091ZM98.4451 89.9091C98.4451 89.1368 98.3242 88.4856 98.0822 87.9553C97.8436 87.4216 97.5121 87.0189 97.0879 86.7472C96.6636 86.4721 96.1748 86.3345 95.6213 86.3345C95.0678 86.3345 94.5789 86.4721 94.1547 86.7472C93.7304 87.0189 93.3973 87.4216 93.1554 87.9553C92.9167 88.4856 92.7974 89.1368 92.7974 89.9091C92.7974 90.6813 92.9167 91.3343 93.1554 91.8679C93.3973 92.3982 93.7304 92.8009 94.1547 93.076C94.5789 93.3478 95.0678 93.4837 95.6213 93.4837C96.1748 93.4837 96.6636 93.3478 97.0879 93.076C97.5121 92.8009 97.8436 92.3982 98.0822 91.8679C98.3242 91.3343 98.4451 90.6813 98.4451 89.9091ZM102.043 95V84.8182H105.862C106.644 84.8182 107.3 84.9541 107.83 85.2259C108.364 85.4976 108.767 85.8788 109.038 86.3693C109.313 86.8565 109.451 87.425 109.451 88.0746C109.451 88.7275 109.312 89.2943 109.033 89.7749C108.758 90.2521 108.352 90.6217 107.815 90.8835C107.278 91.142 106.619 91.2713 105.837 91.2713H103.117V89.7401H105.588C106.045 89.7401 106.42 89.6771 106.712 89.5511C107.003 89.4219 107.219 89.2346 107.358 88.9893C107.5 88.7408 107.572 88.4358 107.572 88.0746C107.572 87.7133 107.5 87.4051 107.358 87.1499C107.215 86.8913 106.998 86.6958 106.707 86.5632C106.415 86.4273 106.039 86.3594 105.578 86.3594H103.888V95H102.043ZM107.303 90.3864L109.824 95H107.766L105.29 90.3864H107.303ZM111.149 95V84.8182H112.993V89.4964H113.118L117.09 84.8182H119.342L115.404 89.3871L119.377 95H117.159L114.122 90.6349L112.993 91.9673V95H111.149ZM125.404 95H123.435L127.019 84.8182H129.296L132.886 95H130.917L128.198 86.9062H128.118L125.404 95ZM125.468 91.0078H130.838V92.4893H125.468V91.0078ZM142.594 84.8182V95H140.953L136.156 88.0646H136.071V95H134.227V84.8182H135.877L140.67 91.7585H140.76V84.8182H142.594ZM148.054 95H144.604V84.8182H148.124C149.135 84.8182 150.003 85.022 150.729 85.4297C151.458 85.834 152.018 86.4157 152.409 87.1747C152.8 87.9337 152.996 88.8419 152.996 89.8991C152.996 90.9598 152.799 91.8712 152.404 92.6335C152.013 93.3958 151.448 93.9808 150.709 94.3885C149.973 94.7962 149.088 95 148.054 95ZM146.448 93.4041H147.965C148.674 93.4041 149.266 93.2749 149.74 93.0163C150.213 92.7545 150.57 92.3651 150.808 91.848C151.047 91.3277 151.166 90.678 151.166 89.8991C151.166 89.1203 151.047 88.474 150.808 87.9602C150.57 87.4432 150.217 87.0571 149.749 86.8018C149.285 86.5433 148.709 86.4141 148.019 86.4141H146.448V93.4041ZM17.0043 115V104.818H23.6264V106.364H18.8487V109.129H23.2834V110.675H18.8487V113.454H23.6662V115H17.0043ZM34.2234 108.254H32.364C32.311 107.949 32.2132 107.679 32.0707 107.443C31.9281 107.205 31.7508 107.002 31.5387 106.837C31.3266 106.671 31.0846 106.547 30.8129 106.464C30.5444 106.378 30.2544 106.335 29.9428 106.335C29.3893 106.335 28.8988 106.474 28.4712 106.752C28.0437 107.027 27.7089 107.432 27.467 107.965C27.225 108.496 27.104 109.143 27.104 109.909C27.104 110.688 27.225 111.344 27.467 111.878C27.7122 112.408 28.047 112.809 28.4712 113.081C28.8988 113.349 29.3877 113.484 29.9379 113.484C30.2428 113.484 30.5278 113.444 30.793 113.364C31.0614 113.281 31.3017 113.161 31.5138 113.001C31.7293 112.842 31.9099 112.647 32.0558 112.415C32.2049 112.183 32.3076 111.918 32.364 111.619L34.2234 111.629C34.1538 112.113 34.003 112.567 33.771 112.991C33.5423 113.416 33.2423 113.79 32.8711 114.115C32.4999 114.437 32.0657 114.688 31.5685 114.871C31.0714 115.05 30.5195 115.139 29.913 115.139C29.0181 115.139 28.2193 114.932 27.5167 114.518C26.814 114.103 26.2605 113.505 25.8562 112.723C25.4518 111.941 25.2496 111.003 25.2496 109.909C25.2496 108.812 25.4535 107.874 25.8612 107.095C26.2688 106.313 26.824 105.715 27.5266 105.3C28.2293 104.886 29.0247 104.679 29.913 104.679C30.4798 104.679 31.0067 104.759 31.494 104.918C31.9812 105.077 32.4154 105.31 32.7965 105.619C33.1777 105.924 33.4909 106.298 33.7362 106.742C33.9847 107.183 34.1471 107.687 34.2234 108.254ZM45.0105 109.909C45.0105 111.006 44.805 111.946 44.394 112.728C43.9863 113.507 43.4295 114.103 42.7235 114.518C42.0209 114.932 41.2238 115.139 40.3322 115.139C39.4406 115.139 38.6419 114.932 37.9359 114.518C37.2333 114.1 36.6764 113.502 36.2654 112.723C35.8578 111.941 35.6539 111.003 35.6539 109.909C35.6539 108.812 35.8578 107.874 36.2654 107.095C36.6764 106.313 37.2333 105.715 37.9359 105.3C38.6419 104.886 39.4406 104.679 40.3322 104.679C41.2238 104.679 42.0209 104.886 42.7235 105.3C43.4295 105.715 43.9863 106.313 44.394 107.095C44.805 107.874 45.0105 108.812 45.0105 109.909ZM43.1561 109.909C43.1561 109.137 43.0351 108.486 42.7931 107.955C42.5545 107.422 42.2231 107.019 41.7988 106.747C41.3746 106.472 40.8857 106.335 40.3322 106.335C39.7787 106.335 39.2898 106.472 38.8656 106.747C38.4413 107.019 38.1083 107.422 37.8663 107.955C37.6277 108.486 37.5083 109.137 37.5083 109.909C37.5083 110.681 37.6277 111.334 37.8663 111.868C38.1083 112.398 38.4413 112.801 38.8656 113.076C39.2898 113.348 39.7787 113.484 40.3322 113.484C40.8857 113.484 41.3746 113.348 41.7988 113.076C42.2231 112.801 42.5545 112.398 42.7931 111.868C43.0351 111.334 43.1561 110.681 43.1561 109.909ZM55.1214 104.818V115H53.4808L48.6832 108.065H48.5987V115H46.7543V104.818H48.4048L53.1974 111.759H53.2869V104.818H55.1214ZM66.2292 109.909C66.2292 111.006 66.0237 111.946 65.6127 112.728C65.2051 113.507 64.6483 114.103 63.9423 114.518C63.2396 114.932 62.4425 115.139 61.551 115.139C60.6594 115.139 59.8606 114.932 59.1547 114.518C58.452 114.1 57.8952 113.502 57.4842 112.723C57.0765 111.941 56.8727 111.003 56.8727 109.909C56.8727 108.812 57.0765 107.874 57.4842 107.095C57.8952 106.313 58.452 105.715 59.1547 105.3C59.8606 104.886 60.6594 104.679 61.551 104.679C62.4425 104.679 63.2396 104.886 63.9423 105.3C64.6483 105.715 65.2051 106.313 65.6127 107.095C66.0237 107.874 66.2292 108.812 66.2292 109.909ZM64.3748 109.909C64.3748 109.137 64.2538 108.486 64.0119 107.955C63.7733 107.422 63.4418 107.019 63.0176 106.747C62.5933 106.472 62.1045 106.335 61.551 106.335C60.9975 106.335 60.5086 106.472 60.0843 106.747C59.6601 107.019 59.327 107.422 59.085 107.955C58.8464 108.486 58.7271 109.137 58.7271 109.909C58.7271 110.681 58.8464 111.334 59.085 111.868C59.327 112.398 59.6601 112.801 60.0843 113.076C60.5086 113.348 60.9975 113.484 61.551 113.484C62.1045 113.484 62.5933 113.348 63.0176 113.076C63.4418 112.801 63.7733 112.398 64.0119 111.868C64.2538 111.334 64.3748 110.681 64.3748 109.909ZM67.973 104.818H70.2301L73.2528 112.196H73.3722L76.3949 104.818H78.652V115H76.8821V108.005H76.7876L73.9737 114.97H72.6513L69.8374 107.99H69.7429V115H67.973V104.818ZM82.505 104.818V115H80.6605V104.818H82.505ZM93.2175 108.254H91.3581C91.3051 107.949 91.2073 107.679 91.0648 107.443C90.9223 107.205 90.745 107.002 90.5328 106.837C90.3207 106.671 90.0788 106.547 89.807 106.464C89.5385 106.378 89.2485 106.335 88.937 106.335C88.3835 106.335 87.8929 106.474 87.4654 106.752C87.0378 107.027 86.7031 107.432 86.4611 107.965C86.2192 108.496 86.0982 109.143 86.0982 109.909C86.0982 110.688 86.2192 111.344 86.4611 111.878C86.7064 112.408 87.0411 112.809 87.4654 113.081C87.8929 113.349 88.3818 113.484 88.932 113.484C89.2369 113.484 89.522 113.444 89.7871 113.364C90.0556 113.281 90.2959 113.161 90.508 113.001C90.7234 112.842 90.9041 112.647 91.0499 112.415C91.199 112.183 91.3018 111.918 91.3581 111.619L93.2175 111.629C93.1479 112.113 92.9971 112.567 92.7651 112.991C92.5364 113.416 92.2364 113.79 91.8652 114.115C91.494 114.437 91.0598 114.688 90.5627 114.871C90.0655 115.05 89.5137 115.139 88.9071 115.139C88.0123 115.139 87.2135 114.932 86.5108 114.518C85.8082 114.103 85.2547 113.505 84.8503 112.723C84.446 111.941 84.2438 111.003 84.2438 109.909C84.2438 108.812 84.4476 107.874 84.8553 107.095C85.263 106.313 85.8181 105.715 86.5208 105.3C87.2234 104.886 88.0189 104.679 88.9071 104.679C89.4739 104.679 90.0009 104.759 90.4881 104.918C90.9753 105.077 91.4095 105.31 91.7907 105.619C92.1718 105.924 92.485 106.298 92.7303 106.742C92.9789 107.183 93.1413 107.687 93.2175 108.254ZM105.2 108.07C105.117 107.801 105.003 107.561 104.857 107.349C104.715 107.133 104.542 106.949 104.34 106.797C104.141 106.644 103.913 106.53 103.654 106.454C103.396 106.374 103.114 106.335 102.809 106.335C102.262 106.335 101.775 106.472 101.347 106.747C100.92 107.022 100.583 107.427 100.338 107.96C100.096 108.491 99.9751 109.137 99.9751 109.899C99.9751 110.668 100.096 111.319 100.338 111.853C100.58 112.387 100.916 112.793 101.347 113.071C101.778 113.346 102.279 113.484 102.849 113.484C103.366 113.484 103.813 113.384 104.191 113.185C104.572 112.987 104.866 112.705 105.071 112.34C105.277 111.972 105.379 111.541 105.379 111.048L105.797 111.112H103.033V109.67H107.164V110.893C107.164 111.765 106.978 112.519 106.607 113.156C106.236 113.792 105.726 114.282 105.076 114.627C104.426 114.969 103.681 115.139 102.839 115.139C101.901 115.139 101.077 114.929 100.368 114.508C99.6619 114.084 99.1101 113.482 98.7124 112.703C98.3179 111.921 98.1207 110.993 98.1207 109.919C98.1207 109.097 98.2367 108.363 98.4688 107.717C98.7041 107.07 99.0322 106.522 99.4531 106.071C99.8741 105.617 100.368 105.272 100.935 105.037C101.501 104.798 102.118 104.679 102.784 104.679C103.348 104.679 103.873 104.762 104.36 104.928C104.847 105.09 105.28 105.322 105.658 105.624C106.039 105.925 106.352 106.283 106.597 106.697C106.843 107.112 107.003 107.569 107.08 108.07H105.2ZM108.948 115V104.818H112.766C113.548 104.818 114.204 104.954 114.735 105.226C115.268 105.498 115.671 105.879 115.943 106.369C116.218 106.857 116.355 107.425 116.355 108.075C116.355 108.728 116.216 109.294 115.938 109.775C115.663 110.252 115.257 110.622 114.72 110.884C114.183 111.142 113.523 111.271 112.741 111.271H110.021V109.74H112.492C112.95 109.74 113.324 109.677 113.616 109.551C113.908 109.422 114.123 109.235 114.262 108.989C114.405 108.741 114.476 108.436 114.476 108.075C114.476 107.713 114.405 107.405 114.262 107.15C114.12 106.891 113.903 106.696 113.611 106.563C113.319 106.427 112.943 106.359 112.482 106.359H110.792V115H108.948ZM114.208 110.386L116.728 115H114.67L112.194 110.386H114.208ZM127.151 109.909C127.151 111.006 126.946 111.946 126.535 112.728C126.127 113.507 125.57 114.103 124.864 114.518C124.162 114.932 123.364 115.139 122.473 115.139C121.581 115.139 120.782 114.932 120.077 114.518C119.374 114.1 118.817 113.502 118.406 112.723C117.998 111.941 117.795 111.003 117.795 109.909C117.795 108.812 117.998 107.874 118.406 107.095C118.817 106.313 119.374 105.715 120.077 105.3C120.782 104.886 121.581 104.679 122.473 104.679C123.364 104.679 124.162 104.886 124.864 105.3C125.57 105.715 126.127 106.313 126.535 107.095C126.946 107.874 127.151 108.812 127.151 109.909ZM125.297 109.909C125.297 109.137 125.176 108.486 124.934 107.955C124.695 107.422 124.364 107.019 123.939 106.747C123.515 106.472 123.026 106.335 122.473 106.335C121.919 106.335 121.43 106.472 121.006 106.747C120.582 107.019 120.249 107.422 120.007 107.955C119.768 108.486 119.649 109.137 119.649 109.909C119.649 110.681 119.768 111.334 120.007 111.868C120.249 112.398 120.582 112.801 121.006 113.076C121.43 113.348 121.919 113.484 122.473 113.484C123.026 113.484 123.515 113.348 123.939 113.076C124.364 112.801 124.695 112.398 124.934 111.868C125.176 111.334 125.297 110.681 125.297 109.909ZM130.778 115L127.904 104.818H129.888L131.722 112.3H131.817L133.776 104.818H135.58L137.544 112.305H137.634L139.468 104.818H141.452L138.578 115H136.759L134.72 107.856H134.641L132.597 115H130.778ZM142.283 106.364V104.818H150.407V106.364H147.26V115H145.43V106.364H142.283ZM151.973 115V104.818H153.817V109.129H158.536V104.818H160.385V115H158.536V110.675H153.817V115H151.973Z" fill="white"/>
<path d="M20.3253 171.273V180H18.7443V172.811H18.6932L16.652 174.115V172.666L18.821 171.273H20.3253ZM23.0281 180.094C22.7695 180.094 22.5479 180.003 22.3633 179.821C22.1786 179.639 22.0877 179.418 22.0906 179.156C22.0877 178.901 22.1786 178.682 22.3633 178.5C22.5479 178.318 22.7695 178.227 23.0281 178.227C23.2781 178.227 23.4954 178.318 23.68 178.5C23.8675 178.682 23.9627 178.901 23.9656 179.156C23.9627 179.33 23.9173 179.487 23.8292 179.629C23.744 179.771 23.6303 179.885 23.4883 179.97C23.3491 180.053 23.1957 180.094 23.0281 180.094ZM25.3835 178.381V177.124L29.0866 171.273H30.1349V173.062H29.4957L27.0028 177.013V177.081H32.1719V178.381H25.3835ZM29.5469 180V177.997L29.5639 177.435V171.273H31.0554V180H29.5469ZM35.1154 178.807L35.06 179.276C35.0202 179.634 34.9492 179.997 34.8469 180.366C34.7475 180.739 34.6424 181.081 34.5316 181.393C34.4208 181.706 34.3313 181.952 34.2631 182.131H33.2234C33.2631 181.957 33.3171 181.722 33.3853 181.423C33.4563 181.125 33.5245 180.79 33.5898 180.418C33.6552 180.045 33.6992 179.668 33.7219 179.284L33.7518 178.807H35.1154ZM43.0831 171.273V180H41.5021V172.811H41.451L39.4098 174.115V172.666L41.5788 171.273H43.0831ZM45.7859 180.094C45.5273 180.094 45.3058 180.003 45.1211 179.821C44.9364 179.639 44.8455 179.418 44.8484 179.156C44.8455 178.901 44.9364 178.682 45.1211 178.5C45.3058 178.318 45.5273 178.227 45.7859 178.227C46.0359 178.227 46.2532 178.318 46.4379 178.5C46.6254 178.682 46.7205 178.901 46.7234 179.156C46.7205 179.33 46.6751 179.487 46.587 179.629C46.5018 179.771 46.3881 179.885 46.2461 179.97C46.1069 180.053 45.9535 180.094 45.7859 180.094ZM51.2276 180.119C50.6594 180.119 50.1509 180.013 49.7021 179.8C49.2532 179.584 48.8967 179.288 48.6325 178.913C48.3711 178.538 48.2319 178.109 48.2148 177.626H49.7489C49.7773 177.984 49.9322 178.277 50.2134 178.504C50.4947 178.729 50.8327 178.841 51.2276 178.841C51.5373 178.841 51.8129 178.77 52.0543 178.628C52.2958 178.486 52.4862 178.288 52.6254 178.036C52.7646 177.783 52.8327 177.494 52.8299 177.17C52.8327 176.841 52.7631 176.548 52.6211 176.293C52.479 176.037 52.2844 175.837 52.0373 175.692C51.7901 175.544 51.506 175.47 51.185 175.47C50.9237 175.467 50.6665 175.516 50.4137 175.615C50.1609 175.714 49.9606 175.845 49.8129 176.007L48.3853 175.773L48.8413 171.273H53.9038V172.594H50.1495L49.8981 174.908H49.9492C50.1112 174.717 50.3398 174.56 50.6353 174.435C50.9308 174.307 51.2546 174.243 51.6069 174.243C52.1353 174.243 52.6069 174.368 53.0217 174.618C53.4364 174.865 53.7631 175.206 54.0018 175.641C54.2404 176.075 54.3597 176.572 54.3597 177.132C54.3597 177.709 54.2262 178.223 53.9592 178.675C53.695 179.124 53.3271 179.477 52.8555 179.736C52.3867 179.991 51.8441 180.119 51.2276 180.119Z" fill="white"/>
</svg>
