<svg width="200" height="200" viewBox="0 0 200 200" fill="none" xmlns="http://www.w3.org/2000/svg">
<rect width="200" height="200" fill="#C4202E"/>
<path d="M17.2358 38.7614V36.2472L24.642 24.5455H26.7386V28.125H25.4602L20.4744 36.0256V36.1619H30.8125V38.7614H17.2358ZM25.5625 42V37.9943L25.5966 36.8693V24.5455H28.5795V42H25.5625Z" fill="white"/>
<path d="M155.934 34.915L146.306 28.9577V48.2414L155.934 51.3597V34.915Z" fill="white"/>
<path d="M156.991 34.9616V51.3597L166.692 48.2414V28.9577L156.991 34.9616Z" fill="white"/>
<path d="M174.25 28.4756C174.25 27.8085 173.743 27.25 173.106 27.25C172.469 27.25 171.962 27.793 171.962 28.4756V29.7943H174.236V28.4756H174.25Z" fill="white"/>
<path d="M172.252 47.9004H171.977L173.121 52.1667L174.25 47.9004H173.975H174.25V30.742H173.975H173.685H173.381H172.817H172.541H172.252H171.977V47.9004H172.252Z" fill="white"/>
<path d="M168.763 29.7792L167.72 28.9105V48.7527L157.02 52.4606H156.528H156.427H155.934L145.278 49.2802V28.9105L144.25 29.7792V50.0559L155.891 53.5H156.427H156.528H157.064L167.807 49.8542L168.763 49.5595V29.7792Z" fill="white"/>
<path d="M20.7976 91.5795H22.468L23.4574 92.8622L24.1634 93.6974L25.8587 95.875H24.0689L22.9155 94.4134L22.4233 93.7173L20.7976 91.5795ZM26.1023 89.9091C26.1023 91.0062 25.8968 91.9458 25.4858 92.728C25.0781 93.5069 24.5213 94.1035 23.8153 94.5178C23.1127 94.9321 22.3156 95.1392 21.424 95.1392C20.5324 95.1392 19.7337 94.9321 19.0277 94.5178C18.325 94.1001 17.7682 93.5019 17.3572 92.723C16.9496 91.9408 16.7457 91.0028 16.7457 89.9091C16.7457 88.812 16.9496 87.8741 17.3572 87.0952C17.7682 86.313 18.325 85.7147 19.0277 85.3004C19.7337 84.8861 20.5324 84.679 21.424 84.679C22.3156 84.679 23.1127 84.8861 23.8153 85.3004C24.5213 85.7147 25.0781 86.313 25.4858 87.0952C25.8968 87.8741 26.1023 88.812 26.1023 89.9091ZM24.2479 89.9091C24.2479 89.1368 24.1269 88.4856 23.8849 87.9553C23.6463 87.4216 23.3149 87.0189 22.8906 86.7472C22.4664 86.4721 21.9775 86.3345 21.424 86.3345C20.8705 86.3345 20.3816 86.4721 19.9574 86.7472C19.5331 87.0189 19.2 87.4216 18.9581 87.9553C18.7195 88.4856 18.6001 89.1368 18.6001 89.9091C18.6001 90.6813 18.7195 91.3343 18.9581 91.8679C19.2 92.3982 19.5331 92.8009 19.9574 93.076C20.3816 93.3478 20.8705 93.4837 21.424 93.4837C21.9775 93.4837 22.4664 93.3478 22.8906 93.076C23.3149 92.8009 23.6463 92.3982 23.8849 91.8679C24.1269 91.3343 24.2479 90.6813 24.2479 89.9091ZM34.2781 84.8182H36.1225V91.4702C36.1225 92.1993 35.9502 92.8407 35.6055 93.3942C35.2641 93.9477 34.7835 94.3802 34.1637 94.6918C33.5439 95 32.8197 95.1541 31.9911 95.1541C31.1592 95.1541 30.4334 95 29.8136 94.6918C29.1938 94.3802 28.7132 93.9477 28.3718 93.3942C28.0304 92.8407 27.8597 92.1993 27.8597 91.4702V84.8182H29.7042V91.3161C29.7042 91.7403 29.797 92.1181 29.9826 92.4496C30.1715 92.781 30.4367 93.0412 30.7781 93.2301C31.1194 93.4157 31.5238 93.5085 31.9911 93.5085C32.4585 93.5085 32.8628 93.4157 33.2042 93.2301C33.5489 93.0412 33.814 92.781 33.9996 92.4496C34.1853 92.1181 34.2781 91.7403 34.2781 91.3161V84.8182ZM39.4348 95H37.4661L41.0506 84.8182H43.3276L46.9171 95H44.9483L42.2289 86.9062H42.1493L39.4348 95ZM39.4995 91.0078H44.8688V92.4893H39.4995V91.0078ZM48.2582 95V84.8182H50.1026V93.4538H54.587V95H48.2582ZM58.0323 84.8182V95H56.1879V84.8182H58.0323ZM59.5822 86.3643V84.8182H67.7058V86.3643H64.5588V95H62.7292V86.3643H59.5822ZM68.5758 84.8182H70.6589L73.1497 89.3224H73.2491L75.7399 84.8182H77.823L74.1191 91.2017V95H72.2797V91.2017L68.5758 84.8182ZM82.6019 95V84.8182H89.2241V86.3643H84.4464V89.1286H88.881V90.6747H84.4464V93.4538H89.2638V95H82.6019ZM94.5561 95H91.1058V84.8182H94.6257C95.6366 84.8182 96.505 85.022 97.2308 85.4297C97.96 85.834 98.5201 86.4157 98.9112 87.1747C99.3023 87.9337 99.4979 88.8419 99.4979 89.8991C99.4979 90.9598 99.3007 91.8712 98.9062 92.6335C98.5152 93.3958 97.95 93.9808 97.2109 94.3885C96.4751 94.7962 95.5902 95 94.5561 95ZM92.9503 93.4041H94.4666C95.1759 93.4041 95.7675 93.2749 96.2415 93.0163C96.7154 92.7545 97.0717 92.3651 97.3104 91.848C97.549 91.3277 97.6683 90.678 97.6683 89.8991C97.6683 89.1203 97.549 88.474 97.3104 87.9602C97.0717 87.4432 96.7188 87.0571 96.2514 86.8018C95.7874 86.5433 95.2107 86.4141 94.5213 86.4141H92.9503V93.4041ZM107.669 84.8182H109.513V91.4702C109.513 92.1993 109.341 92.8407 108.996 93.3942C108.655 93.9477 108.174 94.3802 107.554 94.6918C106.935 95 106.21 95.1541 105.382 95.1541C104.55 95.1541 103.824 95 103.204 94.6918C102.584 94.3802 102.104 93.9477 101.762 93.3942C101.421 92.8407 101.25 92.1993 101.25 91.4702V84.8182H103.095V91.3161C103.095 91.7403 103.188 92.1181 103.373 92.4496C103.562 92.781 103.827 93.0412 104.169 93.2301C104.51 93.4157 104.914 93.5085 105.382 93.5085C105.849 93.5085 106.253 93.4157 106.595 93.2301C106.94 93.0412 107.205 92.781 107.39 92.4496C107.576 92.1181 107.669 91.7403 107.669 91.3161V84.8182ZM120.233 88.2536H118.374C118.321 87.9486 118.223 87.6785 118.08 87.4432C117.938 87.2045 117.761 87.0024 117.548 86.8366C117.336 86.6709 117.094 86.5466 116.823 86.4638C116.554 86.3776 116.264 86.3345 115.953 86.3345C115.399 86.3345 114.909 86.4737 114.481 86.7521C114.053 87.0272 113.719 87.4316 113.477 87.9652C113.235 88.4955 113.114 89.1435 113.114 89.9091C113.114 90.688 113.235 91.3442 113.477 91.8778C113.722 92.4081 114.057 92.8092 114.481 93.081C114.909 93.3494 115.397 93.4837 115.948 93.4837C116.253 93.4837 116.538 93.4439 116.803 93.3643C117.071 93.2815 117.311 93.1605 117.524 93.0014C117.739 92.8423 117.92 92.6468 118.066 92.4148C118.215 92.1828 118.317 91.9176 118.374 91.6193L120.233 91.6293C120.164 92.1132 120.013 92.5672 119.781 92.9915C119.552 93.4157 119.252 93.7902 118.881 94.1151C118.51 94.4366 118.075 94.6884 117.578 94.8707C117.081 95.0497 116.529 95.1392 115.923 95.1392C115.028 95.1392 114.229 94.9321 113.526 94.5178C112.824 94.1035 112.27 93.5052 111.866 92.723C111.462 91.9408 111.259 91.0028 111.259 89.9091C111.259 88.812 111.463 87.8741 111.871 87.0952C112.279 86.313 112.834 85.7147 113.536 85.3004C114.239 84.8861 115.035 84.679 115.923 84.679C116.49 84.679 117.017 84.7585 117.504 84.9176C117.991 85.0767 118.425 85.3104 118.806 85.6186C119.187 85.9235 119.501 86.2981 119.746 86.7422C119.994 87.183 120.157 87.6868 120.233 88.2536ZM123.107 95H121.138L124.722 84.8182H126.999L130.589 95H128.62L125.901 86.9062H125.821L123.107 95ZM123.171 91.0078H128.541V92.4893H123.171V91.0078ZM130.252 86.3643V84.8182H138.376V86.3643H135.229V95H133.399V86.3643H130.252ZM141.786 84.8182V95H139.942V84.8182H141.786ZM152.882 89.9091C152.882 91.0062 152.676 91.9458 152.265 92.728C151.857 93.5069 151.301 94.1035 150.595 94.5178C149.892 94.9321 149.095 95.1392 148.203 95.1392C147.312 95.1392 146.513 94.9321 145.807 94.5178C145.104 94.1001 144.548 93.5019 144.137 92.723C143.729 91.9408 143.525 91.0028 143.525 89.9091C143.525 88.812 143.729 87.8741 144.137 87.0952C144.548 86.313 145.104 85.7147 145.807 85.3004C146.513 84.8861 147.312 84.679 148.203 84.679C149.095 84.679 149.892 84.8861 150.595 85.3004C151.301 85.7147 151.857 86.313 152.265 87.0952C152.676 87.8741 152.882 88.812 152.882 89.9091ZM151.027 89.9091C151.027 89.1368 150.906 88.4856 150.664 87.9553C150.426 87.4216 150.094 87.0189 149.67 86.7472C149.246 86.4721 148.757 86.3345 148.203 86.3345C147.65 86.3345 147.161 86.4721 146.737 86.7472C146.312 87.0189 145.979 87.4216 145.737 87.9553C145.499 88.4856 145.379 89.1368 145.379 89.9091C145.379 90.6813 145.499 91.3343 145.737 91.8679C145.979 92.3982 146.312 92.8009 146.737 93.076C147.161 93.3478 147.65 93.4837 148.203 93.4837C148.757 93.4837 149.246 93.3478 149.67 93.076C150.094 92.8009 150.426 92.3982 150.664 91.8679C150.906 91.3343 151.027 90.6813 151.027 89.9091ZM162.993 84.8182V95H161.352L156.554 88.0646H156.47V95H154.625V84.8182H156.276L161.069 91.7585H161.158V84.8182H162.993Z" fill="white"/>
<path d="M20.3253 171.273V180H18.7443V172.811H18.6932L16.652 174.115V172.666L18.821 171.273H20.3253ZM23.0281 180.094C22.7695 180.094 22.5479 180.003 22.3633 179.821C22.1786 179.639 22.0877 179.418 22.0906 179.156C22.0877 178.901 22.1786 178.682 22.3633 178.5C22.5479 178.318 22.7695 178.227 23.0281 178.227C23.2781 178.227 23.4954 178.318 23.68 178.5C23.8675 178.682 23.9627 178.901 23.9656 179.156C23.9627 179.33 23.9173 179.487 23.8292 179.629C23.744 179.771 23.6303 179.885 23.4883 179.97C23.3491 180.053 23.1957 180.094 23.0281 180.094ZM25.3835 178.381V177.124L29.0866 171.273H30.1349V173.062H29.4957L27.0028 177.013V177.081H32.1719V178.381H25.3835ZM29.5469 180V177.997L29.5639 177.435V171.273H31.0554V180H29.5469ZM35.1154 178.807L35.06 179.276C35.0202 179.634 34.9492 179.997 34.8469 180.366C34.7475 180.739 34.6424 181.081 34.5316 181.393C34.4208 181.706 34.3313 181.952 34.2631 182.131H33.2234C33.2631 181.957 33.3171 181.722 33.3853 181.423C33.4563 181.125 33.5245 180.79 33.5898 180.418C33.6552 180.045 33.6992 179.668 33.7219 179.284L33.7518 178.807H35.1154ZM43.0831 171.273V180H41.5021V172.811H41.451L39.4098 174.115V172.666L41.5788 171.273H43.0831ZM45.7859 180.094C45.5273 180.094 45.3058 180.003 45.1211 179.821C44.9364 179.639 44.8455 179.418 44.8484 179.156C44.8455 178.901 44.9364 178.682 45.1211 178.5C45.3058 178.318 45.5273 178.227 45.7859 178.227C46.0359 178.227 46.2532 178.318 46.4379 178.5C46.6254 178.682 46.7205 178.901 46.7234 179.156C46.7205 179.33 46.6751 179.487 46.587 179.629C46.5018 179.771 46.3881 179.885 46.2461 179.97C46.1069 180.053 45.9535 180.094 45.7859 180.094ZM51.2276 180.119C50.6594 180.119 50.1509 180.013 49.7021 179.8C49.2532 179.584 48.8967 179.288 48.6325 178.913C48.3711 178.538 48.2319 178.109 48.2148 177.626H49.7489C49.7773 177.984 49.9322 178.277 50.2134 178.504C50.4947 178.729 50.8327 178.841 51.2276 178.841C51.5373 178.841 51.8129 178.77 52.0543 178.628C52.2958 178.486 52.4862 178.288 52.6254 178.036C52.7646 177.783 52.8327 177.494 52.8299 177.17C52.8327 176.841 52.7631 176.548 52.6211 176.293C52.479 176.037 52.2844 175.837 52.0373 175.692C51.7901 175.544 51.506 175.47 51.185 175.47C50.9237 175.467 50.6665 175.516 50.4137 175.615C50.1609 175.714 49.9606 175.845 49.8129 176.007L48.3853 175.773L48.8413 171.273H53.9038V172.594H50.1495L49.8981 174.908H49.9492C50.1112 174.717 50.3398 174.56 50.6353 174.435C50.9308 174.307 51.2546 174.243 51.6069 174.243C52.1353 174.243 52.6069 174.368 53.0217 174.618C53.4364 174.865 53.7631 175.206 54.0018 175.641C54.2404 176.075 54.3597 176.572 54.3597 177.132C54.3597 177.709 54.2262 178.223 53.9592 178.675C53.695 179.124 53.3271 179.477 52.8555 179.736C52.3867 179.991 51.8441 180.119 51.2276 180.119Z" fill="white"/>
</svg>
