<svg width="200" height="200" viewBox="0 0 200 200" fill="none" xmlns="http://www.w3.org/2000/svg">
<rect width="200" height="200" fill="#E01A70"/>
<path d="M24.6506 24.5455V42H21.4886V27.6222H21.3864L17.304 30.2301V27.3324L21.642 24.5455H24.6506ZM35.5341 42.3324C34.1307 42.3324 32.9261 41.9773 31.9205 41.267C30.9205 40.5511 30.1506 39.5199 29.6108 38.1733C29.0767 36.821 28.8097 35.1932 28.8097 33.2898C28.8153 31.3864 29.0852 29.767 29.6193 28.4318C30.1591 27.0909 30.929 26.0682 31.929 25.3636C32.9347 24.6591 34.1364 24.3068 35.5341 24.3068C36.9318 24.3068 38.1335 24.6591 39.1392 25.3636C40.1449 26.0682 40.9148 27.0909 41.4489 28.4318C41.9886 29.7727 42.2585 31.392 42.2585 33.2898C42.2585 35.1989 41.9886 36.8295 41.4489 38.1818C40.9148 39.5284 40.1449 40.5568 39.1392 41.267C38.1392 41.9773 36.9375 42.3324 35.5341 42.3324ZM35.5341 39.6648C36.625 39.6648 37.4858 39.1278 38.1165 38.054C38.7528 36.9744 39.071 35.3864 39.071 33.2898C39.071 31.9034 38.9261 30.7386 38.6364 29.7955C38.3466 28.8523 37.9375 28.142 37.4091 27.6648C36.8807 27.1818 36.2557 26.9403 35.5341 26.9403C34.4489 26.9403 33.5909 27.4801 32.9602 28.5597C32.3295 29.6335 32.0114 31.2102 32.0057 33.2898C32 34.6818 32.1392 35.8523 32.4233 36.8011C32.7131 37.75 33.1222 38.4659 33.6506 38.9489C34.179 39.4261 34.8068 39.6648 35.5341 39.6648Z" fill="white"/>
<path d="M169.661 34.4609L175 39.836L169.661 45.2112V34.4609Z" fill="white"/>
<path d="M150.339 34.4609L145 39.836L150.339 45.2112V34.4609Z" fill="white"/>
<path d="M154.767 30.3752L160.107 25L165.446 30.3752H154.767Z" fill="white"/>
<path d="M155.223 49.6105L160.562 55L165.902 49.6105H155.223Z" fill="white"/>
<path d="M165.916 34.9034H154.312V38.0712H165.916V34.9034Z" fill="white"/>
<path d="M165.916 41.7968H154.312V44.9646H165.916V41.7968Z" fill="white"/>
<path d="M17.0043 95V84.8182H20.8224C21.6046 84.8182 22.2609 84.9541 22.7912 85.2259C23.3248 85.4976 23.7275 85.8788 23.9993 86.3693C24.2744 86.8565 24.4119 87.425 24.4119 88.0746C24.4119 88.7275 24.2727 89.2943 23.9943 89.7749C23.7192 90.2521 23.3132 90.6217 22.7763 90.8835C22.2393 91.142 21.5798 91.2713 20.7976 91.2713H18.0781V89.7401H20.549C21.0064 89.7401 21.3809 89.6771 21.6726 89.5511C21.9643 89.4219 22.1797 89.2346 22.3189 88.9893C22.4614 88.7408 22.5327 88.4358 22.5327 88.0746C22.5327 87.7133 22.4614 87.4051 22.3189 87.1499C22.1764 86.8913 21.9593 86.6958 21.6676 86.5632C21.3759 86.4273 20.9998 86.3594 20.5391 86.3594H18.8487V95H17.0043ZM22.2642 90.3864L24.7848 95H22.7266L20.2507 90.3864H22.2642ZM26.1097 95V84.8182H32.7319V86.3643H27.9542V89.1286H32.3888V90.6747H27.9542V93.4538H32.7717V95H26.1097ZM38.0639 95H34.6136V84.8182H38.1335C39.1444 84.8182 40.0128 85.022 40.7386 85.4297C41.4678 85.834 42.0279 86.4157 42.419 87.1747C42.8101 87.9337 43.0057 88.8419 43.0057 89.8991C43.0057 90.9598 42.8085 91.8712 42.4141 92.6335C42.023 93.3958 41.4579 93.9808 40.7188 94.3885C39.983 94.7962 39.098 95 38.0639 95ZM36.4581 93.4041H37.9744C38.6837 93.4041 39.2753 93.2749 39.7493 93.0163C40.2232 92.7545 40.5795 92.3651 40.8182 91.848C41.0568 91.3277 41.1761 90.678 41.1761 89.8991C41.1761 89.1203 41.0568 88.474 40.8182 87.9602C40.5795 87.4432 40.2266 87.0571 39.7592 86.8018C39.2952 86.5433 38.7185 86.4141 38.0291 86.4141H36.4581V93.4041ZM51.1765 84.8182H53.021V91.4702C53.021 92.1993 52.8486 92.8407 52.5039 93.3942C52.1625 93.9477 51.6819 94.3802 51.0621 94.6918C50.4424 95 49.7182 95.1541 48.8896 95.1541C48.0576 95.1541 47.3318 95 46.712 94.6918C46.0922 94.3802 45.6116 93.9477 45.2702 93.3942C44.9289 92.8407 44.7582 92.1993 44.7582 91.4702V84.8182H46.6026V91.3161C46.6026 91.7403 46.6954 92.1181 46.881 92.4496C47.07 92.781 47.3351 93.0412 47.6765 93.2301C48.0179 93.4157 48.4222 93.5085 48.8896 93.5085C49.3569 93.5085 49.7612 93.4157 50.1026 93.2301C50.4473 93.0412 50.7125 92.781 50.8981 92.4496C51.0837 92.1181 51.1765 91.7403 51.1765 91.3161V84.8182ZM63.7409 88.2536H61.8816C61.8285 87.9486 61.7308 87.6785 61.5882 87.4432C61.4457 87.2045 61.2684 87.0024 61.0563 86.8366C60.8442 86.6709 60.6022 86.5466 60.3304 86.4638C60.062 86.3776 59.772 86.3345 59.4604 86.3345C58.9069 86.3345 58.4164 86.4737 57.9888 86.7521C57.5613 87.0272 57.2265 87.4316 56.9846 87.9652C56.7426 88.4955 56.6216 89.1435 56.6216 89.9091C56.6216 90.688 56.7426 91.3442 56.9846 91.8778C57.2298 92.4081 57.5646 92.8092 57.9888 93.081C58.4164 93.3494 58.9052 93.4837 59.4554 93.4837C59.7604 93.4837 60.0454 93.4439 60.3105 93.3643C60.579 93.2815 60.8193 93.1605 61.0314 93.0014C61.2469 92.8423 61.4275 92.6468 61.5733 92.4148C61.7225 92.1828 61.8252 91.9176 61.8816 91.6193L63.7409 91.6293C63.6713 92.1132 63.5205 92.5672 63.2885 92.9915C63.0598 93.4157 62.7599 93.7902 62.3887 94.1151C62.0175 94.4366 61.5833 94.6884 61.0861 94.8707C60.589 95.0497 60.0371 95.1392 59.4306 95.1392C58.5357 95.1392 57.7369 94.9321 57.0343 94.5178C56.3316 94.1035 55.7781 93.5052 55.3738 92.723C54.9694 91.9408 54.7672 91.0028 54.7672 89.9091C54.7672 88.812 54.9711 87.8741 55.3787 87.0952C55.7864 86.313 56.3416 85.7147 57.0442 85.3004C57.7469 84.8861 58.5423 84.679 59.4306 84.679C59.9973 84.679 60.5243 84.7585 61.0115 84.9176C61.4988 85.0767 61.9329 85.3104 62.3141 85.6186C62.6953 85.9235 63.0085 86.2981 63.2537 86.7422C63.5023 87.183 63.6647 87.6868 63.7409 88.2536ZM65.43 95V84.8182H72.0522V86.3643H67.2745V89.1286H71.7092V90.6747H67.2745V93.4538H72.092V95H65.43ZM77.3842 95H73.9339V84.8182H77.4538C78.4647 84.8182 79.3331 85.022 80.0589 85.4297C80.7881 85.834 81.3482 86.4157 81.7393 87.1747C82.1304 87.9337 82.326 88.8419 82.326 89.8991C82.326 90.9598 82.1288 91.8712 81.7344 92.6335C81.3433 93.3958 80.7782 93.9808 80.0391 94.3885C79.3033 94.7962 78.4183 95 77.3842 95ZM75.7784 93.4041H77.2947C78.004 93.4041 78.5956 93.2749 79.0696 93.0163C79.5436 92.7545 79.8999 92.3651 80.1385 91.848C80.3771 91.3277 80.4964 90.678 80.4964 89.8991C80.4964 89.1203 80.3771 88.474 80.1385 87.9602C79.8999 87.4432 79.5469 87.0571 79.0795 86.8018C78.6155 86.5433 78.0388 86.4141 77.3494 86.4141H75.7784V93.4041ZM89.3956 84.8182V95H87.5511V84.8182H89.3956ZM99.7601 84.8182V95H98.1195L93.3219 88.0646H93.2374V95H91.3929V84.8182H93.0435L97.8361 91.7585H97.9256V84.8182H99.7601ZM101.77 95V84.8182H108.392V86.3643H103.614V89.1286H108.049V90.6747H103.614V93.4538H108.432V95H101.77ZM114.067 91.5795H115.738L116.727 92.8622L117.433 93.6974L119.128 95.875H117.338L116.185 94.4134L115.693 93.7173L114.067 91.5795ZM119.372 89.9091C119.372 91.0062 119.166 91.9458 118.755 92.728C118.348 93.5069 117.791 94.1035 117.085 94.5178C116.382 94.9321 115.585 95.1392 114.694 95.1392C113.802 95.1392 113.003 94.9321 112.297 94.5178C111.595 94.1001 111.038 93.5019 110.627 92.723C110.219 91.9408 110.015 91.0028 110.015 89.9091C110.015 88.812 110.219 87.8741 110.627 87.0952C111.038 86.313 111.595 85.7147 112.297 85.3004C113.003 84.8861 113.802 84.679 114.694 84.679C115.585 84.679 116.382 84.8861 117.085 85.3004C117.791 85.7147 118.348 86.313 118.755 87.0952C119.166 87.8741 119.372 88.812 119.372 89.9091ZM117.517 89.9091C117.517 89.1368 117.396 88.4856 117.154 87.9553C116.916 87.4216 116.584 87.0189 116.16 86.7472C115.736 86.4721 115.247 86.3345 114.694 86.3345C114.14 86.3345 113.651 86.4721 113.227 86.7472C112.803 87.0189 112.47 87.4216 112.228 87.9553C111.989 88.4856 111.87 89.1368 111.87 89.9091C111.87 90.6813 111.989 91.3343 112.228 91.8679C112.47 92.3982 112.803 92.8009 113.227 93.076C113.651 93.3478 114.14 93.4837 114.694 93.4837C115.247 93.4837 115.736 93.3478 116.16 93.076C116.584 92.8009 116.916 92.3982 117.154 91.8679C117.396 91.3343 117.517 90.6813 117.517 89.9091ZM127.548 84.8182H129.392V91.4702C129.392 92.1993 129.22 92.8407 128.875 93.3942C128.534 93.9477 128.053 94.3802 127.433 94.6918C126.813 95 126.089 95.1541 125.261 95.1541C124.429 95.1541 123.703 95 123.083 94.6918C122.463 94.3802 121.983 93.9477 121.641 93.3942C121.3 92.8407 121.129 92.1993 121.129 91.4702V84.8182H122.974V91.3161C122.974 91.7403 123.067 92.1181 123.252 92.4496C123.441 92.781 123.706 93.0412 124.048 93.2301C124.389 93.4157 124.793 93.5085 125.261 93.5085C125.728 93.5085 126.132 93.4157 126.474 93.2301C126.818 93.0412 127.084 92.781 127.269 92.4496C127.455 92.1181 127.548 91.7403 127.548 91.3161V84.8182ZM132.704 95H130.736L134.32 84.8182H136.597L140.187 95H138.218L135.498 86.9062H135.419L132.704 95ZM132.769 91.0078H138.138V92.4893H132.769V91.0078ZM141.528 95V84.8182H143.372V93.4538H147.857V95H141.528ZM151.302 84.8182V95H149.457V84.8182H151.302ZM152.852 86.3643V84.8182H160.975V86.3643H157.828V95H155.999V86.3643H152.852ZM164.386 84.8182V95H162.541V84.8182H164.386ZM166.383 95V84.8182H173.005V86.3643H168.228V89.1286H172.662V90.6747H168.228V93.4538H173.045V95H166.383ZM180.42 87.6172C180.374 87.183 180.179 86.8449 179.834 86.603C179.492 86.361 179.048 86.2401 178.501 86.2401C178.117 86.2401 177.787 86.2981 177.512 86.4141C177.237 86.5301 177.027 86.6875 176.881 86.8864C176.735 87.0852 176.66 87.3123 176.657 87.5675C176.657 87.7796 176.705 87.9635 176.801 88.1193C176.901 88.2751 177.035 88.4077 177.204 88.517C177.373 88.6231 177.56 88.7126 177.766 88.7855C177.971 88.8584 178.178 88.9197 178.387 88.9695L179.342 89.2081C179.726 89.2976 180.096 89.4186 180.45 89.571C180.808 89.7235 181.128 89.9157 181.41 90.1477C181.695 90.3797 181.92 90.6598 182.086 90.9879C182.252 91.3161 182.335 91.7005 182.335 92.1413C182.335 92.7379 182.182 93.2633 181.877 93.7173C181.572 94.1681 181.131 94.5211 180.555 94.7763C179.981 95.0282 179.287 95.1541 178.472 95.1541C177.679 95.1541 176.992 95.0315 176.408 94.7862C175.828 94.541 175.374 94.183 175.046 93.7124C174.721 93.2417 174.546 92.6683 174.519 91.9922H176.334C176.36 92.3468 176.47 92.6418 176.662 92.8771C176.854 93.1125 177.104 93.2881 177.413 93.4041C177.724 93.5201 178.072 93.5781 178.457 93.5781C178.858 93.5781 179.209 93.5185 179.511 93.3991C179.816 93.2765 180.054 93.1075 180.227 92.892C180.399 92.6733 180.487 92.4181 180.49 92.1264C180.487 91.8613 180.409 91.6425 180.256 91.4702C180.104 91.2945 179.89 91.1487 179.615 91.0327C179.343 90.9134 179.025 90.8073 178.661 90.7145L177.502 90.4162C176.664 90.2008 176.001 89.8743 175.513 89.4368C175.03 88.996 174.788 88.411 174.788 87.6818C174.788 87.0819 174.95 86.5566 175.275 86.1058C175.603 85.6551 176.049 85.3054 176.612 85.0568C177.176 84.8049 177.814 84.679 178.526 84.679C179.249 84.679 179.882 84.8049 180.425 85.0568C180.972 85.3054 181.402 85.6518 181.713 86.0959C182.025 86.5367 182.185 87.0438 182.195 87.6172H180.42Z" fill="white"/>
<path d="M20.3253 171.273V180H18.7443V172.811H18.6932L16.652 174.115V172.666L18.821 171.273H20.3253ZM23.0281 180.094C22.7695 180.094 22.5479 180.003 22.3633 179.821C22.1786 179.639 22.0877 179.418 22.0906 179.156C22.0877 178.901 22.1786 178.682 22.3633 178.5C22.5479 178.318 22.7695 178.227 23.0281 178.227C23.2781 178.227 23.4954 178.318 23.68 178.5C23.8675 178.682 23.9627 178.901 23.9656 179.156C23.9627 179.33 23.9173 179.487 23.8292 179.629C23.744 179.771 23.6303 179.885 23.4883 179.97C23.3491 180.053 23.1957 180.094 23.0281 180.094ZM25.3835 178.381V177.124L29.0866 171.273H30.1349V173.062H29.4957L27.0028 177.013V177.081H32.1719V178.381H25.3835ZM29.5469 180V177.997L29.5639 177.435V171.273H31.0554V180H29.5469ZM35.1154 178.807L35.06 179.276C35.0202 179.634 34.9492 179.997 34.8469 180.366C34.7475 180.739 34.6424 181.081 34.5316 181.393C34.4208 181.706 34.3313 181.952 34.2631 182.131H33.2234C33.2631 181.957 33.3171 181.722 33.3853 181.423C33.4563 181.125 33.5245 180.79 33.5898 180.418C33.6552 180.045 33.6992 179.668 33.7219 179.284L33.7518 178.807H35.1154ZM43.0831 171.273V180H41.5021V172.811H41.451L39.4098 174.115V172.666L41.5788 171.273H43.0831ZM45.7859 180.094C45.5273 180.094 45.3058 180.003 45.1211 179.821C44.9364 179.639 44.8455 179.418 44.8484 179.156C44.8455 178.901 44.9364 178.682 45.1211 178.5C45.3058 178.318 45.5273 178.227 45.7859 178.227C46.0359 178.227 46.2532 178.318 46.4379 178.5C46.6254 178.682 46.7205 178.901 46.7234 179.156C46.7205 179.33 46.6751 179.487 46.587 179.629C46.5018 179.771 46.3881 179.885 46.2461 179.97C46.1069 180.053 45.9535 180.094 45.7859 180.094ZM51.2276 180.119C50.6594 180.119 50.1509 180.013 49.7021 179.8C49.2532 179.584 48.8967 179.288 48.6325 178.913C48.3711 178.538 48.2319 178.109 48.2148 177.626H49.7489C49.7773 177.984 49.9322 178.277 50.2134 178.504C50.4947 178.729 50.8327 178.841 51.2276 178.841C51.5373 178.841 51.8129 178.77 52.0543 178.628C52.2958 178.486 52.4862 178.288 52.6254 178.036C52.7646 177.783 52.8327 177.494 52.8299 177.17C52.8327 176.841 52.7631 176.548 52.6211 176.293C52.479 176.037 52.2844 175.837 52.0373 175.692C51.7901 175.544 51.506 175.47 51.185 175.47C50.9237 175.467 50.6665 175.516 50.4137 175.615C50.1609 175.714 49.9606 175.845 49.8129 176.007L48.3853 175.773L48.8413 171.273H53.9038V172.594H50.1495L49.8981 174.908H49.9492C50.1112 174.717 50.3398 174.56 50.6353 174.435C50.9308 174.307 51.2546 174.243 51.6069 174.243C52.1353 174.243 52.6069 174.368 53.0217 174.618C53.4364 174.865 53.7631 175.206 54.0018 175.641C54.2404 176.075 54.3597 176.572 54.3597 177.132C54.3597 177.709 54.2262 178.223 53.9592 178.675C53.695 179.124 53.3271 179.477 52.8555 179.736C52.3867 179.991 51.8441 180.119 51.2276 180.119Z" fill="white"/>
</svg>
