<svg width="200" height="200" viewBox="0 0 200 200" fill="none" xmlns="http://www.w3.org/2000/svg">
<rect width="200" height="200" fill="#53A246"/>
<path d="M23.8153 42.2386C22.5881 42.2386 21.4972 42.0284 20.5426 41.608C19.5938 41.1875 18.8438 40.6023 18.2926 39.8523C17.7415 39.1023 17.4489 38.2358 17.4148 37.2528H20.6193C20.6477 37.7244 20.804 38.1364 21.0881 38.4886C21.3722 38.8352 21.75 39.1051 22.2216 39.2983C22.6932 39.4915 23.2216 39.5881 23.8068 39.5881C24.4318 39.5881 24.9858 39.4801 25.4688 39.2642C25.9517 39.0426 26.3295 38.7358 26.6023 38.3438C26.875 37.9517 27.0085 37.5 27.0028 36.9886C27.0085 36.4602 26.8722 35.9943 26.5938 35.5909C26.3153 35.1875 25.9119 34.8722 25.3835 34.6449C24.8608 34.4176 24.2301 34.304 23.4915 34.304H21.9489V31.8665H23.4915C24.0994 31.8665 24.6307 31.7614 25.0852 31.5511C25.5455 31.3409 25.9063 31.0455 26.1676 30.6648C26.429 30.2784 26.5568 29.8324 26.5511 29.3267C26.5568 28.8324 26.446 28.4034 26.2188 28.0398C25.9972 27.6705 25.6818 27.3835 25.2727 27.179C24.8693 26.9744 24.3949 26.8722 23.8494 26.8722C23.3153 26.8722 22.821 26.9687 22.3665 27.1619C21.9119 27.3551 21.5455 27.6307 21.267 27.9886C20.9886 28.3409 20.8409 28.7614 20.8239 29.25H17.7812C17.804 28.2727 18.0852 27.4148 18.625 26.6761C19.1705 25.9318 19.8977 25.3523 20.8068 24.9375C21.7159 24.517 22.7358 24.3068 23.8665 24.3068C25.0313 24.3068 26.0426 24.5256 26.9006 24.9631C27.7642 25.3949 28.4318 25.9773 28.9034 26.7102C29.375 27.4432 29.6108 28.2528 29.6108 29.1392C29.6165 30.1222 29.3267 30.946 28.7415 31.6108C28.1619 32.2756 27.4006 32.7102 26.4574 32.9148V33.0511C27.6847 33.2216 28.625 33.6761 29.2784 34.4148C29.9375 35.1477 30.2642 36.0597 30.2585 37.1506C30.2585 38.1278 29.9801 39.0028 29.4233 39.7756C28.8722 40.5426 28.1108 41.1449 27.1392 41.5824C26.1733 42.0199 25.0653 42.2386 23.8153 42.2386Z" fill="white"/>
<path d="M180 40.7884C180 39.1075 178.923 37.7418 177.295 37.7418C176.481 37.7418 175.509 38.6348 174.957 39.1863C174.432 38.6348 173.513 37.7418 172.699 37.7418C171.07 37.7418 169.915 39.1075 169.915 40.7884C169.915 41.6289 170.256 42.3905 170.781 42.9421L174.957 47.1181L179.133 42.9421C179.658 42.3905 180 41.6289 180 40.7884Z" fill="white"/>
<path d="M162.193 53.9449C162.193 53.9449 162.167 53.9449 162.141 53.9449C161.825 53.9449 161.563 53.6822 161.51 53.3671L159.383 40.9967L156.179 46.9587C156.047 47.2213 155.732 47.3526 155.443 47.3001C155.154 47.2476 154.918 47.0112 154.892 46.7223L153.526 37.1885L151.031 42.8089C150.926 43.0453 150.663 43.2029 150.401 43.2029H140.683C140.315 43.2029 140 42.8877 140 42.52C140 42.1523 140.315 41.8372 140.683 41.8372H149.954L153.237 34.457C153.368 34.1681 153.657 34.0105 153.972 34.063C154.261 34.1156 154.524 34.3519 154.55 34.6409L155.969 44.4898L159.146 38.6067C159.278 38.3441 159.567 38.2127 159.856 38.2653C160.144 38.3178 160.381 38.5279 160.433 38.8168L162.403 50.2679L169.573 26.4728C169.652 26.2101 169.888 26 170.177 26C170.466 26 170.729 26.1313 170.86 26.394L174.642 34.2206C174.8 34.5621 174.642 34.9823 174.327 35.1399C173.986 35.2974 173.565 35.1399 173.408 34.8247L170.414 28.6001L162.902 53.4984C162.823 53.7873 162.534 53.9974 162.246 53.9974" fill="white"/>
<path d="M23.8253 88.0696C23.7424 87.8011 23.6281 87.5608 23.4822 87.3487C23.3397 87.1333 23.1674 86.9493 22.9652 86.7969C22.7663 86.6444 22.5376 86.5301 22.2791 86.4538C22.0206 86.3743 21.7389 86.3345 21.4339 86.3345C20.8871 86.3345 20.3999 86.4721 19.9723 86.7472C19.5447 87.0223 19.2083 87.4266 18.9631 87.9602C18.7211 88.4905 18.6001 89.1368 18.6001 89.8991C18.6001 90.6681 18.7211 91.3194 18.9631 91.853C19.205 92.3866 19.5414 92.7926 19.9723 93.071C20.4032 93.3461 20.9036 93.4837 21.4737 93.4837C21.9908 93.4837 22.4382 93.3842 22.8161 93.1854C23.1972 92.9865 23.4905 92.7048 23.696 92.3402C23.9015 91.9723 24.0043 91.5414 24.0043 91.0476L24.4219 91.1122H21.6577V89.6705H25.7891V90.8935C25.7891 91.7652 25.6035 92.5192 25.2322 93.1555C24.861 93.7919 24.3506 94.2824 23.701 94.6271C23.0514 94.9685 22.3056 95.1392 21.4638 95.1392C20.5258 95.1392 19.7022 94.9287 18.9929 94.5078C18.2869 94.0836 17.7351 93.482 17.3374 92.7031C16.9429 91.9209 16.7457 90.9929 16.7457 89.919C16.7457 89.0971 16.8617 88.3629 17.0938 87.7166C17.3291 87.0703 17.6572 86.5218 18.0781 86.071C18.4991 85.617 18.9929 85.2723 19.5597 85.0369C20.1264 84.7983 20.7429 84.679 21.4091 84.679C21.9725 84.679 22.4979 84.7618 22.9851 84.9276C23.4723 85.09 23.9048 85.322 24.2827 85.6236C24.6638 85.9252 24.977 86.2831 25.2223 86.6974C25.4676 87.1117 25.6283 87.5691 25.7045 88.0696H23.8253ZM36.6706 89.9091C36.6706 91.0062 36.4651 91.9458 36.0542 92.728C35.6465 93.5069 35.0897 94.1035 34.3837 94.5178C33.681 94.9321 32.8839 95.1392 31.9924 95.1392C31.1008 95.1392 30.302 94.9321 29.5961 94.5178C28.8934 94.1001 28.3366 93.5019 27.9256 92.723C27.5179 91.9408 27.3141 91.0028 27.3141 89.9091C27.3141 88.812 27.5179 87.8741 27.9256 87.0952C28.3366 86.313 28.8934 85.7147 29.5961 85.3004C30.302 84.8861 31.1008 84.679 31.9924 84.679C32.8839 84.679 33.681 84.8861 34.3837 85.3004C35.0897 85.7147 35.6465 86.313 36.0542 87.0952C36.4651 87.8741 36.6706 88.812 36.6706 89.9091ZM34.8162 89.9091C34.8162 89.1368 34.6953 88.4856 34.4533 87.9553C34.2147 87.4216 33.8832 87.0189 33.459 86.7472C33.0347 86.4721 32.5459 86.3345 31.9924 86.3345C31.4389 86.3345 30.95 86.4721 30.5257 86.7472C30.1015 87.0189 29.7684 87.4216 29.5265 87.9553C29.2878 88.4856 29.1685 89.1368 29.1685 89.9091C29.1685 90.6813 29.2878 91.3343 29.5265 91.8679C29.7684 92.3982 30.1015 92.8009 30.5257 93.076C30.95 93.3478 31.4389 93.4837 31.9924 93.4837C32.5459 93.4837 33.0347 93.3478 33.459 93.076C33.8832 92.8009 34.2147 92.3982 34.4533 91.8679C34.6953 91.3343 34.8162 90.6813 34.8162 89.9091ZM47.5124 89.9091C47.5124 91.0062 47.3069 91.9458 46.896 92.728C46.4883 93.5069 45.9315 94.1035 45.2255 94.5178C44.5228 94.9321 43.7257 95.1392 42.8342 95.1392C41.9426 95.1392 41.1438 94.9321 40.4379 94.5178C39.7352 94.1001 39.1784 93.5019 38.7674 92.723C38.3597 91.9408 38.1559 91.0028 38.1559 89.9091C38.1559 88.812 38.3597 87.8741 38.7674 87.0952C39.1784 86.313 39.7352 85.7147 40.4379 85.3004C41.1438 84.8861 41.9426 84.679 42.8342 84.679C43.7257 84.679 44.5228 84.8861 45.2255 85.3004C45.9315 85.7147 46.4883 86.313 46.896 87.0952C47.3069 87.8741 47.5124 88.812 47.5124 89.9091ZM45.658 89.9091C45.658 89.1368 45.5371 88.4856 45.2951 87.9553C45.0565 87.4216 44.725 87.0189 44.3008 86.7472C43.8765 86.4721 43.3877 86.3345 42.8342 86.3345C42.2807 86.3345 41.7918 86.4721 41.3675 86.7472C40.9433 87.0189 40.6102 87.4216 40.3683 87.9553C40.1296 88.4856 40.0103 89.1368 40.0103 89.9091C40.0103 90.6813 40.1296 91.3343 40.3683 91.8679C40.6102 92.3982 40.9433 92.8009 41.3675 93.076C41.7918 93.3478 42.2807 93.4837 42.8342 93.4837C43.3877 93.4837 43.8765 93.3478 44.3008 93.076C44.725 92.8009 45.0565 92.3982 45.2951 91.8679C45.5371 91.3343 45.658 90.6813 45.658 89.9091ZM52.7065 95H49.2562V84.8182H52.7761C53.787 84.8182 54.6554 85.022 55.3812 85.4297C56.1104 85.834 56.6705 86.4157 57.0616 87.1747C57.4527 87.9337 57.6483 88.8419 57.6483 89.8991C57.6483 90.9598 57.4511 91.8712 57.0566 92.6335C56.6655 93.3958 56.1004 93.9808 55.3613 94.3885C54.6255 94.7962 53.7406 95 52.7065 95ZM51.1007 93.4041H52.617C53.3263 93.4041 53.9179 93.2749 54.3919 93.0163C54.8658 92.7545 55.2221 92.3651 55.4608 91.848C55.6994 91.3277 55.8187 90.678 55.8187 89.8991C55.8187 89.1203 55.6994 88.474 55.4608 87.9602C55.2221 87.4432 54.8691 87.0571 54.4018 86.8018C53.9378 86.5433 53.3611 86.4141 52.6717 86.4141H51.1007V93.4041ZM62.8734 95V84.8182H64.7179V89.1286H69.4359V84.8182H71.2853V95H69.4359V90.6747H64.7179V95H62.8734ZM73.2914 95V84.8182H79.9135V86.3643H75.1358V89.1286H79.5705V90.6747H75.1358V93.4538H79.9533V95H73.2914ZM83.1028 95H81.1341L84.7186 84.8182H86.9956L90.585 95H88.6163L85.8968 86.9062H85.8173L83.1028 95ZM83.1674 91.0078H88.5368V92.4893H83.1674V91.0078ZM91.9261 95V84.8182H93.7706V93.4538H98.255V95H91.9261ZM98.1096 86.3643V84.8182H106.233V86.3643H103.086V95H101.257V86.3643H98.1096ZM107.799 95V84.8182H109.644V89.1286H114.362V84.8182H116.211V95H114.362V90.6747H109.644V95H107.799ZM122.997 95H121.029L124.613 84.8182H126.89L130.48 95H128.511L125.791 86.9062H125.712L122.997 95ZM123.062 91.0078H128.431V92.4893H123.062V91.0078ZM140.188 84.8182V95H138.547L133.75 88.0646H133.665V95H131.821V84.8182H133.471L138.264 91.7585H138.353V84.8182H140.188ZM145.648 95H142.198V84.8182H145.718C146.728 84.8182 147.597 85.022 148.323 85.4297C149.052 85.834 149.612 86.4157 150.003 87.1747C150.394 87.9337 150.59 88.8419 150.59 89.8991C150.59 90.9598 150.392 91.8712 149.998 92.6335C149.607 93.3958 149.042 93.9808 148.303 94.3885C147.567 94.7962 146.682 95 145.648 95ZM144.042 93.4041H145.558C146.268 93.4041 146.859 93.2749 147.333 93.0163C147.807 92.7545 148.164 92.3651 148.402 91.848C148.641 91.3277 148.76 90.678 148.76 89.8991C148.76 89.1203 148.641 88.474 148.402 87.9602C148.164 87.4432 147.811 87.0571 147.343 86.8018C146.879 86.5433 146.302 86.4141 145.613 86.4141H144.042V93.4041ZM19.147 115L16.2734 104.818H18.2571L20.0916 112.3H20.1861L22.1449 104.818H23.9496L25.9134 112.305H26.0028L27.8374 104.818H29.821L26.9474 115H25.1278L23.0895 107.856H23.0099L20.9666 115H19.147ZM31.1 115V104.818H37.7221V106.364H32.9444V109.129H37.3791V110.675H32.9444V113.454H37.7619V115H31.1ZM39.6039 115V104.818H41.4483V113.454H45.9327V115H39.6039ZM47.5336 115V104.818H49.378V113.454H53.8624V115H47.5336ZM59.3013 109.168V110.65H54.7175V109.168H59.3013ZM61.2738 115V104.818H65.1715C65.9073 104.818 66.5188 104.934 67.006 105.166C67.4966 105.395 67.8628 105.708 68.1048 106.106C68.35 106.504 68.4727 106.954 68.4727 107.458C68.4727 107.872 68.3931 108.227 68.234 108.522C68.0749 108.814 67.8612 109.051 67.5927 109.233C67.3242 109.415 67.0243 109.546 66.6928 109.626V109.725C67.0541 109.745 67.4004 109.856 67.7319 110.058C68.0666 110.257 68.3401 110.539 68.5522 110.903C68.7643 111.268 68.8704 111.709 68.8704 112.226C68.8704 112.753 68.7428 113.227 68.4876 113.648C68.2324 114.065 67.8479 114.395 67.3342 114.637C66.8204 114.879 66.1741 115 65.3952 115H61.2738ZM63.1183 113.459H65.1019C65.7714 113.459 66.2537 113.331 66.5487 113.076C66.8469 112.817 66.9961 112.486 66.9961 112.082C66.9961 111.78 66.9215 111.508 66.7724 111.266C66.6232 111.021 66.4111 110.829 66.136 110.69C65.8609 110.547 65.5328 110.476 65.1516 110.476H63.1183V113.459ZM63.1183 109.148H64.9428C65.261 109.148 65.5477 109.09 65.8029 108.974C66.0581 108.855 66.2586 108.688 66.4045 108.472C66.5536 108.254 66.6282 107.995 66.6282 107.697C66.6282 107.302 66.489 106.978 66.2106 106.722C65.9355 106.467 65.5262 106.339 64.9826 106.339H63.1183V109.148ZM70.475 115V104.818H77.0971V106.364H72.3194V109.129H76.7541V110.675H72.3194V113.454H77.1369V115H70.475ZM80.8233 104.818V115H78.9789V104.818H80.8233ZM91.1879 104.818V115H89.5472L84.7496 108.065H84.6651V115H82.8207V104.818H84.4712L89.2638 111.759H89.3533V104.818H91.1879ZM100.019 108.07C99.9358 107.801 99.8214 107.561 99.6756 107.349C99.5331 107.133 99.3607 106.949 99.1586 106.797C98.9597 106.644 98.731 106.53 98.4725 106.454C98.214 106.374 97.9322 106.335 97.6273 106.335C97.0804 106.335 96.5932 106.472 96.1657 106.747C95.7381 107.022 95.4017 107.427 95.1564 107.96C94.9145 108.491 94.7935 109.137 94.7935 109.899C94.7935 110.668 94.9145 111.319 95.1564 111.853C95.3984 112.387 95.7348 112.793 96.1657 113.071C96.5965 113.346 97.097 113.484 97.6671 113.484C98.1841 113.484 98.6316 113.384 99.0094 113.185C99.3906 112.987 99.6839 112.705 99.8894 112.34C100.095 111.972 100.198 111.541 100.198 111.048L100.615 111.112H97.851V109.67H101.982V110.893C101.982 111.765 101.797 112.519 101.426 113.156C101.054 113.792 100.544 114.282 99.8944 114.627C99.2447 114.969 98.499 115.139 97.6571 115.139C96.7192 115.139 95.8955 114.929 95.1863 114.508C94.4803 114.084 93.9284 113.482 93.5307 112.703C93.1363 111.921 92.9391 110.993 92.9391 109.919C92.9391 109.097 93.0551 108.363 93.2871 107.717C93.5224 107.07 93.8506 106.522 94.2715 106.071C94.6924 105.617 95.1863 105.272 95.753 105.037C96.3198 104.798 96.9363 104.679 97.6025 104.679C98.1659 104.679 98.6912 104.762 99.1784 104.928C99.6657 105.09 100.098 105.322 100.476 105.624C100.857 105.925 101.17 106.283 101.416 106.697C101.661 107.112 101.822 107.569 101.898 108.07H100.019Z" fill="white"/>
<path d="M20.3253 171.273V180H18.7443V172.811H18.6932L16.652 174.115V172.666L18.821 171.273H20.3253ZM23.0281 180.094C22.7695 180.094 22.5479 180.003 22.3633 179.821C22.1786 179.639 22.0877 179.418 22.0906 179.156C22.0877 178.901 22.1786 178.682 22.3633 178.5C22.5479 178.318 22.7695 178.227 23.0281 178.227C23.2781 178.227 23.4954 178.318 23.68 178.5C23.8675 178.682 23.9627 178.901 23.9656 179.156C23.9627 179.33 23.9173 179.487 23.8292 179.629C23.744 179.771 23.6303 179.885 23.4883 179.97C23.3491 180.053 23.1957 180.094 23.0281 180.094ZM25.3835 178.381V177.124L29.0866 171.273H30.1349V173.062H29.4957L27.0028 177.013V177.081H32.1719V178.381H25.3835ZM29.5469 180V177.997L29.5639 177.435V171.273H31.0554V180H29.5469ZM35.1154 178.807L35.06 179.276C35.0202 179.634 34.9492 179.997 34.8469 180.366C34.7475 180.739 34.6424 181.081 34.5316 181.393C34.4208 181.706 34.3313 181.952 34.2631 182.131H33.2234C33.2631 181.957 33.3171 181.722 33.3853 181.423C33.4563 181.125 33.5245 180.79 33.5898 180.418C33.6552 180.045 33.6992 179.668 33.7219 179.284L33.7518 178.807H35.1154ZM43.0831 171.273V180H41.5021V172.811H41.451L39.4098 174.115V172.666L41.5788 171.273H43.0831ZM45.7859 180.094C45.5273 180.094 45.3058 180.003 45.1211 179.821C44.9364 179.639 44.8455 179.418 44.8484 179.156C44.8455 178.901 44.9364 178.682 45.1211 178.5C45.3058 178.318 45.5273 178.227 45.7859 178.227C46.0359 178.227 46.2532 178.318 46.4379 178.5C46.6254 178.682 46.7205 178.901 46.7234 179.156C46.7205 179.33 46.6751 179.487 46.587 179.629C46.5018 179.771 46.3881 179.885 46.2461 179.97C46.1069 180.053 45.9535 180.094 45.7859 180.094ZM51.2276 180.119C50.6594 180.119 50.1509 180.013 49.7021 179.8C49.2532 179.584 48.8967 179.288 48.6325 178.913C48.3711 178.538 48.2319 178.109 48.2148 177.626H49.7489C49.7773 177.984 49.9322 178.277 50.2134 178.504C50.4947 178.729 50.8327 178.841 51.2276 178.841C51.5373 178.841 51.8129 178.77 52.0543 178.628C52.2958 178.486 52.4862 178.288 52.6254 178.036C52.7646 177.783 52.8327 177.494 52.8299 177.17C52.8327 176.841 52.7631 176.548 52.6211 176.293C52.479 176.037 52.2844 175.837 52.0373 175.692C51.7901 175.544 51.506 175.47 51.185 175.47C50.9237 175.467 50.6665 175.516 50.4137 175.615C50.1609 175.714 49.9606 175.845 49.8129 176.007L48.3853 175.773L48.8413 171.273H53.9038V172.594H50.1495L49.8981 174.908H49.9492C50.1112 174.717 50.3398 174.56 50.6353 174.435C50.9308 174.307 51.2546 174.243 51.6069 174.243C52.1353 174.243 52.6069 174.368 53.0217 174.618C53.4364 174.865 53.7631 175.206 54.0018 175.641C54.2404 176.075 54.3597 176.572 54.3597 177.132C54.3597 177.709 54.2262 178.223 53.9592 178.675C53.695 179.124 53.3271 179.477 52.8555 179.736C52.3867 179.991 51.8441 180.119 51.2276 180.119Z" fill="white"/>
</svg>
