<svg width="200" height="200" viewBox="0 0 200 200" fill="none" xmlns="http://www.w3.org/2000/svg">
<rect width="200" height="200" fill="#5BBA47"/>
<path d="M24.6506 24.5455V42H21.4886V27.6222H21.3864L17.304 30.2301V27.3324L21.642 24.5455H24.6506ZM35.1506 42.2386C34.0142 42.2386 32.9972 42.0256 32.0994 41.5994C31.2017 41.1676 30.4886 40.5767 29.9602 39.8267C29.4375 39.0767 29.1591 38.2187 29.125 37.2528H32.1932C32.25 37.9687 32.5597 38.554 33.1222 39.0085C33.6847 39.4574 34.3608 39.6818 35.1506 39.6818C35.7699 39.6818 36.321 39.5398 36.804 39.2557C37.2869 38.9716 37.6676 38.5767 37.946 38.071C38.2244 37.5653 38.3608 36.9886 38.3551 36.3409C38.3608 35.6818 38.2216 35.0966 37.9375 34.5852C37.6534 34.0739 37.2642 33.6733 36.7699 33.3835C36.2756 33.0881 35.7074 32.9403 35.0653 32.9403C34.5426 32.9347 34.0284 33.0312 33.5227 33.2301C33.017 33.429 32.6165 33.6903 32.321 34.0142L29.4659 33.5455L30.3778 24.5455H40.5028V27.1875H32.9943L32.4915 31.8153H32.5938C32.9176 31.4347 33.375 31.1193 33.9659 30.8693C34.5568 30.6136 35.2045 30.4858 35.9091 30.4858C36.9659 30.4858 37.9091 30.7358 38.7386 31.2358C39.5682 31.7301 40.2216 32.4119 40.6989 33.2812C41.1761 34.1506 41.4148 35.1449 41.4148 36.2642C41.4148 37.4176 41.1477 38.446 40.6136 39.3494C40.0852 40.2472 39.3494 40.9545 38.4062 41.4716C37.4688 41.983 36.3835 42.2386 35.1506 42.2386Z" fill="white"/>
<path d="M153.249 42.416H155.06C155.06 42.416 155.192 42.4832 155.192 42.5503V47.0973C155.192 47.0973 155.126 47.2315 155.06 47.2315H153.249C153.249 47.2315 153.117 47.1644 153.117 47.0973V42.5503C153.117 42.5503 153.183 42.416 153.249 42.416Z" fill="white"/>
<path d="M174.868 49.1947H145.132C145.132 49.1947 145 49.2618 145 49.3457V51.1913C145 51.1913 145.066 51.3256 145.132 51.3256H174.868C174.868 51.3256 175 51.2585 175 51.1913V49.3457C175 49.3457 174.934 49.1947 174.868 49.1947Z" fill="white"/>
<path d="M174.868 52.869H145.132C145.132 52.869 145 52.9362 145 53.0033V54.8657C145 54.8657 145.066 54.9999 145.132 54.9999H174.868C174.868 54.9999 175 54.9328 175 54.8657V53.0033C175 53.0033 174.934 52.869 174.868 52.869Z" fill="white"/>
<path d="M169.221 37.3826C168.842 37.0806 167.854 36.3926 166.652 36.3926C165.779 36.3926 164.989 36.745 164.264 37.4329C164.215 37.4832 164.182 37.5504 164.182 37.6175V37.7853C164.182 37.7853 164.215 37.9363 164.264 37.9866C164.33 38.0369 164.396 38.0537 164.479 38.0369C164.495 38.0369 164.511 38.0369 164.528 38.0369C164.577 38.0202 164.643 37.9866 164.676 37.9363C164.841 37.8356 165.252 37.6846 165.862 37.6846C166.471 37.6846 167.739 37.8524 168.924 38.9933H168.957C169.023 39.094 169.122 39.1275 169.221 39.1275C169.319 39.1275 169.418 39.094 169.468 39.0269H169.484C170.686 37.8691 171.921 37.6846 172.547 37.6846C173.172 37.6846 173.584 37.8356 173.749 37.9363C173.798 37.9866 173.847 38.0202 173.913 38.0369C173.946 38.0369 174.012 38.0537 174.094 38.0369C174.21 38.0034 174.275 37.9027 174.275 37.7853V37.6342C174.275 37.6342 174.243 37.5 174.193 37.4497C173.469 36.745 172.662 36.3926 171.773 36.3926C170.571 36.3926 169.583 37.0806 169.204 37.3826" fill="white"/>
<path d="M167.36 25.302C167.36 25.302 167.245 25.3859 167.228 25.4698L167.195 25.5704C167.195 25.5704 167.195 25.7382 167.228 25.8053C167.278 25.8725 167.343 25.906 167.409 25.906H167.442C167.492 25.906 167.541 25.906 167.59 25.8725C167.623 25.8725 167.673 25.8557 167.772 25.8557C167.903 25.8557 169.105 25.906 169.896 27.2651C169.945 27.3657 170.011 27.4161 170.093 27.4496C170.11 27.4496 170.159 27.4496 170.192 27.4496C170.241 27.4496 170.307 27.4496 170.34 27.4161H170.357C170.785 27.1812 171.246 27.0637 171.69 27.0637C172.448 27.0637 172.942 27.3825 173.041 27.5C173.057 27.5503 173.106 27.5839 173.139 27.6174C173.156 27.6174 173.205 27.651 173.238 27.6678C173.238 27.6678 173.271 27.6678 173.288 27.6678C173.288 27.6678 173.304 27.6678 173.32 27.6678C173.37 27.6678 173.403 27.6678 173.436 27.6342C173.502 27.6006 173.551 27.5503 173.567 27.4832V27.3993C173.567 27.3993 173.6 27.349 173.6 27.3322C173.6 27.2819 173.6 27.2315 173.567 27.198C172.991 26.1745 172.151 25.9564 171.542 25.9564C171.098 25.9564 170.702 26.0738 170.472 26.1577C170.192 25.7886 169.517 25.0168 168.463 25.0168C168.101 25.0168 167.722 25.1174 167.344 25.302" fill="white"/>
<path d="M161.087 29.9664V30.1006C161.087 30.1845 161.136 30.2684 161.218 30.302C161.284 30.3355 161.35 30.3523 161.416 30.3355C161.416 30.3355 161.449 30.3355 161.465 30.3355C161.515 30.3188 161.564 30.2852 161.597 30.2349C161.729 30.151 162.14 29.9664 162.733 29.9664C163.326 29.9664 164.182 30.1174 165.088 30.8725H165.104C165.104 30.8725 165.252 30.9899 165.335 30.9899H165.351C165.45 30.9899 165.532 30.9396 165.582 30.8725H165.598C166.586 29.7819 167.656 29.6141 168.2 29.6141C168.595 29.6141 168.875 29.698 168.974 29.7651C169.007 29.7986 169.072 29.8322 169.122 29.849C169.138 29.849 169.188 29.849 169.237 29.849C169.254 29.849 169.286 29.849 169.303 29.849C169.418 29.8154 169.484 29.698 169.468 29.5973V29.4798C169.468 29.4798 169.418 29.3456 169.369 29.2953C168.776 28.7919 168.134 28.5235 167.475 28.5235C166.421 28.5235 165.598 29.1611 165.252 29.4631C164.94 29.2449 164.166 28.7919 163.26 28.7919C162.47 28.7919 161.762 29.1275 161.153 29.7819C161.103 29.8322 161.087 29.8993 161.087 29.9832" fill="white"/>
<path d="M146.037 32.3994C146.037 30.5873 147.486 29.1108 149.265 29.1108C149.33 29.1108 149.396 29.1108 149.479 29.1108C149.643 26.8122 151.52 25.0001 153.825 25.0001C156.131 25.0001 158.189 26.9967 158.189 29.4464C158.189 30.1511 158.024 30.8055 157.744 31.3927C159.934 31.8793 161.564 33.8591 161.564 36.2417C161.564 38.9934 159.374 41.2081 156.69 41.2081C156.493 41.2081 150.187 41.1746 150.187 41.1746C148.277 41.1746 146.729 39.5974 146.729 37.6511C146.729 36.7115 147.091 35.8726 147.667 35.2518C146.696 34.6813 146.037 33.6243 146.037 32.3994Z" fill="white"/>
<path d="M17.0043 95V84.8182H18.8487V93.4538H23.3331V95H17.0043ZM26.7784 84.8182V95H24.9339V84.8182H26.7784ZM28.7757 95V84.8182H35.2985V86.3643H30.6202V89.1286H34.851V90.6747H30.6202V95H28.7757ZM36.9789 95V84.8182H43.601V86.3643H38.8233V89.1286H43.258V90.6747H38.8233V93.4538H43.6408V95H36.9789ZM58.0534 89.9091C58.0534 91.0062 57.848 91.9458 57.437 92.728C57.0293 93.5069 56.4725 94.1035 55.7665 94.5178C55.0639 94.9321 54.2667 95.1392 53.3752 95.1392C52.4836 95.1392 51.6848 94.9321 50.9789 94.5178C50.2762 94.1001 49.7194 93.5019 49.3084 92.723C48.9007 91.9408 48.6969 91.0028 48.6969 89.9091C48.6969 88.812 48.9007 87.8741 49.3084 87.0952C49.7194 86.313 50.2762 85.7147 50.9789 85.3004C51.6848 84.8861 52.4836 84.679 53.3752 84.679C54.2667 84.679 55.0639 84.8861 55.7665 85.3004C56.4725 85.7147 57.0293 86.313 57.437 87.0952C57.848 87.8741 58.0534 88.812 58.0534 89.9091ZM56.199 89.9091C56.199 89.1368 56.0781 88.4856 55.8361 87.9553C55.5975 87.4216 55.266 87.0189 54.8418 86.7472C54.4176 86.4721 53.9287 86.3345 53.3752 86.3345C52.8217 86.3345 52.3328 86.4721 51.9086 86.7472C51.4843 87.0189 51.1512 87.4216 50.9093 87.9553C50.6706 88.4856 50.5513 89.1368 50.5513 89.9091C50.5513 90.6813 50.6706 91.3343 50.9093 91.8679C51.1512 92.3982 51.4843 92.8009 51.9086 93.076C52.3328 93.3478 52.8217 93.4837 53.3752 93.4837C53.9287 93.4837 54.4176 93.3478 54.8418 93.076C55.266 92.8009 55.5975 92.3982 55.8361 91.8679C56.0781 91.3343 56.199 90.6813 56.199 89.9091ZM68.1644 84.8182V95H66.5238L61.7262 88.0646H61.6417V95H59.7972V84.8182H61.4478L66.2404 91.7585H66.3299V84.8182H68.1644ZM73.6468 95V84.8182H75.4913V93.4538H79.9757V95H73.6468ZM83.2669 95H81.2981L84.8826 84.8182H87.1596L90.7491 95H88.7804L86.0609 86.9062H85.9814L83.2669 95ZM83.3315 91.0078H88.7008V92.4893H83.3315V91.0078ZM100.457 84.8182V95H98.8168L94.0192 88.0646H93.9347V95H92.0902V84.8182H93.7408L98.5334 91.7585H98.6229V84.8182H100.457ZM105.917 95H102.467V84.8182H105.987C106.998 84.8182 107.866 85.022 108.592 85.4297C109.321 85.834 109.881 86.4157 110.273 87.1747C110.664 87.9337 110.859 88.8419 110.859 89.8991C110.859 90.9598 110.662 91.8712 110.268 92.6335C109.876 93.3958 109.311 93.9808 108.572 94.3885C107.836 94.7962 106.952 95 105.917 95ZM104.312 93.4041H105.828C106.537 93.4041 107.129 93.2749 107.603 93.0163C108.077 92.7545 108.433 92.3651 108.672 91.848C108.91 91.3277 109.03 90.678 109.03 89.8991C109.03 89.1203 108.91 88.474 108.672 87.9602C108.433 87.4432 108.08 87.0571 107.613 86.8018C107.149 86.5433 106.572 86.4141 105.883 86.4141H104.312V93.4041Z" fill="white"/>
<path d="M20.3253 171.273V180H18.7443V172.811H18.6932L16.652 174.115V172.666L18.821 171.273H20.3253ZM23.0281 180.094C22.7695 180.094 22.5479 180.003 22.3633 179.821C22.1786 179.639 22.0877 179.418 22.0906 179.156C22.0877 178.901 22.1786 178.682 22.3633 178.5C22.5479 178.318 22.7695 178.227 23.0281 178.227C23.2781 178.227 23.4954 178.318 23.68 178.5C23.8675 178.682 23.9627 178.901 23.9656 179.156C23.9627 179.33 23.9173 179.487 23.8292 179.629C23.744 179.771 23.6303 179.885 23.4883 179.97C23.3491 180.053 23.1957 180.094 23.0281 180.094ZM25.3835 178.381V177.124L29.0866 171.273H30.1349V173.062H29.4957L27.0028 177.013V177.081H32.1719V178.381H25.3835ZM29.5469 180V177.997L29.5639 177.435V171.273H31.0554V180H29.5469ZM35.1154 178.807L35.06 179.276C35.0202 179.634 34.9492 179.997 34.8469 180.366C34.7475 180.739 34.6424 181.081 34.5316 181.393C34.4208 181.706 34.3313 181.952 34.2631 182.131H33.2234C33.2631 181.957 33.3171 181.722 33.3853 181.423C33.4563 181.125 33.5245 180.79 33.5898 180.418C33.6552 180.045 33.6992 179.668 33.7219 179.284L33.7518 178.807H35.1154ZM43.0831 171.273V180H41.5021V172.811H41.451L39.4098 174.115V172.666L41.5788 171.273H43.0831ZM45.7859 180.094C45.5273 180.094 45.3058 180.003 45.1211 179.821C44.9364 179.639 44.8455 179.418 44.8484 179.156C44.8455 178.901 44.9364 178.682 45.1211 178.5C45.3058 178.318 45.5273 178.227 45.7859 178.227C46.0359 178.227 46.2532 178.318 46.4379 178.5C46.6254 178.682 46.7205 178.901 46.7234 179.156C46.7205 179.33 46.6751 179.487 46.587 179.629C46.5018 179.771 46.3881 179.885 46.2461 179.97C46.1069 180.053 45.9535 180.094 45.7859 180.094ZM51.2276 180.119C50.6594 180.119 50.1509 180.013 49.7021 179.8C49.2532 179.584 48.8967 179.288 48.6325 178.913C48.3711 178.538 48.2319 178.109 48.2148 177.626H49.7489C49.7773 177.984 49.9322 178.277 50.2134 178.504C50.4947 178.729 50.8327 178.841 51.2276 178.841C51.5373 178.841 51.8129 178.77 52.0543 178.628C52.2958 178.486 52.4862 178.288 52.6254 178.036C52.7646 177.783 52.8327 177.494 52.8299 177.17C52.8327 176.841 52.7631 176.548 52.6211 176.293C52.479 176.037 52.2844 175.837 52.0373 175.692C51.7901 175.544 51.506 175.47 51.185 175.47C50.9237 175.467 50.6665 175.516 50.4137 175.615C50.1609 175.714 49.9606 175.845 49.8129 176.007L48.3853 175.773L48.8413 171.273H53.9038V172.594H50.1495L49.8981 174.908H49.9492C50.1112 174.717 50.3398 174.56 50.6353 174.435C50.9308 174.307 51.2546 174.243 51.6069 174.243C52.1353 174.243 52.6069 174.368 53.0217 174.618C53.4364 174.865 53.7631 175.206 54.0018 175.641C54.2404 176.075 54.3597 176.572 54.3597 177.132C54.3597 177.709 54.2262 178.223 53.9592 178.675C53.695 179.124 53.3271 179.477 52.8555 179.736C52.3867 179.991 51.8441 180.119 51.2276 180.119Z" fill="white"/>
</svg>
