<svg width="200" height="200" viewBox="0 0 200 200" fill="none" xmlns="http://www.w3.org/2000/svg">
<rect width="200" height="200" fill="#F36A2C"/>
<path d="M23.6108 24.3068C24.446 24.3125 25.2585 24.4602 26.0483 24.75C26.8438 25.0341 27.5597 25.5 28.196 26.1477C28.8324 26.7898 29.3381 27.6506 29.7131 28.7301C30.0881 29.8097 30.2756 31.1449 30.2756 32.7358C30.2813 34.2358 30.1222 35.5767 29.7983 36.7585C29.4801 37.9347 29.0227 38.929 28.4261 39.7415C27.8295 40.554 27.1108 41.1733 26.2699 41.5994C25.429 42.0256 24.483 42.2386 23.4318 42.2386C22.3295 42.2386 21.3523 42.0227 20.5 41.5909C19.6534 41.1591 18.9688 40.5682 18.446 39.8182C17.9233 39.0682 17.6023 38.2102 17.483 37.2443H20.5938C20.7528 37.9375 21.0767 38.4886 21.5653 38.8977C22.0597 39.3011 22.6818 39.5028 23.4318 39.5028C24.642 39.5028 25.5739 38.9773 26.2273 37.9261C26.8807 36.875 27.2074 35.4148 27.2074 33.5455H27.0881C26.8097 34.0455 26.4489 34.4773 26.0057 34.8409C25.5625 35.1989 25.0597 35.4744 24.4972 35.6676C23.9403 35.8608 23.3494 35.9574 22.7244 35.9574C21.7017 35.9574 20.7813 35.7131 19.9631 35.2244C19.1506 34.7358 18.5057 34.0653 18.0284 33.2131C17.5568 32.3608 17.3182 31.3864 17.3125 30.2898C17.3125 29.1534 17.5739 28.1335 18.0966 27.2301C18.625 26.321 19.3608 25.6051 20.304 25.0824C21.2472 24.554 22.3494 24.2955 23.6108 24.3068ZM23.6193 26.8636C23.0057 26.8636 22.4517 27.0142 21.9574 27.3153C21.4688 27.6108 21.0824 28.0142 20.7983 28.5256C20.5199 29.0312 20.3807 29.5966 20.3807 30.2216C20.3864 30.8409 20.5256 31.4034 20.7983 31.9091C21.0767 32.4148 21.4545 32.8153 21.9318 33.1108C22.4148 33.4062 22.9659 33.554 23.5852 33.554C24.0455 33.554 24.4744 33.4659 24.8722 33.2898C25.2699 33.1136 25.6165 32.8693 25.9119 32.5568C26.2131 32.2386 26.446 31.8778 26.6108 31.4744C26.7813 31.071 26.8636 30.6449 26.858 30.196C26.858 29.5994 26.7159 29.0483 26.4318 28.5426C26.1534 28.0369 25.7699 27.6307 25.2812 27.3239C24.7983 27.017 24.2443 26.8636 23.6193 26.8636Z" fill="white"/>
<path d="M174.762 41.6651L167.738 37.6551V29.6195C167.738 29.4465 167.643 29.2893 167.5 29.2106L160.238 25.0591C160.095 24.9805 159.905 24.9805 159.762 25.0591L152.5 29.2106C152.357 29.2893 152.262 29.4465 152.262 29.6195V37.6551L145.238 41.6651C145.095 41.7437 145 41.901 145 42.0739V50.3769C145 50.5499 145.095 50.7072 145.238 50.7858L152.5 54.9373C152.5 54.9373 152.659 55.0002 152.738 55.0002C152.818 55.0002 152.897 54.9844 152.977 54.9373L160 50.9273L167.023 54.9373C167.023 54.9373 167.182 55.0002 167.262 55.0002C167.341 55.0002 167.421 54.9844 167.5 54.9373L174.762 50.7858C174.905 50.7072 175 50.5499 175 50.3769V42.0739C175 41.901 174.905 41.7437 174.762 41.6651ZM159.507 49.5592L153.676 46.2254L159.507 42.8917V49.5592ZM166.292 37.9225L160.461 41.2562V34.6044L166.292 37.9382V37.9225ZM159.507 41.2562L153.676 37.9225L159.507 34.5887V41.2405V41.2562ZM160.937 42.0739L167.246 38.4728L173.554 42.0739L167.246 45.6751L160.937 42.0739ZM166.769 37.1047L160.937 33.771L166.769 30.4372V37.1047ZM159.031 33.771L153.199 37.1047V30.4372L159.031 33.771ZM152.246 53.7107L145.938 50.1096V42.9074L152.246 46.5085V53.7107ZM153.199 53.7107V47.0589L159.031 50.3926L153.199 53.7264V53.7107ZM174.031 50.1096L167.722 53.7107V46.5085L174.031 42.9074V50.1096Z" fill="white"/>
<path d="M18.8487 84.8182V95H17.0043V84.8182H18.8487ZM29.2132 84.8182V95H27.5726L22.775 88.0646H22.6905V95H20.8461V84.8182H22.4966L27.2892 91.7585H27.3787V84.8182H29.2132ZM34.6733 95H31.223V84.8182H34.7429C35.7538 84.8182 36.6222 85.022 37.348 85.4297C38.0772 85.834 38.6373 86.4157 39.0284 87.1747C39.4195 87.9337 39.6151 88.8419 39.6151 89.8991C39.6151 90.9598 39.4179 91.8712 39.0234 92.6335C38.6323 93.3958 38.0672 93.9808 37.3281 94.3885C36.5923 94.7962 35.7074 95 34.6733 95ZM33.0675 93.4041H34.5838C35.2931 93.4041 35.8847 93.2749 36.3587 93.0163C36.8326 92.7545 37.1889 92.3651 37.4276 91.848C37.6662 91.3277 37.7855 90.678 37.7855 89.8991C37.7855 89.1203 37.6662 88.474 37.4276 87.9602C37.1889 87.4432 36.8359 87.0571 36.3686 86.8018C35.9046 86.5433 35.3279 86.4141 34.6385 86.4141H33.0675V93.4041ZM47.7859 84.8182H49.6303V91.4702C49.6303 92.1993 49.458 92.8407 49.1133 93.3942C48.7719 93.9477 48.2913 94.3802 47.6715 94.6918C47.0517 95 46.3275 95.1541 45.4989 95.1541C44.667 95.1541 43.9412 95 43.3214 94.6918C42.7016 94.3802 42.221 93.9477 41.8796 93.3942C41.5382 92.8407 41.3675 92.1993 41.3675 91.4702V84.8182H43.212V91.3161C43.212 91.7403 43.3048 92.1181 43.4904 92.4496C43.6793 92.781 43.9445 93.0412 44.2859 93.2301C44.6272 93.4157 45.0316 93.5085 45.4989 93.5085C45.9663 93.5085 46.3706 93.4157 46.712 93.2301C47.0567 93.0412 47.3219 92.781 47.5075 92.4496C47.6931 92.1181 47.7859 91.7403 47.7859 91.3161V84.8182ZM57.1685 87.6172C57.1221 87.183 56.9266 86.8449 56.5819 86.603C56.2405 86.361 55.7963 86.2401 55.2495 86.2401C54.865 86.2401 54.5352 86.2981 54.2601 86.4141C53.985 86.5301 53.7746 86.6875 53.6287 86.8864C53.4829 87.0852 53.4083 87.3123 53.405 87.5675C53.405 87.7796 53.4531 87.9635 53.5492 88.1193C53.6486 88.2751 53.7828 88.4077 53.9519 88.517C54.1209 88.6231 54.3082 88.7126 54.5137 88.7855C54.7192 88.8584 54.9263 88.9197 55.1351 88.9695L56.0897 89.2081C56.4741 89.2976 56.8437 89.4186 57.1983 89.571C57.5563 89.7235 57.8761 89.9157 58.1578 90.1477C58.4429 90.3797 58.6683 90.6598 58.834 90.9879C58.9997 91.3161 59.0826 91.7005 59.0826 92.1413C59.0826 92.7379 58.9301 93.2633 58.6252 93.7173C58.3203 94.1681 57.8794 94.5211 57.3027 94.7763C56.7293 95.0282 56.035 95.1541 55.2196 95.1541C54.4275 95.1541 53.7398 95.0315 53.1564 94.7862C52.5764 94.541 52.1223 94.183 51.7942 93.7124C51.4694 93.2417 51.2937 92.6683 51.2672 91.9922H53.0819C53.1084 92.3468 53.2177 92.6418 53.41 92.8771C53.6022 93.1125 53.8525 93.2881 54.1607 93.4041C54.4722 93.5201 54.8203 93.5781 55.2047 93.5781C55.6058 93.5781 55.9571 93.5185 56.2587 93.3991C56.5636 93.2765 56.8023 93.1075 56.9746 92.892C57.147 92.6733 57.2348 92.4181 57.2381 92.1264C57.2348 91.8613 57.1569 91.6425 57.0044 91.4702C56.852 91.2945 56.6382 91.1487 56.3631 91.0327C56.0913 90.9134 55.7731 90.8073 55.4086 90.7145L54.2502 90.4162C53.4116 90.2008 52.7488 89.8743 52.2615 89.4368C51.7776 88.996 51.5357 88.411 51.5357 87.6818C51.5357 87.0819 51.6981 86.5566 52.0229 86.1058C52.351 85.6551 52.7968 85.3054 53.3603 85.0568C53.9237 84.8049 54.5617 84.679 55.2743 84.679C55.9969 84.679 56.6299 84.8049 57.1735 85.0568C57.7203 85.3054 58.1496 85.6518 58.4611 86.0959C58.7727 86.5367 58.9334 87.0438 58.9434 87.6172H57.1685ZM60.2795 86.3643V84.8182H68.4031V86.3643H65.256V95H63.4265V86.3643H60.2795ZM69.9691 95V84.8182H73.7873C74.5695 84.8182 75.2257 84.9541 75.756 85.2259C76.2897 85.4976 76.6924 85.8788 76.9641 86.3693C77.2392 86.8565 77.3768 87.425 77.3768 88.0746C77.3768 88.7275 77.2376 89.2943 76.9592 89.7749C76.6841 90.2521 76.2781 90.6217 75.7411 90.8835C75.2042 91.142 74.5446 91.2713 73.7624 91.2713H71.043V89.7401H73.5138C73.9712 89.7401 74.3458 89.6771 74.6374 89.5511C74.9291 89.4219 75.1445 89.2346 75.2837 88.9893C75.4263 88.7408 75.4975 88.4358 75.4975 88.0746C75.4975 87.7133 75.4263 87.4051 75.2837 87.1499C75.1412 86.8913 74.9241 86.6958 74.6325 86.5632C74.3408 86.4273 73.9646 86.3594 73.5039 86.3594H71.8136V95H69.9691ZM75.229 90.3864L77.7496 95H75.6914L73.2156 90.3864H75.229ZM77.9821 84.8182H80.0652L82.5559 89.3224H82.6554L85.1461 84.8182H87.2292L83.5254 91.2017V95H81.6859V91.2017L77.9821 84.8182ZM89.7759 93.608L89.7113 94.1548C89.6649 94.5724 89.582 94.9967 89.4627 95.4276C89.3467 95.8617 89.2241 96.2611 89.0948 96.6257C88.9656 96.9903 88.8612 97.277 88.7816 97.4858H87.5685C87.6149 97.2836 87.6779 97.0085 87.7575 96.6605C87.8403 96.3125 87.9199 95.9214 87.9961 95.4872C88.0723 95.053 88.1237 94.6122 88.1502 94.1648L88.185 93.608H89.7759ZM96.8741 84.8182V95H95.0297V84.8182H96.8741ZM107.239 84.8182V95H105.598L100.8 88.0646H100.716V95H98.8714V84.8182H100.522L105.315 91.7585H105.404V84.8182H107.239ZM117.616 84.8182V95H115.975L111.177 88.0646H111.093V95H109.248V84.8182H110.899L115.692 91.7585H115.781V84.8182H117.616ZM128.723 89.9091C128.723 91.0062 128.518 91.9458 128.107 92.728C127.699 93.5069 127.142 94.1035 126.436 94.5178C125.734 94.9321 124.937 95.1392 124.045 95.1392C123.154 95.1392 122.355 94.9321 121.649 94.5178C120.946 94.1001 120.389 93.5019 119.978 92.723C119.571 91.9408 119.367 91.0028 119.367 89.9091C119.367 88.812 119.571 87.8741 119.978 87.0952C120.389 86.313 120.946 85.7147 121.649 85.3004C122.355 84.8861 123.154 84.679 124.045 84.679C124.937 84.679 125.734 84.8861 126.436 85.3004C127.142 85.7147 127.699 86.313 128.107 87.0952C128.518 87.8741 128.723 88.812 128.723 89.9091ZM126.869 89.9091C126.869 89.1368 126.748 88.4856 126.506 87.9553C126.267 87.4216 125.936 87.0189 125.512 86.7472C125.087 86.4721 124.599 86.3345 124.045 86.3345C123.492 86.3345 123.003 86.4721 122.578 86.7472C122.154 87.0189 121.821 87.4216 121.579 87.9553C121.341 88.4856 121.221 89.1368 121.221 89.9091C121.221 90.6813 121.341 91.3343 121.579 91.8679C121.821 92.3982 122.154 92.8009 122.578 93.076C123.003 93.3478 123.492 93.4837 124.045 93.4837C124.599 93.4837 125.087 93.3478 125.512 93.076C125.936 92.8009 126.267 92.3982 126.506 91.8679C126.748 91.3343 126.869 90.6813 126.869 89.9091ZM131.282 84.8182L133.932 92.8324H134.037L136.682 84.8182H138.71L135.121 95H132.844L129.259 84.8182H131.282ZM140.169 95H138.2L141.785 84.8182H144.062L147.651 95H145.683L142.963 86.9062H142.884L140.169 95ZM140.234 91.0078H145.603V92.4893H140.234V91.0078ZM147.315 86.3643V84.8182H155.438V86.3643H152.291V95H150.462V86.3643H147.315ZM158.849 84.8182V95H157.004V84.8182H158.849ZM169.944 89.9091C169.944 91.0062 169.739 91.9458 169.328 92.728C168.92 93.5069 168.363 94.1035 167.657 94.5178C166.954 94.9321 166.157 95.1392 165.266 95.1392C164.374 95.1392 163.575 94.9321 162.869 94.5178C162.167 94.1001 161.61 93.5019 161.199 92.723C160.791 91.9408 160.588 91.0028 160.588 89.9091C160.588 88.812 160.791 87.8741 161.199 87.0952C161.61 86.313 162.167 85.7147 162.869 85.3004C163.575 84.8861 164.374 84.679 165.266 84.679C166.157 84.679 166.954 84.8861 167.657 85.3004C168.363 85.7147 168.92 86.313 169.328 87.0952C169.739 87.8741 169.944 88.812 169.944 89.9091ZM168.09 89.9091C168.09 89.1368 167.969 88.4856 167.727 87.9553C167.488 87.4216 167.157 87.0189 166.732 86.7472C166.308 86.4721 165.819 86.3345 165.266 86.3345C164.712 86.3345 164.223 86.4721 163.799 86.7472C163.375 87.0189 163.042 87.4216 162.8 87.9553C162.561 88.4856 162.442 89.1368 162.442 89.9091C162.442 90.6813 162.561 91.3343 162.8 91.8679C163.042 92.3982 163.375 92.8009 163.799 93.076C164.223 93.3478 164.712 93.4837 165.266 93.4837C165.819 93.4837 166.308 93.3478 166.732 93.076C167.157 92.8009 167.488 92.3982 167.727 91.8679C167.969 91.3343 168.09 90.6813 168.09 89.9091ZM180.055 84.8182V95H178.414L173.617 88.0646H173.532V95H171.688V84.8182H173.338L178.131 91.7585H178.221V84.8182H180.055ZM18.3118 115H16.343L19.9276 104.818H22.2045L25.794 115H23.8253L21.1058 106.906H21.0263L18.3118 115ZM18.3764 111.008H23.7457V112.489H18.3764V111.008ZM35.5023 104.818V115H33.8617L29.0641 108.065H28.9796V115H27.1351V104.818H28.7857L33.5783 111.759H33.6678V104.818H35.5023ZM40.9624 115H37.5121V104.818H41.032C42.0429 104.818 42.9112 105.022 43.6371 105.43C44.3662 105.834 44.9264 106.416 45.3175 107.175C45.7086 107.934 45.9041 108.842 45.9041 109.899C45.9041 110.96 45.7069 111.871 45.3125 112.634C44.9214 113.396 44.3563 113.981 43.6172 114.388C42.8814 114.796 41.9964 115 40.9624 115ZM39.3565 113.404H40.8729C41.5821 113.404 42.1738 113.275 42.6477 113.016C43.1217 112.754 43.478 112.365 43.7166 111.848C43.9553 111.328 44.0746 110.678 44.0746 109.899C44.0746 109.12 43.9553 108.474 43.7166 107.96C43.478 107.443 43.125 107.057 42.6577 106.802C42.1937 106.543 41.617 106.414 40.9276 106.414H39.3565V113.404ZM52.9737 104.818V115H51.1293V104.818H52.9737ZM63.3382 104.818V115H61.6976L56.9 108.065H56.8155V115H54.9711V104.818H56.6216L61.4142 111.759H61.5037V104.818H63.3382ZM65.348 115V104.818H71.8707V106.364H67.1925V109.129H71.4233V110.675H67.1925V115H65.348ZM73.5511 115V104.818H77.3693C78.1515 104.818 78.8078 104.954 79.3381 105.226C79.8717 105.498 80.2744 105.879 80.5462 106.369C80.8213 106.857 80.9588 107.425 80.9588 108.075C80.9588 108.728 80.8196 109.294 80.5412 109.775C80.2661 110.252 79.8601 110.622 79.3232 110.884C78.7862 111.142 78.1267 111.271 77.3445 111.271H74.625V109.74H77.0959C77.5533 109.74 77.9278 109.677 78.2195 109.551C78.5111 109.422 78.7266 109.235 78.8658 108.989C79.0083 108.741 79.0795 108.436 79.0795 108.075C79.0795 107.713 79.0083 107.405 78.8658 107.15C78.7232 106.891 78.5062 106.696 78.2145 106.563C77.9228 106.427 77.5466 106.359 77.0859 106.359H75.3956V115H73.5511ZM78.8111 110.386L81.3317 115H79.2734L76.7976 110.386H78.8111ZM83.9641 115H81.9954L85.5799 104.818H87.8569L91.4464 115H89.4776L86.7582 106.906H86.6786L83.9641 115ZM84.0288 111.008H89.3981V112.489H84.0288V111.008ZM98.1568 107.617C98.1104 107.183 97.9148 106.845 97.5701 106.603C97.2288 106.361 96.7846 106.24 96.2377 106.24C95.8533 106.24 95.5235 106.298 95.2484 106.414C94.9733 106.53 94.7628 106.687 94.617 106.886C94.4712 107.085 94.3966 107.312 94.3933 107.567C94.3933 107.78 94.4413 107.964 94.5375 108.119C94.6369 108.275 94.7711 108.408 94.9402 108.517C95.1092 108.623 95.2965 108.713 95.502 108.786C95.7074 108.858 95.9146 108.92 96.1234 108.969L97.0779 109.208C97.4624 109.298 97.832 109.419 98.1866 109.571C98.5446 109.723 98.8644 109.916 99.1461 110.148C99.4312 110.38 99.6565 110.66 99.8223 110.988C99.988 111.316 100.071 111.701 100.071 112.141C100.071 112.738 99.9184 113.263 99.6135 113.717C99.3085 114.168 98.8677 114.521 98.291 114.776C97.7176 115.028 97.0233 115.154 96.2079 115.154C95.4158 115.154 94.728 115.031 94.1447 114.786C93.5647 114.541 93.1106 114.183 92.7825 113.712C92.4577 113.242 92.282 112.668 92.2555 111.992H94.0701C94.0967 112.347 94.206 112.642 94.3983 112.877C94.5905 113.112 94.8407 113.288 95.149 113.404C95.4605 113.52 95.8085 113.578 96.193 113.578C96.594 113.578 96.9454 113.518 97.247 113.399C97.5519 113.277 97.7905 113.107 97.9629 112.892C98.1352 112.673 98.2231 112.418 98.2264 112.126C98.2231 111.861 98.1452 111.643 97.9927 111.47C97.8403 111.295 97.6265 111.149 97.3514 111.033C97.0796 110.913 96.7614 110.807 96.3968 110.714L95.2385 110.416C94.3999 110.201 93.737 109.874 93.2498 109.437C92.7659 108.996 92.524 108.411 92.524 107.682C92.524 107.082 92.6864 106.557 93.0112 106.106C93.3393 105.655 93.7851 105.305 94.3485 105.057C94.912 104.805 95.55 104.679 96.2626 104.679C96.9851 104.679 97.6182 104.805 98.1618 105.057C98.7086 105.305 99.1378 105.652 99.4494 106.096C99.7609 106.537 99.9217 107.044 99.9316 107.617H98.1568ZM101.268 106.364V104.818H109.391V106.364H106.244V115H104.415V106.364H101.268ZM110.957 115V104.818H114.776C115.558 104.818 116.214 104.954 116.744 105.226C117.278 105.498 117.681 105.879 117.952 106.369C118.228 106.857 118.365 107.425 118.365 108.075C118.365 108.728 118.226 109.294 117.947 109.775C117.672 110.252 117.266 110.622 116.729 110.884C116.192 111.142 115.533 111.271 114.751 111.271H112.031V109.74H114.502C114.96 109.74 115.334 109.677 115.626 109.551C115.917 109.422 116.133 109.235 116.272 108.989C116.415 108.741 116.486 108.436 116.486 108.075C116.486 107.713 116.415 107.405 116.272 107.15C116.129 106.891 115.912 106.696 115.621 106.563C115.329 106.427 114.953 106.359 114.492 106.359H112.802V115H110.957ZM116.217 110.386L118.738 115H116.68L114.204 110.386H116.217ZM126.481 104.818H128.326V111.47C128.326 112.199 128.153 112.841 127.809 113.394C127.467 113.948 126.987 114.38 126.367 114.692C125.747 115 125.023 115.154 124.194 115.154C123.362 115.154 122.636 115 122.017 114.692C121.397 114.38 120.916 113.948 120.575 113.394C120.234 112.841 120.063 112.199 120.063 111.47V104.818H121.907V111.316C121.907 111.74 122 112.118 122.186 112.45C122.375 112.781 122.64 113.041 122.981 113.23C123.323 113.416 123.727 113.509 124.194 113.509C124.662 113.509 125.066 113.416 125.407 113.23C125.752 113.041 126.017 112.781 126.203 112.45C126.388 112.118 126.481 111.74 126.481 111.316V104.818ZM139.046 108.254H137.186C137.133 107.949 137.035 107.679 136.893 107.443C136.75 107.205 136.573 107.002 136.361 106.837C136.149 106.671 135.907 106.547 135.635 106.464C135.367 106.378 135.077 106.335 134.765 106.335C134.212 106.335 133.721 106.474 133.294 106.752C132.866 107.027 132.531 107.432 132.289 107.965C132.047 108.496 131.926 109.143 131.926 109.909C131.926 110.688 132.047 111.344 132.289 111.878C132.535 112.408 132.869 112.809 133.294 113.081C133.721 113.349 134.21 113.484 134.76 113.484C135.065 113.484 135.35 113.444 135.615 113.364C135.884 113.281 136.124 113.161 136.336 113.001C136.552 112.842 136.732 112.647 136.878 112.415C137.027 112.183 137.13 111.918 137.186 111.619L139.046 111.629C138.976 112.113 138.825 112.567 138.593 112.991C138.365 113.416 138.065 113.79 137.693 114.115C137.322 114.437 136.888 114.688 136.391 114.871C135.894 115.05 135.342 115.139 134.735 115.139C133.84 115.139 133.042 114.932 132.339 114.518C131.636 114.103 131.083 113.505 130.678 112.723C130.274 111.941 130.072 111.003 130.072 109.909C130.072 108.812 130.276 107.874 130.683 107.095C131.091 106.313 131.646 105.715 132.349 105.3C133.052 104.886 133.847 104.679 134.735 104.679C135.302 104.679 135.829 104.759 136.316 104.918C136.803 105.077 137.238 105.31 137.619 105.619C138 105.924 138.313 106.298 138.558 106.742C138.807 107.183 138.969 107.687 139.046 108.254ZM140.287 106.364V104.818H148.411V106.364H145.264V115H143.434V106.364H140.287ZM156.395 104.818H158.24V111.47C158.24 112.199 158.067 112.841 157.723 113.394C157.381 113.948 156.901 114.38 156.281 114.692C155.661 115 154.937 115.154 154.108 115.154C153.276 115.154 152.551 115 151.931 114.692C151.311 114.38 150.83 113.948 150.489 113.394C150.148 112.841 149.977 112.199 149.977 111.47V104.818H151.821V111.316C151.821 111.74 151.914 112.118 152.1 112.45C152.289 112.781 152.554 113.041 152.895 113.23C153.237 113.416 153.641 113.509 154.108 113.509C154.576 113.509 154.98 113.416 155.321 113.23C155.666 113.041 155.931 112.781 156.117 112.45C156.302 112.118 156.395 111.74 156.395 111.316V104.818ZM160.244 115V104.818H164.063C164.845 104.818 165.501 104.954 166.031 105.226C166.565 105.498 166.968 105.879 167.24 106.369C167.515 106.857 167.652 107.425 167.652 108.075C167.652 108.728 167.513 109.294 167.235 109.775C166.959 110.252 166.553 110.622 166.017 110.884C165.48 111.142 164.82 111.271 164.038 111.271H161.318V109.74H163.789C164.247 109.74 164.621 109.677 164.913 109.551C165.204 109.422 165.42 109.235 165.559 108.989C165.702 108.741 165.773 108.436 165.773 108.075C165.773 107.713 165.702 107.405 165.559 107.15C165.417 106.891 165.2 106.696 164.908 106.563C164.616 106.427 164.24 106.359 163.779 106.359H162.089V115H160.244ZM165.504 110.386L168.025 115H165.967L163.491 110.386H165.504ZM169.35 115V104.818H175.972V106.364H171.194V109.129H175.629V110.675H171.194V113.454H176.012V115H169.35Z" fill="white"/>
<path d="M20.3253 171.273V180H18.7443V172.811H18.6932L16.652 174.115V172.666L18.821 171.273H20.3253ZM23.0281 180.094C22.7695 180.094 22.5479 180.003 22.3633 179.821C22.1786 179.639 22.0877 179.418 22.0906 179.156C22.0877 178.901 22.1786 178.682 22.3633 178.5C22.5479 178.318 22.7695 178.227 23.0281 178.227C23.2781 178.227 23.4954 178.318 23.68 178.5C23.8675 178.682 23.9627 178.901 23.9656 179.156C23.9627 179.33 23.9173 179.487 23.8292 179.629C23.744 179.771 23.6303 179.885 23.4883 179.97C23.3491 180.053 23.1957 180.094 23.0281 180.094ZM25.3835 178.381V177.124L29.0866 171.273H30.1349V173.062H29.4957L27.0028 177.013V177.081H32.1719V178.381H25.3835ZM29.5469 180V177.997L29.5639 177.435V171.273H31.0554V180H29.5469ZM35.1154 178.807L35.06 179.276C35.0202 179.634 34.9492 179.997 34.8469 180.366C34.7475 180.739 34.6424 181.081 34.5316 181.393C34.4208 181.706 34.3313 181.952 34.2631 182.131H33.2234C33.2631 181.957 33.3171 181.722 33.3853 181.423C33.4563 181.125 33.5245 180.79 33.5898 180.418C33.6552 180.045 33.6992 179.668 33.7219 179.284L33.7518 178.807H35.1154ZM43.0831 171.273V180H41.5021V172.811H41.451L39.4098 174.115V172.666L41.5788 171.273H43.0831ZM45.7859 180.094C45.5273 180.094 45.3058 180.003 45.1211 179.821C44.9364 179.639 44.8455 179.418 44.8484 179.156C44.8455 178.901 44.9364 178.682 45.1211 178.5C45.3058 178.318 45.5273 178.227 45.7859 178.227C46.0359 178.227 46.2532 178.318 46.4379 178.5C46.6254 178.682 46.7205 178.901 46.7234 179.156C46.7205 179.33 46.6751 179.487 46.587 179.629C46.5018 179.771 46.3881 179.885 46.2461 179.97C46.1069 180.053 45.9535 180.094 45.7859 180.094ZM51.2276 180.119C50.6594 180.119 50.1509 180.013 49.7021 179.8C49.2532 179.584 48.8967 179.288 48.6325 178.913C48.3711 178.538 48.2319 178.109 48.2148 177.626H49.7489C49.7773 177.984 49.9322 178.277 50.2134 178.504C50.4947 178.729 50.8327 178.841 51.2276 178.841C51.5373 178.841 51.8129 178.77 52.0543 178.628C52.2958 178.486 52.4862 178.288 52.6254 178.036C52.7646 177.783 52.8327 177.494 52.8299 177.17C52.8327 176.841 52.7631 176.548 52.6211 176.293C52.479 176.037 52.2844 175.837 52.0373 175.692C51.7901 175.544 51.506 175.47 51.185 175.47C50.9237 175.467 50.6665 175.516 50.4137 175.615C50.1609 175.714 49.9606 175.845 49.8129 176.007L48.3853 175.773L48.8413 171.273H53.9038V172.594H50.1495L49.8981 174.908H49.9492C50.1112 174.717 50.3398 174.56 50.6353 174.435C50.9308 174.307 51.2546 174.243 51.6069 174.243C52.1353 174.243 52.6069 174.368 53.0217 174.618C53.4364 174.865 53.7631 175.206 54.0018 175.641C54.2404 176.075 54.3597 176.572 54.3597 177.132C54.3597 177.709 54.2262 178.223 53.9592 178.675C53.695 179.124 53.3271 179.477 52.8555 179.736C52.3867 179.991 51.8441 180.119 51.2276 180.119Z" fill="white"/>
</svg>
