<svg width="48" height="48" viewBox="0 0 48 48" fill="none" xmlns="http://www.w3.org/2000/svg">
<path d="M10 10C10 8.11438 10 7.17157 10.5858 6.58579C11.1716 6 12.1144 6 14 6L27.728 6C28.5741 6 28.9972 6 29.3749 6.16207C29.7526 6.32415 30.0441 6.63079 30.6271 7.24406L36.8991 13.8419C37.4428 14.4138 37.7146 14.6998 37.8573 15.057C38 15.4142 38 15.8088 38 16.5979V38C38 39.8856 38 40.8284 37.4142 41.4142C36.8284 42 35.8856 42 34 42H14C12.1144 42 11.1716 42 10.5858 41.4142C10 40.8284 10 39.8856 10 38V10Z" fill="#00B2E3"/>
<path d="M27.8867 14.0205V9.7111C27.8867 8.82236 28.9594 8.37522 29.5906 9.00083L33.9388 13.3102C34.5731 13.9388 34.128 15.0205 33.2349 15.0205H28.8867C28.3344 15.0205 27.8867 14.5727 27.8867 14.0205Z" fill="white"/>
<path d="M13.2041 36.3701C13.2041 36.1748 13.2708 36.0104 13.4043 35.877C13.5378 35.7435 13.7184 35.6768 13.9463 35.6768C14.1742 35.6768 14.3548 35.7435 14.4883 35.877C14.6217 36.0104 14.6885 36.1748 14.6885 36.3701C14.6885 36.5622 14.6217 36.7249 14.4883 36.8584C14.3548 36.9886 14.1742 37.0537 13.9463 37.0537C13.7184 37.0537 13.5378 36.9886 13.4043 36.8584C13.2708 36.7249 13.2041 36.5622 13.2041 36.3701ZM19.1611 35.877V29.5H20.46V37H19.2881L19.1611 35.877ZM15.7676 34.4219V34.3193C15.7676 33.9157 15.8132 33.5495 15.9043 33.2207C15.9987 32.8887 16.1354 32.6038 16.3145 32.3662C16.4935 32.1286 16.71 31.9447 16.9639 31.8145C17.221 31.6842 17.5124 31.6191 17.8379 31.6191C18.1536 31.6191 18.4287 31.6826 18.6631 31.8096C18.9007 31.9365 19.1025 32.1172 19.2686 32.3516C19.4378 32.5859 19.5729 32.8643 19.6738 33.1865C19.7747 33.5055 19.848 33.8571 19.8936 34.2412V34.5195C19.848 34.8939 19.7747 35.2373 19.6738 35.5498C19.5729 35.8623 19.4378 36.1357 19.2686 36.3701C19.1025 36.6012 18.9007 36.7803 18.6631 36.9072C18.4255 37.0342 18.1471 37.0977 17.8281 37.0977C17.5059 37.0977 17.2161 37.0309 16.959 36.8975C16.7051 36.764 16.4886 36.5768 16.3096 36.3359C16.1338 36.0951 15.9987 35.8118 15.9043 35.4863C15.8132 35.1608 15.7676 34.806 15.7676 34.4219ZM17.0615 34.3193V34.4219C17.0615 34.6497 17.0811 34.863 17.1201 35.0615C17.1592 35.2601 17.2227 35.4359 17.3105 35.5889C17.3984 35.7386 17.5107 35.8558 17.6475 35.9404C17.7874 36.0251 17.9567 36.0674 18.1553 36.0674C18.4092 36.0674 18.6175 36.012 18.7803 35.9014C18.9463 35.7874 19.0749 35.6328 19.166 35.4375C19.2572 35.2389 19.3158 35.016 19.3418 34.7686V34.002C19.3288 33.8066 19.2946 33.626 19.2393 33.46C19.1872 33.2939 19.1123 33.1507 19.0146 33.0303C18.9202 32.9098 18.8031 32.8154 18.6631 32.7471C18.5231 32.6787 18.3571 32.6445 18.165 32.6445C17.9665 32.6445 17.7972 32.6885 17.6572 32.7764C17.5173 32.861 17.4033 32.9798 17.3154 33.1328C17.2275 33.2858 17.1624 33.4632 17.1201 33.665C17.0811 33.8669 17.0615 34.085 17.0615 34.3193ZM22.9111 32.8008V37H21.6221V31.7168H22.8379L22.9111 32.8008ZM22.7207 34.168H22.3252C22.3252 33.8001 22.3691 33.4616 22.457 33.1523C22.5482 32.8431 22.6816 32.5745 22.8574 32.3467C23.0332 32.1156 23.2497 31.9365 23.5068 31.8096C23.7673 31.6826 24.0684 31.6191 24.4102 31.6191C24.6478 31.6191 24.8659 31.6549 25.0645 31.7266C25.263 31.7949 25.4339 31.904 25.5771 32.0537C25.7236 32.2002 25.8359 32.3923 25.9141 32.6299C25.9922 32.8643 26.0312 33.1458 26.0312 33.4746V37H24.7422V33.6064C24.7422 33.359 24.7064 33.1654 24.6348 33.0254C24.5664 32.8854 24.4671 32.7878 24.3369 32.7324C24.2067 32.6738 24.0505 32.6445 23.8682 32.6445C23.6663 32.6445 23.4922 32.6852 23.3457 32.7666C23.2025 32.8447 23.0837 32.9538 22.9893 33.0938C22.8981 33.2337 22.8298 33.3949 22.7842 33.5771C22.7419 33.7594 22.7207 33.9564 22.7207 34.168ZM25.9336 33.9287L25.4014 34.0264C25.4046 33.6943 25.4502 33.3835 25.5381 33.0938C25.626 32.8008 25.7546 32.5452 25.9238 32.3271C26.0964 32.1058 26.3096 31.9333 26.5635 31.8096C26.8206 31.6826 27.1169 31.6191 27.4521 31.6191C27.7126 31.6191 27.9469 31.6566 28.1553 31.7314C28.3669 31.8031 28.5475 31.9186 28.6973 32.0781C28.847 32.2344 28.9609 32.4378 29.0391 32.6885C29.1204 32.9391 29.1611 33.2451 29.1611 33.6064V37H27.8623V33.6016C27.8623 33.3444 27.8265 33.1475 27.7549 33.0107C27.6865 32.874 27.5872 32.7796 27.457 32.7275C27.3268 32.6722 27.1738 32.6445 26.998 32.6445C26.819 32.6445 26.6628 32.6787 26.5293 32.7471C26.3991 32.8122 26.2884 32.9033 26.1973 33.0205C26.1094 33.1377 26.0426 33.2744 25.9971 33.4307C25.9548 33.5837 25.9336 33.7497 25.9336 33.9287ZM33.6777 31.7168H34.8496V36.8389C34.8496 37.3174 34.7454 37.7227 34.5371 38.0547C34.332 38.39 34.0439 38.6439 33.6729 38.8164C33.3018 38.9922 32.8704 39.0801 32.3789 39.0801C32.1673 39.0801 31.9378 39.0508 31.6904 38.9922C31.4463 38.9336 31.2103 38.8408 30.9824 38.7139C30.7578 38.5902 30.5706 38.429 30.4209 38.2305L31.002 37.4688C31.1777 37.6738 31.3763 37.8285 31.5977 37.9326C31.819 38.04 32.0583 38.0938 32.3154 38.0938C32.5758 38.0938 32.7972 38.0449 32.9795 37.9473C33.165 37.8529 33.3066 37.7129 33.4043 37.5273C33.5052 37.3451 33.5557 37.1204 33.5557 36.8535V32.9229L33.6777 31.7168ZM30.1084 34.4219V34.3193C30.1084 33.9157 30.1572 33.5495 30.2549 33.2207C30.3525 32.8887 30.4925 32.6038 30.6748 32.3662C30.8604 32.1286 31.0833 31.9447 31.3438 31.8145C31.6074 31.6842 31.9036 31.6191 32.2324 31.6191C32.5807 31.6191 32.8737 31.6826 33.1113 31.8096C33.3522 31.9365 33.5508 32.1172 33.707 32.3516C33.8665 32.5859 33.9902 32.8643 34.0781 33.1865C34.1693 33.5055 34.2393 33.8571 34.2881 34.2412V34.5195C34.2425 34.8939 34.1693 35.2373 34.0684 35.5498C33.9707 35.8623 33.8405 36.1357 33.6777 36.3701C33.515 36.6012 33.3132 36.7803 33.0723 36.9072C32.8314 37.0342 32.5482 37.0977 32.2227 37.0977C31.8971 37.0977 31.6042 37.0309 31.3438 36.8975C31.0833 36.764 30.8604 36.5768 30.6748 36.3359C30.4925 36.0951 30.3525 35.8118 30.2549 35.4863C30.1572 35.1608 30.1084 34.806 30.1084 34.4219ZM31.3975 34.3193V34.4219C31.3975 34.6497 31.4202 34.863 31.4658 35.0615C31.5114 35.2601 31.5814 35.4359 31.6758 35.5889C31.7702 35.7386 31.889 35.8558 32.0322 35.9404C32.1755 36.0251 32.3464 36.0674 32.5449 36.0674C32.8118 36.0674 33.0299 36.012 33.1992 35.9014C33.3717 35.7874 33.502 35.6328 33.5898 35.4375C33.681 35.2389 33.7396 35.016 33.7656 34.7686V34.002C33.7493 33.8066 33.7135 33.626 33.6582 33.46C33.6061 33.2939 33.5329 33.1507 33.4385 33.0303C33.3441 32.9098 33.2236 32.8154 33.0771 32.7471C32.9307 32.6787 32.7565 32.6445 32.5547 32.6445C32.3594 32.6445 32.1885 32.6885 32.042 32.7764C31.8955 32.861 31.7751 32.9798 31.6807 33.1328C31.5863 33.2858 31.5146 33.4632 31.4658 33.665C31.4202 33.8669 31.3975 34.085 31.3975 34.3193Z" fill="white"/>
</svg>
