<svg width="48" height="48" viewBox="0 0 48 48" fill="none" xmlns="http://www.w3.org/2000/svg">
<path d="M10 10C10 8.11438 10 7.17157 10.5858 6.58579C11.1716 6 12.1144 6 14 6L27.728 6C28.5741 6 28.9972 6 29.3749 6.16207C29.7526 6.32415 30.0441 6.63079 30.6271 7.24406L36.8991 13.8419C37.4428 14.4138 37.7146 14.6998 37.8573 15.057C38 15.4142 38 15.8088 38 16.5979V38C38 39.8856 38 40.8284 37.4142 41.4142C36.8284 42 35.8856 42 34 42H14C12.1144 42 11.1716 42 10.5858 41.4142C10 40.8284 10 39.8856 10 38V10Z" fill="#747576"/>
<path d="M27.8867 14.0205V9.7111C27.8867 8.82236 28.9594 8.37522 29.5906 9.00083L33.9388 13.3102C34.5731 13.9388 34.128 15.0205 33.2349 15.0205H28.8867C28.3344 15.0205 27.8867 14.5727 27.8867 14.0205Z" fill="white"/>
<path d="M13.1484 36.7441C13.1484 36.5098 13.2285 36.3125 13.3887 36.1523C13.5488 35.9922 13.7656 35.9121 14.0391 35.9121C14.3125 35.9121 14.5293 35.9922 14.6895 36.1523C14.8496 36.3125 14.9297 36.5098 14.9297 36.7441C14.9297 36.9746 14.8496 37.1699 14.6895 37.3301C14.5293 37.4863 14.3125 37.5645 14.0391 37.5645C13.7656 37.5645 13.5488 37.4863 13.3887 37.3301C13.2285 37.1699 13.1484 36.9746 13.1484 36.7441ZM20.2969 36.1523V28.5H21.8555V37.5H20.4492L20.2969 36.1523ZM16.2246 34.4062V34.2832C16.2246 33.7988 16.2793 33.3594 16.3887 32.9648C16.502 32.5664 16.666 32.2246 16.8809 31.9395C17.0957 31.6543 17.3555 31.4336 17.6602 31.2773C17.9688 31.1211 18.3184 31.043 18.709 31.043C19.0879 31.043 19.418 31.1191 19.6992 31.2715C19.9844 31.4238 20.2266 31.6406 20.4258 31.9219C20.6289 32.2031 20.791 32.5371 20.9121 32.9238C21.0332 33.3066 21.1211 33.7285 21.1758 34.1895V34.5234C21.1211 34.9727 21.0332 35.3848 20.9121 35.7598C20.791 36.1348 20.6289 36.4629 20.4258 36.7441C20.2266 37.0215 19.9844 37.2363 19.6992 37.3887C19.4141 37.541 19.0801 37.6172 18.6973 37.6172C18.3105 37.6172 17.9629 37.5371 17.6543 37.377C17.3496 37.2168 17.0898 36.9922 16.875 36.7031C16.6641 36.4141 16.502 36.0742 16.3887 35.6836C16.2793 35.293 16.2246 34.8672 16.2246 34.4062ZM17.7773 34.2832V34.4062C17.7773 34.6797 17.8008 34.9355 17.8477 35.1738C17.8945 35.4121 17.9707 35.623 18.0762 35.8066C18.1816 35.9863 18.3164 36.127 18.4805 36.2285C18.6484 36.3301 18.8516 36.3809 19.0898 36.3809C19.3945 36.3809 19.6445 36.3145 19.8398 36.1816C20.0391 36.0449 20.1934 35.8594 20.3027 35.625C20.4121 35.3867 20.4824 35.1191 20.5137 34.8223V33.9023C20.498 33.668 20.457 33.4512 20.3906 33.252C20.3281 33.0527 20.2383 32.8809 20.1211 32.7363C20.0078 32.5918 19.8672 32.4785 19.6992 32.3965C19.5312 32.3145 19.332 32.2734 19.1016 32.2734C18.8633 32.2734 18.6602 32.3262 18.4922 32.4316C18.3242 32.5332 18.1875 32.6758 18.082 32.8594C17.9766 33.043 17.8984 33.2559 17.8477 33.498C17.8008 33.7402 17.7773 34.002 17.7773 34.2832ZM22.9805 34.3945V34.2715C22.9805 33.8066 23.0469 33.3789 23.1797 32.9883C23.3125 32.5938 23.5059 32.252 23.7598 31.9629C24.0137 31.6738 24.3242 31.4492 24.6914 31.2891C25.0586 31.125 25.4766 31.043 25.9453 31.043C26.4219 31.043 26.8438 31.125 27.2109 31.2891C27.582 31.4492 27.8945 31.6738 28.1484 31.9629C28.4023 32.252 28.5957 32.5938 28.7285 32.9883C28.8613 33.3789 28.9277 33.8066 28.9277 34.2715V34.3945C28.9277 34.8555 28.8613 35.2832 28.7285 35.6777C28.5957 36.0684 28.4023 36.4102 28.1484 36.7031C27.8945 36.9922 27.584 37.2168 27.2168 37.377C26.8496 37.5371 26.4297 37.6172 25.957 37.6172C25.4883 37.6172 25.0684 37.5371 24.6973 37.377C24.3262 37.2168 24.0137 36.9922 23.7598 36.7031C23.5059 36.4102 23.3125 36.0684 23.1797 35.6777C23.0469 35.2832 22.9805 34.8555 22.9805 34.3945ZM24.5273 34.2715V34.3945C24.5273 34.6719 24.5547 34.9316 24.6094 35.1738C24.6641 35.416 24.748 35.6289 24.8613 35.8125C24.9746 35.9961 25.1211 36.1406 25.3008 36.2461C25.4844 36.3477 25.7031 36.3984 25.957 36.3984C26.207 36.3984 26.4219 36.3477 26.6016 36.2461C26.7812 36.1406 26.9277 35.9961 27.041 35.8125C27.1582 35.6289 27.2441 35.416 27.2988 35.1738C27.3535 34.9316 27.3809 34.6719 27.3809 34.3945V34.2715C27.3809 33.998 27.3535 33.7422 27.2988 33.5039C27.2441 33.2617 27.1582 33.0488 27.041 32.8652C26.9277 32.6777 26.7793 32.5312 26.5957 32.4258C26.416 32.3164 26.1992 32.2617 25.9453 32.2617C25.6953 32.2617 25.4805 32.3164 25.3008 32.4258C25.1211 32.5312 24.9746 32.6777 24.8613 32.8652C24.748 33.0488 24.6641 33.2617 24.6094 33.5039C24.5547 33.7422 24.5273 33.998 24.5273 34.2715ZM32.6543 36.3984C32.873 36.3984 33.0684 36.3555 33.2402 36.2695C33.4121 36.1836 33.5488 36.0625 33.6504 35.9062C33.7559 35.75 33.8125 35.5684 33.8203 35.3613H35.2793C35.2715 35.791 35.1504 36.1758 34.916 36.5156C34.6816 36.8555 34.3691 37.125 33.9785 37.3242C33.5918 37.5195 33.1582 37.6172 32.6777 37.6172C32.1895 37.6172 31.7637 37.5352 31.4004 37.3711C31.0371 37.207 30.7344 36.9785 30.4922 36.6855C30.2539 36.3926 30.0742 36.0527 29.9531 35.666C29.8359 35.2793 29.7773 34.8652 29.7773 34.4238V34.2363C29.7773 33.7949 29.8359 33.3809 29.9531 32.9941C30.0742 32.6074 30.2539 32.2676 30.4922 31.9746C30.7344 31.6816 31.0371 31.4531 31.4004 31.2891C31.7637 31.125 32.1875 31.043 32.6719 31.043C33.1836 31.043 33.6328 31.1426 34.0195 31.3418C34.4102 31.541 34.7148 31.8223 34.9336 32.1855C35.1562 32.5488 35.2715 32.9766 35.2793 33.4688H33.8203C33.8125 33.2422 33.7617 33.0391 33.668 32.8594C33.5742 32.6797 33.4414 32.5352 33.2695 32.4258C33.0977 32.3164 32.8887 32.2617 32.6426 32.2617C32.3809 32.2617 32.1621 32.3164 31.9863 32.4258C31.8145 32.5352 31.6797 32.6855 31.582 32.877C31.4883 33.0645 31.4219 33.2754 31.3828 33.5098C31.3477 33.7402 31.3301 33.9824 31.3301 34.2363V34.4238C31.3301 34.6816 31.3477 34.9277 31.3828 35.1621C31.4219 35.3965 31.4883 35.6074 31.582 35.7949C31.6797 35.9785 31.8145 36.125 31.9863 36.2344C32.1621 36.3438 32.3848 36.3984 32.6543 36.3984Z" fill="white"/>
</svg>
