<svg width="48" height="48" viewBox="0 0 48 48" fill="none" xmlns="http://www.w3.org/2000/svg">
<path d="M10 10C10 8.11438 10 7.17157 10.5858 6.58579C11.1716 6 12.1144 6 14 6L27.728 6C28.5741 6 28.9972 6 29.3749 6.16207C29.7526 6.32415 30.0441 6.63079 30.6271 7.24406L36.8991 13.8419C37.4428 14.4138 37.7146 14.6998 37.8573 15.057C38 15.4142 38 15.8088 38 16.5979V38C38 39.8856 38 40.8284 37.4142 41.4142C36.8284 42 35.8856 42 34 42H14C12.1144 42 11.1716 42 10.5858 41.4142C10 40.8284 10 39.8856 10 38V10Z" fill="#00B2E3"/>
<path d="M27.8867 14.0205V9.7111C27.8867 8.82236 28.9594 8.37522 29.5906 9.00083L33.9388 13.3102C34.5731 13.9388 34.128 15.0205 33.2349 15.0205H28.8867C28.3344 15.0205 27.8867 14.5727 27.8867 14.0205Z" fill="white"/>
<path d="M12.4277 36.3701C12.4277 36.1748 12.4945 36.0104 12.6279 35.877C12.7614 35.7435 12.9421 35.6768 13.1699 35.6768C13.3978 35.6768 13.5785 35.7435 13.7119 35.877C13.8454 36.0104 13.9121 36.1748 13.9121 36.3701C13.9121 36.5622 13.8454 36.7249 13.7119 36.8584C13.5785 36.9886 13.3978 37.0537 13.1699 37.0537C12.9421 37.0537 12.7614 36.9886 12.6279 36.8584C12.4945 36.7249 12.4277 36.5622 12.4277 36.3701ZM18.3848 35.877V29.5H19.6836V37H18.5117L18.3848 35.877ZM14.9912 34.4219V34.3193C14.9912 33.9157 15.0368 33.5495 15.1279 33.2207C15.2223 32.8887 15.359 32.6038 15.5381 32.3662C15.7171 32.1286 15.9336 31.9447 16.1875 31.8145C16.4447 31.6842 16.736 31.6191 17.0615 31.6191C17.3773 31.6191 17.6523 31.6826 17.8867 31.8096C18.1243 31.9365 18.3262 32.1172 18.4922 32.3516C18.6615 32.5859 18.7965 32.8643 18.8975 33.1865C18.9984 33.5055 19.0716 33.8571 19.1172 34.2412V34.5195C19.0716 34.8939 18.9984 35.2373 18.8975 35.5498C18.7965 35.8623 18.6615 36.1357 18.4922 36.3701C18.3262 36.6012 18.1243 36.7803 17.8867 36.9072C17.6491 37.0342 17.3708 37.0977 17.0518 37.0977C16.7295 37.0977 16.4398 37.0309 16.1826 36.8975C15.9287 36.764 15.7122 36.5768 15.5332 36.3359C15.3574 36.0951 15.2223 35.8118 15.1279 35.4863C15.0368 35.1608 14.9912 34.806 14.9912 34.4219ZM16.2852 34.3193V34.4219C16.2852 34.6497 16.3047 34.863 16.3438 35.0615C16.3828 35.2601 16.4463 35.4359 16.5342 35.5889C16.6221 35.7386 16.7344 35.8558 16.8711 35.9404C17.0111 36.0251 17.1803 36.0674 17.3789 36.0674C17.6328 36.0674 17.8411 36.012 18.0039 35.9014C18.1699 35.7874 18.2985 35.6328 18.3896 35.4375C18.4808 35.2389 18.5394 35.016 18.5654 34.7686V34.002C18.5524 33.8066 18.5182 33.626 18.4629 33.46C18.4108 33.2939 18.3359 33.1507 18.2383 33.0303C18.1439 32.9098 18.0267 32.8154 17.8867 32.7471C17.7467 32.6787 17.5807 32.6445 17.3887 32.6445C17.1901 32.6445 17.0208 32.6885 16.8809 32.7764C16.7409 32.861 16.627 32.9798 16.5391 33.1328C16.4512 33.2858 16.3861 33.4632 16.3438 33.665C16.3047 33.8669 16.2852 34.085 16.2852 34.3193ZM20.6211 34.4121V34.3096C20.6211 33.9222 20.6764 33.5658 20.7871 33.2402C20.8978 32.9115 21.0589 32.6266 21.2705 32.3857C21.4821 32.1449 21.7409 31.9577 22.0469 31.8242C22.3529 31.6875 22.7012 31.6191 23.0918 31.6191C23.4889 31.6191 23.8405 31.6875 24.1465 31.8242C24.4557 31.9577 24.7161 32.1449 24.9277 32.3857C25.1393 32.6266 25.3005 32.9115 25.4111 33.2402C25.5218 33.5658 25.5771 33.9222 25.5771 34.3096V34.4121C25.5771 34.7962 25.5218 35.1527 25.4111 35.4814C25.3005 35.807 25.1393 36.0918 24.9277 36.3359C24.7161 36.5768 24.4574 36.764 24.1514 36.8975C23.8454 37.0309 23.4954 37.0977 23.1016 37.0977C22.7109 37.0977 22.361 37.0309 22.0518 36.8975C21.7425 36.764 21.4821 36.5768 21.2705 36.3359C21.0589 36.0918 20.8978 35.807 20.7871 35.4814C20.6764 35.1527 20.6211 34.7962 20.6211 34.4121ZM21.9102 34.3096V34.4121C21.9102 34.6432 21.9329 34.8597 21.9785 35.0615C22.0241 35.2633 22.0941 35.4408 22.1885 35.5938C22.2829 35.7467 22.4049 35.8672 22.5547 35.9551C22.7077 36.0397 22.89 36.082 23.1016 36.082C23.3099 36.082 23.4889 36.0397 23.6387 35.9551C23.7884 35.8672 23.9105 35.7467 24.0049 35.5938C24.1025 35.4408 24.1742 35.2633 24.2197 35.0615C24.2653 34.8597 24.2881 34.6432 24.2881 34.4121V34.3096C24.2881 34.0817 24.2653 33.8685 24.2197 33.6699C24.1742 33.4681 24.1025 33.2907 24.0049 33.1377C23.9105 32.9814 23.7868 32.8594 23.6338 32.7715C23.484 32.6803 23.3034 32.6348 23.0918 32.6348C22.8835 32.6348 22.7044 32.6803 22.5547 32.7715C22.4049 32.8594 22.2829 32.9814 22.1885 33.1377C22.0941 33.2907 22.0241 33.4681 21.9785 33.6699C21.9329 33.8685 21.9102 34.0817 21.9102 34.3096ZM28.6826 36.082C28.8649 36.082 29.0277 36.0462 29.1709 35.9746C29.3141 35.903 29.4281 35.8021 29.5127 35.6719C29.6006 35.5417 29.6478 35.3903 29.6543 35.2178H30.8701C30.8636 35.5758 30.7627 35.8965 30.5674 36.1797C30.3721 36.4629 30.1117 36.6875 29.7861 36.8535C29.4639 37.0163 29.1025 37.0977 28.7021 37.0977C28.2952 37.0977 27.9404 37.0293 27.6377 36.8926C27.335 36.7559 27.0827 36.5654 26.8809 36.3213C26.6823 36.0771 26.5326 35.7939 26.4316 35.4717C26.334 35.1494 26.2852 34.8044 26.2852 34.4365V34.2803C26.2852 33.9124 26.334 33.5674 26.4316 33.2451C26.5326 32.9229 26.6823 32.6396 26.8809 32.3955C27.0827 32.1514 27.335 31.9609 27.6377 31.8242C27.9404 31.6875 28.2936 31.6191 28.6973 31.6191C29.1237 31.6191 29.498 31.7021 29.8203 31.8682C30.1458 32.0342 30.3997 32.2686 30.582 32.5713C30.7676 32.874 30.8636 33.2305 30.8701 33.6406H29.6543C29.6478 33.4518 29.6055 33.2826 29.5273 33.1328C29.4492 32.9831 29.3385 32.8626 29.1953 32.7715C29.0521 32.6803 28.8779 32.6348 28.6729 32.6348C28.4548 32.6348 28.2725 32.6803 28.126 32.7715C27.9827 32.8626 27.8704 32.988 27.7891 33.1475C27.7109 33.3037 27.6556 33.4795 27.623 33.6748C27.5938 33.8669 27.5791 34.0687 27.5791 34.2803V34.4365C27.5791 34.6514 27.5938 34.8564 27.623 35.0518C27.6556 35.2471 27.7109 35.4229 27.7891 35.5791C27.8704 35.7321 27.9827 35.8542 28.126 35.9453C28.2725 36.0365 28.458 36.082 28.6826 36.082ZM32.7402 31.7168L33.6826 33.3965L34.6396 31.7168H36.041L34.4883 34.3047L36.1045 37H34.7031L33.6924 35.2373L32.6768 37H31.2754L32.8867 34.3047L31.3438 31.7168H32.7402Z" fill="white"/>
</svg>
