<svg width="48" height="48" viewBox="0 0 48 48" fill="none" xmlns="http://www.w3.org/2000/svg">
<path d="M10 10C10 8.11438 10 7.17157 10.5858 6.58579C11.1716 6 12.1144 6 14 6L27.728 6C28.5741 6 28.9972 6 29.3749 6.16207C29.7526 6.32415 30.0441 6.63079 30.6271 7.24406L36.8991 13.8419C37.4428 14.4138 37.7146 14.6998 37.8573 15.057C38 15.4142 38 15.8088 38 16.5979V38C38 39.8856 38 40.8284 37.4142 41.4142C36.8284 42 35.8856 42 34 42H14C12.1144 42 11.1716 42 10.5858 41.4142C10 40.8284 10 39.8856 10 38V10Z" fill="#747576"/>
<path d="M27.8867 14.0205V9.71111C27.8867 8.82236 28.9594 8.37522 29.5906 9.00084L33.9388 13.3102C34.5731 13.9388 34.128 15.0205 33.2349 15.0205H28.8867C28.3344 15.0205 27.8867 14.5727 27.8867 14.0205Z" fill="white"/>
<path d="M12.1055 36.3701C12.1055 36.1748 12.1722 36.0104 12.3057 35.877C12.4391 35.7435 12.6198 35.6768 12.8477 35.6768C13.0755 35.6768 13.2562 35.7435 13.3896 35.877C13.5231 36.0104 13.5898 36.1748 13.5898 36.3701C13.5898 36.5622 13.5231 36.7249 13.3896 36.8584C13.2562 36.9886 13.0755 37.0537 12.8477 37.0537C12.6198 37.0537 12.4391 36.9886 12.3057 36.8584C12.1722 36.7249 12.1055 36.5622 12.1055 36.3701ZM17.2666 37.0977C16.8662 37.0977 16.5065 37.0326 16.1875 36.9023C15.8685 36.7721 15.5967 36.5915 15.3721 36.3604C15.1507 36.126 14.9798 35.8542 14.8594 35.5449C14.7422 35.2324 14.6836 34.8971 14.6836 34.5391V34.3438C14.6836 33.9368 14.7422 33.5674 14.8594 33.2354C14.9766 32.9001 15.1426 32.612 15.3574 32.3711C15.5723 32.1302 15.8294 31.9447 16.1289 31.8145C16.4284 31.6842 16.7588 31.6191 17.1201 31.6191C17.4945 31.6191 17.8249 31.6826 18.1113 31.8096C18.3978 31.9333 18.637 32.109 18.8291 32.3369C19.0212 32.5648 19.166 32.8382 19.2637 33.1572C19.3613 33.473 19.4102 33.8229 19.4102 34.207V34.749H15.2695V33.8604H18.1406V33.7627C18.1341 33.5576 18.0951 33.3704 18.0234 33.2012C17.9518 33.0286 17.8411 32.8919 17.6914 32.791C17.5417 32.6868 17.348 32.6348 17.1104 32.6348C16.9183 32.6348 16.7507 32.6771 16.6074 32.7617C16.4674 32.8431 16.3503 32.9603 16.2559 33.1133C16.1647 33.263 16.0964 33.4421 16.0508 33.6504C16.0052 33.8587 15.9824 34.0898 15.9824 34.3438V34.5391C15.9824 34.7604 16.0117 34.9655 16.0703 35.1543C16.1322 35.3431 16.2217 35.5075 16.3389 35.6475C16.4593 35.7842 16.6025 35.8916 16.7686 35.9697C16.9378 36.0446 17.1299 36.082 17.3447 36.082C17.6149 36.082 17.859 36.0299 18.0771 35.9258C18.2985 35.8184 18.4906 35.6605 18.6533 35.4521L19.3027 36.126C19.1921 36.2887 19.0423 36.445 18.8535 36.5947C18.668 36.7445 18.4434 36.8665 18.1797 36.9609C17.916 37.0521 17.6117 37.0977 17.2666 37.0977ZM21.5635 32.7324V39.0312H20.2695V31.7168H21.4658L21.5635 32.7324ZM24.957 34.3047V34.4072C24.957 34.7913 24.9115 35.1478 24.8203 35.4766C24.7324 35.8021 24.6022 36.0869 24.4297 36.3311C24.2572 36.5719 24.0423 36.7607 23.7852 36.8975C23.5312 37.0309 23.2383 37.0977 22.9062 37.0977C22.5807 37.0977 22.2975 37.0358 22.0566 36.9121C21.8158 36.7852 21.6123 36.6061 21.4463 36.375C21.2803 36.1439 21.1468 35.8753 21.0459 35.5693C20.9482 35.2601 20.875 34.9232 20.8262 34.5586V34.2314C20.875 33.8441 20.9482 33.4925 21.0459 33.1768C21.1468 32.8577 21.2803 32.5827 21.4463 32.3516C21.6123 32.1172 21.8141 31.9365 22.0518 31.8096C22.2926 31.6826 22.5742 31.6191 22.8965 31.6191C23.2318 31.6191 23.5264 31.6826 23.7803 31.8096C24.0374 31.9365 24.2539 32.1188 24.4297 32.3564C24.6055 32.5941 24.7373 32.8773 24.8252 33.2061C24.9131 33.5348 24.957 33.901 24.957 34.3047ZM23.6631 34.4072V34.3047C23.6631 34.0703 23.6419 33.8538 23.5996 33.6553C23.5573 33.4535 23.4922 33.2777 23.4043 33.1279C23.3164 32.9749 23.2025 32.8561 23.0625 32.7715C22.9225 32.6868 22.7533 32.6445 22.5547 32.6445C22.3561 32.6445 22.1852 32.6771 22.042 32.7422C21.8988 32.8073 21.7816 32.9001 21.6904 33.0205C21.5993 33.141 21.5277 33.2842 21.4756 33.4502C21.4268 33.613 21.3942 33.7936 21.3779 33.9922V34.8027C21.4072 35.0436 21.4642 35.2601 21.5488 35.4521C21.6335 35.6442 21.7572 35.7972 21.9199 35.9111C22.0859 36.0251 22.3008 36.082 22.5645 36.082C22.763 36.082 22.9323 36.0381 23.0723 35.9502C23.2122 35.8623 23.3262 35.7419 23.4141 35.5889C23.502 35.4326 23.5654 35.2536 23.6045 35.0518C23.6436 34.8499 23.6631 34.6351 23.6631 34.4072ZM29.0439 35.7451V31.7168H30.3428V37H29.1221L29.0439 35.7451ZM29.21 34.6514L29.6104 34.6416C29.6104 34.9964 29.5713 35.3236 29.4932 35.623C29.415 35.9225 29.293 36.1829 29.127 36.4043C28.9642 36.6224 28.7575 36.7933 28.5068 36.917C28.2562 37.0374 27.96 37.0977 27.6182 37.0977C27.3577 37.0977 27.1201 37.0618 26.9053 36.9902C26.6904 36.9154 26.5049 36.7998 26.3486 36.6436C26.1956 36.484 26.0768 36.2806 25.9922 36.0332C25.9076 35.7826 25.8652 35.4814 25.8652 35.1299V31.7168H27.1543V35.1396C27.1543 35.3154 27.1738 35.4619 27.2129 35.5791C27.2552 35.6963 27.3122 35.7923 27.3838 35.8672C27.4587 35.9388 27.5449 35.9909 27.6426 36.0234C27.7435 36.0527 27.8509 36.0674 27.9648 36.0674C28.2773 36.0674 28.5231 36.0055 28.7021 35.8818C28.8844 35.7549 29.0146 35.5856 29.0928 35.374C29.1709 35.1592 29.21 34.9183 29.21 34.6514ZM31.4805 29.5H32.7744V35.833L32.6475 37H31.4805V29.5ZM36.1729 34.3047V34.4072C36.1729 34.8011 36.1289 35.1624 36.041 35.4912C35.9564 35.82 35.8278 36.1048 35.6553 36.3457C35.4827 36.5833 35.2679 36.7689 35.0107 36.9023C34.7568 37.0326 34.459 37.0977 34.1172 37.0977C33.7917 37.0977 33.5085 37.0342 33.2676 36.9072C33.0299 36.7803 32.8298 36.6012 32.667 36.3701C32.5042 36.1357 32.374 35.8607 32.2764 35.5449C32.1787 35.2259 32.1055 34.8776 32.0566 34.5V34.2217C32.1055 33.8408 32.1787 33.4925 32.2764 33.1768C32.374 32.861 32.5042 32.5859 32.667 32.3516C32.8298 32.1172 33.0299 31.9365 33.2676 31.8096C33.5052 31.6826 33.7852 31.6191 34.1074 31.6191C34.4525 31.6191 34.7536 31.6859 35.0107 31.8193C35.2712 31.9495 35.486 32.1351 35.6553 32.376C35.8278 32.6136 35.9564 32.8968 36.041 33.2256C36.1289 33.5511 36.1729 33.9108 36.1729 34.3047ZM34.8789 34.4072V34.3047C34.8789 34.0801 34.861 33.8685 34.8252 33.6699C34.7894 33.4681 34.7308 33.2907 34.6494 33.1377C34.568 32.9847 34.4574 32.8643 34.3174 32.7764C34.1774 32.6885 34.0016 32.6445 33.79 32.6445C33.5882 32.6445 33.4157 32.6787 33.2725 32.7471C33.1325 32.8154 33.0153 32.9098 32.9209 33.0303C32.8298 33.1507 32.7581 33.2923 32.7061 33.4551C32.6572 33.6178 32.6247 33.7936 32.6084 33.9824V34.7441C32.6312 34.9948 32.6849 35.221 32.7695 35.4229C32.8542 35.6214 32.9795 35.7793 33.1455 35.8965C33.3148 36.0137 33.5329 36.0723 33.7998 36.0723C34.0081 36.0723 34.1823 36.0316 34.3223 35.9502C34.4622 35.8656 34.5729 35.7484 34.6543 35.5986C34.7357 35.4456 34.7926 35.2682 34.8252 35.0664C34.861 34.8646 34.8789 34.6449 34.8789 34.4072Z" fill="white"/>
</svg>
