<svg width="48" height="48" viewBox="0 0 48 48" fill="none" xmlns="http://www.w3.org/2000/svg">
<path d="M10 10C10 8.11438 10 7.17157 10.5858 6.58579C11.1716 6 12.1144 6 14 6L27.728 6C28.5741 6 28.9972 6 29.3749 6.16207C29.7526 6.32415 30.0441 6.63079 30.6271 7.24406L36.8991 13.8419C37.4428 14.4138 37.7146 14.6998 37.8573 15.057C38 15.4142 38 15.8088 38 16.5979V38C38 39.8856 38 40.8284 37.4142 41.4142C36.8284 42 35.8856 42 34 42H14C12.1144 42 11.1716 42 10.5858 41.4142C10 40.8284 10 39.8856 10 38V10Z" fill="#747576"/>
<path d="M27.8867 14.0205V9.7111C27.8867 8.82236 28.9594 8.37522 29.5906 9.00083L33.9388 13.3102C34.5731 13.9388 34.128 15.0205 33.2349 15.0205H28.8867C28.3344 15.0205 27.8867 14.5727 27.8867 14.0205Z" fill="white"/>
<path d="M13.623 36.7441C13.623 36.5098 13.7031 36.3125 13.8633 36.1523C14.0234 35.9922 14.2402 35.9121 14.5137 35.9121C14.7871 35.9121 15.0039 35.9922 15.1641 36.1523C15.3242 36.3125 15.4043 36.5098 15.4043 36.7441C15.4043 36.9746 15.3242 37.1699 15.1641 37.3301C15.0039 37.4863 14.7871 37.5645 14.5137 37.5645C14.2402 37.5645 14.0234 37.4863 13.8633 37.3301C13.7031 37.1699 13.623 36.9746 13.623 36.7441ZM19.8164 37.6172C19.3359 37.6172 18.9043 37.5391 18.5215 37.3828C18.1387 37.2266 17.8125 37.0098 17.543 36.7324C17.2773 36.4512 17.0723 36.125 16.9277 35.7539C16.7871 35.3789 16.7168 34.9766 16.7168 34.5469V34.3125C16.7168 33.8242 16.7871 33.3809 16.9277 32.9824C17.0684 32.5801 17.2676 32.2344 17.5254 31.9453C17.7832 31.6562 18.0918 31.4336 18.4512 31.2773C18.8105 31.1211 19.207 31.043 19.6406 31.043C20.0898 31.043 20.4863 31.1191 20.8301 31.2715C21.1738 31.4199 21.4609 31.6309 21.6914 31.9043C21.9219 32.1777 22.0957 32.5059 22.2129 32.8887C22.3301 33.2676 22.3887 33.6875 22.3887 34.1484V34.7988H17.4199V33.7324H20.8652V33.6152C20.8574 33.3691 20.8105 33.1445 20.7246 32.9414C20.6387 32.7344 20.5059 32.5703 20.3262 32.4492C20.1465 32.3242 19.9141 32.2617 19.6289 32.2617C19.3984 32.2617 19.1973 32.3125 19.0254 32.4141C18.8574 32.5117 18.7168 32.6523 18.6035 32.8359C18.4941 33.0156 18.4121 33.2305 18.3574 33.4805C18.3027 33.7305 18.2754 34.0078 18.2754 34.3125V34.5469C18.2754 34.8125 18.3105 35.0586 18.3809 35.2852C18.4551 35.5117 18.5625 35.709 18.7031 35.877C18.8477 36.041 19.0195 36.1699 19.2188 36.2637C19.4219 36.3535 19.6523 36.3984 19.9102 36.3984C20.2344 36.3984 20.5273 36.3359 20.7891 36.2109C21.0547 36.082 21.2852 35.8926 21.4805 35.6426L22.2598 36.4512C22.127 36.6465 21.9473 36.834 21.7207 37.0137C21.498 37.1934 21.2285 37.3398 20.9121 37.4531C20.5957 37.5625 20.2305 37.6172 19.8164 37.6172ZM24.6387 31.1602L25.7695 33.1758L26.918 31.1602H28.5996L26.7363 34.2656L28.6758 37.5H26.9941L25.7812 35.3848L24.5625 37.5H22.8809L24.8145 34.2656L22.9629 31.1602H24.6387ZM32.2266 37.6172C31.7461 37.6172 31.3145 37.5391 30.9316 37.3828C30.5488 37.2266 30.2227 37.0098 29.9531 36.7324C29.6875 36.4512 29.4824 36.125 29.3379 35.7539C29.1973 35.3789 29.127 34.9766 29.127 34.5469V34.3125C29.127 33.8242 29.1973 33.3809 29.3379 32.9824C29.4785 32.5801 29.6777 32.2344 29.9355 31.9453C30.1934 31.6562 30.502 31.4336 30.8613 31.2773C31.2207 31.1211 31.6172 31.043 32.0508 31.043C32.5 31.043 32.8965 31.1191 33.2402 31.2715C33.584 31.4199 33.8711 31.6309 34.1016 31.9043C34.332 32.1777 34.5059 32.5059 34.623 32.8887C34.7402 33.2676 34.7988 33.6875 34.7988 34.1484V34.7988H29.8301V33.7324H33.2754V33.6152C33.2676 33.3691 33.2207 33.1445 33.1348 32.9414C33.0488 32.7344 32.916 32.5703 32.7363 32.4492C32.5566 32.3242 32.3242 32.2617 32.0391 32.2617C31.8086 32.2617 31.6074 32.3125 31.4355 32.4141C31.2676 32.5117 31.127 32.6523 31.0137 32.8359C30.9043 33.0156 30.8223 33.2305 30.7676 33.4805C30.7129 33.7305 30.6855 34.0078 30.6855 34.3125V34.5469C30.6855 34.8125 30.7207 35.0586 30.791 35.2852C30.8652 35.5117 30.9727 35.709 31.1133 35.877C31.2578 36.041 31.4297 36.1699 31.6289 36.2637C31.832 36.3535 32.0625 36.3984 32.3203 36.3984C32.6445 36.3984 32.9375 36.3359 33.1992 36.2109C33.4648 36.082 33.6953 35.8926 33.8906 35.6426L34.6699 36.4512C34.5371 36.6465 34.3574 36.834 34.1309 37.0137C33.9082 37.1934 33.6387 37.3398 33.3223 37.4531C33.0059 37.5625 32.6406 37.6172 32.2266 37.6172Z" fill="white"/>
</svg>
