<svg width="48" height="48" viewBox="0 0 48 48" fill="none" xmlns="http://www.w3.org/2000/svg">
<path d="M10 10C10 8.11438 10 7.17157 10.5858 6.58579C11.1716 6 12.1144 6 14 6L27.728 6C28.5741 6 28.9972 6 29.3749 6.16207C29.7526 6.32415 30.0441 6.63079 30.6271 7.24406L36.8991 13.8419C37.4428 14.4138 37.7146 14.6998 37.8573 15.057C38 15.4142 38 15.8088 38 16.5979V38C38 39.8856 38 40.8284 37.4142 41.4142C36.8284 42 35.8856 42 34 42H14C12.1144 42 11.1716 42 10.5858 41.4142C10 40.8284 10 39.8856 10 38V10Z" fill="#00B2E3"/>
<path d="M27.8867 14.0205V9.71111C27.8867 8.82236 28.9594 8.37522 29.5906 9.00084L33.9388 13.3102C34.5731 13.9388 34.128 15.0205 33.2349 15.0205H28.8867C28.3344 15.0205 27.8867 14.5727 27.8867 14.0205Z" fill="white"/>
<path d="M14.1211 36.7441C14.1211 36.5098 14.2012 36.3125 14.3613 36.1523C14.5215 35.9922 14.7383 35.9121 15.0117 35.9121C15.2852 35.9121 15.502 35.9922 15.6621 36.1523C15.8223 36.3125 15.9023 36.5098 15.9023 36.7441C15.9023 36.9746 15.8223 37.1699 15.6621 37.3301C15.502 37.4863 15.2852 37.5645 15.0117 37.5645C14.7383 37.5645 14.5215 37.4863 14.3613 37.3301C14.2012 37.1699 14.1211 36.9746 14.1211 36.7441ZM19.4941 37.5H17.9355V30.5742C17.9355 30.0977 18.0273 29.6973 18.2109 29.373C18.3945 29.0449 18.6562 28.7969 18.9961 28.6289C19.3359 28.4609 19.7363 28.377 20.1973 28.377C20.3496 28.377 20.4941 28.3867 20.6309 28.4062C20.7715 28.4258 20.9102 28.4531 21.0469 28.4883L21.0176 29.666C20.9434 29.6465 20.8613 29.6328 20.7715 29.625C20.6855 29.6172 20.5898 29.6133 20.4844 29.6133C20.2734 29.6133 20.0938 29.6504 19.9453 29.7246C19.7969 29.7988 19.6836 29.9082 19.6055 30.0527C19.5312 30.1934 19.4941 30.3672 19.4941 30.5742V37.5ZM20.7773 31.1602V32.2734H16.9805V31.1602H20.7773ZM21.7266 28.5H23.2793V36.0996L23.127 37.5H21.7266V28.5ZM27.3574 34.2656V34.3887C27.3574 34.8613 27.3047 35.2949 27.1992 35.6895C27.0977 36.084 26.9434 36.4258 26.7363 36.7148C26.5293 37 26.2715 37.2227 25.9629 37.3828C25.6582 37.5391 25.3008 37.6172 24.8906 37.6172C24.5 37.6172 24.1602 37.541 23.8711 37.3887C23.5859 37.2363 23.3457 37.0215 23.1504 36.7441C22.9551 36.4629 22.7988 36.1328 22.6816 35.7539C22.5645 35.3711 22.4766 34.9531 22.418 34.5V34.166C22.4766 33.709 22.5645 33.291 22.6816 32.9121C22.7988 32.5332 22.9551 32.2031 23.1504 31.9219C23.3457 31.6406 23.5859 31.4238 23.8711 31.2715C24.1562 31.1191 24.4922 31.043 24.8789 31.043C25.293 31.043 25.6543 31.123 25.9629 31.2832C26.2754 31.4395 26.5332 31.6621 26.7363 31.9512C26.9434 32.2363 27.0977 32.5762 27.1992 32.9707C27.3047 33.3613 27.3574 33.793 27.3574 34.2656ZM25.8047 34.3887V34.2656C25.8047 33.9961 25.7832 33.7422 25.7402 33.5039C25.6973 33.2617 25.627 33.0488 25.5293 32.8652C25.4316 32.6816 25.2988 32.5371 25.1309 32.4316C24.9629 32.3262 24.752 32.2734 24.498 32.2734C24.2559 32.2734 24.0488 32.3145 23.877 32.3965C23.709 32.4785 23.5684 32.5918 23.4551 32.7363C23.3457 32.8809 23.2598 33.0508 23.1973 33.2461C23.1387 33.4414 23.0996 33.6523 23.0801 33.8789V34.793C23.1074 35.0938 23.1719 35.3652 23.2734 35.6074C23.375 35.8457 23.5254 36.0352 23.7246 36.1758C23.9277 36.3164 24.1895 36.3867 24.5098 36.3867C24.7598 36.3867 24.9688 36.3379 25.1367 36.2402C25.3047 36.1387 25.4375 35.998 25.5352 35.8184C25.6328 35.6348 25.7012 35.4219 25.7402 35.1797C25.7832 34.9375 25.8047 34.6738 25.8047 34.3887ZM34.1777 36.2812V37.5H28.4004V36.457L31.1719 33.4629C31.4609 33.1348 31.6895 32.8496 31.8574 32.6074C32.0254 32.3652 32.1445 32.1465 32.2148 31.9512C32.2891 31.752 32.3262 31.5625 32.3262 31.3828C32.3262 31.1211 32.2793 30.8926 32.1855 30.6973C32.0918 30.498 31.9551 30.3438 31.7754 30.2344C31.5996 30.125 31.3828 30.0703 31.125 30.0703C30.8398 30.0703 30.5957 30.1367 30.3926 30.2695C30.1934 30.3984 30.041 30.5781 29.9355 30.8086C29.834 31.0391 29.7832 31.3027 29.7832 31.5996H28.2305C28.2305 31.0957 28.3477 30.6367 28.582 30.2227C28.8164 29.8047 29.1523 29.4707 29.5898 29.2207C30.0273 28.9707 30.5469 28.8457 31.1484 28.8457C31.7344 28.8457 32.2305 28.9434 32.6367 29.1387C33.043 29.3301 33.3516 29.6035 33.5625 29.959C33.7734 30.3145 33.8789 30.7383 33.8789 31.2305C33.8789 31.5039 33.834 31.7734 33.7441 32.0391C33.6543 32.3047 33.5273 32.5684 33.3633 32.8301C33.2031 33.0879 33.0117 33.3496 32.7891 33.6152C32.5664 33.8809 32.3184 34.1523 32.0449 34.4297L30.3809 36.2812H34.1777Z" fill="white"/>
</svg>
