<svg width="32" height="32" viewBox="0 0 32 32" fill="none" xmlns="http://www.w3.org/2000/svg">
<path d="M26.9995 26.9996L25.4281 25.4281M28.2218 15.9996V12.3329C28.2218 6.22179 25.7773 3.77734 19.6662 3.77734L12.3329 3.77734C6.22179 3.77734 3.77734 6.22179 3.77734 12.3329L3.77734 19.6662C3.77734 23.4796 4.73071 25.8751 6.94293 27.1218C7.37596 27.368 8.10979 27.573 8.89859 27.7366C9.59487 27.8811 10.3068 27.9285 11.0179 27.9285H14.7773M14.7773 13.5551L8.66623 13.5551M19.6662 8.66623H8.66619M26.0567 21.0282C26.0567 23.8054 23.8053 26.0567 21.0281 26.0567C18.2509 26.0567 15.9995 23.8054 15.9995 21.0282C15.9995 18.251 18.2509 15.9996 21.0281 15.9996C23.8053 15.9996 26.0567 18.251 26.0567 21.0282Z" stroke="#17191B" stroke-width="1.5" stroke-linecap="round" stroke-linejoin="round"/>
</svg>
