<svg width="24" height="24" viewBox="0 0 24 24" fill="none" xmlns="http://www.w3.org/2000/svg">
<path d="M2 12C2 17.5228 6.47715 22 12 22C17.5228 22 22 17.5228 22 12C22 6.47715 17.5228 2 12 2C6.47715 2 2 6.47715 2 12Z" fill="#00B2E3"/>
<path d="M17 12C17 13.1053 16.1053 14 15 14C13.8947 14 13 13.1053 13 12C13 10.8947 13.8947 10 15 10C16.1053 10 17 10.8947 17 12Z" fill="white"/>
<path d="M11 12C11 13.1053 10.1053 14 8.99999 14C7.89473 14 7 13.1053 7 12C7 10.8947 7.89473 10 8.99999 10C10.0526 10 11 10.8947 11 12Z" fill="white"/>
</svg>
