<svg width="17" height="18" viewBox="0 0 17 18" fill="none" xmlns="http://www.w3.org/2000/svg">
<g clip-path="url(#clip0_42_853)">
<path d="M16.8194 9.19117C16.8194 8.63159 16.7698 8.10034 16.6848 7.58325H8.68066V10.7778H13.2636C13.0582 11.8262 12.4561 12.7116 11.5636 13.3137V15.4387H14.2977C15.8986 13.9583 16.8194 11.7766 16.8194 9.19117Z" fill="white"/>
<path d="M8.68098 17.5C10.976 17.5 12.8956 16.735 14.2981 15.4387L11.5639 13.3137C10.7989 13.8237 9.82848 14.1354 8.68098 14.1354C6.46389 14.1354 4.58681 12.6408 3.91389 10.6221H1.09473V12.8108C2.49014 15.5875 5.35889 17.5 8.68098 17.5Z" fill="white"/>
<path d="M3.91358 10.6221C3.7365 10.1121 3.64441 9.56671 3.64441 9.00004C3.64441 8.43337 3.74358 7.88796 3.91358 7.37796V5.18921H1.09441C0.51358 6.33671 0.180664 7.62587 0.180664 9.00004C0.180664 10.3742 0.51358 11.6634 1.09441 12.8109L3.91358 10.6221Z" fill="white"/>
<path d="M8.68098 3.86458C9.93473 3.86458 11.0539 4.29667 11.9393 5.13959L14.3618 2.71708C12.8956 1.34292 10.976 0.5 8.68098 0.5C5.35889 0.5 2.49014 2.4125 1.09473 5.18917L3.91389 7.37792C4.58681 5.35917 6.46389 3.86458 8.68098 3.86458Z" fill="white"/>
</g>
<defs>
<clipPath id="clip0_42_853">
<rect width="17" height="17" fill="white" transform="translate(0 0.5)"/>
</clipPath>
</defs>
</svg>
