<svg width="72" height="72" viewBox="0 0 72 72" fill="none" xmlns="http://www.w3.org/2000/svg">
<g clip-path="url(#clip0_991_15812)">
<path d="M3.2377 19.5252C3.2377 18.5337 3.1859 17.6329 3.27008 16.745C3.29598 16.4599 3.6327 16.1099 3.91114 15.9674C11.1377 12.3187 18.3837 8.70255 25.6232 5.07339C28.8868 3.44026 32.1568 1.81362 35.414 0.154573C35.8543 -0.0657686 36.191 -0.0528073 36.6184 0.154573C47.1345 5.42982 57.6505 10.6986 68.1795 15.9544C68.6457 16.1877 68.8076 16.4534 68.7817 16.9524C68.7429 17.7884 68.7688 18.6309 68.7688 19.5123H3.2377V19.5252Z" fill="#A1E8FC"/>
<path d="M65.4793 62.2392V65.4536H68.7623V68.6745H72V71.9926H0V68.7328H3.22475V65.4795H6.5013V62.2392H65.4793Z" fill="#A1E8FC"/>
<path d="M26.2189 29.4147H32.7073V58.8498H26.2189V29.4147Z" fill="#A1E8FC"/>
<path d="M45.7876 58.8757H39.2992V29.4406H45.7876V58.8757Z" fill="#A1E8FC"/>
<path d="M6.55311 26.0642V22.8952H65.4339V26.0642H6.55311Z" fill="#A1E8FC"/>
<path d="M13.1321 29.4212H19.5622V58.8757H13.1321V29.4212Z" fill="#A1E8FC"/>
<path d="M52.4378 29.4147H58.8744V58.8498H52.4378V29.4147Z" fill="#A1E8FC"/>
</g>
<defs>
<clipPath id="clip0_991_15812">
<rect width="72" height="72" fill="white"/>
</clipPath>
</defs>
</svg>
