<svg width="80" height="72" viewBox="0 0 80 72" fill="none" xmlns="http://www.w3.org/2000/svg">
<g clip-path="url(#clip0_991_15814)">
<path d="M53.9862 24.9496C51.7987 24.4636 49.8671 25.7078 47.7604 26.1745C41.6221 27.5354 35.5174 27.2762 29.3724 26.1291C27.6628 25.8115 25.8321 25.9995 24.0686 26.0708C19.088 26.2587 14.1208 26.2457 9.20074 25.3838C7.86135 25.1505 6.52869 24.7293 5.29026 24.1784C2.23456 22.824 2.84705 19.5253 4.47585 18.0088C6.03062 16.5637 7.99596 15.9998 10.0757 15.9091C11.1997 15.8637 11.6372 15.598 11.8997 14.438C12.566 11.4893 14.7871 9.8821 17.6813 9.09146C19.6736 8.54709 21.6726 8.67022 23.6177 9.35069C24.2706 9.57751 24.7821 9.55807 24.8898 8.79335C25.3004 5.92891 27.2051 4.23098 29.8031 3.26536C33.6665 1.82666 37.3885 2.16365 40.7269 4.69758C42.0057 5.66968 42.8201 6.95285 43.1095 8.52117C43.298 9.54511 43.4864 9.62936 44.5364 9.30532C47.9017 8.28786 51.0382 8.6443 53.8314 10.8283C55.1304 11.8393 55.9852 13.1548 56.2073 14.762C56.3284 15.6499 56.7525 15.8897 57.614 15.8508C59.3841 15.773 61.1004 16.0582 62.6619 16.9201C63.6581 17.4645 64.3984 18.2421 64.7148 19.3309C65.1321 20.7761 64.8023 21.7352 63.5504 22.649C61.8543 23.8738 59.8486 24.2886 57.8226 24.5997C56.5977 24.7876 55.3525 24.833 53.9997 24.9496H53.9862Z" fill="#A1E8FC"/>
<path d="M51.1526 33.0569C54.1814 35.688 57.2236 38.3321 60.2726 40.9762C64.2167 44.4045 68.1541 47.8393 72.1185 51.2416C72.6165 51.6693 72.805 52.1165 72.7915 52.7451C72.7579 54.7865 72.7579 56.8279 72.7915 58.8628C72.7982 59.3878 72.6704 59.7377 72.1185 59.8738C70.4358 60.2886 68.7733 60.9237 67.0638 61.0857C62.81 61.494 58.7245 60.7876 54.7939 59.0832C52.418 58.0592 49.9546 57.1195 47.4373 56.5233C43.6884 55.629 39.9596 56.3095 36.3251 57.3853C34.4338 57.9426 32.5559 58.5582 30.6714 59.1415C30.3012 59.2582 29.9175 59.3424 29.4329 59.472C29.4329 56.9446 29.4195 54.5532 29.4531 52.1618C29.4531 51.9221 29.6752 51.624 29.8772 51.449C36.8837 45.3507 43.9037 39.2589 50.9238 33.1735C50.9709 33.1347 51.0382 33.1152 51.1526 33.0569ZM51.0718 52.3887C54.2958 52.3887 57.015 49.8029 57.0217 46.7246C57.0217 43.5815 54.3025 40.9503 51.0517 40.9698C47.8883 40.9827 45.196 43.5555 45.1556 46.595C45.1153 49.7381 47.8142 52.3887 51.0718 52.3951V52.3887Z" fill="#A1E8FC"/>
<path d="M0 57.4695C2.78647 57.4825 5.37775 58.0592 7.80077 59.2711C10.6411 60.6904 13.4949 62.0124 16.7457 62.3559C21.1139 62.816 25.3071 62.0448 29.4531 60.8459C32.9867 59.822 36.4866 58.6943 40.0606 57.8454C44.072 56.8992 47.996 57.4825 51.7516 59.148C54.74 60.47 57.7351 61.7921 61.0466 62.2328C65.9398 62.8808 70.6243 62.4207 74.9655 59.9386C76.4866 59.0702 78.0548 58.2731 80 57.962C80 59.3359 80.0202 60.6191 79.9798 61.8958C79.9798 62.0643 79.6904 62.2911 79.4885 62.3818C77.4491 63.2697 75.3626 64.0733 73.3502 65.0259C67.8311 67.6312 62.2446 67.3914 56.6313 65.4601C54.3295 64.6695 52.142 63.5548 49.8334 62.7836C45.4047 61.2996 40.9625 61.7402 36.5607 63.0169C32.805 64.1057 29.0897 65.3629 25.2802 66.2443C19.7813 67.521 14.4372 67.1192 9.40266 64.3066C6.54888 62.7123 3.41915 61.8634 0.00673061 61.8958V57.476L0 57.4695Z" fill="#A1E8FC"/>
<path d="M79.9596 63.6002V66.9896C77.5164 68.1302 75.2078 69.2124 72.8925 70.2882C68.0128 72.5564 62.9985 72.3426 57.964 70.9428C56.3284 70.4891 54.7333 69.8411 53.2054 69.1087C47.7604 66.497 42.1942 66.3545 36.4732 68.0848C32.6973 69.2254 28.9416 70.4438 25.0984 71.3251C19.963 72.5046 14.9016 72.2454 10.1363 69.7114C7.01329 68.0524 3.72203 66.9118 0.00673061 66.9572V63.1725C2.26148 63.1725 4.44893 63.5224 6.52196 64.4038C7.96231 65.0195 9.35554 65.7453 10.7757 66.3933C15.5881 68.5838 20.6158 68.6486 25.6503 67.4562C29.4195 66.5683 33.1146 65.3694 36.8231 64.2353C42.3961 62.5309 47.7806 62.7836 53.0372 65.3759C56.988 67.3201 61.1812 68.3246 65.6571 68.1691C68.6589 68.0589 71.4858 67.4238 74.1511 66.0564C75.6857 65.2657 77.2876 64.5982 78.8692 63.8918C79.1654 63.7622 79.5019 63.7233 79.9731 63.6067L79.9596 63.6002Z" fill="#A1E8FC"/>
<path d="M34.0973 33.7698C31.3444 36.712 28.7262 39.5116 26.1148 42.3048C26.0474 42.2659 25.9734 42.2205 25.9061 42.1816C26.4311 40.9374 26.9561 39.6931 27.4878 38.4488C27.8176 37.6711 28.1541 36.8934 28.4839 36.1158C28.9551 35.0076 28.8945 34.8844 27.7368 34.5215C26.633 34.1781 25.5225 33.8346 24.3513 33.4717C25.2398 31.4886 26.0744 29.5833 26.9695 27.7104C27.0974 27.4447 27.582 27.1595 27.8647 27.1854C28.9551 27.2956 30.0387 27.5289 31.2367 27.7298C30.6983 29.0065 30.1935 30.1925 29.7022 31.3719C29.2579 32.4412 29.3454 32.6097 30.53 32.9014C31.6608 33.18 32.7982 33.4457 34.0973 33.7568V33.7698Z" fill="#A1E8FC"/>
<path d="M1.68265 47.4375C1.53458 47.0551 1.21824 46.6663 1.31247 46.433C1.67592 45.5386 2.14706 44.6832 2.6384 43.8537C2.73936 43.6852 3.19704 43.562 3.3855 43.6398C3.57395 43.7176 3.79606 44.1518 3.72203 44.3073C3.298 45.247 2.79993 46.1543 2.3086 47.0616C2.24129 47.1782 2.03937 47.2236 1.67592 47.431L1.68265 47.4375Z" fill="#A1E8FC"/>
<path d="M66.6465 29.0972C66.4984 28.7278 66.209 28.3714 66.2965 28.1575C66.6869 27.2438 67.1647 26.3559 67.6763 25.5005C67.7705 25.3384 68.2551 25.2283 68.4301 25.319C68.6185 25.4162 68.8003 25.8439 68.7195 26.0189C68.3157 26.9262 67.8378 27.8141 67.3532 28.6889C67.2791 28.825 67.0368 28.8769 66.6397 29.0972H66.6465Z" fill="#A1E8FC"/>
<path d="M75.2213 30.3869C75.0597 30.024 74.7434 29.661 74.8309 29.4472C75.2145 28.5269 75.6857 27.6456 76.1972 26.7836C76.2914 26.6216 76.7289 26.5309 76.9645 26.5892C77.126 26.6281 77.3549 27.0429 77.2943 27.1725C76.8501 28.1381 76.3453 29.0713 75.8337 30.0045C75.7664 30.1212 75.5713 30.173 75.2145 30.3804L75.2213 30.3869Z" fill="#A1E8FC"/>
<path d="M39.0712 35.4418C38.9298 35.0335 38.6404 34.6382 38.7414 34.3919C39.0914 33.53 39.5423 32.7005 40.0404 31.9098C40.1548 31.7219 40.599 31.6376 40.875 31.6571C40.9961 31.6636 41.2452 32.1107 41.1846 32.2468C40.7336 33.206 40.2221 34.1392 39.7106 35.0724C39.6433 35.189 39.4414 35.2344 39.0779 35.4483L39.0712 35.4418Z" fill="#A1E8FC"/>
<path d="M61.7668 2.92837C61.9283 3.27832 62.2514 3.64772 62.1639 3.8551C61.7802 4.77535 61.3091 5.65672 60.7976 6.51865C60.6966 6.68066 60.2659 6.77139 60.0303 6.71306C59.8755 6.67418 59.6399 6.2659 59.7005 6.12981C60.1447 5.17067 60.6428 4.23098 61.1476 3.29776C61.2149 3.18111 61.4168 3.12927 61.76 2.92837H61.7668Z" fill="#A1E8FC"/>
<path d="M61.8745 29.3305C61.1072 30.672 60.562 31.6571 59.963 32.6227C59.9024 32.7264 59.438 32.7458 59.3505 32.6486C59.1822 32.4607 59.0072 32.1042 59.088 31.9228C59.4784 31.0349 59.9361 30.1665 60.4207 29.3176C60.5149 29.1555 60.8716 29.0648 61.1004 29.0713C61.3562 29.0778 61.6052 29.2333 61.8677 29.3305H61.8745Z" fill="#A1E8FC"/>
<path d="M19.3505 3.79677C19.2226 3.41442 18.9534 3.03854 19.0476 2.79875C19.3976 1.93683 19.8486 1.1073 20.3264 0.303704C20.4341 0.115765 20.8514 -0.0462509 21.0601 0.012075C21.2553 0.0639202 21.5379 0.498124 21.4774 0.634217C21.0399 1.59983 20.5351 2.53953 20.0236 3.47274C19.963 3.58291 19.7476 3.61532 19.3505 3.79677Z" fill="#A1E8FC"/>
<path d="M10.1632 40.5032C10.0353 40.069 9.77284 39.6736 9.88053 39.4144C10.2103 38.5784 10.6411 37.7618 11.119 36.9907C11.2401 36.7898 11.6709 36.699 11.9536 36.699C12.068 36.699 12.3305 37.1527 12.2699 37.2888C11.8257 38.2544 11.3209 39.1941 10.8094 40.1338C10.7488 40.2504 10.5401 40.2958 10.1632 40.4967V40.5032Z" fill="#A1E8FC"/>
<path d="M34.7838 40.9957C34.1915 42.0391 33.6598 43.0306 33.0607 43.9833C32.9934 44.0934 32.5156 44.087 32.3406 43.9703C32.1858 43.8666 32.0579 43.4907 32.1319 43.3222C32.5559 42.415 33.0204 41.5206 33.5252 40.6587C33.6194 40.5032 33.9963 40.393 34.2049 40.4384C34.4069 40.4837 34.5549 40.7559 34.7838 40.9957Z" fill="#A1E8FC"/>
<path d="M78.1221 42.2724C77.5299 43.3028 76.9645 44.3138 76.352 45.2988C76.2982 45.3896 75.8607 45.3766 75.7328 45.2729C75.5645 45.1303 75.3828 44.7869 75.4568 44.6313C75.8943 43.6981 76.3789 42.7779 76.9039 41.89C76.9847 41.7539 77.3885 41.7021 77.6106 41.7539C77.7856 41.7928 77.9135 42.0456 78.1289 42.2724H78.1221Z" fill="#A1E8FC"/>
<path d="M18.6842 58.2407C18.5496 57.7611 18.2871 57.3593 18.3947 57.1066C18.7313 56.2706 19.1688 55.467 19.6601 54.7023C19.7947 54.4949 20.2591 54.4884 20.5687 54.3847C20.6562 54.6375 20.8783 54.942 20.7976 55.1235C20.4005 56.0049 19.9361 56.8668 19.4582 57.7093C19.364 57.8778 19.1015 57.9556 18.6842 58.2342V58.2407Z" fill="#A1E8FC"/>
<path d="M53.1247 0.608295C52.566 1.59983 52.0478 2.57193 51.4622 3.51163C51.3882 3.62828 50.944 3.62828 50.742 3.53755C50.594 3.47274 50.4324 3.10982 50.493 2.97373C50.9507 2.00811 51.4488 1.05546 51.9872 0.128727C52.0612 -0.000886312 52.4853 -0.0268089 52.7007 0.0444782C52.8622 0.0963234 52.9564 0.368511 53.1179 0.608295H53.1247Z" fill="#A1E8FC"/>
<path d="M74.8107 11.3273C74.2386 12.3447 73.7271 13.3168 73.1482 14.2436C73.0742 14.3602 72.6165 14.3862 72.4415 14.2825C72.2733 14.1853 72.1185 13.8029 72.1925 13.6474C72.6232 12.7141 73.1011 11.7939 73.6261 10.906C73.7069 10.7635 74.1174 10.6857 74.3059 10.7505C74.5078 10.8218 74.629 11.1005 74.8107 11.3208V11.3273Z" fill="#A1E8FC"/>
<path d="M8.20461 53.7237C8.06327 53.3932 7.76712 53.0432 7.84789 52.8553C8.26518 51.9156 8.74979 51.0018 9.28151 50.114C9.369 49.9714 9.84015 49.9195 10.0555 50.0038C10.2171 50.0621 10.3988 50.4769 10.3248 50.6324C9.88726 51.5656 9.3892 52.4729 8.8844 53.3737C8.81036 53.5098 8.5546 53.5487 8.19788 53.7237H8.20461Z" fill="#A1E8FC"/>
<path d="M5.57967 8.86464C5.45179 8.4758 5.16911 8.08696 5.26333 7.84718C5.61333 6.98525 6.07101 6.15573 6.54888 5.35213C6.65657 5.16419 7.07387 5.00217 7.27579 5.0605C7.4777 5.11883 7.76039 5.55303 7.69308 5.68912C7.25559 6.65474 6.74407 7.58795 6.23254 8.52117C6.17197 8.63134 5.95659 8.67022 5.57294 8.85816L5.57967 8.86464Z" fill="#A1E8FC"/>
<path d="M4.53643 29.687C3.97779 30.6915 3.48645 31.6441 2.92108 32.5579C2.84032 32.6875 2.35571 32.7458 2.23456 32.6421C2.05283 32.4931 1.88457 32.1042 1.95861 31.9228C2.34898 31.0349 2.7932 30.16 3.29127 29.324C3.39223 29.1555 3.82298 29.0713 4.05856 29.1167C4.24028 29.1555 4.36143 29.4666 4.5297 29.687H4.53643Z" fill="#A1E8FC"/>
<path d="M19.6534 29.661C19.0813 30.685 18.5697 31.6441 17.9976 32.5773C17.9236 32.694 17.439 32.7329 17.3111 32.6227C17.1361 32.4736 16.9746 32.0913 17.0554 31.9163C17.4457 31.0349 17.8967 30.173 18.388 29.3435C18.489 29.1685 18.9063 29.0713 19.1486 29.1037C19.3303 29.1296 19.4649 29.4342 19.6601 29.661H19.6534Z" fill="#A1E8FC"/>
<path d="M68.9012 37.8591C68.3291 38.883 67.8176 39.8486 67.2455 40.7818C67.1647 40.905 66.6734 40.9633 66.5455 40.8531C66.3705 40.7041 66.2157 40.3217 66.2965 40.1338C66.6869 39.2524 67.1243 38.384 67.6224 37.548C67.7301 37.373 68.1407 37.2693 68.3897 37.3017C68.5647 37.3212 68.706 37.6258 68.9012 37.8591Z" fill="#A1E8FC"/>
<path d="M17.3919 45.5516C17.2573 45.1433 16.9813 44.7545 17.0823 44.5082C17.4255 43.6463 17.8765 42.8168 18.3544 42.0132C18.4621 41.8317 18.8861 41.6826 19.0947 41.741C19.2832 41.7928 19.5524 42.227 19.4851 42.3696C19.0476 43.3287 18.5428 44.2619 18.0313 45.1952C17.9707 45.3118 17.7621 45.3507 17.3919 45.5516Z" fill="#A1E8FC"/>
</g>
<defs>
<clipPath id="clip0_991_15814">
<rect width="80" height="72" fill="white"/>
</clipPath>
</defs>
</svg>
