<svg width="72" height="72" viewBox="0 0 72 72" fill="none" xmlns="http://www.w3.org/2000/svg">
<g clip-path="url(#clip0_991_15810)">
<path d="M17.9627 0.000621275C19.2592 0.363538 20.4714 0.856067 21.4503 1.83465C23.4079 3.80476 23.8812 6.82475 22.5847 9.28739C21.3336 11.6723 18.5397 13.0721 15.9921 12.5925C13.1074 12.0546 11.0006 9.87065 10.6635 7.08397C10.2811 3.88901 12.3814 0.901432 15.5318 0.143196C15.6874 0.104312 15.8365 0.0395052 15.9856 -0.00585938C16.6403 -0.00585938 17.3015 -0.00585938 17.9562 -0.00585938L17.9627 0.000621275Z" fill="#A1E8FC"/>
<path d="M36.9626 0.000686081C37.4034 0.14326 37.8572 0.266393 38.285 0.43489C41.1956 1.569 42.8162 4.62139 42.1615 7.71914C41.5133 10.765 38.7518 12.8129 35.4846 12.6574C32.6 12.5213 30.0265 10.0587 29.6699 7.097C29.294 3.92796 31.3424 0.972784 34.4669 0.175664C34.6419 0.123818 34.817 0.0590119 34.992 0.000686081C35.6467 0.000686081 36.3014 0.000686081 36.9626 0.000686081Z" fill="#A1E8FC"/>
<path d="M55.9561 0.000686081C56.3969 0.14326 56.8506 0.266393 57.2785 0.43489C60.1891 1.569 61.8097 4.62139 61.1549 7.71914C60.5067 10.765 57.7452 12.8129 54.4781 12.6574C51.5934 12.5213 49.0199 10.0587 48.6634 7.097C48.2874 3.92796 50.3358 0.972784 53.4603 0.175664C53.6354 0.130299 53.8104 0.0654926 53.9854 0.00716673C54.6401 0.00716673 55.3013 0.00716673 55.9561 0.00716673V0.000686081Z" fill="#A1E8FC"/>
<path d="M72 33.7649C70.5285 33.7649 69.0505 33.7714 67.579 33.7649C65.2518 33.7454 63.4173 31.879 63.4173 29.546C63.4173 27.2129 65.2518 25.3465 67.579 25.3335C69.0505 25.3206 70.5285 25.3335 72 25.3335V33.7778V33.7649Z" fill="#A1E8FC"/>
<path d="M27.5826 16.9022H44.3591V71.9813H38.11V46.4734H33.877V71.9877H27.5891V16.9022H27.5826Z" fill="#A1E8FC"/>
<path d="M65.6278 21.335C61.0383 23.1884 58.75 26.5325 59.2297 30.3949C59.6834 34.0565 62.4838 37.7116 67.6373 38.0227V38.7615C67.6373 41.8592 67.6373 44.9505 67.6373 48.0482C67.6373 49.7073 67.1512 50.3359 65.5241 50.7247C65.5241 54.2502 65.5241 57.7886 65.5241 61.3271C65.5241 64.8655 65.5241 68.4039 65.5241 71.9877H59.2167V46.4864H54.9837V72.0007H48.6893V16.9411C48.7671 16.9281 48.8513 16.8893 48.9356 16.8893C51.8657 16.8893 54.8022 16.8569 57.7322 16.9022C60.6947 16.9476 64.1044 18.8918 65.6213 21.335H65.6278Z" fill="#A1E8FC"/>
<path d="M4.36914 38.0162C9.39948 37.7051 12.0184 34.2509 12.6147 31.0041C13.3019 27.2648 11.2405 22.7413 6.29441 21.322C7.41586 19.7148 8.8744 18.5418 10.6376 17.7641C11.9535 17.1809 13.3408 16.8763 14.7928 16.8828C17.3988 16.8957 19.9982 16.8828 22.6041 16.8828C22.8116 16.8828 23.019 16.8828 23.2653 16.8828V71.9942H16.9968V46.4605H12.7898V71.9748H6.44999V50.9062C5.82119 50.5174 5.23778 50.2646 4.80994 49.8498C4.52471 49.5712 4.33672 49.0592 4.33024 48.6509C4.29135 45.1838 4.31079 41.7101 4.31079 38.243C4.31079 38.1782 4.33672 38.1134 4.36265 38.0032L4.36914 38.0162Z" fill="#A1E8FC"/>
<path d="M0 25.3335C1.61412 25.3335 3.18286 25.2752 4.74512 25.3465C6.82597 25.4437 8.51787 27.3555 8.52435 29.5071C8.53084 31.704 6.85189 33.6288 4.74512 33.7389C3.39029 33.8102 2.02899 33.7584 0.674169 33.7584C0.466733 33.7584 0.259296 33.7584 0 33.7584V25.3335Z" fill="#A1E8FC"/>
</g>
<defs>
<clipPath id="clip0_991_15810">
<rect width="72" height="72" fill="white"/>
</clipPath>
</defs>
</svg>
