<svg width="64" height="72" viewBox="0 0 64 72" fill="none" xmlns="http://www.w3.org/2000/svg">
<g clip-path="url(#clip0_991_15816)">
<path d="M-0.000158141 41.1824V34.7271C0.774466 34.7919 1.52906 34.8502 2.27697 34.9085C13.5624 35.7381 24.2269 33.6901 34.0566 28.1421C42.2503 23.5145 48.5341 17.1435 52.2536 8.56233C52.701 7.53181 52.5675 7.24016 51.4857 6.8124C50.8312 6.55315 50.1768 6.30038 49.3221 5.96984C53.509 3.94769 57.5424 1.99684 61.6893 -0.00585938C62.464 3.88288 63.2185 7.68736 63.9998 11.6409C62.9781 11.2585 62.09 10.9474 61.2219 10.5845C60.5207 10.2928 60.0666 10.4937 59.7594 11.1354C52.8279 25.7959 40.7144 34.4224 25.1818 39.0047C17.4556 41.2861 9.52906 41.9277 1.48899 41.3574C1.00151 41.325 0.52071 41.2407 -0.00683594 41.1759L-0.000158141 41.1824Z" fill="#A1E8FC"/>
<path d="M50.8847 71.0479C50.8847 58.9604 50.8847 46.8664 50.8847 34.7789C50.8847 34.3252 50.9047 33.9428 51.3321 33.5928C55.6793 30.0735 59.312 25.9644 62.2236 21.2461C62.277 21.1554 62.3438 21.0776 62.484 20.8896V71.9293H50.8847V71.0479Z" fill="#A1E8FC"/>
<path d="M45.5558 71.9358H33.923V71.1192C33.923 62.1621 33.923 53.2115 33.9164 44.2545C33.9164 43.7619 33.9765 43.4378 34.5441 43.2304C38.1835 41.8953 41.6359 40.1778 44.9347 38.1816C45.1084 38.0779 45.302 37.9936 45.5625 37.864V71.9423L45.5558 71.9358Z" fill="#A1E8FC"/>
<path d="M16.9481 47.4692C20.8746 46.7562 24.701 46.0627 28.6008 45.3563C28.6075 45.5572 28.6342 45.8359 28.6342 46.1146C28.6342 54.43 28.6276 62.7454 28.6476 71.0544C28.6476 71.7673 28.4873 72.0071 27.706 72.0006C24.3671 71.9553 21.0282 71.9747 17.6893 71.9877C17.1685 71.9877 16.9013 71.9099 16.9013 71.3007C16.9214 63.4389 16.9147 55.5772 16.9147 47.7155C16.9147 47.6118 16.9414 47.5081 16.9414 47.4627L16.9481 47.4692Z" fill="#A1E8FC"/>
<path d="M0.0131975 46.996C3.87964 47.2488 7.68599 47.5016 11.5658 47.7608V71.9423H0.0131975V46.996Z" fill="#A1E8FC"/>
</g>
<defs>
<clipPath id="clip0_991_15816">
<rect width="64" height="72" fill="white"/>
</clipPath>
</defs>
</svg>
