<svg width="48" height="48" viewBox="0 0 48 48" fill="none" xmlns="http://www.w3.org/2000/svg">
<path d="M10 10C10 8.11438 10 7.17157 10.5858 6.58579C11.1716 6 12.1144 6 14 6L27.728 6C28.5741 6 28.9972 6 29.3749 6.16207C29.7526 6.32415 30.0441 6.63079 30.6271 7.24406L36.8991 13.8419C37.4428 14.4138 37.7146 14.6998 37.8573 15.057C38 15.4142 38 15.8088 38 16.5979V38C38 39.8856 38 40.8284 37.4142 41.4142C36.8284 42 35.8856 42 34 42H14C12.1144 42 11.1716 42 10.5858 41.4142C10 40.8284 10 39.8856 10 38V10Z" fill="#00B2E3"/>
<path d="M27.8867 14.0205V9.71111C27.8867 8.82236 28.9594 8.37522 29.5906 9.00084L33.9388 13.3102C34.5731 13.9388 34.128 15.0205 33.2349 15.0205H28.8867C28.3344 15.0205 27.8867 14.5727 27.8867 14.0205Z" fill="white"/>
<path d="M13.7266 36.3701C13.7266 36.1748 13.7933 36.0104 13.9268 35.877C14.0602 35.7435 14.2409 35.6768 14.4688 35.6768C14.6966 35.6768 14.8773 35.7435 15.0107 35.877C15.1442 36.0104 15.2109 36.1748 15.2109 36.3701C15.2109 36.5622 15.1442 36.7249 15.0107 36.8584C14.8773 36.9886 14.6966 37.0537 14.4688 37.0537C14.2409 37.0537 14.0602 36.9886 13.9268 36.8584C13.7933 36.7249 13.7266 36.5622 13.7266 36.3701ZM19.874 31.7168H21.0459V36.8389C21.0459 37.3174 20.9417 37.7227 20.7334 38.0547C20.5283 38.39 20.2402 38.6439 19.8691 38.8164C19.498 38.9922 19.0667 39.0801 18.5752 39.0801C18.3636 39.0801 18.1341 39.0508 17.8867 38.9922C17.6426 38.9336 17.4066 38.8408 17.1787 38.7139C16.9541 38.5902 16.7669 38.429 16.6172 38.2305L17.1982 37.4688C17.374 37.6738 17.5726 37.8285 17.7939 37.9326C18.0153 38.04 18.2546 38.0938 18.5117 38.0938C18.7721 38.0938 18.9935 38.0449 19.1758 37.9473C19.3613 37.8529 19.5029 37.7129 19.6006 37.5273C19.7015 37.3451 19.752 37.1204 19.752 36.8535V32.9229L19.874 31.7168ZM16.3047 34.4219V34.3193C16.3047 33.9157 16.3535 33.5495 16.4512 33.2207C16.5488 32.8887 16.6888 32.6038 16.8711 32.3662C17.0566 32.1286 17.2796 31.9447 17.54 31.8145C17.8037 31.6842 18.0999 31.6191 18.4287 31.6191C18.777 31.6191 19.07 31.6826 19.3076 31.8096C19.5485 31.9365 19.7471 32.1172 19.9033 32.3516C20.0628 32.5859 20.1865 32.8643 20.2744 33.1865C20.3656 33.5055 20.4355 33.8571 20.4844 34.2412V34.5195C20.4388 34.8939 20.3656 35.2373 20.2646 35.5498C20.167 35.8623 20.0368 36.1357 19.874 36.3701C19.7113 36.6012 19.5094 36.7803 19.2686 36.9072C19.0277 37.0342 18.7445 37.0977 18.4189 37.0977C18.0934 37.0977 17.8005 37.0309 17.54 36.8975C17.2796 36.764 17.0566 36.5768 16.8711 36.3359C16.6888 36.0951 16.5488 35.8118 16.4512 35.4863C16.3535 35.1608 16.3047 34.806 16.3047 34.4219ZM17.5938 34.3193V34.4219C17.5938 34.6497 17.6165 34.863 17.6621 35.0615C17.7077 35.2601 17.7777 35.4359 17.8721 35.5889C17.9665 35.7386 18.0853 35.8558 18.2285 35.9404C18.3717 36.0251 18.5426 36.0674 18.7412 36.0674C19.0081 36.0674 19.2262 36.012 19.3955 35.9014C19.568 35.7874 19.6982 35.6328 19.7861 35.4375C19.8773 35.2389 19.9359 35.016 19.9619 34.7686V34.002C19.9456 33.8066 19.9098 33.626 19.8545 33.46C19.8024 33.2939 19.7292 33.1507 19.6348 33.0303C19.5404 32.9098 19.4199 32.8154 19.2734 32.7471C19.127 32.6787 18.9528 32.6445 18.751 32.6445C18.5557 32.6445 18.3848 32.6885 18.2383 32.7764C18.0918 32.861 17.9714 32.9798 17.877 33.1328C17.7826 33.2858 17.7109 33.4632 17.6621 33.665C17.6165 33.8669 17.5938 34.085 17.5938 34.3193ZM26.3486 35.9844V37H22.374V35.9844H26.3486ZM26.2559 32.4883L22.8574 37H22.0078V36.2041L25.3867 31.7168H26.2559V32.4883ZM25.7822 31.7168V32.7373H22.0762V31.7168H25.7822ZM28.6338 31.7168V37H27.3398V31.7168H28.6338ZM27.252 30.335C27.252 30.1429 27.3171 29.9834 27.4473 29.8564C27.5807 29.7295 27.7598 29.666 27.9844 29.666C28.209 29.666 28.3864 29.7295 28.5166 29.8564C28.6501 29.9834 28.7168 30.1429 28.7168 30.335C28.7168 30.5238 28.6501 30.6816 28.5166 30.8086C28.3864 30.9355 28.209 30.999 27.9844 30.999C27.7598 30.999 27.5807 30.9355 27.4473 30.8086C27.3171 30.6816 27.252 30.5238 27.252 30.335ZM31.1533 32.7324V39.0312H29.8594V31.7168H31.0557L31.1533 32.7324ZM34.5469 34.3047V34.4072C34.5469 34.7913 34.5013 35.1478 34.4102 35.4766C34.3223 35.8021 34.1921 36.0869 34.0195 36.3311C33.847 36.5719 33.6322 36.7607 33.375 36.8975C33.1211 37.0309 32.8281 37.0977 32.4961 37.0977C32.1706 37.0977 31.8874 37.0358 31.6465 36.9121C31.4056 36.7852 31.2021 36.6061 31.0361 36.375C30.8701 36.1439 30.7367 35.8753 30.6357 35.5693C30.5381 35.2601 30.4648 34.9232 30.416 34.5586V34.2314C30.4648 33.8441 30.5381 33.4925 30.6357 33.1768C30.7367 32.8577 30.8701 32.5827 31.0361 32.3516C31.2021 32.1172 31.404 31.9365 31.6416 31.8096C31.8825 31.6826 32.1641 31.6191 32.4863 31.6191C32.8216 31.6191 33.1162 31.6826 33.3701 31.8096C33.6273 31.9365 33.8438 32.1188 34.0195 32.3564C34.1953 32.5941 34.3271 32.8773 34.415 33.2061C34.5029 33.5348 34.5469 33.901 34.5469 34.3047ZM33.2529 34.4072V34.3047C33.2529 34.0703 33.2318 33.8538 33.1895 33.6553C33.1471 33.4535 33.082 33.2777 32.9941 33.1279C32.9062 32.9749 32.7923 32.8561 32.6523 32.7715C32.5124 32.6868 32.3431 32.6445 32.1445 32.6445C31.946 32.6445 31.7751 32.6771 31.6318 32.7422C31.4886 32.8073 31.3714 32.9001 31.2803 33.0205C31.1891 33.141 31.1175 33.2842 31.0654 33.4502C31.0166 33.613 30.984 33.7936 30.9678 33.9922V34.8027C30.9971 35.0436 31.054 35.2601 31.1387 35.4521C31.2233 35.6442 31.347 35.7972 31.5098 35.9111C31.6758 36.0251 31.8906 36.082 32.1543 36.082C32.3529 36.082 32.5221 36.0381 32.6621 35.9502C32.8021 35.8623 32.916 35.7419 33.0039 35.5889C33.0918 35.4326 33.1553 35.2536 33.1943 35.0518C33.2334 34.8499 33.2529 34.6351 33.2529 34.4072Z" fill="white"/>
</svg>
