<svg width="200" height="200" viewBox="0 0 200 200" fill="none" xmlns="http://www.w3.org/2000/svg">
<rect width="200" height="200" fill="#016FA3"/>
<path d="M135.755 50.8179C135.755 50.8179 133.711 53.6153 134.262 56.3327C134.89 59.0502 137.877 60.6487 137.877 60.6487C137.877 60.6487 139.921 57.8513 139.371 55.1338C138.742 52.4164 135.755 50.8179 135.755 50.8179Z" fill="white"/>
<path d="M132.375 66.6424C132.375 66.6424 134.419 63.845 133.79 61.1275C133.161 58.41 130.174 56.8115 130.174 56.8115C130.174 56.8115 128.13 59.6089 128.681 62.3264C129.309 65.0439 132.296 66.6424 132.296 66.6424" fill="white"/>
<path d="M140.865 63.6918C140.865 63.6918 143.065 65.9298 145.502 65.69C148.017 65.4502 149.825 62.8926 149.825 62.8926C149.825 62.8926 147.624 60.6547 145.188 60.8944C142.751 61.1342 140.865 63.6918 140.865 63.6918Z" fill="white"/>
<path d="M144.402 51.7761C142.358 53.8541 142.673 57.5307 142.673 57.5307C142.673 57.5307 146.21 57.8504 148.253 55.7723C150.297 53.6943 149.983 50.0177 149.983 50.0177C149.983 50.0177 146.445 49.698 144.402 51.7761Z" fill="white"/>
<path d="M140 71.9909C142.436 72.3106 144.794 70.1526 144.794 70.1526C144.794 70.1526 143.144 67.5151 140.628 67.1954C138.192 66.8757 135.834 69.0337 135.834 69.0337C135.834 69.0337 137.484 71.6712 140 71.9909Z" fill="white"/>
<path d="M142.2 115.466H123.807C122.393 115.466 121.214 116.665 121.214 118.104C121.214 119.543 122.393 120.741 123.807 120.741H142.2C143.615 120.741 144.794 119.543 144.794 118.104C144.794 116.665 143.615 115.466 142.2 115.466Z" fill="white"/>
<path d="M142.2 144.727H123.807C122.393 144.727 121.214 145.925 121.214 147.364C121.214 148.803 122.393 150.002 123.807 150.002H142.2C143.615 150.002 144.794 148.803 144.794 147.364C144.794 145.925 143.615 144.727 142.2 144.727Z" fill="white"/>
<path d="M59.354 109.084C58.9609 108.924 58.4893 108.845 58.0963 108.765C58.0963 108.765 58.5679 108.924 59.354 109.084Z" fill="white"/>
<path d="M141.494 122.676H124.437C123.651 122.676 122.944 123.316 122.944 124.195V129.47L111.782 130.749L95.5113 130.349V120.279C97.6336 119.959 99.8345 119.559 101.957 118.92C117.599 114.444 121.057 101.256 120.743 92.1447C120.428 82.8734 123.337 79.2767 127.503 77.6782C128.682 77.1987 129.861 76.9589 130.961 76.7191C130.961 79.0369 131.433 81.6745 132.454 84.7916C132.847 84.7916 133.162 84.7916 133.555 84.7117C132.454 81.4347 132.061 78.7972 131.983 76.5593C134.184 76.3195 135.677 76.4793 135.677 76.4793C135.677 76.4793 134.184 75.6801 132.14 73.9217C132.847 69.5258 135.441 66.8083 138.035 64.0909C139.529 62.5723 141.022 60.9738 142.201 59.1355L141.258 58.4961C140.158 60.2545 138.664 61.773 137.249 63.2916C134.655 66.0091 132.061 68.7266 131.197 73.1225C130.332 72.3232 129.468 71.444 128.524 70.405C124.673 66.0091 119.721 69.2061 112.568 75.9199C105.494 82.6336 96.5332 82.8734 87.8083 73.7619C76.3323 61.773 66.2712 61.853 59.4328 62.4924C64.1489 64.5704 65.7996 69.0463 68.1577 80.3957C70.6729 92.3046 76.9611 97.7395 85.5288 98.4589C80.7341 100.217 80.4983 102.935 74.0529 107.411C69.0223 110.927 61.9481 109.808 59.1184 109.169C64.3847 110.847 70.5943 116.442 76.1751 118.36C79.3978 119.479 82.8563 120.199 86.3148 120.438V130.109L57.1533 129.47V136.184L111.625 134.905L122.786 136.184V141.459C122.786 142.258 123.415 142.977 124.28 142.977H141.337C142.201 142.977 142.83 142.258 142.83 141.459V124.195C142.83 123.396 142.201 122.676 141.337 122.676M89.0659 120.518C90.245 120.518 91.5026 120.518 92.6816 120.438V130.189H89.0659V120.518Z" fill="white"/>
<path d="M55.738 135.05C55.738 136.488 54.7947 137.607 53.5371 137.607H52.2009C51.0218 137.607 50 136.488 50 135.05V130.414C50 128.975 50.9432 127.856 52.2009 127.856H53.5371C54.7161 127.856 55.738 128.975 55.738 130.414V135.05Z" fill="white"/>
</svg>
