<svg width="200" height="200" viewBox="0 0 200 200" fill="none" xmlns="http://www.w3.org/2000/svg">
<rect width="200" height="200" fill="#DEA63B"/>
<path d="M83.9509 145.479V148.531C83.9509 148.531 83.9509 148.531 83.9509 148.59C83.9509 148.59 83.9509 148.59 83.9509 148.648C83.9509 149.412 84.5018 149.999 85.1527 149.999H115.799C116.45 149.999 117.001 149.353 117.001 148.59V145.126C134.276 138.493 147.196 122.116 150 102.158C150 102.158 150 102.099 150 102.04C150 101.981 150 101.923 150 101.864C150 101.042 149.449 100.397 148.748 100.397H51.2519C50.5508 100.397 50 101.042 50 101.864V102.51C53.0546 122.644 66.3245 139.139 83.9509 145.537" fill="white"/>
<path d="M117.051 51.5589C116.65 52.2046 107.236 68.1712 117.251 81.0266C121.858 86.9554 121.457 92.121 120.155 95.6431H126.615C127.917 90.4187 127.366 83.9029 122.158 77.2111C114.747 67.7016 122.258 54.9048 122.359 54.67C123.26 53.2025 122.759 51.3241 121.307 50.4436C119.855 49.5631 117.952 50.0327 117.051 51.5002" fill="white"/>
<path d="M100.726 95.6431H107.186C108.488 90.4187 107.937 83.9029 102.729 77.2111C95.3182 67.7016 102.829 54.9048 102.93 54.67C103.781 53.2025 103.33 51.3241 101.878 50.4436C100.426 49.5631 98.523 50.0327 97.6216 51.5002C97.221 52.1459 87.7568 68.1125 97.8219 80.9679C102.429 86.8967 102.028 92.121 100.726 95.5844" fill="white"/>
<path d="M78.1922 51.5589C77.7916 52.2046 68.3274 68.1712 78.3925 81.0266C82.9994 86.9554 82.5988 92.121 81.2969 95.6431H87.7565C89.0585 90.4187 88.5077 83.9029 83.2999 77.2111C75.8887 67.7016 83.4 54.9048 83.5002 54.67C84.3514 53.2025 83.9008 51.3241 82.4486 50.4436C80.9964 49.5631 79.0936 50.0327 78.1922 51.5002" fill="white"/>
</svg>
