<svg width="200" height="200" viewBox="0 0 200 200" fill="none" xmlns="http://www.w3.org/2000/svg">
<rect width="200" height="200" fill="#EA2E46"/>
<path d="M150.78 75.0904C150.78 72.2819 153.004 70 155.741 70C158.477 70 160.701 72.2819 160.701 75.0904C160.701 77.8989 158.477 80.1808 155.741 80.1808C153.004 80.1808 150.78 77.8989 150.78 75.0904Z" fill="white"/>
<path d="M161.513 82.1582C164.892 82.4654 167.5 85.3617 167.5 88.9162V103.003C167.5 104.1 166.645 104.977 165.576 104.977C164.507 104.977 163.652 104.1 163.652 103.003V90.8909C163.652 90.4521 163.523 89.8377 162.711 89.8377C162.155 89.8377 162.027 90.4521 162.027 90.847V127.138C162.027 128.674 160.787 129.991 159.247 129.991C157.708 129.991 156.468 128.718 156.468 127.138V106.206C156.468 105.987 156.382 105.372 155.698 105.372C154.971 105.372 154.928 105.987 154.885 106.206V127.138C154.885 128.674 153.645 129.991 152.149 129.991C150.652 129.991 149.369 128.718 149.369 127.138V90.847C149.369 90.4521 149.241 89.8377 148.685 89.8377C147.872 89.8377 147.744 90.4521 147.744 90.8909V103.003C147.744 104.1 146.889 104.977 145.82 104.977C144.751 104.977 143.896 104.1 143.896 103.003V88.9162C143.896 85.3617 146.547 82.4654 149.882 82.1582C150.01 82.1582 150.096 82.1582 150.224 82.1582H161.043C161.043 82.1582 161.3 82.1582 161.428 82.1582" fill="white"/>
<path d="M121.317 77.7763C121.317 75.0995 119.221 72.9492 116.613 72.9492C114.004 72.9492 111.909 75.0995 111.909 77.7763C111.909 80.4532 114.004 82.6035 116.613 82.6035C119.221 82.6035 121.317 80.4532 121.317 77.7763Z" fill="white"/>
<path d="M107.163 88.6568L103.271 101.69C103.271 101.69 102.587 104.06 104.554 104.674C106.521 105.288 107.12 102.919 107.12 102.919L110.284 92.0357C110.284 92.0357 110.455 91.202 111.054 91.3775C111.653 91.553 111.439 92.4307 111.439 92.4307L105.965 112.836H111.054V127.449C111.054 128.854 112.166 129.951 113.492 129.951C114.817 129.951 115.929 128.81 115.929 127.449V112.836H117.297V127.449C117.297 128.854 118.409 129.951 119.735 129.951C121.06 129.951 122.172 128.81 122.172 127.449V112.836H127.261L121.787 92.4307C121.787 92.4307 121.574 91.553 122.172 91.3775C122.771 91.202 122.942 92.0357 122.942 92.0357L126.106 102.919C126.106 102.919 126.705 105.245 128.672 104.674C130.639 104.06 129.955 101.69 129.955 101.69L126.064 88.6568C126.064 88.6568 124.652 84.8828 121.574 84.8828H111.61C108.531 84.8828 107.12 88.6568 107.12 88.6568" fill="white"/>
<path d="M93.1794 77.7763C93.1794 75.0995 91.084 72.9492 88.4756 72.9492C85.8671 72.9492 83.7717 75.0995 83.7717 77.7763C83.7717 80.4532 85.8671 82.6035 88.4756 82.6035C91.084 82.6035 93.1794 80.4532 93.1794 77.7763Z" fill="white"/>
<path d="M79.0253 88.6568L75.134 101.69C75.134 101.69 74.4498 104.06 76.4168 104.674C78.3839 105.288 78.9825 102.919 78.9825 102.919L82.1469 92.0357C82.1469 92.0357 82.318 91.202 82.9166 91.3775C83.5153 91.553 83.3015 92.4307 83.3015 92.4307L77.828 112.836H82.9166V127.449C82.9166 128.854 84.0285 129.951 85.3541 129.951C86.6797 129.951 87.7915 128.81 87.7915 127.449V112.836H89.1599V127.449C89.1599 128.854 90.2717 129.951 91.5973 129.951C92.923 129.951 94.0348 128.81 94.0348 127.449V112.836H99.1235L93.6499 92.4307C93.6499 92.4307 93.4361 91.553 94.0348 91.3775C94.6334 91.202 94.8045 92.0357 94.8045 92.0357L97.9689 102.919C97.9689 102.919 98.5675 105.245 100.535 104.674C102.502 104.06 101.817 101.69 101.817 101.69L97.9261 88.6568C97.9261 88.6568 96.515 84.8828 93.4361 84.8828H83.4726C80.3937 84.8828 78.9825 88.6568 78.9825 88.6568" fill="white"/>
<path d="M137.053 104.705C139.234 104.705 140.945 102.906 140.945 100.712C140.945 98.518 139.191 96.7188 137.053 96.7188C134.915 96.7188 133.162 98.518 133.162 100.712C133.162 102.906 134.915 104.705 137.053 104.705Z" fill="white"/>
<path d="M127.689 117.187C127.518 117.669 127.346 118.635 128.245 119.074C129.314 119.6 129.912 118.503 129.912 118.503L132.05 111.57C132.05 111.57 132.435 111.087 132.435 111.57V127.938C132.435 129.079 133.333 130 134.445 130C135.557 130 136.455 129.079 136.455 127.938V121.487C136.455 121.487 136.327 120.566 137.053 120.566C137.78 120.566 137.652 121.487 137.652 121.487V127.938C137.652 129.079 138.55 130 139.662 130C140.774 130 141.672 129.079 141.672 127.938V111.57C141.672 111.087 141.928 111.438 141.928 111.438L143.596 116.177C143.596 116.177 144.323 118.328 144.537 118.415C145.307 118.723 146.162 118.415 146.461 117.582C146.675 117.099 146.589 116.528 146.29 116.133C146.29 116.133 143.81 109.814 143.511 108.937C142.613 106.304 141.03 106.304 139.491 106.26C137.951 106.26 137.011 106.26 137.011 106.26C137.011 106.26 136.027 106.26 133.975 106.26C131.922 106.348 131.281 107.401 129.057 113.325C128.715 114.159 127.646 116.923 127.646 117.099L127.689 117.187Z" fill="white"/>
<path d="M51.2721 75.0904C51.2721 72.2819 49.0485 70 46.3117 70C43.5749 70 41.3513 72.2819 41.3513 75.0904C41.3513 77.8989 43.5749 80.1808 46.3117 80.1808C49.0485 80.1808 51.2721 77.8989 51.2721 75.0904Z" fill="white"/>
<path d="M40.4964 82.1582C37.1182 82.4654 34.5098 85.3617 34.5098 88.9162V103.003C34.5098 104.1 35.365 104.977 36.4341 104.977C37.5031 104.977 38.3583 104.1 38.3583 103.003V90.8909C38.3583 90.4521 38.4866 89.8377 39.2991 89.8377C39.855 89.8377 39.9833 90.4521 39.9833 90.847V127.138C39.9833 128.674 41.2234 129.991 42.7201 129.991C44.2167 129.991 45.4996 128.718 45.4996 127.138V106.206C45.4996 105.987 45.5851 105.372 46.2693 105.372C46.9535 105.372 47.039 105.987 47.0818 106.206V127.138C47.0818 128.674 48.3219 129.991 49.8186 129.991C51.3152 129.991 52.5981 128.718 52.5981 127.138V90.847C52.5981 90.4521 52.7264 89.8377 53.2823 89.8377C54.0948 89.8377 54.2231 90.4521 54.2231 90.8909V103.003C54.2231 104.1 55.0783 104.977 56.1474 104.977C57.2164 104.977 58.0716 104.1 58.0716 103.003V88.9162C58.0716 85.3617 55.4204 82.4654 52.085 82.1582C51.9567 82.1582 51.8711 82.1582 51.7429 82.1582H40.9241C40.9241 82.1582 40.6675 82.1582 40.5392 82.1582" fill="white"/>
<path d="M35.4531 105.762L32.5 128.23" stroke="white" stroke-width="0.68" stroke-miterlimit="10" stroke-linecap="round"/>
<path d="M60.4242 102.597C60.1676 102.202 59.74 101.895 59.2268 101.895C58.4571 101.895 57.8157 102.553 57.8157 103.343C57.8157 103.562 57.944 104.001 57.944 104.001L61.8781 111.329C61.8781 111.329 62.1346 111.812 62.1346 112.295V128.005C62.1346 129.102 62.9899 129.98 64.0589 129.98C65.128 129.98 65.9832 129.102 65.9832 128.005V121.817C65.9832 121.817 65.8549 120.94 66.5819 120.94C67.3088 120.94 67.1378 121.817 67.1378 121.817V128.005C67.1378 129.102 67.993 129.98 69.0621 129.98C70.1311 129.98 70.9864 129.102 70.9864 128.005V112.295C70.9864 111.856 71.2002 111.329 71.2002 111.329L74.835 104.571C74.835 104.571 75.2626 103.606 75.2626 103.387C75.2626 102.597 74.6211 101.938 73.8514 101.938C73.3383 101.938 72.9107 102.202 72.6541 102.641C72.6541 102.641 70.7298 106.063 70.1311 106.678C69.4897 107.336 68.9338 107.248 68.9338 107.248H64.1872C64.1872 107.248 63.6313 107.336 62.9899 106.678C62.3912 106.063 60.5524 102.728 60.4669 102.641L60.4242 102.597Z" fill="white"/>
<path d="M66.5818 104.705C68.7626 104.705 70.4731 102.906 70.4731 100.712C70.4731 98.518 68.7199 96.7188 66.5818 96.7188C64.4437 96.7188 62.6904 98.518 62.6904 100.712C62.6904 102.906 64.4437 104.705 66.5818 104.705Z" fill="white"/>
<path d="M66.5812 110.332L70.9857 113.667L73.081 121.566H66.5812H60.0386L62.1767 113.667L66.5812 110.332Z" fill="white"/>
</svg>
