<svg width="200" height="200" viewBox="0 0 200 200" fill="none" xmlns="http://www.w3.org/2000/svg">
<rect width="200" height="200" fill="#5BBA47"/>
<path d="M77.4972 108.053H83.5345C83.5345 108.053 83.9736 108.277 83.9736 108.501V123.658C83.9736 123.658 83.754 124.105 83.5345 124.105H77.4972C77.4972 124.105 77.0581 123.881 77.0581 123.658V108.501C77.0581 108.501 77.2776 108.053 77.4972 108.053Z" fill="white"/>
<path d="M149.561 130.649H50.4391C50.4391 130.649 50 130.873 50 131.152V137.304C50 137.304 50.2195 137.752 50.4391 137.752H149.561C149.561 137.752 150 137.528 150 137.304V131.152C150 131.152 149.78 130.649 149.561 130.649Z" fill="white"/>
<path d="M149.561 142.897H50.4391C50.4391 142.897 50 143.121 50 143.344V149.552C50 149.552 50.2195 150 50.4391 150H149.561C149.561 150 150 149.776 150 149.552V143.344C150 143.344 149.78 142.897 149.561 142.897Z" fill="white"/>
<path d="M130.735 91.2752C129.473 90.2685 126.18 87.9754 122.173 87.9754C119.264 87.9754 116.63 89.1499 114.215 91.443C114.05 91.6108 113.941 91.8345 113.941 92.0582V92.6175C113.941 92.6175 114.05 93.1208 114.215 93.2886C114.435 93.4564 114.654 93.5123 114.929 93.4564C114.983 93.4564 115.038 93.4564 115.093 93.4564C115.258 93.4005 115.477 93.2886 115.587 93.1208C116.136 92.7852 117.508 92.2819 119.539 92.2819C121.57 92.2819 125.796 92.8412 129.747 96.6443H129.857C130.077 96.9799 130.406 97.0917 130.735 97.0917C131.065 97.0917 131.394 96.9799 131.559 96.7562H131.614C135.62 92.8971 139.736 92.2819 141.822 92.2819C143.908 92.2819 145.28 92.7852 145.829 93.1208C145.993 93.2886 146.158 93.4005 146.378 93.4564C146.487 93.4564 146.707 93.5123 146.981 93.4564C147.365 93.3445 147.585 93.009 147.585 92.6175V92.1141C147.585 92.1141 147.475 91.6667 147.311 91.4989C144.896 89.1499 142.206 87.9754 139.243 87.9754C135.236 87.9754 131.943 90.2685 130.681 91.2752" fill="white"/>
<path d="M124.533 51.0066C124.533 51.0066 124.149 51.2863 124.094 51.5659L123.985 51.9015C123.985 51.9015 123.985 52.4608 124.094 52.6845C124.259 52.9082 124.479 53.02 124.698 53.02H124.808C124.973 53.02 125.137 53.02 125.302 52.9082C125.412 52.9082 125.576 52.8523 125.906 52.8523C126.345 52.8523 130.351 53.02 132.986 57.5502C133.15 57.8858 133.37 58.0536 133.644 58.1655C133.699 58.1655 133.864 58.1655 133.974 58.1655C134.138 58.1655 134.358 58.1654 134.468 58.0536H134.522C135.949 57.2706 137.486 56.8791 138.968 56.8791C141.493 56.8791 143.139 57.9417 143.469 58.3332C143.524 58.501 143.688 58.6129 143.798 58.7247C143.853 58.7247 144.018 58.8366 144.127 58.8925C144.127 58.8925 144.237 58.8925 144.292 58.8925C144.292 58.8925 144.347 58.8925 144.402 58.8925C144.566 58.8925 144.676 58.8925 144.786 58.7807C145.005 58.6688 145.17 58.501 145.225 58.2773V57.9977C145.225 57.9977 145.335 57.8299 145.335 57.774C145.335 57.6062 145.335 57.4384 145.225 57.3265C143.304 53.9149 140.505 53.1878 138.474 53.1878C136.992 53.1878 135.675 53.5793 134.907 53.859C133.974 52.6285 131.723 50.0558 128.211 50.0558C127.003 50.0558 125.741 50.3914 124.479 51.0066" fill="white"/>
<path d="M103.622 66.5547V67.0021C103.622 67.2818 103.787 67.5614 104.062 67.6733C104.281 67.7852 104.501 67.8411 104.72 67.7852C104.72 67.7852 104.83 67.7852 104.885 67.7852C105.049 67.7292 105.214 67.6174 105.324 67.4496C105.763 67.1699 107.135 66.5547 109.111 66.5547C111.087 66.5547 113.941 67.0581 116.959 69.5749H117.014C117.014 69.5749 117.508 69.9664 117.783 69.9664H117.838C118.167 69.9664 118.441 69.7986 118.606 69.5749H118.661C121.954 65.9395 125.521 65.3802 127.333 65.3802C128.65 65.3802 129.583 65.6599 129.912 65.8836C130.022 65.9954 130.242 66.1073 130.406 66.1632C130.461 66.1632 130.626 66.1632 130.79 66.1632C130.845 66.1632 130.955 66.1632 131.01 66.1632C131.394 66.0514 131.614 65.6599 131.559 65.3243V64.9328C131.559 64.9328 131.394 64.4854 131.229 64.3176C129.254 62.6397 127.113 61.7449 124.918 61.7449C121.405 61.7449 118.661 63.8702 117.508 64.8769C116.465 64.1498 113.886 62.6397 110.867 62.6397C108.233 62.6397 105.873 63.7583 103.842 65.9395C103.677 66.1073 103.622 66.331 103.622 66.6107" fill="white"/>
<path d="M53.4578 74.6647C53.4578 68.6244 58.2876 63.7027 64.2152 63.7027C64.4347 63.7027 64.6543 63.7027 64.9287 63.7027C65.4775 56.0405 71.7344 50.0003 79.4182 50.0003C87.1021 50.0003 93.9627 56.6558 93.9627 64.8213C93.9627 67.1703 93.4139 69.3515 92.4808 71.309C99.7805 72.9309 105.214 79.5305 105.214 87.4723C105.214 96.6446 97.9144 104.027 88.9682 104.027C88.3096 104.027 67.2887 103.915 67.2887 103.915C60.9221 103.915 55.7629 98.658 55.7629 92.1703C55.7629 89.0383 56.9704 86.2419 58.8914 84.1725C55.6532 82.271 53.4578 78.7475 53.4578 74.6647Z" fill="white"/>
</svg>
