<svg width="200" height="200" viewBox="0 0 200 200" fill="none" xmlns="http://www.w3.org/2000/svg">
<rect width="200" height="200" fill="#18476B"/>
<path d="M150 97.1667C150 82.7222 138.75 70.8889 124.728 70.3889C121.141 60 111.413 52.5 100 52.5C88.587 52.5 78.913 60 75.2717 70.3889C61.25 70.9444 50 82.7222 50 97.1667C50 105.722 53.9674 113.389 60.1087 118.278C59.4565 120.667 59.0761 123.167 59.0761 125.722C59.0761 140.5 70.8152 152.5 85.2717 152.5C90.7609 152.5 95.8696 150.778 100.054 147.778C104.239 150.611 109.239 152.278 114.62 152.278C129.076 152.278 140.815 140.278 140.815 125.5C140.815 122.944 140.489 120.5 139.837 118.222C145.978 113.333 149.891 105.667 149.891 97.1111M120.87 79.2222C120.87 89.9444 113.098 98.8333 102.989 100.389C102.826 99.3333 102.717 98.2222 102.717 97.1111C102.717 86.3889 110.489 77.5 120.543 75.9444C120.707 77 120.815 78.1111 120.815 79.2222M100 140.778C96.087 136.889 93.6413 131.444 93.6413 125.444C93.6413 119.444 96.0326 114.167 99.8369 110.278C103.75 114.167 106.196 119.611 106.196 125.611C106.196 131.611 103.859 136.889 100.054 140.778M79.2935 75.8889C89.3478 77.4444 97.1196 86.3333 97.1196 97.0556C97.1196 98.1667 97.0109 99.2778 96.8478 100.333C86.7391 98.8333 78.9674 89.9444 78.9674 79.1667C78.9674 78.0555 79.0761 76.9444 79.2391 75.8889M94.837 106.611C91.413 113.611 84.2935 118.444 76.1413 118.444C72.663 118.444 69.4022 117.556 66.5217 116.056C69.9457 109.056 77.0652 104.222 85.2174 104.222C88.6957 104.222 91.9565 105.111 94.837 106.611ZM104.891 106.444C107.772 104.889 111.087 104 114.565 104C122.772 104 129.891 108.889 133.315 116C130.435 117.556 127.12 118.444 123.641 118.444C115.435 118.444 108.315 113.556 104.891 106.444ZM99.8913 57.7778C108.478 57.7778 115.87 63.1111 119.076 70.6667C110.543 72.2222 103.424 77.9444 99.8913 85.7222C96.3587 77.9444 89.2391 72.2222 80.7065 70.6667C83.9674 63.1111 91.3043 57.7778 99.8913 57.7778ZM55.2174 97.0556C55.2174 86 63.4239 76.9444 73.913 75.7778C73.8043 76.8889 73.6956 78.0556 73.6956 79.2222C73.6956 87.0555 77.0109 94.1111 82.2826 99C73.587 100 66.1413 105.389 62.1739 112.944C57.9348 109 55.2174 103.389 55.2174 97.0556ZM64.2935 125.611C64.2935 124.111 64.4565 122.611 64.7283 121.167C68.1522 122.889 72.0652 123.833 76.1413 123.833C80.7065 123.833 85.0543 122.611 88.8043 120.5C88.5326 122.111 88.3696 123.722 88.3696 125.444C88.3696 132.667 91.1956 139.278 95.7609 144.111C92.663 145.944 89.0761 147.056 85.2174 147.056C73.6957 147.056 64.2935 137.444 64.2935 125.667M135.543 125.5C135.543 137.278 126.141 146.889 114.62 146.889C110.87 146.889 107.337 145.889 104.293 144.056C108.75 139.222 111.467 132.778 111.467 125.611C111.467 123.833 111.304 122.167 110.978 120.5C114.728 122.611 119.076 123.833 123.696 123.833C127.826 123.833 131.685 122.889 135.109 121.167C135.38 122.556 135.543 124 135.543 125.444M117.772 98.8333C122.935 93.9444 126.196 86.9444 126.196 79.1667C126.196 78 126.141 76.8889 125.978 75.7222C136.467 76.8889 144.674 86 144.674 97C144.674 103.278 142.011 108.889 137.772 112.833C133.804 105.278 126.413 99.8889 117.772 98.7778" fill="white"/>
</svg>
