<svg width="200" height="200" viewBox="0 0 200 200" fill="none" xmlns="http://www.w3.org/2000/svg">
<rect width="200" height="200" fill="#44824B"/>
<path d="M166.948 100.54C162.216 93.9165 140.921 67.5 101.25 67.5C61.5789 67.5 40.2842 93.9165 35.5521 100.54C35.3155 100.856 35.1577 101.092 35 101.25C35.1577 101.487 35.3155 101.723 35.5521 101.96C40.2842 108.584 61.5789 135 101.25 135C140.921 135 162.216 108.584 166.948 101.96C167.185 101.644 167.342 101.408 167.5 101.25C167.342 101.013 167.185 100.777 166.948 100.54ZM79.0878 84.2173C79.4821 83.6653 80.6652 82.1671 80.7441 82.0093C81.0595 81.6151 81.6905 81.5362 82.0848 81.4574C82.4792 81.3785 83.0313 81.6151 83.1101 81.9305C83.1101 82.2459 82.9524 83.5076 82.7158 83.6653C82.1637 84.2961 80.5863 85.0847 79.7976 85.0058C79.1667 84.927 78.9301 84.375 79.0089 84.2173M77.5893 87.0561C77.5893 87.0561 77.6682 86.8984 77.747 86.8984C78.2202 86.3464 79.2455 86.1887 79.9554 86.1098C80.6652 86.031 81.5327 86.3464 81.6905 86.8195C81.8482 87.2926 79.9554 88.0812 79.6399 88.3966C78.6935 89.264 77.1949 91.0777 76.3274 91.2354C76.0119 91.2354 75.7753 91.2354 75.6176 91.1565C76.1697 89.7372 76.8795 88.3178 77.6682 87.0561M92.4955 117.494C91.9435 119.623 91.3125 120.333 90.7604 121.043C90.2083 121.752 88.2366 122.541 86.9747 122.462C85.7128 122.383 85.5551 118.992 85.5551 117.258C85.5551 116.627 84.6875 118.44 84.2932 114.813C83.9777 112.526 82.558 115.05 82.4003 113.551C82.3214 112.053 81.5327 112.29 80.7441 111.343C79.9554 110.397 79.0089 111.422 77.9048 111.895C76.8006 112.369 77.2738 112.605 75.7753 112.132C75.7753 112.132 75.7753 112.132 75.6964 112.132C74.2768 108.82 73.567 105.193 73.567 101.408C73.567 100.461 73.567 99.594 73.7247 98.6478C73.7247 98.5689 73.8036 98.4901 73.8824 98.4112C75.3021 96.6764 75.3021 96.2821 75.3021 96.2821L76.8795 95.7301C76.8795 95.7301 79.4821 96.1244 81.375 96.8341C82.9524 97.465 85.4762 98.8055 86.9747 98.1746C88 97.7804 88.8676 97.1495 88.7887 96.2821C88.631 95.1782 87.8423 94.9416 86.7381 95.6513C86.3438 95.8878 85.5551 93.9953 84.8452 94.0742C84.2143 94.153 85.6339 96.361 85.0819 96.4398C84.5298 96.5187 83.4256 94.153 83.189 93.7588C83.0312 93.3645 82.1637 92.4182 81.375 93.1279C79.7188 94.705 77.1161 94.5473 76.564 94.9416C74.9866 96.1244 74.5134 94.5473 74.5923 93.601C74.5923 93.3645 74.75 93.1279 74.75 92.8914C75.3021 92.3394 77.1949 92.1028 77.8259 92.5759C78.5357 93.0491 79.0878 92.4182 79.3244 92.1817C79.6399 91.8662 79.4821 91.3931 79.3244 91.0777C79.1667 90.6834 79.7188 90.4468 80.0342 90.2891C80.4286 90.2103 81.6116 89.3429 82.1637 89.0275C82.6369 88.712 85.2396 88.3966 86.3438 89.0275C87.4479 89.6583 88.5521 89.1063 89.1042 88.4755C89.814 87.6081 90.6815 86.9772 91.0759 86.8195C91.4702 86.6618 90.1295 85.3213 88.9464 86.8195C87.8423 88.2389 87.2113 88.3178 86.6592 88.3178C86.1071 88.3178 82.9524 87.5292 82.558 86.5041C82.1637 85.479 83.5833 84.7693 84.7664 84.2173C85.9494 83.6653 89.183 83.6653 89.9717 83.5076C91.628 83.1133 93.7574 82.3248 94.8616 83.0345C95.9658 83.7442 90.3661 85.0058 92.1801 86.031C92.811 86.3464 95.808 84.375 96.7545 83.823C99.1205 82.5613 94.4673 82.1671 95.0193 79.7225C95.7292 76.8838 89.2619 77.9877 86.1072 78.2243C90.3661 75.4644 95.4926 73.8873 101.013 73.8873C114.027 73.8873 124.99 82.9556 127.908 95.0204C127.908 95.6513 127.908 96.0456 127.75 96.2821C127.513 97.3072 125.621 98.0958 124.516 96.5187C124.201 96.1244 123.097 95.0204 123.097 96.913C123.097 98.8055 124.99 99.0421 123.176 100.146C121.44 101.329 121.046 101.013 120.257 101.329C119.469 101.644 118.68 103.616 118.838 104.641C118.996 105.666 121.519 108.584 119.705 108.426C119.311 108.426 115.999 106.139 115.446 104.72C114.894 103.221 114.263 101.723 113.79 100.54C113.317 99.3575 112.213 99.1209 111.188 99.7517C110.241 100.461 111.503 101.092 110.793 102.512C110.083 103.931 109.61 105.193 108.506 104.01C105.824 100.935 101.881 102.433 101.25 99.0421C100.935 97.1495 99.2783 97.3861 97.9375 96.2821C96.5967 95.257 95.808 94.6262 95.5714 95.4147C95.3348 96.0456 99.8304 99.594 100.146 100.461C100.619 101.802 98.8051 102.985 97.5432 103.3C96.2024 103.616 95.6503 102.591 94.3884 101.25C93.1265 99.9095 92.5744 98.9632 92.4955 99.9883C92.3378 101.487 93.6786 103.773 95.0193 104.562C96.1235 105.272 97.3854 105.587 96.9911 106.77C96.5967 107.953 96.9911 107.243 95.7292 108.505C94.4673 109.766 94.2307 110.161 94.3095 111.895C94.3884 113.63 93.9941 113.709 93.6786 115.129C93.442 116.548 92.811 115.286 92.2589 117.415M121.914 106.376C122.86 106.376 124.28 107.558 123.728 108.11C123.176 108.584 121.835 108.426 121.125 107.874C120.415 107.322 121.598 106.454 121.993 106.376M120.81 105.508C120.81 105.508 120.257 105.114 120.021 104.404C119.784 103.695 120.336 103.3 120.888 103.616C121.44 103.931 122.229 104.72 122.229 105.193C122.229 105.666 121.125 105.587 120.81 105.429M108.585 105.429C108.033 105.902 106.613 105.745 105.982 105.193C105.272 104.641 106.455 103.773 106.85 103.695C107.796 103.616 109.216 104.877 108.664 105.429M97.3854 110.949C96.9911 111.58 95.9658 116.232 95.256 115.68C94.5461 115.128 95.4926 110.318 95.7292 109.924C96.8333 107.953 99.1994 108.032 97.3854 110.949ZM101.171 128.928C98.4896 128.928 95.8869 128.534 93.442 127.824C93.1265 127.509 92.8899 127.036 93.1265 126.484C93.994 124.276 96.5179 123.408 98.5685 123.172C103.064 122.777 108.979 126.089 109.847 125.537C110.793 124.985 112.686 122.541 115.446 122.62C117.339 122.62 117.339 123.014 117.97 123.251C113.317 126.799 107.56 128.928 101.25 128.928M120.731 120.885C120.731 120.885 120.179 120.727 119.863 120.57C118.365 119.781 118.522 121.043 117.813 120.727C117.024 120.412 118.68 118.756 116.393 120.175C114.185 121.595 114.737 119.939 113.79 117.494C112.844 115.05 114.894 112.211 116.629 111.58C118.996 110.713 120.494 110.555 121.677 110.239C124.99 109.451 125.699 107.48 126.33 108.662C126.488 108.899 126.567 109.136 126.646 109.293C126.804 109.609 127.04 110.397 127.04 111.107C125.621 114.813 123.491 118.125 120.731 120.885ZM128.302 106.928C127.592 106.691 124.438 102.433 126.882 99.594C127.277 99.1209 126.015 97.7804 126.409 97.7015C127.75 97.6227 128.46 98.4112 128.775 99.594C128.775 100.146 128.775 100.698 128.775 101.171C128.775 103.143 128.618 104.956 128.223 106.849" fill="white"/>
</svg>
