<svg width="200" height="200" viewBox="0 0 200 200" fill="none" xmlns="http://www.w3.org/2000/svg">
<rect width="200" height="200" fill="#27BDE3"/>
<path d="M129.824 60.2136C129.824 60.2136 129.516 60 129.296 60H70.6766C70.6766 60 70.2806 60.0854 70.1485 60.2136C70.0165 60.3844 69.9725 60.5553 70.0165 60.7688L79.8744 118.558C79.9184 118.857 80.2265 119.114 80.5345 119.114H92.5928L93.429 128.51H88.368L100.206 140L112.089 128.468H106.984L107.82 119.071H120.142C120.494 119.071 120.758 118.857 120.802 118.516L130 60.7261C130 60.7261 130 60.3417 129.824 60.1708M107.16 106.428C107.16 106.428 104.519 109.076 100.162 108.777C95.8054 109.076 93.1649 106.428 93.1649 106.428C88.7641 102.157 90.3484 96.8607 91.8887 94.1271C92.8129 92.4186 99.5902 82.5948 100.162 81.7405C100.734 82.5948 107.468 92.4186 108.436 94.1271C109.976 96.8607 111.516 102.157 107.116 106.428M125.731 72.3011C124.147 71.6177 122.122 71.874 120.186 72.6428C112.925 75.5045 107.952 76.5296 100.294 74.2232C95.4974 72.771 90.9645 69.6957 85.6395 71.575C82.1188 72.8137 78.8182 73.9669 74.8134 73.9669L72.525 62.4773H127.359L125.687 72.3438L125.731 72.3011Z" fill="white"/>
</svg>
