<svg width="200" height="200" viewBox="0 0 200 200" fill="none" xmlns="http://www.w3.org/2000/svg">
<rect width="200" height="200" fill="#F79E29"/>
<path d="M34.2027 122.332H63.755C63.755 122.332 64.4503 121.983 64.4503 121.634C64.4503 121.46 64.4503 121.285 64.2765 121.198L49.5873 102.088L49.4134 101.913C49.4134 101.913 49.0657 101.652 48.8919 101.652C48.7181 101.652 48.5442 101.652 48.4573 101.826H48.3704L48.1966 102.088L33.855 121.024L33.6812 121.285C33.6812 121.285 33.5942 121.547 33.5942 121.722C33.5942 122.158 33.9419 122.42 34.2896 122.42" fill="white"/>
<path d="M63.668 125.041H34.0287C34.0287 125.041 33.3334 125.39 33.3334 125.739V149.038C33.3334 149.038 33.681 149.736 34.0287 149.736H43.5898V135.076C43.5898 135.076 43.9374 134.378 44.2851 134.378H53.1508C53.1508 134.378 53.8462 134.727 53.8462 135.076V149.736H63.668C63.668 149.736 64.3633 149.387 64.3633 149.038V125.739C64.3633 125.739 64.0156 125.041 63.668 125.041Z" fill="white"/>
<path d="M165.972 118.935H136.68C136.68 118.935 135.985 119.197 135.985 119.633V149.302C135.985 149.302 136.332 150 136.68 150H165.972C165.972 150 166.667 149.651 166.667 149.302V119.633C166.667 119.633 166.319 118.935 165.972 118.935ZM149.892 138.307C149.892 138.307 149.544 139.005 149.196 139.005H140.417C140.417 139.005 139.722 138.656 139.722 138.307V132.984C139.722 132.984 140.07 132.286 140.417 132.286H149.196C149.196 132.286 149.892 132.635 149.892 132.984V138.307ZM149.892 128.446C149.892 128.446 149.544 129.145 149.196 129.145H140.417C140.417 129.145 139.722 128.796 139.722 128.446V123.124C139.722 123.124 140.07 122.425 140.417 122.425H149.196C149.196 122.425 149.892 122.775 149.892 123.124V128.446ZM163.277 138.307C163.277 138.307 162.929 139.005 162.582 139.005H153.803C153.803 139.005 153.108 138.656 153.108 138.307V132.984C153.108 132.984 153.455 132.286 153.803 132.286H162.582C162.582 132.286 163.277 132.635 163.277 132.984V138.307ZM163.277 128.446C163.277 128.446 162.929 129.145 162.582 129.145H153.803C153.803 129.145 153.108 128.796 153.108 128.446V123.124C153.108 123.124 153.455 122.425 153.803 122.425H162.582C162.582 122.425 163.277 122.775 163.277 123.124V128.446Z" fill="white"/>
<path d="M97.827 50H69.1438C69.1438 50 68.4485 50.349 68.4485 50.6981V149.128C68.4485 149.128 68.7962 149.827 69.1438 149.827H97.827C97.827 149.827 98.5223 149.477 98.5223 149.128V50.6981C98.5223 50.6981 98.1746 50 97.827 50ZM80.7909 138.57C80.7909 138.57 80.6171 138.919 80.4432 138.919H73.8374C73.8374 138.919 73.4898 138.744 73.4898 138.57V131.24C73.4898 131.24 73.6636 130.891 73.8374 130.891H80.4432C80.4432 130.891 80.7909 131.065 80.7909 131.24V138.57ZM80.7909 121.728C80.7909 121.728 80.6171 122.078 80.4432 122.078H73.8374C73.8374 122.078 73.4898 121.903 73.4898 121.728V114.399C73.4898 114.399 73.6636 114.05 73.8374 114.05H80.4432C80.4432 114.05 80.7909 114.224 80.7909 114.399V121.728ZM80.7909 104.887C80.7909 104.887 80.6171 105.236 80.4432 105.236H73.8374C73.8374 105.236 73.4898 105.062 73.4898 104.887V97.5572C73.4898 97.5572 73.6636 97.2082 73.8374 97.2082H80.4432C80.4432 97.2082 80.7909 97.3827 80.7909 97.5572V104.887ZM80.7909 88.0458C80.7909 88.0458 80.6171 88.3948 80.4432 88.3948H73.8374C73.8374 88.3948 73.4898 88.2203 73.4898 88.0458V80.7159C73.4898 80.7159 73.6636 80.3668 73.8374 80.3668H80.4432C80.4432 80.3668 80.7909 80.5413 80.7909 80.7159V88.0458ZM80.7909 71.2044C80.7909 71.2044 80.6171 71.5535 80.4432 71.5535H73.8374C73.8374 71.5535 73.4898 71.3789 73.4898 71.2044V63.8745C73.4898 63.8745 73.6636 63.5254 73.8374 63.5254H80.4432C80.4432 63.5254 80.7909 63.7 80.7909 63.8745V71.2044ZM93.6549 138.657C93.6549 138.657 93.481 139.006 93.3072 139.006H86.7014C86.7014 139.006 86.3537 138.832 86.3537 138.657V131.327C86.3537 131.327 86.5276 130.978 86.7014 130.978H93.3072C93.3072 130.978 93.6549 131.153 93.6549 131.327V138.657ZM93.6549 121.816C93.6549 121.816 93.481 122.165 93.3072 122.165H86.7014C86.7014 122.165 86.3537 121.99 86.3537 121.816V114.486C86.3537 114.486 86.5276 114.137 86.7014 114.137H93.3072C93.3072 114.137 93.6549 114.311 93.6549 114.486V121.816ZM93.6549 104.974C93.6549 104.974 93.481 105.323 93.3072 105.323H86.7014C86.7014 105.323 86.3537 105.149 86.3537 104.974V97.6445C86.3537 97.6445 86.5276 97.2954 86.7014 97.2954H93.3072C93.3072 97.2954 93.6549 97.47 93.6549 97.6445V104.974ZM93.6549 88.133C93.6549 88.133 93.481 88.4821 93.3072 88.4821H86.7014C86.7014 88.4821 86.3537 88.3076 86.3537 88.133V80.8031C86.3537 80.8031 86.5276 80.4541 86.7014 80.4541H93.3072C93.3072 80.4541 93.6549 80.6286 93.6549 80.8031V88.133ZM93.6549 71.2917C93.6549 71.2917 93.481 71.6407 93.3072 71.6407H86.7014C86.7014 71.6407 86.3537 71.4662 86.3537 71.2917V63.9618C86.3537 63.9618 86.5276 63.6127 86.7014 63.6127H93.3072C93.3072 63.6127 93.6549 63.7872 93.6549 63.9618V71.2917Z" fill="white"/>
<path d="M136.593 109.423H166.058C166.058 109.423 166.667 109.685 166.667 110.034V115.968C166.667 115.968 166.406 116.578 166.058 116.578H136.506C136.506 116.578 135.898 116.317 135.898 115.968V110.034C135.898 110.034 136.158 109.423 136.506 109.423H136.593Z" fill="white"/>
<path d="M132.507 68.5883C132.507 68.5883 132.159 68.0647 131.812 68.0647C131.638 68.0647 131.551 68.0647 131.377 68.2392L131.116 68.5883L102.955 104.453V104.627C102.955 104.627 102.607 104.976 102.607 105.238V149.305C102.607 149.305 102.955 150.003 103.303 150.003H131.986C131.986 150.003 132.681 149.654 132.681 149.305V68.9373C132.681 68.9373 132.681 68.7628 132.681 68.6755M120.773 88.1347L120.947 87.8729C122.859 85.3424 126.162 81.3284 127.727 79.4086L127.9 79.1468C127.9 79.1468 128.248 78.8851 128.509 78.8851C128.943 78.8851 129.204 79.1468 129.291 79.4959V88.571C129.291 88.571 128.943 89.3564 128.509 89.3564H121.469C121.034 89.3564 120.686 89.0073 120.686 88.571C120.686 88.3965 120.686 88.222 120.86 88.1347M116.427 138.397C116.427 138.397 116.08 139.095 115.732 139.095H107.214C107.214 139.095 106.519 138.746 106.519 138.397V132.987C106.519 132.987 106.866 132.289 107.214 132.289H115.732C115.732 132.289 116.427 132.638 116.427 132.987V138.397ZM116.427 128.449C116.427 128.449 116.08 129.147 115.732 129.147H107.214C107.214 129.147 106.519 128.798 106.519 128.449V123.039C106.519 123.039 106.866 122.341 107.214 122.341H115.732C115.732 122.341 116.427 122.69 116.427 123.039V128.449ZM116.427 118.502C116.427 118.502 116.08 119.2 115.732 119.2H107.214C107.214 119.2 106.519 118.851 106.519 118.502V113.091C106.519 113.091 106.866 112.393 107.214 112.393H115.732C115.732 112.393 116.427 112.742 116.427 113.091V118.502ZM116.427 96.7735V108.641C116.427 108.641 116.08 109.339 115.732 109.339H107.214C107.214 109.339 106.519 108.99 106.519 108.641V107.245C106.519 107.245 106.519 106.983 106.519 106.896C106.519 106.896 106.519 106.896 106.519 106.809C106.519 106.809 106.519 106.809 106.519 106.721C107.648 105.151 112.516 99.0423 114.602 96.5118L114.776 96.25C114.776 96.25 115.123 95.9882 115.384 95.9882C115.819 95.9882 116.08 96.25 116.166 96.599V96.9481L116.427 96.7735ZM129.465 138.397C129.465 138.397 129.117 139.095 128.77 139.095H120.252C120.252 139.095 119.556 138.746 119.556 138.397V132.987C119.556 132.987 119.904 132.289 120.252 132.289H128.77C128.77 132.289 129.465 132.638 129.465 132.987V138.397ZM129.465 128.449C129.465 128.449 129.117 129.147 128.77 129.147H120.252C120.252 129.147 119.556 128.798 119.556 128.449V123.039C119.556 123.039 119.904 122.341 120.252 122.341H128.77C128.77 122.341 129.465 122.69 129.465 123.039V128.449ZM129.465 118.502C129.465 118.502 129.117 119.2 128.77 119.2H120.252C120.252 119.2 119.556 118.851 119.556 118.502V113.091C119.556 113.091 119.904 112.393 120.252 112.393H128.77C128.77 112.393 129.465 112.742 129.465 113.091V118.502ZM129.465 108.554C129.465 108.554 129.117 109.252 128.77 109.252H120.252C120.252 109.252 119.556 108.903 119.556 108.554V103.144C119.556 103.144 119.904 102.446 120.252 102.446H128.77C128.77 102.446 129.465 102.795 129.465 103.144V108.554ZM129.465 98.606C129.465 98.606 129.117 99.3041 128.77 99.3041H120.252C120.252 99.3041 119.556 98.9551 119.556 98.606V93.2831C119.556 93.2831 119.904 92.585 120.252 92.585H128.77C128.77 92.585 129.465 92.9341 129.465 93.2831V98.606Z" fill="white"/>
</svg>
