<svg width="200" height="200" viewBox="0 0 200 200" fill="none" xmlns="http://www.w3.org/2000/svg">
<rect width="200" height="200" fill="#1E95D3"/>
<path d="M149.95 118.077C147.612 115.12 132.587 96.9998 111.493 96.9998C93.1841 96.9998 73.5821 112.679 73.5821 112.679C73.5821 112.679 66.2189 98.4551 51.1443 97.0937C51.0448 97.0937 50.9453 97.0937 50.8458 97.0937H50.7463C50.4478 97.0937 50.1493 97.4223 50.199 97.657C50.199 97.8918 50.4478 98.1734 50.4478 98.1734C52.3881 101.225 57.3135 109.862 57.3135 118.5C57.3135 127.138 52.3383 135.822 50.398 138.873L50.2488 139.061C50.2488 139.061 50.1493 139.249 50.1493 139.343C50.1493 139.624 50.398 139.859 50.6966 139.906H50.8458C50.8458 139.906 50.9453 139.906 50.9951 139.906C66.1194 138.592 73.4826 124.321 73.4826 124.321C73.4826 124.321 93.0846 140 111.393 140C132.488 140 147.512 121.88 149.851 118.922C149.901 118.829 149.95 118.782 150 118.735C150 118.688 150 118.594 150 118.5C150 118.406 150 118.359 150 118.265C150 118.218 149.901 118.124 149.851 118.077M123.134 120.8C119.751 120.8 116.965 118.218 116.965 114.979C116.965 111.74 119.751 109.158 123.134 109.158C126.517 109.158 129.304 111.74 129.304 114.979C129.304 118.218 126.567 120.8 123.134 120.8Z" fill="white"/>
<path d="M50.6965 63.0044H50.597C50.2488 63.0044 50 63.286 50 63.5677V67.5109C50 67.5109 50.0498 67.8395 50.199 67.9334C60.398 76.2894 70 68.4498 72.2388 66.3843C72.2388 66.3374 72.3383 66.2435 72.3881 66.2435C72.4876 66.1965 72.5871 66.1496 72.7363 66.1496C72.8856 66.1496 73.0348 66.1965 73.1343 66.2904C84.6269 76.6649 96.7164 68.262 99.204 66.2904L99.4527 66.1026C99.4527 66.1026 99.602 66.1026 99.7015 66.1026C99.801 66.1026 99.9005 66.1026 99.9502 66.1026L100.199 66.2904C102.687 68.262 114.776 76.6649 126.269 66.2904C126.368 66.1965 126.517 66.1496 126.667 66.1496C126.816 66.1496 126.915 66.1496 127.015 66.2435C127.065 66.2435 127.114 66.3374 127.164 66.3843C129.403 68.4498 139.005 76.2894 149.204 67.9334C149.303 67.8395 149.403 67.6987 149.403 67.5109V63.5677C149.403 63.2391 149.154 63.0044 148.806 63.0044C148.806 63.0044 148.706 63.0044 148.657 63.0044C148.557 63.0513 148.458 63.0983 148.358 63.1452C145.224 64.6474 135.522 68.1682 126.716 60.2817C126.617 60.1878 126.567 60.1408 126.468 60.0469C126.368 60.0469 126.318 60 126.219 60C126.169 60 126.07 60 126.02 60C125.871 60.0469 125.771 60.1408 125.721 60.2347C123.085 62.1125 111.045 69.8112 100.299 60.3755L100.149 60.2347C100.149 60.2347 99.9005 60.0469 99.7015 60.0469C99.5522 60.0469 99.403 60.1408 99.3035 60.2347L99.1542 60.3755C88.408 69.8112 76.3184 62.1125 73.7313 60.2347C73.6816 60.1408 73.5821 60.0469 73.4328 60C73.3831 60 73.2836 60 73.2338 60C73.1343 60 73.0846 60 72.9851 60.0469C72.9353 60.1408 72.8358 60.1878 72.7363 60.2817C63.9303 68.1682 54.2289 64.6474 51.0945 63.1452C50.995 63.0983 50.8955 63.0513 50.796 63.0044" fill="white"/>
<path d="M72.189 80.7998C72.189 80.7998 72.2885 80.7059 72.3383 80.6589C72.4378 80.612 72.5373 80.565 72.6866 80.565C72.8358 80.565 72.9851 80.612 73.0846 80.7528C84.5771 91.0804 96.6667 82.7244 99.1542 80.7528L99.403 80.5181C99.403 80.5181 99.5522 80.5181 99.6517 80.5181C99.7512 80.5181 99.801 80.5181 99.9005 80.5181L100.149 80.7528C102.637 82.7244 114.726 91.0804 126.219 80.7528C126.318 80.6589 126.468 80.565 126.617 80.565C126.766 80.565 126.866 80.612 126.965 80.6589C127.065 80.6589 127.065 80.7528 127.164 80.7998C129.403 82.8653 139.005 90.7048 149.204 82.3489C149.303 82.255 149.403 82.1142 149.403 81.9264V77.9362C149.403 77.6076 149.154 77.3729 148.806 77.3729C148.806 77.3729 148.706 77.3729 148.657 77.3729C148.557 77.3729 148.458 77.4668 148.358 77.5137C145.224 79.0159 135.522 82.4897 126.716 74.6502C126.617 74.5563 126.567 74.5093 126.468 74.4154C126.368 74.4154 126.318 74.3685 126.219 74.3685C126.169 74.3685 126.119 74.3685 126.02 74.3685C125.871 74.3685 125.771 74.4624 125.721 74.6032C123.085 76.481 111.045 84.1797 100.298 74.744L100.149 74.6032C100.149 74.6032 99.9005 74.4624 99.7015 74.4624C99.5522 74.4624 99.403 74.5093 99.3035 74.6032L99.1542 74.744C88.408 84.1797 76.3681 76.481 73.7313 74.6032C73.6816 74.5093 73.5323 74.4154 73.4328 74.3685C73.3831 74.3685 73.2836 74.3685 73.2338 74.3685C73.1343 74.3685 73.0846 74.3685 72.9851 74.4154C72.8856 74.5093 72.8358 74.5563 72.7363 74.6502C63.9303 82.5367 54.2288 79.0159 51.0945 77.5137C50.995 77.4668 50.8955 77.4198 50.796 77.3729H50.6965C50.3482 77.3729 50.0995 77.6076 50.0995 77.9362V81.9264C50.0995 81.9264 50.1492 82.2081 50.2985 82.3489C60.4975 90.7048 70.0995 82.8653 72.3383 80.7998" fill="white"/>
</svg>
