<svg width="200" height="200" viewBox="0 0 200 200" fill="none" xmlns="http://www.w3.org/2000/svg">
<rect width="200" height="200" fill="#A21C43"/>
<path d="M140.394 74.8759L119.25 94.838C118.454 95.6275 118.056 96.1914 118.056 97.8267V153.766C118.056 154.442 118.625 154.95 119.25 154.95H141.076C141.758 154.95 142.27 154.386 142.27 153.766V75.3271C142.27 74.6504 141.758 73.4662 140.394 74.8195" fill="white"/>
<path d="M79.462 100.865L58.3177 120.827C57.5219 121.616 57.124 122.18 57.124 123.816V153.759C57.124 154.435 57.6924 154.943 58.3177 154.943H80.2009C80.883 154.943 81.3946 154.379 81.3946 153.759V101.316C81.3946 100.639 80.883 99.4552 79.5189 100.809" fill="white"/>
<path d="M150 50.6203C150 50.6203 150 50.282 149.829 50.1692C149.716 50.0564 149.602 50 149.432 50H149.318H149.147L132.948 53.609H132.664C132.664 53.609 132.437 53.7217 132.323 53.7781C132.095 54.0037 132.095 54.3984 132.323 54.624L132.493 54.7932L136.188 58.4585L99.4695 94.8865L82.5313 78.0822C82.5313 78.0822 82.0197 77.9131 81.8492 78.0822L77.2452 82.6498L50.0758 109.604C50.0758 109.604 49.9053 110.112 50.0758 110.281L54.6798 114.849C54.6798 114.849 55.1914 115.018 55.3619 114.849L82.1902 88.2324L94.4676 100.469C94.4676 100.469 94.4676 100.469 94.4676 100.525L99.0716 105.093C99.0716 105.093 99.5832 105.262 99.7537 105.093L141.417 63.7592L145.282 67.5937C145.282 67.5937 145.908 67.8192 146.135 67.5937C146.249 67.4809 146.305 67.3681 146.305 67.199L149.886 50.7331V50.5639L150 50.6203Z" fill="white"/>
<path d="M110.042 104.362L99.8106 114.625C99.8106 114.625 99.3558 114.794 99.1285 114.625L89.8636 105.264C88.1584 103.572 87.8174 104.926 87.8174 105.602V153.816C87.8174 154.492 88.3289 155 89.011 155H110.894C111.576 155 112.088 154.436 112.088 153.816V104.813C112.088 104.136 111.576 102.952 110.042 104.418" fill="white"/>
</svg>
