<svg width="200" height="200" viewBox="0 0 200 200" fill="none" xmlns="http://www.w3.org/2000/svg">
<rect width="200" height="200" fill="#F36A2C"/>
<path d="M149.205 105.55L125.794 92.1838V65.3983C125.794 64.8217 125.477 64.2975 125 64.0354L100.794 50.1971C100.318 49.9351 99.6822 49.9351 99.2055 50.1971L75 64.0354C74.5233 64.2975 74.2055 64.8217 74.2055 65.3983V92.1838L50.7945 105.55C50.3178 105.812 50 106.337 50 106.913V134.59C50 135.166 50.3178 135.691 50.7945 135.953L75 149.791C75 149.791 75.5297 150.001 75.7945 150.001C76.0593 150.001 76.3242 149.948 76.589 149.791L100 136.424L123.411 149.791C123.411 149.791 123.941 150.001 124.205 150.001C124.47 150.001 124.735 149.948 125 149.791L149.205 135.953C149.682 135.691 150 135.166 150 134.59V106.913C150 106.337 149.682 105.812 149.205 105.55ZM98.358 131.864L78.9195 120.751L98.358 109.639V131.864ZM120.975 93.0749L101.536 104.187V82.0147L120.975 93.1273V93.0749ZM98.358 104.187L78.9195 93.0749L98.358 81.9623V104.135V104.187ZM103.125 106.913L124.153 94.9095L145.18 106.913L124.153 118.917L103.125 106.913ZM122.564 90.3492L103.125 79.2366L122.564 68.124V90.3492ZM96.7691 79.2366L77.3305 90.3492V68.124L96.7691 79.2366ZM74.1525 145.702L53.125 133.699V109.691L74.1525 121.695V145.702ZM77.3305 145.702V123.53L96.7691 134.642L77.3305 145.755V145.702ZM146.769 133.699L125.742 145.702V121.695L146.769 109.691V133.699Z" fill="white"/>
</svg>
