<svg width="200" height="200" viewBox="0 0 200 200" fill="none" xmlns="http://www.w3.org/2000/svg">
<rect width="200" height="200" fill="#F04E3A"/>
<path d="M139.555 47.5H114.432C114.432 47.5 114.076 47.6737 114.076 47.8474V56.0112C114.076 56.0112 114.254 56.3586 114.432 56.3586H124.41L113.274 67.2146C107.662 62.9591 100.624 60.3536 92.9624 60.3536C74.7887 60.3536 60.0002 74.7705 60.0002 92.4876C60.0002 108.815 72.4724 122.277 88.6862 124.274V133.654H78.7976C78.7976 133.654 78.4412 133.828 78.4412 134.001V142.773C78.4412 142.773 78.6194 143.033 78.7976 143.033H88.6862V152.239C88.6862 152.239 88.8644 152.5 89.0426 152.5H98.0403C98.0403 152.5 98.3967 152.326 98.3967 152.239V143.033H108.285C108.285 143.033 108.642 142.86 108.642 142.773V134.001C108.642 134.001 108.463 133.654 108.285 133.654H98.3967V124.1C113.987 121.582 126.014 108.381 126.014 92.4007C126.014 85.5397 123.786 79.1998 119.956 73.9888L130.913 63.3064V72.4256C130.913 72.4256 131.092 72.773 131.27 72.773H139.644C139.644 72.773 140 72.5993 140 72.4256V47.9342C140 47.9342 139.822 47.5869 139.644 47.5869M93.1406 116.024C79.7775 116.024 68.9089 105.428 68.9089 92.4007C68.9089 79.3734 79.7775 68.7779 93.1406 68.7779C106.504 68.7779 117.372 79.3734 117.372 92.4007C117.372 105.428 106.504 116.024 93.1406 116.024Z" fill="white"/>
<path d="M107.751 82.6715H78.3522C78.3522 82.6715 77.9958 82.8452 77.9958 82.9321V89.88C77.9958 89.88 78.174 90.1405 78.3522 90.1405H107.751C107.751 90.1405 108.107 90.0537 108.107 89.88V82.9321C108.107 82.9321 107.929 82.6715 107.751 82.6715Z" fill="white"/>
<path d="M107.751 95.0053H78.3522C78.3522 95.0053 77.9958 95.179 77.9958 95.2658V102.214C77.9958 102.214 78.174 102.474 78.3522 102.474H107.751C107.751 102.474 108.107 102.387 108.107 102.214V95.2658C108.107 95.2658 107.929 95.0053 107.751 95.0053Z" fill="white"/>
</svg>
