<svg width="200" height="200" viewBox="0 0 200 200" fill="none" xmlns="http://www.w3.org/2000/svg">
<rect width="200" height="200" fill="#C4202E"/>
<path d="M86.4479 83.05L54.3533 63.1922V127.471L86.4479 137.866V83.05Z" fill="white"/>
<path d="M89.9709 83.2051V137.866L122.307 127.471V63.1922L89.9709 83.2051Z" fill="white"/>
<path d="M147.5 61.5853C147.5 59.3617 145.811 57.5 143.687 57.5C141.564 57.5 139.875 59.31 139.875 61.5853V65.9809H147.452V61.5853H147.5Z" fill="white"/>
<path d="M140.84 126.335H139.923L143.736 140.556L147.5 126.335H146.583H147.5V69.14H146.583H145.618H144.604H142.722H141.805H140.84H139.923V126.335H140.84Z" fill="white"/>
<path d="M129.208 65.9308L125.734 63.0349V129.176L90.0676 141.535H88.4266H88.0888H86.4479L50.9266 130.934V63.0349L47.5 65.9308V133.52L86.3031 145H88.0888H88.4266H90.2124L126.023 132.847L129.208 131.865V65.9308Z" fill="white"/>
</svg>
