<svg width="200" height="200" viewBox="0 0 200 200" fill="none" xmlns="http://www.w3.org/2000/svg">
<rect width="200" height="200" fill="#53A246"/>
<path d="M166.666 102.628C166.666 97.0252 163.077 92.4727 157.649 92.4727C154.935 92.4727 151.696 95.4493 149.858 97.2878C148.107 95.4493 145.042 92.4727 142.329 92.4727C136.901 92.4727 133.049 97.0252 133.049 102.628C133.049 105.43 134.187 107.968 135.938 109.807L149.858 123.727L163.777 109.807C165.528 107.968 166.666 105.43 166.666 102.628Z" fill="white"/>
<path d="M107.31 146.483C107.31 146.483 107.223 146.483 107.135 146.483C106.084 146.483 105.209 145.607 105.034 144.557L97.9426 103.322L87.262 123.196C86.8242 124.071 85.7737 124.509 84.8107 124.334C83.8476 124.159 83.0597 123.371 82.9722 122.408L78.4198 90.6282L70.1028 109.363C69.7526 110.151 68.8772 110.676 68.0017 110.676H35.6095C34.3838 110.676 33.3333 109.626 33.3333 108.4C33.3333 107.175 34.3838 106.124 35.6095 106.124H66.5134L77.4567 81.5233C77.8945 80.5603 78.8575 80.0351 79.908 80.2101C80.8711 80.3852 81.7465 81.1732 81.8341 82.1362L86.5616 114.966L97.1547 95.3557C97.5925 94.4802 98.5555 94.0425 99.5185 94.2176C100.481 94.3927 101.269 95.0931 101.445 96.0561L108.011 134.226L131.911 54.9092C132.173 54.0337 132.961 53.3333 133.924 53.3333C134.887 53.3333 135.763 53.7711 136.201 54.6465L148.807 80.7354C149.333 81.8735 148.807 83.2743 147.757 83.7996C146.619 84.3248 145.218 83.7996 144.693 82.749L134.712 62.0005L109.674 144.995C109.411 145.958 108.448 146.658 107.485 146.658" fill="white"/>
</svg>
