<svg width="200" height="200" viewBox="0 0 200 200" fill="none" xmlns="http://www.w3.org/2000/svg">
<rect width="200" height="200" fill="#FBC311"/>
<path d="M99.9999 71.4849C84.1449 71.4849 71.2661 84.3637 71.2661 100.219C71.2661 116.074 84.1449 128.952 99.9999 128.952C115.855 128.952 128.734 116.074 128.734 100.219C128.734 84.3637 115.855 71.4849 99.9999 71.4849ZM97.8895 82.8485C97.8895 81.8745 98.8635 80.8464 100.054 80.8464C101.244 80.8464 102.164 81.8745 102.164 82.8485V92.697C102.164 93.671 101.19 94.6992 100.054 94.6992C98.9176 94.6992 97.8895 93.671 97.8895 92.697V82.8485ZM99.9999 114.937C91.7748 114.937 85.0648 108.227 85.0648 100.002C85.0648 93.2922 89.502 87.6104 95.5626 85.7165V91.2901C92.4241 92.9134 90.2055 96.2143 90.2055 100.002C90.2055 105.413 94.5886 109.797 99.9999 109.797C105.411 109.797 109.794 105.413 109.794 100.002C109.794 96.1602 107.63 92.9134 104.437 91.2901V85.7165C110.552 87.6104 114.935 93.2922 114.935 100.002C114.935 108.281 108.225 114.937 99.9999 114.937Z" fill="white"/>
<path d="M67.0455 99.9443C67.0455 98.6456 65.9091 97.5634 64.8268 97.5634H52.2186C51.1364 97.5634 50 98.6456 50 99.9443C50 101.243 51.1905 102.325 52.2186 102.325H64.8268C65.855 102.325 67.0455 101.243 67.0455 99.9443Z" fill="white"/>
<path d="M150 99.9443C150 98.6456 148.864 97.5634 147.781 97.5634H135.173C134.091 97.5634 132.955 98.6456 132.955 99.9443C132.955 101.243 134.145 102.325 135.173 102.325H147.781C148.81 102.325 150 101.243 150 99.9443Z" fill="white"/>
<path d="M100.054 66.9913C101.353 66.9913 102.381 65.855 102.381 64.7727V52.2186C102.381 51.1364 101.299 50 100.054 50C98.8095 50 97.6731 51.1364 97.6731 52.2186V64.7727C97.6731 65.855 98.7553 66.9913 100.054 66.9913Z" fill="white"/>
<path d="M71.4285 83.554C72.0778 82.4177 71.5908 80.9566 70.6709 80.4155L59.7402 74.1925C58.8203 73.6514 57.3051 73.9761 56.6558 75.1125C56.0064 76.2488 56.4934 77.764 57.4133 78.251L68.3441 84.4739C69.264 85.0151 70.7791 84.6363 71.4285 83.4999" fill="white"/>
<path d="M116.396 71.3146C117.532 71.9639 118.994 71.4769 119.535 70.557L125.758 59.6263C126.299 58.7064 125.974 57.1912 124.838 56.5419C123.701 55.8925 122.186 56.3795 121.645 57.2994L115.422 68.2302C114.881 69.1501 115.26 70.6652 116.396 71.3146Z" fill="white"/>
<path d="M83.604 71.3801C84.7404 70.7308 85.0651 69.2156 84.5239 68.2957L78.2469 57.4191C77.7057 56.4991 76.1906 56.0121 75.1083 56.6615C73.972 57.3108 73.6473 58.826 74.1884 59.7459L80.4655 70.6225C81.0066 71.5424 82.4677 72.0295 83.604 71.3801Z" fill="white"/>
<path d="M128.626 83.4942C129.275 84.6306 130.79 84.9552 131.71 84.4682L142.587 78.1912C143.507 77.65 143.994 76.1349 143.344 75.0526C142.695 73.9163 141.18 73.5916 140.206 74.1327L129.275 80.4098C128.355 80.9509 127.868 82.4119 128.517 83.5483" fill="white"/>
<path d="M99.9999 133.009C98.7012 133.009 97.6731 134.145 97.6731 135.227V147.781C97.6731 148.864 98.7553 150 99.9999 150C101.245 150 102.381 148.864 102.381 147.781V135.227C102.381 134.145 101.299 133.009 99.9999 133.009Z" fill="white"/>
<path d="M128.625 116.395C127.976 117.532 128.463 118.993 129.383 119.534L140.314 125.757C141.234 126.298 142.749 125.973 143.398 124.837C144.048 123.7 143.561 122.185 142.641 121.698L131.71 115.475C130.79 114.934 129.275 115.313 128.625 116.449" fill="white"/>
<path d="M83.6039 128.629C82.4675 127.979 81.0065 128.466 80.4653 129.386L74.2424 140.317C73.7013 141.237 74.0259 142.752 75.1623 143.401C76.2987 144.051 77.8138 143.564 78.3549 142.644L84.5779 131.713C85.119 130.793 84.7402 129.278 83.6039 128.629Z" fill="white"/>
<path d="M116.396 128.629C115.26 129.278 114.935 130.793 115.476 131.713L121.753 142.59C122.294 143.51 123.809 143.997 124.892 143.347C126.028 142.698 126.353 141.183 125.812 140.263L119.535 129.386C118.993 128.466 117.532 127.979 116.396 128.629Z" fill="white"/>
<path d="M71.3744 116.455C70.725 115.319 69.2099 114.994 68.29 115.535L57.4133 121.812C56.4934 122.354 56.0064 123.869 56.6558 124.951C57.3051 126.087 58.8203 126.412 59.7943 125.871L70.725 119.594C71.6449 119.053 72.132 117.592 71.4826 116.455" fill="white"/>
</svg>
