<svg width="200" height="200" viewBox="0 0 200 200" fill="none" xmlns="http://www.w3.org/2000/svg">
<rect width="200" height="200" fill="#BF8D2C"/>
<path d="M141.366 80.1953C135.147 75.5078 127.7 75 124.794 75C123.24 75 121.848 75.1172 120.784 75.3516L120.375 75.4297C116.447 76.3281 109.859 77.8125 102.208 86.875L101.962 87.1484C101.962 87.1484 101.757 87.5 101.757 87.6953C101.757 87.8516 101.798 88.0078 101.88 88.1641L102.044 88.4375C103.312 90.4688 104.376 92.2266 105.195 93.7109C105.481 94.2578 106.299 94.4531 106.831 93.9453C106.872 93.8672 106.954 93.8281 106.995 93.75C113.624 85 118.779 83.8672 122.217 83.0859L122.626 83.0078C123.117 82.8906 123.853 82.8516 124.713 82.8516C126.308 82.8516 131.873 83.0859 136.17 86.3672C140.016 89.2578 141.98 93.9063 141.98 100.117C141.98 110.547 136.702 114.648 132.242 116.211C130.564 116.797 128.723 117.109 126.799 117.109C122.217 117.109 118.698 115.352 118.657 115.352L118.329 115.195C114.524 113.594 108.795 110.312 103.394 99.9609C92.3463 78.75 83.0579 76.7578 76.8792 75.4297L76.5519 75.3516C76.0609 75.2344 74.7515 75 72.5828 75C69.023 75 62.1896 75.6641 56.2974 80.1562C52.2874 83.2031 47.5 89.1406 47.5 100.039C47.5 106.68 48.9321 111.094 52.6148 115.703C53.3104 116.602 59.7345 124.492 72.01 124.492C73.8104 124.492 75.7335 124.336 77.6158 123.984C79.8663 123.555 83.3443 122.5 87.1906 119.805L90.4232 122.578C90.7914 122.891 91.4052 122.852 91.7325 122.539C91.8962 122.383 91.978 122.148 91.978 121.953L94.4741 107.227V107.07C94.4741 106.836 94.3513 106.602 94.1876 106.445C94.024 106.289 93.8194 106.211 93.5329 106.211L78.516 110.156H78.2295C78.2295 110.156 77.8613 110.352 77.7385 110.469C77.5749 110.664 77.493 110.859 77.493 111.133C77.493 111.367 77.6158 111.602 77.7794 111.758L80.8892 114.453C79.2525 115.43 77.6158 116.055 76.02 116.328C74.6697 116.563 73.3194 116.719 72.0509 116.719C63.5399 116.719 59.3663 111.406 59.2026 111.172L59.1208 111.055C56.5429 107.812 55.6427 105.039 55.6427 100.117C55.6427 93.8672 57.5659 89.2187 61.3303 86.3281C65.5449 83.125 70.9461 82.8906 72.501 82.8906C73.3603 82.8906 74.1377 82.9687 74.6287 83.0469L74.9561 83.125C79.8663 84.1797 86.5768 85.625 95.9062 103.516C100.816 112.969 106.995 119.141 114.769 122.383C115.67 122.812 120.498 125 126.636 125C129.541 125 132.323 124.531 134.942 123.594C139.484 121.992 150 116.445 150 100.156C150 89.2578 145.172 83.2813 141.08 80.2344" fill="white"/>
</svg>
