<svg width="48" height="48" viewBox="0 0 48 48" fill="none" xmlns="http://www.w3.org/2000/svg">
<path d="M10 10C10 8.11438 10 7.17157 10.5858 6.58579C11.1716 6 12.1144 6 14 6L27.728 6C28.5741 6 28.9972 6 29.3749 6.16207C29.7526 6.32415 30.0441 6.63079 30.6271 7.24406L36.8991 13.8419C37.4428 14.4138 37.7146 14.6998 37.8573 15.057C38 15.4142 38 15.8088 38 16.5979V38C38 39.8856 38 40.8284 37.4142 41.4142C36.8284 42 35.8856 42 34 42H14C12.1144 42 11.1716 42 10.5858 41.4142C10 40.8284 10 39.8856 10 38V10Z" fill="#747576"/>
<path d="M27.8867 14.0205V9.71111C27.8867 8.82236 28.9594 8.37522 29.5906 9.00084L33.9388 13.3102C34.5731 13.9388 34.128 15.0205 33.2349 15.0205H28.8867C28.3344 15.0205 27.8867 14.5727 27.8867 14.0205Z" fill="white"/>
<path d="M13.1992 36.3701C13.1992 36.1748 13.266 36.0104 13.3994 35.877C13.5329 35.7435 13.7135 35.6768 13.9414 35.6768C14.1693 35.6768 14.3499 35.7435 14.4834 35.877C14.6169 36.0104 14.6836 36.1748 14.6836 36.3701C14.6836 36.5622 14.6169 36.7249 14.4834 36.8584C14.3499 36.9886 14.1693 37.0537 13.9414 37.0537C13.7135 37.0537 13.5329 36.9886 13.3994 36.8584C13.266 36.7249 13.1992 36.5622 13.1992 36.3701ZM17.2715 32.8008V37H15.9824V31.7168H17.1982L17.2715 32.8008ZM17.0811 34.168H16.6855C16.6855 33.8001 16.7295 33.4616 16.8174 33.1523C16.9085 32.8431 17.042 32.5745 17.2178 32.3467C17.3936 32.1156 17.61 31.9365 17.8672 31.8096C18.1276 31.6826 18.4287 31.6191 18.7705 31.6191C19.0081 31.6191 19.2262 31.6549 19.4248 31.7266C19.6234 31.7949 19.7943 31.904 19.9375 32.0537C20.084 32.2002 20.1963 32.3923 20.2744 32.6299C20.3525 32.8643 20.3916 33.1458 20.3916 33.4746V37H19.1025V33.6064C19.1025 33.359 19.0667 33.1654 18.9951 33.0254C18.9268 32.8854 18.8275 32.7878 18.6973 32.7324C18.5671 32.6738 18.4108 32.6445 18.2285 32.6445C18.0267 32.6445 17.8525 32.6852 17.7061 32.7666C17.5628 32.8447 17.444 32.9538 17.3496 33.0938C17.2585 33.2337 17.1901 33.3949 17.1445 33.5771C17.1022 33.7594 17.0811 33.9564 17.0811 34.168ZM20.2939 33.9287L19.7617 34.0264C19.765 33.6943 19.8105 33.3835 19.8984 33.0938C19.9863 32.8008 20.1149 32.5452 20.2842 32.3271C20.4567 32.1058 20.6699 31.9333 20.9238 31.8096C21.181 31.6826 21.4772 31.6191 21.8125 31.6191C22.0729 31.6191 22.3073 31.6566 22.5156 31.7314C22.7272 31.8031 22.9079 31.9186 23.0576 32.0781C23.2074 32.2344 23.3213 32.4378 23.3994 32.6885C23.4808 32.9391 23.5215 33.2451 23.5215 33.6064V37H22.2227V33.6016C22.2227 33.3444 22.1868 33.1475 22.1152 33.0107C22.0469 32.874 21.9476 32.7796 21.8174 32.7275C21.6872 32.6722 21.5342 32.6445 21.3584 32.6445C21.1794 32.6445 21.0231 32.6787 20.8896 32.7471C20.7594 32.8122 20.6488 32.9033 20.5576 33.0205C20.4697 33.1377 20.403 33.2744 20.3574 33.4307C20.3151 33.5837 20.2939 33.7497 20.2939 33.9287ZM25.9678 32.7324V39.0312H24.6738V31.7168H25.8701L25.9678 32.7324ZM29.3613 34.3047V34.4072C29.3613 34.7913 29.3158 35.1478 29.2246 35.4766C29.1367 35.8021 29.0065 36.0869 28.834 36.3311C28.6615 36.5719 28.4466 36.7607 28.1895 36.8975C27.9355 37.0309 27.6426 37.0977 27.3105 37.0977C26.985 37.0977 26.7018 37.0358 26.4609 36.9121C26.2201 36.7852 26.0166 36.6061 25.8506 36.375C25.6846 36.1439 25.5511 35.8753 25.4502 35.5693C25.3525 35.2601 25.2793 34.9232 25.2305 34.5586V34.2314C25.2793 33.8441 25.3525 33.4925 25.4502 33.1768C25.5511 32.8577 25.6846 32.5827 25.8506 32.3516C26.0166 32.1172 26.2184 31.9365 26.4561 31.8096C26.6969 31.6826 26.9785 31.6191 27.3008 31.6191C27.6361 31.6191 27.9307 31.6826 28.1846 31.8096C28.4417 31.9365 28.6582 32.1188 28.834 32.3564C29.0098 32.5941 29.1416 32.8773 29.2295 33.2061C29.3174 33.5348 29.3613 33.901 29.3613 34.3047ZM28.0674 34.4072V34.3047C28.0674 34.0703 28.0462 33.8538 28.0039 33.6553C27.9616 33.4535 27.8965 33.2777 27.8086 33.1279C27.7207 32.9749 27.6068 32.8561 27.4668 32.7715C27.3268 32.6868 27.1576 32.6445 26.959 32.6445C26.7604 32.6445 26.5895 32.6771 26.4463 32.7422C26.3031 32.8073 26.1859 32.9001 26.0947 33.0205C26.0036 33.141 25.932 33.2842 25.8799 33.4502C25.8311 33.613 25.7985 33.7936 25.7822 33.9922V34.8027C25.8115 35.0436 25.8685 35.2601 25.9531 35.4521C26.0378 35.6442 26.1615 35.7972 26.3242 35.9111C26.4902 36.0251 26.7051 36.082 26.9688 36.082C27.1673 36.082 27.3366 36.0381 27.4766 35.9502C27.6165 35.8623 27.7305 35.7419 27.8184 35.5889C27.9062 35.4326 27.9697 35.2536 28.0088 35.0518C28.0479 34.8499 28.0674 34.6351 28.0674 34.4072ZM31.6465 32.874H32.374C32.6312 32.874 32.8428 32.8301 33.0088 32.7422C33.1781 32.651 33.3034 32.5273 33.3848 32.3711C33.4694 32.2116 33.5117 32.0277 33.5117 31.8193C33.5117 31.6143 33.4743 31.4368 33.3994 31.2871C33.3245 31.1341 33.2106 31.0169 33.0576 30.9355C32.9079 30.8509 32.7158 30.8086 32.4814 30.8086C32.2926 30.8086 32.1185 30.846 31.959 30.9209C31.8027 30.9958 31.6774 31.1032 31.583 31.2432C31.4919 31.3799 31.4463 31.5443 31.4463 31.7363H30.1523C30.1523 31.3522 30.2533 31.0153 30.4551 30.7256C30.6602 30.4326 30.9368 30.2031 31.2852 30.0371C31.6335 29.8711 32.0225 29.7881 32.4521 29.7881C32.9209 29.7881 33.3311 29.8662 33.6826 30.0225C34.0374 30.1755 34.3125 30.4017 34.5078 30.7012C34.7064 31.0007 34.8057 31.3717 34.8057 31.8145C34.8057 32.026 34.7552 32.2376 34.6543 32.4492C34.5566 32.6576 34.4118 32.8464 34.2197 33.0156C34.0309 33.1816 33.7982 33.3167 33.5215 33.4209C33.248 33.5218 32.9339 33.5723 32.5791 33.5723H31.6465V32.874ZM31.6465 33.8701V33.1816H32.5791C32.9795 33.1816 33.3262 33.2288 33.6191 33.3232C33.9154 33.4144 34.1595 33.5446 34.3516 33.7139C34.5436 33.8799 34.6852 34.0736 34.7764 34.2949C34.8708 34.5163 34.918 34.7539 34.918 35.0078C34.918 35.3398 34.8561 35.6361 34.7324 35.8965C34.6087 36.1536 34.4346 36.3717 34.21 36.5508C33.9886 36.7298 33.7282 36.8665 33.4287 36.9609C33.1292 37.0521 32.8053 37.0977 32.457 37.0977C32.1543 37.0977 31.8597 37.057 31.5732 36.9756C31.29 36.891 31.0345 36.7656 30.8066 36.5996C30.5788 36.4303 30.3981 36.2188 30.2646 35.9648C30.1312 35.7077 30.0645 35.4098 30.0645 35.0713H31.3584C31.3584 35.2666 31.4056 35.4408 31.5 35.5938C31.5977 35.7467 31.7311 35.8672 31.9004 35.9551C32.0729 36.0397 32.2666 36.082 32.4814 36.082C32.7191 36.082 32.9225 36.0397 33.0918 35.9551C33.2643 35.8672 33.3962 35.7435 33.4873 35.584C33.5785 35.4212 33.624 35.2275 33.624 35.0029C33.624 34.736 33.5736 34.5195 33.4727 34.3535C33.3717 34.1875 33.2269 34.0654 33.0381 33.9873C32.8525 33.9092 32.6312 33.8701 32.374 33.8701H31.6465Z" fill="white"/>
</svg>
