<svg width="48" height="48" viewBox="0 0 48 48" fill="none" xmlns="http://www.w3.org/2000/svg">
<path d="M10 10C10 8.11438 10 7.17157 10.5858 6.58579C11.1716 6 12.1144 6 14 6L27.728 6C28.5741 6 28.9972 6 29.3749 6.16207C29.7526 6.32415 30.0441 6.63079 30.6271 7.24406L36.8991 13.8419C37.4428 14.4138 37.7146 14.6998 37.8573 15.057C38 15.4142 38 15.8088 38 16.5979V38C38 39.8856 38 40.8284 37.4142 41.4142C36.8284 42 35.8856 42 34 42H14C12.1144 42 11.1716 42 10.5858 41.4142C10 40.8284 10 39.8856 10 38V10Z" fill="#747576"/>
<path d="M27.8867 14.0205V9.7111C27.8867 8.82236 28.9594 8.37522 29.5906 9.00083L33.9388 13.3102C34.5731 13.9388 34.128 15.0205 33.2349 15.0205H28.8867C28.3344 15.0205 27.8867 14.5727 27.8867 14.0205Z" fill="white"/>
<path d="M14.2617 36.7441C14.2617 36.5098 14.3418 36.3125 14.502 36.1523C14.6621 35.9922 14.8789 35.9121 15.1523 35.9121C15.4258 35.9121 15.6426 35.9922 15.8027 36.1523C15.9629 36.3125 16.043 36.5098 16.043 36.7441C16.043 36.9746 15.9629 37.1699 15.8027 37.3301C15.6426 37.4863 15.4258 37.5645 15.1523 37.5645C14.8789 37.5645 14.6621 37.4863 14.502 37.3301C14.3418 37.1699 14.2617 36.9746 14.2617 36.7441ZM17.332 34.3945V34.2715C17.332 33.8066 17.3984 33.3789 17.5312 32.9883C17.6641 32.5938 17.8574 32.252 18.1113 31.9629C18.3652 31.6738 18.6758 31.4492 19.043 31.2891C19.4102 31.125 19.8281 31.043 20.2969 31.043C20.7734 31.043 21.1953 31.125 21.5625 31.2891C21.9336 31.4492 22.2461 31.6738 22.5 31.9629C22.7539 32.252 22.9473 32.5938 23.0801 32.9883C23.2129 33.3789 23.2793 33.8066 23.2793 34.2715V34.3945C23.2793 34.8555 23.2129 35.2832 23.0801 35.6777C22.9473 36.0684 22.7539 36.4102 22.5 36.7031C22.2461 36.9922 21.9355 37.2168 21.5684 37.377C21.2012 37.5371 20.7812 37.6172 20.3086 37.6172C19.8398 37.6172 19.4199 37.5371 19.0488 37.377C18.6777 37.2168 18.3652 36.9922 18.1113 36.7031C17.8574 36.4102 17.6641 36.0684 17.5312 35.6777C17.3984 35.2832 17.332 34.8555 17.332 34.3945ZM18.8789 34.2715V34.3945C18.8789 34.6719 18.9062 34.9316 18.9609 35.1738C19.0156 35.416 19.0996 35.6289 19.2129 35.8125C19.3262 35.9961 19.4727 36.1406 19.6523 36.2461C19.8359 36.3477 20.0547 36.3984 20.3086 36.3984C20.5586 36.3984 20.7734 36.3477 20.9531 36.2461C21.1328 36.1406 21.2793 35.9961 21.3926 35.8125C21.5098 35.6289 21.5957 35.416 21.6504 35.1738C21.7051 34.9316 21.7324 34.6719 21.7324 34.3945V34.2715C21.7324 33.998 21.7051 33.7422 21.6504 33.5039C21.5957 33.2617 21.5098 33.0488 21.3926 32.8652C21.2793 32.6777 21.1309 32.5312 20.9473 32.4258C20.7676 32.3164 20.5508 32.2617 20.2969 32.2617C20.0469 32.2617 19.832 32.3164 19.6523 32.4258C19.4727 32.5312 19.3262 32.6777 19.2129 32.8652C19.0996 33.0488 19.0156 33.2617 18.9609 33.5039C18.9062 33.7422 18.8789 33.998 18.8789 34.2715ZM28.207 36.1523V28.5H29.7656V37.5H28.3594L28.207 36.1523ZM24.1348 34.4062V34.2832C24.1348 33.7988 24.1895 33.3594 24.2988 32.9648C24.4121 32.5664 24.5762 32.2246 24.791 31.9395C25.0059 31.6543 25.2656 31.4336 25.5703 31.2773C25.8789 31.1211 26.2285 31.043 26.6191 31.043C26.998 31.043 27.3281 31.1191 27.6094 31.2715C27.8945 31.4238 28.1367 31.6406 28.3359 31.9219C28.5391 32.2031 28.7012 32.5371 28.8223 32.9238C28.9434 33.3066 29.0312 33.7285 29.0859 34.1895V34.5234C29.0312 34.9727 28.9434 35.3848 28.8223 35.7598C28.7012 36.1348 28.5391 36.4629 28.3359 36.7441C28.1367 37.0215 27.8945 37.2363 27.6094 37.3887C27.3242 37.541 26.9902 37.6172 26.6074 37.6172C26.2207 37.6172 25.873 37.5371 25.5645 37.377C25.2598 37.2168 25 36.9922 24.7852 36.7031C24.5742 36.4141 24.4121 36.0742 24.2988 35.6836C24.1895 35.293 24.1348 34.8672 24.1348 34.4062ZM25.6875 34.2832V34.4062C25.6875 34.6797 25.7109 34.9355 25.7578 35.1738C25.8047 35.4121 25.8809 35.623 25.9863 35.8066C26.0918 35.9863 26.2266 36.127 26.3906 36.2285C26.5586 36.3301 26.7617 36.3809 27 36.3809C27.3047 36.3809 27.5547 36.3145 27.75 36.1816C27.9492 36.0449 28.1035 35.8594 28.2129 35.625C28.3223 35.3867 28.3926 35.1191 28.4238 34.8223V33.9023C28.4082 33.668 28.3672 33.4512 28.3008 33.252C28.2383 33.0527 28.1484 32.8809 28.0312 32.7363C27.918 32.5918 27.7773 32.4785 27.6094 32.3965C27.4414 32.3145 27.2422 32.2734 27.0117 32.2734C26.7734 32.2734 26.5703 32.3262 26.4023 32.4316C26.2344 32.5332 26.0977 32.6758 25.9922 32.8594C25.8867 33.043 25.8086 33.2559 25.7578 33.498C25.7109 33.7402 25.6875 34.002 25.6875 34.2832ZM34.166 31.1602V32.2734H30.5332V31.1602H34.166ZM31.5059 29.6016H33.0586V35.6719C33.0586 35.8594 33.084 36.0039 33.1348 36.1055C33.1855 36.207 33.2617 36.2754 33.3633 36.3105C33.4648 36.3457 33.5859 36.3633 33.7266 36.3633C33.8281 36.3633 33.9219 36.3574 34.0078 36.3457C34.0938 36.334 34.166 36.3223 34.2246 36.3105L34.2305 37.4707C34.1016 37.5137 33.9551 37.5488 33.791 37.5762C33.6309 37.6035 33.4492 37.6172 33.2461 37.6172C32.8984 37.6172 32.5938 37.5586 32.332 37.4414C32.0703 37.3203 31.8672 37.127 31.7227 36.8613C31.5781 36.5918 31.5059 36.2363 31.5059 35.7949V29.6016Z" fill="white"/>
</svg>
