<svg width="23" height="24" viewBox="0 0 23 24" fill="none" xmlns="http://www.w3.org/2000/svg">
<g style="mix-blend-mode:multiply" opacity="0.2">
<g style="mix-blend-mode:multiply" opacity="0.2">
<path d="M22.9887 11.9355V21.4108C22.9887 21.7229 22.8659 22.0223 22.6473 22.2431C22.4286 22.4638 22.1321 22.5878 21.823 22.5878H6.40034C6.09117 22.5878 5.79466 22.4638 5.57604 22.2431C5.35743 22.0223 5.23461 21.7229 5.23461 21.4108V11.9355C5.23179 12.0253 5.25443 12.1139 5.29987 12.1911C5.34531 12.2682 5.41165 12.3307 5.49107 12.371L6.52857 12.9596V2.36614C6.52231 2.22854 6.54298 2.09104 6.58941 1.96151C6.63584 1.83199 6.70712 1.71298 6.79916 1.61131C6.89119 1.50963 7.00219 1.42728 7.12578 1.36897C7.24938 1.31066 7.38315 1.27753 7.51944 1.27148H20.6922C20.9654 1.28671 21.2216 1.41028 21.405 1.61529C21.5884 1.82031 21.6841 2.09017 21.6714 2.36614V12.9596L22.7206 12.371C22.8004 12.3301 22.8677 12.2679 22.9149 12.1911C22.9622 12.1143 22.9877 12.0259 22.9887 11.9355Z" fill="white"/>
</g>
</g>
<g style="mix-blend-mode:multiply" opacity="0.12">
<g style="mix-blend-mode:multiply" opacity="0.12">
<path d="M22.9887 11.9355V21.4108C22.9887 21.7229 22.8659 22.0223 22.6473 22.2431C22.4286 22.4638 22.1321 22.5878 21.823 22.5878H6.40034C6.09117 22.5878 5.79466 22.4638 5.57604 22.2431C5.35743 22.0223 5.23461 21.7229 5.23461 21.4108V11.9355C5.23179 12.0253 5.25443 12.1139 5.29987 12.1911C5.34531 12.2682 5.41165 12.3307 5.49107 12.371L6.52857 12.9596V2.36614C6.52231 2.22854 6.54298 2.09104 6.58941 1.96151C6.63584 1.83199 6.70712 1.71298 6.79916 1.61131C6.89119 1.50963 7.00219 1.42728 7.12578 1.36897C7.24938 1.31066 7.38315 1.27753 7.51944 1.27148H20.6922C20.9654 1.28671 21.2216 1.41028 21.405 1.61529C21.5884 1.82031 21.6841 2.09017 21.6714 2.36614V12.9596L22.7206 12.371C22.8004 12.3301 22.8677 12.2679 22.9149 12.1911C22.9622 12.1143 22.9877 12.0259 22.9887 11.9355Z" fill="white"/>
</g>
</g>
<path d="M22.9886 11.9352C22.9887 11.8474 22.9662 11.7611 22.9233 11.6847C22.8804 11.6084 22.8185 11.5446 22.7438 11.4997L15.3881 6.79149L15.3181 6.7444C15.1631 6.67091 14.9939 6.63281 14.8227 6.63281C14.6514 6.63281 14.4823 6.67091 14.3272 6.7444L14.2223 6.81503L6.21376 11.5232C6.1374 11.5662 6.0742 11.6296 6.03103 11.7064C5.98787 11.7832 5.9664 11.8705 5.96895 11.9587C5.96917 12.0494 5.99297 12.1385 6.03798 12.217C6.08299 12.2955 6.14762 12.3606 6.22542 12.406L14.234 17.1142L14.3389 17.1848C14.4939 17.2583 14.6631 17.2964 14.8343 17.2964C15.0056 17.2964 15.1748 17.2583 15.3298 17.1848L15.4347 17.1142L22.7905 12.406C22.861 12.3516 22.9164 12.2796 22.9511 12.197C22.9859 12.1145 22.9988 12.0243 22.9886 11.9352Z" fill="#123B6D"/>
<path d="M11.8199 9.28711H6.5625V14.1483H11.8199V9.28711Z" fill="#0364B8"/>
<path d="M21.6715 4.63758V2.42473C21.6842 2.14877 21.5884 1.8789 21.405 1.67389C21.2216 1.46887 20.9654 1.3453 20.6923 1.33008H7.55447C7.41817 1.33612 7.2844 1.36925 7.16081 1.42756C7.03721 1.48587 6.92622 1.56822 6.83418 1.6699C6.74214 1.77158 6.67087 1.89058 6.62444 2.02011C6.57801 2.14963 6.55733 2.28713 6.56359 2.42473V4.63758H21.6715Z" fill="#0358A7"/>
<path d="M11.8199 4.63672H6.5625V9.27428H11.8199V4.63672Z" fill="#0078D4"/>
<path d="M17.0778 4.63672H11.8203V9.27428H17.0778V4.63672Z" fill="#28A8EA"/>
<path d="M21.6711 4.63672H17.0781V9.27428H21.6711V4.63672Z" fill="#50D9FF"/>
<path d="M21.6711 9.28711H17.0781V14.1483H21.6711V9.28711Z" fill="#28A8EA"/>
<path d="M17.0778 9.28711H11.8203V14.1483H17.0778V9.28711Z" fill="#0078D4"/>
<path d="M17.0778 14.1484H11.8203V19.0096H17.0778V14.1484Z" fill="#0364B8"/>
<path d="M11.8199 14.1484H6.5625V18.5741H11.8199V14.1484Z" fill="#14447D"/>
<path d="M21.6711 14.1484H17.0781V19.0096H21.6711V14.1484Z" fill="#0078D4"/>
<g opacity="0.35">
<g style="mix-blend-mode:multiply" opacity="0.35">
<g style="mix-blend-mode:multiply" opacity="0.35">
<path d="M22.7325 12.3711L15.0853 17.0792L14.9687 17.1499C14.8106 17.227 14.6372 17.2671 14.4616 17.2671C14.286 17.2671 14.1127 17.227 13.9545 17.1499L13.8379 17.0792L5.53794 12.3711C5.45852 12.3307 5.39219 12.2683 5.34675 12.1911C5.30131 12.1139 5.27866 12.0253 5.28148 11.9355V21.4108C5.28148 21.7229 5.4043 22.0223 5.62292 22.2431C5.84154 22.4638 6.13804 22.5878 6.44722 22.5878H21.8349C22.144 22.5878 22.4405 22.4638 22.6592 22.2431C22.8778 22.0223 23.0006 21.7229 23.0006 21.4108V11.9355C22.9996 12.026 22.9741 12.1144 22.9268 12.1911C22.8796 12.2679 22.8123 12.3302 22.7325 12.3711Z" fill="white"/>
</g>
</g>
</g>
<g opacity="0.06">
<g style="mix-blend-mode:multiply" opacity="0.06">
<g style="mix-blend-mode:multiply" opacity="0.06">
<path d="M22.7325 12.3711L15.0853 17.0792L14.9687 17.1499C14.8106 17.227 14.6372 17.2671 14.4616 17.2671C14.286 17.2671 14.1127 17.227 13.9545 17.1499L13.8379 17.0792L5.53794 12.3711C5.45852 12.3307 5.39219 12.2683 5.34675 12.1911C5.30131 12.1139 5.27866 12.0253 5.28148 11.9355V21.4108C5.28148 21.7229 5.4043 22.0223 5.62292 22.2431C5.84154 22.4638 6.13804 22.5878 6.44722 22.5878H21.8349C22.144 22.5878 22.4405 22.4638 22.6592 22.2431C22.8778 22.0223 23.0006 21.7229 23.0006 21.4108V11.9355C22.9996 12.026 22.9741 12.1144 22.9268 12.1911C22.8796 12.2679 22.8123 12.3302 22.7325 12.3711Z" fill="white"/>
</g>
</g>
</g>
<path d="M22.7325 12.3711L15.0853 17.0792L14.9687 17.1499C14.8106 17.227 14.6372 17.2671 14.4616 17.2671C14.286 17.2671 14.1127 17.227 13.9545 17.1499L13.8379 17.0792L5.53794 12.3711C5.45852 12.3307 5.39219 12.2683 5.34675 12.1911C5.30131 12.1139 5.27866 12.0253 5.28148 11.9355V21.4108C5.28148 21.7229 5.4043 22.0223 5.62292 22.2431C5.84154 22.4638 6.13804 22.5878 6.44722 22.5878H21.8349C22.144 22.5878 22.4405 22.4638 22.6592 22.2431C22.8778 22.0223 23.0006 21.7229 23.0006 21.4108V11.9355C22.9996 12.026 22.9741 12.1144 22.9268 12.1911C22.8796 12.2679 22.8123 12.3302 22.7325 12.3711Z" fill="url(#paint0_linear_7806_23845)"/>
<path d="M6.38857 22.529H21.8578C22.0968 22.525 22.3287 22.4469 22.5223 22.3053L13.8493 16.9615L13.7327 16.8909L5.57256 12.0768L5.25781 11.9355V21.3519C5.25768 21.6581 5.37568 21.9522 5.58679 22.172C5.7979 22.3917 6.0855 22.5198 6.38857 22.529Z" fill="url(#paint1_linear_7806_23845)"/>
<path style="mix-blend-mode:soft-light" opacity="0.75" d="M22.9889 11.9353C22.989 11.8475 22.9665 11.7612 22.9236 11.6848C22.8806 11.6084 22.8188 11.5447 22.7441 11.4998L21.6833 10.8877V2.42473C21.696 2.14877 21.6002 1.8789 21.4168 1.67389C21.2334 1.46887 20.9772 1.3453 20.704 1.33008H7.5546C7.41831 1.33612 7.28453 1.36925 7.16094 1.42756C7.03734 1.48587 6.92635 1.56822 6.83431 1.6699C6.74227 1.77158 6.671 1.89058 6.62457 2.02011C6.57814 2.14963 6.55746 2.28713 6.56373 2.42473V13.0182L5.52623 12.4296C5.44681 12.3893 5.38047 12.3268 5.33503 12.2497C5.28959 12.1725 5.26695 12.0838 5.26977 11.9941V21.4693C5.26977 21.7815 5.39258 22.0809 5.6112 22.3016C5.82982 22.5224 6.12633 22.6464 6.4355 22.6464H21.8348C22.144 22.6464 22.4405 22.5224 22.6591 22.3016C22.8777 22.0809 23.0005 21.7815 23.0005 21.4693V11.9353H22.9889Z" fill="url(#paint2_linear_7806_23845)"/>
<path d="M10.8296 5.9668H0.990872C0.443629 5.9668 0 6.41473 0 6.96729V16.9016C0 17.4541 0.443629 17.9021 0.990872 17.9021H10.8296C11.3769 17.9021 11.8205 17.4541 11.8205 16.9016V6.96729C11.8205 6.41473 11.3769 5.9668 10.8296 5.9668Z" fill="#0F78D4"/>
<g style="mix-blend-mode:soft-light" opacity="0.5">
<path style="mix-blend-mode:soft-light" opacity="0.5" d="M10.8296 5.9668H0.990872C0.443629 5.9668 0 6.41473 0 6.96729V16.9016C0 17.4541 0.443629 17.9021 0.990872 17.9021H10.8296C11.3769 17.9021 11.8205 17.4541 11.8205 16.9016V6.96729C11.8205 6.41473 11.3769 5.9668 10.8296 5.9668Z" fill="url(#paint3_linear_7806_23845)"/>
</g>
<path d="M3.24022 10.2986C3.46223 9.80694 3.82847 9.39606 4.28938 9.12152C4.80575 8.821 5.39579 8.6741 5.99134 8.69779C6.53413 8.69024 7.06916 8.82835 7.54177 9.09798C7.98921 9.37861 8.34261 9.78876 8.55595 10.275C8.80656 10.7867 8.93056 11.3522 8.91733 11.9229C8.9314 12.5164 8.80763 13.1049 8.55595 13.6414C8.31663 14.125 7.94949 14.5324 7.49514 14.8184C7.00935 15.0987 6.4575 15.2411 5.89808 15.2304C5.34234 15.2413 4.79418 15.0989 4.31269 14.8184C3.86867 14.5528 3.50878 14.1649 3.27519 13.7002C3.02642 13.1921 2.90246 12.6309 2.91381 12.0641C2.88094 11.4577 2.99289 10.8522 3.24022 10.2986ZM4.40595 13.0529C4.5221 13.3599 4.72472 13.6258 4.98881 13.8179C5.26229 14.0093 5.58878 14.1082 5.9214 14.1004C6.26939 14.115 6.61276 14.0159 6.90061 13.8179C7.16369 13.6198 7.36578 13.3504 7.48348 13.0411C7.60373 12.6932 7.66291 12.3267 7.65834 11.9582C7.66005 11.5909 7.60499 11.2255 7.49514 10.8753C7.38949 10.5594 7.19507 10.2813 6.93559 10.0749C6.65521 9.85937 6.30833 9.75095 5.95637 9.7689C5.62012 9.76108 5.28989 9.85987 5.01213 10.0514C4.74044 10.2463 4.53002 10.5159 4.40595 10.8282C4.1261 11.5429 4.1261 12.3382 4.40595 13.0529Z" fill="white"/>
<defs>
<linearGradient id="paint0_linear_7806_23845" x1="20.1912" y1="9.56968" x2="7.85913" y2="24.1301" gradientUnits="userSpaceOnUse">
<stop stop-color="#35B8F1"/>
<stop offset="0.9" stop-color="#0F78D1"/>
</linearGradient>
<linearGradient id="paint1_linear_7806_23845" x1="13.8842" y1="11.9355" x2="13.8842" y2="22.5407" gradientUnits="userSpaceOnUse">
<stop stop-color="#35B8F1"/>
<stop offset="1" stop-color="#28A8EA"/>
</linearGradient>
<linearGradient id="paint2_linear_7806_23845" x1="7.3914" y1="1.283" x2="20.3893" y2="23.5734" gradientUnits="userSpaceOnUse">
<stop stop-color="white" stop-opacity="0.5"/>
<stop offset="1" stop-opacity="0.7"/>
</linearGradient>
<linearGradient id="paint3_linear_7806_23845" x1="2.05169" y1="5.18995" x2="9.88116" y2="18.6134" gradientUnits="userSpaceOnUse">
<stop stop-color="white" stop-opacity="0.5"/>
<stop offset="1" stop-opacity="0.7"/>
</linearGradient>
</defs>
</svg>
