<svg width="48" height="48" viewBox="0 0 48 48" fill="none" xmlns="http://www.w3.org/2000/svg">
<path fill-rule="evenodd" clip-rule="evenodd" d="M10.5858 6.58579C10 7.17157 10 8.11438 10 10V38C10 39.8856 10 40.8284 10.5858 41.4142C11.1716 42 12.1144 42 14 42H34C35.8856 42 36.8284 42 37.4142 41.4142C38 40.8284 38 39.8856 38 38V16.5979C38 15.8088 38 15.4142 37.8573 15.057C37.7146 14.6998 37.4428 14.4138 36.8991 13.8419L30.6271 7.24406C30.0441 6.63079 29.7526 6.32415 29.3749 6.16207C28.9972 6 28.5741 6 27.728 6H14C12.1144 6 11.1716 6 10.5858 6.58579ZM27.8867 9.71112V14.0205C27.8867 14.5728 28.3344 15.0205 28.8867 15.0205H33.2349C34.128 15.0205 34.5731 13.9389 33.9388 13.3102L29.5906 9.00085C28.9594 8.37524 27.8867 8.82237 27.8867 9.71112Z" fill="#00B2E3"/>
<path d="M14.168 36.7441C14.168 36.5098 14.248 36.3125 14.4082 36.1523C14.5684 35.9922 14.7852 35.9121 15.0586 35.9121C15.332 35.9121 15.5488 35.9922 15.709 36.1523C15.8691 36.3125 15.9492 36.5098 15.9492 36.7441C15.9492 36.9746 15.8691 37.1699 15.709 37.3301C15.5488 37.4863 15.332 37.5645 15.0586 37.5645C14.7852 37.5645 14.5684 37.4863 14.4082 37.3301C14.248 37.1699 14.168 36.9746 14.168 36.7441Z" fill="white"/>
<path d="M19.0605 32.3789V39.9375H17.5078V31.1602H18.9434L19.0605 32.3789ZM23.1328 34.2656V34.3887C23.1328 34.8496 23.0781 35.2773 22.9688 35.6719C22.8633 36.0625 22.707 36.4043 22.5 36.6973C22.293 36.9863 22.0352 37.2129 21.7266 37.377C21.4219 37.5371 21.0703 37.6172 20.6719 37.6172C20.2812 37.6172 19.9414 37.543 19.6523 37.3945C19.3633 37.2422 19.1191 37.0273 18.9199 36.75C18.7207 36.4727 18.5605 36.1504 18.4395 35.7832C18.3223 35.4121 18.2344 35.0078 18.1758 34.5703V34.1777C18.2344 33.7129 18.3223 33.291 18.4395 32.9121C18.5605 32.5293 18.7207 32.1992 18.9199 31.9219C19.1191 31.6406 19.3613 31.4238 19.6465 31.2715C19.9355 31.1191 20.2734 31.043 20.6602 31.043C21.0625 31.043 21.416 31.1191 21.7207 31.2715C22.0293 31.4238 22.2891 31.6426 22.5 31.9277C22.7109 32.2129 22.8691 32.5527 22.9746 32.9473C23.0801 33.3418 23.1328 33.7812 23.1328 34.2656ZM21.5801 34.3887V34.2656C21.5801 33.9844 21.5547 33.7246 21.5039 33.4863C21.4531 33.2441 21.375 33.0332 21.2695 32.8535C21.1641 32.6699 21.0273 32.5273 20.8594 32.4258C20.6914 32.3242 20.4883 32.2734 20.25 32.2734C20.0117 32.2734 19.8066 32.3125 19.6348 32.3906C19.4629 32.4688 19.3223 32.5801 19.2129 32.7246C19.1035 32.8691 19.0176 33.041 18.9551 33.2402C18.8965 33.4355 18.8574 33.6523 18.8379 33.8906V34.8633C18.873 35.1523 18.9414 35.4121 19.043 35.6426C19.1445 35.873 19.293 36.0566 19.4883 36.1934C19.6875 36.3301 19.9453 36.3984 20.2617 36.3984C20.5 36.3984 20.7031 36.3457 20.8711 36.2402C21.0391 36.1348 21.1758 35.9902 21.2812 35.8066C21.3867 35.6191 21.4629 35.4043 21.5098 35.1621C21.5566 34.9199 21.5801 34.6621 21.5801 34.3887Z" fill="white"/>
<path d="M28.0664 36.1523V28.5H29.625V37.5H28.2188L28.0664 36.1523ZM23.9941 34.4062V34.2832C23.9941 33.7988 24.0488 33.3594 24.1582 32.9648C24.2715 32.5664 24.4355 32.2246 24.6504 31.9395C24.8652 31.6543 25.125 31.4336 25.4297 31.2773C25.7383 31.1211 26.0879 31.043 26.4785 31.043C26.8574 31.043 27.1875 31.1191 27.4688 31.2715C27.7539 31.4238 27.9961 31.6406 28.1953 31.9219C28.3984 32.2031 28.5605 32.5371 28.6816 32.9238C28.8027 33.3066 28.8906 33.7285 28.9453 34.1895V34.5234C28.8906 34.9727 28.8027 35.3848 28.6816 35.7598C28.5605 36.1348 28.3984 36.4629 28.1953 36.7441C27.9961 37.0215 27.7539 37.2363 27.4688 37.3887C27.1836 37.541 26.8496 37.6172 26.4668 37.6172C26.0801 37.6172 25.7324 37.5371 25.4238 37.377C25.1191 37.2168 24.8594 36.9922 24.6445 36.7031C24.4336 36.4141 24.2715 36.0742 24.1582 35.6836C24.0488 35.293 23.9941 34.8672 23.9941 34.4062ZM25.5469 34.2832V34.4062C25.5469 34.6797 25.5703 34.9355 25.6172 35.1738C25.6641 35.4121 25.7402 35.623 25.8457 35.8066C25.9512 35.9863 26.0859 36.127 26.25 36.2285C26.418 36.3301 26.6211 36.3809 26.8594 36.3809C27.1641 36.3809 27.4141 36.3145 27.6094 36.1816C27.8086 36.0449 27.9629 35.8594 28.0723 35.625C28.1816 35.3867 28.252 35.1191 28.2832 34.8223V33.9023C28.2676 33.668 28.2266 33.4512 28.1602 33.252C28.0977 33.0527 28.0078 32.8809 27.8906 32.7363C27.7773 32.5918 27.6367 32.4785 27.4688 32.3965C27.3008 32.3145 27.1016 32.2734 26.8711 32.2734C26.6328 32.2734 26.4297 32.3262 26.2617 32.4316C26.0938 32.5332 25.957 32.6758 25.8516 32.8594C25.7461 33.043 25.668 33.2559 25.6172 33.498C25.5703 33.7402 25.5469 34.002 25.5469 34.2832Z" fill="white"/>
<path d="M33.0527 37.5H31.4941V30.5742C31.4941 30.0977 31.5859 29.6973 31.7695 29.373C31.9531 29.0449 32.2148 28.7969 32.5547 28.6289C32.8945 28.4609 33.2949 28.377 33.7559 28.377C33.9082 28.377 34.0527 28.3867 34.1895 28.4062C34.3301 28.4258 34.4688 28.4531 34.6055 28.4883L34.5762 29.666C34.502 29.6465 34.4199 29.6328 34.3301 29.625C34.2441 29.6172 34.1484 29.6133 34.043 29.6133C33.832 29.6133 33.6523 29.6504 33.5039 29.7246C33.3555 29.7988 33.2422 29.9082 33.1641 30.0527C33.0898 30.1934 33.0527 30.3672 33.0527 30.5742V37.5ZM34.3359 31.1602V32.2734H30.5391V31.1602H34.3359Z" fill="white"/>
</svg>
