<svg width="48" height="48" viewBox="0 0 48 48" fill="none" xmlns="http://www.w3.org/2000/svg">
<path d="M10 10C10 8.11438 10 7.17157 10.5858 6.58579C11.1716 6 12.1144 6 14 6L27.728 6C28.5741 6 28.9972 6 29.3749 6.16207C29.7526 6.32415 30.0441 6.63079 30.6271 7.24406L36.8991 13.8419C37.4428 14.4138 37.7146 14.6998 37.8573 15.057C38 15.4142 38 15.8088 38 16.5979V38C38 39.8856 38 40.8284 37.4142 41.4142C36.8284 42 35.8856 42 34 42H14C12.1144 42 11.1716 42 10.5858 41.4142C10 40.8284 10 39.8856 10 38V10Z" fill="#00B2E3"/>
<path d="M27.8867 14.0205V9.71111C27.8867 8.82236 28.9594 8.37522 29.5906 9.00084L33.9388 13.3102C34.5731 13.9388 34.128 15.0205 33.2349 15.0205H28.8867C28.3344 15.0205 27.8867 14.5727 27.8867 14.0205Z" fill="white"/>
<path d="M13.1543 36.7441C13.1543 36.5098 13.2344 36.3125 13.3945 36.1523C13.5547 35.9922 13.7715 35.9121 14.0449 35.9121C14.3184 35.9121 14.5352 35.9922 14.6953 36.1523C14.8555 36.3125 14.9355 36.5098 14.9355 36.7441C14.9355 36.9746 14.8555 37.1699 14.6953 37.3301C14.5352 37.4863 14.3184 37.5645 14.0449 37.5645C13.7715 37.5645 13.5547 37.4863 13.3945 37.3301C13.2344 37.1699 13.1543 36.9746 13.1543 36.7441ZM18.0469 32.3789V39.9375H16.4941V31.1602H17.9297L18.0469 32.3789ZM22.1191 34.2656V34.3887C22.1191 34.8496 22.0645 35.2773 21.9551 35.6719C21.8496 36.0625 21.6934 36.4043 21.4863 36.6973C21.2793 36.9863 21.0215 37.2129 20.7129 37.377C20.4082 37.5371 20.0566 37.6172 19.6582 37.6172C19.2676 37.6172 18.9277 37.543 18.6387 37.3945C18.3496 37.2422 18.1055 37.0273 17.9062 36.75C17.707 36.4727 17.5469 36.1504 17.4258 35.7832C17.3086 35.4121 17.2207 35.0078 17.1621 34.5703V34.1777C17.2207 33.7129 17.3086 33.291 17.4258 32.9121C17.5469 32.5293 17.707 32.1992 17.9062 31.9219C18.1055 31.6406 18.3477 31.4238 18.6328 31.2715C18.9219 31.1191 19.2598 31.043 19.6465 31.043C20.0488 31.043 20.4023 31.1191 20.707 31.2715C21.0156 31.4238 21.2754 31.6426 21.4863 31.9277C21.6973 32.2129 21.8555 32.5527 21.9609 32.9473C22.0664 33.3418 22.1191 33.7812 22.1191 34.2656ZM20.5664 34.3887V34.2656C20.5664 33.9844 20.541 33.7246 20.4902 33.4863C20.4395 33.2441 20.3613 33.0332 20.2559 32.8535C20.1504 32.6699 20.0137 32.5273 19.8457 32.4258C19.6777 32.3242 19.4746 32.2734 19.2363 32.2734C18.998 32.2734 18.793 32.3125 18.6211 32.3906C18.4492 32.4688 18.3086 32.5801 18.1992 32.7246C18.0898 32.8691 18.0039 33.041 17.9414 33.2402C17.8828 33.4355 17.8438 33.6523 17.8242 33.8906V34.8633C17.8594 35.1523 17.9277 35.4121 18.0293 35.6426C18.1309 35.873 18.2793 36.0566 18.4746 36.1934C18.6738 36.3301 18.9316 36.3984 19.248 36.3984C19.4863 36.3984 19.6895 36.3457 19.8574 36.2402C20.0254 36.1348 20.1621 35.9902 20.2676 35.8066C20.373 35.6191 20.4492 35.4043 20.4961 35.1621C20.543 34.9199 20.5664 34.6621 20.5664 34.3887ZM24.7969 28.4941V37.5H23.25V28.4941H24.7969ZM28.7695 31.1602L26.0098 34.2598L24.5156 35.7773L24.0234 34.5762L25.1777 33.123L26.9004 31.1602H28.7695ZM27.1875 37.5L25.2246 34.5469L26.2559 33.5449L28.9805 37.5H27.1875ZM33.5039 31.1602H34.9102V37.3066C34.9102 37.8809 34.7852 38.3672 34.5352 38.7656C34.2891 39.168 33.9434 39.4727 33.498 39.6797C33.0527 39.8906 32.5352 39.9961 31.9453 39.9961C31.6914 39.9961 31.416 39.9609 31.1191 39.8906C30.8262 39.8203 30.543 39.709 30.2695 39.5566C30 39.4082 29.7754 39.2148 29.5957 38.9766L30.293 38.0625C30.5039 38.3086 30.7422 38.4941 31.0078 38.6191C31.2734 38.748 31.5605 38.8125 31.8691 38.8125C32.1816 38.8125 32.4473 38.7539 32.666 38.6367C32.8887 38.5234 33.0586 38.3555 33.1758 38.1328C33.2969 37.9141 33.3574 37.6445 33.3574 37.3242V32.6074L33.5039 31.1602ZM29.2207 34.4062V34.2832C29.2207 33.7988 29.2793 33.3594 29.3965 32.9648C29.5137 32.5664 29.6816 32.2246 29.9004 31.9395C30.123 31.6543 30.3906 31.4336 30.7031 31.2773C31.0195 31.1211 31.375 31.043 31.7695 31.043C32.1875 31.043 32.5391 31.1191 32.8242 31.2715C33.1133 31.4238 33.3516 31.6406 33.5391 31.9219C33.7305 32.2031 33.8789 32.5371 33.9844 32.9238C34.0938 33.3066 34.1777 33.7285 34.2363 34.1895V34.5234C34.1816 34.9727 34.0938 35.3848 33.9727 35.7598C33.8555 36.1348 33.6992 36.4629 33.5039 36.7441C33.3086 37.0215 33.0664 37.2363 32.7773 37.3887C32.4883 37.541 32.1484 37.6172 31.7578 37.6172C31.3672 37.6172 31.0156 37.5371 30.7031 37.377C30.3906 37.2168 30.123 36.9922 29.9004 36.7031C29.6816 36.4141 29.5137 36.0742 29.3965 35.6836C29.2793 35.293 29.2207 34.8672 29.2207 34.4062ZM30.7676 34.2832V34.4062C30.7676 34.6797 30.7949 34.9355 30.8496 35.1738C30.9043 35.4121 30.9883 35.623 31.1016 35.8066C31.2148 35.9863 31.3574 36.127 31.5293 36.2285C31.7012 36.3301 31.9062 36.3809 32.1445 36.3809C32.4648 36.3809 32.7266 36.3145 32.9297 36.1816C33.1367 36.0449 33.293 35.8594 33.3984 35.625C33.5078 35.3867 33.5781 35.1191 33.6094 34.8223V33.9023C33.5898 33.668 33.5469 33.4512 33.4805 33.252C33.418 33.0527 33.3301 32.8809 33.2168 32.7363C33.1035 32.5918 32.959 32.4785 32.7832 32.3965C32.6074 32.3145 32.3984 32.2734 32.1562 32.2734C31.9219 32.2734 31.7168 32.3262 31.541 32.4316C31.3652 32.5332 31.2207 32.6758 31.1074 32.8594C30.9941 33.043 30.9082 33.2559 30.8496 33.498C30.7949 33.7402 30.7676 34.002 30.7676 34.2832Z" fill="white"/>
</svg>
