<svg width="48" height="48" viewBox="0 0 48 48" fill="none" xmlns="http://www.w3.org/2000/svg">
<circle cx="24" cy="24" r="24" fill="white"/>
<path d="M18 29.3336V18.667C18 17.7874 18 17.3471 18.1851 17.0869C18.3466 16.8598 18.5956 16.7106 18.8721 16.675C19.1887 16.6342 19.577 16.8413 20.3525 17.2549L30.3525 22.5882L30.3562 22.5898C31.2132 23.0469 31.642 23.2756 31.7826 23.5803C31.9053 23.8462 31.9053 24.1531 31.7826 24.4189C31.6418 24.7241 31.212 24.9537 30.3525 25.4121L20.3525 30.7454C19.5765 31.1593 19.1888 31.3657 18.8721 31.3248C18.5956 31.2891 18.3466 31.1401 18.1851 30.9129C18 30.6527 18 30.2132 18 29.3336Z" fill="#17191B"/>
</svg>
