<svg width="48" height="48" viewBox="0 0 48 48" fill="none" xmlns="http://www.w3.org/2000/svg">
<path d="M10 10C10 8.11438 10 7.17157 10.5858 6.58579C11.1716 6 12.1144 6 14 6L27.728 6C28.5741 6 28.9972 6 29.3749 6.16207C29.7526 6.32415 30.0441 6.63079 30.6271 7.24406L36.8991 13.8419C37.4428 14.4138 37.7146 14.6998 37.8573 15.057C38 15.4142 38 15.8088 38 16.5979V38C38 39.8856 38 40.8284 37.4142 41.4142C36.8284 42 35.8856 42 34 42H14C12.1144 42 11.1716 42 10.5858 41.4142C10 40.8284 10 39.8856 10 38V10Z" fill="#00B2E3"/>
<path d="M27.8867 14.0205V9.7111C27.8867 8.82236 28.9594 8.37522 29.5906 9.00083L33.9388 13.3102C34.5731 13.9388 34.128 15.0205 33.2349 15.0205H28.8867C28.3344 15.0205 27.8867 14.5727 27.8867 14.0205Z" fill="white"/>
<path d="M14.291 36.7441C14.291 36.5098 14.3711 36.3125 14.5312 36.1523C14.6914 35.9922 14.9082 35.9121 15.1816 35.9121C15.4551 35.9121 15.6719 35.9922 15.832 36.1523C15.9922 36.3125 16.0723 36.5098 16.0723 36.7441C16.0723 36.9746 15.9922 37.1699 15.832 37.3301C15.6719 37.4863 15.4551 37.5645 15.1816 37.5645C14.9082 37.5645 14.6914 37.4863 14.5312 37.3301C14.3711 37.1699 14.291 36.9746 14.291 36.7441ZM19.1836 32.3789V39.9375H17.6309V31.1602H19.0664L19.1836 32.3789ZM23.2559 34.2656V34.3887C23.2559 34.8496 23.2012 35.2773 23.0918 35.6719C22.9863 36.0625 22.8301 36.4043 22.623 36.6973C22.416 36.9863 22.1582 37.2129 21.8496 37.377C21.5449 37.5371 21.1934 37.6172 20.7949 37.6172C20.4043 37.6172 20.0645 37.543 19.7754 37.3945C19.4863 37.2422 19.2422 37.0273 19.043 36.75C18.8438 36.4727 18.6836 36.1504 18.5625 35.7832C18.4453 35.4121 18.3574 35.0078 18.2988 34.5703V34.1777C18.3574 33.7129 18.4453 33.291 18.5625 32.9121C18.6836 32.5293 18.8438 32.1992 19.043 31.9219C19.2422 31.6406 19.4844 31.4238 19.7695 31.2715C20.0586 31.1191 20.3965 31.043 20.7832 31.043C21.1855 31.043 21.5391 31.1191 21.8438 31.2715C22.1523 31.4238 22.4121 31.6426 22.623 31.9277C22.834 32.2129 22.9922 32.5527 23.0977 32.9473C23.2031 33.3418 23.2559 33.7812 23.2559 34.2656ZM21.7031 34.3887V34.2656C21.7031 33.9844 21.6777 33.7246 21.627 33.4863C21.5762 33.2441 21.498 33.0332 21.3926 32.8535C21.2871 32.6699 21.1504 32.5273 20.9824 32.4258C20.8145 32.3242 20.6113 32.2734 20.373 32.2734C20.1348 32.2734 19.9297 32.3125 19.7578 32.3906C19.5859 32.4688 19.4453 32.5801 19.3359 32.7246C19.2266 32.8691 19.1406 33.041 19.0781 33.2402C19.0195 33.4355 18.9805 33.6523 18.9609 33.8906V34.8633C18.9961 35.1523 19.0645 35.4121 19.166 35.6426C19.2676 35.873 19.416 36.0566 19.6113 36.1934C19.8105 36.3301 20.0684 36.3984 20.3848 36.3984C20.623 36.3984 20.8262 36.3457 20.9941 36.2402C21.1621 36.1348 21.2988 35.9902 21.4043 35.8066C21.5098 35.6191 21.5859 35.4043 21.6328 35.1621C21.6797 34.9199 21.7031 34.6621 21.7031 34.3887ZM25.9336 32.3789V39.9375H24.3809V31.1602H25.8164L25.9336 32.3789ZM30.0059 34.2656V34.3887C30.0059 34.8496 29.9512 35.2773 29.8418 35.6719C29.7363 36.0625 29.5801 36.4043 29.373 36.6973C29.166 36.9863 28.9082 37.2129 28.5996 37.377C28.2949 37.5371 27.9434 37.6172 27.5449 37.6172C27.1543 37.6172 26.8145 37.543 26.5254 37.3945C26.2363 37.2422 25.9922 37.0273 25.793 36.75C25.5938 36.4727 25.4336 36.1504 25.3125 35.7832C25.1953 35.4121 25.1074 35.0078 25.0488 34.5703V34.1777C25.1074 33.7129 25.1953 33.291 25.3125 32.9121C25.4336 32.5293 25.5938 32.1992 25.793 31.9219C25.9922 31.6406 26.2344 31.4238 26.5195 31.2715C26.8086 31.1191 27.1465 31.043 27.5332 31.043C27.9355 31.043 28.2891 31.1191 28.5938 31.2715C28.9023 31.4238 29.1621 31.6426 29.373 31.9277C29.584 32.2129 29.7422 32.5527 29.8477 32.9473C29.9531 33.3418 30.0059 33.7812 30.0059 34.2656ZM28.4531 34.3887V34.2656C28.4531 33.9844 28.4277 33.7246 28.377 33.4863C28.3262 33.2441 28.248 33.0332 28.1426 32.8535C28.0371 32.6699 27.9004 32.5273 27.7324 32.4258C27.5645 32.3242 27.3613 32.2734 27.123 32.2734C26.8848 32.2734 26.6797 32.3125 26.5078 32.3906C26.3359 32.4688 26.1953 32.5801 26.0859 32.7246C25.9766 32.8691 25.8906 33.041 25.8281 33.2402C25.7695 33.4355 25.7305 33.6523 25.7109 33.8906V34.8633C25.7461 35.1523 25.8145 35.4121 25.916 35.6426C26.0176 35.873 26.166 36.0566 26.3613 36.1934C26.5605 36.3301 26.8184 36.3984 27.1348 36.3984C27.373 36.3984 27.5762 36.3457 27.7441 36.2402C27.9121 36.1348 28.0488 35.9902 28.1543 35.8066C28.2598 35.6191 28.3359 35.4043 28.3828 35.1621C28.4297 34.9199 28.4531 34.6621 28.4531 34.3887ZM34.1367 31.1602V32.2734H30.5039V31.1602H34.1367ZM31.4766 29.6016H33.0293V35.6719C33.0293 35.8594 33.0547 36.0039 33.1055 36.1055C33.1562 36.207 33.2324 36.2754 33.334 36.3105C33.4355 36.3457 33.5566 36.3633 33.6973 36.3633C33.7988 36.3633 33.8926 36.3574 33.9785 36.3457C34.0645 36.334 34.1367 36.3223 34.1953 36.3105L34.2012 37.4707C34.0723 37.5137 33.9258 37.5488 33.7617 37.5762C33.6016 37.6035 33.4199 37.6172 33.2168 37.6172C32.8691 37.6172 32.5645 37.5586 32.3027 37.4414C32.041 37.3203 31.8379 37.127 31.6934 36.8613C31.5488 36.5918 31.4766 36.2363 31.4766 35.7949V29.6016Z" fill="white"/>
</svg>
