<svg width="48" height="48" viewBox="0 0 48 48" fill="none" xmlns="http://www.w3.org/2000/svg">
<path d="M10 10C10 8.11438 10 7.17157 10.5858 6.58579C11.1716 6 12.1144 6 14 6L27.728 6C28.5741 6 28.9972 6 29.3749 6.16207C29.7526 6.32415 30.0441 6.63079 30.6271 7.24406L36.8991 13.8419C37.4428 14.4138 37.7146 14.6998 37.8573 15.057C38 15.4142 38 15.8088 38 16.5979V38C38 39.8856 38 40.8284 37.4142 41.4142C36.8284 42 35.8856 42 34 42H14C12.1144 42 11.1716 42 10.5858 41.4142C10 40.8284 10 39.8856 10 38V10Z" fill="#747576"/>
<path d="M27.8867 14.0205V9.7111C27.8867 8.82236 28.9594 8.37522 29.5906 9.00083L33.9388 13.3102C34.5731 13.9388 34.128 15.0205 33.2349 15.0205H28.8867C28.3344 15.0205 27.8867 14.5727 27.8867 14.0205Z" fill="white"/>
<path d="M13.3799 36.3701C13.3799 36.1748 13.4466 36.0104 13.5801 35.877C13.7135 35.7435 13.8942 35.6768 14.1221 35.6768C14.3499 35.6768 14.5306 35.7435 14.6641 35.877C14.7975 36.0104 14.8643 36.1748 14.8643 36.3701C14.8643 36.5622 14.7975 36.7249 14.6641 36.8584C14.5306 36.9886 14.3499 37.0537 14.1221 37.0537C13.8942 37.0537 13.7135 36.9886 13.5801 36.8584C13.4466 36.7249 13.3799 36.5622 13.3799 36.3701ZM17.457 32.7324V39.0312H16.1631V31.7168H17.3594L17.457 32.7324ZM20.8506 34.3047V34.4072C20.8506 34.7913 20.805 35.1478 20.7139 35.4766C20.626 35.8021 20.4958 36.0869 20.3232 36.3311C20.1507 36.5719 19.9359 36.7607 19.6787 36.8975C19.4248 37.0309 19.1318 37.0977 18.7998 37.0977C18.4743 37.0977 18.1911 37.0358 17.9502 36.9121C17.7093 36.7852 17.5059 36.6061 17.3398 36.375C17.1738 36.1439 17.0404 35.8753 16.9395 35.5693C16.8418 35.2601 16.7686 34.9232 16.7197 34.5586V34.2314C16.7686 33.8441 16.8418 33.4925 16.9395 33.1768C17.0404 32.8577 17.1738 32.5827 17.3398 32.3516C17.5059 32.1172 17.7077 31.9365 17.9453 31.8096C18.1862 31.6826 18.4678 31.6191 18.79 31.6191C19.1253 31.6191 19.4199 31.6826 19.6738 31.8096C19.931 31.9365 20.1475 32.1188 20.3232 32.3564C20.499 32.5941 20.6309 32.8773 20.7188 33.2061C20.8066 33.5348 20.8506 33.901 20.8506 34.3047ZM19.5566 34.4072V34.3047C19.5566 34.0703 19.5355 33.8538 19.4932 33.6553C19.4508 33.4535 19.3857 33.2777 19.2979 33.1279C19.21 32.9749 19.096 32.8561 18.9561 32.7715C18.8161 32.6868 18.6468 32.6445 18.4482 32.6445C18.2497 32.6445 18.0788 32.6771 17.9355 32.7422C17.7923 32.8073 17.6751 32.9001 17.584 33.0205C17.4928 33.141 17.4212 33.2842 17.3691 33.4502C17.3203 33.613 17.2878 33.7936 17.2715 33.9922V34.8027C17.3008 35.0436 17.3577 35.2601 17.4424 35.4521C17.527 35.6442 17.6507 35.7972 17.8135 35.9111C17.9795 36.0251 18.1943 36.082 18.458 36.082C18.6566 36.082 18.8258 36.0381 18.9658 35.9502C19.1058 35.8623 19.2197 35.7419 19.3076 35.5889C19.3955 35.4326 19.459 35.2536 19.498 35.0518C19.5371 34.8499 19.5566 34.6351 19.5566 34.4072ZM23.082 32.7324V39.0312H21.7881V31.7168H22.9844L23.082 32.7324ZM26.4756 34.3047V34.4072C26.4756 34.7913 26.43 35.1478 26.3389 35.4766C26.251 35.8021 26.1208 36.0869 25.9482 36.3311C25.7757 36.5719 25.5609 36.7607 25.3037 36.8975C25.0498 37.0309 24.7568 37.0977 24.4248 37.0977C24.0993 37.0977 23.8161 37.0358 23.5752 36.9121C23.3343 36.7852 23.1309 36.6061 22.9648 36.375C22.7988 36.1439 22.6654 35.8753 22.5645 35.5693C22.4668 35.2601 22.3936 34.9232 22.3447 34.5586V34.2314C22.3936 33.8441 22.4668 33.4925 22.5645 33.1768C22.6654 32.8577 22.7988 32.5827 22.9648 32.3516C23.1309 32.1172 23.3327 31.9365 23.5703 31.8096C23.8112 31.6826 24.0928 31.6191 24.415 31.6191C24.7503 31.6191 25.0449 31.6826 25.2988 31.8096C25.556 31.9365 25.7725 32.1188 25.9482 32.3564C26.124 32.5941 26.2559 32.8773 26.3438 33.2061C26.4316 33.5348 26.4756 33.901 26.4756 34.3047ZM25.1816 34.4072V34.3047C25.1816 34.0703 25.1605 33.8538 25.1182 33.6553C25.0758 33.4535 25.0107 33.2777 24.9229 33.1279C24.835 32.9749 24.721 32.8561 24.5811 32.7715C24.4411 32.6868 24.2718 32.6445 24.0732 32.6445C23.8747 32.6445 23.7038 32.6771 23.5605 32.7422C23.4173 32.8073 23.3001 32.9001 23.209 33.0205C23.1178 33.141 23.0462 33.2842 22.9941 33.4502C22.9453 33.613 22.9128 33.7936 22.8965 33.9922V34.8027C22.9258 35.0436 22.9827 35.2601 23.0674 35.4521C23.152 35.6442 23.2757 35.7972 23.4385 35.9111C23.6045 36.0251 23.8193 36.082 24.083 36.082C24.2816 36.082 24.4508 36.0381 24.5908 35.9502C24.7308 35.8623 24.8447 35.7419 24.9326 35.5889C25.0205 35.4326 25.084 35.2536 25.123 35.0518C25.1621 34.8499 25.1816 34.6351 25.1816 34.4072ZM29.918 31.7168V32.6445H26.8906V31.7168H29.918ZM27.7012 30.418H28.9951V35.4766C28.9951 35.6328 29.0163 35.7533 29.0586 35.8379C29.1009 35.9225 29.1644 35.9795 29.249 36.0088C29.3337 36.0381 29.4346 36.0527 29.5518 36.0527C29.6364 36.0527 29.7145 36.0479 29.7861 36.0381C29.8577 36.0283 29.918 36.0186 29.9668 36.0088L29.9717 36.9756C29.8643 37.0114 29.7422 37.0407 29.6055 37.0635C29.472 37.0863 29.3206 37.0977 29.1514 37.0977C28.8617 37.0977 28.6077 37.0488 28.3896 36.9512C28.1715 36.8503 28.0023 36.6891 27.8818 36.4678C27.7614 36.2432 27.7012 35.9469 27.7012 35.5791V30.418ZM31.7881 31.7168L32.7305 33.3965L33.6875 31.7168H35.0889L33.5361 34.3047L35.1523 37H33.751L32.7402 35.2373L31.7246 37H30.3232L31.9346 34.3047L30.3916 31.7168H31.7881Z" fill="white"/>
</svg>
