<svg width="48" height="48" viewBox="0 0 48 48" fill="none" xmlns="http://www.w3.org/2000/svg">
<path d="M10 10C10 8.11438 10 7.17157 10.5858 6.58579C11.1716 6 12.1144 6 14 6L27.728 6C28.5741 6 28.9972 6 29.3749 6.16207C29.7526 6.32415 30.0441 6.63079 30.6271 7.24406L36.8991 13.8419C37.4428 14.4138 37.7146 14.6998 37.8573 15.057C38 15.4142 38 15.8088 38 16.5979V38C38 39.8856 38 40.8284 37.4142 41.4142C36.8284 42 35.8856 42 34 42H14C12.1144 42 11.1716 42 10.5858 41.4142C10 40.8284 10 39.8856 10 38V10Z" fill="#747576"/>
<path d="M27.8867 14.0205V9.71111C27.8867 8.82236 28.9594 8.37522 29.5906 9.00084L33.9388 13.3102C34.5731 13.9388 34.128 15.0205 33.2349 15.0205H28.8867C28.3344 15.0205 27.8867 14.5727 27.8867 14.0205Z" fill="white"/>
<path d="M12.9551 36.7441C12.9551 36.5098 13.0352 36.3125 13.1953 36.1523C13.3555 35.9922 13.5723 35.9121 13.8457 35.9121C14.1191 35.9121 14.3359 35.9922 14.4961 36.1523C14.6562 36.3125 14.7363 36.5098 14.7363 36.7441C14.7363 36.9746 14.6562 37.1699 14.4961 37.3301C14.3359 37.4863 14.1191 37.5645 13.8457 37.5645C13.5723 37.5645 13.3555 37.4863 13.1953 37.3301C13.0352 37.1699 12.9551 36.9746 12.9551 36.7441ZM17.8477 32.3789V39.9375H16.2949V31.1602H17.7305L17.8477 32.3789ZM21.9199 34.2656V34.3887C21.9199 34.8496 21.8652 35.2773 21.7559 35.6719C21.6504 36.0625 21.4941 36.4043 21.2871 36.6973C21.0801 36.9863 20.8223 37.2129 20.5137 37.377C20.209 37.5371 19.8574 37.6172 19.459 37.6172C19.0684 37.6172 18.7285 37.543 18.4395 37.3945C18.1504 37.2422 17.9062 37.0273 17.707 36.75C17.5078 36.4727 17.3477 36.1504 17.2266 35.7832C17.1094 35.4121 17.0215 35.0078 16.9629 34.5703V34.1777C17.0215 33.7129 17.1094 33.291 17.2266 32.9121C17.3477 32.5293 17.5078 32.1992 17.707 31.9219C17.9062 31.6406 18.1484 31.4238 18.4336 31.2715C18.7227 31.1191 19.0605 31.043 19.4473 31.043C19.8496 31.043 20.2031 31.1191 20.5078 31.2715C20.8164 31.4238 21.0762 31.6426 21.2871 31.9277C21.498 32.2129 21.6562 32.5527 21.7617 32.9473C21.8672 33.3418 21.9199 33.7812 21.9199 34.2656ZM20.3672 34.3887V34.2656C20.3672 33.9844 20.3418 33.7246 20.291 33.4863C20.2402 33.2441 20.1621 33.0332 20.0566 32.8535C19.9512 32.6699 19.8145 32.5273 19.6465 32.4258C19.4785 32.3242 19.2754 32.2734 19.0371 32.2734C18.7988 32.2734 18.5938 32.3125 18.4219 32.3906C18.25 32.4688 18.1094 32.5801 18 32.7246C17.8906 32.8691 17.8047 33.041 17.7422 33.2402C17.6836 33.4355 17.6445 33.6523 17.625 33.8906V34.8633C17.6602 35.1523 17.7285 35.4121 17.8301 35.6426C17.9316 35.873 18.0801 36.0566 18.2754 36.1934C18.4746 36.3301 18.7324 36.3984 19.0488 36.3984C19.2871 36.3984 19.4902 36.3457 19.6582 36.2402C19.8262 36.1348 19.9629 35.9902 20.0684 35.8066C20.1738 35.6191 20.25 35.4043 20.2969 35.1621C20.3438 34.9199 20.3672 34.6621 20.3672 34.3887ZM26.8242 35.9941V31.1602H28.3828V37.5H26.918L26.8242 35.9941ZM27.0234 34.6816L27.5039 34.6699C27.5039 35.0957 27.457 35.4883 27.3633 35.8477C27.2695 36.207 27.123 36.5195 26.9238 36.7852C26.7285 37.0469 26.4805 37.252 26.1797 37.4004C25.8789 37.5449 25.5234 37.6172 25.1133 37.6172C24.8008 37.6172 24.5156 37.5742 24.2578 37.4883C24 37.3984 23.7773 37.2598 23.5898 37.0723C23.4062 36.8809 23.2637 36.6367 23.1621 36.3398C23.0605 36.0391 23.0098 35.6777 23.0098 35.2559V31.1602H24.5566V35.2676C24.5566 35.4785 24.5801 35.6543 24.627 35.7949C24.6777 35.9355 24.7461 36.0508 24.832 36.1406C24.9219 36.2266 25.0254 36.2891 25.1426 36.3281C25.2637 36.3633 25.3926 36.3809 25.5293 36.3809C25.9043 36.3809 26.1992 36.3066 26.4141 36.1582C26.6328 36.0059 26.7891 35.8027 26.8828 35.5488C26.9766 35.291 27.0234 35.002 27.0234 34.6816ZM29.748 28.5H31.3008V36.0996L31.1484 37.5H29.748V28.5ZM35.3789 34.2656V34.3887C35.3789 34.8613 35.3262 35.2949 35.2207 35.6895C35.1191 36.084 34.9648 36.4258 34.7578 36.7148C34.5508 37 34.293 37.2227 33.9844 37.3828C33.6797 37.5391 33.3223 37.6172 32.9121 37.6172C32.5215 37.6172 32.1816 37.541 31.8926 37.3887C31.6074 37.2363 31.3672 37.0215 31.1719 36.7441C30.9766 36.4629 30.8203 36.1328 30.7031 35.7539C30.5859 35.3711 30.498 34.9531 30.4395 34.5V34.166C30.498 33.709 30.5859 33.291 30.7031 32.9121C30.8203 32.5332 30.9766 32.2031 31.1719 31.9219C31.3672 31.6406 31.6074 31.4238 31.8926 31.2715C32.1777 31.1191 32.5137 31.043 32.9004 31.043C33.3145 31.043 33.6758 31.123 33.9844 31.2832C34.2969 31.4395 34.5547 31.6621 34.7578 31.9512C34.9648 32.2363 35.1191 32.5762 35.2207 32.9707C35.3262 33.3613 35.3789 33.793 35.3789 34.2656ZM33.8262 34.3887V34.2656C33.8262 33.9961 33.8047 33.7422 33.7617 33.5039C33.7188 33.2617 33.6484 33.0488 33.5508 32.8652C33.4531 32.6816 33.3203 32.5371 33.1523 32.4316C32.9844 32.3262 32.7734 32.2734 32.5195 32.2734C32.2773 32.2734 32.0703 32.3145 31.8984 32.3965C31.7305 32.4785 31.5898 32.5918 31.4766 32.7363C31.3672 32.8809 31.2812 33.0508 31.2188 33.2461C31.1602 33.4414 31.1211 33.6523 31.1016 33.8789V34.793C31.1289 35.0938 31.1934 35.3652 31.2949 35.6074C31.3965 35.8457 31.5469 36.0352 31.7461 36.1758C31.9492 36.3164 32.2109 36.3867 32.5312 36.3867C32.7812 36.3867 32.9902 36.3379 33.1582 36.2402C33.3262 36.1387 33.459 35.998 33.5566 35.8184C33.6543 35.6348 33.7227 35.4219 33.7617 35.1797C33.8047 34.9375 33.8262 34.6738 33.8262 34.3887Z" fill="white"/>
</svg>
