<svg width="48" height="48" viewBox="0 0 48 48" fill="none" xmlns="http://www.w3.org/2000/svg">
<path d="M10 10C10 8.11438 10 7.17157 10.5858 6.58579C11.1716 6 12.1144 6 14 6L27.728 6C28.5741 6 28.9972 6 29.3749 6.16207C29.7526 6.32415 30.0441 6.63079 30.6271 7.24406L36.8991 13.8419C37.4428 14.4138 37.7146 14.6998 37.8573 15.057C38 15.4142 38 15.8088 38 16.5979V38C38 39.8856 38 40.8284 37.4142 41.4142C36.8284 42 35.8856 42 34 42H14C12.1144 42 11.1716 42 10.5858 41.4142C10 40.8284 10 39.8856 10 38V10Z" fill="#00B2E3"/>
<path d="M27.8867 14.0205V9.71111C27.8867 8.82236 28.9594 8.37522 29.5906 9.00084L33.9388 13.3102C34.5731 13.9388 34.128 15.0205 33.2349 15.0205H28.8867C28.3344 15.0205 27.8867 14.5727 27.8867 14.0205Z" fill="white"/>
<path d="M15.6094 36.7441C15.6094 36.5098 15.6895 36.3125 15.8496 36.1523C16.0098 35.9922 16.2266 35.9121 16.5 35.9121C16.7734 35.9121 16.9902 35.9922 17.1504 36.1523C17.3105 36.3125 17.3906 36.5098 17.3906 36.7441C17.3906 36.9746 17.3105 37.1699 17.1504 37.3301C16.9902 37.4863 16.7734 37.5645 16.5 37.5645C16.2266 37.5645 16.0098 37.4863 15.8496 37.3301C15.6895 37.1699 15.6094 36.9746 15.6094 36.7441ZM20.502 32.4551V37.5H18.9551V31.1602H20.4199L20.502 32.4551ZM22.4297 31.1191L22.4062 32.5605C22.3203 32.5449 22.2227 32.5332 22.1133 32.5254C22.0078 32.5176 21.9082 32.5137 21.8145 32.5137C21.5762 32.5137 21.3672 32.5469 21.1875 32.6133C21.0078 32.6758 20.8574 32.7676 20.7363 32.8887C20.6191 33.0098 20.5293 33.1582 20.4668 33.334C20.4043 33.5059 20.3691 33.7012 20.3613 33.9199L20.0273 33.8789C20.0273 33.4766 20.0684 33.1035 20.1504 32.7598C20.2324 32.416 20.3516 32.1152 20.5078 31.8574C20.6641 31.5996 20.8594 31.4004 21.0938 31.2598C21.332 31.1152 21.6055 31.043 21.9141 31.043C22 31.043 22.0918 31.0508 22.1895 31.0664C22.291 31.0781 22.3711 31.0957 22.4297 31.1191ZM26.5723 36.1523V33.2285C26.5723 33.0137 26.5352 32.8281 26.4609 32.6719C26.3867 32.5156 26.2734 32.3945 26.1211 32.3086C25.9688 32.2227 25.7754 32.1797 25.541 32.1797C25.334 32.1797 25.1523 32.2148 24.9961 32.2852C24.8438 32.3555 24.7266 32.4551 24.6445 32.584C24.5625 32.709 24.5215 32.8535 24.5215 33.0176H22.9688C22.9688 32.7559 23.0312 32.5078 23.1562 32.2734C23.2812 32.0352 23.459 31.8242 23.6895 31.6406C23.9238 31.4531 24.2031 31.3066 24.5273 31.2012C24.8555 31.0957 25.2227 31.043 25.6289 31.043C26.1094 31.043 26.5371 31.125 26.9121 31.2891C27.291 31.4492 27.5879 31.6914 27.8027 32.0156C28.0215 32.3398 28.1309 32.748 28.1309 33.2402V36.0059C28.1309 36.3223 28.1504 36.5938 28.1895 36.8203C28.2324 37.043 28.2949 37.2363 28.377 37.4004V37.5H26.8008C26.7266 37.3398 26.6699 37.1367 26.6309 36.8906C26.5918 36.6406 26.5723 36.3945 26.5723 36.1523ZM26.7891 33.6387L26.8008 34.5586H25.8223C25.5801 34.5586 25.3672 34.584 25.1836 34.6348C25 34.6816 24.8496 34.752 24.7324 34.8457C24.6152 34.9355 24.5273 35.0449 24.4688 35.1738C24.4102 35.2988 24.3809 35.4414 24.3809 35.6016C24.3809 35.7578 24.416 35.8984 24.4863 36.0234C24.5605 36.1484 24.666 36.248 24.8027 36.3223C24.9434 36.3926 25.1074 36.4277 25.2949 36.4277C25.5684 36.4277 25.8066 36.373 26.0098 36.2637C26.2129 36.1504 26.3711 36.0137 26.4844 35.8535C26.5977 35.6934 26.6582 35.541 26.666 35.3965L27.1113 36.0645C27.0566 36.2246 26.9746 36.3945 26.8652 36.5742C26.7559 36.7539 26.6152 36.9219 26.4434 37.0781C26.2715 37.2344 26.0645 37.3633 25.8223 37.4648C25.5801 37.5664 25.2988 37.6172 24.9785 37.6172C24.5684 37.6172 24.2012 37.5352 23.877 37.3711C23.5527 37.207 23.2969 36.9824 23.1094 36.6973C22.9219 36.4121 22.8281 36.0879 22.8281 35.7246C22.8281 35.3887 22.8906 35.0918 23.0156 34.834C23.1406 34.5762 23.3262 34.3594 23.5723 34.1836C23.8184 34.0039 24.123 33.8691 24.4863 33.7793C24.8535 33.6855 25.2734 33.6387 25.7461 33.6387H26.7891ZM31.0723 32.4551V37.5H29.5254V31.1602H30.9902L31.0723 32.4551ZM33 31.1191L32.9766 32.5605C32.8906 32.5449 32.793 32.5332 32.6836 32.5254C32.5781 32.5176 32.4785 32.5137 32.3848 32.5137C32.1465 32.5137 31.9375 32.5469 31.7578 32.6133C31.5781 32.6758 31.4277 32.7676 31.3066 32.8887C31.1895 33.0098 31.0996 33.1582 31.0371 33.334C30.9746 33.5059 30.9395 33.7012 30.9316 33.9199L30.5977 33.8789C30.5977 33.4766 30.6387 33.1035 30.7207 32.7598C30.8027 32.416 30.9219 32.1152 31.0781 31.8574C31.2344 31.5996 31.4297 31.4004 31.6641 31.2598C31.9023 31.1152 32.1758 31.043 32.4844 31.043C32.5703 31.043 32.6621 31.0508 32.7598 31.0664C32.8613 31.0781 32.9414 31.0957 33 31.1191Z" fill="white"/>
</svg>
