<svg width="48" height="48" viewBox="0 0 48 48" fill="none" xmlns="http://www.w3.org/2000/svg">
<path d="M10 10C10 8.11438 10 7.17157 10.5858 6.58579C11.1716 6 12.1144 6 14 6L27.728 6C28.5741 6 28.9972 6 29.3749 6.16207C29.7526 6.32415 30.0441 6.63079 30.6271 7.24406L36.8991 13.8419C37.4428 14.4138 37.7146 14.6998 37.8573 15.057C38 15.4142 38 15.8088 38 16.5979V38C38 39.8856 38 40.8284 37.4142 41.4142C36.8284 42 35.8856 42 34 42H14C12.1144 42 11.1716 42 10.5858 41.4142C10 40.8284 10 39.8856 10 38V10Z" fill="#747576"/>
<path d="M27.8867 14.0205V9.7111C27.8867 8.82236 28.9594 8.37522 29.5906 9.00083L33.9388 13.3102C34.5731 13.9388 34.128 15.0205 33.2349 15.0205H28.8867C28.3344 15.0205 27.8867 14.5727 27.8867 14.0205Z" fill="white"/>
<path d="M16.5996 36.7441C16.5996 36.5098 16.6797 36.3125 16.8398 36.1523C17 35.9922 17.2168 35.9121 17.4902 35.9121C17.7637 35.9121 17.9805 35.9922 18.1406 36.1523C18.3008 36.3125 18.3809 36.5098 18.3809 36.7441C18.3809 36.9746 18.3008 37.1699 18.1406 37.3301C17.9805 37.4863 17.7637 37.5645 17.4902 37.5645C17.2168 37.5645 17 37.4863 16.8398 37.3301C16.6797 37.1699 16.5996 36.9746 16.5996 36.7441ZM21.4922 32.4551V37.5H19.9453V31.1602H21.4102L21.4922 32.4551ZM23.4199 31.1191L23.3965 32.5605C23.3105 32.5449 23.2129 32.5332 23.1035 32.5254C22.998 32.5176 22.8984 32.5137 22.8047 32.5137C22.5664 32.5137 22.3574 32.5469 22.1777 32.6133C21.998 32.6758 21.8477 32.7676 21.7266 32.8887C21.6094 33.0098 21.5195 33.1582 21.457 33.334C21.3945 33.5059 21.3594 33.7012 21.3516 33.9199L21.0176 33.8789C21.0176 33.4766 21.0586 33.1035 21.1406 32.7598C21.2227 32.416 21.3418 32.1152 21.498 31.8574C21.6543 31.5996 21.8496 31.4004 22.084 31.2598C22.3223 31.1152 22.5957 31.043 22.9043 31.043C22.9902 31.043 23.082 31.0508 23.1797 31.0664C23.2812 31.0781 23.3613 31.0957 23.4199 31.1191ZM27.5625 31.1602V32.2734H23.9297V31.1602H27.5625ZM24.9023 29.6016H26.4551V35.6719C26.4551 35.8594 26.4805 36.0039 26.5312 36.1055C26.582 36.207 26.6582 36.2754 26.7598 36.3105C26.8613 36.3457 26.9824 36.3633 27.123 36.3633C27.2246 36.3633 27.3184 36.3574 27.4043 36.3457C27.4902 36.334 27.5625 36.3223 27.6211 36.3105L27.627 37.4707C27.498 37.5137 27.3516 37.5488 27.1875 37.5762C27.0273 37.6035 26.8457 37.6172 26.6426 37.6172C26.2949 37.6172 25.9902 37.5586 25.7285 37.4414C25.4668 37.3203 25.2637 37.127 25.1191 36.8613C24.9746 36.5918 24.9023 36.2363 24.9023 35.7949V29.6016ZM30.6211 37.5H29.0625V30.5742C29.0625 30.0977 29.1543 29.6973 29.3379 29.373C29.5215 29.0449 29.7832 28.7969 30.123 28.6289C30.4629 28.4609 30.8633 28.377 31.3242 28.377C31.4766 28.377 31.6211 28.3867 31.7578 28.4062C31.8984 28.4258 32.0371 28.4531 32.1738 28.4883L32.1445 29.666C32.0703 29.6465 31.9883 29.6328 31.8984 29.625C31.8125 29.6172 31.7168 29.6133 31.6113 29.6133C31.4004 29.6133 31.2207 29.6504 31.0723 29.7246C30.9238 29.7988 30.8105 29.9082 30.7324 30.0527C30.6582 30.1934 30.6211 30.3672 30.6211 30.5742V37.5ZM31.9043 31.1602V32.2734H28.1074V31.1602H31.9043Z" fill="white"/>
</svg>
