<svg width="48" height="48" viewBox="0 0 48 48" fill="none" xmlns="http://www.w3.org/2000/svg">
<path d="M10 10C10 8.11438 10 7.17157 10.5858 6.58579C11.1716 6 12.1144 6 14 6L27.728 6C28.5741 6 28.9972 6 29.3749 6.16207C29.7526 6.32415 30.0441 6.63079 30.6271 7.24406L36.8991 13.8419C37.4428 14.4138 37.7146 14.6998 37.8573 15.057C38 15.4142 38 15.8088 38 16.5979V38C38 39.8856 38 40.8284 37.4142 41.4142C36.8284 42 35.8856 42 34 42H14C12.1144 42 11.1716 42 10.5858 41.4142C10 40.8284 10 39.8856 10 38V10Z" fill="#747576"/>
<path d="M27.8867 14.0205V9.7111C27.8867 8.82236 28.9594 8.37522 29.5906 9.00083L33.9388 13.3102C34.5731 13.9388 34.128 15.0205 33.2349 15.0205H28.8867C28.3344 15.0205 27.8867 14.5727 27.8867 14.0205Z" fill="white"/>
<path d="M16.6807 36.3701C16.6807 36.1748 16.7474 36.0104 16.8809 35.877C17.0143 35.7435 17.195 35.6768 17.4229 35.6768C17.6507 35.6768 17.8314 35.7435 17.9648 35.877C18.0983 36.0104 18.165 36.1748 18.165 36.3701C18.165 36.5622 18.0983 36.7249 17.9648 36.8584C17.8314 36.9886 17.6507 37.0537 17.4229 37.0537C17.195 37.0537 17.0143 36.9886 16.8809 36.8584C16.7474 36.7249 16.6807 36.5622 16.6807 36.3701ZM21.9688 31.7168V32.6445H18.9414V31.7168H21.9688ZM19.752 30.418H21.0459V35.4766C21.0459 35.6328 21.0671 35.7533 21.1094 35.8379C21.1517 35.9225 21.2152 35.9795 21.2998 36.0088C21.3844 36.0381 21.4854 36.0527 21.6025 36.0527C21.6872 36.0527 21.7653 36.0479 21.8369 36.0381C21.9085 36.0283 21.9688 36.0186 22.0176 36.0088L22.0225 36.9756C21.915 37.0114 21.793 37.0407 21.6562 37.0635C21.5228 37.0863 21.3714 37.0977 21.2021 37.0977C20.9124 37.0977 20.6585 37.0488 20.4404 36.9512C20.2223 36.8503 20.0531 36.6891 19.9326 36.4678C19.8122 36.2432 19.752 35.9469 19.752 35.5791V30.418ZM24.1953 31.7168V37H22.9014V31.7168H24.1953ZM22.8135 30.335C22.8135 30.1429 22.8786 29.9834 23.0088 29.8564C23.1423 29.7295 23.3213 29.666 23.5459 29.666C23.7705 29.666 23.9479 29.7295 24.0781 29.8564C24.2116 29.9834 24.2783 30.1429 24.2783 30.335C24.2783 30.5238 24.2116 30.6816 24.0781 30.8086C23.9479 30.9355 23.7705 30.999 23.5459 30.999C23.3213 30.999 23.1423 30.9355 23.0088 30.8086C22.8786 30.6816 22.8135 30.5238 22.8135 30.335ZM27.1152 37H25.8164V31.2285C25.8164 30.8314 25.8929 30.4977 26.0459 30.2275C26.1989 29.9541 26.417 29.7474 26.7002 29.6074C26.9834 29.4674 27.3171 29.3975 27.7012 29.3975C27.8281 29.3975 27.9486 29.4056 28.0625 29.4219C28.1797 29.4382 28.2952 29.4609 28.4092 29.4902L28.3848 30.4717C28.3229 30.4554 28.2546 30.444 28.1797 30.4375C28.1081 30.431 28.0283 30.4277 27.9404 30.4277C27.7646 30.4277 27.6149 30.4587 27.4912 30.5205C27.3675 30.5824 27.2731 30.6735 27.208 30.7939C27.1462 30.9111 27.1152 31.056 27.1152 31.2285V37ZM28.1846 31.7168V32.6445H25.0205V31.7168H28.1846ZM30.6699 37H29.3711V31.2285C29.3711 30.8314 29.4476 30.4977 29.6006 30.2275C29.7536 29.9541 29.9717 29.7474 30.2549 29.6074C30.5381 29.4674 30.8717 29.3975 31.2559 29.3975C31.3828 29.3975 31.5033 29.4056 31.6172 29.4219C31.7344 29.4382 31.8499 29.4609 31.9639 29.4902L31.9395 30.4717C31.8776 30.4554 31.8092 30.444 31.7344 30.4375C31.6628 30.431 31.583 30.4277 31.4951 30.4277C31.3193 30.4277 31.1696 30.4587 31.0459 30.5205C30.9222 30.5824 30.8278 30.6735 30.7627 30.7939C30.7008 30.9111 30.6699 31.056 30.6699 31.2285V37ZM31.7393 31.7168V32.6445H28.5752V31.7168H31.7393Z" fill="white"/>
</svg>
