<svg width="48" height="48" viewBox="0 0 48 48" fill="none" xmlns="http://www.w3.org/2000/svg">
<path d="M10 10C10 8.11438 10 7.17157 10.5858 6.58579C11.1716 6 12.1144 6 14 6L27.728 6C28.5741 6 28.9972 6 29.3749 6.16207C29.7526 6.32415 30.0441 6.63079 30.6271 7.24406L36.8991 13.8419C37.4428 14.4138 37.7146 14.6998 37.8573 15.057C38 15.4142 38 15.8088 38 16.5979V38C38 39.8856 38 40.8284 37.4142 41.4142C36.8284 42 35.8856 42 34 42H14C12.1144 42 11.1716 42 10.5858 41.4142C10 40.8284 10 39.8856 10 38V10Z" fill="#747576"/>
<path d="M27.8867 14.0205V9.7111C27.8867 8.82236 28.9594 8.37522 29.5906 9.00083L33.9388 13.3102C34.5731 13.9388 34.128 15.0205 33.2349 15.0205H28.8867C28.3344 15.0205 27.8867 14.5727 27.8867 14.0205Z" fill="white"/>
<path d="M15.9902 36.7441C15.9902 36.5098 16.0703 36.3125 16.2305 36.1523C16.3906 35.9922 16.6074 35.9121 16.8809 35.9121C17.1543 35.9121 17.3711 35.9922 17.5312 36.1523C17.6914 36.3125 17.7715 36.5098 17.7715 36.7441C17.7715 36.9746 17.6914 37.1699 17.5312 37.3301C17.3711 37.4863 17.1543 37.5645 16.8809 37.5645C16.6074 37.5645 16.3906 37.4863 16.2305 37.3301C16.0703 37.1699 15.9902 36.9746 15.9902 36.7441ZM22.3359 31.1602V32.2734H18.7031V31.1602H22.3359ZM19.6758 29.6016H21.2285V35.6719C21.2285 35.8594 21.2539 36.0039 21.3047 36.1055C21.3555 36.207 21.4316 36.2754 21.5332 36.3105C21.6348 36.3457 21.7559 36.3633 21.8965 36.3633C21.998 36.3633 22.0918 36.3574 22.1777 36.3457C22.2637 36.334 22.3359 36.3223 22.3945 36.3105L22.4004 37.4707C22.2715 37.5137 22.125 37.5488 21.9609 37.5762C21.8008 37.6035 21.6191 37.6172 21.416 37.6172C21.0684 37.6172 20.7637 37.5586 20.502 37.4414C20.2402 37.3203 20.0371 37.127 19.8926 36.8613C19.748 36.5918 19.6758 36.2363 19.6758 35.7949V29.6016ZM24.5801 31.1602L25.7109 33.1758L26.8594 31.1602H28.541L26.6777 34.2656L28.6172 37.5H26.9355L25.7227 35.3848L24.5039 37.5H22.8223L24.7559 34.2656L22.9043 31.1602H24.5801ZM32.4375 31.1602V32.2734H28.8047V31.1602H32.4375ZM29.7773 29.6016H31.3301V35.6719C31.3301 35.8594 31.3555 36.0039 31.4062 36.1055C31.457 36.207 31.5332 36.2754 31.6348 36.3105C31.7363 36.3457 31.8574 36.3633 31.998 36.3633C32.0996 36.3633 32.1934 36.3574 32.2793 36.3457C32.3652 36.334 32.4375 36.3223 32.4961 36.3105L32.502 37.4707C32.373 37.5137 32.2266 37.5488 32.0625 37.5762C31.9023 37.6035 31.7207 37.6172 31.5176 37.6172C31.1699 37.6172 30.8652 37.5586 30.6035 37.4414C30.3418 37.3203 30.1387 37.127 29.9941 36.8613C29.8496 36.5918 29.7773 36.2363 29.7773 35.7949V29.6016Z" fill="white"/>
</svg>
