<svg width="48" height="48" viewBox="0 0 48 48" fill="none" xmlns="http://www.w3.org/2000/svg">
<path d="M10 10C10 8.11438 10 7.17157 10.5858 6.58579C11.1716 6 12.1144 6 14 6L27.728 6C28.5741 6 28.9972 6 29.3749 6.16207C29.7526 6.32415 30.0441 6.63079 30.6271 7.24406L36.8991 13.8419C37.4428 14.4138 37.7146 14.6998 37.8573 15.057C38 15.4142 38 15.8088 38 16.5979V38C38 39.8856 38 40.8284 37.4142 41.4142C36.8284 42 35.8856 42 34 42H14C12.1144 42 11.1716 42 10.5858 41.4142C10 40.8284 10 39.8856 10 38V10Z" fill="#747576"/>
<path d="M27.8867 14.0205V9.71111C27.8867 8.82236 28.9594 8.37522 29.5906 9.00084L33.9388 13.3102C34.5731 13.9388 34.128 15.0205 33.2349 15.0205H28.8867C28.3344 15.0205 27.8867 14.5727 27.8867 14.0205Z" fill="white"/>
<path d="M12.4453 36.7441C12.4453 36.5098 12.5254 36.3125 12.6855 36.1523C12.8457 35.9922 13.0625 35.9121 13.3359 35.9121C13.6094 35.9121 13.8262 35.9922 13.9863 36.1523C14.1465 36.3125 14.2266 36.5098 14.2266 36.7441C14.2266 36.9746 14.1465 37.1699 13.9863 37.3301C13.8262 37.4863 13.6094 37.5645 13.3359 37.5645C13.0625 37.5645 12.8457 37.4863 12.6855 37.3301C12.5254 37.1699 12.4453 36.9746 12.4453 36.7441ZM17.5547 35.9766L18.9434 31.1602H19.9277L19.6348 32.8242L18.2344 37.5H17.3848L17.5547 35.9766ZM16.7871 31.1602L17.8301 35.9883L17.9238 37.5H16.9453L15.2812 31.1602H16.7871ZM21.2168 35.918L22.2363 31.1602H23.7363L22.084 37.5H21.1055L21.2168 35.918ZM20.0801 31.1602L21.457 35.9297L21.6387 37.5H20.7891L19.377 32.8242L19.0898 31.1602H20.0801ZM28.1426 36.1523V33.2285C28.1426 33.0137 28.1055 32.8281 28.0312 32.6719C27.957 32.5156 27.8438 32.3945 27.6914 32.3086C27.5391 32.2227 27.3457 32.1797 27.1113 32.1797C26.9043 32.1797 26.7227 32.2148 26.5664 32.2852C26.4141 32.3555 26.2969 32.4551 26.2148 32.584C26.1328 32.709 26.0918 32.8535 26.0918 33.0176H24.5391C24.5391 32.7559 24.6016 32.5078 24.7266 32.2734C24.8516 32.0352 25.0293 31.8242 25.2598 31.6406C25.4941 31.4531 25.7734 31.3066 26.0977 31.2012C26.4258 31.0957 26.793 31.043 27.1992 31.043C27.6797 31.043 28.1074 31.125 28.4824 31.2891C28.8613 31.4492 29.1582 31.6914 29.373 32.0156C29.5918 32.3398 29.7012 32.748 29.7012 33.2402V36.0059C29.7012 36.3223 29.7207 36.5938 29.7598 36.8203C29.8027 37.043 29.8652 37.2363 29.9473 37.4004V37.5H28.3711C28.2969 37.3398 28.2402 37.1367 28.2012 36.8906C28.1621 36.6406 28.1426 36.3945 28.1426 36.1523ZM28.3594 33.6387L28.3711 34.5586H27.3926C27.1504 34.5586 26.9375 34.584 26.7539 34.6348C26.5703 34.6816 26.4199 34.752 26.3027 34.8457C26.1855 34.9355 26.0977 35.0449 26.0391 35.1738C25.9805 35.2988 25.9512 35.4414 25.9512 35.6016C25.9512 35.7578 25.9863 35.8984 26.0566 36.0234C26.1309 36.1484 26.2363 36.248 26.373 36.3223C26.5137 36.3926 26.6777 36.4277 26.8652 36.4277C27.1387 36.4277 27.377 36.373 27.5801 36.2637C27.7832 36.1504 27.9414 36.0137 28.0547 35.8535C28.168 35.6934 28.2285 35.541 28.2363 35.3965L28.6816 36.0645C28.627 36.2246 28.5449 36.3945 28.4355 36.5742C28.3262 36.7539 28.1855 36.9219 28.0137 37.0781C27.8418 37.2344 27.6348 37.3633 27.3926 37.4648C27.1504 37.5664 26.8691 37.6172 26.5488 37.6172C26.1387 37.6172 25.7715 37.5352 25.4473 37.3711C25.123 37.207 24.8672 36.9824 24.6797 36.6973C24.4922 36.4121 24.3984 36.0879 24.3984 35.7246C24.3984 35.3887 24.4609 35.0918 24.5859 34.834C24.7109 34.5762 24.8965 34.3594 25.1426 34.1836C25.3887 34.0039 25.6934 33.8691 26.0566 33.7793C26.4238 33.6855 26.8438 33.6387 27.3164 33.6387H28.3594ZM33.1055 36.3281L34.582 31.1602H36.1992L34.0254 37.5H33.041L33.1055 36.3281ZM32.0273 31.1602L33.5215 36.3398L33.5742 37.5H32.584L30.4043 31.1602H32.0273Z" fill="white"/>
</svg>
