<svg width="48" height="48" viewBox="0 0 48 48" fill="none" xmlns="http://www.w3.org/2000/svg">
<path d="M10 10C10 8.11438 10 7.17157 10.5858 6.58579C11.1716 6 12.1144 6 14 6L27.728 6C28.5741 6 28.9972 6 29.3749 6.16207C29.7526 6.32415 30.0441 6.63079 30.6271 7.24406L36.8991 13.8419C37.4428 14.4138 37.7146 14.6998 37.8573 15.057C38 15.4142 38 15.8088 38 16.5979V38C38 39.8856 38 40.8284 37.4142 41.4142C36.8284 42 35.8856 42 34 42H14C12.1144 42 11.1716 42 10.5858 41.4142C10 40.8284 10 39.8856 10 38V10Z" fill="#00B2E3"/>
<path d="M27.8867 14.0205V9.7111C27.8867 8.82236 28.9594 8.37522 29.5906 9.00083L33.9388 13.3102C34.5731 13.9388 34.128 15.0205 33.2349 15.0205H28.8867C28.3344 15.0205 27.8867 14.5727 27.8867 14.0205Z" fill="white"/>
<path d="M15.375 36.7441C15.375 36.5098 15.4551 36.3125 15.6152 36.1523C15.7754 35.9922 15.9922 35.9121 16.2656 35.9121C16.5391 35.9121 16.7559 35.9922 16.916 36.1523C17.0762 36.3125 17.1562 36.5098 17.1562 36.7441C17.1562 36.9746 17.0762 37.1699 16.916 37.3301C16.7559 37.4863 16.5391 37.5645 16.2656 37.5645C15.9922 37.5645 15.7754 37.4863 15.6152 37.3301C15.4551 37.1699 15.375 36.9746 15.375 36.7441ZM19.9336 31.1602L21.0645 33.1758L22.2129 31.1602H23.8945L22.0312 34.2656L23.9707 37.5H22.2891L21.0762 35.3848L19.8574 37.5H18.1758L20.1094 34.2656L18.2578 31.1602H19.9336ZM26.4316 28.5V37.5H24.8789V28.5H26.4316ZM31.3945 35.7656C31.3945 35.6328 31.3594 35.5137 31.2891 35.4082C31.2188 35.3027 31.0859 35.207 30.8906 35.1211C30.6992 35.0312 30.418 34.9473 30.0469 34.8691C29.7188 34.7988 29.416 34.7109 29.1387 34.6055C28.8613 34.5 28.623 34.373 28.4238 34.2246C28.2246 34.0723 28.0684 33.8945 27.9551 33.6914C27.8457 33.4844 27.791 33.2461 27.791 32.9766C27.791 32.7148 27.8477 32.4688 27.9609 32.2383C28.0742 32.0039 28.2383 31.7988 28.4531 31.623C28.668 31.4434 28.9297 31.3027 29.2383 31.2012C29.5469 31.0957 29.8945 31.043 30.2812 31.043C30.8203 31.043 31.2832 31.1309 31.6699 31.3066C32.0605 31.4824 32.3594 31.7246 32.5664 32.0332C32.7734 32.3379 32.877 32.6816 32.877 33.0645H31.3301C31.3301 32.8965 31.291 32.7441 31.2129 32.6074C31.1387 32.4707 31.0234 32.3613 30.8672 32.2793C30.7109 32.1934 30.5137 32.1504 30.2754 32.1504C30.0605 32.1504 29.8789 32.1855 29.7305 32.2559C29.5859 32.3262 29.4766 32.418 29.4023 32.5312C29.3281 32.6445 29.291 32.7695 29.291 32.9062C29.291 33.0078 29.3105 33.0996 29.3496 33.1816C29.3926 33.2598 29.4609 33.332 29.5547 33.3984C29.6484 33.4648 29.7754 33.5254 29.9355 33.5801C30.0996 33.6348 30.3008 33.6875 30.5391 33.7383C31.0117 33.832 31.4238 33.957 31.7754 34.1133C32.1309 34.2656 32.4082 34.4688 32.6074 34.7227C32.8066 34.9766 32.9062 35.3008 32.9062 35.6953C32.9062 35.9766 32.8457 36.2344 32.7246 36.4688C32.6035 36.6992 32.4277 36.9004 32.1973 37.0723C31.9668 37.2441 31.6914 37.3789 31.3711 37.4766C31.0508 37.5703 30.6895 37.6172 30.2871 37.6172C29.7051 37.6172 29.2129 37.5137 28.8105 37.3066C28.4082 37.0957 28.1035 36.8301 27.8965 36.5098C27.6895 36.1855 27.5859 35.8496 27.5859 35.502H29.0684C29.0801 35.748 29.1465 35.9453 29.2676 36.0938C29.3887 36.2422 29.541 36.3496 29.7246 36.416C29.9121 36.4785 30.1094 36.5098 30.3164 36.5098C30.5508 36.5098 30.748 36.4785 30.9082 36.416C31.0684 36.3496 31.1895 36.2617 31.2715 36.1523C31.3535 36.0391 31.3945 35.9102 31.3945 35.7656Z" fill="white"/>
</svg>
