<svg width="48" height="48" viewBox="0 0 48 48" fill="none" xmlns="http://www.w3.org/2000/svg">
<path d="M10 10C10 8.11438 10 7.17157 10.5858 6.58579C11.1716 6 12.1144 6 14 6L27.728 6C28.5741 6 28.9972 6 29.3749 6.16207C29.7526 6.32415 30.0441 6.63079 30.6271 7.24406L36.8991 13.8419C37.4428 14.4138 37.7146 14.6998 37.8573 15.057C38 15.4142 38 15.8088 38 16.5979V38C38 39.8856 38 40.8284 37.4142 41.4142C36.8284 42 35.8856 42 34 42H14C12.1144 42 11.1716 42 10.5858 41.4142C10 40.8284 10 39.8856 10 38V10Z" fill="#00B2E3"/>
<path d="M27.8867 14.0205V9.7111C27.8867 8.82236 28.9594 8.37522 29.5906 9.00083L33.9388 13.3102C34.5731 13.9388 34.128 15.0205 33.2349 15.0205H28.8867C28.3344 15.0205 27.8867 14.5727 27.8867 14.0205Z" fill="white"/>
<path d="M14.2832 36.3701C14.2832 36.1748 14.3499 36.0104 14.4834 35.877C14.6169 35.7435 14.7975 35.6768 15.0254 35.6768C15.2533 35.6768 15.4339 35.7435 15.5674 35.877C15.7008 36.0104 15.7676 36.1748 15.7676 36.3701C15.7676 36.5622 15.7008 36.7249 15.5674 36.8584C15.4339 36.9886 15.2533 37.0537 15.0254 37.0537C14.7975 37.0537 14.6169 36.9886 14.4834 36.8584C14.3499 36.7249 14.2832 36.5622 14.2832 36.3701ZM18.082 31.7168L19.0244 33.3965L19.9814 31.7168H21.3828L19.8301 34.3047L21.4463 37H20.0449L19.0342 35.2373L18.0186 37H16.6172L18.2285 34.3047L16.6855 31.7168H18.082ZM23.4971 29.5V37H22.2031V29.5H23.4971ZM27.6328 35.5547C27.6328 35.444 27.6035 35.3447 27.5449 35.2568C27.4863 35.1689 27.3757 35.0892 27.2129 35.0176C27.0534 34.9427 26.819 34.8727 26.5098 34.8076C26.2363 34.749 25.984 34.6758 25.7529 34.5879C25.5218 34.5 25.3232 34.3942 25.1572 34.2705C24.9912 34.1436 24.861 33.9954 24.7666 33.8262C24.6755 33.6536 24.6299 33.4551 24.6299 33.2305C24.6299 33.0124 24.6771 32.8073 24.7715 32.6152C24.8659 32.4199 25.0026 32.249 25.1816 32.1025C25.3607 31.9528 25.5788 31.8356 25.8359 31.751C26.0931 31.6631 26.3828 31.6191 26.7051 31.6191C27.1543 31.6191 27.54 31.6924 27.8623 31.8389C28.1878 31.9854 28.4368 32.1872 28.6094 32.4443C28.7819 32.6982 28.8682 32.9847 28.8682 33.3037H27.5791C27.5791 33.1637 27.5465 33.0368 27.4814 32.9229C27.4196 32.8089 27.3236 32.7178 27.1934 32.6494C27.0632 32.5778 26.8988 32.542 26.7002 32.542C26.5212 32.542 26.3698 32.5713 26.2461 32.6299C26.1257 32.6885 26.0345 32.765 25.9727 32.8594C25.9108 32.9538 25.8799 33.0579 25.8799 33.1719C25.8799 33.2565 25.8962 33.333 25.9287 33.4014C25.9645 33.4665 26.0215 33.5267 26.0996 33.582C26.1777 33.6374 26.2835 33.6878 26.417 33.7334C26.5537 33.779 26.7214 33.8229 26.9199 33.8652C27.3138 33.9434 27.6572 34.0475 27.9502 34.1777C28.2464 34.3047 28.4775 34.474 28.6436 34.6855C28.8096 34.8971 28.8926 35.1673 28.8926 35.4961C28.8926 35.7305 28.8421 35.9453 28.7412 36.1406C28.6403 36.3327 28.4938 36.5003 28.3018 36.6436C28.1097 36.7868 27.8802 36.8991 27.6133 36.9805C27.3464 37.0586 27.0452 37.0977 26.71 37.0977C26.2249 37.0977 25.8148 37.0114 25.4795 36.8389C25.1442 36.6631 24.8903 36.4417 24.7178 36.1748C24.5452 35.9046 24.459 35.6247 24.459 35.335H25.6943C25.7041 35.54 25.7594 35.7044 25.8604 35.8281C25.9613 35.9518 26.0882 36.0413 26.2412 36.0967C26.3975 36.1488 26.5618 36.1748 26.7344 36.1748C26.9297 36.1748 27.0941 36.1488 27.2275 36.0967C27.361 36.0413 27.4619 35.9681 27.5303 35.877C27.5986 35.7826 27.6328 35.6751 27.6328 35.5547ZM30.8848 31.7168L31.8271 33.3965L32.7842 31.7168H34.1855L32.6328 34.3047L34.249 37H32.8477L31.8369 35.2373L30.8213 37H29.4199L31.0312 34.3047L29.4883 31.7168H30.8848Z" fill="white"/>
</svg>
