<svg width="48" height="48" viewBox="0 0 48 48" fill="none" xmlns="http://www.w3.org/2000/svg">
<path d="M10 10C10 8.11438 10 7.17157 10.5858 6.58579C11.1716 6 12.1144 6 14 6L27.728 6C28.5741 6 28.9972 6 29.3749 6.16207C29.7526 6.32415 30.0441 6.63079 30.6271 7.24406L36.8991 13.8419C37.4428 14.4138 37.7146 14.6998 37.8573 15.057C38 15.4142 38 15.8088 38 16.5979V38C38 39.8856 38 40.8284 37.4142 41.4142C36.8284 42 35.8856 42 34 42H14C12.1144 42 11.1716 42 10.5858 41.4142C10 40.8284 10 39.8856 10 38V10Z" fill="#747576"/>
<path d="M27.8867 14.0205V9.71111C27.8867 8.82236 28.9594 8.37522 29.5906 9.00084L33.9388 13.3102C34.5731 13.9388 34.128 15.0205 33.2349 15.0205H28.8867C28.3344 15.0205 27.8867 14.5727 27.8867 14.0205Z" fill="white"/>
<path d="M15.0879 36.7441C15.0879 36.5098 15.168 36.3125 15.3281 36.1523C15.4883 35.9922 15.7051 35.9121 15.9785 35.9121C16.252 35.9121 16.4688 35.9922 16.6289 36.1523C16.7891 36.3125 16.8691 36.5098 16.8691 36.7441C16.8691 36.9746 16.7891 37.1699 16.6289 37.3301C16.4688 37.4863 16.252 37.5645 15.9785 37.5645C15.7051 37.5645 15.4883 37.4863 15.3281 37.3301C15.168 37.1699 15.0879 36.9746 15.0879 36.7441ZM23.4023 36.2812V37.5H18.6328V36.2812H23.4023ZM23.291 32.0859L19.2129 37.5H18.1934V36.5449L22.248 31.1602H23.291V32.0859ZM22.7227 31.1602V32.3848H18.2754V31.1602H22.7227ZM26.1445 31.1602V37.5H24.5918V31.1602H26.1445ZM24.4863 29.502C24.4863 29.2715 24.5645 29.0801 24.7207 28.9277C24.8809 28.7754 25.0957 28.6992 25.3652 28.6992C25.6348 28.6992 25.8477 28.7754 26.0039 28.9277C26.1641 29.0801 26.2441 29.2715 26.2441 29.502C26.2441 29.7285 26.1641 29.918 26.0039 30.0703C25.8477 30.2227 25.6348 30.2988 25.3652 30.2988C25.0957 30.2988 24.8809 30.2227 24.7207 30.0703C24.5645 29.918 24.4863 29.7285 24.4863 29.502ZM29.168 32.3789V39.9375H27.6152V31.1602H29.0508L29.168 32.3789ZM33.2402 34.2656V34.3887C33.2402 34.8496 33.1855 35.2773 33.0762 35.6719C32.9707 36.0625 32.8145 36.4043 32.6074 36.6973C32.4004 36.9863 32.1426 37.2129 31.834 37.377C31.5293 37.5371 31.1777 37.6172 30.7793 37.6172C30.3887 37.6172 30.0488 37.543 29.7598 37.3945C29.4707 37.2422 29.2266 37.0273 29.0273 36.75C28.8281 36.4727 28.668 36.1504 28.5469 35.7832C28.4297 35.4121 28.3418 35.0078 28.2832 34.5703V34.1777C28.3418 33.7129 28.4297 33.291 28.5469 32.9121C28.668 32.5293 28.8281 32.1992 29.0273 31.9219C29.2266 31.6406 29.4688 31.4238 29.7539 31.2715C30.043 31.1191 30.3809 31.043 30.7676 31.043C31.1699 31.043 31.5234 31.1191 31.8281 31.2715C32.1367 31.4238 32.3965 31.6426 32.6074 31.9277C32.8184 32.2129 32.9766 32.5527 33.082 32.9473C33.1875 33.3418 33.2402 33.7812 33.2402 34.2656ZM31.6875 34.3887V34.2656C31.6875 33.9844 31.6621 33.7246 31.6113 33.4863C31.5605 33.2441 31.4824 33.0332 31.377 32.8535C31.2715 32.6699 31.1348 32.5273 30.9668 32.4258C30.7988 32.3242 30.5957 32.2734 30.3574 32.2734C30.1191 32.2734 29.9141 32.3125 29.7422 32.3906C29.5703 32.4688 29.4297 32.5801 29.3203 32.7246C29.2109 32.8691 29.125 33.041 29.0625 33.2402C29.0039 33.4355 28.9648 33.6523 28.9453 33.8906V34.8633C28.9805 35.1523 29.0488 35.4121 29.1504 35.6426C29.252 35.873 29.4004 36.0566 29.5957 36.1934C29.7949 36.3301 30.0527 36.3984 30.3691 36.3984C30.6074 36.3984 30.8105 36.3457 30.9785 36.2402C31.1465 36.1348 31.2832 35.9902 31.3887 35.8066C31.4941 35.6191 31.5703 35.4043 31.6172 35.1621C31.6641 34.9199 31.6875 34.6621 31.6875 34.3887Z" fill="white"/>
</svg>
