<svg width="821" height="427" viewBox="0 0 821 427" fill="none" xmlns="http://www.w3.org/2000/svg">
<path d="M25.5781 47V31H28.4766V44.5703H35.5234V47H25.5781ZM41.3672 47.2422C40.6068 47.2422 39.9219 47.1068 39.3125 46.8359C38.7083 46.5599 38.2292 46.1536 37.875 45.6172C37.526 45.0807 37.3516 44.4193 37.3516 43.6328C37.3516 42.9557 37.4766 42.3958 37.7266 41.9531C37.9766 41.5104 38.3177 41.1562 38.75 40.8906C39.1823 40.625 39.6693 40.4245 40.2109 40.2891C40.7578 40.1484 41.3229 40.0469 41.9063 39.9844C42.6094 39.9115 43.1797 39.8464 43.6172 39.7891C44.0547 39.7266 44.3724 39.6328 44.5703 39.5078C44.7734 39.3776 44.875 39.1771 44.875 38.9062V38.8594C44.875 38.2708 44.7005 37.8151 44.3516 37.4922C44.0026 37.1693 43.5 37.0078 42.8438 37.0078C42.151 37.0078 41.6016 37.1589 41.1953 37.4609C40.7943 37.763 40.5234 38.1198 40.3828 38.5312L37.7422 38.1562C37.9505 37.4271 38.2943 36.8177 38.7734 36.3281C39.2526 35.8333 39.8385 35.4635 40.5312 35.2187C41.224 34.9688 41.9896 34.8438 42.8281 34.8438C43.4063 34.8438 43.9818 34.9115 44.5547 35.0469C45.1276 35.1823 45.651 35.4062 46.125 35.7187C46.599 36.026 46.9792 36.4453 47.2656 36.9766C47.5573 37.5078 47.7031 38.1719 47.7031 38.9687V47H44.9844V45.3516H44.8906C44.7188 45.6849 44.4766 45.9974 44.1641 46.2891C43.8568 46.5755 43.4688 46.8073 43 46.9844C42.5365 47.1563 41.9922 47.2422 41.3672 47.2422ZM42.1016 45.1641C42.6693 45.1641 43.1615 45.0521 43.5781 44.8281C43.9948 44.599 44.3151 44.2969 44.5391 43.9219C44.7682 43.5469 44.8828 43.138 44.8828 42.6953V41.2812C44.7943 41.3542 44.6432 41.4219 44.4297 41.4844C44.2214 41.5469 43.987 41.6016 43.7266 41.6484C43.4661 41.6953 43.2083 41.737 42.9531 41.7734C42.6979 41.8099 42.4766 41.8411 42.2891 41.8672C41.8672 41.9245 41.4896 42.0182 41.1563 42.1484C40.8229 42.2786 40.5599 42.4609 40.3672 42.6953C40.1745 42.9245 40.0781 43.2214 40.0781 43.5859C40.0781 44.1068 40.2682 44.5 40.6484 44.7656C41.0286 45.0312 41.513 45.1641 42.1016 45.1641ZM50.6719 47V31H53.5V36.9844H53.6172C53.763 36.6927 53.9688 36.3828 54.2344 36.0547C54.5 35.7214 54.8594 35.4375 55.3125 35.2031C55.7656 34.9635 56.3438 34.8438 57.0469 34.8438C57.974 34.8438 58.8099 35.0807 59.5547 35.5547C60.3047 36.0234 60.8984 36.7187 61.3359 37.6406C61.7786 38.5573 62 39.6823 62 41.0156C62 42.3333 61.7839 43.4531 61.3516 44.375C60.9193 45.2969 60.3307 46 59.5859 46.4844C58.8411 46.9688 57.9974 47.2109 57.0547 47.2109C56.3672 47.2109 55.7969 47.0964 55.3437 46.8672C54.8906 46.638 54.526 46.362 54.25 46.0391C53.9792 45.7109 53.7682 45.401 53.6172 45.1094H53.4531V47H50.6719ZM53.4453 41C53.4453 41.776 53.5547 42.4557 53.7734 43.0391C53.9974 43.6224 54.3177 44.0781 54.7344 44.4062C55.1563 44.7292 55.6667 44.8906 56.2656 44.8906C56.8906 44.8906 57.4141 44.724 57.8359 44.3906C58.2578 44.0521 58.5755 43.5911 58.7891 43.0078C59.0078 42.4193 59.1172 41.75 59.1172 41C59.1172 40.2552 59.0104 39.5937 58.7969 39.0156C58.5833 38.4375 58.2656 37.9844 57.8438 37.6562C57.4219 37.3281 56.8958 37.1641 56.2656 37.1641C55.6615 37.1641 55.1484 37.3229 54.7266 37.6406C54.3047 37.9583 53.9844 38.4036 53.7656 38.9766C53.5521 39.5495 53.4453 40.224 53.4453 41ZM69.7168 47.2344C68.5137 47.2344 67.4746 46.9844 66.5996 46.4844C65.7298 45.9792 65.0605 45.2656 64.5918 44.3437C64.123 43.4167 63.8887 42.3255 63.8887 41.0703C63.8887 39.8359 64.123 38.7526 64.5918 37.8203C65.0658 36.8828 65.7272 36.1536 66.5762 35.6328C67.4251 35.1068 68.4225 34.8438 69.5684 34.8438C70.3079 34.8438 71.0059 34.9635 71.6621 35.2031C72.3236 35.4375 72.9069 35.8021 73.4121 36.2969C73.9225 36.7917 74.3236 37.4219 74.6152 38.1875C74.9069 38.9479 75.0527 39.8542 75.0527 40.9062V41.7734H65.2168V39.8672H72.3418C72.3366 39.3255 72.2194 38.8437 71.9902 38.4219C71.7611 37.9948 71.4408 37.6589 71.0293 37.4141C70.623 37.1693 70.1491 37.0469 69.6074 37.0469C69.0293 37.0469 68.5215 37.1875 68.084 37.4687C67.6465 37.7448 67.3053 38.1094 67.0605 38.5625C66.821 39.0104 66.6986 39.5026 66.6934 40.0391V41.7031C66.6934 42.401 66.821 43 67.0762 43.5C67.3314 43.9948 67.6882 44.375 68.1465 44.6406C68.6048 44.901 69.1413 45.0312 69.7559 45.0312C70.1673 45.0312 70.5397 44.974 70.873 44.8594C71.2064 44.7396 71.4954 44.5651 71.7402 44.3359C71.985 44.1068 72.1699 43.8229 72.2949 43.4844L74.9355 43.7812C74.7689 44.4792 74.4512 45.0885 73.9824 45.6094C73.5189 46.125 72.9251 46.526 72.2012 46.8125C71.4772 47.0937 70.6491 47.2344 69.7168 47.2344ZM80.2734 31V47H77.4453V31H80.2734Z" fill="black"/>
<path d="M300.78 64.5V340.5" stroke="#D9D9D9" stroke-width="0.5"/>
<path d="M408.711 64.5V340.5" stroke="#D9D9D9" stroke-width="0.5"/>
<path d="M515.643 64.5V340.5" stroke="#D9D9D9" stroke-width="0.5"/>
<path d="M622.574 64.5V340.5" stroke="#D9D9D9" stroke-width="0.5"/>
<path d="M730.505 64.5V340.5" stroke="#D9D9D9" stroke-width="0.5"/>
<path d="M300.78 340.5V64.5" stroke="#BFBFBF" stroke-width="0.5" stroke-linecap="round"/>
<path d="M300.976 318H295.979" stroke="#D9D9D9"/>
<path d="M300.976 272H295.979" stroke="#D9D9D9"/>
<path d="M300.976 226H295.979" stroke="#D9D9D9"/>
<path d="M300.976 180H295.979" stroke="#D9D9D9"/>
<path d="M300.976 134H295.979" stroke="#D9D9D9"/>
<path d="M300.976 88H295.979" stroke="#D9D9D9"/>
<path d="M266.146 321.5V320.733L269.027 317.58C269.365 317.21 269.643 316.889 269.862 316.616C270.081 316.341 270.242 316.082 270.348 315.841C270.456 315.597 270.51 315.341 270.51 315.074C270.51 314.767 270.436 314.501 270.288 314.277C270.143 314.053 269.944 313.879 269.691 313.757C269.439 313.635 269.154 313.574 268.839 313.574C268.504 313.574 268.211 313.643 267.961 313.783C267.714 313.919 267.522 314.111 267.386 314.358C267.252 314.605 267.186 314.895 267.186 315.227H266.18C266.18 314.716 266.298 314.267 266.534 313.881C266.769 313.494 267.091 313.193 267.497 312.977C267.906 312.761 268.365 312.653 268.873 312.653C269.385 312.653 269.838 312.761 270.233 312.977C270.627 313.193 270.937 313.484 271.162 313.851C271.386 314.217 271.498 314.625 271.498 315.074C271.498 315.395 271.44 315.709 271.323 316.016C271.21 316.32 271.011 316.659 270.727 317.034C270.446 317.406 270.055 317.861 269.555 318.398L267.595 320.494V320.562H271.652V321.5H266.146ZM276.258 321.619C275.616 321.619 275.069 321.445 274.617 321.095C274.166 320.743 273.821 320.233 273.582 319.565C273.343 318.895 273.224 318.085 273.224 317.136C273.224 316.193 273.343 315.388 273.582 314.72C273.823 314.05 274.17 313.538 274.622 313.186C275.076 312.831 275.622 312.653 276.258 312.653C276.894 312.653 277.439 312.831 277.89 313.186C278.345 313.538 278.691 314.05 278.93 314.72C279.171 315.388 279.292 316.193 279.292 317.136C279.292 318.085 279.173 318.895 278.934 319.565C278.696 320.233 278.35 320.743 277.899 321.095C277.447 321.445 276.9 321.619 276.258 321.619ZM276.258 320.682C276.894 320.682 277.389 320.375 277.741 319.761C278.093 319.148 278.269 318.273 278.269 317.136C278.269 316.381 278.189 315.737 278.027 315.206C277.867 314.675 277.637 314.27 277.336 313.991C277.038 313.713 276.679 313.574 276.258 313.574C275.627 313.574 275.135 313.885 274.779 314.507C274.424 315.126 274.247 316.003 274.247 317.136C274.247 317.892 274.326 318.534 274.485 319.062C274.644 319.591 274.873 319.993 275.171 320.268C275.473 320.544 275.835 320.682 276.258 320.682ZM283.98 312.773V321.5H282.923V313.881H282.872L280.741 315.295V314.222L282.923 312.773H283.98ZM289.285 321.619C288.7 321.619 288.183 321.516 287.734 321.308C287.288 321.098 286.94 320.81 286.69 320.443C286.44 320.074 286.316 319.653 286.319 319.182C286.316 318.812 286.389 318.472 286.537 318.159C286.684 317.844 286.886 317.581 287.142 317.371C287.4 317.158 287.689 317.023 288.007 316.966V316.915C287.589 316.807 287.257 316.572 287.01 316.212C286.762 315.848 286.64 315.435 286.643 314.972C286.64 314.528 286.752 314.132 286.98 313.783C287.207 313.433 287.519 313.158 287.917 312.956C288.318 312.754 288.774 312.653 289.285 312.653C289.791 312.653 290.242 312.754 290.64 312.956C291.038 313.158 291.35 313.433 291.578 313.783C291.808 314.132 291.924 314.528 291.927 314.972C291.924 315.435 291.798 315.848 291.548 316.212C291.301 316.572 290.973 316.807 290.564 316.915V316.966C290.879 317.023 291.163 317.158 291.416 317.371C291.669 317.581 291.87 317.844 292.021 318.159C292.171 318.472 292.248 318.812 292.251 319.182C292.248 319.653 292.12 320.074 291.867 320.443C291.617 320.81 291.269 321.098 290.823 321.308C290.38 321.516 289.867 321.619 289.285 321.619ZM289.285 320.682C289.68 320.682 290.021 320.618 290.308 320.49C290.595 320.362 290.816 320.182 290.973 319.949C291.129 319.716 291.208 319.443 291.211 319.131C291.208 318.801 291.123 318.51 290.956 318.257C290.788 318.004 290.559 317.805 290.269 317.661C289.983 317.516 289.654 317.443 289.285 317.443C288.913 317.443 288.581 317.516 288.288 317.661C287.998 317.805 287.769 318.004 287.602 318.257C287.437 318.51 287.356 318.801 287.359 319.131C287.356 319.443 287.431 319.716 287.585 319.949C287.741 320.182 287.964 320.362 288.254 320.49C288.544 320.618 288.887 320.682 289.285 320.682ZM289.285 316.54C289.598 316.54 289.875 316.477 290.116 316.352C290.36 316.227 290.552 316.053 290.691 315.828C290.831 315.604 290.902 315.341 290.904 315.04C290.902 314.744 290.832 314.487 290.696 314.268C290.559 314.047 290.37 313.876 290.129 313.757C289.887 313.635 289.606 313.574 289.285 313.574C288.958 313.574 288.673 313.635 288.429 313.757C288.184 313.876 287.995 314.047 287.862 314.268C287.728 314.487 287.663 314.744 287.666 315.04C287.663 315.341 287.73 315.604 287.866 315.828C288.005 316.053 288.197 316.227 288.441 316.352C288.686 316.477 288.967 316.54 289.285 316.54Z" fill="#17191B"/>
<path d="M266.052 275.5V274.733L268.933 271.58C269.271 271.21 269.549 270.889 269.768 270.616C269.987 270.341 270.149 270.082 270.254 269.841C270.362 269.597 270.416 269.341 270.416 269.074C270.416 268.767 270.342 268.501 270.194 268.277C270.049 268.053 269.85 267.879 269.598 267.757C269.345 267.635 269.061 267.574 268.745 267.574C268.41 267.574 268.117 267.643 267.867 267.783C267.62 267.919 267.429 268.111 267.292 268.358C267.159 268.605 267.092 268.895 267.092 269.227H266.086C266.086 268.716 266.204 268.267 266.44 267.881C266.676 267.494 266.997 267.193 267.403 266.977C267.812 266.761 268.271 266.653 268.779 266.653C269.291 266.653 269.744 266.761 270.139 266.977C270.534 267.193 270.843 267.484 271.068 267.851C271.292 268.217 271.404 268.625 271.404 269.074C271.404 269.395 271.346 269.709 271.23 270.016C271.116 270.32 270.917 270.659 270.633 271.034C270.352 271.406 269.961 271.861 269.461 272.398L267.501 274.494V274.562H271.558V275.5H266.052ZM276.164 275.619C275.522 275.619 274.975 275.445 274.524 275.095C274.072 274.743 273.727 274.233 273.488 273.565C273.25 272.895 273.13 272.085 273.13 271.136C273.13 270.193 273.25 269.388 273.488 268.72C273.73 268.05 274.076 267.538 274.528 267.186C274.983 266.831 275.528 266.653 276.164 266.653C276.801 266.653 277.345 266.831 277.796 267.186C278.251 267.538 278.598 268.05 278.836 268.72C279.078 269.388 279.198 270.193 279.198 271.136C279.198 272.085 279.079 272.895 278.841 273.565C278.602 274.233 278.257 274.743 277.805 275.095C277.353 275.445 276.806 275.619 276.164 275.619ZM276.164 274.682C276.801 274.682 277.295 274.375 277.647 273.761C278 273.148 278.176 272.273 278.176 271.136C278.176 270.381 278.095 269.737 277.933 269.206C277.774 268.675 277.544 268.27 277.242 267.991C276.944 267.713 276.585 267.574 276.164 267.574C275.534 267.574 275.041 267.885 274.686 268.507C274.331 269.126 274.153 270.003 274.153 271.136C274.153 271.892 274.233 272.534 274.392 273.062C274.551 273.591 274.779 273.993 275.078 274.268C275.379 274.544 275.741 274.682 276.164 274.682ZM283.886 266.773V275.5H282.829V267.881H282.778L280.647 269.295V268.222L282.829 266.773H283.886ZM289.174 266.653C289.532 266.656 289.89 266.724 290.248 266.858C290.606 266.991 290.933 267.213 291.228 267.523C291.524 267.83 291.761 268.249 291.94 268.78C292.119 269.311 292.208 269.977 292.208 270.778C292.208 271.554 292.135 272.243 291.987 272.845C291.842 273.445 291.632 273.95 291.356 274.362C291.083 274.774 290.751 275.087 290.359 275.3C289.97 275.513 289.529 275.619 289.038 275.619C288.549 275.619 288.113 275.523 287.73 275.33C287.349 275.134 287.037 274.862 286.792 274.516C286.551 274.166 286.396 273.761 286.328 273.301H287.367C287.461 273.702 287.647 274.033 287.926 274.294C288.207 274.553 288.578 274.682 289.038 274.682C289.711 274.682 290.242 274.388 290.632 273.8C291.024 273.212 291.22 272.381 291.22 271.307H291.152C290.992 271.545 290.804 271.751 290.585 271.925C290.366 272.098 290.123 272.232 289.856 272.325C289.589 272.419 289.305 272.466 289.004 272.466C288.504 272.466 288.045 272.342 287.627 272.095C287.213 271.845 286.88 271.503 286.63 271.068C286.383 270.631 286.26 270.131 286.26 269.568C286.26 269.034 286.379 268.545 286.617 268.102C286.859 267.656 287.197 267.301 287.632 267.037C288.069 266.773 288.583 266.645 289.174 266.653ZM289.174 267.591C288.816 267.591 288.494 267.68 288.207 267.859C287.923 268.036 287.697 268.274 287.529 268.575C287.365 268.874 287.282 269.205 287.282 269.568C287.282 269.932 287.362 270.263 287.521 270.561C287.683 270.857 287.903 271.092 288.181 271.268C288.463 271.442 288.782 271.528 289.14 271.528C289.41 271.528 289.662 271.476 289.894 271.371C290.127 271.263 290.331 271.116 290.504 270.932C290.68 270.744 290.818 270.533 290.917 270.297C291.017 270.058 291.066 269.81 291.066 269.551C291.066 269.21 290.984 268.891 290.819 268.592C290.657 268.294 290.433 268.053 290.146 267.868C289.862 267.683 289.538 267.591 289.174 267.591Z" fill="#17191B"/>
<path d="M264.353 229.5V228.733L267.234 225.58C267.572 225.21 267.85 224.889 268.069 224.616C268.288 224.341 268.45 224.082 268.555 223.841C268.663 223.597 268.717 223.341 268.717 223.074C268.717 222.767 268.643 222.501 268.495 222.277C268.35 222.053 268.151 221.879 267.898 221.757C267.646 221.635 267.361 221.574 267.046 221.574C266.711 221.574 266.418 221.643 266.168 221.783C265.921 221.919 265.729 222.111 265.593 222.358C265.459 222.605 265.393 222.895 265.393 223.227H264.387C264.387 222.716 264.505 222.267 264.741 221.881C264.977 221.494 265.298 221.193 265.704 220.977C266.113 220.761 266.572 220.653 267.08 220.653C267.592 220.653 268.045 220.761 268.44 220.977C268.834 221.193 269.144 221.484 269.369 221.851C269.593 222.217 269.705 222.625 269.705 223.074C269.705 223.395 269.647 223.709 269.53 224.016C269.417 224.32 269.218 224.659 268.934 225.034C268.653 225.406 268.262 225.861 267.762 226.398L265.802 228.494V228.562H269.859V229.5H264.353ZM274.465 229.619C273.823 229.619 273.276 229.445 272.825 229.095C272.373 228.743 272.028 228.233 271.789 227.565C271.55 226.895 271.431 226.085 271.431 225.136C271.431 224.193 271.55 223.388 271.789 222.72C272.03 222.05 272.377 221.538 272.829 221.186C273.283 220.831 273.829 220.653 274.465 220.653C275.102 220.653 275.646 220.831 276.097 221.186C276.552 221.538 276.898 222.05 277.137 222.72C277.378 223.388 277.499 224.193 277.499 225.136C277.499 226.085 277.38 226.895 277.141 227.565C276.903 228.233 276.557 228.743 276.106 229.095C275.654 229.445 275.107 229.619 274.465 229.619ZM274.465 228.682C275.102 228.682 275.596 228.375 275.948 227.761C276.3 227.148 276.477 226.273 276.477 225.136C276.477 224.381 276.396 223.737 276.234 223.206C276.075 222.675 275.844 222.27 275.543 221.991C275.245 221.713 274.886 221.574 274.465 221.574C273.834 221.574 273.342 221.885 272.986 222.507C272.631 223.126 272.454 224.003 272.454 225.136C272.454 225.892 272.533 226.534 272.692 227.062C272.852 227.591 273.08 227.993 273.378 228.268C273.68 228.544 274.042 228.682 274.465 228.682ZM279.119 229.5V228.733L281.999 225.58C282.337 225.21 282.616 224.889 282.834 224.616C283.053 224.341 283.215 224.082 283.32 223.841C283.428 223.597 283.482 223.341 283.482 223.074C283.482 222.767 283.408 222.501 283.261 222.277C283.116 222.053 282.917 221.879 282.664 221.757C282.411 221.635 282.127 221.574 281.812 221.574C281.477 221.574 281.184 221.643 280.934 221.783C280.687 221.919 280.495 222.111 280.359 222.358C280.225 222.605 280.158 222.895 280.158 223.227H279.153C279.153 222.716 279.271 222.267 279.506 221.881C279.742 221.494 280.063 221.193 280.469 220.977C280.878 220.761 281.337 220.653 281.846 220.653C282.357 220.653 282.81 220.761 283.205 220.977C283.6 221.193 283.91 221.484 284.134 221.851C284.359 222.217 284.471 222.625 284.471 223.074C284.471 223.395 284.413 223.709 284.296 224.016C284.182 224.32 283.984 224.659 283.7 225.034C283.418 225.406 283.028 225.861 282.528 226.398L280.567 228.494V228.562H284.624V229.5H279.119ZM289.231 229.619C288.589 229.619 288.042 229.445 287.59 229.095C287.138 228.743 286.793 228.233 286.555 227.565C286.316 226.895 286.197 226.085 286.197 225.136C286.197 224.193 286.316 223.388 286.555 222.72C286.796 222.05 287.143 221.538 287.594 221.186C288.049 220.831 288.594 220.653 289.231 220.653C289.867 220.653 290.411 220.831 290.863 221.186C291.317 221.538 291.664 222.05 291.903 222.72C292.144 223.388 292.265 224.193 292.265 225.136C292.265 226.085 292.146 226.895 291.907 227.565C291.668 228.233 291.323 228.743 290.871 229.095C290.42 229.445 289.873 229.619 289.231 229.619ZM289.231 228.682C289.867 228.682 290.361 228.375 290.714 227.761C291.066 227.148 291.242 226.273 291.242 225.136C291.242 224.381 291.161 223.737 290.999 223.206C290.84 222.675 290.61 222.27 290.309 221.991C290.011 221.713 289.651 221.574 289.231 221.574C288.6 221.574 288.107 221.885 287.752 222.507C287.397 223.126 287.219 224.003 287.219 225.136C287.219 225.892 287.299 226.534 287.458 227.062C287.617 227.591 287.846 227.993 288.144 228.268C288.445 228.544 288.807 228.682 289.231 228.682Z" fill="#17191B"/>
<path d="M266.275 183.5V182.733L269.155 179.58C269.494 179.21 269.772 178.889 269.991 178.616C270.209 178.341 270.371 178.082 270.477 177.841C270.584 177.597 270.638 177.341 270.638 177.074C270.638 176.767 270.565 176.501 270.417 176.277C270.272 176.053 270.073 175.879 269.82 175.757C269.567 175.635 269.283 175.574 268.968 175.574C268.633 175.574 268.34 175.643 268.09 175.783C267.843 175.919 267.651 176.111 267.515 176.358C267.381 176.605 267.315 176.895 267.315 177.227H266.309C266.309 176.716 266.427 176.267 266.663 175.881C266.898 175.494 267.219 175.193 267.626 174.977C268.035 174.761 268.494 174.653 269.002 174.653C269.513 174.653 269.967 174.761 270.361 174.977C270.756 175.193 271.066 175.484 271.29 175.851C271.515 176.217 271.627 176.625 271.627 177.074C271.627 177.395 271.569 177.709 271.452 178.016C271.339 178.32 271.14 178.659 270.856 179.034C270.575 179.406 270.184 179.861 269.684 180.398L267.724 182.494V182.562H271.78V183.5H266.275ZM276.387 183.619C275.745 183.619 275.198 183.445 274.746 183.095C274.295 182.743 273.95 182.233 273.711 181.565C273.472 180.895 273.353 180.085 273.353 179.136C273.353 178.193 273.472 177.388 273.711 176.72C273.952 176.05 274.299 175.538 274.751 175.186C275.205 174.831 275.751 174.653 276.387 174.653C277.023 174.653 277.567 174.831 278.019 175.186C278.474 175.538 278.82 176.05 279.059 176.72C279.3 177.388 279.421 178.193 279.421 179.136C279.421 180.085 279.302 180.895 279.063 181.565C278.825 182.233 278.479 182.743 278.028 183.095C277.576 183.445 277.029 183.619 276.387 183.619ZM276.387 182.682C277.023 182.682 277.518 182.375 277.87 181.761C278.222 181.148 278.398 180.273 278.398 179.136C278.398 178.381 278.317 177.737 278.155 177.206C277.996 176.675 277.766 176.27 277.465 175.991C277.167 175.713 276.807 175.574 276.387 175.574C275.756 175.574 275.263 175.885 274.908 176.507C274.553 177.126 274.376 178.003 274.376 179.136C274.376 179.892 274.455 180.534 274.614 181.062C274.773 181.591 275.002 181.993 275.3 182.268C275.602 182.544 275.964 182.682 276.387 182.682ZM281.04 183.5V182.733L283.921 179.58C284.259 179.21 284.538 178.889 284.756 178.616C284.975 178.341 285.137 178.082 285.242 177.841C285.35 177.597 285.404 177.341 285.404 177.074C285.404 176.767 285.33 176.501 285.182 176.277C285.038 176.053 284.839 175.879 284.586 175.757C284.333 175.635 284.049 175.574 283.734 175.574C283.398 175.574 283.106 175.643 282.856 175.783C282.609 175.919 282.417 176.111 282.28 176.358C282.147 176.605 282.08 176.895 282.08 177.227H281.075C281.075 176.716 281.192 176.267 281.428 175.881C281.664 175.494 281.985 175.193 282.391 174.977C282.8 174.761 283.259 174.653 283.768 174.653C284.279 174.653 284.732 174.761 285.127 174.977C285.522 175.193 285.832 175.484 286.056 175.851C286.28 176.217 286.393 176.625 286.393 177.074C286.393 177.395 286.334 177.709 286.218 178.016C286.104 178.32 285.905 178.659 285.621 179.034C285.34 179.406 284.95 179.861 284.45 180.398L282.489 182.494V182.562H286.546V183.5H281.04ZM291.374 174.773V183.5H290.317V175.881H290.266L288.136 177.295V176.222L290.317 174.773H291.374Z" fill="#17191B"/>
<path d="M264.587 137.5V136.733L267.468 133.58C267.806 133.21 268.084 132.889 268.303 132.616C268.522 132.341 268.684 132.082 268.789 131.841C268.897 131.597 268.951 131.341 268.951 131.074C268.951 130.767 268.877 130.501 268.729 130.277C268.584 130.053 268.386 129.879 268.133 129.757C267.88 129.635 267.596 129.574 267.28 129.574C266.945 129.574 266.653 129.643 266.403 129.783C266.155 129.919 265.964 130.111 265.827 130.358C265.694 130.605 265.627 130.895 265.627 131.227H264.621C264.621 130.716 264.739 130.267 264.975 129.881C265.211 129.494 265.532 129.193 265.938 128.977C266.347 128.761 266.806 128.653 267.315 128.653C267.826 128.653 268.279 128.761 268.674 128.977C269.069 129.193 269.378 129.484 269.603 129.851C269.827 130.217 269.94 130.625 269.94 131.074C269.94 131.395 269.881 131.709 269.765 132.016C269.651 132.32 269.452 132.659 269.168 133.034C268.887 133.406 268.496 133.861 267.996 134.398L266.036 136.494V136.562H270.093V137.5H264.587ZM274.7 137.619C274.057 137.619 273.511 137.445 273.059 137.095C272.607 136.743 272.262 136.233 272.023 135.565C271.785 134.895 271.665 134.085 271.665 133.136C271.665 132.193 271.785 131.388 272.023 130.72C272.265 130.05 272.611 129.538 273.063 129.186C273.518 128.831 274.063 128.653 274.7 128.653C275.336 128.653 275.88 128.831 276.332 129.186C276.786 129.538 277.133 130.05 277.371 130.72C277.613 131.388 277.734 132.193 277.734 133.136C277.734 134.085 277.614 134.895 277.376 135.565C277.137 136.233 276.792 136.743 276.34 137.095C275.888 137.445 275.342 137.619 274.7 137.619ZM274.7 136.682C275.336 136.682 275.83 136.375 276.182 135.761C276.535 135.148 276.711 134.273 276.711 133.136C276.711 132.381 276.63 131.737 276.468 131.206C276.309 130.675 276.079 130.27 275.778 129.991C275.479 129.713 275.12 129.574 274.7 129.574C274.069 129.574 273.576 129.885 273.221 130.507C272.866 131.126 272.688 132.003 272.688 133.136C272.688 133.892 272.768 134.534 272.927 135.062C273.086 135.591 273.315 135.993 273.613 136.268C273.914 136.544 274.276 136.682 274.7 136.682ZM279.353 137.5V136.733L282.234 133.58C282.572 133.21 282.85 132.889 283.069 132.616C283.288 132.341 283.45 132.082 283.555 131.841C283.663 131.597 283.717 131.341 283.717 131.074C283.717 130.767 283.643 130.501 283.495 130.277C283.35 130.053 283.151 129.879 282.898 129.757C282.646 129.635 282.361 129.574 282.046 129.574C281.711 129.574 281.418 129.643 281.168 129.783C280.921 129.919 280.729 130.111 280.593 130.358C280.459 130.605 280.393 130.895 280.393 131.227H279.387C279.387 130.716 279.505 130.267 279.741 129.881C279.977 129.494 280.298 129.193 280.704 128.977C281.113 128.761 281.572 128.653 282.08 128.653C282.592 128.653 283.045 128.761 283.44 128.977C283.834 129.193 284.144 129.484 284.369 129.851C284.593 130.217 284.705 130.625 284.705 131.074C284.705 131.395 284.647 131.709 284.53 132.016C284.417 132.32 284.218 132.659 283.934 133.034C283.653 133.406 283.262 133.861 282.762 134.398L280.802 136.494V136.562H284.859V137.5H279.353ZM286.619 137.5V136.733L289.499 133.58C289.837 133.21 290.116 132.889 290.334 132.616C290.553 132.341 290.715 132.082 290.82 131.841C290.928 131.597 290.982 131.341 290.982 131.074C290.982 130.767 290.908 130.501 290.761 130.277C290.616 130.053 290.417 129.879 290.164 129.757C289.911 129.635 289.627 129.574 289.312 129.574C288.977 129.574 288.684 129.643 288.434 129.783C288.187 129.919 287.995 130.111 287.859 130.358C287.725 130.605 287.658 130.895 287.658 131.227H286.653C286.653 130.716 286.771 130.267 287.006 129.881C287.242 129.494 287.563 129.193 287.969 128.977C288.378 128.761 288.837 128.653 289.346 128.653C289.857 128.653 290.31 128.761 290.705 128.977C291.1 129.193 291.41 129.484 291.634 129.851C291.859 130.217 291.971 130.625 291.971 131.074C291.971 131.395 291.913 131.709 291.796 132.016C291.682 132.32 291.484 132.659 291.2 133.034C290.918 133.406 290.528 133.861 290.028 134.398L288.067 136.494V136.562H292.124V137.5H286.619Z" fill="#17191B"/>
<path d="M264.212 91.5V90.733L267.093 87.5795C267.431 87.2102 267.709 86.8892 267.928 86.6165C268.147 86.3409 268.309 86.0824 268.414 85.8409C268.522 85.5966 268.576 85.3409 268.576 85.0739C268.576 84.767 268.502 84.5014 268.354 84.277C268.209 84.0526 268.011 83.8793 267.758 83.7571C267.505 83.6349 267.221 83.5739 266.905 83.5739C266.57 83.5739 266.278 83.6435 266.028 83.7827C265.78 83.919 265.589 84.1108 265.452 84.358C265.319 84.6051 265.252 84.8949 265.252 85.2273H264.246C264.246 84.7159 264.364 84.267 264.6 83.8807C264.836 83.4943 265.157 83.1932 265.563 82.9773C265.972 82.7614 266.431 82.6534 266.94 82.6534C267.451 82.6534 267.904 82.7614 268.299 82.9773C268.694 83.1932 269.003 83.4844 269.228 83.8509C269.452 84.2173 269.565 84.625 269.565 85.0739C269.565 85.3949 269.506 85.7088 269.39 86.0156C269.276 86.3196 269.077 86.6591 268.793 87.0341C268.512 87.4062 268.121 87.8608 267.621 88.3977L265.661 90.4943V90.5625H269.718V91.5H264.212ZM274.325 91.6193C273.682 91.6193 273.136 91.4446 272.684 91.0952C272.232 90.7429 271.887 90.233 271.648 89.5653C271.41 88.8949 271.29 88.0852 271.29 87.1364C271.29 86.1932 271.41 85.3878 271.648 84.7202C271.89 84.0497 272.236 83.5384 272.688 83.1861C273.143 82.831 273.688 82.6534 274.325 82.6534C274.961 82.6534 275.505 82.831 275.957 83.1861C276.411 83.5384 276.758 84.0497 276.996 84.7202C277.238 85.3878 277.359 86.1932 277.359 87.1364C277.359 88.0852 277.239 88.8949 277.001 89.5653C276.762 90.233 276.417 90.7429 275.965 91.0952C275.513 91.4446 274.967 91.6193 274.325 91.6193ZM274.325 90.6818C274.961 90.6818 275.455 90.375 275.807 89.7614C276.16 89.1477 276.336 88.2727 276.336 87.1364C276.336 86.3807 276.255 85.7372 276.093 85.206C275.934 84.6747 275.704 84.2699 275.403 83.9915C275.104 83.7131 274.745 83.5739 274.325 83.5739C273.694 83.5739 273.201 83.8849 272.846 84.5071C272.491 85.1264 272.313 86.0028 272.313 87.1364C272.313 87.892 272.393 88.5341 272.552 89.0625C272.711 89.5909 272.94 89.9929 273.238 90.2685C273.539 90.544 273.901 90.6818 274.325 90.6818ZM278.978 91.5V90.733L281.859 87.5795C282.197 87.2102 282.475 86.8892 282.694 86.6165C282.913 86.3409 283.075 86.0824 283.18 85.8409C283.288 85.5966 283.342 85.3409 283.342 85.0739C283.342 84.767 283.268 84.5014 283.12 84.277C282.975 84.0526 282.776 83.8793 282.523 83.7571C282.271 83.6349 281.986 83.5739 281.671 83.5739C281.336 83.5739 281.043 83.6435 280.793 83.7827C280.546 83.919 280.354 84.1108 280.218 84.358C280.084 84.6051 280.018 84.8949 280.018 85.2273H279.012C279.012 84.7159 279.13 84.267 279.366 83.8807C279.602 83.4943 279.923 83.1932 280.329 82.9773C280.738 82.7614 281.197 82.6534 281.705 82.6534C282.217 82.6534 282.67 82.7614 283.065 82.9773C283.459 83.1932 283.769 83.4844 283.994 83.8509C284.218 84.2173 284.33 84.625 284.33 85.0739C284.33 85.3949 284.272 85.7088 284.155 86.0156C284.042 86.3196 283.843 86.6591 283.559 87.0341C283.278 87.4062 282.887 87.8608 282.387 88.3977L280.427 90.4943V90.5625H284.484V91.5H278.978ZM289.192 91.6193C288.63 91.6193 288.128 91.5227 287.688 91.3295C287.251 91.1364 286.903 90.8679 286.644 90.5241C286.388 90.1776 286.249 89.7756 286.227 89.3182H287.3C287.323 89.5994 287.42 89.8423 287.59 90.0469C287.761 90.2486 287.984 90.4048 288.259 90.5156C288.535 90.6264 288.84 90.6818 289.175 90.6818C289.55 90.6818 289.883 90.6165 290.173 90.4858C290.462 90.3551 290.69 90.1733 290.854 89.9403C291.019 89.7074 291.102 89.4375 291.102 89.1307C291.102 88.8097 291.022 88.527 290.863 88.2827C290.704 88.0355 290.471 87.8423 290.164 87.7031C289.857 87.5639 289.482 87.4943 289.039 87.4943H288.34V86.5568H289.039C289.386 86.5568 289.69 86.4943 289.951 86.3693C290.215 86.2443 290.421 86.0682 290.569 85.8409C290.719 85.6136 290.795 85.3466 290.795 85.0398C290.795 84.7443 290.729 84.4872 290.599 84.2685C290.468 84.0497 290.283 83.8793 290.045 83.7571C289.809 83.6349 289.53 83.5739 289.209 83.5739C288.908 83.5739 288.624 83.6293 288.357 83.7401C288.093 83.848 287.877 84.0057 287.709 84.2131C287.542 84.4176 287.451 84.6648 287.437 84.9545H286.414C286.431 84.4972 286.569 84.0966 286.827 83.7528C287.086 83.4062 287.424 83.1364 287.842 82.9432C288.262 82.75 288.724 82.6534 289.227 82.6534C289.766 82.6534 290.229 82.7628 290.616 82.9815C291.002 83.1974 291.299 83.483 291.506 83.8381C291.714 84.1932 291.817 84.5767 291.817 84.9886C291.817 85.4801 291.688 85.8991 291.43 86.2457C291.174 86.5923 290.826 86.8324 290.386 86.9659V87.0341C290.937 87.125 291.367 87.3594 291.677 87.7372C291.986 88.1122 292.141 88.5767 292.141 89.1307C292.141 89.6051 292.012 90.0312 291.753 90.4091C291.498 90.7841 291.148 91.0795 290.705 91.2955C290.262 91.5114 289.758 91.6193 289.192 91.6193Z" fill="#17191B"/>
<path d="M300.476 358.619C299.834 358.619 299.287 358.445 298.835 358.095C298.384 357.743 298.038 357.233 297.8 356.565C297.561 355.895 297.442 355.085 297.442 354.136C297.442 353.193 297.561 352.388 297.8 351.72C298.041 351.05 298.388 350.538 298.84 350.186C299.294 349.831 299.84 349.653 300.476 349.653C301.112 349.653 301.656 349.831 302.108 350.186C302.563 350.538 302.909 351.05 303.148 351.72C303.389 352.388 303.51 353.193 303.51 354.136C303.51 355.085 303.391 355.895 303.152 356.565C302.913 357.233 302.568 357.743 302.117 358.095C301.665 358.445 301.118 358.619 300.476 358.619ZM300.476 357.682C301.112 357.682 301.607 357.375 301.959 356.761C302.311 356.148 302.487 355.273 302.487 354.136C302.487 353.381 302.406 352.737 302.244 352.206C302.085 351.675 301.855 351.27 301.554 350.991C301.256 350.713 300.896 350.574 300.476 350.574C299.845 350.574 299.352 350.885 298.997 351.507C298.642 352.126 298.465 353.003 298.465 354.136C298.465 354.892 298.544 355.534 298.703 356.062C298.862 356.591 299.091 356.993 299.389 357.268C299.69 357.544 300.053 357.682 300.476 357.682Z" fill="#17191B"/>
<path d="M405.166 349.773V358.5H404.109V350.881H404.058L401.927 352.295V351.222L404.109 349.773H405.166ZM410.522 358.619C409.88 358.619 409.333 358.445 408.882 358.095C408.43 357.743 408.085 357.233 407.846 356.565C407.608 355.895 407.488 355.085 407.488 354.136C407.488 353.193 407.608 352.388 407.846 351.72C408.088 351.05 408.434 350.538 408.886 350.186C409.341 349.831 409.886 349.653 410.522 349.653C411.159 349.653 411.703 349.831 412.155 350.186C412.609 350.538 412.956 351.05 413.194 351.72C413.436 352.388 413.556 353.193 413.556 354.136C413.556 355.085 413.437 355.895 413.199 356.565C412.96 357.233 412.615 357.743 412.163 358.095C411.711 358.445 411.164 358.619 410.522 358.619ZM410.522 357.682C411.159 357.682 411.653 357.375 412.005 356.761C412.358 356.148 412.534 355.273 412.534 354.136C412.534 353.381 412.453 352.737 412.291 352.206C412.132 351.675 411.902 351.27 411.601 350.991C411.302 350.713 410.943 350.574 410.522 350.574C409.892 350.574 409.399 350.885 409.044 351.507C408.689 352.126 408.511 353.003 408.511 354.136C408.511 354.892 408.591 355.534 408.75 356.062C408.909 356.591 409.137 356.993 409.436 357.268C409.737 357.544 410.099 357.682 410.522 357.682Z" fill="#17191B"/>
<path d="M509.511 358.5V357.733L512.391 354.58C512.729 354.21 513.008 353.889 513.227 353.616C513.445 353.341 513.607 353.082 513.712 352.841C513.82 352.597 513.874 352.341 513.874 352.074C513.874 351.767 513.8 351.501 513.653 351.277C513.508 351.053 513.309 350.879 513.056 350.757C512.803 350.635 512.519 350.574 512.204 350.574C511.869 350.574 511.576 350.643 511.326 350.783C511.079 350.919 510.887 351.111 510.751 351.358C510.617 351.605 510.55 351.895 510.55 352.227H509.545C509.545 351.716 509.663 351.267 509.898 350.881C510.134 350.494 510.455 350.193 510.862 349.977C511.271 349.761 511.729 349.653 512.238 349.653C512.749 349.653 513.202 349.761 513.597 349.977C513.992 350.193 514.302 350.484 514.526 350.851C514.751 351.217 514.863 351.625 514.863 352.074C514.863 352.395 514.805 352.709 514.688 353.016C514.575 353.32 514.376 353.659 514.092 354.034C513.81 354.406 513.42 354.861 512.92 355.398L510.96 357.494V357.562H515.016V358.5H509.511ZM519.623 358.619C518.981 358.619 518.434 358.445 517.982 358.095C517.531 357.743 517.185 357.233 516.947 356.565C516.708 355.895 516.589 355.085 516.589 354.136C516.589 353.193 516.708 352.388 516.947 351.72C517.188 351.05 517.535 350.538 517.987 350.186C518.441 349.831 518.987 349.653 519.623 349.653C520.259 349.653 520.803 349.831 521.255 350.186C521.71 350.538 522.056 351.05 522.295 351.72C522.536 352.388 522.657 353.193 522.657 354.136C522.657 355.085 522.538 355.895 522.299 356.565C522.06 357.233 521.715 357.743 521.264 358.095C520.812 358.445 520.265 358.619 519.623 358.619ZM519.623 357.682C520.259 357.682 520.754 357.375 521.106 356.761C521.458 356.148 521.634 355.273 521.634 354.136C521.634 353.381 521.553 352.737 521.391 352.206C521.232 351.675 521.002 351.27 520.701 350.991C520.403 350.713 520.043 350.574 519.623 350.574C518.992 350.574 518.499 350.885 518.144 351.507C517.789 352.126 517.612 353.003 517.612 354.136C517.612 354.892 517.691 355.534 517.85 356.062C518.009 356.591 518.238 356.993 518.536 357.268C518.837 357.544 519.2 357.682 519.623 357.682Z" fill="#17191B"/>
<path d="M619.03 358.619C618.467 358.619 617.966 358.523 617.525 358.33C617.088 358.136 616.74 357.868 616.481 357.524C616.226 357.178 616.087 356.776 616.064 356.318H617.138C617.16 356.599 617.257 356.842 617.427 357.047C617.598 357.249 617.821 357.405 618.096 357.516C618.372 357.626 618.677 357.682 619.013 357.682C619.388 357.682 619.72 357.616 620.01 357.486C620.3 357.355 620.527 357.173 620.692 356.94C620.856 356.707 620.939 356.438 620.939 356.131C620.939 355.81 620.859 355.527 620.7 355.283C620.541 355.036 620.308 354.842 620.001 354.703C619.695 354.564 619.32 354.494 618.876 354.494H618.177V353.557H618.876C619.223 353.557 619.527 353.494 619.788 353.369C620.052 353.244 620.258 353.068 620.406 352.841C620.557 352.614 620.632 352.347 620.632 352.04C620.632 351.744 620.567 351.487 620.436 351.268C620.305 351.05 620.121 350.879 619.882 350.757C619.646 350.635 619.368 350.574 619.047 350.574C618.746 350.574 618.462 350.629 618.195 350.74C617.93 350.848 617.714 351.006 617.547 351.213C617.379 351.418 617.288 351.665 617.274 351.955H616.251C616.268 351.497 616.406 351.097 616.665 350.753C616.923 350.406 617.261 350.136 617.679 349.943C618.099 349.75 618.561 349.653 619.064 349.653C619.604 349.653 620.067 349.763 620.453 349.982C620.839 350.197 621.136 350.483 621.344 350.838C621.551 351.193 621.655 351.577 621.655 351.989C621.655 352.48 621.525 352.899 621.267 353.246C621.011 353.592 620.663 353.832 620.223 353.966V354.034C620.774 354.125 621.204 354.359 621.514 354.737C621.824 355.112 621.979 355.577 621.979 356.131C621.979 356.605 621.849 357.031 621.591 357.409C621.335 357.784 620.986 358.08 620.543 358.295C620.099 358.511 619.595 358.619 619.03 358.619ZM626.568 358.619C625.926 358.619 625.379 358.445 624.927 358.095C624.476 357.743 624.131 357.233 623.892 356.565C623.653 355.895 623.534 355.085 623.534 354.136C623.534 353.193 623.653 352.388 623.892 351.72C624.133 351.05 624.48 350.538 624.932 350.186C625.386 349.831 625.932 349.653 626.568 349.653C627.204 349.653 627.748 349.831 628.2 350.186C628.655 350.538 629.001 351.05 629.24 351.72C629.481 352.388 629.602 353.193 629.602 354.136C629.602 355.085 629.483 355.895 629.244 356.565C629.006 357.233 628.66 357.743 628.209 358.095C627.757 358.445 627.21 358.619 626.568 358.619ZM626.568 357.682C627.204 357.682 627.699 357.375 628.051 356.761C628.403 356.148 628.579 355.273 628.579 354.136C628.579 353.381 628.498 352.737 628.337 352.206C628.177 351.675 627.947 351.27 627.646 350.991C627.348 350.713 626.989 350.574 626.568 350.574C625.937 350.574 625.445 350.885 625.089 351.507C624.734 352.126 624.557 353.003 624.557 354.136C624.557 354.892 624.636 355.534 624.795 356.062C624.954 356.591 625.183 356.993 625.481 357.268C625.783 357.544 626.145 357.682 626.568 357.682Z" fill="#17191B"/>
<path d="M723.104 356.71V355.841L726.94 349.773H727.57V351.119H727.144L724.246 355.705V355.773H729.411V356.71H723.104ZM727.212 358.5V356.446V356.041V349.773H728.218V358.5H727.212ZM733.855 358.619C733.213 358.619 732.666 358.445 732.214 358.095C731.762 357.743 731.417 357.233 731.179 356.565C730.94 355.895 730.821 355.085 730.821 354.136C730.821 353.193 730.94 352.388 731.179 351.72C731.42 351.05 731.767 350.538 732.218 350.186C732.673 349.831 733.218 349.653 733.855 349.653C734.491 349.653 735.035 349.831 735.487 350.186C735.941 350.538 736.288 351.05 736.527 351.72C736.768 352.388 736.889 353.193 736.889 354.136C736.889 355.085 736.77 355.895 736.531 356.565C736.292 357.233 735.947 357.743 735.495 358.095C735.044 358.445 734.497 358.619 733.855 358.619ZM733.855 357.682C734.491 357.682 734.985 357.375 735.338 356.761C735.69 356.148 735.866 355.273 735.866 354.136C735.866 353.381 735.785 352.737 735.623 352.206C735.464 351.675 735.234 351.27 734.933 350.991C734.635 350.713 734.275 350.574 733.855 350.574C733.224 350.574 732.731 350.885 732.376 351.507C732.021 352.126 731.843 353.003 731.843 354.136C731.843 354.892 731.923 355.534 732.082 356.062C732.241 356.591 732.47 356.993 732.768 357.268C733.069 357.544 733.431 357.682 733.855 357.682Z" fill="#17191B"/>
<path d="M300.976 301.63H354.604V333.37H300.976V301.63Z" fill="#A1E8FC"/>
<path d="M300.976 255.63H429.684V287.37H300.976V255.63Z" fill="#A1E8FC"/>
<path d="M300.976 209.63H590.571V241.37H300.976V209.63Z" fill="#A1E8FC"/>
<path d="M300.976 163.63H644.199V195.37H300.976L300.976 163.63Z" fill="#A1E8FC"/>
<path d="M300.976 117.63H644.199V149.37H300.976L300.976 117.63Z" fill="#A1E8FC"/>
<path d="M300.976 71.63H708.554V103.37H300.976V71.63Z" fill="#A1E8FC"/>
</svg>
