<svg width="555" height="427" viewBox="0 0 555 427" fill="none" xmlns="http://www.w3.org/2000/svg">
<path d="M35.6641 31H38.5625V41.4531C38.5625 42.599 38.2917 43.6068 37.75 44.4766C37.2135 45.3464 36.4583 46.026 35.4844 46.5156C34.5104 47 33.3724 47.2422 32.0703 47.2422C30.763 47.2422 29.6224 47 28.6484 46.5156C27.6745 46.026 26.9193 45.3464 26.3828 44.4766C25.8464 43.6068 25.5781 42.599 25.5781 41.4531V31H28.4766V41.2109C28.4766 41.8776 28.6224 42.4714 28.9141 42.9922C29.2109 43.513 29.6276 43.9219 30.1641 44.2188C30.7005 44.5104 31.3359 44.6562 32.0703 44.6562C32.8047 44.6562 33.4401 44.5104 33.9766 44.2188C34.5182 43.9219 34.9349 43.513 35.2266 42.9922C35.5182 42.4714 35.6641 41.8776 35.6641 41.2109V31ZM41.5879 47V35H44.3301V37H44.4551C44.6738 36.3073 45.0488 35.7734 45.5801 35.3984C46.1165 35.0182 46.7285 34.8281 47.416 34.8281C47.5723 34.8281 47.7467 34.8359 47.9395 34.8516C48.1374 34.862 48.3014 34.8802 48.4316 34.9062V37.5078C48.3118 37.4661 48.1217 37.4297 47.8613 37.3984C47.6061 37.362 47.3587 37.3437 47.1191 37.3437C46.6035 37.3437 46.14 37.4557 45.7285 37.6797C45.3223 37.8984 45.002 38.2031 44.7676 38.5937C44.5332 38.9844 44.416 39.4349 44.416 39.9453V47H41.5879ZM50.4355 47V31H53.2637V36.9844H53.3809C53.5267 36.6927 53.7324 36.3828 53.998 36.0547C54.2637 35.7214 54.623 35.4375 55.0762 35.2031C55.5293 34.9635 56.1074 34.8438 56.8105 34.8438C57.7376 34.8438 58.5736 35.0807 59.3184 35.5547C60.0684 36.0234 60.6621 36.7187 61.0996 37.6406C61.5423 38.5573 61.7637 39.6823 61.7637 41.0156C61.7637 42.3333 61.5475 43.4531 61.1152 44.375C60.6829 45.2969 60.0944 46 59.3496 46.4844C58.6048 46.9688 57.7611 47.2109 56.8184 47.2109C56.1309 47.2109 55.5605 47.0964 55.1074 46.8672C54.6543 46.638 54.2897 46.362 54.0137 46.0391C53.7428 45.7109 53.5319 45.401 53.3809 45.1094H53.2168V47H50.4355ZM53.209 41C53.209 41.776 53.3184 42.4557 53.5371 43.0391C53.7611 43.6224 54.0814 44.0781 54.498 44.4062C54.9199 44.7292 55.4303 44.8906 56.0293 44.8906C56.6543 44.8906 57.1777 44.724 57.5996 44.3906C58.0215 44.0521 58.3392 43.5911 58.5527 43.0078C58.7715 42.4193 58.8809 41.75 58.8809 41C58.8809 40.2552 58.7741 39.5937 58.5605 39.0156C58.347 38.4375 58.0293 37.9844 57.6074 37.6562C57.1855 37.3281 56.6595 37.1641 56.0293 37.1641C55.4251 37.1641 54.9121 37.3229 54.4902 37.6406C54.0684 37.9583 53.748 38.4036 53.5293 38.9766C53.3158 39.5495 53.209 40.224 53.209 41ZM67.6211 47.2422C66.8607 47.2422 66.1758 47.1068 65.5664 46.8359C64.9622 46.5599 64.4831 46.1536 64.1289 45.6172C63.7799 45.0807 63.6055 44.4193 63.6055 43.6328C63.6055 42.9557 63.7305 42.3958 63.9805 41.9531C64.2305 41.5104 64.5716 41.1562 65.0039 40.8906C65.4362 40.625 65.9232 40.4245 66.4648 40.2891C67.0117 40.1484 67.5768 40.0469 68.1602 39.9844C68.8633 39.9115 69.4336 39.8464 69.8711 39.7891C70.3086 39.7266 70.6263 39.6328 70.8242 39.5078C71.0273 39.3776 71.1289 39.1771 71.1289 38.9062V38.8594C71.1289 38.2708 70.9544 37.8151 70.6055 37.4922C70.2565 37.1693 69.7539 37.0078 69.0977 37.0078C68.4049 37.0078 67.8555 37.1589 67.4492 37.4609C67.0482 37.763 66.7773 38.1198 66.6367 38.5312L63.9961 38.1562C64.2044 37.4271 64.5482 36.8177 65.0273 36.3281C65.5065 35.8333 66.0924 35.4635 66.7852 35.2187C67.4779 34.9688 68.2435 34.8438 69.082 34.8438C69.6602 34.8438 70.2357 34.9115 70.8086 35.0469C71.3815 35.1823 71.9049 35.4062 72.3789 35.7187C72.8529 36.026 73.2331 36.4453 73.5195 36.9766C73.8112 37.5078 73.957 38.1719 73.957 38.9687V47H71.2383V45.3516H71.1445C70.9727 45.6849 70.7305 45.9974 70.418 46.2891C70.1107 46.5755 69.7227 46.8073 69.2539 46.9844C68.7904 47.1563 68.2461 47.2422 67.6211 47.2422ZM68.3555 45.1641C68.9232 45.1641 69.4154 45.0521 69.832 44.8281C70.2487 44.599 70.569 44.2969 70.793 43.9219C71.0221 43.5469 71.1367 43.138 71.1367 42.6953V41.2812C71.0482 41.3542 70.8971 41.4219 70.6836 41.4844C70.4753 41.5469 70.2409 41.6016 69.9805 41.6484C69.7201 41.6953 69.4622 41.737 69.207 41.7734C68.9518 41.8099 68.7305 41.8411 68.543 41.8672C68.1211 41.9245 67.7435 42.0182 67.4102 42.1484C67.0768 42.2786 66.8138 42.4609 66.6211 42.6953C66.4284 42.9245 66.332 43.2214 66.332 43.5859C66.332 44.1068 66.5221 44.5 66.9023 44.7656C67.2826 45.0312 67.7669 45.1641 68.3555 45.1641ZM79.6289 39.9687V47H76.8008V35H79.5039V37.0391H79.6445C79.9206 36.3672 80.3607 35.8333 80.9648 35.4375C81.5742 35.0417 82.3268 34.8438 83.2227 34.8438C84.0508 34.8438 84.7721 35.0208 85.3867 35.375C86.0065 35.7292 86.4857 36.2422 86.8242 36.9141C87.168 37.5859 87.3372 38.401 87.332 39.3594V47H84.5039V39.7969C84.5039 38.9948 84.2956 38.3672 83.8789 37.9141C83.4674 37.4609 82.8971 37.2344 82.168 37.2344C81.6732 37.2344 81.2331 37.3437 80.8477 37.5625C80.4674 37.776 80.168 38.0859 79.9492 38.4922C79.7357 38.8984 79.6289 39.3906 79.6289 39.9687ZM95.7891 47V31H101.789C103.018 31 104.049 31.2292 104.883 31.6875C105.721 32.1458 106.354 32.776 106.781 33.5781C107.214 34.375 107.43 35.2812 107.43 36.2969C107.43 37.3229 107.214 38.2344 106.781 39.0313C106.349 39.8281 105.711 40.4557 104.867 40.9141C104.023 41.3672 102.984 41.5937 101.75 41.5937H97.7734V39.2109H101.359C102.078 39.2109 102.667 39.0859 103.125 38.8359C103.583 38.5859 103.922 38.2422 104.141 37.8047C104.365 37.3672 104.477 36.8646 104.477 36.2969C104.477 35.7292 104.365 35.2292 104.141 34.7969C103.922 34.3646 103.581 34.0286 103.117 33.7891C102.659 33.5443 102.068 33.4219 101.344 33.4219H98.6875V47H95.7891ZM114.885 47.2344C113.713 47.2344 112.697 46.9766 111.838 46.4609C110.979 45.9453 110.312 45.224 109.838 44.2969C109.369 43.3698 109.135 42.2865 109.135 41.0469C109.135 39.8073 109.369 38.7214 109.838 37.7891C110.312 36.8568 110.979 36.1328 111.838 35.6172C112.697 35.1016 113.713 34.8438 114.885 34.8438C116.057 34.8438 117.072 35.1016 117.932 35.6172C118.791 36.1328 119.455 36.8568 119.924 37.7891C120.398 38.7214 120.635 39.8073 120.635 41.0469C120.635 42.2865 120.398 43.3698 119.924 44.2969C119.455 45.224 118.791 45.9453 117.932 46.4609C117.072 46.9766 116.057 47.2344 114.885 47.2344ZM114.9 44.9687C115.536 44.9687 116.067 44.7943 116.494 44.4453C116.921 44.0911 117.239 43.6172 117.447 43.0234C117.661 42.4297 117.768 41.7682 117.768 41.0391C117.768 40.3047 117.661 39.6406 117.447 39.0469C117.239 38.4479 116.921 37.9714 116.494 37.6172C116.067 37.263 115.536 37.0859 114.9 37.0859C114.249 37.0859 113.708 37.263 113.275 37.6172C112.848 37.9714 112.528 38.4479 112.314 39.0469C112.106 39.6406 112.002 40.3047 112.002 41.0391C112.002 41.7682 112.106 42.4297 112.314 43.0234C112.528 43.6172 112.848 44.0911 113.275 44.4453C113.708 44.7943 114.249 44.9687 114.9 44.9687ZM123.035 51.5V35H125.816V36.9844H125.98C126.126 36.6927 126.332 36.3828 126.598 36.0547C126.863 35.7214 127.223 35.4375 127.676 35.2031C128.129 34.9635 128.707 34.8438 129.41 34.8438C130.337 34.8438 131.173 35.0807 131.918 35.5547C132.668 36.0234 133.262 36.7187 133.699 37.6406C134.142 38.5573 134.363 39.6823 134.363 41.0156C134.363 42.3333 134.147 43.4531 133.715 44.375C133.283 45.2969 132.694 46 131.949 46.4844C131.204 46.9688 130.361 47.2109 129.418 47.2109C128.73 47.2109 128.16 47.0964 127.707 46.8672C127.254 46.638 126.889 46.362 126.613 46.0391C126.342 45.7109 126.132 45.401 125.98 45.1094H125.863V51.5H123.035ZM125.809 41C125.809 41.776 125.918 42.4557 126.137 43.0391C126.361 43.6224 126.681 44.0781 127.098 44.4062C127.52 44.7292 128.03 44.8906 128.629 44.8906C129.254 44.8906 129.777 44.724 130.199 44.3906C130.621 44.0521 130.939 43.5911 131.152 43.0078C131.371 42.4193 131.48 41.75 131.48 41C131.48 40.2552 131.374 39.5937 131.16 39.0156C130.947 38.4375 130.629 37.9844 130.207 37.6562C129.785 37.3281 129.259 37.1641 128.629 37.1641C128.025 37.1641 127.512 37.3229 127.09 37.6406C126.668 37.9583 126.348 38.4036 126.129 38.9766C125.915 39.5495 125.809 40.224 125.809 41ZM144.434 41.9531V35H147.262V47H144.52V44.8672H144.395C144.124 45.5391 143.678 46.0885 143.059 46.5156C142.444 46.9427 141.686 47.1563 140.785 47.1563C139.999 47.1563 139.303 46.9818 138.699 46.6328C138.1 46.2786 137.632 45.7656 137.293 45.0938C136.954 44.4167 136.785 43.599 136.785 42.6406V35H139.613V42.2031C139.613 42.9635 139.822 43.5677 140.238 44.0156C140.655 44.4635 141.202 44.6875 141.879 44.6875C142.296 44.6875 142.699 44.5859 143.09 44.3828C143.48 44.1797 143.801 43.8776 144.051 43.4766C144.306 43.0703 144.434 42.5625 144.434 41.9531ZM152.998 31V47H150.17V31H152.998ZM159.359 47.2422C158.599 47.2422 157.914 47.1068 157.305 46.8359C156.701 46.5599 156.221 46.1536 155.867 45.6172C155.518 45.0807 155.344 44.4193 155.344 43.6328C155.344 42.9557 155.469 42.3958 155.719 41.9531C155.969 41.5104 156.31 41.1562 156.742 40.8906C157.174 40.625 157.661 40.4245 158.203 40.2891C158.75 40.1484 159.315 40.0469 159.898 39.9844C160.602 39.9115 161.172 39.8464 161.609 39.7891C162.047 39.7266 162.365 39.6328 162.563 39.5078C162.766 39.3776 162.867 39.1771 162.867 38.9062V38.8594C162.867 38.2708 162.693 37.8151 162.344 37.4922C161.995 37.1693 161.492 37.0078 160.836 37.0078C160.143 37.0078 159.594 37.1589 159.188 37.4609C158.786 37.763 158.516 38.1198 158.375 38.5312L155.734 38.1562C155.943 37.4271 156.286 36.8177 156.766 36.3281C157.245 35.8333 157.831 35.4635 158.523 35.2187C159.216 34.9688 159.982 34.8438 160.82 34.8438C161.398 34.8438 161.974 34.9115 162.547 35.0469C163.12 35.1823 163.643 35.4062 164.117 35.7187C164.591 36.026 164.971 36.4453 165.258 36.9766C165.549 37.5078 165.695 38.1719 165.695 38.9687V47H162.977V45.3516H162.883C162.711 45.6849 162.469 45.9974 162.156 46.2891C161.849 46.5755 161.461 46.8073 160.992 46.9844C160.529 47.1563 159.984 47.2422 159.359 47.2422ZM160.094 45.1641C160.661 45.1641 161.154 45.0521 161.57 44.8281C161.987 44.599 162.307 44.2969 162.531 43.9219C162.76 43.5469 162.875 43.138 162.875 42.6953V41.2812C162.786 41.3542 162.635 41.4219 162.422 41.4844C162.214 41.5469 161.979 41.6016 161.719 41.6484C161.458 41.6953 161.201 41.737 160.945 41.7734C160.69 41.8099 160.469 41.8411 160.281 41.8672C159.859 41.9245 159.482 42.0182 159.148 42.1484C158.815 42.2786 158.552 42.4609 158.359 42.6953C158.167 42.9245 158.07 43.2214 158.07 43.5859C158.07 44.1068 158.26 44.5 158.641 44.7656C159.021 45.0312 159.505 45.1641 160.094 45.1641ZM174.531 35V37.1875H167.633V35H174.531ZM169.336 32.125H172.164V43.3906C172.164 43.7708 172.221 44.0625 172.336 44.2656C172.456 44.4635 172.612 44.599 172.805 44.6719C172.997 44.7448 173.211 44.7812 173.445 44.7812C173.622 44.7812 173.784 44.7682 173.93 44.7422C174.081 44.7161 174.195 44.6927 174.273 44.6719L174.75 46.8828C174.599 46.9349 174.383 46.9922 174.102 47.0547C173.826 47.1172 173.487 47.1536 173.086 47.1641C172.378 47.1849 171.74 47.0781 171.172 46.8437C170.604 46.6042 170.154 46.2344 169.82 45.7344C169.492 45.2344 169.331 44.6094 169.336 43.8594V32.125ZM176.896 47V35H179.725V47H176.896ZM178.318 33.2969C177.87 33.2969 177.485 33.1484 177.162 32.8516C176.839 32.5495 176.678 32.1875 176.678 31.7656C176.678 31.3385 176.839 30.9766 177.162 30.6797C177.485 30.3776 177.87 30.2266 178.318 30.2266C178.771 30.2266 179.157 30.3776 179.475 30.6797C179.798 30.9766 179.959 31.3385 179.959 31.7656C179.959 32.1875 179.798 32.5495 179.475 32.8516C179.157 33.1484 178.771 33.2969 178.318 33.2969ZM187.867 47.2344C186.695 47.2344 185.68 46.9766 184.82 46.4609C183.961 45.9453 183.294 45.224 182.82 44.2969C182.352 43.3698 182.117 42.2865 182.117 41.0469C182.117 39.8073 182.352 38.7214 182.82 37.7891C183.294 36.8568 183.961 36.1328 184.82 35.6172C185.68 35.1016 186.695 34.8438 187.867 34.8438C189.039 34.8438 190.055 35.1016 190.914 35.6172C191.773 36.1328 192.438 36.8568 192.906 37.7891C193.38 38.7214 193.617 39.8073 193.617 41.0469C193.617 42.2865 193.38 43.3698 192.906 44.2969C192.438 45.224 191.773 45.9453 190.914 46.4609C190.055 46.9766 189.039 47.2344 187.867 47.2344ZM187.883 44.9687C188.518 44.9687 189.049 44.7943 189.477 44.4453C189.904 44.0911 190.221 43.6172 190.43 43.0234C190.643 42.4297 190.75 41.7682 190.75 41.0391C190.75 40.3047 190.643 39.6406 190.43 39.0469C190.221 38.4479 189.904 37.9714 189.477 37.6172C189.049 37.263 188.518 37.0859 187.883 37.0859C187.232 37.0859 186.69 37.263 186.258 37.6172C185.831 37.9714 185.51 38.4479 185.297 39.0469C185.089 39.6406 184.984 40.3047 184.984 41.0391C184.984 41.7682 185.089 42.4297 185.297 43.0234C185.51 43.6172 185.831 44.0911 186.258 44.4453C186.69 44.7943 187.232 44.9687 187.883 44.9687ZM198.846 39.9687V47H196.018V35H198.721V37.0391H198.861C199.137 36.3672 199.577 35.8333 200.182 35.4375C200.791 35.0417 201.544 34.8438 202.439 34.8438C203.268 34.8438 203.989 35.0208 204.604 35.375C205.223 35.7292 205.702 36.2422 206.041 36.9141C206.385 37.5859 206.554 38.401 206.549 39.3594V47H203.721V39.7969C203.721 38.9948 203.512 38.3672 203.096 37.9141C202.684 37.4609 202.114 37.2344 201.385 37.2344C200.89 37.2344 200.45 37.3437 200.064 37.5625C199.684 37.776 199.385 38.0859 199.166 38.4922C198.952 38.8984 198.846 39.3906 198.846 39.9687ZM215.006 47V31H217.904V44.5703H224.951V47H215.006ZM227.342 47V35H230.17V47H227.342ZM228.764 33.2969C228.316 33.2969 227.93 33.1484 227.607 32.8516C227.285 32.5495 227.123 32.1875 227.123 31.7656C227.123 31.3385 227.285 30.9766 227.607 30.6797C227.93 30.3776 228.316 30.2266 228.764 30.2266C229.217 30.2266 229.602 30.3776 229.92 30.6797C230.243 30.9766 230.404 31.3385 230.404 31.7656C230.404 32.1875 230.243 32.5495 229.92 32.8516C229.602 33.1484 229.217 33.2969 228.764 33.2969ZM243.797 35L239.523 47H236.398L232.125 35H235.141L237.898 43.9141H238.023L240.789 35H243.797ZM245.754 47V35H248.582V47H245.754ZM247.176 33.2969C246.728 33.2969 246.342 33.1484 246.02 32.8516C245.697 32.5495 245.535 32.1875 245.535 31.7656C245.535 31.3385 245.697 30.9766 246.02 30.6797C246.342 30.3776 246.728 30.2266 247.176 30.2266C247.629 30.2266 248.014 30.3776 248.332 30.6797C248.655 30.9766 248.816 31.3385 248.816 31.7656C248.816 32.1875 248.655 32.5495 248.332 32.8516C248.014 33.1484 247.629 33.2969 247.176 33.2969ZM254.318 39.9687V47H251.49V35H254.193V37.0391H254.334C254.61 36.3672 255.05 35.8333 255.654 35.4375C256.264 35.0417 257.016 34.8438 257.912 34.8438C258.74 34.8438 259.462 35.0208 260.076 35.375C260.696 35.7292 261.175 36.2422 261.514 36.9141C261.857 37.5859 262.027 38.401 262.021 39.3594V47H259.193V39.7969C259.193 38.9948 258.985 38.3672 258.568 37.9141C258.157 37.4609 257.587 37.2344 256.857 37.2344C256.363 37.2344 255.923 37.3437 255.537 37.5625C255.157 37.776 254.857 38.0859 254.639 38.4922C254.425 38.8984 254.318 39.3906 254.318 39.9687ZM270.115 51.75C269.1 51.75 268.227 51.612 267.498 51.3359C266.769 51.0651 266.183 50.7005 265.74 50.2422C265.298 49.7839 264.99 49.276 264.818 48.7188L267.365 48.1016C267.48 48.3359 267.646 48.5677 267.865 48.7969C268.084 49.0313 268.378 49.224 268.748 49.375C269.123 49.5313 269.594 49.6094 270.162 49.6094C270.964 49.6094 271.628 49.4141 272.154 49.0234C272.68 48.638 272.943 48.0026 272.943 47.1172V44.8437H272.803C272.657 45.1354 272.443 45.4349 272.162 45.7422C271.886 46.0495 271.519 46.3073 271.061 46.5156C270.607 46.724 270.037 46.8281 269.35 46.8281C268.428 46.8281 267.592 46.612 266.842 46.1797C266.097 45.7422 265.503 45.0911 265.061 44.2266C264.623 43.3568 264.404 42.2682 264.404 40.9609C264.404 39.6432 264.623 38.5312 265.061 37.625C265.503 36.7135 266.1 36.0234 266.85 35.5547C267.6 35.0807 268.436 34.8438 269.357 34.8438C270.061 34.8438 270.639 34.9635 271.092 35.2031C271.55 35.4375 271.915 35.7214 272.186 36.0547C272.456 36.3828 272.662 36.6927 272.803 36.9844H272.959V35H275.748V47.1953C275.748 48.2214 275.503 49.0703 275.014 49.7422C274.524 50.4141 273.855 50.9167 273.006 51.25C272.157 51.5833 271.193 51.75 270.115 51.75ZM270.139 44.6094C270.738 44.6094 271.248 44.4635 271.67 44.1719C272.092 43.8802 272.412 43.4609 272.631 42.9141C272.85 42.3672 272.959 41.7109 272.959 40.9453C272.959 40.1901 272.85 39.5286 272.631 38.9609C272.417 38.3932 272.1 37.9531 271.678 37.6406C271.261 37.3229 270.748 37.1641 270.139 37.1641C269.508 37.1641 268.982 37.3281 268.561 37.6562C268.139 37.9844 267.821 38.4349 267.607 39.0078C267.394 39.5755 267.287 40.2214 267.287 40.9453C267.287 41.6797 267.394 42.3229 267.607 42.875C267.826 43.4219 268.146 43.849 268.568 44.1562C268.995 44.4583 269.519 44.6094 270.139 44.6094ZM284.104 47V35H286.932V47H284.104ZM285.525 33.2969C285.077 33.2969 284.692 33.1484 284.369 32.8516C284.046 32.5495 283.885 32.1875 283.885 31.7656C283.885 31.3385 284.046 30.9766 284.369 30.6797C284.692 30.3776 285.077 30.2266 285.525 30.2266C285.979 30.2266 286.364 30.3776 286.682 30.6797C287.005 30.9766 287.166 31.3385 287.166 31.7656C287.166 32.1875 287.005 32.5495 286.682 32.8516C286.364 33.1484 285.979 33.2969 285.525 33.2969ZM292.668 39.9687V47H289.84V35H292.543V37.0391H292.684C292.96 36.3672 293.4 35.8333 294.004 35.4375C294.613 35.0417 295.366 34.8438 296.262 34.8438C297.09 34.8438 297.811 35.0208 298.426 35.375C299.046 35.7292 299.525 36.2422 299.863 36.9141C300.207 37.5859 300.376 38.401 300.371 39.3594V47H297.543V39.7969C297.543 38.9948 297.335 38.3672 296.918 37.9141C296.507 37.4609 295.936 37.2344 295.207 37.2344C294.712 37.2344 294.272 37.3437 293.887 37.5625C293.507 37.776 293.207 38.0859 292.988 38.4922C292.775 38.8984 292.668 39.3906 292.668 39.9687ZM317.523 35.3984C317.451 34.7161 317.143 34.1849 316.602 33.8047C316.065 33.4245 315.367 33.2344 314.508 33.2344C313.904 33.2344 313.385 33.3255 312.953 33.5078C312.521 33.6901 312.19 33.9375 311.961 34.25C311.732 34.5625 311.615 34.9193 311.609 35.3203C311.609 35.6536 311.685 35.9427 311.836 36.1875C311.992 36.4323 312.203 36.6406 312.469 36.8125C312.734 36.9792 313.029 37.1198 313.352 37.2344C313.674 37.349 314 37.4453 314.328 37.5234L315.828 37.8984C316.432 38.0391 317.013 38.2292 317.57 38.4687C318.133 38.7083 318.635 39.0104 319.078 39.375C319.526 39.7396 319.88 40.1797 320.141 40.6953C320.401 41.2109 320.531 41.8151 320.531 42.5078C320.531 43.4453 320.292 44.2708 319.813 44.9844C319.333 45.6927 318.641 46.2474 317.734 46.6484C316.833 47.0443 315.742 47.2422 314.461 47.2422C313.216 47.2422 312.135 47.0495 311.219 46.6641C310.307 46.2786 309.594 45.7161 309.078 44.9766C308.568 44.237 308.292 43.3359 308.25 42.2734H311.102C311.143 42.8307 311.315 43.2943 311.617 43.6641C311.919 44.0339 312.313 44.3099 312.797 44.4922C313.286 44.6745 313.833 44.7656 314.438 44.7656C315.068 44.7656 315.62 44.6719 316.094 44.4844C316.573 44.2917 316.948 44.026 317.219 43.6875C317.49 43.3437 317.628 42.9427 317.633 42.4844C317.628 42.0677 317.505 41.724 317.266 41.4531C317.026 41.1771 316.69 40.9479 316.258 40.7656C315.831 40.5781 315.331 40.4115 314.758 40.2656L312.938 39.7969C311.62 39.4583 310.578 38.9453 309.813 38.2578C309.052 37.5651 308.672 36.6458 308.672 35.5C308.672 34.5573 308.927 33.7318 309.438 33.0234C309.953 32.3151 310.654 31.7656 311.539 31.375C312.424 30.9792 313.427 30.7812 314.547 30.7812C315.682 30.7812 316.677 30.9792 317.531 31.375C318.391 31.7656 319.065 32.3099 319.555 33.0078C320.044 33.7005 320.297 34.4974 320.312 35.3984H317.523ZM325.818 31V47H322.99V31H325.818ZM336.375 41.9531V35H339.203V47H336.461V44.8672H336.336C336.065 45.5391 335.62 46.0885 335 46.5156C334.385 46.9427 333.628 47.1563 332.727 47.1563C331.94 47.1563 331.245 46.9818 330.641 46.6328C330.042 46.2786 329.573 45.7656 329.234 45.0938C328.896 44.4167 328.727 43.599 328.727 42.6406V35H331.555V42.2031C331.555 42.9635 331.763 43.5677 332.18 44.0156C332.596 44.4635 333.143 44.6875 333.82 44.6875C334.237 44.6875 334.641 44.5859 335.031 44.3828C335.422 44.1797 335.742 43.8776 335.992 43.4766C336.247 43.0703 336.375 42.5625 336.375 41.9531ZM342.111 47V35H344.814V37.0391H344.955C345.205 36.3516 345.619 35.8151 346.197 35.4297C346.775 35.0391 347.465 34.8438 348.268 34.8438C349.08 34.8438 349.765 35.0417 350.322 35.4375C350.885 35.8281 351.281 36.362 351.51 37.0391H351.635C351.9 36.3724 352.348 35.8411 352.979 35.4453C353.614 35.0443 354.367 34.8438 355.236 34.8438C356.34 34.8438 357.242 35.1927 357.939 35.8906C358.637 36.5885 358.986 37.6068 358.986 38.9453V47H356.15V39.3828C356.15 38.638 355.952 38.0937 355.557 37.75C355.161 37.401 354.676 37.2266 354.104 37.2266C353.421 37.2266 352.887 37.4401 352.502 37.8672C352.122 38.2891 351.932 38.8385 351.932 39.5156V47H349.158V39.2656C349.158 38.6458 348.971 38.151 348.596 37.7812C348.226 37.4115 347.742 37.2266 347.143 37.2266C346.736 37.2266 346.367 37.3307 346.033 37.5391C345.7 37.7422 345.434 38.0312 345.236 38.4062C345.038 38.776 344.939 39.2083 344.939 39.7031V47H342.111ZM367.437 47V31H370.336V37.7734H377.75V31H380.656V47H377.75V40.2031H370.336V47H367.437ZM388.918 47.2344C387.746 47.2344 386.73 46.9766 385.871 46.4609C385.012 45.9453 384.345 45.224 383.871 44.2969C383.402 43.3698 383.168 42.2865 383.168 41.0469C383.168 39.8073 383.402 38.7214 383.871 37.7891C384.345 36.8568 385.012 36.1328 385.871 35.6172C386.73 35.1016 387.746 34.8438 388.918 34.8438C390.09 34.8438 391.105 35.1016 391.965 35.6172C392.824 36.1328 393.488 36.8568 393.957 37.7891C394.431 38.7214 394.668 39.8073 394.668 41.0469C394.668 42.2865 394.431 43.3698 393.957 44.2969C393.488 45.224 392.824 45.9453 391.965 46.4609C391.105 46.9766 390.09 47.2344 388.918 47.2344ZM388.934 44.9687C389.569 44.9687 390.1 44.7943 390.527 44.4453C390.954 44.0911 391.272 43.6172 391.48 43.0234C391.694 42.4297 391.801 41.7682 391.801 41.0391C391.801 40.3047 391.694 39.6406 391.48 39.0469C391.272 38.4479 390.954 37.9714 390.527 37.6172C390.1 37.263 389.569 37.0859 388.934 37.0859C388.283 37.0859 387.741 37.263 387.309 37.6172C386.882 37.9714 386.561 38.4479 386.348 39.0469C386.139 39.6406 386.035 40.3047 386.035 41.0391C386.035 41.7682 386.139 42.4297 386.348 43.0234C386.561 43.6172 386.882 44.0911 387.309 44.4453C387.741 44.7943 388.283 44.9687 388.934 44.9687ZM404.717 41.9531V35H407.545V47H404.803V44.8672H404.678C404.407 45.5391 403.962 46.0885 403.342 46.5156C402.727 46.9427 401.969 47.1563 401.068 47.1563C400.282 47.1563 399.587 46.9818 398.982 46.6328C398.383 46.2786 397.915 45.7656 397.576 45.0938C397.238 44.4167 397.068 43.599 397.068 42.6406V35H399.896V42.2031C399.896 42.9635 400.105 43.5677 400.521 44.0156C400.938 44.4635 401.485 44.6875 402.162 44.6875C402.579 44.6875 402.982 44.5859 403.373 44.3828C403.764 44.1797 404.084 43.8776 404.334 43.4766C404.589 43.0703 404.717 42.5625 404.717 41.9531ZM419.938 38.1719L417.359 38.4531C417.286 38.1927 417.159 37.9479 416.977 37.7188C416.799 37.4896 416.56 37.3047 416.258 37.1641C415.956 37.0234 415.586 36.9531 415.148 36.9531C414.56 36.9531 414.065 37.0807 413.664 37.3359C413.268 37.5911 413.073 37.9219 413.078 38.3281C413.073 38.6771 413.201 38.9609 413.461 39.1797C413.727 39.3984 414.164 39.5781 414.773 39.7188L416.82 40.1562C417.956 40.401 418.799 40.7891 419.352 41.3203C419.909 41.8516 420.19 42.5469 420.195 43.4062C420.19 44.1615 419.969 44.8281 419.531 45.4062C419.099 45.9792 418.497 46.4271 417.727 46.75C416.956 47.0729 416.07 47.2344 415.07 47.2344C413.602 47.2344 412.419 46.9271 411.523 46.3125C410.628 45.6927 410.094 44.8307 409.922 43.7266L412.68 43.4609C412.805 44.0026 413.07 44.4115 413.477 44.6875C413.883 44.9635 414.411 45.1016 415.063 45.1016C415.734 45.1016 416.273 44.9635 416.68 44.6875C417.091 44.4115 417.297 44.0703 417.297 43.6641C417.297 43.3203 417.164 43.0365 416.898 42.8125C416.638 42.5885 416.232 42.4167 415.68 42.2969L413.633 41.8672C412.482 41.6276 411.63 41.224 411.078 40.6562C410.526 40.0833 410.253 39.3594 410.258 38.4844C410.253 37.7448 410.453 37.1042 410.859 36.5625C411.271 36.0156 411.841 35.5937 412.57 35.2969C413.305 34.9948 414.151 34.8438 415.109 34.8438C416.516 34.8438 417.622 35.1432 418.43 35.7422C419.242 36.3411 419.745 37.151 419.938 38.1719ZM427.84 47.2344C426.637 47.2344 425.598 46.9844 424.723 46.4844C423.853 45.9792 423.184 45.2656 422.715 44.3437C422.246 43.4167 422.012 42.3255 422.012 41.0703C422.012 39.8359 422.246 38.7526 422.715 37.8203C423.189 36.8828 423.85 36.1536 424.699 35.6328C425.548 35.1068 426.546 34.8438 427.691 34.8438C428.431 34.8438 429.129 34.9635 429.785 35.2031C430.447 35.4375 431.03 35.8021 431.535 36.2969C432.046 36.7917 432.447 37.4219 432.738 38.1875C433.03 38.9479 433.176 39.8542 433.176 40.9062V41.7734H423.34V39.8672H430.465C430.46 39.3255 430.342 38.8437 430.113 38.4219C429.884 37.9948 429.564 37.6589 429.152 37.4141C428.746 37.1693 428.272 37.0469 427.73 37.0469C427.152 37.0469 426.645 37.1875 426.207 37.4687C425.77 37.7448 425.428 38.1094 425.184 38.5625C424.944 39.0104 424.822 39.5026 424.816 40.0391V41.7031C424.816 42.401 424.944 43 425.199 43.5C425.454 43.9948 425.811 44.375 426.27 44.6406C426.728 44.901 427.264 45.0312 427.879 45.0312C428.29 45.0312 428.663 44.974 428.996 44.8594C429.329 44.7396 429.618 44.5651 429.863 44.3359C430.108 44.1068 430.293 43.8229 430.418 43.4844L433.059 43.7812C432.892 44.4792 432.574 45.0885 432.105 45.6094C431.642 46.125 431.048 46.526 430.324 46.8125C429.6 47.0937 428.772 47.2344 427.84 47.2344ZM438.396 39.9687V47H435.568V31H438.334V37.0391H438.475C438.756 36.362 439.191 35.8281 439.779 35.4375C440.373 35.0417 441.128 34.8438 442.045 34.8438C442.878 34.8438 443.605 35.0182 444.225 35.3672C444.844 35.7161 445.324 36.2266 445.662 36.8984C446.006 37.5703 446.178 38.3906 446.178 39.3594V47H443.35V39.7969C443.35 38.9896 443.141 38.362 442.725 37.9141C442.313 37.4609 441.735 37.2344 440.99 37.2344C440.49 37.2344 440.042 37.3437 439.646 37.5625C439.256 37.776 438.949 38.0859 438.725 38.4922C438.506 38.8984 438.396 39.3906 438.396 39.9687ZM454.295 47.2344C453.123 47.2344 452.107 46.9766 451.248 46.4609C450.389 45.9453 449.722 45.224 449.248 44.2969C448.779 43.3698 448.545 42.2865 448.545 41.0469C448.545 39.8073 448.779 38.7214 449.248 37.7891C449.722 36.8568 450.389 36.1328 451.248 35.6172C452.107 35.1016 453.123 34.8438 454.295 34.8438C455.467 34.8438 456.482 35.1016 457.342 35.6172C458.201 36.1328 458.865 36.8568 459.334 37.7891C459.808 38.7214 460.045 39.8073 460.045 41.0469C460.045 42.2865 459.808 43.3698 459.334 44.2969C458.865 45.224 458.201 45.9453 457.342 46.4609C456.482 46.9766 455.467 47.2344 454.295 47.2344ZM454.311 44.9687C454.946 44.9687 455.477 44.7943 455.904 44.4453C456.331 44.0911 456.649 43.6172 456.857 43.0234C457.071 42.4297 457.178 41.7682 457.178 41.0391C457.178 40.3047 457.071 39.6406 456.857 39.0469C456.649 38.4479 456.331 37.9714 455.904 37.6172C455.477 37.263 454.946 37.0859 454.311 37.0859C453.66 37.0859 453.118 37.263 452.686 37.6172C452.258 37.9714 451.938 38.4479 451.725 39.0469C451.516 39.6406 451.412 40.3047 451.412 41.0391C451.412 41.7682 451.516 42.4297 451.725 43.0234C451.938 43.6172 452.258 44.0911 452.686 44.4453C453.118 44.7943 453.66 44.9687 454.311 44.9687ZM465.273 31V47H462.445V31H465.273ZM472.635 47.2109C471.692 47.2109 470.848 46.9688 470.104 46.4844C469.359 46 468.77 45.2969 468.338 44.375C467.906 43.4531 467.689 42.3333 467.689 41.0156C467.689 39.6823 467.908 38.5573 468.346 37.6406C468.788 36.7187 469.385 36.0234 470.135 35.5547C470.885 35.0807 471.721 34.8438 472.643 34.8438C473.346 34.8438 473.924 34.9635 474.377 35.2031C474.83 35.4375 475.189 35.7214 475.455 36.0547C475.721 36.3828 475.926 36.6927 476.072 36.9844H476.189V31H479.025V47H476.244V45.1094H476.072C475.926 45.401 475.715 45.7109 475.439 46.0391C475.163 46.362 474.799 46.638 474.346 46.8672C473.893 47.0964 473.322 47.2109 472.635 47.2109ZM473.424 44.8906C474.023 44.8906 474.533 44.7292 474.955 44.4062C475.377 44.0781 475.697 43.6224 475.916 43.0391C476.135 42.4557 476.244 41.776 476.244 41C476.244 40.224 476.135 39.5495 475.916 38.9766C475.702 38.4036 475.385 37.9583 474.963 37.6406C474.546 37.3229 474.033 37.1641 473.424 37.1641C472.794 37.1641 472.268 37.3281 471.846 37.6562C471.424 37.9844 471.106 38.4375 470.893 39.0156C470.679 39.5937 470.572 40.2552 470.572 41C470.572 41.75 470.679 42.4193 470.893 43.0078C471.111 43.5911 471.432 44.0521 471.854 44.3906C472.281 44.724 472.804 44.8906 473.424 44.8906ZM491.523 38.1719L488.945 38.4531C488.872 38.1927 488.745 37.9479 488.563 37.7188C488.385 37.4896 488.146 37.3047 487.844 37.1641C487.542 37.0234 487.172 36.9531 486.734 36.9531C486.146 36.9531 485.651 37.0807 485.25 37.3359C484.854 37.5911 484.659 37.9219 484.664 38.3281C484.659 38.6771 484.786 38.9609 485.047 39.1797C485.313 39.3984 485.75 39.5781 486.359 39.7188L488.406 40.1562C489.542 40.401 490.385 40.7891 490.938 41.3203C491.495 41.8516 491.776 42.5469 491.781 43.4062C491.776 44.1615 491.555 44.8281 491.117 45.4062C490.685 45.9792 490.083 46.4271 489.313 46.75C488.542 47.0729 487.656 47.2344 486.656 47.2344C485.188 47.2344 484.005 46.9271 483.109 46.3125C482.214 45.6927 481.68 44.8307 481.508 43.7266L484.266 43.4609C484.391 44.0026 484.656 44.4115 485.063 44.6875C485.469 44.9635 485.997 45.1016 486.648 45.1016C487.32 45.1016 487.859 44.9635 488.266 44.6875C488.677 44.4115 488.883 44.0703 488.883 43.6641C488.883 43.3203 488.75 43.0365 488.484 42.8125C488.224 42.5885 487.818 42.4167 487.266 42.2969L485.219 41.8672C484.068 41.6276 483.216 41.224 482.664 40.6562C482.112 40.0833 481.839 39.3594 481.844 38.4844C481.839 37.7448 482.039 37.1042 482.445 36.5625C482.857 36.0156 483.427 35.5937 484.156 35.2969C484.891 34.9948 485.737 34.8438 486.695 34.8438C488.102 34.8438 489.208 35.1432 490.016 35.7422C490.828 36.3411 491.331 37.151 491.523 38.1719Z" fill="black"/>
<path d="M71.7041 379.673H529.916" stroke="#D9D9D9" stroke-width="0.5"/>
<path d="M71.7041 320H529.916" stroke="#D9D9D9" stroke-width="0.5"/>
<path d="M71.7041 259.242H529.916" stroke="#D9D9D9" stroke-width="0.5"/>
<path d="M71.7041 199.569H529.916" stroke="#D9D9D9" stroke-width="0.5"/>
<path d="M71.7041 139.896H529.916" stroke="#D9D9D9" stroke-width="0.5"/>
<path d="M71.7041 80.2222H529.916" stroke="#D9D9D9" stroke-width="0.5"/>
<path d="M71.7041 379.673H529.916" stroke="#BFBFBF" stroke-width="0.5" stroke-linecap="round"/>
<path d="M109.793 379.131V384.556" stroke="#D9D9D9"/>
<path d="M186.771 379.131V384.556" stroke="#D9D9D9"/>
<path d="M262.663 379.131V384.556" stroke="#D9D9D9"/>
<path d="M339.641 379.131V384.556" stroke="#D9D9D9"/>
<path d="M415.534 379.131V384.556" stroke="#D9D9D9"/>
<path d="M492.512 379.131V384.556" stroke="#D9D9D9"/>
<path d="M59.2809 382.57C58.6389 382.57 58.092 382.396 57.6403 382.046C57.1886 381.694 56.8434 381.184 56.6048 380.516C56.3662 379.846 56.2468 379.036 56.2468 378.087C56.2468 377.144 56.3662 376.339 56.6048 375.671C56.8463 375.001 57.1929 374.489 57.6446 374.137C58.0991 373.782 58.6446 373.604 59.2809 373.604C59.9173 373.604 60.4613 373.782 60.913 374.137C61.3676 374.489 61.7142 375.001 61.9528 375.671C62.1943 376.339 62.315 377.144 62.315 378.087C62.315 379.036 62.1957 379.846 61.9571 380.516C61.7184 381.184 61.3733 381.694 60.9216 382.046C60.4699 382.396 59.923 382.57 59.2809 382.57ZM59.2809 381.633C59.9173 381.633 60.4116 381.326 60.7639 380.712C61.1162 380.099 61.2923 379.224 61.2923 378.087C61.2923 377.332 61.2113 376.688 61.0494 376.157C60.8903 375.626 60.6602 375.221 60.3591 374.943C60.0608 374.664 59.7014 374.525 59.2809 374.525C58.6503 374.525 58.1574 374.836 57.8022 375.458C57.4471 376.077 57.2696 376.954 57.2696 378.087C57.2696 378.843 57.3491 379.485 57.5082 380.014C57.6673 380.542 57.896 380.944 58.1943 381.22C58.4954 381.495 58.8576 381.633 59.2809 381.633Z" fill="#17191B"/>
<path d="M36.7424 322.68C36.1799 322.68 35.6785 322.584 35.2381 322.39C34.8006 322.197 34.4526 321.929 34.1941 321.585C33.9384 321.238 33.7992 320.836 33.7765 320.379H34.8504C34.8731 320.66 34.9697 320.903 35.1401 321.108C35.3106 321.309 35.5336 321.466 35.8092 321.576C36.0847 321.687 36.3901 321.743 36.7254 321.743C37.1004 321.743 37.4327 321.677 37.7225 321.547C38.0123 321.416 38.2396 321.234 38.4043 321.001C38.5691 320.768 38.6515 320.498 38.6515 320.192C38.6515 319.87 38.5719 319.588 38.4129 319.344C38.2538 319.096 38.0208 318.903 37.714 318.764C37.4072 318.625 37.0322 318.555 36.589 318.555H35.8901V317.618H36.589C36.9356 317.618 37.2396 317.555 37.5009 317.43C37.7651 317.305 37.9711 317.129 38.1188 316.902C38.2694 316.674 38.3447 316.407 38.3447 316.101C38.3447 315.805 38.2793 315.548 38.1487 315.329C38.018 315.111 37.8333 314.94 37.5947 314.818C37.3589 314.696 37.0805 314.635 36.7594 314.635C36.4583 314.635 36.1742 314.69 35.9072 314.801C35.643 314.909 35.4271 315.067 35.2594 315.274C35.0918 315.478 35.0009 315.726 34.9867 316.015H33.964C33.981 315.558 34.1188 315.157 34.3773 314.814C34.6359 314.467 34.9739 314.197 35.3915 314.004C35.812 313.811 36.2737 313.714 36.7765 313.714C37.3163 313.714 37.7793 313.824 38.1657 314.042C38.5521 314.258 38.8489 314.544 39.0563 314.899C39.2637 315.254 39.3674 315.638 39.3674 316.049C39.3674 316.541 39.2381 316.96 38.9796 317.307C38.7239 317.653 38.3759 317.893 37.9356 318.027V318.095C38.4867 318.186 38.9171 318.42 39.2268 318.798C39.5364 319.173 39.6913 319.638 39.6913 320.192C39.6913 320.666 39.562 321.092 39.3035 321.47C39.0478 321.845 38.6984 322.14 38.2552 322.356C37.812 322.572 37.3077 322.68 36.7424 322.68ZM44.2808 322.68C43.6387 322.68 43.0918 322.505 42.6401 322.156C42.1884 321.804 41.8433 321.294 41.6046 320.626C41.366 319.956 41.2467 319.146 41.2467 318.197C41.2467 317.254 41.366 316.449 41.6046 315.781C41.8461 315.111 42.1927 314.599 42.6444 314.247C43.0989 313.892 43.6444 313.714 44.2808 313.714C44.9171 313.714 45.4612 313.892 45.9129 314.247C46.3674 314.599 46.714 315.111 46.9526 315.781C47.1941 316.449 47.3148 317.254 47.3148 318.197C47.3148 319.146 47.1955 319.956 46.9569 320.626C46.7183 321.294 46.3731 321.804 45.9214 322.156C45.4697 322.505 44.9228 322.68 44.2808 322.68ZM44.2808 321.743C44.9171 321.743 45.4114 321.436 45.7637 320.822C46.116 320.209 46.2921 319.334 46.2921 318.197C46.2921 317.442 46.2112 316.798 46.0492 316.267C45.8901 315.736 45.66 315.331 45.3589 315.052C45.0606 314.774 44.7012 314.635 44.2808 314.635C43.6501 314.635 43.1572 314.946 42.8021 315.568C42.4469 316.187 42.2694 317.064 42.2694 318.197C42.2694 318.953 42.3489 319.595 42.508 320.123C42.6671 320.652 42.8958 321.054 43.1941 321.329C43.4952 321.605 43.8575 321.743 44.2808 321.743ZM51.7808 322.68C51.1387 322.68 50.5918 322.505 50.1401 322.156C49.6884 321.804 49.3433 321.294 49.1046 320.626C48.866 319.956 48.7467 319.146 48.7467 318.197C48.7467 317.254 48.866 316.449 49.1046 315.781C49.3461 315.111 49.6927 314.599 50.1444 314.247C50.5989 313.892 51.1444 313.714 51.7808 313.714C52.4171 313.714 52.9612 313.892 53.4129 314.247C53.8674 314.599 54.214 315.111 54.4526 315.781C54.6941 316.449 54.8148 317.254 54.8148 318.197C54.8148 319.146 54.6955 319.956 54.4569 320.626C54.2183 321.294 53.8731 321.804 53.4214 322.156C52.9697 322.505 52.4228 322.68 51.7808 322.68ZM51.7808 321.743C52.4171 321.743 52.9114 321.436 53.2637 320.822C53.616 320.209 53.7921 319.334 53.7921 318.197C53.7921 317.442 53.7112 316.798 53.5492 316.267C53.3901 315.736 53.16 315.331 52.8589 315.052C52.5606 314.774 52.2012 314.635 51.7808 314.635C51.1501 314.635 50.6572 314.946 50.3021 315.568C49.9469 316.187 49.7694 317.064 49.7694 318.197C49.7694 318.953 49.8489 319.595 50.008 320.123C50.1671 320.652 50.3958 321.054 50.6941 321.329C50.9952 321.605 51.3575 321.743 51.7808 321.743ZM59.2808 322.68C58.6387 322.68 58.0918 322.505 57.6401 322.156C57.1884 321.804 56.8433 321.294 56.6046 320.626C56.366 319.956 56.2467 319.146 56.2467 318.197C56.2467 317.254 56.366 316.449 56.6046 315.781C56.8461 315.111 57.1927 314.599 57.6444 314.247C58.0989 313.892 58.6444 313.714 59.2808 313.714C59.9171 313.714 60.4612 313.892 60.9129 314.247C61.3674 314.599 61.714 315.111 61.9526 315.781C62.1941 316.449 62.3148 317.254 62.3148 318.197C62.3148 319.146 62.1955 319.956 61.9569 320.626C61.7183 321.294 61.3731 321.804 60.9214 322.156C60.4697 322.505 59.9228 322.68 59.2808 322.68ZM59.2808 321.743C59.9171 321.743 60.4114 321.436 60.7637 320.822C61.116 320.209 61.2921 319.334 61.2921 318.197C61.2921 317.442 61.2112 316.798 61.0492 316.267C60.8901 315.736 60.66 315.331 60.3589 315.052C60.0606 314.774 59.7012 314.635 59.2808 314.635C58.6501 314.635 58.1572 314.946 57.8021 315.568C57.4469 316.187 57.2694 317.064 57.2694 318.197C57.2694 318.953 57.3489 319.595 57.508 320.123C57.6671 320.652 57.8958 321.054 58.1941 321.329C58.4952 321.605 58.8575 321.743 59.2808 321.743Z" fill="#17191B"/>
<path d="M36.8434 262.79C36.4855 262.784 36.1275 262.716 35.7695 262.586C35.4116 262.455 35.0849 262.235 34.7894 261.925C34.494 261.613 34.2568 261.191 34.0778 260.659C33.8988 260.125 33.8093 259.455 33.8093 258.648C33.8093 257.875 33.8818 257.191 34.0266 256.594C34.1715 255.995 34.3818 255.49 34.6573 255.081C34.9329 254.669 35.2653 254.357 35.6545 254.144C36.0465 253.931 36.4883 253.824 36.9798 253.824C37.4684 253.824 37.9031 253.922 38.2837 254.118C38.6673 254.311 38.9798 254.581 39.2212 254.928C39.4627 255.274 39.619 255.674 39.69 256.125H38.6502C38.5536 255.733 38.3661 255.408 38.0877 255.149C37.8093 254.891 37.44 254.762 36.9798 254.762C36.3036 254.762 35.771 255.056 35.3818 255.644C34.9954 256.232 34.8008 257.057 34.798 258.12H34.8661C35.0252 257.878 35.2141 257.672 35.4329 257.502C35.6545 257.328 35.8988 257.195 36.1659 257.101C36.4329 257.007 36.7156 256.961 37.0139 256.961C37.5139 256.961 37.9712 257.086 38.386 257.336C38.8008 257.583 39.1332 257.925 39.3832 258.363C39.6332 258.797 39.7582 259.296 39.7582 259.858C39.7582 260.398 39.6374 260.892 39.396 261.341C39.1545 261.787 38.815 262.142 38.3775 262.407C37.9428 262.668 37.4315 262.796 36.8434 262.79ZM36.8434 261.853C37.2014 261.853 37.5224 261.763 37.8065 261.584C38.0934 261.405 38.3193 261.165 38.484 260.864C38.6516 260.563 38.7355 260.228 38.7355 259.858C38.7355 259.497 38.6545 259.169 38.4926 258.874C38.3335 258.576 38.1133 258.338 37.832 258.162C37.5536 257.986 37.2355 257.898 36.8775 257.898C36.6076 257.898 36.3562 257.952 36.1232 258.06C35.8903 258.165 35.6857 258.31 35.5096 258.495C35.3363 258.679 35.1999 258.891 35.1005 259.13C35.0011 259.365 34.9514 259.614 34.9514 259.875C34.9514 260.222 35.0323 260.546 35.1943 260.847C35.359 261.148 35.5835 261.391 35.8676 261.576C36.1545 261.76 36.4798 261.853 36.8434 261.853ZM44.2806 262.79C43.6385 262.79 43.0916 262.615 42.6399 262.266C42.1882 261.914 41.8431 261.404 41.6044 260.736C41.3658 260.066 41.2465 259.256 41.2465 258.307C41.2465 257.364 41.3658 256.559 41.6044 255.891C41.8459 255.22 42.1925 254.709 42.6442 254.357C43.0987 254.002 43.6442 253.824 44.2806 253.824C44.9169 253.824 45.4609 254.002 45.9127 254.357C46.3672 254.709 46.7138 255.22 46.9524 255.891C47.1939 256.559 47.3146 257.364 47.3146 258.307C47.3146 259.256 47.1953 260.066 46.9567 260.736C46.7181 261.404 46.3729 261.914 45.9212 262.266C45.4695 262.615 44.9226 262.79 44.2806 262.79ZM44.2806 261.853C44.9169 261.853 45.4112 261.546 45.7635 260.932C46.1158 260.318 46.2919 259.443 46.2919 258.307C46.2919 257.551 46.2109 256.908 46.049 256.377C45.8899 255.845 45.6598 255.441 45.3587 255.162C45.0604 254.884 44.701 254.745 44.2806 254.745C43.6499 254.745 43.157 255.056 42.8019 255.678C42.4467 256.297 42.2692 257.174 42.2692 258.307C42.2692 259.063 42.3487 259.705 42.5078 260.233C42.6669 260.762 42.8956 261.164 43.1939 261.439C43.495 261.715 43.8573 261.853 44.2806 261.853ZM51.7806 262.79C51.1385 262.79 50.5916 262.615 50.1399 262.266C49.6882 261.914 49.3431 261.404 49.1044 260.736C48.8658 260.066 48.7465 259.256 48.7465 258.307C48.7465 257.364 48.8658 256.559 49.1044 255.891C49.3459 255.22 49.6925 254.709 50.1442 254.357C50.5987 254.002 51.1442 253.824 51.7806 253.824C52.4169 253.824 52.9609 254.002 53.4127 254.357C53.8672 254.709 54.2138 255.22 54.4524 255.891C54.6939 256.559 54.8146 257.364 54.8146 258.307C54.8146 259.256 54.6953 260.066 54.4567 260.736C54.2181 261.404 53.8729 261.914 53.4212 262.266C52.9695 262.615 52.4226 262.79 51.7806 262.79ZM51.7806 261.853C52.4169 261.853 52.9112 261.546 53.2635 260.932C53.6158 260.318 53.7919 259.443 53.7919 258.307C53.7919 257.551 53.7109 256.908 53.549 256.377C53.3899 255.845 53.1598 255.441 52.8587 255.162C52.5604 254.884 52.201 254.745 51.7806 254.745C51.1499 254.745 50.657 255.056 50.3019 255.678C49.9467 256.297 49.7692 257.174 49.7692 258.307C49.7692 259.063 49.8487 259.705 50.0078 260.233C50.1669 260.762 50.3956 261.164 50.6939 261.439C50.995 261.715 51.3573 261.853 51.7806 261.853ZM59.2806 262.79C58.6385 262.79 58.0916 262.615 57.6399 262.266C57.1882 261.914 56.8431 261.404 56.6044 260.736C56.3658 260.066 56.2465 259.256 56.2465 258.307C56.2465 257.364 56.3658 256.559 56.6044 255.891C56.8459 255.22 57.1925 254.709 57.6442 254.357C58.0987 254.002 58.6442 253.824 59.2806 253.824C59.9169 253.824 60.4609 254.002 60.9127 254.357C61.3672 254.709 61.7138 255.22 61.9524 255.891C62.1939 256.559 62.3146 257.364 62.3146 258.307C62.3146 259.256 62.1953 260.066 61.9567 260.736C61.7181 261.404 61.3729 261.914 60.9212 262.266C60.4695 262.615 59.9226 262.79 59.2806 262.79ZM59.2806 261.853C59.9169 261.853 60.4112 261.546 60.7635 260.932C61.1158 260.318 61.2919 259.443 61.2919 258.307C61.2919 257.551 61.2109 256.908 61.049 256.377C60.8899 255.845 60.6598 255.441 60.3587 255.162C60.0604 254.884 59.701 254.745 59.2806 254.745C58.6499 254.745 58.157 255.056 57.8019 255.678C57.4467 256.297 57.2692 257.174 57.2692 258.307C57.2692 259.063 57.3487 259.705 57.5078 260.233C57.6669 260.762 57.8956 261.164 58.1939 261.439C58.495 261.715 58.8573 261.853 59.2806 261.853Z" fill="#17191B"/>
<path d="M36.7241 193.934C37.082 193.937 37.44 194.005 37.798 194.138C38.1559 194.272 38.4826 194.493 38.7781 194.803C39.0735 195.11 39.3107 195.529 39.4897 196.06C39.6687 196.591 39.7582 197.258 39.7582 198.059C39.7582 198.834 39.6843 199.523 39.5366 200.125C39.3917 200.725 39.1815 201.231 38.9059 201.643C38.6332 202.054 38.3008 202.367 37.9087 202.58C37.5195 202.793 37.0792 202.9 36.5877 202.9C36.0991 202.9 35.663 202.803 35.2795 202.61C34.8988 202.414 34.5863 202.143 34.342 201.796C34.1005 201.446 33.9457 201.042 33.8775 200.581H34.9173C35.011 200.982 35.1971 201.313 35.4755 201.574C35.7568 201.833 36.1275 201.962 36.5877 201.962C37.261 201.962 37.7923 201.668 38.1815 201.08C38.5735 200.492 38.7695 199.661 38.7695 198.587H38.7014C38.5423 198.826 38.3534 199.032 38.1346 199.205C37.9159 199.378 37.673 199.512 37.4059 199.606C37.1389 199.699 36.8548 199.746 36.5536 199.746C36.0536 199.746 35.5948 199.623 35.1772 199.375C34.7624 199.125 34.4301 198.783 34.1801 198.348C33.9329 197.911 33.8093 197.411 33.8093 196.848C33.8093 196.314 33.9286 195.826 34.1673 195.383C34.4087 194.937 34.7468 194.581 35.1815 194.317C35.619 194.053 36.1332 193.925 36.7241 193.934ZM36.7241 194.871C36.3661 194.871 36.0437 194.961 35.7568 195.14C35.4727 195.316 35.2468 195.554 35.0792 195.856C34.9144 196.154 34.832 196.485 34.832 196.848C34.832 197.212 34.9116 197.543 35.0707 197.841C35.2326 198.137 35.4528 198.373 35.7312 198.549C36.0124 198.722 36.332 198.809 36.69 198.809C36.9599 198.809 37.2113 198.756 37.4443 198.651C37.6772 198.543 37.8803 198.397 38.0536 198.212C38.2298 198.025 38.3676 197.813 38.467 197.577C38.5664 197.339 38.6161 197.09 38.6161 196.831C38.6161 196.491 38.5337 196.171 38.369 195.873C38.207 195.574 37.9826 195.333 37.6957 195.148C37.4116 194.964 37.0877 194.871 36.7241 194.871ZM44.2806 202.9C43.6385 202.9 43.0916 202.725 42.6399 202.375C42.1882 202.023 41.8431 201.513 41.6044 200.846C41.3658 200.175 41.2465 199.366 41.2465 198.417C41.2465 197.473 41.3658 196.668 41.6044 196C41.8459 195.33 42.1925 194.819 42.6442 194.466C43.0987 194.111 43.6442 193.934 44.2806 193.934C44.9169 193.934 45.4609 194.111 45.9127 194.466C46.3672 194.819 46.7138 195.33 46.9524 196C47.1939 196.668 47.3146 197.473 47.3146 198.417C47.3146 199.366 47.1953 200.175 46.9567 200.846C46.7181 201.513 46.3729 202.023 45.9212 202.375C45.4695 202.725 44.9226 202.9 44.2806 202.9ZM44.2806 201.962C44.9169 201.962 45.4112 201.655 45.7635 201.042C46.1158 200.428 46.2919 199.553 46.2919 198.417C46.2919 197.661 46.2109 197.018 46.049 196.486C45.8899 195.955 45.6598 195.55 45.3587 195.272C45.0604 194.993 44.701 194.854 44.2806 194.854C43.6499 194.854 43.157 195.165 42.8019 195.787C42.4467 196.407 42.2692 197.283 42.2692 198.417C42.2692 199.172 42.3487 199.814 42.5078 200.343C42.6669 200.871 42.8956 201.273 43.1939 201.549C43.495 201.824 43.8573 201.962 44.2806 201.962ZM51.7806 202.9C51.1385 202.9 50.5916 202.725 50.1399 202.375C49.6882 202.023 49.3431 201.513 49.1044 200.846C48.8658 200.175 48.7465 199.366 48.7465 198.417C48.7465 197.473 48.8658 196.668 49.1044 196C49.3459 195.33 49.6925 194.819 50.1442 194.466C50.5987 194.111 51.1442 193.934 51.7806 193.934C52.4169 193.934 52.9609 194.111 53.4127 194.466C53.8672 194.819 54.2138 195.33 54.4524 196C54.6939 196.668 54.8146 197.473 54.8146 198.417C54.8146 199.366 54.6953 200.175 54.4567 200.846C54.2181 201.513 53.8729 202.023 53.4212 202.375C52.9695 202.725 52.4226 202.9 51.7806 202.9ZM51.7806 201.962C52.4169 201.962 52.9112 201.655 53.2635 201.042C53.6158 200.428 53.7919 199.553 53.7919 198.417C53.7919 197.661 53.7109 197.018 53.549 196.486C53.3899 195.955 53.1598 195.55 52.8587 195.272C52.5604 194.993 52.201 194.854 51.7806 194.854C51.1499 194.854 50.657 195.165 50.3019 195.787C49.9467 196.407 49.7692 197.283 49.7692 198.417C49.7692 199.172 49.8487 199.814 50.0078 200.343C50.1669 200.871 50.3956 201.273 50.6939 201.549C50.995 201.824 51.3573 201.962 51.7806 201.962ZM59.2806 202.9C58.6385 202.9 58.0916 202.725 57.6399 202.375C57.1882 202.023 56.8431 201.513 56.6044 200.846C56.3658 200.175 56.2465 199.366 56.2465 198.417C56.2465 197.473 56.3658 196.668 56.6044 196C56.8459 195.33 57.1925 194.819 57.6442 194.466C58.0987 194.111 58.6442 193.934 59.2806 193.934C59.9169 193.934 60.4609 194.111 60.9127 194.466C61.3672 194.819 61.7138 195.33 61.9524 196C62.1939 196.668 62.3146 197.473 62.3146 198.417C62.3146 199.366 62.1953 200.175 61.9567 200.846C61.7181 201.513 61.3729 202.023 60.9212 202.375C60.4695 202.725 59.9226 202.9 59.2806 202.9ZM59.2806 201.962C59.9169 201.962 60.4112 201.655 60.7635 201.042C61.1158 200.428 61.2919 199.553 61.2919 198.417C61.2919 197.661 61.2109 197.018 61.049 196.486C60.8899 195.955 60.6598 195.55 60.3587 195.272C60.0604 194.993 59.701 194.854 59.2806 194.854C58.6499 194.854 58.157 195.165 57.8019 195.787C57.4467 196.407 57.2692 197.283 57.2692 198.417C57.2692 199.172 57.3487 199.814 57.5078 200.343C57.6669 200.871 57.8956 201.273 58.1939 201.549C58.495 201.824 58.8573 201.962 59.2806 201.962Z" fill="#17191B"/>
<path d="M31.6586 134.163V142.89H30.6018V135.271H30.5507L28.42 136.686V135.612L30.6018 134.163H31.6586ZM34.1686 142.89V142.123L37.0493 138.97C37.3873 138.6 37.6658 138.279 37.8845 138.007C38.1033 137.731 38.2652 137.473 38.3703 137.231C38.4783 136.987 38.5322 136.731 38.5322 136.464C38.5322 136.157 38.4584 135.892 38.3106 135.667C38.1658 135.443 37.9669 135.269 37.714 135.147C37.4612 135.025 37.1771 134.964 36.8618 134.964C36.5265 134.964 36.2339 135.034 35.9839 135.173C35.7368 135.309 35.545 135.501 35.4086 135.748C35.2751 135.995 35.2084 136.285 35.2084 136.617H34.2027C34.2027 136.106 34.3206 135.657 34.5564 135.271C34.7922 134.885 35.1132 134.583 35.5194 134.367C35.9285 134.152 36.3873 134.044 36.8959 134.044C37.4072 134.044 37.8604 134.152 38.2552 134.367C38.6501 134.583 38.9598 134.875 39.1842 135.241C39.4086 135.608 39.5209 136.015 39.5209 136.464C39.5209 136.785 39.4626 137.099 39.3461 137.406C39.2325 137.71 39.0336 138.049 38.7496 138.424C38.4683 138.796 38.0777 139.251 37.5777 139.788L35.6175 141.885V141.953H39.6743V142.89H34.1686ZM44.2808 143.01C43.6388 143.01 43.0919 142.835 42.6402 142.485C42.1885 142.133 41.8433 141.623 41.6047 140.956C41.366 140.285 41.2467 139.475 41.2467 138.527C41.2467 137.583 41.366 136.778 41.6047 136.11C41.8461 135.44 42.1927 134.929 42.6444 134.576C43.099 134.221 43.6444 134.044 44.2808 134.044C44.9172 134.044 45.4612 134.221 45.9129 134.576C46.3675 134.929 46.714 135.44 46.9527 136.11C47.1942 136.778 47.3149 137.583 47.3149 138.527C47.3149 139.475 47.1956 140.285 46.9569 140.956C46.7183 141.623 46.3731 142.133 45.9214 142.485C45.4697 142.835 44.9229 143.01 44.2808 143.01ZM44.2808 142.072C44.9172 142.072 45.4115 141.765 45.7638 141.152C46.116 140.538 46.2922 139.663 46.2922 138.527C46.2922 137.771 46.2112 137.127 46.0493 136.596C45.8902 136.065 45.6601 135.66 45.3589 135.382C45.0606 135.103 44.7013 134.964 44.2808 134.964C43.6501 134.964 43.1572 135.275 42.8021 135.897C42.447 136.517 42.2694 137.393 42.2694 138.527C42.2694 139.282 42.349 139.924 42.5081 140.453C42.6672 140.981 42.8959 141.383 43.1942 141.659C43.4953 141.934 43.8575 142.072 44.2808 142.072ZM51.7808 143.01C51.1388 143.01 50.5919 142.835 50.1402 142.485C49.6885 142.133 49.3433 141.623 49.1047 140.956C48.866 140.285 48.7467 139.475 48.7467 138.527C48.7467 137.583 48.866 136.778 49.1047 136.11C49.3461 135.44 49.6927 134.929 50.1444 134.576C50.599 134.221 51.1444 134.044 51.7808 134.044C52.4172 134.044 52.9612 134.221 53.4129 134.576C53.8675 134.929 54.214 135.44 54.4527 136.11C54.6942 136.778 54.8149 137.583 54.8149 138.527C54.8149 139.475 54.6956 140.285 54.4569 140.956C54.2183 141.623 53.8731 142.133 53.4214 142.485C52.9697 142.835 52.4229 143.01 51.7808 143.01ZM51.7808 142.072C52.4172 142.072 52.9115 141.765 53.2638 141.152C53.616 140.538 53.7922 139.663 53.7922 138.527C53.7922 137.771 53.7112 137.127 53.5493 136.596C53.3902 136.065 53.1601 135.66 52.8589 135.382C52.5606 135.103 52.2013 134.964 51.7808 134.964C51.1501 134.964 50.6572 135.275 50.3021 135.897C49.947 136.517 49.7694 137.393 49.7694 138.527C49.7694 139.282 49.849 139.924 50.0081 140.453C50.1672 140.981 50.3959 141.383 50.6942 141.659C50.9953 141.934 51.3575 142.072 51.7808 142.072ZM59.2808 143.01C58.6388 143.01 58.0919 142.835 57.6402 142.485C57.1885 142.133 56.8433 141.623 56.6047 140.956C56.366 140.285 56.2467 139.475 56.2467 138.527C56.2467 137.583 56.366 136.778 56.6047 136.11C56.8461 135.44 57.1927 134.929 57.6444 134.576C58.099 134.221 58.6444 134.044 59.2808 134.044C59.9172 134.044 60.4612 134.221 60.9129 134.576C61.3675 134.929 61.714 135.44 61.9527 136.11C62.1942 136.778 62.3149 137.583 62.3149 138.527C62.3149 139.475 62.1956 140.285 61.9569 140.956C61.7183 141.623 61.3731 142.133 60.9214 142.485C60.4697 142.835 59.9229 143.01 59.2808 143.01ZM59.2808 142.072C59.9172 142.072 60.4115 141.765 60.7638 141.152C61.116 140.538 61.2922 139.663 61.2922 138.527C61.2922 137.771 61.2112 137.127 61.0493 136.596C60.8902 136.065 60.6601 135.66 60.3589 135.382C60.0606 135.103 59.7013 134.964 59.2808 134.964C58.6501 134.964 58.1572 135.275 57.8021 135.897C57.447 136.517 57.2694 137.393 57.2694 138.527C57.2694 139.282 57.349 139.924 57.5081 140.453C57.6672 140.981 57.8959 141.383 58.1942 141.659C58.4953 141.934 58.8575 142.072 59.2808 142.072Z" fill="#17191B"/>
<path d="M31.6235 74.2727V83H30.5667V75.3807H30.5155L28.3849 76.7955V75.7216L30.5667 74.2727H31.6235ZM36.8607 83.1193C36.3607 83.1193 35.9104 83.0199 35.5099 82.821C35.1093 82.6222 34.7883 82.3494 34.5468 82.0028C34.3053 81.6562 34.1732 81.2614 34.1505 80.8182H35.1732C35.213 81.2131 35.392 81.5398 35.7101 81.7983C36.0312 82.054 36.4147 82.1818 36.8607 82.1818C37.2187 82.1818 37.5368 82.098 37.8153 81.9304C38.0965 81.7628 38.3167 81.5327 38.4758 81.2401C38.6377 80.9446 38.7187 80.6108 38.7187 80.2386C38.7187 79.858 38.6349 79.5185 38.4672 79.2202C38.3025 78.919 38.0752 78.6818 37.7854 78.5085C37.4957 78.3352 37.1647 78.2472 36.7925 78.2443C36.5255 78.2415 36.2513 78.2827 35.9701 78.3679C35.6888 78.4503 35.4573 78.5568 35.2755 78.6875L34.2868 78.5682L34.8153 74.2727H39.3493V75.2102H35.7016L35.3948 77.7841H35.4459C35.6249 77.642 35.8493 77.5241 36.1192 77.4304C36.3891 77.3366 36.6704 77.2898 36.963 77.2898C37.4971 77.2898 37.9729 77.4176 38.3905 77.6733C38.811 77.9261 39.1405 78.2727 39.3792 78.7131C39.6207 79.1534 39.7414 79.6562 39.7414 80.2216C39.7414 80.7784 39.6164 81.2756 39.3664 81.7131C39.1192 82.1477 38.7783 82.4915 38.3437 82.7443C37.909 82.9943 37.4147 83.1193 36.8607 83.1193ZM44.2808 83.1193C43.6388 83.1193 43.0919 82.9446 42.6402 82.5952C42.1885 82.2429 41.8433 81.733 41.6047 81.0653C41.366 80.3949 41.2467 79.5852 41.2467 78.6364C41.2467 77.6932 41.366 76.8878 41.6047 76.2202C41.8461 75.5497 42.1927 75.0384 42.6444 74.6861C43.099 74.331 43.6444 74.1534 44.2808 74.1534C44.9172 74.1534 45.4612 74.331 45.9129 74.6861C46.3675 75.0384 46.714 75.5497 46.9527 76.2202C47.1942 76.8878 47.3149 77.6932 47.3149 78.6364C47.3149 79.5852 47.1956 80.3949 46.9569 81.0653C46.7183 81.733 46.3731 82.2429 45.9214 82.5952C45.4697 82.9446 44.9229 83.1193 44.2808 83.1193ZM44.2808 82.1818C44.9172 82.1818 45.4115 81.875 45.7638 81.2614C46.116 80.6477 46.2922 79.7727 46.2922 78.6364C46.2922 77.8807 46.2112 77.2372 46.0493 76.706C45.8902 76.1747 45.6601 75.7699 45.3589 75.4915C45.0606 75.2131 44.7013 75.0739 44.2808 75.0739C43.6501 75.0739 43.1572 75.3849 42.8021 76.0071C42.447 76.6264 42.2694 77.5028 42.2694 78.6364C42.2694 79.392 42.349 80.0341 42.5081 80.5625C42.6672 81.0909 42.8959 81.4929 43.1942 81.7685C43.4953 82.044 43.8575 82.1818 44.2808 82.1818ZM51.7808 83.1193C51.1388 83.1193 50.5919 82.9446 50.1402 82.5952C49.6885 82.2429 49.3433 81.733 49.1047 81.0653C48.866 80.3949 48.7467 79.5852 48.7467 78.6364C48.7467 77.6932 48.866 76.8878 49.1047 76.2202C49.3461 75.5497 49.6927 75.0384 50.1444 74.6861C50.599 74.331 51.1444 74.1534 51.7808 74.1534C52.4172 74.1534 52.9612 74.331 53.4129 74.6861C53.8675 75.0384 54.214 75.5497 54.4527 76.2202C54.6942 76.8878 54.8149 77.6932 54.8149 78.6364C54.8149 79.5852 54.6956 80.3949 54.4569 81.0653C54.2183 81.733 53.8731 82.2429 53.4214 82.5952C52.9697 82.9446 52.4229 83.1193 51.7808 83.1193ZM51.7808 82.1818C52.4172 82.1818 52.9115 81.875 53.2638 81.2614C53.616 80.6477 53.7922 79.7727 53.7922 78.6364C53.7922 77.8807 53.7112 77.2372 53.5493 76.706C53.3902 76.1747 53.1601 75.7699 52.8589 75.4915C52.5606 75.2131 52.2013 75.0739 51.7808 75.0739C51.1501 75.0739 50.6572 75.3849 50.3021 76.0071C49.947 76.6264 49.7694 77.5028 49.7694 78.6364C49.7694 79.392 49.849 80.0341 50.0081 80.5625C50.1672 81.0909 50.3959 81.4929 50.6942 81.7685C50.9953 82.044 51.3575 82.1818 51.7808 82.1818ZM59.2808 83.1193C58.6388 83.1193 58.0919 82.9446 57.6402 82.5952C57.1885 82.2429 56.8433 81.733 56.6047 81.0653C56.366 80.3949 56.2467 79.5852 56.2467 78.6364C56.2467 77.6932 56.366 76.8878 56.6047 76.2202C56.8461 75.5497 57.1927 75.0384 57.6444 74.6861C58.099 74.331 58.6444 74.1534 59.2808 74.1534C59.9172 74.1534 60.4612 74.331 60.9129 74.6861C61.3675 75.0384 61.714 75.5497 61.9527 76.2202C62.1942 76.8878 62.3149 77.6932 62.3149 78.6364C62.3149 79.5852 62.1956 80.3949 61.9569 81.0653C61.7183 81.733 61.3731 82.2429 60.9214 82.5952C60.4697 82.9446 59.9229 83.1193 59.2808 83.1193ZM59.2808 82.1818C59.9172 82.1818 60.4115 81.875 60.7638 81.2614C61.116 80.6477 61.2922 79.7727 61.2922 78.6364C61.2922 77.8807 61.2112 77.2372 61.0493 76.706C60.8902 76.1747 60.6601 75.7699 60.3589 75.4915C60.0606 75.2131 59.7013 75.0739 59.2808 75.0739C58.6501 75.0739 58.1572 75.3849 57.8021 76.0071C57.447 76.6264 57.2694 77.5028 57.2694 78.6364C57.2694 79.392 57.349 80.0341 57.5081 80.5625C57.6672 81.0909 57.8959 81.4929 58.1942 81.7685C58.4953 82.044 58.8575 82.1818 59.2808 82.1818Z" fill="#17191B"/>
<path d="M96.3799 397.641V396.873L99.2606 393.72C99.5987 393.351 99.8771 393.03 100.096 392.757C100.315 392.481 100.476 392.223 100.582 391.981C100.69 391.737 100.744 391.481 100.744 391.214C100.744 390.908 100.67 390.642 100.522 390.418C100.377 390.193 100.178 390.02 99.9254 389.898C99.6725 389.775 99.3884 389.714 99.0731 389.714C98.7379 389.714 98.4452 389.784 98.1952 389.923C97.9481 390.06 97.7563 390.251 97.62 390.498C97.4864 390.746 97.4197 391.035 97.4197 391.368H96.414C96.414 390.856 96.5319 390.408 96.7677 390.021C97.0035 389.635 97.3245 389.334 97.7308 389.118C98.1399 388.902 98.5987 388.794 99.1072 388.794C99.6185 388.794 100.072 388.902 100.467 389.118C100.861 389.334 101.171 389.625 101.396 389.991C101.62 390.358 101.732 390.766 101.732 391.214C101.732 391.535 101.674 391.849 101.557 392.156C101.444 392.46 101.245 392.8 100.961 393.175C100.68 393.547 100.289 394.001 99.789 394.538L97.8288 396.635V396.703H101.886V397.641H96.3799ZM106.492 397.76C105.85 397.76 105.303 397.585 104.851 397.236C104.4 396.883 104.055 396.373 103.816 395.706C103.577 395.035 103.458 394.226 103.458 393.277C103.458 392.334 103.577 391.528 103.816 390.861C104.057 390.19 104.404 389.679 104.856 389.327C105.31 388.971 105.856 388.794 106.492 388.794C107.128 388.794 107.673 388.971 108.124 389.327C108.579 389.679 108.925 390.19 109.164 390.861C109.405 391.528 109.526 392.334 109.526 393.277C109.526 394.226 109.407 395.035 109.168 395.706C108.93 396.373 108.584 396.883 108.133 397.236C107.681 397.585 107.134 397.76 106.492 397.76ZM106.492 396.822C107.128 396.822 107.623 396.516 107.975 395.902C108.327 395.288 108.503 394.413 108.503 393.277C108.503 392.521 108.423 391.878 108.261 391.346C108.101 390.815 107.871 390.41 107.57 390.132C107.272 389.854 106.913 389.714 106.492 389.714C105.861 389.714 105.369 390.025 105.013 390.648C104.658 391.267 104.481 392.143 104.481 393.277C104.481 394.033 104.56 394.675 104.719 395.203C104.878 395.731 105.107 396.133 105.405 396.409C105.707 396.685 106.069 396.822 106.492 396.822ZM114.214 388.913V397.641H113.157V390.021H113.106L110.975 391.436V390.362L113.157 388.913H114.214ZM119.519 397.76C118.934 397.76 118.417 397.656 117.968 397.449C117.522 397.239 117.174 396.95 116.924 396.584C116.674 396.214 116.55 395.794 116.553 395.322C116.55 394.953 116.623 394.612 116.771 394.3C116.918 393.984 117.12 393.721 117.376 393.511C117.634 393.298 117.923 393.163 118.241 393.106V393.055C117.823 392.947 117.491 392.713 117.244 392.352C116.996 391.989 116.874 391.575 116.877 391.112C116.874 390.669 116.986 390.273 117.214 389.923C117.441 389.574 117.753 389.298 118.151 389.096C118.552 388.895 119.008 388.794 119.519 388.794C120.025 388.794 120.476 388.895 120.874 389.096C121.272 389.298 121.584 389.574 121.812 389.923C122.042 390.273 122.158 390.669 122.161 391.112C122.158 391.575 122.032 391.989 121.782 392.352C121.535 392.713 121.207 392.947 120.798 393.055V393.106C121.113 393.163 121.397 393.298 121.65 393.511C121.903 393.721 122.104 393.984 122.255 394.3C122.405 394.612 122.482 394.953 122.485 395.322C122.482 395.794 122.354 396.214 122.101 396.584C121.851 396.95 121.503 397.239 121.057 397.449C120.614 397.656 120.101 397.76 119.519 397.76ZM119.519 396.822C119.914 396.822 120.255 396.758 120.542 396.631C120.829 396.503 121.05 396.322 121.207 396.089C121.363 395.856 121.442 395.584 121.445 395.271C121.442 394.942 121.357 394.65 121.19 394.398C121.022 394.145 120.793 393.946 120.503 393.801C120.217 393.656 119.888 393.584 119.519 393.584C119.147 393.584 118.815 393.656 118.522 393.801C118.232 393.946 118.003 394.145 117.836 394.398C117.671 394.65 117.59 394.942 117.593 395.271C117.59 395.584 117.665 395.856 117.819 396.089C117.975 396.322 118.198 396.503 118.488 396.631C118.778 396.758 119.121 396.822 119.519 396.822ZM119.519 392.68C119.832 392.68 120.109 392.618 120.35 392.493C120.594 392.368 120.786 392.193 120.925 391.969C121.065 391.744 121.136 391.481 121.138 391.18C121.136 390.885 121.066 390.628 120.93 390.409C120.793 390.187 120.604 390.017 120.363 389.898C120.121 389.775 119.84 389.714 119.519 389.714C119.192 389.714 118.907 389.775 118.663 389.898C118.418 390.017 118.229 390.187 118.096 390.409C117.962 390.628 117.897 390.885 117.9 391.18C117.897 391.481 117.964 391.744 118.1 391.969C118.239 392.193 118.431 392.368 118.675 392.493C118.92 392.618 119.201 392.68 119.519 392.68Z" fill="#17191B"/>
<path d="M173.245 397.641V396.873L176.126 393.72C176.464 393.351 176.742 393.03 176.961 392.757C177.18 392.481 177.342 392.223 177.447 391.981C177.555 391.737 177.609 391.481 177.609 391.214C177.609 390.908 177.535 390.642 177.387 390.418C177.242 390.193 177.043 390.02 176.791 389.898C176.538 389.775 176.254 389.714 175.938 389.714C175.603 389.714 175.31 389.784 175.06 389.923C174.813 390.06 174.622 390.251 174.485 390.498C174.352 390.746 174.285 391.035 174.285 391.368H173.279C173.279 390.856 173.397 390.408 173.633 390.021C173.869 389.635 174.19 389.334 174.596 389.118C175.005 388.902 175.464 388.794 175.972 388.794C176.484 388.794 176.937 388.902 177.332 389.118C177.727 389.334 178.036 389.625 178.261 389.991C178.485 390.358 178.597 390.766 178.597 391.214C178.597 391.535 178.539 391.849 178.423 392.156C178.309 392.46 178.11 392.8 177.826 393.175C177.545 393.547 177.154 394.001 176.654 394.538L174.694 396.635V396.703H178.751V397.641H173.245ZM183.357 397.76C182.715 397.76 182.168 397.585 181.717 397.236C181.265 396.883 180.92 396.373 180.681 395.706C180.443 395.035 180.323 394.226 180.323 393.277C180.323 392.334 180.443 391.528 180.681 390.861C180.923 390.19 181.269 389.679 181.721 389.327C182.176 388.971 182.721 388.794 183.357 388.794C183.994 388.794 184.538 388.971 184.989 389.327C185.444 389.679 185.791 390.19 186.029 390.861C186.271 391.528 186.391 392.334 186.391 393.277C186.391 394.226 186.272 395.035 186.033 395.706C185.795 396.373 185.45 396.883 184.998 397.236C184.546 397.585 183.999 397.76 183.357 397.76ZM183.357 396.822C183.994 396.822 184.488 396.516 184.84 395.902C185.193 395.288 185.369 394.413 185.369 393.277C185.369 392.521 185.288 391.878 185.126 391.346C184.967 390.815 184.737 390.41 184.435 390.132C184.137 389.854 183.778 389.714 183.357 389.714C182.727 389.714 182.234 390.025 181.879 390.648C181.524 391.267 181.346 392.143 181.346 393.277C181.346 394.033 181.426 394.675 181.585 395.203C181.744 395.731 181.972 396.133 182.271 396.409C182.572 396.685 182.934 396.822 183.357 396.822ZM191.079 388.913V397.641H190.022V390.021H189.971L187.84 391.436V390.362L190.022 388.913H191.079ZM196.367 388.794C196.725 388.797 197.083 388.865 197.441 388.998C197.799 389.132 198.126 389.354 198.421 389.663C198.717 389.97 198.954 390.389 199.133 390.92C199.312 391.452 199.401 392.118 199.401 392.919C199.401 393.695 199.328 394.383 199.18 394.986C199.035 395.585 198.825 396.091 198.549 396.503C198.276 396.915 197.944 397.227 197.552 397.44C197.163 397.653 196.722 397.76 196.231 397.76C195.742 397.76 195.306 397.663 194.923 397.47C194.542 397.274 194.23 397.003 193.985 396.656C193.744 396.307 193.589 395.902 193.521 395.442H194.56C194.654 395.842 194.84 396.173 195.119 396.435C195.4 396.693 195.771 396.822 196.231 396.822C196.904 396.822 197.435 396.528 197.825 395.94C198.217 395.352 198.413 394.521 198.413 393.447H198.345C198.185 393.686 197.997 393.892 197.778 394.065C197.559 394.239 197.316 394.372 197.049 394.466C196.782 394.56 196.498 394.606 196.197 394.606C195.697 394.606 195.238 394.483 194.82 394.236C194.406 393.986 194.073 393.643 193.823 393.209C193.576 392.771 193.453 392.271 193.453 391.709C193.453 391.175 193.572 390.686 193.81 390.243C194.052 389.797 194.39 389.442 194.825 389.177C195.262 388.913 195.776 388.785 196.367 388.794ZM196.367 389.731C196.009 389.731 195.687 389.821 195.4 390C195.116 390.176 194.89 390.415 194.722 390.716C194.558 391.014 194.475 391.345 194.475 391.709C194.475 392.072 194.555 392.403 194.714 392.702C194.876 392.997 195.096 393.233 195.374 393.409C195.656 393.582 195.975 393.669 196.333 393.669C196.603 393.669 196.855 393.616 197.087 393.511C197.32 393.403 197.524 393.257 197.697 393.072C197.873 392.885 198.011 392.673 198.11 392.437C198.21 392.199 198.259 391.95 198.259 391.692C198.259 391.351 198.177 391.031 198.012 390.733C197.85 390.435 197.626 390.193 197.339 390.008C197.055 389.824 196.731 389.731 196.367 389.731Z" fill="#17191B"/>
<path d="M248.222 397.641V396.873L251.103 393.72C251.441 393.351 251.719 393.03 251.938 392.757C252.157 392.481 252.318 392.223 252.424 391.981C252.532 391.737 252.586 391.481 252.586 391.214C252.586 390.908 252.512 390.642 252.364 390.418C252.219 390.193 252.02 390.02 251.767 389.898C251.515 389.775 251.23 389.714 250.915 389.714C250.58 389.714 250.287 389.784 250.037 389.923C249.79 390.06 249.598 390.251 249.462 390.498C249.328 390.746 249.262 391.035 249.262 391.368H248.256C248.256 390.856 248.374 390.408 248.61 390.021C248.845 389.635 249.167 389.334 249.573 389.118C249.982 388.902 250.441 388.794 250.949 388.794C251.461 388.794 251.914 388.902 252.309 389.118C252.703 389.334 253.013 389.625 253.238 389.991C253.462 390.358 253.574 390.766 253.574 391.214C253.574 391.535 253.516 391.849 253.399 392.156C253.286 392.46 253.087 392.8 252.803 393.175C252.522 393.547 252.131 394.001 251.631 394.538L249.671 396.635V396.703H253.728V397.641H248.222ZM258.334 397.76C257.692 397.76 257.145 397.585 256.693 397.236C256.242 396.883 255.897 396.373 255.658 395.706C255.419 395.035 255.3 394.226 255.3 393.277C255.3 392.334 255.419 391.528 255.658 390.861C255.899 390.19 256.246 389.679 256.698 389.327C257.152 388.971 257.698 388.794 258.334 388.794C258.97 388.794 259.515 388.971 259.966 389.327C260.421 389.679 260.767 390.19 261.006 390.861C261.247 391.528 261.368 392.334 261.368 393.277C261.368 394.226 261.249 395.035 261.01 395.706C260.772 396.373 260.426 396.883 259.975 397.236C259.523 397.585 258.976 397.76 258.334 397.76ZM258.334 396.822C258.97 396.822 259.465 396.516 259.817 395.902C260.169 395.288 260.345 394.413 260.345 393.277C260.345 392.521 260.265 391.878 260.103 391.346C259.943 390.815 259.713 390.41 259.412 390.132C259.114 389.854 258.755 389.714 258.334 389.714C257.703 389.714 257.211 390.025 256.855 390.648C256.5 391.267 256.323 392.143 256.323 393.277C256.323 394.033 256.402 394.675 256.561 395.203C256.72 395.731 256.949 396.133 257.247 396.409C257.549 396.685 257.911 396.822 258.334 396.822ZM262.988 397.641V396.873L265.868 393.72C266.206 393.351 266.485 393.03 266.703 392.757C266.922 392.481 267.084 392.223 267.189 391.981C267.297 391.737 267.351 391.481 267.351 391.214C267.351 390.908 267.277 390.642 267.13 390.418C266.985 390.193 266.786 390.02 266.533 389.898C266.28 389.775 265.996 389.714 265.681 389.714C265.345 389.714 265.053 389.784 264.803 389.923C264.556 390.06 264.364 390.251 264.228 390.498C264.094 390.746 264.027 391.035 264.027 391.368H263.022C263.022 390.856 263.14 390.408 263.375 390.021C263.611 389.635 263.932 389.334 264.338 389.118C264.747 388.902 265.206 388.794 265.715 388.794C266.226 388.794 266.679 388.902 267.074 389.118C267.469 389.334 267.779 389.625 268.003 389.991C268.228 390.358 268.34 390.766 268.34 391.214C268.34 391.535 268.282 391.849 268.165 392.156C268.051 392.46 267.853 392.8 267.568 393.175C267.287 393.547 266.897 394.001 266.397 394.538L264.436 396.635V396.703H268.493V397.641H262.988ZM273.1 397.76C272.458 397.76 271.911 397.585 271.459 397.236C271.007 396.883 270.662 396.373 270.424 395.706C270.185 395.035 270.066 394.226 270.066 393.277C270.066 392.334 270.185 391.528 270.424 390.861C270.665 390.19 271.012 389.679 271.463 389.327C271.918 388.971 272.463 388.794 273.1 388.794C273.736 388.794 274.28 388.971 274.732 389.327C275.186 389.679 275.533 390.19 275.772 390.861C276.013 391.528 276.134 392.334 276.134 393.277C276.134 394.226 276.015 395.035 275.776 395.706C275.537 396.373 275.192 396.883 274.74 397.236C274.289 397.585 273.742 397.76 273.1 397.76ZM273.1 396.822C273.736 396.822 274.23 396.516 274.583 395.902C274.935 395.288 275.111 394.413 275.111 393.277C275.111 392.521 275.03 391.878 274.868 391.346C274.709 390.815 274.479 390.41 274.178 390.132C273.88 389.854 273.52 389.714 273.1 389.714C272.469 389.714 271.976 390.025 271.621 390.648C271.266 391.267 271.088 392.143 271.088 393.277C271.088 394.033 271.168 394.675 271.327 395.203C271.486 395.731 271.715 396.133 272.013 396.409C272.314 396.685 272.676 396.822 273.1 396.822Z" fill="#17191B"/>
<path d="M325.552 397.641V396.873L328.432 393.72C328.771 393.351 329.049 393.03 329.268 392.757C329.486 392.481 329.648 392.223 329.753 391.981C329.861 391.737 329.915 391.481 329.915 391.214C329.915 390.908 329.842 390.642 329.694 390.418C329.549 390.193 329.35 390.02 329.097 389.898C328.844 389.775 328.56 389.714 328.245 389.714C327.91 389.714 327.617 389.784 327.367 389.923C327.12 390.06 326.928 390.251 326.792 390.498C326.658 390.746 326.592 391.035 326.592 391.368H325.586C325.586 390.856 325.704 390.408 325.94 390.021C326.175 389.635 326.496 389.334 326.903 389.118C327.312 388.902 327.771 388.794 328.279 388.794C328.79 388.794 329.244 388.902 329.638 389.118C330.033 389.334 330.343 389.625 330.567 389.991C330.792 390.358 330.904 390.766 330.904 391.214C330.904 391.535 330.846 391.849 330.729 392.156C330.616 392.46 330.417 392.8 330.133 393.175C329.851 393.547 329.461 394.001 328.961 394.538L327.001 396.635V396.703H331.057V397.641H325.552ZM335.664 397.76C335.022 397.76 334.475 397.585 334.023 397.236C333.572 396.883 333.226 396.373 332.988 395.706C332.749 395.035 332.63 394.226 332.63 393.277C332.63 392.334 332.749 391.528 332.988 390.861C333.229 390.19 333.576 389.679 334.028 389.327C334.482 388.971 335.028 388.794 335.664 388.794C336.3 388.794 336.844 388.971 337.296 389.327C337.751 389.679 338.097 390.19 338.336 390.861C338.577 391.528 338.698 392.334 338.698 393.277C338.698 394.226 338.579 395.035 338.34 395.706C338.101 396.373 337.756 396.883 337.305 397.236C336.853 397.585 336.306 397.76 335.664 397.76ZM335.664 396.822C336.3 396.822 336.795 396.516 337.147 395.902C337.499 395.288 337.675 394.413 337.675 393.277C337.675 392.521 337.594 391.878 337.432 391.346C337.273 390.815 337.043 390.41 336.742 390.132C336.444 389.854 336.084 389.714 335.664 389.714C335.033 389.714 334.54 390.025 334.185 390.648C333.83 391.267 333.653 392.143 333.653 393.277C333.653 394.033 333.732 394.675 333.891 395.203C334.05 395.731 334.279 396.133 334.577 396.409C334.878 396.685 335.241 396.822 335.664 396.822ZM340.317 397.641V396.873L343.198 393.72C343.536 393.351 343.815 393.03 344.033 392.757C344.252 392.481 344.414 392.223 344.519 391.981C344.627 391.737 344.681 391.481 344.681 391.214C344.681 390.908 344.607 390.642 344.459 390.418C344.315 390.193 344.116 390.02 343.863 389.898C343.61 389.775 343.326 389.714 343.011 389.714C342.675 389.714 342.383 389.784 342.133 389.923C341.886 390.06 341.694 390.251 341.557 390.498C341.424 390.746 341.357 391.035 341.357 391.368H340.351C340.351 390.856 340.469 390.408 340.705 390.021C340.941 389.635 341.262 389.334 341.668 389.118C342.077 388.902 342.536 388.794 343.045 388.794C343.556 388.794 344.009 388.902 344.404 389.118C344.799 389.334 345.109 389.625 345.333 389.991C345.557 390.358 345.67 390.766 345.67 391.214C345.67 391.535 345.611 391.849 345.495 392.156C345.381 392.46 345.182 392.8 344.898 393.175C344.617 393.547 344.226 394.001 343.726 394.538L341.766 396.635V396.703H345.823V397.641H340.317ZM350.651 388.913V397.641H349.594V390.021H349.543L347.413 391.436V390.362L349.594 388.913H350.651Z" fill="#17191B"/>
<path d="M401.076 397.641V396.873L403.957 393.72C404.295 393.351 404.574 393.03 404.792 392.757C405.011 392.481 405.173 392.223 405.278 391.981C405.386 391.737 405.44 391.481 405.44 391.214C405.44 390.908 405.366 390.642 405.218 390.418C405.074 390.193 404.875 390.02 404.622 389.898C404.369 389.775 404.085 389.714 403.77 389.714C403.434 389.714 403.142 389.784 402.892 389.923C402.645 390.06 402.453 390.251 402.316 390.498C402.183 390.746 402.116 391.035 402.116 391.368H401.11C401.11 390.856 401.228 390.408 401.464 390.021C401.7 389.635 402.021 389.334 402.427 389.118C402.836 388.902 403.295 388.794 403.804 388.794C404.315 388.794 404.768 388.902 405.163 389.118C405.558 389.334 405.868 389.625 406.092 389.991C406.316 390.358 406.429 390.766 406.429 391.214C406.429 391.535 406.37 391.849 406.254 392.156C406.14 392.46 405.941 392.8 405.657 393.175C405.376 393.547 404.985 394.001 404.485 394.538L402.525 396.635V396.703H406.582V397.641H401.076ZM411.189 397.76C410.547 397.76 410 397.585 409.548 397.236C409.096 396.883 408.751 396.373 408.512 395.706C408.274 395.035 408.155 394.226 408.155 393.277C408.155 392.334 408.274 391.528 408.512 390.861C408.754 390.19 409.101 389.679 409.552 389.327C410.007 388.971 410.552 388.794 411.189 388.794C411.825 388.794 412.369 388.971 412.821 389.327C413.275 389.679 413.622 390.19 413.86 390.861C414.102 391.528 414.223 392.334 414.223 393.277C414.223 394.226 414.103 395.035 413.865 395.706C413.626 396.373 413.281 396.883 412.829 397.236C412.378 397.585 411.831 397.76 411.189 397.76ZM411.189 396.822C411.825 396.822 412.319 396.516 412.672 395.902C413.024 395.288 413.2 394.413 413.2 393.277C413.2 392.521 413.119 391.878 412.957 391.346C412.798 390.815 412.568 390.41 412.267 390.132C411.968 389.854 411.609 389.714 411.189 389.714C410.558 389.714 410.065 390.025 409.71 390.648C409.355 391.267 409.177 392.143 409.177 393.277C409.177 394.033 409.257 394.675 409.416 395.203C409.575 395.731 409.804 396.133 410.102 396.409C410.403 396.685 410.765 396.822 411.189 396.822ZM415.842 397.641V396.873L418.723 393.72C419.061 393.351 419.339 393.03 419.558 392.757C419.777 392.481 419.939 392.223 420.044 391.981C420.152 391.737 420.206 391.481 420.206 391.214C420.206 390.908 420.132 390.642 419.984 390.418C419.839 390.193 419.64 390.02 419.387 389.898C419.135 389.775 418.851 389.714 418.535 389.714C418.2 389.714 417.907 389.784 417.657 389.923C417.41 390.06 417.218 390.251 417.082 390.498C416.949 390.746 416.882 391.035 416.882 391.368H415.876C415.876 390.856 415.994 390.408 416.23 390.021C416.466 389.635 416.787 389.334 417.193 389.118C417.602 388.902 418.061 388.794 418.569 388.794C419.081 388.794 419.534 388.902 419.929 389.118C420.324 389.334 420.633 389.625 420.858 389.991C421.082 390.358 421.194 390.766 421.194 391.214C421.194 391.535 421.136 391.849 421.02 392.156C420.906 392.46 420.707 392.8 420.423 393.175C420.142 393.547 419.751 394.001 419.251 394.538L417.291 396.635V396.703H421.348V397.641H415.842ZM423.108 397.641V396.873L425.988 393.72C426.326 393.351 426.605 393.03 426.824 392.757C427.042 392.481 427.204 392.223 427.309 391.981C427.417 391.737 427.471 391.481 427.471 391.214C427.471 390.908 427.397 390.642 427.25 390.418C427.105 390.193 426.906 390.02 426.653 389.898C426.4 389.775 426.116 389.714 425.801 389.714C425.466 389.714 425.173 389.784 424.923 389.923C424.676 390.06 424.484 390.251 424.348 390.498C424.214 390.746 424.147 391.035 424.147 391.368H423.142C423.142 390.856 423.26 390.408 423.495 390.021C423.731 389.635 424.052 389.334 424.459 389.118C424.868 388.902 425.326 388.794 425.835 388.794C426.346 388.794 426.799 388.902 427.194 389.118C427.589 389.334 427.899 389.625 428.123 389.991C428.348 390.358 428.46 390.766 428.46 391.214C428.46 391.535 428.402 391.849 428.285 392.156C428.172 392.46 427.973 392.8 427.689 393.175C427.407 393.547 427.017 394.001 426.517 394.538L424.557 396.635V396.703H428.613V397.641H423.108Z" fill="#17191B"/>
<path d="M477.257 397.641V396.873L480.138 393.72C480.476 393.351 480.754 393.03 480.973 392.757C481.192 392.481 481.354 392.223 481.459 391.981C481.567 391.737 481.621 391.481 481.621 391.214C481.621 390.908 481.547 390.642 481.399 390.418C481.254 390.193 481.055 390.02 480.803 389.898C480.55 389.775 480.266 389.714 479.95 389.714C479.615 389.714 479.322 389.784 479.072 389.923C478.825 390.06 478.633 390.251 478.497 390.498C478.364 390.746 478.297 391.035 478.297 391.368H477.291C477.291 390.856 477.409 390.408 477.645 390.021C477.881 389.635 478.202 389.334 478.608 389.118C479.017 388.902 479.476 388.794 479.984 388.794C480.496 388.794 480.949 388.902 481.344 389.118C481.739 389.334 482.048 389.625 482.273 389.991C482.497 390.358 482.609 390.766 482.609 391.214C482.609 391.535 482.551 391.849 482.435 392.156C482.321 392.46 482.122 392.8 481.838 393.175C481.557 393.547 481.166 394.001 480.666 394.538L478.706 396.635V396.703H482.763V397.641H477.257ZM487.369 397.76C486.727 397.76 486.18 397.585 485.729 397.236C485.277 396.883 484.932 396.373 484.693 395.706C484.455 395.035 484.335 394.226 484.335 393.277C484.335 392.334 484.455 391.528 484.693 390.861C484.935 390.19 485.281 389.679 485.733 389.327C486.187 388.971 486.733 388.794 487.369 388.794C488.006 388.794 488.55 388.971 489.001 389.327C489.456 389.679 489.803 390.19 490.041 390.861C490.283 391.528 490.403 392.334 490.403 393.277C490.403 394.226 490.284 395.035 490.045 395.706C489.807 396.373 489.462 396.883 489.01 397.236C488.558 397.585 488.011 397.76 487.369 397.76ZM487.369 396.822C488.006 396.822 488.5 396.516 488.852 395.902C489.205 395.288 489.381 394.413 489.381 393.277C489.381 392.521 489.3 391.878 489.138 391.346C488.979 390.815 488.749 390.41 488.447 390.132C488.149 389.854 487.79 389.714 487.369 389.714C486.739 389.714 486.246 390.025 485.891 390.648C485.535 391.267 485.358 392.143 485.358 393.277C485.358 394.033 485.437 394.675 485.597 395.203C485.756 395.731 485.984 396.133 486.283 396.409C486.584 396.685 486.946 396.822 487.369 396.822ZM492.023 397.641V396.873L494.903 393.72C495.241 393.351 495.52 393.03 495.739 392.757C495.957 392.481 496.119 392.223 496.224 391.981C496.332 391.737 496.386 391.481 496.386 391.214C496.386 390.908 496.312 390.642 496.165 390.418C496.02 390.193 495.821 390.02 495.568 389.898C495.315 389.775 495.031 389.714 494.716 389.714C494.381 389.714 494.088 389.784 493.838 389.923C493.591 390.06 493.399 390.251 493.263 390.498C493.129 390.746 493.062 391.035 493.062 391.368H492.057C492.057 390.856 492.175 390.408 492.41 390.021C492.646 389.635 492.967 389.334 493.374 389.118C493.783 388.902 494.241 388.794 494.75 388.794C495.261 388.794 495.714 388.902 496.109 389.118C496.504 389.334 496.814 389.625 497.038 389.991C497.263 390.358 497.375 390.766 497.375 391.214C497.375 391.535 497.317 391.849 497.2 392.156C497.087 392.46 496.888 392.8 496.604 393.175C496.322 393.547 495.932 394.001 495.432 394.538L493.472 396.635V396.703H497.528V397.641H492.023ZM502.237 397.76C501.675 397.76 501.173 397.663 500.733 397.47C500.295 397.277 499.947 397.008 499.689 396.665C499.433 396.318 499.294 395.916 499.271 395.459H500.345C500.368 395.74 500.464 395.983 500.635 396.187C500.805 396.389 501.028 396.545 501.304 396.656C501.58 396.767 501.885 396.822 502.22 396.822C502.595 396.822 502.928 396.757 503.217 396.626C503.507 396.496 503.734 396.314 503.899 396.081C504.064 395.848 504.146 395.578 504.146 395.271C504.146 394.95 504.067 394.668 503.908 394.423C503.749 394.176 503.516 393.983 503.209 393.844C502.902 393.704 502.527 393.635 502.084 393.635H501.385V392.697H502.084C502.43 392.697 502.734 392.635 502.996 392.51C503.26 392.385 503.466 392.209 503.614 391.981C503.764 391.754 503.839 391.487 503.839 391.18C503.839 390.885 503.774 390.628 503.643 390.409C503.513 390.19 503.328 390.02 503.089 389.898C502.854 389.775 502.575 389.714 502.254 389.714C501.953 389.714 501.669 389.77 501.402 389.881C501.138 389.989 500.922 390.146 500.754 390.354C500.587 390.558 500.496 390.805 500.481 391.095H499.459C499.476 390.638 499.614 390.237 499.872 389.893C500.131 389.547 500.469 389.277 500.886 389.084C501.307 388.891 501.768 388.794 502.271 388.794C502.811 388.794 503.274 388.903 503.66 389.122C504.047 389.338 504.344 389.623 504.551 389.979C504.758 390.334 504.862 390.717 504.862 391.129C504.862 391.621 504.733 392.04 504.474 392.386C504.219 392.733 503.871 392.973 503.43 393.106V393.175C503.981 393.266 504.412 393.5 504.722 393.878C505.031 394.253 505.186 394.717 505.186 395.271C505.186 395.746 505.057 396.172 504.798 396.55C504.543 396.925 504.193 397.22 503.75 397.436C503.307 397.652 502.803 397.76 502.237 397.76Z" fill="#17191B"/>
<mask id="mask0_1_55" style="mask-type:luminance" maskUnits="userSpaceOnUse" x="70" y="78" width="461" height="303">
<path d="M70.2197 78.5949H531V380.216H70.2197V78.5949Z" fill="white"/>
</mask>
<g mask="url(#mask0_1_55)">
<path d="M109.889 350.264L186.257 330.161L262.626 225.572L338.994 221.16L415.363 162.807L491.732 82.9538" stroke="#72DDFA" stroke-width="2" stroke-linejoin="bevel"/>
</g>
<path d="M113.141 350.264C113.141 351.127 112.798 351.955 112.188 352.565C111.578 353.176 110.751 353.519 109.888 353.519C109.026 353.519 108.198 353.176 107.588 352.565C106.978 351.955 106.636 351.127 106.636 350.264C106.636 349.4 106.978 348.573 107.588 347.962C108.198 347.352 109.026 347.009 109.888 347.009C110.751 347.009 111.578 347.352 112.188 347.962C112.798 348.572 113.141 349.401 113.141 350.264Z" fill="white" stroke="#72DDFA" stroke-width="2"/>
<path d="M189.511 330.161C189.511 331.024 189.168 331.852 188.558 332.462C187.948 333.072 187.121 333.415 186.258 333.415C185.396 333.415 184.568 333.072 183.958 332.462C183.349 331.851 183.006 331.024 183.006 330.16C183.006 329.297 183.349 328.469 183.958 327.859C184.568 327.248 185.396 326.905 186.258 326.905C187.121 326.905 187.948 327.248 188.558 327.859C189.168 328.469 189.511 329.297 189.511 330.161Z" fill="white" stroke="#72DDFA" stroke-width="2"/>
<path d="M265.877 225.572C265.877 226.435 265.534 227.263 264.924 227.874C264.314 228.484 263.487 228.827 262.625 228.827C261.762 228.827 260.935 228.484 260.325 227.874C259.715 227.263 259.372 226.435 259.372 225.572C259.372 224.709 259.715 223.881 260.325 223.27C260.935 222.66 261.762 222.317 262.625 222.317C263.487 222.317 264.314 222.66 264.924 223.27C265.534 223.881 265.877 224.709 265.877 225.572Z" fill="white" stroke="#72DDFA" stroke-width="2"/>
<path d="M342.249 221.16C342.249 222.024 341.907 222.852 341.297 223.462C340.687 224.072 339.859 224.415 338.997 224.415C338.134 224.415 337.307 224.072 336.697 223.462C336.087 222.851 335.744 222.023 335.744 221.16C335.744 220.297 336.087 219.469 336.697 218.859C337.307 218.248 338.134 217.905 338.997 217.905C339.859 217.905 340.687 218.248 341.297 218.859C341.907 219.469 342.249 220.297 342.249 221.16Z" fill="white" stroke="#72DDFA" stroke-width="2"/>
<path d="M418.615 162.807C418.615 163.671 418.273 164.498 417.663 165.109C417.053 165.719 416.225 166.062 415.363 166.062C414.5 166.062 413.673 165.719 413.063 165.109C412.453 164.498 412.11 163.67 412.11 162.807C412.11 161.944 412.453 161.116 413.063 160.506C413.673 159.895 414.5 159.552 415.363 159.552C416.225 159.552 417.053 159.895 417.663 160.506C418.273 161.116 418.615 161.944 418.615 162.807Z" fill="white" stroke="#72DDFA" stroke-width="2"/>
<path d="M494.985 82.9537C494.985 83.8169 494.642 84.6448 494.032 85.2551C493.422 85.8655 492.595 86.2084 491.732 86.2084C490.869 86.2084 490.042 85.8654 489.432 85.255C488.822 84.6446 488.479 83.8167 488.479 82.9535C488.479 82.0903 488.822 81.2624 489.432 80.652C490.042 80.0416 490.869 79.6986 491.732 79.6986C492.595 79.6986 493.422 80.0415 494.032 80.6518C494.642 81.2622 494.985 82.0904 494.985 82.9537Z" fill="white" stroke="#72DDFA" stroke-width="2"/>
</svg>
