<svg width="555" height="608" viewBox="0 0 555 608" fill="none" xmlns="http://www.w3.org/2000/svg">
<path d="M68.3154 47H71.2139V57.4531C71.2139 58.599 70.943 59.6068 70.4014 60.4766C69.8649 61.3464 69.1097 62.026 68.1357 62.5156C67.1618 63 66.0238 63.2422 64.7217 63.2422C63.4144 63.2422 62.2738 63 61.2998 62.5156C60.3258 62.026 59.5706 61.3464 59.0342 60.4766C58.4977 59.6068 58.2295 58.599 58.2295 57.4531V47H61.1279V57.2109C61.1279 57.8776 61.2738 58.4714 61.5654 58.9922C61.8623 59.513 62.279 59.9219 62.8154 60.2188C63.3519 60.5104 63.9873 60.6562 64.7217 60.6562C65.4561 60.6562 66.0915 60.5104 66.6279 60.2188C67.1696 59.9219 67.5863 59.513 67.8779 58.9922C68.1696 58.4714 68.3154 57.8776 68.3154 57.2109V47ZM74.2393 63V51H76.9814V53H77.1064C77.3252 52.3073 77.7002 51.7734 78.2314 51.3984C78.7679 51.0182 79.3799 50.8281 80.0674 50.8281C80.2236 50.8281 80.3981 50.8359 80.5908 50.8516C80.7887 50.862 80.9528 50.8802 81.083 50.9062V53.5078C80.9632 53.4661 80.7731 53.4297 80.5127 53.3984C80.2575 53.362 80.0101 53.3437 79.7705 53.3437C79.2549 53.3437 78.7913 53.4557 78.3799 53.6797C77.9736 53.8984 77.6533 54.2031 77.4189 54.5937C77.1846 54.9844 77.0674 55.4349 77.0674 55.9453V63H74.2393ZM83.0869 63V47H85.915V52.9844H86.0322C86.1781 52.6927 86.3838 52.3828 86.6494 52.0547C86.915 51.7214 87.2744 51.4375 87.7275 51.2031C88.1807 50.9635 88.7588 50.8438 89.4619 50.8438C90.389 50.8438 91.2249 51.0807 91.9697 51.5547C92.7197 52.0234 93.3135 52.7187 93.751 53.6406C94.1937 54.5573 94.415 55.6823 94.415 57.0156C94.415 58.3333 94.1989 59.4531 93.7666 60.375C93.3343 61.2969 92.7458 62 92.001 62.4844C91.2562 62.9688 90.4124 63.2109 89.4697 63.2109C88.7822 63.2109 88.2119 63.0964 87.7588 62.8672C87.3057 62.638 86.9411 62.362 86.665 62.0391C86.3942 61.7109 86.1833 61.401 86.0322 61.1094H85.8682V63H83.0869ZM85.8604 57C85.8604 57.776 85.9697 58.4557 86.1885 59.0391C86.4124 59.6224 86.7327 60.0781 87.1494 60.4062C87.5713 60.7292 88.0817 60.8906 88.6807 60.8906C89.3057 60.8906 89.8291 60.724 90.251 60.3906C90.6729 60.0521 90.9906 59.5911 91.2041 59.0078C91.4229 58.4193 91.5322 57.75 91.5322 57C91.5322 56.2552 91.4255 55.5937 91.2119 55.0156C90.9984 54.4375 90.6807 53.9844 90.2588 53.6562C89.8369 53.3281 89.3109 53.1641 88.6807 53.1641C88.0765 53.1641 87.5635 53.3229 87.1416 53.6406C86.7197 53.9583 86.3994 54.4036 86.1807 54.9766C85.9671 55.5495 85.8604 56.224 85.8604 57ZM100.272 63.2422C99.512 63.2422 98.8271 63.1068 98.2178 62.8359C97.6136 62.5599 97.1344 62.1536 96.7803 61.6172C96.4313 61.0807 96.2568 60.4193 96.2568 59.6328C96.2568 58.9557 96.3818 58.3958 96.6318 57.9531C96.8818 57.5104 97.223 57.1562 97.6553 56.8906C98.0876 56.625 98.5745 56.4245 99.1162 56.2891C99.6631 56.1484 100.228 56.0469 100.812 55.9844C101.515 55.9115 102.085 55.8464 102.522 55.7891C102.96 55.7266 103.278 55.6328 103.476 55.5078C103.679 55.3776 103.78 55.1771 103.78 54.9062V54.8594C103.78 54.2708 103.606 53.8151 103.257 53.4922C102.908 53.1693 102.405 53.0078 101.749 53.0078C101.056 53.0078 100.507 53.1589 100.101 53.4609C99.6995 53.763 99.4287 54.1198 99.2881 54.5312L96.6475 54.1562C96.8558 53.4271 97.1995 52.8177 97.6787 52.3281C98.1579 51.8333 98.7438 51.4635 99.4365 51.2187C100.129 50.9688 100.895 50.8438 101.733 50.8438C102.312 50.8438 102.887 50.9115 103.46 51.0469C104.033 51.1823 104.556 51.4062 105.03 51.7187C105.504 52.026 105.884 52.4453 106.171 52.9766C106.463 53.5078 106.608 54.1719 106.608 54.9687V63H103.89V61.3516H103.796C103.624 61.6849 103.382 61.9974 103.069 62.2891C102.762 62.5755 102.374 62.8073 101.905 62.9844C101.442 63.1563 100.897 63.2422 100.272 63.2422ZM101.007 61.1641C101.575 61.1641 102.067 61.0521 102.483 60.8281C102.9 60.599 103.22 60.2969 103.444 59.9219C103.674 59.5469 103.788 59.138 103.788 58.6953V57.2812C103.7 57.3542 103.549 57.4219 103.335 57.4844C103.127 57.5469 102.892 57.6016 102.632 57.6484C102.371 57.6953 102.114 57.737 101.858 57.7734C101.603 57.8099 101.382 57.8411 101.194 57.8672C100.772 57.9245 100.395 58.0182 100.062 58.1484C99.7282 58.2786 99.4652 58.4609 99.2725 58.6953C99.0798 58.9245 98.9834 59.2214 98.9834 59.5859C98.9834 60.1068 99.1735 60.5 99.5537 60.7656C99.9339 61.0312 100.418 61.1641 101.007 61.1641ZM112.28 55.9687V63H109.452V51H112.155V53.0391H112.296C112.572 52.3672 113.012 51.8333 113.616 51.4375C114.226 51.0417 114.978 50.8438 115.874 50.8438C116.702 50.8438 117.424 51.0208 118.038 51.375C118.658 51.7292 119.137 52.2422 119.476 52.9141C119.819 53.5859 119.989 54.401 119.983 55.3594V63H117.155V55.7969C117.155 54.9948 116.947 54.3672 116.53 53.9141C116.119 53.4609 115.549 53.2344 114.819 53.2344C114.325 53.2344 113.884 53.3437 113.499 53.5625C113.119 53.776 112.819 54.0859 112.601 54.4922C112.387 54.8984 112.28 55.3906 112.28 55.9687ZM128.44 63V47H134.44C135.67 47 136.701 47.2292 137.534 47.6875C138.373 48.1458 139.006 48.776 139.433 49.5781C139.865 50.375 140.081 51.2812 140.081 52.2969C140.081 53.3229 139.865 54.2344 139.433 55.0313C139 55.8281 138.362 56.4557 137.519 56.9141C136.675 57.3672 135.636 57.5937 134.401 57.5937H130.425V55.2109H134.011C134.729 55.2109 135.318 55.0859 135.776 54.8359C136.235 54.5859 136.573 54.2422 136.792 53.8047C137.016 53.3672 137.128 52.8646 137.128 52.2969C137.128 51.7292 137.016 51.2292 136.792 50.7969C136.573 50.3646 136.232 50.0286 135.769 49.7891C135.31 49.5443 134.719 49.4219 133.995 49.4219H131.339V63H128.44ZM147.536 63.2344C146.364 63.2344 145.349 62.9766 144.489 62.4609C143.63 61.9453 142.963 61.224 142.489 60.2969C142.021 59.3698 141.786 58.2865 141.786 57.0469C141.786 55.8073 142.021 54.7214 142.489 53.7891C142.963 52.8568 143.63 52.1328 144.489 51.6172C145.349 51.1016 146.364 50.8438 147.536 50.8438C148.708 50.8438 149.724 51.1016 150.583 51.6172C151.442 52.1328 152.106 52.8568 152.575 53.7891C153.049 54.7214 153.286 55.8073 153.286 57.0469C153.286 58.2865 153.049 59.3698 152.575 60.2969C152.106 61.224 151.442 61.9453 150.583 62.4609C149.724 62.9766 148.708 63.2344 147.536 63.2344ZM147.552 60.9687C148.187 60.9687 148.718 60.7943 149.146 60.4453C149.573 60.0911 149.89 59.6172 150.099 59.0234C150.312 58.4297 150.419 57.7682 150.419 57.0391C150.419 56.3047 150.312 55.6406 150.099 55.0469C149.89 54.4479 149.573 53.9714 149.146 53.6172C148.718 53.263 148.187 53.0859 147.552 53.0859C146.901 53.0859 146.359 53.263 145.927 53.6172C145.5 53.9714 145.179 54.4479 144.966 55.0469C144.757 55.6406 144.653 56.3047 144.653 57.0391C144.653 57.7682 144.757 58.4297 144.966 59.0234C145.179 59.6172 145.5 60.0911 145.927 60.4453C146.359 60.7943 146.901 60.9687 147.552 60.9687ZM155.687 67.5V51H158.468V52.9844H158.632C158.778 52.6927 158.983 52.3828 159.249 52.0547C159.515 51.7214 159.874 51.4375 160.327 51.2031C160.78 50.9635 161.358 50.8438 162.062 50.8438C162.989 50.8438 163.825 51.0807 164.569 51.5547C165.319 52.0234 165.913 52.7187 166.351 53.6406C166.793 54.5573 167.015 55.6823 167.015 57.0156C167.015 58.3333 166.799 59.4531 166.366 60.375C165.934 61.2969 165.345 62 164.601 62.4844C163.856 62.9688 163.012 63.2109 162.069 63.2109C161.382 63.2109 160.812 63.0964 160.358 62.8672C159.905 62.638 159.541 62.362 159.265 62.0391C158.994 61.7109 158.783 61.401 158.632 61.1094H158.515V67.5H155.687ZM158.46 57C158.46 57.776 158.569 58.4557 158.788 59.0391C159.012 59.6224 159.332 60.0781 159.749 60.4062C160.171 60.7292 160.681 60.8906 161.28 60.8906C161.905 60.8906 162.429 60.724 162.851 60.3906C163.272 60.0521 163.59 59.5911 163.804 59.0078C164.022 58.4193 164.132 57.75 164.132 57C164.132 56.2552 164.025 55.5937 163.812 55.0156C163.598 54.4375 163.28 53.9844 162.858 53.6562C162.437 53.3281 161.91 53.1641 161.28 53.1641C160.676 53.1641 160.163 53.3229 159.741 53.6406C159.319 53.9583 158.999 54.4036 158.78 54.9766C158.567 55.5495 158.46 56.224 158.46 57ZM177.085 57.9531V51H179.913V63H177.171V60.8672H177.046C176.775 61.5391 176.33 62.0885 175.71 62.5156C175.095 62.9427 174.338 63.1563 173.437 63.1563C172.65 63.1563 171.955 62.9818 171.351 62.6328C170.752 62.2786 170.283 61.7656 169.944 61.0938C169.606 60.4167 169.437 59.599 169.437 58.6406V51H172.265V58.2031C172.265 58.9635 172.473 59.5677 172.89 60.0156C173.306 60.4635 173.853 60.6875 174.53 60.6875C174.947 60.6875 175.351 60.5859 175.741 60.3828C176.132 60.1797 176.452 59.8776 176.702 59.4766C176.957 59.0703 177.085 58.5625 177.085 57.9531ZM185.649 47V63H182.821V47H185.649ZM192.011 63.2422C191.25 63.2422 190.565 63.1068 189.956 62.8359C189.352 62.5599 188.873 62.1536 188.519 61.6172C188.17 61.0807 187.995 60.4193 187.995 59.6328C187.995 58.9557 188.12 58.3958 188.37 57.9531C188.62 57.5104 188.961 57.1562 189.394 56.8906C189.826 56.625 190.313 56.4245 190.854 56.2891C191.401 56.1484 191.966 56.0469 192.55 55.9844C193.253 55.9115 193.823 55.8464 194.261 55.7891C194.698 55.7266 195.016 55.6328 195.214 55.5078C195.417 55.3776 195.519 55.1771 195.519 54.9062V54.8594C195.519 54.2708 195.344 53.8151 194.995 53.4922C194.646 53.1693 194.144 53.0078 193.487 53.0078C192.795 53.0078 192.245 53.1589 191.839 53.4609C191.438 53.763 191.167 54.1198 191.026 54.5312L188.386 54.1562C188.594 53.4271 188.938 52.8177 189.417 52.3281C189.896 51.8333 190.482 51.4635 191.175 51.2187C191.868 50.9688 192.633 50.8438 193.472 50.8438C194.05 50.8438 194.625 50.9115 195.198 51.0469C195.771 51.1823 196.295 51.4062 196.769 51.7187C197.243 52.026 197.623 52.4453 197.909 52.9766C198.201 53.5078 198.347 54.1719 198.347 54.9687V63H195.628V61.3516H195.534C195.362 61.6849 195.12 61.9974 194.808 62.2891C194.5 62.5755 194.112 62.8073 193.644 62.9844C193.18 63.1563 192.636 63.2422 192.011 63.2422ZM192.745 61.1641C193.313 61.1641 193.805 61.0521 194.222 60.8281C194.638 60.599 194.959 60.2969 195.183 59.9219C195.412 59.5469 195.526 59.138 195.526 58.6953V57.2812C195.438 57.3542 195.287 57.4219 195.073 57.4844C194.865 57.5469 194.631 57.6016 194.37 57.6484C194.11 57.6953 193.852 57.737 193.597 57.7734C193.341 57.8099 193.12 57.8411 192.933 57.8672C192.511 57.9245 192.133 58.0182 191.8 58.1484C191.466 58.2786 191.203 58.4609 191.011 58.6953C190.818 58.9245 190.722 59.2214 190.722 59.5859C190.722 60.1068 190.912 60.5 191.292 60.7656C191.672 61.0312 192.157 61.1641 192.745 61.1641ZM207.183 51V53.1875H200.284V51H207.183ZM201.987 48.125H204.815V59.3906C204.815 59.7708 204.873 60.0625 204.987 60.2656C205.107 60.4635 205.263 60.599 205.456 60.6719C205.649 60.7448 205.862 60.7812 206.097 60.7812C206.274 60.7812 206.435 60.7682 206.581 60.7422C206.732 60.7161 206.847 60.6927 206.925 60.6719L207.401 62.8828C207.25 62.9349 207.034 62.9922 206.753 63.0547C206.477 63.1172 206.138 63.1536 205.737 63.1641C205.029 63.1849 204.391 63.0781 203.823 62.8437C203.256 62.6042 202.805 62.2344 202.472 61.7344C202.144 61.2344 201.982 60.6094 201.987 59.8594V48.125ZM209.548 63V51H212.376V63H209.548ZM210.97 49.2969C210.522 49.2969 210.136 49.1484 209.813 48.8516C209.491 48.5495 209.329 48.1875 209.329 47.7656C209.329 47.3385 209.491 46.9766 209.813 46.6797C210.136 46.3776 210.522 46.2266 210.97 46.2266C211.423 46.2266 211.808 46.3776 212.126 46.6797C212.449 46.9766 212.61 47.3385 212.61 47.7656C212.61 48.1875 212.449 48.5495 212.126 48.8516C211.808 49.1484 211.423 49.2969 210.97 49.2969ZM220.519 63.2344C219.347 63.2344 218.331 62.9766 217.472 62.4609C216.612 61.9453 215.946 61.224 215.472 60.2969C215.003 59.3698 214.769 58.2865 214.769 57.0469C214.769 55.8073 215.003 54.7214 215.472 53.7891C215.946 52.8568 216.612 52.1328 217.472 51.6172C218.331 51.1016 219.347 50.8438 220.519 50.8438C221.69 50.8438 222.706 51.1016 223.565 51.6172C224.425 52.1328 225.089 52.8568 225.558 53.7891C226.032 54.7214 226.269 55.8073 226.269 57.0469C226.269 58.2865 226.032 59.3698 225.558 60.2969C225.089 61.224 224.425 61.9453 223.565 62.4609C222.706 62.9766 221.69 63.2344 220.519 63.2344ZM220.534 60.9687C221.17 60.9687 221.701 60.7943 222.128 60.4453C222.555 60.0911 222.873 59.6172 223.081 59.0234C223.295 58.4297 223.401 57.7682 223.401 57.0391C223.401 56.3047 223.295 55.6406 223.081 55.0469C222.873 54.4479 222.555 53.9714 222.128 53.6172C221.701 53.263 221.17 53.0859 220.534 53.0859C219.883 53.0859 219.341 53.263 218.909 53.6172C218.482 53.9714 218.162 54.4479 217.948 55.0469C217.74 55.6406 217.636 56.3047 217.636 57.0391C217.636 57.7682 217.74 58.4297 217.948 59.0234C218.162 59.6172 218.482 60.0911 218.909 60.4453C219.341 60.7943 219.883 60.9687 220.534 60.9687ZM231.497 55.9687V63H228.669V51H231.372V53.0391H231.513C231.789 52.3672 232.229 51.8333 232.833 51.4375C233.442 51.0417 234.195 50.8438 235.091 50.8438C235.919 50.8438 236.64 51.0208 237.255 51.375C237.875 51.7292 238.354 52.2422 238.692 52.9141C239.036 53.5859 239.205 54.401 239.2 55.3594V63H236.372V55.7969C236.372 54.9948 236.164 54.3672 235.747 53.9141C235.336 53.4609 234.765 53.2344 234.036 53.2344C233.541 53.2344 233.101 53.3437 232.716 53.5625C232.336 53.776 232.036 54.0859 231.817 54.4922C231.604 54.8984 231.497 55.3906 231.497 55.9687ZM250.985 63.2422C250.225 63.2422 249.54 63.1068 248.931 62.8359C248.326 62.5599 247.847 62.1536 247.493 61.6172C247.144 61.0807 246.97 60.4193 246.97 59.6328C246.97 58.9557 247.095 58.3958 247.345 57.9531C247.595 57.5104 247.936 57.1562 248.368 56.8906C248.8 56.625 249.287 56.4245 249.829 56.2891C250.376 56.1484 250.941 56.0469 251.524 55.9844C252.228 55.9115 252.798 55.8464 253.235 55.7891C253.673 55.7266 253.991 55.6328 254.188 55.5078C254.392 55.3776 254.493 55.1771 254.493 54.9062V54.8594C254.493 54.2708 254.319 53.8151 253.97 53.4922C253.621 53.1693 253.118 53.0078 252.462 53.0078C251.769 53.0078 251.22 53.1589 250.813 53.4609C250.412 53.763 250.142 54.1198 250.001 54.5312L247.36 54.1562C247.569 53.4271 247.912 52.8177 248.392 52.3281C248.871 51.8333 249.457 51.4635 250.149 51.2187C250.842 50.9688 251.608 50.8438 252.446 50.8438C253.024 50.8438 253.6 50.9115 254.173 51.0469C254.746 51.1823 255.269 51.4062 255.743 51.7187C256.217 52.026 256.597 52.4453 256.884 52.9766C257.175 53.5078 257.321 54.1719 257.321 54.9687V63H254.603V61.3516H254.509C254.337 61.6849 254.095 61.9974 253.782 62.2891C253.475 62.5755 253.087 62.8073 252.618 62.9844C252.155 63.1563 251.61 63.2422 250.985 63.2422ZM251.72 61.1641C252.287 61.1641 252.78 61.0521 253.196 60.8281C253.613 60.599 253.933 60.2969 254.157 59.9219C254.386 59.5469 254.501 59.138 254.501 58.6953V57.2812C254.412 57.3542 254.261 57.4219 254.048 57.4844C253.84 57.5469 253.605 57.6016 253.345 57.6484C253.084 57.6953 252.826 57.737 252.571 57.7734C252.316 57.8099 252.095 57.8411 251.907 57.8672C251.485 57.9245 251.108 58.0182 250.774 58.1484C250.441 58.2786 250.178 58.4609 249.985 58.6953C249.793 58.9245 249.696 59.2214 249.696 59.5859C249.696 60.1068 249.886 60.5 250.267 60.7656C250.647 61.0312 251.131 61.1641 251.72 61.1641ZM266.157 51V53.1875H259.259V51H266.157ZM260.962 48.125H263.79V59.3906C263.79 59.7708 263.847 60.0625 263.962 60.2656C264.082 60.4635 264.238 60.599 264.431 60.6719C264.623 60.7448 264.837 60.7812 265.071 60.7812C265.248 60.7812 265.41 60.7682 265.556 60.7422C265.707 60.7161 265.821 60.6927 265.899 60.6719L266.376 62.8828C266.225 62.9349 266.009 62.9922 265.728 63.0547C265.451 63.1172 265.113 63.1536 264.712 63.1641C264.004 63.1849 263.366 63.0781 262.798 62.8437C262.23 62.6042 261.78 62.2344 261.446 61.7344C261.118 61.2344 260.957 60.6094 260.962 59.8594V48.125ZM274.104 47H277.651L282.401 58.5937H282.589L287.339 47H290.886V63H288.104V52.0078H287.956L283.534 62.9531H281.456L277.034 51.9844H276.886V63H274.104V47ZM293.917 63V51H296.745V63H293.917ZM295.339 49.2969C294.891 49.2969 294.506 49.1484 294.183 48.8516C293.86 48.5495 293.698 48.1875 293.698 47.7656C293.698 47.3385 293.86 46.9766 294.183 46.6797C294.506 46.3776 294.891 46.2266 295.339 46.2266C295.792 46.2266 296.177 46.3776 296.495 46.6797C296.818 46.9766 296.979 47.3385 296.979 47.7656C296.979 48.1875 296.818 48.5495 296.495 48.8516C296.177 49.1484 295.792 49.2969 295.339 49.2969ZM304.106 63.2109C303.164 63.2109 302.32 62.9688 301.575 62.4844C300.83 62 300.242 61.2969 299.81 60.375C299.377 59.4531 299.161 58.3333 299.161 57.0156C299.161 55.6823 299.38 54.5573 299.817 53.6406C300.26 52.7187 300.856 52.0234 301.606 51.5547C302.356 51.0807 303.192 50.8438 304.114 50.8438C304.817 50.8438 305.396 50.9635 305.849 51.2031C306.302 51.4375 306.661 51.7214 306.927 52.0547C307.192 52.3828 307.398 52.6927 307.544 52.9844H307.661V47H310.497V63H307.716V61.1094H307.544C307.398 61.401 307.187 61.7109 306.911 62.0391C306.635 62.362 306.271 62.638 305.817 62.8672C305.364 63.0964 304.794 63.2109 304.106 63.2109ZM304.896 60.8906C305.494 60.8906 306.005 60.7292 306.427 60.4062C306.849 60.0781 307.169 59.6224 307.388 59.0391C307.606 58.4557 307.716 57.776 307.716 57C307.716 56.224 307.606 55.5495 307.388 54.9766C307.174 54.4036 306.856 53.9583 306.435 53.6406C306.018 53.3229 305.505 53.1641 304.896 53.1641C304.265 53.1641 303.739 53.3281 303.317 53.6562C302.896 53.9844 302.578 54.4375 302.364 55.0156C302.151 55.5937 302.044 56.2552 302.044 57C302.044 57.75 302.151 58.4193 302.364 59.0078C302.583 59.5911 302.903 60.0521 303.325 60.3906C303.752 60.724 304.276 60.8906 304.896 60.8906ZM320.784 55.1719V57.5H313.581V55.1719H320.784ZM321.759 47H325.032L328.946 54.0781H329.103L333.017 47H336.29L330.47 57.0313V63H327.579V57.0313L321.759 47ZM341.296 63.2344C340.093 63.2344 339.054 62.9844 338.179 62.4844C337.309 61.9792 336.64 61.2656 336.171 60.3437C335.702 59.4167 335.468 58.3255 335.468 57.0703C335.468 55.8359 335.702 54.7526 336.171 53.8203C336.645 52.8828 337.306 52.1536 338.155 51.6328C339.004 51.1068 340.002 50.8438 341.147 50.8438C341.887 50.8438 342.585 50.9635 343.241 51.2031C343.903 51.4375 344.486 51.8021 344.991 52.2969C345.502 52.7917 345.903 53.4219 346.194 54.1875C346.486 54.9479 346.632 55.8542 346.632 56.9062V57.7734H336.796V55.8672H343.921C343.916 55.3255 343.799 54.8437 343.569 54.4219C343.34 53.9948 343.02 53.6589 342.608 53.4141C342.202 53.1693 341.728 53.0469 341.187 53.0469C340.608 53.0469 340.101 53.1875 339.663 53.4687C339.226 53.7448 338.884 54.1094 338.64 54.5625C338.4 55.0104 338.278 55.5026 338.272 56.0391V57.7031C338.272 58.401 338.4 59 338.655 59.5C338.91 59.9948 339.267 60.375 339.726 60.6406C340.184 60.901 340.72 61.0312 341.335 61.0312C341.746 61.0312 342.119 60.974 342.452 60.8594C342.785 60.7396 343.075 60.5651 343.319 60.3359C343.564 60.1068 343.749 59.8229 343.874 59.4844L346.515 59.7812C346.348 60.4792 346.03 61.0885 345.562 61.6094C345.098 62.125 344.504 62.526 343.78 62.8125C343.056 63.0937 342.228 63.2344 341.296 63.2344ZM352.478 63.2422C351.717 63.2422 351.032 63.1068 350.423 62.8359C349.819 62.5599 349.34 62.1536 348.985 61.6172C348.636 61.0807 348.462 60.4193 348.462 59.6328C348.462 58.9557 348.587 58.3958 348.837 57.9531C349.087 57.5104 349.428 57.1562 349.86 56.8906C350.293 56.625 350.78 56.4245 351.321 56.2891C351.868 56.1484 352.433 56.0469 353.017 55.9844C353.72 55.9115 354.29 55.8464 354.728 55.7891C355.165 55.7266 355.483 55.6328 355.681 55.5078C355.884 55.3776 355.985 55.1771 355.985 54.9062V54.8594C355.985 54.2708 355.811 53.8151 355.462 53.4922C355.113 53.1693 354.61 53.0078 353.954 53.0078C353.261 53.0078 352.712 53.1589 352.306 53.4609C351.905 53.763 351.634 54.1198 351.493 54.5312L348.853 54.1562C349.061 53.4271 349.405 52.8177 349.884 52.3281C350.363 51.8333 350.949 51.4635 351.642 51.2187C352.334 50.9688 353.1 50.8438 353.938 50.8438C354.517 50.8438 355.092 50.9115 355.665 51.0469C356.238 51.1823 356.761 51.4062 357.235 51.7187C357.709 52.026 358.09 52.4453 358.376 52.9766C358.668 53.5078 358.813 54.1719 358.813 54.9687V63H356.095V61.3516H356.001C355.829 61.6849 355.587 61.9974 355.274 62.2891C354.967 62.5755 354.579 62.8073 354.11 62.9844C353.647 63.1563 353.103 63.2422 352.478 63.2422ZM353.212 61.1641C353.78 61.1641 354.272 61.0521 354.688 60.8281C355.105 60.599 355.425 60.2969 355.649 59.9219C355.879 59.5469 355.993 59.138 355.993 58.6953V57.2812C355.905 57.3542 355.754 57.4219 355.54 57.4844C355.332 57.5469 355.097 57.6016 354.837 57.6484C354.576 57.6953 354.319 57.737 354.063 57.7734C353.808 57.8099 353.587 57.8411 353.399 57.8672C352.978 57.9245 352.6 58.0182 352.267 58.1484C351.933 58.2786 351.67 58.4609 351.478 58.6953C351.285 58.9245 351.188 59.2214 351.188 59.5859C351.188 60.1068 351.379 60.5 351.759 60.7656C352.139 61.0312 352.623 61.1641 353.212 61.1641ZM361.657 63V51H364.399V53H364.524C364.743 52.3073 365.118 51.7734 365.649 51.3984C366.186 51.0182 366.798 50.8281 367.485 50.8281C367.642 50.8281 367.816 50.8359 368.009 50.8516C368.207 50.862 368.371 50.8802 368.501 50.9062V53.5078C368.381 53.4661 368.191 53.4297 367.931 53.3984C367.675 53.362 367.428 53.3437 367.188 53.3437C366.673 53.3437 366.209 53.4557 365.798 53.6797C365.392 53.8984 365.071 54.2031 364.837 54.5937C364.603 54.9844 364.485 55.4349 364.485 55.9453V63H361.657ZM375.962 63V47H378.79V52.9844H378.907C379.053 52.6927 379.259 52.3828 379.524 52.0547C379.79 51.7214 380.149 51.4375 380.603 51.2031C381.056 50.9635 381.634 50.8438 382.337 50.8438C383.264 50.8438 384.1 51.0807 384.845 51.5547C385.595 52.0234 386.188 52.7187 386.626 53.6406C387.069 54.5573 387.29 55.6823 387.29 57.0156C387.29 58.3333 387.074 59.4531 386.642 60.375C386.209 61.2969 385.621 62 384.876 62.4844C384.131 62.9688 383.287 63.2109 382.345 63.2109C381.657 63.2109 381.087 63.0964 380.634 62.8672C380.181 62.638 379.816 62.362 379.54 62.0391C379.269 61.7109 379.058 61.401 378.907 61.1094H378.743V63H375.962ZM378.735 57C378.735 57.776 378.845 58.4557 379.063 59.0391C379.287 59.6224 379.608 60.0781 380.024 60.4062C380.446 60.7292 380.957 60.8906 381.556 60.8906C382.181 60.8906 382.704 60.724 383.126 60.3906C383.548 60.0521 383.866 59.5911 384.079 59.0078C384.298 58.4193 384.407 57.75 384.407 57C384.407 56.2552 384.3 55.5937 384.087 55.0156C383.873 54.4375 383.556 53.9844 383.134 53.6562C382.712 53.3281 382.186 53.1641 381.556 53.1641C380.951 53.1641 380.438 53.3229 380.017 53.6406C379.595 53.9583 379.274 54.4036 379.056 54.9766C378.842 55.5495 378.735 56.224 378.735 57ZM391.044 67.5C390.659 67.5 390.302 67.4688 389.974 67.4063C389.651 67.349 389.393 67.2813 389.2 67.2031L389.856 65C390.268 65.1198 390.635 65.1771 390.958 65.1719C391.281 65.1667 391.565 65.0651 391.81 64.8672C392.06 64.6745 392.271 64.3516 392.442 63.8984L392.685 63.25L388.333 51H391.333L394.099 60.0625H394.224L396.997 51H400.005L395.2 64.4531C394.976 65.0885 394.679 65.6328 394.31 66.0859C393.94 66.5443 393.487 66.8932 392.95 67.1328C392.419 67.3776 391.784 67.5 391.044 67.5ZM421.239 52.3984H418.317C418.234 51.9193 418.08 51.4948 417.856 51.125C417.632 50.75 417.354 50.4323 417.021 50.1719C416.687 49.9115 416.307 49.7161 415.88 49.5859C415.458 49.4505 415.002 49.3828 414.513 49.3828C413.643 49.3828 412.872 49.6016 412.2 50.0391C411.528 50.4714 411.002 51.1068 410.622 51.9453C410.242 52.7786 410.052 53.7969 410.052 55C410.052 56.224 410.242 57.2552 410.622 58.0937C411.007 58.9271 411.534 59.5573 412.2 59.9844C412.872 60.4062 413.64 60.6172 414.505 60.6172C414.984 60.6172 415.432 60.5547 415.849 60.4297C416.271 60.2995 416.648 60.1094 416.981 59.8594C417.32 59.6094 417.604 59.3021 417.833 58.9375C418.067 58.5729 418.229 58.1562 418.317 57.6875L421.239 57.7031C421.13 58.4635 420.893 59.1771 420.528 59.8438C420.169 60.5104 419.698 61.099 419.114 61.6094C418.531 62.1146 417.849 62.5104 417.067 62.7969C416.286 63.0781 415.419 63.2187 414.466 63.2187C413.06 63.2187 411.804 62.8932 410.7 62.2422C409.596 61.5911 408.726 60.651 408.091 59.4219C407.455 58.1927 407.138 56.7187 407.138 55C407.138 53.276 407.458 51.8021 408.099 50.5781C408.739 49.349 409.612 48.4089 410.716 47.7578C411.82 47.1068 413.07 46.7812 414.466 46.7812C415.356 46.7812 416.185 46.9062 416.95 47.1562C417.716 47.4062 418.398 47.7734 418.997 48.2578C419.596 48.737 420.088 49.3255 420.474 50.0234C420.864 50.7161 421.119 51.5078 421.239 52.3984ZM429.003 63.2344C427.831 63.2344 426.815 62.9766 425.956 62.4609C425.097 61.9453 424.43 61.224 423.956 60.2969C423.487 59.3698 423.253 58.2865 423.253 57.0469C423.253 55.8073 423.487 54.7214 423.956 53.7891C424.43 52.8568 425.097 52.1328 425.956 51.6172C426.815 51.1016 427.831 50.8438 429.003 50.8438C430.175 50.8438 431.19 51.1016 432.05 51.6172C432.909 52.1328 433.573 52.8568 434.042 53.7891C434.516 54.7214 434.753 55.8073 434.753 57.0469C434.753 58.2865 434.516 59.3698 434.042 60.2969C433.573 61.224 432.909 61.9453 432.05 62.4609C431.19 62.9766 430.175 63.2344 429.003 63.2344ZM429.019 60.9687C429.654 60.9687 430.185 60.7943 430.612 60.4453C431.039 60.0911 431.357 59.6172 431.565 59.0234C431.779 58.4297 431.886 57.7682 431.886 57.0391C431.886 56.3047 431.779 55.6406 431.565 55.0469C431.357 54.4479 431.039 53.9714 430.612 53.6172C430.185 53.263 429.654 53.0859 429.019 53.0859C428.368 53.0859 427.826 53.263 427.394 53.6172C426.966 53.9714 426.646 54.4479 426.433 55.0469C426.224 55.6406 426.12 56.3047 426.12 57.0391C426.12 57.7682 426.224 58.4297 426.433 59.0234C426.646 59.6172 426.966 60.0911 427.394 60.4453C427.826 60.7943 428.368 60.9687 429.019 60.9687ZM444.802 57.9531V51H447.63V63H444.888V60.8672H444.763C444.492 61.5391 444.047 62.0885 443.427 62.5156C442.812 62.9427 442.054 63.1563 441.153 63.1563C440.367 63.1563 439.672 62.9818 439.067 62.6328C438.468 62.2786 438 61.7656 437.661 61.0938C437.323 60.4167 437.153 59.599 437.153 58.6406V51H439.981V58.2031C439.981 58.9635 440.19 59.5677 440.606 60.0156C441.023 60.4635 441.57 60.6875 442.247 60.6875C442.664 60.6875 443.067 60.5859 443.458 60.3828C443.849 60.1797 444.169 59.8776 444.419 59.4766C444.674 59.0703 444.802 58.5625 444.802 57.9531ZM453.366 55.9687V63H450.538V51H453.241V53.0391H453.382C453.658 52.3672 454.098 51.8333 454.702 51.4375C455.312 51.0417 456.064 50.8438 456.96 50.8438C457.788 50.8438 458.509 51.0208 459.124 51.375C459.744 51.7292 460.223 52.2422 460.562 52.9141C460.905 53.5859 461.075 54.401 461.069 55.3594V63H458.241V55.7969C458.241 54.9948 458.033 54.3672 457.616 53.9141C457.205 53.4609 456.634 53.2344 455.905 53.2344C455.41 53.2344 454.97 53.3437 454.585 53.5625C454.205 53.776 453.905 54.0859 453.687 54.4922C453.473 54.8984 453.366 55.3906 453.366 55.9687ZM469.937 51V53.1875H463.038V51H469.937ZM464.741 48.125H467.569V59.3906C467.569 59.7708 467.627 60.0625 467.741 60.2656C467.861 60.4635 468.017 60.599 468.21 60.6719C468.403 60.7448 468.616 60.7812 468.851 60.7812C469.028 60.7812 469.189 60.7682 469.335 60.7422C469.486 60.7161 469.601 60.6927 469.679 60.6719L470.155 62.8828C470.004 62.9349 469.788 62.9922 469.507 63.0547C469.231 63.1172 468.892 63.1536 468.491 63.1641C467.783 63.1849 467.145 63.0781 466.577 62.8437C466.009 62.6042 465.559 62.2344 465.226 61.7344C464.897 61.2344 464.736 60.6094 464.741 59.8594V48.125ZM472.302 63V51H475.044V53H475.169C475.388 52.3073 475.763 51.7734 476.294 51.3984C476.83 51.0182 477.442 50.8281 478.13 50.8281C478.286 50.8281 478.461 50.8359 478.653 50.8516C478.851 50.862 479.015 50.8802 479.146 50.9062V53.5078C479.026 53.4661 478.836 53.4297 478.575 53.3984C478.32 53.362 478.073 53.3437 477.833 53.3437C477.317 53.3437 476.854 53.4557 476.442 53.6797C476.036 53.8984 475.716 54.2031 475.481 54.5937C475.247 54.9844 475.13 55.4349 475.13 55.9453V63H472.302ZM483.147 67.5C482.762 67.5 482.405 67.4688 482.077 67.4063C481.754 67.349 481.496 67.2813 481.304 67.2031L481.96 65C482.371 65.1198 482.739 65.1771 483.062 65.1719C483.384 65.1667 483.668 65.0651 483.913 64.8672C484.163 64.6745 484.374 64.3516 484.546 63.8984L484.788 63.25L480.437 51H483.437L486.202 60.0625H486.327L489.101 51H492.108L487.304 64.4531C487.08 65.0885 486.783 65.6328 486.413 66.0859C486.043 66.5443 485.59 66.8932 485.054 67.1328C484.522 67.3776 483.887 67.5 483.147 67.5ZM496.634 60.8125L496.532 61.6719C496.459 62.3281 496.329 62.9948 496.142 63.6719C495.959 64.3542 495.767 64.9818 495.563 65.5547C495.36 66.1276 495.196 66.5781 495.071 66.9063H493.165C493.238 66.5885 493.337 66.1563 493.462 65.6094C493.592 65.0625 493.717 64.4479 493.837 63.7656C493.957 63.0833 494.037 62.3906 494.079 61.6875L494.134 60.8125H496.634ZM151.52 92V89.9062L157.074 84.4609C157.605 83.9245 158.048 83.4479 158.402 83.0312C158.757 82.6146 159.022 82.2109 159.199 81.8203C159.376 81.4297 159.465 81.013 159.465 80.5703C159.465 80.0651 159.35 79.6328 159.121 79.2734C158.892 78.9089 158.577 78.6276 158.176 78.4297C157.775 78.2318 157.319 78.1328 156.809 78.1328C156.283 78.1328 155.822 78.2422 155.426 78.4609C155.03 78.6745 154.723 78.9792 154.504 79.375C154.29 79.7708 154.184 80.2422 154.184 80.7891H151.426C151.426 79.7734 151.658 78.8906 152.121 78.1406C152.585 77.3906 153.223 76.8099 154.035 76.3984C154.853 75.987 155.79 75.7812 156.848 75.7812C157.921 75.7812 158.863 75.9818 159.676 76.3828C160.488 76.7839 161.118 77.3333 161.566 78.0312C162.02 78.7292 162.246 79.526 162.246 80.4219C162.246 81.0208 162.132 81.6094 161.902 82.1875C161.673 82.7656 161.27 83.4062 160.691 84.1094C160.118 84.8125 159.314 85.6641 158.277 86.6641L155.52 89.4687V89.5781H162.488V92H151.52ZM171.098 92.3047C169.811 92.3047 168.707 91.9792 167.785 91.3281C166.868 90.6719 166.163 89.7266 165.668 88.4922C165.178 87.2526 164.934 85.7604 164.934 84.0156C164.939 82.2708 165.186 80.7865 165.676 79.5625C166.171 78.3333 166.876 77.3958 167.793 76.75C168.715 76.1042 169.816 75.7812 171.098 75.7812C172.379 75.7812 173.48 76.1042 174.402 76.75C175.324 77.3958 176.03 78.3333 176.52 79.5625C177.014 80.7917 177.262 82.276 177.262 84.0156C177.262 85.7656 177.014 87.2604 176.52 88.5C176.03 89.7344 175.324 90.6771 174.402 91.3281C173.486 91.9792 172.384 92.3047 171.098 92.3047ZM171.098 89.8594C172.098 89.8594 172.887 89.3672 173.465 88.3828C174.048 87.3932 174.34 85.9375 174.34 84.0156C174.34 82.7448 174.207 81.6771 173.941 80.8125C173.676 79.9479 173.301 79.2969 172.816 78.8594C172.332 78.4167 171.759 78.1953 171.098 78.1953C170.103 78.1953 169.316 78.6901 168.738 79.6797C168.16 80.6641 167.868 82.1094 167.863 84.0156C167.858 85.2917 167.986 86.3646 168.246 87.2344C168.512 88.1042 168.887 88.7604 169.371 89.2031C169.855 89.6406 170.431 89.8594 171.098 89.8594ZM186.365 76V92H183.467V78.8203H183.373L179.631 81.2109V78.5547L183.607 76H186.365ZM195.99 92.2187C194.949 92.2187 194.016 92.0234 193.193 91.6328C192.37 91.237 191.717 90.6953 191.232 90.0078C190.753 89.3203 190.498 88.5339 190.467 87.6484H193.279C193.331 88.3047 193.615 88.8411 194.131 89.2578C194.646 89.6693 195.266 89.875 195.99 89.875C196.558 89.875 197.063 89.7448 197.506 89.4844C197.949 89.224 198.298 88.862 198.553 88.3984C198.808 87.9349 198.933 87.4062 198.928 86.8125C198.933 86.2083 198.805 85.6719 198.545 85.2031C198.285 84.7344 197.928 84.3672 197.475 84.1016C197.021 83.8307 196.501 83.6953 195.912 83.6953C195.433 83.6901 194.962 83.7786 194.498 83.9609C194.035 84.1432 193.667 84.3828 193.396 84.6797L190.779 84.25L191.615 76H200.896V78.4219H194.014L193.553 82.6641H193.646C193.943 82.3151 194.363 82.026 194.904 81.7969C195.446 81.5625 196.04 81.4453 196.686 81.4453C197.654 81.4453 198.519 81.6745 199.279 82.1328C200.04 82.5859 200.639 83.2109 201.076 84.0078C201.514 84.8047 201.732 85.7161 201.732 86.7422C201.732 87.7995 201.488 88.7422 200.998 89.5703C200.514 90.3932 199.839 91.0417 198.975 91.5156C198.115 91.9844 197.12 92.2187 195.99 92.2187ZM211.654 82.8359V85.1641H204.451V82.8359H211.654ZM214.039 92V89.9062L219.594 84.4609C220.125 83.9245 220.568 83.4479 220.922 83.0312C221.276 82.6146 221.542 82.2109 221.719 81.8203C221.896 81.4297 221.984 81.013 221.984 80.5703C221.984 80.0651 221.87 79.6328 221.641 79.2734C221.411 78.9089 221.096 78.6276 220.695 78.4297C220.294 78.2318 219.839 78.1328 219.328 78.1328C218.802 78.1328 218.341 78.2422 217.945 78.4609C217.549 78.6745 217.242 78.9792 217.023 79.375C216.81 79.7708 216.703 80.2422 216.703 80.7891H213.945C213.945 79.7734 214.177 78.8906 214.641 78.1406C215.104 77.3906 215.742 76.8099 216.555 76.3984C217.372 75.987 218.31 75.7812 219.367 75.7812C220.44 75.7812 221.383 75.9818 222.195 76.3828C223.008 76.7839 223.638 77.3333 224.086 78.0312C224.539 78.7292 224.766 79.526 224.766 80.4219C224.766 81.0208 224.651 81.6094 224.422 82.1875C224.193 82.7656 223.789 83.4062 223.211 84.1094C222.638 84.8125 221.833 85.6641 220.797 86.6641L218.039 89.4687V89.5781H225.008V92H214.039ZM233.617 92.3047C232.331 92.3047 231.227 91.9792 230.305 91.3281C229.388 90.6719 228.682 89.7266 228.187 88.4922C227.698 87.2526 227.453 85.7604 227.453 84.0156C227.458 82.2708 227.706 80.7865 228.195 79.5625C228.69 78.3333 229.396 77.3958 230.313 76.75C231.234 76.1042 232.336 75.7812 233.617 75.7812C234.898 75.7812 236 76.1042 236.922 76.75C237.844 77.3958 238.549 78.3333 239.039 79.5625C239.534 80.7917 239.781 82.276 239.781 84.0156C239.781 85.7656 239.534 87.2604 239.039 88.5C238.549 89.7344 237.844 90.6771 236.922 91.3281C236.005 91.9792 234.904 92.3047 233.617 92.3047ZM233.617 89.8594C234.617 89.8594 235.406 89.3672 235.984 88.3828C236.568 87.3932 236.859 85.9375 236.859 84.0156C236.859 82.7448 236.727 81.6771 236.461 80.8125C236.195 79.9479 235.82 79.2969 235.336 78.8594C234.852 78.4167 234.279 78.1953 233.617 78.1953C232.622 78.1953 231.836 78.6901 231.258 79.6797C230.68 80.6641 230.388 82.1094 230.383 84.0156C230.378 85.2917 230.505 86.3646 230.766 87.2344C231.031 88.1042 231.406 88.7604 231.891 89.2031C232.375 89.6406 232.951 89.8594 233.617 89.8594ZM248.119 92.2187C246.994 92.2187 245.994 92.026 245.119 91.6406C244.249 91.2552 243.562 90.7187 243.057 90.0312C242.551 89.3437 242.283 88.5495 242.252 87.6484H245.189C245.215 88.0807 245.359 88.4583 245.619 88.7812C245.88 89.099 246.226 89.3464 246.658 89.5234C247.09 89.7005 247.575 89.7891 248.111 89.7891C248.684 89.7891 249.192 89.6901 249.635 89.4922C250.077 89.2891 250.424 89.0078 250.674 88.6484C250.924 88.2891 251.046 87.875 251.041 87.4062C251.046 86.9219 250.921 86.4948 250.666 86.125C250.411 85.7552 250.041 85.4661 249.557 85.2578C249.077 85.0495 248.499 84.9453 247.822 84.9453H246.408V82.7109H247.822C248.38 82.7109 248.867 82.6146 249.283 82.4219C249.705 82.2292 250.036 81.9583 250.275 81.6094C250.515 81.2552 250.632 80.8464 250.627 80.3828C250.632 79.9297 250.531 79.5365 250.322 79.2031C250.119 78.8646 249.83 78.6016 249.455 78.4141C249.085 78.2266 248.65 78.1328 248.15 78.1328C247.661 78.1328 247.208 78.2214 246.791 78.3984C246.374 78.5755 246.038 78.8281 245.783 79.1563C245.528 79.4792 245.393 79.8646 245.377 80.3125H242.588C242.609 79.4167 242.867 78.6302 243.361 77.9531C243.861 77.2708 244.528 76.7396 245.361 76.3594C246.195 75.974 247.13 75.7812 248.166 75.7812C249.234 75.7812 250.161 75.9818 250.947 76.3828C251.739 76.7786 252.351 77.3125 252.783 77.9844C253.215 78.6562 253.432 79.3984 253.432 80.2109C253.437 81.112 253.171 81.8672 252.635 82.4766C252.104 83.0859 251.406 83.4844 250.541 83.6719V83.7969C251.666 83.9531 252.528 84.3698 253.127 85.0469C253.731 85.7187 254.031 86.5547 254.025 87.5547C254.025 88.4505 253.77 89.2526 253.26 89.9609C252.755 90.6641 252.057 91.2161 251.166 91.6172C250.281 92.0182 249.265 92.2187 248.119 92.2187ZM262.27 92.2187C261.228 92.2187 260.296 92.0234 259.473 91.6328C258.65 91.237 257.996 90.6953 257.512 90.0078C257.033 89.3203 256.777 88.5339 256.746 87.6484H259.559C259.611 88.3047 259.895 88.8411 260.41 89.2578C260.926 89.6693 261.546 89.875 262.27 89.875C262.837 89.875 263.342 89.7448 263.785 89.4844C264.228 89.224 264.577 88.862 264.832 88.3984C265.087 87.9349 265.212 87.4062 265.207 86.8125C265.212 86.2083 265.085 85.6719 264.824 85.2031C264.564 84.7344 264.207 84.3672 263.754 84.1016C263.301 83.8307 262.78 83.6953 262.191 83.6953C261.712 83.6901 261.241 83.7786 260.777 83.9609C260.314 84.1432 259.947 84.3828 259.676 84.6797L257.059 84.25L257.895 76H267.176V78.4219H260.293L259.832 82.6641H259.926C260.223 82.3151 260.642 82.026 261.184 81.7969C261.725 81.5625 262.319 81.4453 262.965 81.4453C263.934 81.4453 264.798 81.6745 265.559 82.1328C266.319 82.5859 266.918 83.2109 267.355 84.0078C267.793 84.8047 268.012 85.7161 268.012 86.7422C268.012 87.7995 267.767 88.7422 267.277 89.5703C266.793 90.3932 266.118 91.0417 265.254 91.5156C264.395 91.9844 263.4 92.2187 262.27 92.2187ZM276.82 85.4766C276.82 83.5234 277.078 81.7292 277.594 80.0937C278.115 78.4531 278.888 76.9375 279.914 75.5469H282.578C282.182 76.0625 281.813 76.6953 281.469 77.4453C281.125 78.1901 280.826 79.0078 280.57 79.8984C280.32 80.7839 280.122 81.7031 279.977 82.6562C279.836 83.6094 279.766 84.5495 279.766 85.4766C279.766 86.7109 279.888 87.9609 280.133 89.2266C280.383 90.4922 280.719 91.6641 281.141 92.7422C281.568 93.8255 282.047 94.7109 282.578 95.3984H279.914C278.888 94.0078 278.115 92.4948 277.594 90.8594C277.078 89.2187 276.82 87.4245 276.82 85.4766ZM290.768 80V82.1875H283.869V80H290.768ZM285.572 77.125H288.4V88.3906C288.4 88.7708 288.458 89.0625 288.572 89.2656C288.692 89.4635 288.848 89.599 289.041 89.6719C289.234 89.7448 289.447 89.7812 289.682 89.7812C289.859 89.7812 290.02 89.7682 290.166 89.7422C290.317 89.7161 290.432 89.6927 290.51 89.6719L290.986 91.8828C290.835 91.9349 290.619 91.9922 290.338 92.0547C290.062 92.1172 289.723 92.1536 289.322 92.1641C288.614 92.1849 287.976 92.0781 287.408 91.8437C286.84 91.6042 286.39 91.2344 286.057 90.7344C285.729 90.2344 285.567 89.6094 285.572 88.8594V77.125ZM296.219 84.9687V92H293.391V76H296.156V82.0391H296.297C296.578 81.362 297.013 80.8281 297.602 80.4375C298.195 80.0417 298.951 79.8438 299.867 79.8438C300.701 79.8438 301.427 80.0182 302.047 80.3672C302.667 80.7161 303.146 81.2266 303.484 81.8984C303.828 82.5703 304 83.3906 304 84.3594V92H301.172V84.7969C301.172 83.9896 300.964 83.362 300.547 82.9141C300.135 82.4609 299.557 82.2344 298.812 82.2344C298.313 82.2344 297.865 82.3437 297.469 82.5625C297.078 82.776 296.771 83.0859 296.547 83.4922C296.328 83.8984 296.219 84.3906 296.219 84.9687ZM312.117 92.2344C310.945 92.2344 309.93 91.9766 309.07 91.4609C308.211 90.9453 307.544 90.224 307.07 89.2969C306.602 88.3698 306.367 87.2865 306.367 86.0469C306.367 84.8073 306.602 83.7214 307.07 82.7891C307.544 81.8568 308.211 81.1328 309.07 80.6172C309.93 80.1016 310.945 79.8438 312.117 79.8438C313.289 79.8438 314.305 80.1016 315.164 80.6172C316.023 81.1328 316.688 81.8568 317.156 82.7891C317.63 83.7214 317.867 84.8073 317.867 86.0469C317.867 87.2865 317.63 88.3698 317.156 89.2969C316.688 90.224 316.023 90.9453 315.164 91.4609C314.305 91.9766 313.289 92.2344 312.117 92.2344ZM312.133 89.9687C312.768 89.9687 313.299 89.7943 313.727 89.4453C314.154 89.0911 314.471 88.6172 314.68 88.0234C314.893 87.4297 315 86.7682 315 86.0391C315 85.3047 314.893 84.6406 314.68 84.0469C314.471 83.4479 314.154 82.9714 313.727 82.6172C313.299 82.263 312.768 82.0859 312.133 82.0859C311.482 82.0859 310.94 82.263 310.508 82.6172C310.081 82.9714 309.76 83.4479 309.547 84.0469C309.339 84.6406 309.234 85.3047 309.234 86.0391C309.234 86.7682 309.339 87.4297 309.547 88.0234C309.76 88.6172 310.081 89.0911 310.508 89.4453C310.94 89.7943 311.482 89.9687 312.133 89.9687ZM327.916 86.9531V80H330.744V92H328.002V89.8672H327.877C327.606 90.5391 327.161 91.0885 326.541 91.5156C325.926 91.9427 325.169 92.1563 324.268 92.1563C323.481 92.1563 322.786 91.9818 322.182 91.6328C321.583 91.2786 321.114 90.7656 320.775 90.0938C320.437 89.4167 320.268 88.599 320.268 87.6406V80H323.096V87.2031C323.096 87.9635 323.304 88.5677 323.721 89.0156C324.137 89.4635 324.684 89.6875 325.361 89.6875C325.778 89.6875 326.182 89.5859 326.572 89.3828C326.963 89.1797 327.283 88.8776 327.533 88.4766C327.788 88.0703 327.916 87.5625 327.916 86.9531ZM343.137 83.1719L340.559 83.4531C340.486 83.1927 340.358 82.9479 340.176 82.7188C339.999 82.4896 339.759 82.3047 339.457 82.1641C339.155 82.0234 338.785 81.9531 338.348 81.9531C337.759 81.9531 337.264 82.0807 336.863 82.3359C336.467 82.5911 336.272 82.9219 336.277 83.3281C336.272 83.6771 336.4 83.9609 336.66 84.1797C336.926 84.3984 337.363 84.5781 337.973 84.7188L340.02 85.1562C341.155 85.401 341.999 85.7891 342.551 86.3203C343.108 86.8516 343.389 87.5469 343.395 88.4062C343.389 89.1615 343.168 89.8281 342.73 90.4062C342.298 90.9792 341.697 91.4271 340.926 91.75C340.155 92.0729 339.27 92.2344 338.27 92.2344C336.801 92.2344 335.618 91.9271 334.723 91.3125C333.827 90.6927 333.293 89.8307 333.121 88.7266L335.879 88.4609C336.004 89.0026 336.27 89.4115 336.676 89.6875C337.082 89.9635 337.611 90.1016 338.262 90.1016C338.934 90.1016 339.473 89.9635 339.879 89.6875C340.29 89.4115 340.496 89.0703 340.496 88.6641C340.496 88.3203 340.363 88.0365 340.098 87.8125C339.837 87.5885 339.431 87.4167 338.879 87.2969L336.832 86.8672C335.681 86.6276 334.829 86.224 334.277 85.6562C333.725 85.0833 333.452 84.3594 333.457 83.4844C333.452 82.7448 333.652 82.1042 334.059 81.5625C334.47 81.0156 335.04 80.5937 335.77 80.2969C336.504 79.9948 337.35 79.8438 338.309 79.8438C339.715 79.8438 340.822 80.1432 341.629 80.7422C342.441 81.3411 342.944 82.151 343.137 83.1719ZM349.18 92.2422C348.419 92.2422 347.734 92.1068 347.125 91.8359C346.521 91.5599 346.042 91.1536 345.688 90.6172C345.339 90.0807 345.164 89.4193 345.164 88.6328C345.164 87.9557 345.289 87.3958 345.539 86.9531C345.789 86.5104 346.13 86.1562 346.563 85.8906C346.995 85.625 347.482 85.4245 348.023 85.2891C348.57 85.1484 349.135 85.0469 349.719 84.9844C350.422 84.9115 350.992 84.8464 351.43 84.7891C351.867 84.7266 352.185 84.6328 352.383 84.5078C352.586 84.3776 352.688 84.1771 352.688 83.9062V83.8594C352.688 83.2708 352.513 82.8151 352.164 82.4922C351.815 82.1693 351.312 82.0078 350.656 82.0078C349.964 82.0078 349.414 82.1589 349.008 82.4609C348.607 82.763 348.336 83.1198 348.195 83.5312L345.555 83.1562C345.763 82.4271 346.107 81.8177 346.586 81.3281C347.065 80.8333 347.651 80.4635 348.344 80.2187C349.036 79.9688 349.802 79.8438 350.641 79.8438C351.219 79.8438 351.794 79.9115 352.367 80.0469C352.94 80.1823 353.464 80.4062 353.938 80.7187C354.411 81.026 354.792 81.4453 355.078 81.9766C355.37 82.5078 355.516 83.1719 355.516 83.9687V92H352.797V90.3516H352.703C352.531 90.6849 352.289 90.9974 351.977 91.2891C351.669 91.5755 351.281 91.8073 350.813 91.9844C350.349 92.1563 349.805 92.2422 349.18 92.2422ZM349.914 90.1641C350.482 90.1641 350.974 90.0521 351.391 89.8281C351.807 89.599 352.128 89.2969 352.352 88.9219C352.581 88.5469 352.695 88.138 352.695 87.6953V86.2812C352.607 86.3542 352.456 86.4219 352.242 86.4844C352.034 86.5469 351.799 86.6016 351.539 86.6484C351.279 86.6953 351.021 86.737 350.766 86.7734C350.51 86.8099 350.289 86.8411 350.102 86.8672C349.68 86.9245 349.302 87.0182 348.969 87.1484C348.635 87.2786 348.372 87.4609 348.18 87.6953C347.987 87.9245 347.891 88.2214 347.891 88.5859C347.891 89.1068 348.081 89.5 348.461 89.7656C348.841 90.0312 349.326 90.1641 349.914 90.1641ZM361.188 84.9687V92H358.359V80H361.062V82.0391H361.203C361.479 81.3672 361.919 80.8333 362.523 80.4375C363.133 80.0417 363.885 79.8438 364.781 79.8438C365.609 79.8438 366.331 80.0208 366.945 80.375C367.565 80.7292 368.044 81.2422 368.383 81.9141C368.727 82.5859 368.896 83.401 368.891 84.3594V92H366.063V84.7969C366.063 83.9948 365.854 83.3672 365.438 82.9141C365.026 82.4609 364.456 82.2344 363.727 82.2344C363.232 82.2344 362.792 82.3437 362.406 82.5625C362.026 82.776 361.727 83.0859 361.508 83.4922C361.294 83.8984 361.188 84.3906 361.188 84.9687ZM376.219 92.2109C375.276 92.2109 374.432 91.9688 373.688 91.4844C372.943 91 372.354 90.2969 371.922 89.375C371.49 88.4531 371.273 87.3333 371.273 86.0156C371.273 84.6823 371.492 83.5573 371.93 82.6406C372.372 81.7187 372.969 81.0234 373.719 80.5547C374.469 80.0807 375.305 79.8438 376.227 79.8438C376.93 79.8438 377.508 79.9635 377.961 80.2031C378.414 80.4375 378.773 80.7214 379.039 81.0547C379.305 81.3828 379.51 81.6927 379.656 81.9844H379.773V76H382.609V92H379.828V90.1094H379.656C379.51 90.401 379.299 90.7109 379.023 91.0391C378.747 91.362 378.383 91.638 377.93 91.8672C377.477 92.0964 376.906 92.2109 376.219 92.2109ZM377.008 89.8906C377.607 89.8906 378.117 89.7292 378.539 89.4062C378.961 89.0781 379.281 88.6224 379.5 88.0391C379.719 87.4557 379.828 86.776 379.828 86C379.828 85.224 379.719 84.5495 379.5 83.9766C379.286 83.4036 378.969 82.9583 378.547 82.6406C378.13 82.3229 377.617 82.1641 377.008 82.1641C376.378 82.1641 375.852 82.3281 375.43 82.6562C375.008 82.9844 374.69 83.4375 374.477 84.0156C374.263 84.5937 374.156 85.2552 374.156 86C374.156 86.75 374.263 87.4193 374.477 88.0078C374.695 88.5911 375.016 89.0521 375.438 89.3906C375.865 89.724 376.388 89.8906 377.008 89.8906ZM395.107 83.1719L392.529 83.4531C392.456 83.1927 392.329 82.9479 392.146 82.7188C391.969 82.4896 391.73 82.3047 391.428 82.1641C391.126 82.0234 390.756 81.9531 390.318 81.9531C389.73 81.9531 389.235 82.0807 388.834 82.3359C388.438 82.5911 388.243 82.9219 388.248 83.3281C388.243 83.6771 388.37 83.9609 388.631 84.1797C388.896 84.3984 389.334 84.5781 389.943 84.7188L391.99 85.1562C393.126 85.401 393.969 85.7891 394.521 86.3203C395.079 86.8516 395.36 87.5469 395.365 88.4062C395.36 89.1615 395.139 89.8281 394.701 90.4062C394.269 90.9792 393.667 91.4271 392.896 91.75C392.126 92.0729 391.24 92.2344 390.24 92.2344C388.771 92.2344 387.589 91.9271 386.693 91.3125C385.798 90.6927 385.264 89.8307 385.092 88.7266L387.85 88.4609C387.975 89.0026 388.24 89.4115 388.646 89.6875C389.053 89.9635 389.581 90.1016 390.232 90.1016C390.904 90.1016 391.443 89.9635 391.85 89.6875C392.261 89.4115 392.467 89.0703 392.467 88.6641C392.467 88.3203 392.334 88.0365 392.068 87.8125C391.808 87.5885 391.402 87.4167 390.85 87.2969L388.803 86.8672C387.652 86.6276 386.8 86.224 386.248 85.6562C385.696 85.0833 385.423 84.3594 385.428 83.4844C385.423 82.7448 385.623 82.1042 386.029 81.5625C386.441 81.0156 387.011 80.5937 387.74 80.2969C388.475 79.9948 389.321 79.8438 390.279 79.8438C391.686 79.8438 392.792 80.1432 393.6 80.7422C394.412 81.3411 394.915 82.151 395.107 83.1719ZM402.744 85.4766C402.744 87.4245 402.484 89.2187 401.963 90.8594C401.447 92.4948 400.676 94.0078 399.65 95.3984H396.986C397.387 94.8828 397.757 94.2526 398.096 93.5078C398.439 92.763 398.736 91.9453 398.986 91.0547C399.242 90.1641 399.439 89.2422 399.58 88.2891C399.726 87.3359 399.799 86.3984 399.799 85.4766C399.799 84.2422 399.674 82.9922 399.424 81.7266C399.179 80.4609 398.843 79.2865 398.416 78.2031C397.994 77.1198 397.518 76.2344 396.986 75.5469H399.65C400.676 76.9375 401.447 78.4531 401.963 80.0937C402.484 81.7292 402.744 83.5234 402.744 85.4766Z" fill="black"/>
<path d="M210.609 461.198C170.541 443.929 138.704 411.832 121.762 371.625L188.507 343.5C198.188 366.476 216.38 384.817 239.276 394.685L210.609 461.198Z" fill="#6F47FF"/>
<path d="M434.285 369.082C425.871 389.993 413.359 409.01 397.486 425.014C381.612 441.017 362.697 453.683 341.855 462.267C321.012 470.85 298.664 475.178 276.124 474.994C253.584 474.811 231.308 470.12 210.608 461.199L239.276 394.685C251.104 399.783 263.833 402.463 276.713 402.568C289.593 402.673 302.364 400.2 314.274 395.295C326.184 390.391 336.992 383.153 346.063 374.008C355.133 364.863 362.283 353.996 367.091 342.047L434.285 369.082Z" fill="#47D1CB"/>
<path d="M121.762 371.625C110.122 344.001 106.038 313.778 109.931 284.055C113.823 254.332 125.552 226.179 143.913 202.484L201.165 246.848C190.673 260.388 183.971 276.475 181.746 293.46C179.522 310.444 181.855 327.715 188.507 343.5L121.762 371.625Z" fill="#FFCB47"/>
<path d="M143.913 202.484C161.989 179.157 185.857 160.971 213.144 149.733L240.725 216.704C225.133 223.126 211.493 233.518 201.164 246.848L143.913 202.484Z" fill="#FF477B"/>
<path d="M277.5 137C305.147 137 332.371 143.783 356.787 156.753C381.202 169.724 402.062 188.486 417.539 211.395C433.015 234.304 442.635 260.66 445.555 288.152C448.475 315.644 444.605 343.433 434.286 369.081L367.092 342.047C372.989 327.39 375.2 311.511 373.531 295.801C371.863 280.091 366.366 265.031 357.522 251.94C348.678 238.849 336.758 228.128 322.807 220.716C308.855 213.304 293.298 209.429 277.5 209.429V137Z" fill="#477BFF"/>
<path d="M213.144 149.733C233.559 141.326 255.422 137 277.5 137V209.429C264.884 209.428 252.391 211.9 240.725 216.704L213.144 149.733Z" fill="#59DBFF"/>
<path d="M382.745 223.055V233.237H380.901V224.85H380.841L378.46 226.371V224.681L380.99 223.055H382.745ZM385.331 233.237V231.905L388.865 228.44C389.204 228.098 389.485 227.795 389.711 227.53C389.936 227.265 390.105 227.008 390.218 226.759C390.33 226.511 390.387 226.246 390.387 225.964C390.387 225.642 390.314 225.367 390.168 225.138C390.022 224.906 389.822 224.728 389.566 224.602C389.311 224.476 389.021 224.413 388.696 224.413C388.362 224.413 388.068 224.482 387.816 224.621C387.565 224.757 387.369 224.951 387.23 225.203C387.094 225.455 387.026 225.755 387.026 226.103H385.271C385.271 225.457 385.418 224.895 385.713 224.418C386.008 223.94 386.414 223.571 386.932 223.309C387.452 223.047 388.048 222.916 388.721 222.916C389.404 222.916 390.004 223.044 390.521 223.299C391.038 223.554 391.439 223.904 391.724 224.348C392.012 224.792 392.157 225.299 392.157 225.869C392.157 226.25 392.084 226.625 391.938 226.993C391.792 227.361 391.535 227.768 391.167 228.216C390.803 228.663 390.291 229.205 389.631 229.842L387.876 231.626V231.696H392.311V233.237H385.331ZM397.789 233.431C396.971 233.431 396.268 233.224 395.682 232.81C395.098 232.392 394.649 231.79 394.334 231.005C394.023 230.216 393.867 229.267 393.867 228.156C393.87 227.046 394.028 226.101 394.339 225.322C394.654 224.54 395.103 223.944 395.686 223.533C396.273 223.122 396.974 222.916 397.789 222.916C398.605 222.916 399.306 223.122 399.892 223.533C400.479 223.944 400.928 224.54 401.24 225.322C401.555 226.105 401.712 227.049 401.712 228.156C401.712 229.27 401.555 230.221 401.24 231.01C400.928 231.795 400.479 232.395 399.892 232.81C399.309 233.224 398.608 233.431 397.789 233.431ZM397.789 231.875C398.426 231.875 398.928 231.562 399.296 230.935C399.667 230.306 399.853 229.379 399.853 228.156C399.853 227.348 399.768 226.668 399.599 226.118C399.43 225.568 399.191 225.153 398.883 224.875C398.575 224.593 398.21 224.452 397.789 224.452C397.156 224.452 396.656 224.767 396.288 225.397C395.92 226.023 395.735 226.943 395.731 228.156C395.728 228.968 395.809 229.651 395.975 230.205C396.144 230.758 396.383 231.176 396.691 231.457C396.999 231.736 397.365 231.875 397.789 231.875Z" fill="white"/>
<path d="M172.44 404.061V402.594L176.76 395.768H177.983V397.856H177.237L174.329 402.465V402.545H180.359V404.061H172.44ZM177.297 405.95V403.614L177.317 402.957V395.768H179.057V405.95H177.297ZM182.321 405.95L186.651 397.379V397.31H181.625V395.768H188.56V397.344L184.235 405.95H182.321Z" fill="white"/>
<path d="M324.914 425.749C325.401 425.752 325.875 425.838 326.336 426.007C326.8 426.173 327.218 426.445 327.589 426.822C327.96 427.197 328.255 427.699 328.474 428.329C328.693 428.959 328.802 429.737 328.802 430.665C328.805 431.54 328.713 432.323 328.524 433.012C328.338 433.698 328.071 434.278 327.723 434.752C327.375 435.226 326.956 435.587 326.465 435.836C325.975 436.085 325.423 436.209 324.81 436.209C324.167 436.209 323.597 436.083 323.1 435.831C322.606 435.579 322.206 435.234 321.901 434.797C321.597 434.359 321.409 433.859 321.34 433.295H323.154C323.247 433.7 323.436 434.021 323.721 434.26C324.009 434.495 324.372 434.613 324.81 434.613C325.516 434.613 326.059 434.306 326.441 433.693C326.822 433.08 327.012 432.228 327.012 431.138H326.943C326.78 431.429 326.57 431.681 326.311 431.893C326.053 432.102 325.759 432.263 325.431 432.376C325.106 432.488 324.762 432.545 324.397 432.545C323.801 432.545 323.264 432.402 322.786 432.117C322.312 431.832 321.936 431.441 321.658 430.944C321.383 430.447 321.244 429.878 321.24 429.239C321.24 428.576 321.393 427.981 321.698 427.454C322.006 426.924 322.435 426.506 322.985 426.201C323.535 425.893 324.178 425.742 324.914 425.749ZM324.919 427.24C324.561 427.24 324.238 427.328 323.95 427.504C323.665 427.676 323.439 427.911 323.274 428.21C323.111 428.505 323.03 428.834 323.03 429.199C323.033 429.56 323.115 429.888 323.274 430.183C323.436 430.478 323.656 430.712 323.935 430.884C324.217 431.057 324.538 431.143 324.899 431.143C325.168 431.143 325.418 431.091 325.65 430.989C325.882 430.886 326.084 430.743 326.257 430.561C326.432 430.375 326.568 430.165 326.664 429.93C326.764 429.694 326.812 429.446 326.808 429.184C326.808 428.836 326.726 428.514 326.56 428.219C326.397 427.924 326.174 427.688 325.889 427.509C325.607 427.33 325.284 427.24 324.919 427.24ZM334.077 436.209C333.338 436.209 332.682 436.085 332.108 435.836C331.538 435.587 331.091 435.248 330.766 434.817C330.444 434.383 330.285 433.89 330.289 433.34C330.285 432.913 330.378 432.52 330.567 432.162C330.756 431.804 331.011 431.506 331.333 431.267C331.657 431.025 332.019 430.871 332.416 430.805V430.735C331.893 430.619 331.468 430.352 331.144 429.935C330.822 429.514 330.663 429.028 330.666 428.478C330.663 427.954 330.809 427.487 331.104 427.076C331.399 426.665 331.803 426.342 332.317 426.107C332.831 425.868 333.417 425.749 334.077 425.749C334.73 425.749 335.311 425.868 335.822 426.107C336.336 426.342 336.74 426.665 337.035 427.076C337.333 427.487 337.482 427.954 337.482 428.478C337.482 429.028 337.318 429.514 336.99 429.935C336.665 430.352 336.246 430.619 335.732 430.735V430.805C336.13 430.871 336.488 431.025 336.806 431.267C337.128 431.506 337.383 431.804 337.572 432.162C337.764 432.52 337.86 432.913 337.86 433.34C337.86 433.89 337.698 434.383 337.373 434.817C337.048 435.248 336.601 435.587 336.031 435.836C335.464 436.085 334.813 436.209 334.077 436.209ZM334.077 434.787C334.458 434.787 334.789 434.722 335.071 434.593C335.353 434.46 335.572 434.275 335.727 434.036C335.883 433.798 335.963 433.522 335.966 433.211C335.963 432.886 335.878 432.599 335.713 432.351C335.55 432.099 335.326 431.902 335.041 431.759C334.76 431.617 334.438 431.545 334.077 431.545C333.712 431.545 333.387 431.617 333.102 431.759C332.817 431.902 332.592 432.099 332.426 432.351C332.264 432.599 332.184 432.886 332.188 433.211C332.184 433.522 332.261 433.798 332.416 434.036C332.572 434.272 332.791 434.456 333.073 434.588C333.358 434.721 333.692 434.787 334.077 434.787ZM334.077 430.148C334.388 430.148 334.664 430.085 334.902 429.96C335.144 429.834 335.335 429.658 335.474 429.433C335.613 429.207 335.684 428.947 335.688 428.652C335.684 428.36 335.615 428.105 335.479 427.886C335.343 427.664 335.154 427.494 334.912 427.374C334.67 427.252 334.392 427.19 334.077 427.19C333.755 427.19 333.472 427.252 333.227 427.374C332.985 427.494 332.796 427.664 332.66 427.886C332.527 428.105 332.463 428.36 332.466 428.652C332.463 428.947 332.529 429.207 332.665 429.433C332.804 429.655 332.995 429.83 333.237 429.96C333.482 430.085 333.762 430.148 334.077 430.148Z" fill="white"/>
<path d="M137.683 292.123C137.196 292.12 136.72 292.035 136.256 291.869C135.792 291.7 135.375 291.427 135.004 291.049C134.632 290.668 134.337 290.162 134.119 289.533C133.9 288.9 133.792 288.116 133.796 287.181C133.796 286.309 133.888 285.532 134.074 284.849C134.26 284.167 134.526 283.59 134.874 283.119C135.222 282.645 135.642 282.284 136.132 282.036C136.626 281.787 137.178 281.663 137.788 281.663C138.427 281.663 138.994 281.789 139.488 282.04C139.985 282.292 140.386 282.637 140.691 283.075C140.996 283.509 141.185 283.999 141.258 284.546H139.443C139.35 284.155 139.16 283.844 138.872 283.611C138.586 283.376 138.225 283.259 137.788 283.259C137.082 283.259 136.538 283.565 136.157 284.178C135.779 284.791 135.589 285.633 135.585 286.704H135.655C135.817 286.412 136.028 286.162 136.286 285.953C136.545 285.744 136.836 285.584 137.161 285.471C137.489 285.355 137.836 285.297 138.2 285.297C138.797 285.297 139.332 285.439 139.806 285.724C140.283 286.009 140.661 286.402 140.94 286.903C141.218 287.4 141.356 287.97 141.352 288.613C141.356 289.282 141.203 289.884 140.895 290.418C140.587 290.948 140.158 291.366 139.607 291.67C139.057 291.975 138.416 292.126 137.683 292.123ZM137.673 290.631C138.035 290.631 138.358 290.544 138.643 290.368C138.928 290.192 139.153 289.955 139.319 289.657C139.485 289.359 139.566 289.024 139.563 288.653C139.566 288.288 139.486 287.958 139.324 287.663C139.165 287.368 138.944 287.135 138.663 286.962C138.381 286.79 138.06 286.704 137.698 286.704C137.43 286.704 137.18 286.755 136.948 286.858C136.716 286.961 136.513 287.103 136.341 287.286C136.169 287.464 136.033 287.673 135.933 287.912C135.837 288.147 135.787 288.399 135.784 288.668C135.787 289.022 135.87 289.349 136.033 289.647C136.195 289.945 136.419 290.184 136.704 290.363C136.989 290.542 137.312 290.631 137.673 290.631ZM146.573 292.123C145.91 292.123 145.316 291.999 144.793 291.75C144.269 291.498 143.853 291.153 143.545 290.716C143.24 290.278 143.077 289.778 143.058 289.214H144.847C144.881 289.632 145.061 289.973 145.389 290.239C145.717 290.5 146.112 290.631 146.573 290.631C146.934 290.631 147.255 290.549 147.537 290.383C147.819 290.217 148.041 289.987 148.203 289.692C148.366 289.397 148.445 289.06 148.442 288.683C148.445 288.298 148.364 287.957 148.198 287.658C148.033 287.36 147.805 287.126 147.517 286.957C147.229 286.785 146.897 286.699 146.523 286.699C146.218 286.696 145.918 286.752 145.623 286.868C145.328 286.984 145.094 287.136 144.922 287.325L143.256 287.052L143.788 281.802H149.695V283.343H145.315L145.021 286.043H145.081C145.27 285.821 145.537 285.637 145.881 285.491C146.226 285.342 146.604 285.267 147.015 285.267C147.631 285.267 148.182 285.413 148.666 285.705C149.149 285.993 149.531 286.391 149.809 286.898C150.087 287.405 150.227 287.985 150.227 288.638C150.227 289.311 150.071 289.911 149.759 290.437C149.451 290.961 149.022 291.374 148.472 291.675C147.925 291.974 147.292 292.123 146.573 292.123Z" fill="white"/>
<path d="M190.339 201.182C189.623 201.182 188.987 201.059 188.43 200.814C187.877 200.568 187.439 200.227 187.118 199.79C186.796 199.352 186.625 198.847 186.606 198.273H188.475C188.491 198.548 188.583 198.789 188.748 198.994C188.914 199.196 189.134 199.354 189.41 199.466C189.685 199.579 189.993 199.635 190.334 199.635C190.699 199.635 191.022 199.573 191.304 199.447C191.585 199.317 191.806 199.138 191.965 198.91C192.124 198.681 192.202 198.417 192.199 198.119C192.202 197.811 192.122 197.539 191.96 197.304C191.798 197.068 191.562 196.885 191.254 196.752C190.949 196.619 190.581 196.553 190.15 196.553H189.25V195.131H190.15C190.505 195.131 190.815 195.07 191.08 194.947C191.348 194.825 191.559 194.652 191.711 194.43C191.864 194.205 191.938 193.945 191.935 193.65C191.938 193.361 191.874 193.111 191.741 192.899C191.612 192.684 191.428 192.516 191.189 192.397C190.954 192.278 190.677 192.218 190.359 192.218C190.048 192.218 189.759 192.274 189.494 192.387C189.229 192.5 189.015 192.66 188.853 192.869C188.69 193.075 188.604 193.32 188.594 193.605H186.819C186.833 193.035 186.997 192.534 187.312 192.104C187.63 191.669 188.054 191.331 188.584 191.089C189.115 190.844 189.709 190.721 190.369 190.721C191.048 190.721 191.638 190.849 192.139 191.104C192.643 191.356 193.032 191.696 193.307 192.123C193.582 192.551 193.72 193.023 193.72 193.54C193.723 194.114 193.554 194.594 193.213 194.982C192.875 195.37 192.431 195.623 191.88 195.743V195.822C192.596 195.922 193.145 196.187 193.526 196.618C193.91 197.045 194.101 197.577 194.098 198.214C194.098 198.784 193.935 199.294 193.611 199.745C193.289 200.192 192.845 200.544 192.278 200.799C191.715 201.054 191.068 201.182 190.339 201.182ZM195.804 201.042V199.71L199.339 196.245C199.677 195.903 199.959 195.6 200.184 195.335C200.41 195.07 200.579 194.813 200.691 194.564C200.804 194.316 200.86 194.051 200.86 193.769C200.86 193.448 200.787 193.172 200.642 192.944C200.496 192.712 200.295 192.533 200.04 192.407C199.785 192.281 199.495 192.218 199.17 192.218C198.835 192.218 198.542 192.287 198.29 192.427C198.038 192.563 197.843 192.756 197.703 193.008C197.567 193.26 197.5 193.56 197.5 193.908H195.745C195.745 193.262 195.892 192.7 196.187 192.223C196.482 191.746 196.888 191.376 197.405 191.114C197.925 190.852 198.522 190.721 199.195 190.721C199.878 190.721 200.478 190.849 200.995 191.104C201.512 191.359 201.913 191.709 202.198 192.153C202.486 192.597 202.63 193.104 202.63 193.675C202.63 194.056 202.557 194.43 202.411 194.798C202.266 195.166 202.009 195.574 201.641 196.021C201.276 196.469 200.764 197.01 200.105 197.647L198.35 199.432V199.501H202.784V201.042H195.804Z" fill="white"/>
<path d="M242.984 175.687V174.354L246.519 170.889C246.857 170.548 247.139 170.244 247.364 169.979C247.589 169.714 247.758 169.457 247.871 169.209C247.984 168.96 248.04 168.695 248.04 168.413C248.04 168.092 247.967 167.817 247.821 167.588C247.675 167.356 247.475 167.177 247.22 167.051C246.965 166.925 246.675 166.862 246.35 166.862C246.015 166.862 245.722 166.932 245.47 167.071C245.218 167.207 245.022 167.401 244.883 167.653C244.747 167.904 244.679 168.204 244.679 168.552H242.924C242.924 167.906 243.072 167.344 243.367 166.867C243.662 166.39 244.068 166.02 244.585 165.758C245.105 165.497 245.702 165.366 246.375 165.366C247.057 165.366 247.657 165.493 248.174 165.748C248.691 166.004 249.092 166.353 249.377 166.797C249.666 167.242 249.81 167.749 249.81 168.319C249.81 168.7 249.737 169.074 249.591 169.442C249.445 169.81 249.188 170.218 248.821 170.665C248.456 171.113 247.944 171.655 247.284 172.291L245.529 174.076V174.145H249.964V175.687H242.984ZM251.277 173.797V172.331L255.597 165.505H256.82V167.593H256.074L253.166 172.202V172.281H259.196V173.797H251.277ZM256.134 175.687V173.35L256.154 172.694V165.505H257.894V175.687H256.134Z" fill="white"/>
<path d="M158.5 519C158.5 520.061 158.078 521.078 157.328 521.829C156.578 522.579 155.561 523 154.5 523C153.439 523 152.422 522.579 151.672 521.828C150.921 521.078 150.5 520.061 150.5 519C150.5 517.939 150.921 516.922 151.672 516.172C152.422 515.421 153.439 515 154.5 515C155.561 515 156.578 515.421 157.328 516.171C158.078 516.922 158.5 517.939 158.5 519Z" fill="#477BFF"/>
<path d="M167.909 525V513.364H169.318V523.75H174.727V525H167.909ZM179.295 525.205C178.742 525.205 178.241 525.1 177.79 524.892C177.339 524.68 176.981 524.375 176.716 523.977C176.451 523.576 176.318 523.091 176.318 522.523C176.318 522.023 176.417 521.617 176.614 521.307C176.811 520.992 177.074 520.746 177.403 520.568C177.733 520.39 178.097 520.258 178.494 520.17C178.896 520.08 179.299 520.008 179.705 519.955C180.235 519.886 180.665 519.835 180.994 519.801C181.328 519.763 181.57 519.701 181.722 519.614C181.877 519.527 181.955 519.375 181.955 519.159V519.114C181.955 518.553 181.801 518.117 181.494 517.807C181.191 517.496 180.731 517.341 180.114 517.341C179.473 517.341 178.972 517.481 178.608 517.761C178.244 518.042 177.989 518.341 177.841 518.659L176.568 518.205C176.795 517.674 177.098 517.261 177.477 516.966C177.86 516.667 178.277 516.458 178.727 516.341C179.182 516.22 179.629 516.159 180.068 516.159C180.348 516.159 180.67 516.193 181.034 516.261C181.402 516.326 181.756 516.46 182.097 516.665C182.441 516.869 182.727 517.178 182.955 517.591C183.182 518.004 183.295 518.557 183.295 519.25V525H181.955V523.818H181.886C181.795 524.008 181.644 524.21 181.432 524.426C181.22 524.642 180.938 524.826 180.585 524.977C180.233 525.129 179.803 525.205 179.295 525.205ZM179.5 524C180.03 524 180.477 523.896 180.841 523.688C181.208 523.479 181.485 523.21 181.67 522.881C181.86 522.551 181.955 522.205 181.955 521.841V520.614C181.898 520.682 181.773 520.744 181.58 520.801C181.39 520.854 181.17 520.902 180.92 520.943C180.674 520.981 180.434 521.015 180.199 521.045C179.968 521.072 179.78 521.095 179.636 521.114C179.288 521.159 178.962 521.233 178.659 521.335C178.36 521.434 178.117 521.583 177.932 521.784C177.75 521.981 177.659 522.25 177.659 522.591C177.659 523.057 177.831 523.409 178.176 523.648C178.525 523.883 178.966 524 179.5 524ZM185.925 525V513.364H187.266V517.659H187.379C187.478 517.508 187.614 517.314 187.788 517.08C187.966 516.841 188.22 516.629 188.55 516.443C188.883 516.254 189.334 516.159 189.902 516.159C190.637 516.159 191.285 516.343 191.845 516.71C192.406 517.078 192.843 517.598 193.158 518.273C193.472 518.947 193.629 519.742 193.629 520.659C193.629 521.583 193.472 522.384 193.158 523.062C192.843 523.737 192.408 524.259 191.851 524.631C191.294 524.998 190.652 525.182 189.925 525.182C189.364 525.182 188.915 525.089 188.578 524.903C188.241 524.714 187.982 524.5 187.8 524.261C187.618 524.019 187.478 523.818 187.379 523.659H187.22V525H185.925ZM187.243 520.636C187.243 521.295 187.339 521.877 187.533 522.381C187.726 522.881 188.008 523.273 188.379 523.557C188.75 523.837 189.205 523.977 189.743 523.977C190.304 523.977 190.771 523.83 191.146 523.534C191.525 523.235 191.809 522.833 191.999 522.33C192.192 521.822 192.288 521.258 192.288 520.636C192.288 520.023 192.194 519.47 192.004 518.977C191.819 518.481 191.536 518.089 191.158 517.801C190.783 517.509 190.311 517.364 189.743 517.364C189.197 517.364 188.739 517.502 188.368 517.778C187.997 518.051 187.716 518.434 187.527 518.926C187.338 519.415 187.243 519.985 187.243 520.636ZM199.339 525.182C198.499 525.182 197.773 524.996 197.163 524.625C196.557 524.25 196.089 523.727 195.76 523.057C195.434 522.383 195.271 521.598 195.271 520.705C195.271 519.811 195.434 519.023 195.76 518.341C196.089 517.655 196.548 517.121 197.135 516.739C197.726 516.352 198.415 516.159 199.203 516.159C199.658 516.159 200.107 516.235 200.55 516.386C200.993 516.538 201.396 516.784 201.76 517.125C202.124 517.462 202.413 517.909 202.629 518.466C202.845 519.023 202.953 519.708 202.953 520.523V521.091H196.226V519.932H201.589C201.589 519.439 201.491 519 201.294 518.614C201.101 518.227 200.824 517.922 200.464 517.699C200.108 517.475 199.688 517.364 199.203 517.364C198.669 517.364 198.207 517.496 197.817 517.761C197.43 518.023 197.133 518.364 196.925 518.784C196.716 519.205 196.612 519.655 196.612 520.136V520.909C196.612 521.568 196.726 522.127 196.953 522.585C197.184 523.04 197.504 523.386 197.913 523.625C198.322 523.86 198.798 523.977 199.339 523.977C199.692 523.977 200.01 523.928 200.294 523.83C200.582 523.727 200.83 523.576 201.038 523.375C201.247 523.17 201.408 522.917 201.521 522.614L202.817 522.977C202.68 523.417 202.451 523.803 202.129 524.136C201.807 524.466 201.41 524.723 200.936 524.909C200.463 525.091 199.93 525.182 199.339 525.182ZM206.334 513.364V525H204.993V513.364H206.334Z" fill="#17191B"/>
<path d="M158.5 557C158.5 558.061 158.078 559.078 157.328 559.829C156.578 560.579 155.561 561 154.5 561C153.439 561 152.422 560.579 151.672 559.828C150.921 559.078 150.5 558.061 150.5 557C150.5 555.939 150.921 554.922 151.672 554.172C152.422 553.421 153.439 553 154.5 553C155.561 553 156.578 553.421 157.328 554.171C158.078 554.922 158.5 555.939 158.5 557Z" fill="#47D1CB"/>
<path d="M167.909 563V551.364H169.318V561.75H174.727V563H167.909ZM179.295 563.205C178.742 563.205 178.241 563.1 177.79 562.892C177.339 562.68 176.981 562.375 176.716 561.977C176.451 561.576 176.318 561.091 176.318 560.523C176.318 560.023 176.417 559.617 176.614 559.307C176.811 558.992 177.074 558.746 177.403 558.568C177.733 558.39 178.097 558.258 178.494 558.17C178.896 558.08 179.299 558.008 179.705 557.955C180.235 557.886 180.665 557.835 180.994 557.801C181.328 557.763 181.57 557.701 181.722 557.614C181.877 557.527 181.955 557.375 181.955 557.159V557.114C181.955 556.553 181.801 556.117 181.494 555.807C181.191 555.496 180.731 555.341 180.114 555.341C179.473 555.341 178.972 555.481 178.608 555.761C178.244 556.042 177.989 556.341 177.841 556.659L176.568 556.205C176.795 555.674 177.098 555.261 177.477 554.966C177.86 554.667 178.277 554.458 178.727 554.341C179.182 554.22 179.629 554.159 180.068 554.159C180.348 554.159 180.67 554.193 181.034 554.261C181.402 554.326 181.756 554.46 182.097 554.665C182.441 554.869 182.727 555.178 182.955 555.591C183.182 556.004 183.295 556.557 183.295 557.25V563H181.955V561.818H181.886C181.795 562.008 181.644 562.21 181.432 562.426C181.22 562.642 180.938 562.826 180.585 562.977C180.233 563.129 179.803 563.205 179.295 563.205ZM179.5 562C180.03 562 180.477 561.896 180.841 561.688C181.208 561.479 181.485 561.21 181.67 560.881C181.86 560.551 181.955 560.205 181.955 559.841V558.614C181.898 558.682 181.773 558.744 181.58 558.801C181.39 558.854 181.17 558.902 180.92 558.943C180.674 558.981 180.434 559.015 180.199 559.045C179.968 559.072 179.78 559.095 179.636 559.114C179.288 559.159 178.962 559.233 178.659 559.335C178.36 559.434 178.117 559.583 177.932 559.784C177.75 559.981 177.659 560.25 177.659 560.591C177.659 561.057 177.831 561.409 178.176 561.648C178.525 561.883 178.966 562 179.5 562ZM185.925 563V551.364H187.266V555.659H187.379C187.478 555.508 187.614 555.314 187.788 555.08C187.966 554.841 188.22 554.629 188.55 554.443C188.883 554.254 189.334 554.159 189.902 554.159C190.637 554.159 191.285 554.343 191.845 554.71C192.406 555.078 192.843 555.598 193.158 556.273C193.472 556.947 193.629 557.742 193.629 558.659C193.629 559.583 193.472 560.384 193.158 561.062C192.843 561.737 192.408 562.259 191.851 562.631C191.294 562.998 190.652 563.182 189.925 563.182C189.364 563.182 188.915 563.089 188.578 562.903C188.241 562.714 187.982 562.5 187.8 562.261C187.618 562.019 187.478 561.818 187.379 561.659H187.22V563H185.925ZM187.243 558.636C187.243 559.295 187.339 559.877 187.533 560.381C187.726 560.881 188.008 561.273 188.379 561.557C188.75 561.837 189.205 561.977 189.743 561.977C190.304 561.977 190.771 561.83 191.146 561.534C191.525 561.235 191.809 560.833 191.999 560.33C192.192 559.822 192.288 559.258 192.288 558.636C192.288 558.023 192.194 557.47 192.004 556.977C191.819 556.481 191.536 556.089 191.158 555.801C190.783 555.509 190.311 555.364 189.743 555.364C189.197 555.364 188.739 555.502 188.368 555.778C187.997 556.051 187.716 556.434 187.527 556.926C187.338 557.415 187.243 557.985 187.243 558.636ZM199.339 563.182C198.499 563.182 197.773 562.996 197.163 562.625C196.557 562.25 196.089 561.727 195.76 561.057C195.434 560.383 195.271 559.598 195.271 558.705C195.271 557.811 195.434 557.023 195.76 556.341C196.089 555.655 196.548 555.121 197.135 554.739C197.726 554.352 198.415 554.159 199.203 554.159C199.658 554.159 200.107 554.235 200.55 554.386C200.993 554.538 201.396 554.784 201.76 555.125C202.124 555.462 202.413 555.909 202.629 556.466C202.845 557.023 202.953 557.708 202.953 558.523V559.091H196.226V557.932H201.589C201.589 557.439 201.491 557 201.294 556.614C201.101 556.227 200.824 555.922 200.464 555.699C200.108 555.475 199.688 555.364 199.203 555.364C198.669 555.364 198.207 555.496 197.817 555.761C197.43 556.023 197.133 556.364 196.925 556.784C196.716 557.205 196.612 557.655 196.612 558.136V558.909C196.612 559.568 196.726 560.127 196.953 560.585C197.184 561.04 197.504 561.386 197.913 561.625C198.322 561.86 198.798 561.977 199.339 561.977C199.692 561.977 200.01 561.928 200.294 561.83C200.582 561.727 200.83 561.576 201.038 561.375C201.247 561.17 201.408 560.917 201.521 560.614L202.817 560.977C202.68 561.417 202.451 561.803 202.129 562.136C201.807 562.466 201.41 562.723 200.936 562.909C200.463 563.091 199.93 563.182 199.339 563.182ZM206.334 551.364V563H204.993V551.364H206.334Z" fill="#17191B"/>
<path d="M256.5 519C256.5 520.061 256.078 521.078 255.328 521.829C254.578 522.579 253.561 523 252.5 523C251.439 523 250.422 522.579 249.672 521.828C248.921 521.078 248.5 520.061 248.5 519C248.5 517.939 248.921 516.922 249.672 516.172C250.422 515.421 251.439 515 252.5 515C253.561 515 254.578 515.421 255.328 516.171C256.078 516.922 256.5 517.939 256.5 519Z" fill="#FFCB47"/>
<path d="M265.909 525V513.364H267.318V523.75H272.727V525H265.909ZM277.295 525.205C276.742 525.205 276.241 525.1 275.79 524.892C275.339 524.68 274.981 524.375 274.716 523.977C274.451 523.576 274.318 523.091 274.318 522.523C274.318 522.023 274.417 521.617 274.614 521.307C274.811 520.992 275.074 520.746 275.403 520.568C275.733 520.39 276.097 520.258 276.494 520.17C276.896 520.08 277.299 520.008 277.705 519.955C278.235 519.886 278.665 519.835 278.994 519.801C279.328 519.763 279.57 519.701 279.722 519.614C279.877 519.527 279.955 519.375 279.955 519.159V519.114C279.955 518.553 279.801 518.117 279.494 517.807C279.191 517.496 278.731 517.341 278.114 517.341C277.473 517.341 276.972 517.481 276.608 517.761C276.244 518.042 275.989 518.341 275.841 518.659L274.568 518.205C274.795 517.674 275.098 517.261 275.477 516.966C275.86 516.667 276.277 516.458 276.727 516.341C277.182 516.22 277.629 516.159 278.068 516.159C278.348 516.159 278.67 516.193 279.034 516.261C279.402 516.326 279.756 516.46 280.097 516.665C280.441 516.869 280.727 517.178 280.955 517.591C281.182 518.004 281.295 518.557 281.295 519.25V525H279.955V523.818H279.886C279.795 524.008 279.644 524.21 279.432 524.426C279.22 524.642 278.938 524.826 278.585 524.977C278.233 525.129 277.803 525.205 277.295 525.205ZM277.5 524C278.03 524 278.477 523.896 278.841 523.688C279.208 523.479 279.485 523.21 279.67 522.881C279.86 522.551 279.955 522.205 279.955 521.841V520.614C279.898 520.682 279.773 520.744 279.58 520.801C279.39 520.854 279.17 520.902 278.92 520.943C278.674 520.981 278.434 521.015 278.199 521.045C277.968 521.072 277.78 521.095 277.636 521.114C277.288 521.159 276.962 521.233 276.659 521.335C276.36 521.434 276.117 521.583 275.932 521.784C275.75 521.981 275.659 522.25 275.659 522.591C275.659 523.057 275.831 523.409 276.176 523.648C276.525 523.883 276.966 524 277.5 524ZM283.925 525V513.364H285.266V517.659H285.379C285.478 517.508 285.614 517.314 285.788 517.08C285.966 516.841 286.22 516.629 286.55 516.443C286.883 516.254 287.334 516.159 287.902 516.159C288.637 516.159 289.285 516.343 289.845 516.71C290.406 517.078 290.843 517.598 291.158 518.273C291.472 518.947 291.629 519.742 291.629 520.659C291.629 521.583 291.472 522.384 291.158 523.062C290.843 523.737 290.408 524.259 289.851 524.631C289.294 524.998 288.652 525.182 287.925 525.182C287.364 525.182 286.915 525.089 286.578 524.903C286.241 524.714 285.982 524.5 285.8 524.261C285.618 524.019 285.478 523.818 285.379 523.659H285.22V525H283.925ZM285.243 520.636C285.243 521.295 285.339 521.877 285.533 522.381C285.726 522.881 286.008 523.273 286.379 523.557C286.75 523.837 287.205 523.977 287.743 523.977C288.304 523.977 288.771 523.83 289.146 523.534C289.525 523.235 289.809 522.833 289.999 522.33C290.192 521.822 290.288 521.258 290.288 520.636C290.288 520.023 290.194 519.47 290.004 518.977C289.819 518.481 289.536 518.089 289.158 517.801C288.783 517.509 288.311 517.364 287.743 517.364C287.197 517.364 286.739 517.502 286.368 517.778C285.997 518.051 285.716 518.434 285.527 518.926C285.338 519.415 285.243 519.985 285.243 520.636ZM297.339 525.182C296.499 525.182 295.773 524.996 295.163 524.625C294.557 524.25 294.089 523.727 293.76 523.057C293.434 522.383 293.271 521.598 293.271 520.705C293.271 519.811 293.434 519.023 293.76 518.341C294.089 517.655 294.548 517.121 295.135 516.739C295.726 516.352 296.415 516.159 297.203 516.159C297.658 516.159 298.107 516.235 298.55 516.386C298.993 516.538 299.396 516.784 299.76 517.125C300.124 517.462 300.413 517.909 300.629 518.466C300.845 519.023 300.953 519.708 300.953 520.523V521.091H294.226V519.932H299.589C299.589 519.439 299.491 519 299.294 518.614C299.101 518.227 298.824 517.922 298.464 517.699C298.108 517.475 297.688 517.364 297.203 517.364C296.669 517.364 296.207 517.496 295.817 517.761C295.43 518.023 295.133 518.364 294.925 518.784C294.716 519.205 294.612 519.655 294.612 520.136V520.909C294.612 521.568 294.726 522.127 294.953 522.585C295.184 523.04 295.504 523.386 295.913 523.625C296.322 523.86 296.798 523.977 297.339 523.977C297.692 523.977 298.01 523.928 298.294 523.83C298.582 523.727 298.83 523.576 299.038 523.375C299.247 523.17 299.408 522.917 299.521 522.614L300.817 522.977C300.68 523.417 300.451 523.803 300.129 524.136C299.807 524.466 299.41 524.723 298.936 524.909C298.463 525.091 297.93 525.182 297.339 525.182ZM304.334 513.364V525H302.993V513.364H304.334Z" fill="#17191B"/>
<path d="M256.5 557C256.5 558.061 256.078 559.078 255.328 559.829C254.578 560.579 253.561 561 252.5 561C251.439 561 250.422 560.579 249.672 559.828C248.921 559.078 248.5 558.061 248.5 557C248.5 555.939 248.921 554.922 249.672 554.172C250.422 553.421 251.439 553 252.5 553C253.561 553 254.578 553.421 255.328 554.171C256.078 554.922 256.5 555.939 256.5 557Z" fill="#FF477B"/>
<path d="M265.909 563V551.364H267.318V561.75H272.727V563H265.909ZM277.295 563.205C276.742 563.205 276.241 563.1 275.79 562.892C275.339 562.68 274.981 562.375 274.716 561.977C274.451 561.576 274.318 561.091 274.318 560.523C274.318 560.023 274.417 559.617 274.614 559.307C274.811 558.992 275.074 558.746 275.403 558.568C275.733 558.39 276.097 558.258 276.494 558.17C276.896 558.08 277.299 558.008 277.705 557.955C278.235 557.886 278.665 557.835 278.994 557.801C279.328 557.763 279.57 557.701 279.722 557.614C279.877 557.527 279.955 557.375 279.955 557.159V557.114C279.955 556.553 279.801 556.117 279.494 555.807C279.191 555.496 278.731 555.341 278.114 555.341C277.473 555.341 276.972 555.481 276.608 555.761C276.244 556.042 275.989 556.341 275.841 556.659L274.568 556.205C274.795 555.674 275.098 555.261 275.477 554.966C275.86 554.667 276.277 554.458 276.727 554.341C277.182 554.22 277.629 554.159 278.068 554.159C278.348 554.159 278.67 554.193 279.034 554.261C279.402 554.326 279.756 554.46 280.097 554.665C280.441 554.869 280.727 555.178 280.955 555.591C281.182 556.004 281.295 556.557 281.295 557.25V563H279.955V561.818H279.886C279.795 562.008 279.644 562.21 279.432 562.426C279.22 562.642 278.938 562.826 278.585 562.977C278.233 563.129 277.803 563.205 277.295 563.205ZM277.5 562C278.03 562 278.477 561.896 278.841 561.688C279.208 561.479 279.485 561.21 279.67 560.881C279.86 560.551 279.955 560.205 279.955 559.841V558.614C279.898 558.682 279.773 558.744 279.58 558.801C279.39 558.854 279.17 558.902 278.92 558.943C278.674 558.981 278.434 559.015 278.199 559.045C277.968 559.072 277.78 559.095 277.636 559.114C277.288 559.159 276.962 559.233 276.659 559.335C276.36 559.434 276.117 559.583 275.932 559.784C275.75 559.981 275.659 560.25 275.659 560.591C275.659 561.057 275.831 561.409 276.176 561.648C276.525 561.883 276.966 562 277.5 562ZM283.925 563V551.364H285.266V555.659H285.379C285.478 555.508 285.614 555.314 285.788 555.08C285.966 554.841 286.22 554.629 286.55 554.443C286.883 554.254 287.334 554.159 287.902 554.159C288.637 554.159 289.285 554.343 289.845 554.71C290.406 555.078 290.843 555.598 291.158 556.273C291.472 556.947 291.629 557.742 291.629 558.659C291.629 559.583 291.472 560.384 291.158 561.062C290.843 561.737 290.408 562.259 289.851 562.631C289.294 562.998 288.652 563.182 287.925 563.182C287.364 563.182 286.915 563.089 286.578 562.903C286.241 562.714 285.982 562.5 285.8 562.261C285.618 562.019 285.478 561.818 285.379 561.659H285.22V563H283.925ZM285.243 558.636C285.243 559.295 285.339 559.877 285.533 560.381C285.726 560.881 286.008 561.273 286.379 561.557C286.75 561.837 287.205 561.977 287.743 561.977C288.304 561.977 288.771 561.83 289.146 561.534C289.525 561.235 289.809 560.833 289.999 560.33C290.192 559.822 290.288 559.258 290.288 558.636C290.288 558.023 290.194 557.47 290.004 556.977C289.819 556.481 289.536 556.089 289.158 555.801C288.783 555.509 288.311 555.364 287.743 555.364C287.197 555.364 286.739 555.502 286.368 555.778C285.997 556.051 285.716 556.434 285.527 556.926C285.338 557.415 285.243 557.985 285.243 558.636ZM297.339 563.182C296.499 563.182 295.773 562.996 295.163 562.625C294.557 562.25 294.089 561.727 293.76 561.057C293.434 560.383 293.271 559.598 293.271 558.705C293.271 557.811 293.434 557.023 293.76 556.341C294.089 555.655 294.548 555.121 295.135 554.739C295.726 554.352 296.415 554.159 297.203 554.159C297.658 554.159 298.107 554.235 298.55 554.386C298.993 554.538 299.396 554.784 299.76 555.125C300.124 555.462 300.413 555.909 300.629 556.466C300.845 557.023 300.953 557.708 300.953 558.523V559.091H294.226V557.932H299.589C299.589 557.439 299.491 557 299.294 556.614C299.101 556.227 298.824 555.922 298.464 555.699C298.108 555.475 297.688 555.364 297.203 555.364C296.669 555.364 296.207 555.496 295.817 555.761C295.43 556.023 295.133 556.364 294.925 556.784C294.716 557.205 294.612 557.655 294.612 558.136V558.909C294.612 559.568 294.726 560.127 294.953 560.585C295.184 561.04 295.504 561.386 295.913 561.625C296.322 561.86 296.798 561.977 297.339 561.977C297.692 561.977 298.01 561.928 298.294 561.83C298.582 561.727 298.83 561.576 299.038 561.375C299.247 561.17 299.408 560.917 299.521 560.614L300.817 560.977C300.68 561.417 300.451 561.803 300.129 562.136C299.807 562.466 299.41 562.723 298.936 562.909C298.463 563.091 297.93 563.182 297.339 563.182ZM304.334 551.364V563H302.993V551.364H304.334Z" fill="#17191B"/>
<path d="M354.5 519C354.5 520.061 354.078 521.078 353.328 521.829C352.578 522.579 351.561 523 350.5 523C349.439 523 348.422 522.579 347.672 521.828C346.921 521.078 346.5 520.061 346.5 519C346.5 517.939 346.921 516.922 347.672 516.172C348.422 515.421 349.439 515 350.5 515C351.561 515 352.578 515.421 353.328 516.171C354.078 516.922 354.5 517.939 354.5 519Z" fill="#6F47FF"/>
<path d="M363.909 525V513.364H365.318V523.75H370.727V525H363.909ZM375.295 525.205C374.742 525.205 374.241 525.1 373.79 524.892C373.339 524.68 372.981 524.375 372.716 523.977C372.451 523.576 372.318 523.091 372.318 522.523C372.318 522.023 372.417 521.617 372.614 521.307C372.811 520.992 373.074 520.746 373.403 520.568C373.733 520.39 374.097 520.258 374.494 520.17C374.896 520.08 375.299 520.008 375.705 519.955C376.235 519.886 376.665 519.835 376.994 519.801C377.328 519.763 377.57 519.701 377.722 519.614C377.877 519.527 377.955 519.375 377.955 519.159V519.114C377.955 518.553 377.801 518.117 377.494 517.807C377.191 517.496 376.731 517.341 376.114 517.341C375.473 517.341 374.972 517.481 374.608 517.761C374.244 518.042 373.989 518.341 373.841 518.659L372.568 518.205C372.795 517.674 373.098 517.261 373.477 516.966C373.86 516.667 374.277 516.458 374.727 516.341C375.182 516.22 375.629 516.159 376.068 516.159C376.348 516.159 376.67 516.193 377.034 516.261C377.402 516.326 377.756 516.46 378.097 516.665C378.441 516.869 378.727 517.178 378.955 517.591C379.182 518.004 379.295 518.557 379.295 519.25V525H377.955V523.818H377.886C377.795 524.008 377.644 524.21 377.432 524.426C377.22 524.642 376.938 524.826 376.585 524.977C376.233 525.129 375.803 525.205 375.295 525.205ZM375.5 524C376.03 524 376.477 523.896 376.841 523.688C377.208 523.479 377.485 523.21 377.67 522.881C377.86 522.551 377.955 522.205 377.955 521.841V520.614C377.898 520.682 377.773 520.744 377.58 520.801C377.39 520.854 377.17 520.902 376.92 520.943C376.674 520.981 376.434 521.015 376.199 521.045C375.968 521.072 375.78 521.095 375.636 521.114C375.288 521.159 374.962 521.233 374.659 521.335C374.36 521.434 374.117 521.583 373.932 521.784C373.75 521.981 373.659 522.25 373.659 522.591C373.659 523.057 373.831 523.409 374.176 523.648C374.525 523.883 374.966 524 375.5 524ZM381.925 525V513.364H383.266V517.659H383.379C383.478 517.508 383.614 517.314 383.788 517.08C383.966 516.841 384.22 516.629 384.55 516.443C384.883 516.254 385.334 516.159 385.902 516.159C386.637 516.159 387.285 516.343 387.845 516.71C388.406 517.078 388.843 517.598 389.158 518.273C389.472 518.947 389.629 519.742 389.629 520.659C389.629 521.583 389.472 522.384 389.158 523.062C388.843 523.737 388.408 524.259 387.851 524.631C387.294 524.998 386.652 525.182 385.925 525.182C385.364 525.182 384.915 525.089 384.578 524.903C384.241 524.714 383.982 524.5 383.8 524.261C383.618 524.019 383.478 523.818 383.379 523.659H383.22V525H381.925ZM383.243 520.636C383.243 521.295 383.339 521.877 383.533 522.381C383.726 522.881 384.008 523.273 384.379 523.557C384.75 523.837 385.205 523.977 385.743 523.977C386.304 523.977 386.771 523.83 387.146 523.534C387.525 523.235 387.809 522.833 387.999 522.33C388.192 521.822 388.288 521.258 388.288 520.636C388.288 520.023 388.194 519.47 388.004 518.977C387.819 518.481 387.536 518.089 387.158 517.801C386.783 517.509 386.311 517.364 385.743 517.364C385.197 517.364 384.739 517.502 384.368 517.778C383.997 518.051 383.716 518.434 383.527 518.926C383.338 519.415 383.243 519.985 383.243 520.636ZM395.339 525.182C394.499 525.182 393.773 524.996 393.163 524.625C392.557 524.25 392.089 523.727 391.76 523.057C391.434 522.383 391.271 521.598 391.271 520.705C391.271 519.811 391.434 519.023 391.76 518.341C392.089 517.655 392.548 517.121 393.135 516.739C393.726 516.352 394.415 516.159 395.203 516.159C395.658 516.159 396.107 516.235 396.55 516.386C396.993 516.538 397.396 516.784 397.76 517.125C398.124 517.462 398.413 517.909 398.629 518.466C398.845 519.023 398.953 519.708 398.953 520.523V521.091H392.226V519.932H397.589C397.589 519.439 397.491 519 397.294 518.614C397.101 518.227 396.824 517.922 396.464 517.699C396.108 517.475 395.688 517.364 395.203 517.364C394.669 517.364 394.207 517.496 393.817 517.761C393.43 518.023 393.133 518.364 392.925 518.784C392.716 519.205 392.612 519.655 392.612 520.136V520.909C392.612 521.568 392.726 522.127 392.953 522.585C393.184 523.04 393.504 523.386 393.913 523.625C394.322 523.86 394.798 523.977 395.339 523.977C395.692 523.977 396.01 523.928 396.294 523.83C396.582 523.727 396.83 523.576 397.038 523.375C397.247 523.17 397.408 522.917 397.521 522.614L398.817 522.977C398.68 523.417 398.451 523.803 398.129 524.136C397.807 524.466 397.41 524.723 396.936 524.909C396.463 525.091 395.93 525.182 395.339 525.182ZM402.334 513.364V525H400.993V513.364H402.334Z" fill="#17191B"/>
<path d="M354.5 557C354.5 558.061 354.078 559.078 353.328 559.829C352.578 560.579 351.561 561 350.5 561C349.439 561 348.422 560.579 347.672 559.828C346.921 559.078 346.5 558.061 346.5 557C346.5 555.939 346.921 554.922 347.672 554.172C348.422 553.421 349.439 553 350.5 553C351.561 553 352.578 553.421 353.328 554.171C354.078 554.922 354.5 555.939 354.5 557Z" fill="#59DBFF"/>
<path d="M363.909 563V551.364H365.318V561.75H370.727V563H363.909ZM375.295 563.205C374.742 563.205 374.241 563.1 373.79 562.892C373.339 562.68 372.981 562.375 372.716 561.977C372.451 561.576 372.318 561.091 372.318 560.523C372.318 560.023 372.417 559.617 372.614 559.307C372.811 558.992 373.074 558.746 373.403 558.568C373.733 558.39 374.097 558.258 374.494 558.17C374.896 558.08 375.299 558.008 375.705 557.955C376.235 557.886 376.665 557.835 376.994 557.801C377.328 557.763 377.57 557.701 377.722 557.614C377.877 557.527 377.955 557.375 377.955 557.159V557.114C377.955 556.553 377.801 556.117 377.494 555.807C377.191 555.496 376.731 555.341 376.114 555.341C375.473 555.341 374.972 555.481 374.608 555.761C374.244 556.042 373.989 556.341 373.841 556.659L372.568 556.205C372.795 555.674 373.098 555.261 373.477 554.966C373.86 554.667 374.277 554.458 374.727 554.341C375.182 554.22 375.629 554.159 376.068 554.159C376.348 554.159 376.67 554.193 377.034 554.261C377.402 554.326 377.756 554.46 378.097 554.665C378.441 554.869 378.727 555.178 378.955 555.591C379.182 556.004 379.295 556.557 379.295 557.25V563H377.955V561.818H377.886C377.795 562.008 377.644 562.21 377.432 562.426C377.22 562.642 376.938 562.826 376.585 562.977C376.233 563.129 375.803 563.205 375.295 563.205ZM375.5 562C376.03 562 376.477 561.896 376.841 561.688C377.208 561.479 377.485 561.21 377.67 560.881C377.86 560.551 377.955 560.205 377.955 559.841V558.614C377.898 558.682 377.773 558.744 377.58 558.801C377.39 558.854 377.17 558.902 376.92 558.943C376.674 558.981 376.434 559.015 376.199 559.045C375.968 559.072 375.78 559.095 375.636 559.114C375.288 559.159 374.962 559.233 374.659 559.335C374.36 559.434 374.117 559.583 373.932 559.784C373.75 559.981 373.659 560.25 373.659 560.591C373.659 561.057 373.831 561.409 374.176 561.648C374.525 561.883 374.966 562 375.5 562ZM381.925 563V551.364H383.266V555.659H383.379C383.478 555.508 383.614 555.314 383.788 555.08C383.966 554.841 384.22 554.629 384.55 554.443C384.883 554.254 385.334 554.159 385.902 554.159C386.637 554.159 387.285 554.343 387.845 554.71C388.406 555.078 388.843 555.598 389.158 556.273C389.472 556.947 389.629 557.742 389.629 558.659C389.629 559.583 389.472 560.384 389.158 561.062C388.843 561.737 388.408 562.259 387.851 562.631C387.294 562.998 386.652 563.182 385.925 563.182C385.364 563.182 384.915 563.089 384.578 562.903C384.241 562.714 383.982 562.5 383.8 562.261C383.618 562.019 383.478 561.818 383.379 561.659H383.22V563H381.925ZM383.243 558.636C383.243 559.295 383.339 559.877 383.533 560.381C383.726 560.881 384.008 561.273 384.379 561.557C384.75 561.837 385.205 561.977 385.743 561.977C386.304 561.977 386.771 561.83 387.146 561.534C387.525 561.235 387.809 560.833 387.999 560.33C388.192 559.822 388.288 559.258 388.288 558.636C388.288 558.023 388.194 557.47 388.004 556.977C387.819 556.481 387.536 556.089 387.158 555.801C386.783 555.509 386.311 555.364 385.743 555.364C385.197 555.364 384.739 555.502 384.368 555.778C383.997 556.051 383.716 556.434 383.527 556.926C383.338 557.415 383.243 557.985 383.243 558.636ZM395.339 563.182C394.499 563.182 393.773 562.996 393.163 562.625C392.557 562.25 392.089 561.727 391.76 561.057C391.434 560.383 391.271 559.598 391.271 558.705C391.271 557.811 391.434 557.023 391.76 556.341C392.089 555.655 392.548 555.121 393.135 554.739C393.726 554.352 394.415 554.159 395.203 554.159C395.658 554.159 396.107 554.235 396.55 554.386C396.993 554.538 397.396 554.784 397.76 555.125C398.124 555.462 398.413 555.909 398.629 556.466C398.845 557.023 398.953 557.708 398.953 558.523V559.091H392.226V557.932H397.589C397.589 557.439 397.491 557 397.294 556.614C397.101 556.227 396.824 555.922 396.464 555.699C396.108 555.475 395.688 555.364 395.203 555.364C394.669 555.364 394.207 555.496 393.817 555.761C393.43 556.023 393.133 556.364 392.925 556.784C392.716 557.205 392.612 557.655 392.612 558.136V558.909C392.612 559.568 392.726 560.127 392.953 560.585C393.184 561.04 393.504 561.386 393.913 561.625C394.322 561.86 394.798 561.977 395.339 561.977C395.692 561.977 396.01 561.928 396.294 561.83C396.582 561.727 396.83 561.576 397.038 561.375C397.247 561.17 397.408 560.917 397.521 560.614L398.817 560.977C398.68 561.417 398.451 561.803 398.129 562.136C397.807 562.466 397.41 562.723 396.936 562.909C396.463 563.091 395.93 563.182 395.339 563.182ZM402.334 551.364V563H400.993V551.364H402.334Z" fill="#17191B"/>
</svg>
